<?xml version="1.0" encoding="utf-8"?>
<!-- Generator: Adobe Illustrator 17.0.0, SVG Export Plug-In . SVG Version: 6.00 Build 0)  -->
<!DOCTYPE svg PUBLIC "-//W3C//DTD SVG 1.1//EN" "http://www.w3.org/Graphics/SVG/1.1/DTD/svg11.dtd">
<svg version="1.1" id="Layer_1" xmlns="http://www.w3.org/2000/svg" xmlns:xlink="http://www.w3.org/1999/xlink" x="0px" y="0px"
	 width="1920px" height="2169px" viewBox="0 0 1920 2169" enable-background="new 0 0 1920 2169" xml:space="preserve">
<path opacity="0.4" fill="#0285C0" d="M1914.043,15.652c-11.521,4.466-23.435,9.084-46.918,9.084s-35.396-4.618-46.918-9.084
	c-11.382-4.412-22.133-8.579-44.218-8.579c-22.085,0-32.836,4.167-44.218,8.579c-11.521,4.466-23.435,9.084-46.918,9.084
	c-23.482,0-35.396-4.618-46.917-9.084c-11.382-4.412-22.132-8.579-44.217-8.579c-22.085,0-32.837,4.167-44.218,8.579
	c-11.521,4.466-23.435,9.084-46.918,9.084c-23.482,0-35.396-4.618-46.917-9.084c-11.382-4.412-22.133-8.579-44.218-8.579
	c-22.085,0-32.836,4.167-44.218,8.579c-11.521,4.466-23.435,9.084-46.917,9.084c-23.482,0-35.396-4.618-46.917-9.084
	c-11.382-4.412-22.132-8.579-44.218-8.579s-32.836,4.167-44.218,8.579c-11.521,4.466-23.435,9.084-46.917,9.084
	c-23.482,0-35.395-4.618-46.917-9.084c-11.382-4.412-22.132-8.579-44.217-8.579c-22.085,0-32.836,4.167-44.218,8.579
	c-11.521,4.466-23.434,9.084-46.916,9.084s-35.395-4.618-46.917-9.084c-11.382-4.412-22.132-8.579-44.217-8.579
	c-22.085,0-32.836,4.167-44.218,8.579c-11.521,4.466-23.435,9.084-46.917,9.084c-23.482,0-35.395-4.618-46.917-9.084
	c-11.382-4.412-22.133-8.579-44.218-8.579c-22.085,0-32.836,4.167-44.217,8.579c-11.521,4.466-23.435,9.084-46.917,9.084
	c-23.482,0-35.396-4.618-46.917-9.084c-11.382-4.412-22.133-8.579-44.218-8.579c-22.085,0-32.836,4.167-44.218,8.579
	c-11.521,4.466-23.435,9.084-46.917,9.084c-23.482,0-35.395-4.618-46.917-9.084c-11.382-4.412-22.132-8.579-44.217-8.579
	c-22.085,0-32.836,4.167-44.217,8.579c-11.521,4.466-23.435,9.084-46.917,9.084s-35.395-4.618-46.917-9.084
	c-11.382-4.412-22.132-8.579-44.217-8.579c-22.085,0-32.836,4.167-44.218,8.579c-11.521,4.466-23.435,9.084-46.917,9.084
	S9.038,20.118-2.483,15.652c-0.094-0.037-0.189-0.073-0.283-0.11v2153.795h1923.171V40.882V13.241
	C1918.255,14.02,1916.16,14.832,1914.043,15.652z"/>
<path opacity="0.5" fill="#FFFFFF" d="M1920.544,5.297c0.046-0.015-0.092,0.031-0.138,0.046c-3.165,1.078-6.121,2.225-9.052,3.362
	c-11.369,4.412-22.107,8.58-44.167,8.58c-22.06,0-32.798-4.167-44.167-8.58c-11.508-4.466-23.408-9.084-46.863-9.084
	c-23.455,0-35.355,4.618-46.863,9.084c-11.369,4.412-22.108,8.58-44.167,8.58c-22.06,0-32.798-4.167-44.166-8.58
	c-11.508-4.466-23.408-9.084-46.862-9.084c-23.455,0-35.355,4.618-46.863,9.084c-11.369,4.412-22.107,8.58-44.167,8.58
	c-22.06,0-32.798-4.167-44.167-8.58c-11.508-4.466-23.407-9.084-46.863-9.084c-23.455,0-35.355,4.618-46.863,9.084
	c-11.368,4.412-22.107,8.58-44.166,8.58s-32.798-4.167-44.166-8.58c-11.508-4.466-23.408-9.084-46.863-9.084
	c-23.455,0-35.355,4.618-46.863,9.084c-11.368,4.412-22.107,8.58-44.166,8.58c-22.059,0-32.798-4.167-44.166-8.58
	c-11.508-4.466-23.407-9.084-46.862-9.084s-35.354,4.618-46.862,9.084c-11.368,4.412-22.106,8.58-44.166,8.58
	c-22.059,0-32.798-4.167-44.166-8.58c-11.508-4.466-23.407-9.084-46.862-9.084c-23.455,0-35.355,4.618-46.862,9.084
	c-11.369,4.412-22.107,8.58-44.167,8.58c-22.059,0-32.798-4.167-44.166-8.58c-11.508-4.466-23.407-9.084-46.862-9.084
	s-35.354,4.618-46.862,9.084c-11.369,4.412-22.107,8.58-44.166,8.58c-22.06,0-32.798-4.167-44.166-8.58
	c-11.508-4.466-23.408-9.084-46.863-9.084c-23.455,0-35.355,4.618-46.863,9.084c-11.369,4.412-22.107,8.58-44.167,8.58
	c-22.059,0-32.797-4.167-44.166-8.58c-11.508-4.466-23.407-9.084-46.862-9.084c-23.455,0-35.354,4.618-46.862,9.084
	c-11.369,4.412-22.107,8.58-44.166,8.58s-32.798-4.167-44.166-8.58c-11.508-4.466-23.407-9.084-46.862-9.084
	c-23.455,0-35.355,4.618-46.863,9.084c-11.369,4.412-22.107,8.58-44.166,8.58s-32.798-4.167-44.166-8.58
	C1.503,8.34,0.557,7.973-0.396,7.608c-0.046-0.018-0.092-0.036-0.138-0.053c0,0,0.282,8.098,0,7.988
	c-0.094-0.037,0.188,0.073,0.282,0.11c11.508,4.466,23.408,9.084,46.862,9.084s35.354-4.618,46.862-9.084
	c11.369-4.412,22.107-8.58,44.166-8.58c22.059,0,32.797,4.167,44.166,8.58c11.508,4.466,23.407,9.084,46.862,9.084
	s35.354-4.618,46.862-9.084c11.369-4.412,22.107-8.58,44.166-8.58s32.797,4.167,44.166,8.58c11.508,4.466,23.407,9.084,46.862,9.084
	c23.455,0,35.355-4.618,46.863-9.084c11.369-4.412,22.107-8.58,44.167-8.58c22.06,0,32.798,4.167,44.166,8.58
	c11.508,4.466,23.407,9.084,46.862,9.084c23.455,0,35.354-4.618,46.862-9.084c11.369-4.412,22.107-8.58,44.166-8.58
	c22.059,0,32.798,4.167,44.166,8.58c11.508,4.466,23.407,9.084,46.862,9.084c23.455,0,35.355-4.618,46.862-9.084
	c11.369-4.412,22.107-8.58,44.167-8.58c22.06,0,32.798,4.167,44.166,8.58c11.508,4.466,23.408,9.084,46.862,9.084
	c23.455,0,35.354-4.618,46.862-9.084c11.369-4.412,22.107-8.58,44.166-8.58s32.797,4.167,44.166,8.58
	c11.508,4.466,23.408,9.084,46.862,9.084c23.455,0,35.355-4.618,46.863-9.084c11.368-4.412,22.107-8.58,44.166-8.58
	s32.798,4.167,44.166,8.58c11.508,4.466,23.408,9.084,46.863,9.084c23.455,0,35.354-4.618,46.863-9.084
	c11.369-4.412,22.107-8.58,44.166-8.58c22.06,0,32.798,4.167,44.167,8.58c11.508,4.466,23.407,9.084,46.862,9.084
	c23.455,0,35.355-4.618,46.863-9.084c11.368-4.412,22.107-8.58,44.167-8.58c22.059,0,32.798,4.167,44.166,8.58
	c11.508,4.466,23.407,9.084,46.862,9.084c23.455,0,35.355-4.618,46.863-9.084c11.369-4.412,22.107-8.58,44.167-8.58
	c22.06,0,32.798,4.167,44.167,8.58c11.508,4.466,23.408,9.084,46.864,9.084s35.355-4.618,46.863-9.084
	c2.115-0.821,4.208-1.633,6.356-2.412c0.046-0.017,0.092-0.033,0.138-0.05C1920.544,13.192,1920.406,5.343,1920.544,5.297z"/>
</svg>
