<?xml version="1.0" encoding="utf-8"?>
<!-- Generator: Adobe Illustrator 19.0.0, SVG Export Plug-In . SVG Version: 6.00 Build 0)  -->
<svg version="1.1" id="Overlay" xmlns="http://www.w3.org/2000/svg" xmlns:xlink="http://www.w3.org/1999/xlink" x="0px" y="0px"
	 viewBox="0 0 10734.3 141.7" style="enable-background:new 0 0 10734.3 141.7;" xml:space="preserve">
<style type="text/css">
	.st0{fill:#FFFFFF;}
	.st1{opacity:0.4;fill:#0786C1;}
</style>
<path class="st0" d="M10734,31.7c0.3-0.1-0.5,0.2-0.8,0.3c-17.7,6-34.2,12.4-50.6,18.8c-63.5,24.7-123.5,47.9-246.8,47.9
	s-183.3-23.3-246.8-47.9c-64.3-25-130.8-50.8-261.8-50.8c-131.1,0-197.5,25.8-261.8,50.8c-63.5,24.7-123.5,47.9-246.8,47.9
	c-123.3,0-183.3-23.3-246.8-47.9C9107.5,25.8,9041,0,8910,0c-131.1,0-197.5,25.8-261.8,50.8c-63.5,24.7-123.5,47.9-246.8,47.9
	c-123.3,0-183.3-23.3-246.8-47.9C8090.3,25.8,8023.8,0,7892.7,0c-131.1,0-197.5,25.8-261.8,50.8c-63.5,24.7-123.5,47.9-246.8,47.9
	c-123.3,0-183.3-23.3-246.8-47.9C7073,25.8,7006.5,0,6875.5,0S6678,25.8,6613.7,50.8c-63.5,24.7-123.5,47.9-246.8,47.9
	c-123.3,0-183.3-23.3-246.8-47.9C6055.8,25.8,5989.3,0,5858.3,0c-131.1,0-197.5,25.8-261.8,50.8c-63.5,24.7-123.5,47.9-246.8,47.9
	c-123.3,0-183.3-23.3-246.8-47.9C5038.6,25.8,4972.1,0,4841,0s-197.5,25.8-261.8,50.8c-63.5,24.7-123.5,47.9-246.8,47.9
	c-123.3,0-183.3-23.3-246.8-47.9C4021.4,25.8,3954.9,0,3823.8,0c-131.1,0-197.5,25.8-261.8,50.8c-63.5,24.7-123.5,47.9-246.8,47.9
	c-123.3,0-183.3-23.3-246.8-47.9C3004.1,25.8,2937.6,0,2806.6,0c-131.1,0-197.5,25.8-261.8,50.8c-63.5,24.7-123.5,47.9-246.8,47.9
	c-123.3,0-183.3-23.3-246.8-47.9C1986.9,25.8,1920.4,0,1789.4,0s-197.5,25.8-261.8,50.8C1464,75.4,1404,98.7,1280.7,98.7
	S1097.5,75.4,1034,50.8C969.7,25.8,903.2,0,772.1,0C641.1,0,574.6,25.8,510.3,50.8c-63.5,24.7-123.5,47.9-246.8,47.9
	S80.3,75.4,16.7,50.8c-5.3-2-10.5-4.1-15.9-6.1c-0.3-0.1-0.5-0.2-0.8-0.3c0,0,1.6,45.2,0,44.6c-0.5-0.2,1.1,0.4,1.6,0.6
	c64.3,25,130.8,50.8,261.8,50.8s197.5-25.8,261.8-50.8c63.5-24.7,123.5-47.9,246.8-47.9c123.3,0,183.3,23.3,246.8,47.9
	c64.3,25,130.8,50.8,261.8,50.8s197.5-25.8,261.8-50.8c63.5-24.7,123.5-47.9,246.8-47.9s183.3,23.3,246.8,47.9
	c64.3,25,130.8,50.8,261.8,50.8c131.1,0,197.5-25.8,261.8-50.8c63.5-24.7,123.5-47.9,246.8-47.9c123.3,0,183.3,23.3,246.8,47.9
	c64.3,25,130.8,50.8,261.8,50.8c131.1,0,197.5-25.8,261.8-50.8c63.5-24.7,123.5-47.9,246.8-47.9c123.3,0,183.3,23.3,246.8,47.9
	c64.3,25,130.8,50.8,261.8,50.8c131.1,0,197.5-25.8,261.8-50.8c63.5-24.7,123.5-47.9,246.8-47.9s183.3,23.3,246.8,47.9
	c64.3,25,130.8,50.8,261.8,50.8c131.1,0,197.5-25.8,261.8-50.8c63.5-24.7,123.5-47.9,246.8-47.9c123.3,0,183.3,23.3,246.8,47.9
	c64.3,25,130.8,50.8,261.8,50.8c131.1,0,197.5-25.8,261.8-50.8c63.5-24.7,123.5-47.9,246.8-47.9s183.3,23.3,246.8,47.9
	c64.3,25,130.8,50.8,261.8,50.8c131.1,0,197.5-25.8,261.8-50.8c63.5-24.7,123.5-47.9,246.8-47.9c123.3,0,183.3,23.3,246.8,47.9
	c64.3,25,130.8,50.8,261.8,50.8c131.1,0,197.5-25.8,261.8-50.8c63.5-24.7,123.5-47.9,246.8-47.9c123.3,0,183.3,23.3,246.8,47.9
	c64.3,25,130.8,50.8,261.8,50.8c131.1,0,197.5-25.8,261.8-50.8c63.5-24.7,123.5-47.9,246.8-47.9c123.3,0,183.3,23.3,246.8,47.9
	c64.3,25,130.8,50.8,261.8,50.8c131.1,0,197.5-25.8,261.8-50.8c11.8-4.6,23.5-9.1,35.5-13.5c0.3-0.1,0.5-0.2,0.8-0.3
	C10734,75.8,10733.2,32,10734,31.7z"/>
<g id="XMLID_2_">
	<path id="XMLID_3_" class="st1" d="M10733.2,76.1c-12,4.3-23.7,8.9-35.5,13.5c-64.3,25-130.8,50.8-261.8,50.8
		c-131.1,0-197.5-25.8-261.8-50.8c-63.5-24.7-123.5-47.9-246.8-47.9s-183.3,23.3-246.8,47.9c-64.3,25-130.8,50.8-261.8,50.8
		c-131.1,0-197.5-25.8-261.8-50.8c-63.5-24.7-123.5-47.9-246.8-47.9c-123.3,0-183.3,23.3-246.8,47.9c-64.3,25-130.8,50.8-261.8,50.8
		c-131.1,0-197.5-25.8-261.8-50.8C8076,64.9,8016,41.6,7892.7,41.6c-123.3,0-183.3,23.3-246.8,47.9c-64.3,25-130.8,50.8-261.8,50.8
		c-131.1,0-197.5-25.8-261.8-50.8c-63.5-24.7-123.5-47.9-246.8-47.9s-183.3,23.3-246.8,47.9c-64.3,25-130.8,50.8-261.8,50.8
		c-131.1,0-197.5-25.8-261.8-50.8c-63.5-24.7-123.5-47.9-246.8-47.9c-123.3,0-183.3,23.3-246.8,47.9c-64.3,25-130.8,50.8-261.8,50.8
		c-131.1,0-197.5-25.8-261.8-50.8c-63.5-24.7-123.5-47.9-246.8-47.9c-123.3,0-183.3,23.3-246.8,47.9c-64.3,25-130.8,50.8-261.8,50.8
		c-131.1,0-197.5-25.8-261.8-50.8c-63.5-24.7-123.5-47.9-246.8-47.9c-123.3,0-183.3,23.3-246.8,47.9c-64.3,25-130.8,50.8-261.8,50.8
		c-131.1,0-197.5-25.8-261.8-50.8c-63.5-24.7-123.5-47.9-246.8-47.9c-123.3,0-183.3,23.3-246.8,47.9c-64.3,25-130.8,50.8-261.8,50.8
		c-131.1,0-197.5-25.8-261.8-50.8c-63.5-24.7-123.5-47.9-246.8-47.9c-123.3,0-183.3,23.3-246.8,47.9c-64.3,25-130.8,50.8-261.8,50.8
		s-197.5-25.8-261.8-50.8c-63.5-24.7-123.5-47.9-246.8-47.9c-123.3,0-183.3,23.3-246.8,47.9c-64.3,25-130.8,50.8-261.8,50.8
		S66,114.5,1.7,89.6c-0.5-0.2-1.1-0.4-1.6-0.6v51.6h10733.1V76.1z"/>
</g>
</svg>
