<?xml version="1.0" encoding="utf-8"?>
<!-- Generator: Adobe Illustrator 19.0.0, SVG Export Plug-In . SVG Version: 6.00 Build 0)  -->
<svg version="1.1" id="Layer_1" xmlns="http://www.w3.org/2000/svg" xmlns:xlink="http://www.w3.org/1999/xlink" x="0px" y="0px"
	 viewBox="0 0 1920 51.4" style="enable-background:new 0 0 1920 51.4;" xml:space="preserve">
<style type="text/css">
	.st0{opacity:0.7;fill:#161228;}
	.st1{opacity:0.4;fill:#FFFFFF;}
</style>
<path id="XMLID_5_" class="st0" d="M1919.9,41.2V13.6c-2.1,0.8-4.2,1.6-6.4,2.4c-11.5,4.5-23.4,9.1-46.8,9.1s-35.3-4.6-46.8-9.1
	c-11.4-4.4-22.1-8.6-44.1-8.6c-22,0-32.8,4.2-44.1,8.6c-11.5,4.5-23.4,9.1-46.8,9.1c-23.4,0-35.3-4.6-46.8-9.1
	c-11.4-4.4-22.1-8.6-44.1-8.6c-22,0-32.8,4.2-44.1,8.6c-11.5,4.5-23.4,9.1-46.8,9.1c-23.4,0-35.3-4.6-46.8-9.1
	c-11.4-4.4-22.1-8.6-44.1-8.6c-22,0-32.8,4.2-44.1,8.6c-11.5,4.5-23.4,9.1-46.8,9.1c-23.4,0-35.3-4.6-46.8-9.1
	c-11.4-4.4-22.1-8.6-44.1-8.6c-22,0-32.8,4.2-44.1,8.6c-11.5,4.5-23.4,9.1-46.8,9.1c-23.4,0-35.3-4.6-46.8-9.1
	c-11.4-4.4-22.1-8.6-44.1-8.6s-32.8,4.2-44.1,8.6c-11.5,4.5-23.4,9.1-46.8,9.1s-35.3-4.6-46.8-9.1c-11.4-4.4-22.1-8.6-44.1-8.6
	c-22,0-32.8,4.2-44.1,8.6c-11.5,4.5-23.4,9.1-46.8,9.1c-23.4,0-35.3-4.6-46.8-9.1C716.7,11.6,706,7.4,684,7.4s-32.8,4.2-44.1,8.6
	c-11.5,4.5-23.4,9.1-46.8,9.1c-23.4,0-35.3-4.6-46.8-9.1c-11.4-4.4-22.1-8.6-44.1-8.6c-22,0-32.8,4.2-44.1,8.6
	c-11.5,4.5-23.4,9.1-46.8,9.1c-23.4,0-35.3-4.6-46.8-9.1c-11.4-4.4-22.1-8.6-44.1-8.6c-22,0-32.8,4.2-44.1,8.6
	c-11.5,4.5-23.4,9.1-46.8,9.1s-35.3-4.6-46.8-9.1c-11.4-4.4-22.1-8.6-44.1-8.6c-22,0-32.8,4.2-44.1,8.6c-11.5,4.5-23.4,9.1-46.8,9.1
	S11.8,20.5,0.3,16c-0.1,0-0.2-0.1-0.3-0.1v35.5h1919.8V41.2z"/>
<path id="XMLID_1_" class="st1" d="M1920,5.7c0,0-0.1,0-0.1,0c-3.2,1.1-6.1,2.2-9,3.4c-11.4,4.4-22.1,8.6-44.1,8.6
	s-32.8-4.2-44.1-8.6C1811,4.6,1799.1,0,1775.7,0c-23.4,0-35.3,4.6-46.8,9.1c-11.4,4.4-22.1,8.6-44.1,8.6c-22,0-32.8-4.2-44.1-8.6
	c-11.5-4.5-23.4-9.1-46.8-9.1c-23.4,0-35.3,4.6-46.8,9.1c-11.4,4.4-22.1,8.6-44.1,8.6c-22,0-32.8-4.2-44.1-8.6
	c-11.5-4.5-23.4-9.1-46.8-9.1c-23.4,0-35.3,4.6-46.8,9.1c-11.4,4.4-22.1,8.6-44.1,8.6c-22,0-32.8-4.2-44.1-8.6
	c-11.5-4.5-23.4-9.1-46.8-9.1c-23.4,0-35.3,4.6-46.8,9.1c-11.4,4.4-22.1,8.6-44.1,8.6c-22,0-32.8-4.2-44.1-8.6
	c-11.5-4.5-23.4-9.1-46.8-9.1s-35.3,4.6-46.8,9.1c-11.4,4.4-22.1,8.6-44.1,8.6s-32.8-4.2-44.1-8.6C901.3,4.6,889.4,0,865.9,0
	s-35.3,4.6-46.8,9.1c-11.4,4.4-22.1,8.6-44.1,8.6c-22,0-32.8-4.2-44.1-8.6C719.3,4.6,707.4,0,684,0s-35.3,4.6-46.8,9.1
	c-11.4,4.4-22.1,8.6-44.1,8.6c-22,0-32.8-4.2-44.1-8.6C537.4,4.6,525.5,0,502,0c-23.4,0-35.3,4.6-46.8,9.1
	c-11.4,4.4-22.1,8.6-44.1,8.6c-22,0-32.8-4.2-44.1-8.6C355.4,4.6,343.5,0,320.1,0c-23.4,0-35.3,4.6-46.8,9.1
	c-11.4,4.4-22.1,8.6-44.1,8.6s-32.8-4.2-44.1-8.6C173.4,4.6,161.6,0,138.1,0c-23.4,0-35.3,4.6-46.8,9.1c-11.4,4.4-22.1,8.6-44.1,8.6
	S14.4,13.5,3,9.1C2.1,8.7,1.1,8.3,0.2,8c0,0-0.1,0-0.1-0.1c0,0,0.3,8.1,0,8c-0.1,0,0.2,0.1,0.3,0.1c11.5,4.5,23.4,9.1,46.8,9.1
	S82.5,20.5,94,16c11.4-4.4,22.1-8.6,44.1-8.6c22,0,32.8,4.2,44.1,8.6c11.5,4.5,23.4,9.1,46.8,9.1s35.3-4.6,46.8-9.1
	c11.4-4.4,22.1-8.6,44.1-8.6c22,0,32.8,4.2,44.1,8.6c11.5,4.5,23.4,9.1,46.8,9.1c23.4,0,35.3-4.6,46.8-9.1
	c11.4-4.4,22.1-8.6,44.1-8.6c22,0,32.8,4.2,44.1,8.6c11.5,4.5,23.4,9.1,46.8,9.1c23.4,0,35.3-4.6,46.8-9.1
	c11.4-4.4,22.1-8.6,44.1-8.6s32.8,4.2,44.1,8.6c11.5,4.5,23.4,9.1,46.8,9.1c23.4,0,35.3-4.6,46.8-9.1c11.4-4.4,22.1-8.6,44.1-8.6
	s32.8,4.2,44.1,8.6c11.5,4.5,23.4,9.1,46.8,9.1s35.3-4.6,46.8-9.1c11.4-4.4,22.1-8.6,44.1-8.6s32.8,4.2,44.1,8.6
	c11.5,4.5,23.4,9.1,46.8,9.1c23.4,0,35.3-4.6,46.8-9.1c11.4-4.4,22.1-8.6,44.1-8.6c22,0,32.8,4.2,44.1,8.6
	c11.5,4.5,23.4,9.1,46.8,9.1c23.4,0,35.3-4.6,46.8-9.1c11.4-4.4,22.1-8.6,44.1-8.6c22,0,32.8,4.2,44.1,8.6
	c11.5,4.5,23.4,9.1,46.8,9.1c23.4,0,35.3-4.6,46.8-9.1c11.4-4.4,22.1-8.6,44.1-8.6c22,0,32.8,4.2,44.1,8.6
	c11.5,4.5,23.4,9.1,46.8,9.1c23.4,0,35.3-4.6,46.8-9.1c11.4-4.4,22.1-8.6,44.1-8.6c22,0,32.8,4.2,44.1,8.6
	c11.5,4.5,23.4,9.1,46.8,9.1s35.3-4.6,46.8-9.1c2.1-0.8,4.2-1.6,6.4-2.4c0,0,0.1,0,0.1,0C1920,13.6,1919.9,5.7,1920,5.7z"/>
</svg>
