<?xml version="1.0" encoding="utf-8"?>
<!-- Generator: Adobe Illustrator 19.0.0, SVG Export Plug-In . SVG Version: 6.00 Build 0)  -->
<svg version="1.1" id="Layer_1" xmlns="http://www.w3.org/2000/svg" xmlns:xlink="http://www.w3.org/1999/xlink" x="0px" y="0px"
	 viewBox="0 475.5 1920 50" style="enable-background:new 0 475.5 1920 50;" xml:space="preserve">
<style type="text/css">
	.st0{opacity:0.7;}
	.st1{fill:#161228;}
	.st2{opacity:0.4;}
	.st3{fill:#FFFFFF;}
</style>
<g class="st0">
	<path class="st1" d="M1920,525.5v-35.3c-1.4,0.5-2.9,1.1-4.3,1.6c-11.5,4.5-23.4,9.1-46.9,9.1c-23.4,0-35.4-4.6-46.9-9.1
		c-11.4-4.4-22.1-8.6-44.2-8.6s-32.8,4.2-44.2,8.6c-11.5,4.5-23.4,9.1-46.9,9.1c-23.4,0-35.4-4.6-46.9-9.1
		c-11.4-4.4-22.1-8.6-44.2-8.6s-32.8,4.2-44.2,8.6c-11.5,4.5-23.4,9.1-46.9,9.1c-23.4,0-35.4-4.6-46.9-9.1
		c-11.4-4.4-22.1-8.6-44.2-8.6s-32.8,4.2-44.2,8.6c-11.5,4.5-23.4,9.1-46.9,9.1c-23.4,0-35.4-4.6-46.9-9.1
		c-11.4-4.4-22.1-8.6-44.2-8.6s-32.8,4.2-44.2,8.6c-11.5,4.5-23.4,9.1-46.9,9.1c-23.4,0-35.4-4.6-46.9-9.1
		c-11.4-4.4-22.1-8.6-44.2-8.6s-32.8,4.2-44.2,8.6c-11.5,4.5-23.4,9.1-46.9,9.1s-35.4-4.6-46.9-9.1c-11.4-4.4-22.1-8.6-44.2-8.6
		s-32.8,4.2-44.2,8.6c-11.5,4.5-23.4,9.1-46.9,9.1c-23.4,0-35.4-4.6-46.9-9.1c-12.4-4.4-23.1-8.6-45.2-8.6s-32.8,4.2-44.2,8.6
		c-11.5,4.5-23.4,9.1-46.9,9.1c-23.4,0-35.4-4.6-46.9-9.1c-11.4-4.4-22.1-8.6-44.2-8.6s-32.8,4.2-44.2,8.6
		c-11.5,4.5-23.4,9.1-46.9,9.1s-35.4-4.6-46.9-9.1c-11.4-4.4-22.1-8.6-44.2-8.6c-22.1,0-32.8,4.2-44.2,8.6
		c-11.5,4.5-23.4,9.1-46.9,9.1s-35.4-4.6-46.9-9.1c-11.4-4.4-22.1-8.6-44.2-8.6s-32.8,4.2-44.2,8.6c-11.5,4.5-23.4,9.1-46.9,9.1
		c-22.3,0-34.7-4.1-45.8-8.4v33H1920z"/>
</g>
<g class="st2">
	<path class="st3" d="M1230.9,475.8c-2,0-3.9,0-5.7,0.1h11.5C1234.8,475.8,1232.9,475.8,1230.9,475.8z"/>
	<path class="st3" d="M1048.7,475.8c-2,0-3.9,0-5.7,0.1h11.5C1052.6,475.8,1050.7,475.8,1048.7,475.8z"/>
	<path class="st3" d="M865.7,475.8c-2,0-3.9,0-5.8,0.1h11.6C869.6,475.8,867.7,475.8,865.7,475.8z"/>
	<path class="st3" d="M1413.1,475.8c-2,0-3.9,0-5.7,0.1h11.5C1417,475.8,1415.1,475.8,1413.1,475.8z"/>
	<path class="st3" d="M1595.3,475.8c-2,0-3.9,0-5.7,0.1h11.5C1599.2,475.8,1597.3,475.8,1595.3,475.8z"/>
	<path class="st3" d="M136.3,475.8c-2,0-3.9,0-5.7,0.1H142C140.2,475.8,138.3,475.8,136.3,475.8z"/>
	<path class="st3" d="M1777.5,475.8c-2,0-3.9,0-5.7,0.1h11.5C1781.4,475.8,1779.5,475.8,1777.5,475.8z"/>
	<path class="st3" d="M501,475.8c-2,0-3.9,0-5.7,0.1h11.5C504.9,475.8,503,475.8,501,475.8z"/>
	<path class="st3" d="M683.4,475.8c-2,0-3.9,0-5.8,0.1h11.5C687.3,475.8,685.4,475.8,683.4,475.8z"/>
	<path class="st3" d="M318.7,475.8c-2,0-3.9,0-5.8,0.1h11.5C322.6,475.8,320.7,475.8,318.7,475.8z"/>
	<path class="st3" d="M1913,484.9c-11.4,4.4-22.1,8.6-44.2,8.6c-22,0-32.8-4.2-44.2-8.6c-10.7-4.1-21.6-8.3-41.3-9h-11.5
		c-19.7,0.7-30.6,4.9-41.2,9c-11.4,4.4-22.1,8.6-44.2,8.6c-22.1,0-32.8-4.2-44.2-8.6c-10.5-4.1-21.4-8.3-41.1-9h-11.5
		c-19.7,0.7-30.6,4.9-41.2,9c-11.4,4.4-22.1,8.6-44.2,8.6c-22.1,0-32.8-4.2-44.2-8.6c-10.5-4.1-21.4-8.3-41.1-9h-11.5
		c-19.7,0.7-30.6,4.9-41.2,9c-11.4,4.4-22.1,8.6-44.2,8.6c-22.1,0-32.8-4.2-44.2-8.6c-10.5-4.1-21.4-8.3-41.1-9h-11.5
		c-19.7,0.7-30.6,4.9-41.2,9c-11.4,4.4-22.1,8.6-44.2,8.6c-22,0-32.8-4.2-44.2-8.6c-10.5-4.1-21.4-8.3-41.1-9h-11.5
		c-19.7,0.7-30.6,4.9-41.2,9c-11.4,4.4-22.1,8.6-44.2,8.6c-22,0-32.8-4.2-44.2-8.6c-11.2-4.1-22.1-8.3-41.9-9h-11.6
		c-19.8,0.7-30.6,4.9-41.1,9c-11.4,4.4-22.1,8.6-44.2,8.6c-22,0-32.8-4.2-44.2-8.6c-10.6-4.1-21.5-8.3-41.2-9h-11.5
		c-19.8,0.7-30.6,4.9-41.1,9c-11.4,4.4-22.1,8.6-44.2,8.6s-32.8-4.2-44.2-8.6c-10.6-4.1-21.5-8.3-41.3-9h-11.5
		c-19.7,0.7-30.6,4.9-41.2,9c-11.4,4.4-22.1,8.6-44.2,8.6c-22.1,0-32.8-4.2-44.2-8.6c-10.6-4.1-21.5-8.3-41.2-9h-11.5
		c-19.8,0.7-30.6,4.9-41.1,9c-11.4,4.4-22.1,8.6-44.2,8.6c-22.1,0-32.8-4.2-44.2-8.6c-10.7-4.1-21.5-8.3-41.3-9h-11.5
		c-19.7,0.7-30.6,4.9-41.2,9c-11.4,4.4-22.1,8.6-44.2,8.6c-22.1,0-32.8-4.2-44.3-8.6c-0.3-0.1-0.6-0.2-0.9-0.4v7.9
		c11,4.3,22.8,8.4,45.2,8.4c23.5,0,35.4-4.6,46.9-9.1c11.4-4.4,22.1-8.6,44.2-8.6c22.1,0,32.8,4.2,44.2,8.6
		c11.5,4.5,23.4,9.1,46.9,9.1c23.5,0,35.4-4.6,46.9-9.1c11.4-4.4,22.1-8.6,44.2-8.6c22.1,0,32.8,4.2,44.2,8.6
		c11.5,4.5,23.4,9.1,46.9,9.1s35.4-4.6,46.9-9.1c11.4-4.4,22.1-8.6,44.2-8.6c22.1,0,32.8,4.2,44.2,8.6c11.5,4.5,23.4,9.1,46.9,9.1
		c23.4,0,35.4-4.6,46.9-9.1c11.4-4.4,22.1-8.6,44.2-8.6c22,0,32.8,4.2,44.2,8.6c11.5,4.5,23.4,9.1,46.9,9.1
		c23.4,0,35.4-4.6,46.9-9.1c11.4-4.4,22.1-8.6,44.2-8.6c22,0,32.8,4.2,44.2,8.6c11.5,4.5,23.4,9.1,46.9,9.1s35.4-4.6,46.9-9.1
		c11.4-4.4,22.1-8.6,44.2-8.6c22,0,32.8,4.2,44.2,8.6c11.5,4.5,23.4,9.1,46.9,9.1c23.4,0,35.4-4.6,46.9-9.1
		c11.4-4.4,22.1-8.6,44.2-8.6c22,0,32.8,4.2,44.2,8.6c11.5,4.5,23.4,9.1,46.9,9.1s35.4-4.6,46.9-9.1c11.4-4.4,22.1-8.6,44.2-8.6
		c22,0,32.8,4.2,44.2,8.6c11.5,4.5,23.4,9.1,46.9,9.1c23.4,0,35.4-4.6,46.9-9.1c11.4-4.4,22.1-8.6,44.2-8.6c22,0,32.8,4.2,44.2,8.6
		c11.5,4.5,23.4,9.1,46.9,9.1c23.4,0,35.4-4.6,46.9-9.1c11.4-4.4,22.1-8.6,44.2-8.6c22,0,32.8,4.2,44.2,8.6
		c11.5,4.5,23.4,9.1,46.9,9.1c23.4,0,35.4-4.6,46.9-9.1c2-0.7,3.9-1.5,5.9-2.2v-7.4C1917.6,483.1,1915.3,484,1913,484.9z"/>
</g>
</svg>
