<?xml version="1.0" encoding="utf-8"?>
<!-- Generator: Adobe Illustrator 19.0.0, SVG Export Plug-In . SVG Version: 6.00 Build 0)  -->
<svg version="1.1" id="Layer_1" xmlns="http://www.w3.org/2000/svg" xmlns:xlink="http://www.w3.org/1999/xlink" x="0px" y="0px"
	 viewBox="0 476 1920 50" style="enable-background:new 0 476 1920 50;" xml:space="preserve">
<style type="text/css">
	.st0{fill:#0786C1;}
	.st1{fill:#FFFFFF;}
</style>
<g>
	<path class="st0" d="M1920.1,525.8v-35.3c-1.4,0.5-2.9,1.1-4.3,1.6c-11.5,4.5-23.4,9.1-46.9,9.1c-23.4,0-35.4-4.6-46.9-9.1
		c-11.4-4.4-22.1-8.6-44.2-8.6s-32.8,4.2-44.2,8.6c-11.5,4.5-23.4,9.1-46.9,9.1c-23.4,0-35.4-4.6-46.9-9.1
		c-11.4-4.4-22.1-8.6-44.2-8.6s-32.8,4.2-44.2,8.6c-11.5,4.5-23.4,9.1-46.9,9.1c-23.4,0-35.4-4.6-46.9-9.1
		c-11.4-4.4-22.1-8.6-44.2-8.6s-32.8,4.2-44.2,8.6c-11.5,4.5-23.4,9.1-46.9,9.1c-23.4,0-35.4-4.6-46.9-9.1
		c-11.4-4.4-22.1-8.6-44.2-8.6s-32.8,4.2-44.2,8.6c-11.5,4.5-23.4,9.1-46.9,9.1c-23.4,0-35.4-4.6-46.9-9.1
		c-11.4-4.4-22.1-8.6-44.2-8.6s-32.8,4.2-44.2,8.6c-11.5,4.5-23.4,9.1-46.9,9.1s-35.4-4.6-46.9-9.1c-11.4-4.4-22.1-8.6-44.2-8.6
		s-32.8,4.2-44.2,8.6c-11.5,4.5-23.4,9.1-46.9,9.1c-23.4,0-35.4-4.6-46.9-9.1c-12.4-4.4-23.1-8.6-45.2-8.6s-32.8,4.2-44.2,8.6
		c-11.5,4.5-23.4,9.1-46.9,9.1c-23.4,0-35.4-4.6-46.9-9.1c-11.4-4.4-22.1-8.6-44.2-8.6c-22.1,0-32.8,4.2-44.2,8.6
		c-11.5,4.5-23.4,9.1-46.9,9.1s-35.4-4.6-46.9-9.1c-11.4-4.4-22.1-8.6-44.2-8.6s-32.8,4.2-44.2,8.6c-11.5,4.5-23.4,9.1-46.9,9.1
		s-35.4-4.6-46.9-9.1c-11.4-4.4-22.1-8.6-44.2-8.6s-32.8,4.2-44.2,8.6c-11.5,4.5-23.4,9.1-46.9,9.1c-22.3,0-34.7-4.1-45.8-8.4v33
		L1920.1,525.8L1920.1,525.8z"/>
</g>
<g>
	<path class="st1" d="M1231,476.1c-2,0-3.9,0-5.7,0.1h11.5C1234.9,476.1,1233,476.1,1231,476.1z"/>
	<path class="st1" d="M1048.8,476.1c-2,0-3.9,0-5.7,0.1h11.5C1052.7,476.1,1050.8,476.1,1048.8,476.1z"/>
	<path class="st1" d="M865.8,476.1c-2,0-3.9,0-5.8,0.1h11.6C869.7,476.1,867.8,476.1,865.8,476.1z"/>
	<path class="st1" d="M1413.2,476.1c-2,0-3.9,0-5.7,0.1h11.5C1417.1,476.1,1415.2,476.1,1413.2,476.1z"/>
	<path class="st1" d="M1595.4,476.1c-2,0-3.9,0-5.7,0.1h11.5C1599.3,476.1,1597.4,476.1,1595.4,476.1z"/>
	<path class="st1" d="M136.4,476.1c-2,0-3.9,0-5.7,0.1h11.4C140.3,476.1,138.4,476.1,136.4,476.1z"/>
	<path class="st1" d="M1777.6,476.1c-2,0-3.9,0-5.7,0.1h11.5C1781.5,476.1,1779.6,476.1,1777.6,476.1z"/>
	<path class="st1" d="M501.1,476.1c-2,0-3.9,0-5.7,0.1h11.5C505,476.1,503.1,476.1,501.1,476.1z"/>
	<path class="st1" d="M683.5,476.1c-2,0-3.9,0-5.8,0.1h11.5C687.4,476.1,685.5,476.1,683.5,476.1z"/>
	<path class="st1" d="M318.8,476.1c-2,0-3.9,0-5.8,0.1h11.5C322.7,476.1,320.8,476.1,318.8,476.1z"/>
	<path class="st1" d="M1913.1,485.3c-11.4,4.4-22.1,8.6-44.2,8.6c-22,0-32.8-4.2-44.2-8.6c-10.7-4.1-21.6-8.3-41.3-9h-11.5
		c-19.7,0.7-30.6,4.9-41.2,9c-11.4,4.4-22.1,8.6-44.2,8.6s-32.8-4.2-44.2-8.6c-10.5-4.1-21.4-8.3-41.1-9h-11.5
		c-19.7,0.7-30.6,4.9-41.2,9c-11.4,4.4-22.1,8.6-44.2,8.6s-32.8-4.2-44.2-8.6c-10.5-4.1-21.4-8.3-41.1-9h-11.5
		c-19.7,0.7-30.6,4.9-41.2,9c-11.4,4.4-22.1,8.6-44.2,8.6s-32.8-4.2-44.2-8.6c-10.5-4.1-21.4-8.3-41.1-9h-11.5
		c-19.7,0.7-30.6,4.9-41.2,9c-11.4,4.4-22.1,8.6-44.2,8.6c-22,0-32.8-4.2-44.2-8.6c-10.5-4.1-21.4-8.3-41.1-9h-11.5
		c-19.7,0.7-30.6,4.9-41.2,9c-11.4,4.4-22.1,8.6-44.2,8.6c-22,0-32.8-4.2-44.2-8.6c-11.2-4.1-22.1-8.3-41.9-9H860
		c-19.8,0.7-30.6,4.9-41.1,9c-11.4,4.4-22.1,8.6-44.2,8.6c-22,0-32.8-4.2-44.2-8.6c-10.6-4.1-21.5-8.3-41.2-9h-11.5
		c-19.8,0.7-30.6,4.9-41.1,9c-11.4,4.4-22.1,8.6-44.2,8.6s-32.8-4.2-44.2-8.6c-10.6-4.1-21.5-8.3-41.3-9h-11.5
		c-19.7,0.7-30.6,4.9-41.2,9c-11.4,4.4-22.1,8.6-44.2,8.6s-32.8-4.2-44.2-8.6c-10.6-4.1-21.5-8.3-41.2-9h-11.5
		c-19.8,0.7-30.6,4.9-41.1,9c-11.4,4.4-22.1,8.6-44.2,8.6s-32.8-4.2-44.2-8.6c-10.7-4.1-21.5-8.3-41.3-9h-11.5
		c-19.7,0.7-30.6,4.9-41.2,9c-11.4,4.4-22.1,8.6-44.2,8.6s-32.8-4.2-44.3-8.6c-0.3-0.1-0.6-0.2-0.9-0.4v7.9
		c11,4.3,22.8,8.4,45.2,8.4c23.5,0,35.4-4.6,46.9-9.1c11.4-4.4,22.1-8.6,44.2-8.6s32.8,4.2,44.2,8.6c11.5,4.5,23.4,9.1,46.9,9.1
		s35.4-4.6,46.9-9.1c11.4-4.4,22.1-8.6,44.2-8.6s32.8,4.2,44.2,8.6c11.5,4.5,23.4,9.1,46.9,9.1s35.4-4.6,46.9-9.1
		c11.4-4.4,22.1-8.6,44.2-8.6c22.1,0,32.8,4.2,44.2,8.6c11.5,4.5,23.4,9.1,46.9,9.1c23.4,0,35.4-4.6,46.9-9.1
		c11.4-4.4,22.1-8.6,44.2-8.6c22,0,32.8,4.2,44.2,8.6c11.5,4.5,23.4,9.1,46.9,9.1c23.4,0,35.4-4.6,46.9-9.1
		c11.4-4.4,22.1-8.6,44.2-8.6c22,0,32.8,4.2,44.2,8.6c11.5,4.5,23.4,9.1,46.9,9.1s35.4-4.6,46.9-9.1c11.4-4.4,22.1-8.6,44.2-8.6
		c22,0,32.8,4.2,44.2,8.6c11.5,4.5,23.4,9.1,46.9,9.1c23.4,0,35.4-4.6,46.9-9.1c11.4-4.4,22.1-8.6,44.2-8.6c22,0,32.8,4.2,44.2,8.6
		c11.5,4.5,23.4,9.1,46.9,9.1s35.4-4.6,46.9-9.1c11.4-4.4,22.1-8.6,44.2-8.6c22,0,32.8,4.2,44.2,8.6c11.5,4.5,23.4,9.1,46.9,9.1
		c23.4,0,35.4-4.6,46.9-9.1c11.4-4.4,22.1-8.6,44.2-8.6c22,0,32.8,4.2,44.2,8.6c11.5,4.5,23.4,9.1,46.9,9.1
		c23.4,0,35.4-4.6,46.9-9.1c11.4-4.4,22.1-8.6,44.2-8.6c22,0,32.8,4.2,44.2,8.6c11.5,4.5,23.4,9.1,46.9,9.1
		c23.4,0,35.4-4.6,46.9-9.1c2-0.7,3.9-1.5,5.9-2.2v-7.4C1917.7,483.4,1915.4,484.3,1913.1,485.3z"/>
</g>
</svg>
