<?xml version="1.0" encoding="utf-8"?>
<!-- Generator: Adobe Illustrator 19.0.0, SVG Export Plug-In . SVG Version: 6.00 Build 0)  -->
<svg version="1.1" id="Solid" xmlns="http://www.w3.org/2000/svg" xmlns:xlink="http://www.w3.org/1999/xlink" x="0px" y="0px"
	 viewBox="0 0 10734.3 141.7" style="enable-background:new 0 0 10734.3 141.7;" xml:space="preserve">
<style type="text/css">
	.st0{fill:none;}
	.st1{fill:#FFFFFF;}
	.st2{fill:#1387C1;}
</style>
<g id="XMLID_5_">
	<path id="XMLID_6_" class="st0" d="M6412.6,140.6H6321c14.4,0.7,29.6,1.1,45.8,1.1C6383,141.7,6398.2,141.3,6412.6,140.6z"/>
	<path id="XMLID_47_" class="st0" d="M5395.3,140.6h-91.6c14.4,0.7,29.6,1.1,45.8,1.1S5381,141.3,5395.3,140.6z"/>
	<path id="XMLID_48_" class="st0" d="M7429.8,140.6h-91.6c14.4,0.7,29.6,1.1,45.8,1.1C7400.2,141.7,7415.4,141.3,7429.8,140.6z"/>
	<path id="XMLID_49_" class="st0" d="M9464.3,140.6h-91.6c14.4,0.7,29.6,1.1,45.8,1.1C9434.7,141.7,9449.9,141.3,9464.3,140.6z"/>
	<path id="XMLID_50_" class="st0" d="M4378.1,140.6h-91.6c14.4,0.7,29.6,1.1,45.8,1.1C4348.5,141.7,4363.8,141.3,4378.1,140.6z"/>
	<path id="XMLID_51_" class="st0" d="M10481.5,140.6h-91.6c14.4,0.7,29.6,1.1,45.8,1.1C10451.9,141.7,10467.2,141.3,10481.5,140.6z"
		/>
	<path id="XMLID_52_" class="st0" d="M1326.5,140.6h-91.6c14.4,0.7,29.6,1.1,45.8,1.1C1296.9,141.7,1312.1,141.3,1326.5,140.6z"/>
	<path id="XMLID_53_" class="st0" d="M309.2,140.6h-91.6c14.4,0.7,29.6,1.1,45.8,1.1S294.9,141.3,309.2,140.6z"/>
	<path id="XMLID_54_" class="st0" d="M3360.9,140.6h-91.6c14.4,0.7,29.6,1.1,45.8,1.1C3331.3,141.7,3346.6,141.3,3360.9,140.6z"/>
	<path id="XMLID_55_" class="st0" d="M2343.7,140.6H2252c14.4,0.7,29.6,1.1,45.8,1.1S2329.3,141.3,2343.7,140.6z"/>
	<path id="XMLID_56_" class="st0" d="M2,89.8C2,89.8,2,89.8,2,89.8C2,89.8,2,89.8,2,89.8C2,89.8,2,89.8,2,89.8z"/>
	<path id="XMLID_59_" class="st1" d="M0.4,89.2c0.1,0,0.1,0,0.2,0.1c0.4,0.2,1,0.4,1.4,0.5c0,0,0,0,0,0
		c64.3,25,130.8,50.8,261.8,50.8c131.1,0,197.5-25.8,261.8-50.8c63.5-24.7,123.5-47.9,246.8-47.9c123.3,0,183.3,23.3,246.8,47.9
		c64.3,25,130.8,50.8,261.8,50.8s197.5-25.8,261.8-50.8c63.5-24.7,123.5-47.9,246.8-47.9c123.3,0,183.3,23.3,246.8,47.9
		c64.3,25,130.8,50.8,261.8,50.8c131.1,0,197.5-25.8,261.8-50.8c63.5-24.7,123.5-47.9,246.8-47.9c123.3,0,183.3,23.3,246.8,47.9
		c64.3,25,130.8,50.8,261.8,50.8c131.1,0,197.5-25.8,261.8-50.8c63.5-24.7,123.5-47.9,246.8-47.9c123.3,0,183.3,23.3,246.8,47.9
		c64.3,25,130.8,50.8,261.8,50.8c131.1,0,197.5-25.8,261.8-50.8c63.5-24.7,123.5-47.9,246.8-47.9s183.3,23.3,246.8,47.9
		c64.3,25,130.8,50.8,261.8,50.8c131,0,197.5-25.8,261.8-50.8c63.5-24.7,123.5-47.9,246.8-47.9s183.3,23.3,246.8,47.9
		c64.3,25,130.8,50.8,261.8,50.8c131.1,0,197.5-25.8,261.8-50.8c63.5-24.7,123.5-47.9,246.8-47.9s183.3,23.3,246.8,47.9
		c64.3,25,130.8,50.8,261.8,50.8s197.5-25.8,261.8-50.8c63.5-24.7,123.5-47.9,246.8-47.9c123.3,0,183.3,23.3,246.8,47.9
		c1.1,0.4,2.3,0.9,3.4,1.3c0.5,0.2,0.9,0.4,1.4,0.5c0.8,0.3,1.6,0.6,2.4,0.9c0.4,0.2,0.8,0.3,1.2,0.5c0.8,0.3,1.7,0.6,2.5,1
		c0.4,0.2,0.8,0.3,1.2,0.5c0.8,0.3,1.6,0.6,2.5,0.9c0.4,0.2,0.8,0.3,1.3,0.5c0.8,0.3,1.7,0.6,2.5,1c0.4,0.1,0.8,0.3,1.2,0.4
		c1,0.4,2,0.8,3.1,1.2c0.2,0.1,0.4,0.1,0.6,0.2c2.5,0.9,5,1.9,7.6,2.8c0.2,0.1,0.5,0.2,0.7,0.3c1,0.4,2,0.7,3,1.1
		c0.3,0.1,0.6,0.2,1,0.4c1,0.3,1.9,0.7,2.9,1c0.3,0.1,0.7,0.2,1,0.4c1,0.3,1.9,0.7,2.9,1c0.3,0.1,0.6,0.2,0.9,0.3
		c1.1,0.4,2.1,0.7,3.2,1.1c0.2,0.1,0.4,0.2,0.7,0.2c4,1.4,8,2.7,12.1,4.1c0.2,0.1,0.3,0.1,0.5,0.2c1.2,0.4,2.4,0.8,3.6,1.1
		c0.3,0.1,0.5,0.2,0.8,0.3c1.1,0.3,2.2,0.7,3.3,1c0.3,0.1,0.6,0.2,0.9,0.3c1.1,0.3,2.3,0.7,3.4,1c0.3,0.1,0.5,0.2,0.8,0.2
		c1.3,0.4,2.5,0.8,3.8,1.1c0.1,0,0.2,0.1,0.4,0.1c4.3,1.3,8.8,2.5,13.3,3.7c0.2,0,0.3,0.1,0.5,0.1c1.3,0.3,2.6,0.7,4,1
		c0.3,0.1,0.5,0.1,0.8,0.2c1.2,0.3,2.5,0.6,3.8,0.9c0.3,0.1,0.6,0.1,0.9,0.2c1.3,0.3,2.6,0.6,3.9,0.9c0.2,0.1,0.5,0.1,0.7,0.2
		c1.5,0.4,3,0.7,4.5,1c0,0,0.1,0,0.1,0c9.8,2.2,20,4.3,30.9,6.1c30.8,4.9,66.5,7.8,110.2,7.8c123.3,0,183.3-23.3,246.8-47.9
		c62.2-24.1,126.4-49.1,249.1-50.7v0.1c4.2-0.1,8.5-0.1,12.9-0.1c41.8,0,77.1,2.6,107.8,7v0.1c2,0.3,4,0.5,5.9,0.8c0,0,0,0,0,0
		c3.9,0.6,7.7,1.1,11.4,1.7c0.1,0,0.1,0,0.2,0c9.3,1.5,18.2,3.3,26.7,5.1c0,0,0.1,0,0.1,0c5.1,1.1,10.1,2.3,14.9,3.5l0,0
		c3.2,0.8,6.4,1.6,9.5,2.5c0,0,0.1,0,0.1,0c4.7,1.3,9.2,2.6,13.7,4c0,0,0.1,0,0.1,0c3,0.9,5.9,1.8,8.8,2.8c0.1,0,0.2,0.1,0.3,0.1
		c4.3,1.4,8.6,2.8,12.8,4.3c0.1,0,0.2,0.1,0.3,0.1c2.8,1,5.5,1.9,8.2,2.9c0.2,0.1,0.3,0.1,0.5,0.2c1.3,0.5,2.6,0.9,3.9,1.4
		c0,0,0,0,0.1,0c1.4,0.5,2.7,1,4.1,1.5c0.1,0,0.2,0.1,0.3,0.1c1.2,0.5,2.4,0.9,3.7,1.4c0.2,0.1,0.4,0.1,0.6,0.2c2.6,1,5.2,2,7.8,2.9
		c0.2,0.1,0.5,0.2,0.7,0.3c1.1,0.4,2.3,0.9,3.4,1.3c0.2,0.1,0.3,0.1,0.5,0.2c1.3,0.5,2.5,1,3.8,1.5c0.3,0.1,0.5,0.2,0.8,0.3
		c1.1,0.4,2.1,0.8,3.2,1.2c0.2,0.1,0.5,0.2,0.7,0.3c1.2,0.5,2.5,1,3.7,1.5c64.3,25,130.8,50.8,261.8,50.8s197.5-25.8,261.8-50.8
		c63.5-24.7,123.5-47.9,246.8-47.9c123.3,0,183.3,23.3,246.8,47.9c64.3,25,130.8,50.8,261.8,50.8s197.5-25.8,261.8-50.8
		c11.8-4.6,23.5-9.1,35.5-13.5c0.3-0.1,0.5-0.2,0.8-0.3c0,0-0.8-43.8,0-44.1c-0.1,0-0.6,0.2-0.8,0.3c-17.7,6-34.2,12.4-50.6,18.8
		c-63.5,24.7-123.5,47.9-246.8,47.9s-183.3-23.3-246.8-47.9c-64.3-25-130.8-50.8-261.8-50.8c-131.1,0-197.5,25.8-261.8,50.8
		c-63.5,24.7-123.5,47.9-246.8,47.9c-123.3,0-183.3-23.3-246.8-47.9c-64.3-25-130.8-50.8-261.8-50.8c-4.4,0-8.6,0-12.9,0.1V0.3
		c-122.7,1.6-186.9,26.5-249.1,50.7c-63.5,24.7-123.5,47.9-246.8,47.9c-60.4,0-105.6-5.6-143.5-14.2v0c-39.4-9-70.8-21.2-103.2-33.7
		c-64.3-25-130.8-50.8-261.8-50.8c-131.1,0-197.5,25.8-261.8,50.8c-63.5,24.7-123.5,47.9-246.8,47.9S7201.2,75.7,7137.7,51
		c-64.3-25-130.8-50.8-261.8-50.8S6678.3,26.1,6614,51c-63.5,24.7-123.5,47.9-246.8,47.9C6244,98.9,6184,75.7,6120.4,51
		c-64.3-25-130.8-50.8-261.8-50.8S5661.1,26.1,5596.8,51c-63.5,24.7-123.5,47.9-246.8,47.9S5166.7,75.7,5103.2,51
		c-64.3-25-130.8-50.8-261.8-50.8c-131.1,0-197.5,25.8-261.8,50.8C4516,75.7,4456,98.9,4332.8,98.9c-123.3,0-183.3-23.3-246.8-47.9
		c-64.3-25-130.8-50.8-261.8-50.8c-131.1,0-197.5,25.8-261.8,50.8c-63.5,24.7-123.5,47.9-246.8,47.9c-123.3,0-183.3-23.3-246.8-47.9
		c-64.3-25-130.8-50.8-261.8-50.8S2609.4,26.1,2545.1,51c-63.5,24.7-123.5,47.9-246.8,47.9c-123.3,0-183.3-23.3-246.8-47.9
		c-64.3-25-130.8-50.8-261.8-50.8c-131.1,0-197.5,25.8-261.8,50.8c-63.5,24.7-123.5,47.9-246.8,47.9c-123.3,0-183.3-23.3-246.8-47.9
		C970,26.1,903.5,0.2,772.5,0.2C641.4,0.2,574.9,26.1,510.6,51c-63.5,24.7-123.5,47.9-246.8,47.9S80.6,75.7,17.1,51
		c-5.3-2-10.5-4.1-15.9-6.1c-0.3-0.1-0.5-0.2-0.8-0.3C0.4,44.6,2,89.8,0.4,89.2z M9157.1,89.8c-1.2-0.5-2.5-1-3.7-1.5
		C9154.6,88.9,9155.8,89.3,9157.1,89.8z M9152.6,88.1c-1.1-0.4-2.1-0.8-3.2-1.2C9150.5,87.3,9151.5,87.7,9152.6,88.1z M9148.6,86.5
		c-1.3-0.5-2.5-1-3.8-1.5C9146.1,85.6,9147.3,86,9148.6,86.5z M9144.3,84.9c-1.1-0.4-2.3-0.9-3.4-1.3
		C9142,84,9143.2,84.4,9144.3,84.9z M9140.2,83.3c-2.6-1-5.2-2-7.8-2.9C9135,81.3,9137.6,82.3,9140.2,83.3z M9131.8,80.1
		c-1.2-0.5-2.4-0.9-3.7-1.4C9129.4,79.2,9130.6,79.7,9131.8,80.1z M9127.9,78.7c-1.4-0.5-2.7-1-4.1-1.5
		C9125.2,77.7,9126.5,78.2,9127.9,78.7z M9123.7,77.1c-1.3-0.5-2.6-0.9-3.9-1.4C9121.1,76.2,9122.4,76.7,9123.7,77.1z M9119.3,75.5
		c-2.7-1-5.5-1.9-8.2-2.9C9113.9,73.6,9116.6,74.6,9119.3,75.5z M9110.8,72.5c-4.2-1.5-8.4-2.9-12.8-4.3
		C9102.4,69.7,9106.6,71.1,9110.8,72.5z M9097.8,68.2c-2.9-0.9-5.8-1.8-8.8-2.8C9092,66.3,9094.9,67.3,9097.8,68.2z M9088.9,65.4
		c-4.5-1.4-9-2.7-13.7-4C9079.8,62.7,9084.4,64,9088.9,65.4z M9075,61.4c-3.1-0.9-6.3-1.7-9.5-2.5
		C9068.7,59.7,9071.9,60.5,9075,61.4z M9065.5,58.9c-4.9-1.2-9.8-2.4-14.9-3.5C9055.7,56.5,9060.7,57.7,9065.5,58.9z M9050.5,55.3
		c-8.5-1.9-17.4-3.6-26.7-5.1C9033.1,51.8,9042,53.5,9050.5,55.3z M9023.6,50.2c-3.7-0.6-7.5-1.2-11.4-1.7
		C9016.1,49,9019.9,49.6,9023.6,50.2z M9012.3,48.4c-1.9-0.3-3.9-0.5-5.9-0.8C9008.3,47.9,9010.3,48.2,9012.3,48.4z M8248.7,125.2
		c0,0-0.1,0-0.1,0C8248.6,125.2,8248.7,125.2,8248.7,125.2z M8244.1,124.2c-0.2-0.1-0.5-0.1-0.7-0.2
		C8243.6,124.1,8243.8,124.1,8244.1,124.2z M8239.5,123c-0.3-0.1-0.6-0.1-0.9-0.2C8238.9,122.9,8239.2,123,8239.5,123z
		 M8234.8,121.9c-0.3-0.1-0.5-0.1-0.8-0.2C8234.3,121.8,8234.6,121.8,8234.8,121.9z M8230,120.6c-0.2,0-0.3-0.1-0.5-0.1
		C8229.7,120.6,8229.9,120.6,8230,120.6z M8216.3,116.8c-0.1,0-0.2-0.1-0.4-0.1C8216,116.7,8216.2,116.8,8216.3,116.8z
		 M8212.1,115.6c-0.3-0.1-0.5-0.2-0.8-0.2C8211.6,115.4,8211.8,115.5,8212.1,115.6z M8207.9,114.3c-0.3-0.1-0.6-0.2-0.9-0.3
		C8207.3,114.1,8207.6,114.2,8207.9,114.3z M8203.7,113c-0.3-0.1-0.5-0.2-0.8-0.3C8203.2,112.8,8203.4,112.9,8203.7,113z
		 M8199.4,111.6c-0.2-0.1-0.3-0.1-0.5-0.2C8199,111.5,8199.2,111.5,8199.4,111.6z M8186.8,107.4c-0.2-0.1-0.4-0.2-0.7-0.2
		C8186.3,107.2,8186.6,107.3,8186.8,107.4z M8182.9,106c-0.3-0.1-0.6-0.2-0.9-0.3C8182.3,105.8,8182.6,105.9,8182.9,106z
		 M8179.1,104.6c-0.3-0.1-0.7-0.2-1-0.4C8178.4,104.4,8178.7,104.5,8179.1,104.6z M8175.2,103.2c-0.3-0.1-0.7-0.2-1-0.4
		C8174.5,103,8174.9,103.1,8175.2,103.2z M8171.2,101.8c-0.2-0.1-0.5-0.2-0.7-0.3C8170.7,101.6,8170.9,101.7,8171.2,101.8z
		 M8162.9,98.7c-0.2-0.1-0.4-0.1-0.6-0.2C8162.5,98.5,8162.7,98.6,8162.9,98.7z M8159.3,97.3c-0.4-0.1-0.8-0.3-1.2-0.4
		C8158.5,97,8158.9,97.2,8159.3,97.3z M8155.6,95.9c-0.4-0.2-0.8-0.3-1.3-0.5C8154.8,95.6,8155.2,95.8,8155.6,95.9z M8151.9,94.5
		c-0.4-0.2-0.8-0.3-1.2-0.5C8151.1,94.2,8151.5,94.3,8151.9,94.5z M8148.2,93.1c-0.4-0.2-0.8-0.3-1.2-0.5
		C8147.4,92.7,8147.8,92.9,8148.2,93.1z M8144.6,91.7c-0.5-0.2-0.9-0.4-1.4-0.5C8143.7,91.3,8144.1,91.5,8144.6,91.7z"/>
	<path id="XMLID_97_" class="st1" d="M2,89.8c-0.5-0.2-0.9-0.3-1.4-0.5C1,89.4,1.7,89.7,2,89.8z"/>
	<path id="XMLID_98_" class="st1" d="M10734.3,32C10734.3,32,10734.3,32,10734.3,32C10734.4,31.9,10734.4,31.9,10734.3,32z"/>
	<path id="XMLID_99_" class="st1" d="M2,89.8C2,89.8,2,89.8,2,89.8c-0.3-0.1-1-0.4-1.4-0.5C1.1,89.5,1.5,89.6,2,89.8z"/>
	<path id="XMLID_100_" class="st1" d="M9050.6,55.4c5.1,1.1,10.1,2.3,14.9,3.5C9060.7,57.7,9055.7,56.5,9050.6,55.4z"/>
	<path id="XMLID_101_" class="st1" d="M9075.2,61.4c4.7,1.3,9.2,2.6,13.7,4C9084.4,64,9079.8,62.7,9075.2,61.4z"/>
	<path id="XMLID_102_" class="st1" d="M9065.5,58.9c3.2,0.8,6.4,1.6,9.5,2.5C9071.9,60.5,9068.7,59.7,9065.5,58.9z"/>
	<path id="XMLID_103_" class="st2" d="M1.6,91c-0.5-0.2-0.9-0.4-1.4-0.5c-0.1,0-0.1-0.1-0.2-0.1v50.2h217.6
		C115.9,135.3,57.9,112.8,1.6,91z"/>
	<path id="XMLID_104_" class="st2" d="M1018.8,91C955.3,66.3,895.3,43,772,43C648.8,43,588.8,66.3,525.3,91
		c-56.3,21.9-114.4,44.4-216,49.6h925.6C1133.2,135.3,1075.1,112.8,1018.8,91z"/>
	<path id="XMLID_106_" class="st2" d="M7122.2,91C7058.6,66.3,6998.6,43,6875.4,43S6692.1,66.3,6628.6,91
		c-56.3,21.9-114.4,44.4-216.1,49.6h925.7C7236.5,135.3,7178.5,112.8,7122.2,91z"/>
	<path id="XMLID_107_" class="st2" d="M10173.9,91c-63.5-24.7-123.5-47.9-246.8-47.9S9743.8,66.3,9680.3,91
		c-56.3,21.9-114.4,44.4-216,49.6h925.6C10288.2,135.3,10230.2,112.8,10173.9,91z"/>
	<path id="XMLID_108_" class="st2" d="M2036,91C1972.5,66.3,1912.5,43,1789.3,43C1666,43,1606,66.3,1542.5,91
		c-56.3,21.9-114.4,44.4-216,49.6H2252C2150.4,135.3,2092.4,112.8,2036,91z"/>
	<path id="XMLID_109_" class="st2" d="M10733.1,77.5c-12,4.4-23.7,8.9-35.5,13.5c-56.3,21.9-114.4,44.4-216,49.6h251.5V77.5z"/>
	<path id="XMLID_110_" class="st2" d="M9156.6,91c-1.2-0.5-2.5-1-3.7-1.5c-0.2-0.1-0.5-0.2-0.7-0.3c-1.1-0.4-2.1-0.8-3.2-1.2
		c-0.3-0.1-0.5-0.2-0.8-0.3c-1.3-0.5-2.5-1-3.8-1.5c-0.2-0.1-0.3-0.1-0.5-0.2c-1.1-0.4-2.3-0.9-3.4-1.3c-0.2-0.1-0.5-0.2-0.7-0.3
		c-2.6-1-5.2-2-7.8-2.9c-0.2-0.1-0.4-0.1-0.6-0.2c-1.2-0.5-2.4-0.9-3.7-1.4c-0.1,0-0.2-0.1-0.3-0.1c-1.4-0.5-2.7-1-4.1-1.5
		c0,0,0,0-0.1,0c-1.3-0.5-2.6-0.9-3.9-1.4c-0.2-0.1-0.3-0.1-0.5-0.2c-2.7-1-5.5-1.9-8.2-2.9c-0.1,0-0.2-0.1-0.3-0.1
		c-4.2-1.5-8.4-2.9-12.8-4.3c-0.1,0-0.2-0.1-0.3-0.1c-2.9-0.9-5.8-1.8-8.8-2.8c0,0-0.1,0-0.1,0c-4.5-1.4-9-2.7-13.7-4
		c0,0-0.1,0-0.1,0c-3.1-0.9-6.3-1.7-9.5-2.5l0,0c-4.9-1.2-9.8-2.4-14.9-3.5c0,0-0.1,0-0.1,0c-8.5-1.9-17.4-3.6-26.7-5.1
		c-0.1,0-0.1,0-0.2,0c-3.7-0.6-7.5-1.2-11.4-1.7c0,0,0,0,0,0c-1.9-0.3-3.9-0.5-5.9-0.8v-0.1c-30.7-4.4-66-7-107.8-7
		c-4.4,0-8.6,0-12.9,0.1v-0.1c-122.7,1.6-186.9,26.5-249.1,50.7c-63.5,24.7-123.5,47.9-246.8,47.9c-43.7,0-79.5-2.9-110.2-7.8
		c-10.8-1.8-21.1-3.9-30.9-6.1c0,0-0.1,0-0.1,0c-1.5-0.3-3-0.7-4.5-1c-0.2-0.1-0.5-0.1-0.7-0.2c-1.3-0.3-2.6-0.6-3.9-0.9
		c-0.3-0.1-0.6-0.1-0.9-0.2c-1.3-0.3-2.5-0.6-3.8-0.9c-0.3-0.1-0.5-0.1-0.8-0.2c-1.3-0.3-2.7-0.7-4-1c-0.2,0-0.3-0.1-0.5-0.1
		c-4.5-1.2-9-2.4-13.3-3.7c-0.1,0-0.2-0.1-0.4-0.1c-1.3-0.4-2.6-0.8-3.8-1.1c-0.3-0.1-0.5-0.2-0.8-0.2c-1.1-0.3-2.3-0.7-3.4-1
		c-0.3-0.1-0.6-0.2-0.9-0.3c-1.1-0.3-2.2-0.7-3.3-1c-0.3-0.1-0.5-0.2-0.8-0.3c-1.2-0.4-2.4-0.8-3.6-1.1c-0.2-0.1-0.3-0.1-0.5-0.2
		c-4.1-1.3-8.1-2.7-12.1-4.1c-0.2-0.1-0.4-0.2-0.7-0.2c-1.1-0.4-2.1-0.7-3.2-1.1c-0.3-0.1-0.6-0.2-0.9-0.3c-1-0.3-2-0.7-2.9-1
		c-0.3-0.1-0.7-0.2-1-0.4c-1-0.3-1.9-0.7-2.9-1c-0.3-0.1-0.7-0.2-1-0.4c-1-0.4-2-0.7-3-1.1c-0.2-0.1-0.5-0.2-0.7-0.3
		c-2.5-0.9-5.1-1.9-7.6-2.8c-0.2-0.1-0.4-0.1-0.6-0.2c-1-0.4-2-0.8-3.1-1.2c-0.4-0.1-0.8-0.3-1.2-0.4c-0.8-0.3-1.7-0.6-2.5-1
		c-0.4-0.2-0.8-0.3-1.3-0.5c-0.8-0.3-1.6-0.6-2.5-0.9c-0.4-0.2-0.8-0.3-1.2-0.5c-0.8-0.3-1.7-0.6-2.5-1c-0.4-0.2-0.8-0.3-1.2-0.5
		c-0.8-0.3-1.6-0.6-2.4-0.9c-0.5-0.2-0.9-0.4-1.4-0.5c-1.1-0.4-2.3-0.9-3.4-1.3C8075.9,66.3,8015.9,43,7892.6,43
		c-123.3,0-183.3,23.3-246.8,47.9c-56.3,21.9-114.4,44.4-216.1,49.6h1942.9C9271,135.3,9213,112.8,9156.6,91z"/>
	<path id="XMLID_111_" class="st2" d="M4070.5,91C4007,66.3,3947,43,3823.7,43S3640.5,66.3,3576.9,91
		c-56.3,21.9-114.4,44.4-216,49.6h925.6C4184.8,135.3,4126.8,112.8,4070.5,91z"/>
	<path id="XMLID_112_" class="st2" d="M6104.9,91C6041.4,66.3,5981.4,43,5858.2,43S5674.9,66.3,5611.4,91
		c-56.3,21.9-114.4,44.4-216.1,49.6H6321C6219.3,135.3,6161.3,112.8,6104.9,91z"/>
	<path id="XMLID_113_" class="st2" d="M3053.3,91C2989.7,66.3,2929.7,43,2806.5,43c-123.3,0-183.3,23.3-246.8,47.9
		c-56.3,21.9-114.4,44.4-216,49.6h925.6C3167.6,135.3,3109.6,112.8,3053.3,91z"/>
	<path id="XMLID_114_" class="st2" d="M5087.7,91C5024.2,66.3,4964.2,43,4840.9,43S4657.7,66.3,4594.2,91
		c-56.3,21.9-114.4,44.4-216,49.6h925.6C5202.1,135.3,5144.1,112.8,5087.7,91z"/>
</g>
</svg>
