<?xml version="1.0" encoding="utf-8"?>
<!-- Generator: Adobe Illustrator 19.0.0, SVG Export Plug-In . SVG Version: 6.00 Build 0)  -->
<svg version="1.1" id="Layer_1" xmlns="http://www.w3.org/2000/svg" xmlns:xlink="http://www.w3.org/1999/xlink" x="0px" y="0px"
	 viewBox="0 0 223.2 581.4" style="enable-background:new 0 0 223.2 581.4;" xml:space="preserve">
<style type="text/css">
	.st0{fill:#554E42;}
	.st1{fill:#010101;}
	.st2{fill:#4D4D4D;}
	.st3{fill:#FFCF8B;}
	.st4{fill:#FDC05C;}
	.st5{fill:#443019;}
	.st6{fill:#33383A;}
	.st7{fill:#AFAB75;}
	.st8{fill:#332514;}
	.st9{fill:#45423D;}
	.st10{fill:#947B7B;}
	.st11{fill:#353635;}
	.st12{fill:#9EA1AA;}
	.st13{fill:#787878;}
	.st14{fill:#2C4060;}
	.st15{fill:#373E45;}
	.st16{fill:none;}
	.st17{fill:#FAF398;}
	.st18{font-family:'ScriptMTBold';}
	.st19{font-size:105px;}
	.st20{letter-spacing:21;}
</style>
<g>
	<g id="XMLID_3_">
		<g>
			<path class="st0" d="M159.1,349.9c0.2,0.2,0.3,0.4,0.5,0.6C159.4,350.4,159.2,350.2,159.1,349.9z"/>
			<path class="st1" d="M174.9,558.8c0-0.1,0-0.2,0-0.3c0,0,0,0.1,0,0.1C174.9,558.7,174.9,558.8,174.9,558.8z"/>
			<path class="st2" d="M142.4,266.9c-0.1-0.5-0.4-1.5,0.4-1.9c-0.1,1.2-0.1,2.4-0.2,3.7C142.6,268,142.5,267.4,142.4,266.9z"/>
			<path class="st3" d="M113.4,24.3c0.1-0.1,0.2-0.2,0.3-0.2c0.8-0.7,1.6-1,2.4-1c0.2,0.1,0.5,0.4,0.7,0.9"/>
			<path class="st3" d="M115,39c-2.3,0.2-4.7,0.4-7,0.8c0.1-0.7,0.3-1.4,0.4-2.1c2.5-0.4,5-0.6,7.5-0.8c0.9-0.1,1.9-0.1,2.8-0.1
				c0,0.7,0.1,1.3,0.1,2c-0.9,0-1.9,0-2.8,0.1C115.6,39,115.3,39,115,39z"/>
			<path class="st1" d="M123.6,211.7c0-0.1,0-0.2,0-0.3c0.3-2,4.6-8.2,6.8-8.3c0.6,0,1,0.4,1.1,0.9c0,0.6-0.4,1-0.9,1.1
				c-1,0.3-4.2,4.7-4.8,6.2c0.1,0.1,0.1,0.3,0.1,0.4c0,0.6-0.4,1-0.9,1.1c-0.3,0-0.7-0.1-0.9-0.3
				C123.8,212.3,123.6,212.1,123.6,211.7z"/>
			<path class="st1" d="M104.3,200.4c3.8-2.1,15.3-8.3,22.3-1.2c0.4,0.4,0.4,1,0,1.4c-0.4,0.4-1,0.4-1.4,0c-5.9-6-16.4-0.3-19.9,1.6
				c-0.7,0.4-1.2,0.7-1.7,0.7c-0.3,0-0.6-0.1-0.8-0.4c-0.2-0.3-0.4-0.8,0.2-1.5c0.2-0.2,0.6-0.3,0.9-0.3
				C104.1,200.5,104.2,200.5,104.3,200.4z"/>
			<path class="st1" d="M107.2,213.1c-0.8-1.4-4.6-5.3-5.7-5.5c-0.5,0-1-0.4-1-0.9c0-0.5,0.4-1,0.9-1.1c2.1-0.1,7.2,5.4,7.8,7.3
				c0,0.1,0.1,0.2,0.1,0.3c0,0.3-0.1,0.7-0.3,0.9s-0.5,0.4-0.8,0.4c-0.6,0-1-0.4-1.1-0.9C107.1,213.4,107.1,213.2,107.2,213.1z"/>
			<path class="st1" d="M132.1,110.1c-0.8-11.4-10.7-20-22-19.2c-11.4,0.8-20,10.7-19.2,22c0.8,11.4,10.7,20,22,19.2
				C124.3,131.4,132.9,121.5,132.1,110.1z M109.9,89c12.5-0.9,23.3,8.6,24.2,21c0.9,12.5-8.6,23.3-21.1,24.2s-23.3-8.6-24.2-21.1
				C88,100.7,97.5,89.8,109.9,89z"/>
			<path class="st1" d="M92.3,224.5c8.2,9,26.1,12.6,42.9,1.6c0.5-0.3,1.1-0.2,1.4,0.3c0.3,0.5,0.2,1.1-0.3,1.4
				c-6.8,4.4-13.8,6.6-20.2,7c-10.5,0.7-19.9-3-25.3-9c-0.4-0.4-0.4-1,0.1-1.4C91.3,224,91.9,224.1,92.3,224.5z"/>
			<path class="st1" d="M93.5,347.6c0.1-0.1,0.2-0.2,0.4-0.3C93.7,347.4,93.6,347.5,93.5,347.6z"/>
			<path class="st1" d="M77.8,307.8c-0.2,0.3-0.4,0.5-0.8,0.5c-0.1,0-0.1,0-0.2,0C77.2,308.1,77.5,307.9,77.8,307.8z"/>
			<path class="st0" d="M69.7,387.7c0.1-0.3,0.2-0.7,0.3-1C70,387,69.9,387.4,69.7,387.7C69.7,387.7,69.7,387.7,69.7,387.7z"/>
		</g>
	</g>
</g>
<g>
	<g id="XMLID_2_">
		<g>
			<path class="st0" d="M190.6,157c0,0.1,0,0.3,0.1,0.4c-3.6,0.9-9.5,3.6-12.6,6.1C180.4,161.2,186.4,158.4,190.6,157z"/>
			<path class="st0" d="M180.2,180.1c3.4-1.2,8.3-3.4,11.5-5.5c0,0.1,0,0.3,0,0.4C188.5,176.7,182.9,179.6,180.2,180.1z"/>
			<path class="st4" d="M121.1,64.5c0.3-8.4,0.3-17.8-0.2-25.7c7.2,0.1,14.1,1.2,20.8,3.2c28.9,9,52.6,36.6,67,79
				c-2.4,1.8-5.2,3.9-8.5,5.4c-12.9,5.9-34.5,9.9-64.1,12c-4.2,0.3-8.6,0.5-13.2,0.8c2.1-0.9,4.1-2,5.9-3.4c1.7-1.3,3.3-2.7,4.7-4.3
				c0.4-0.4,0.8-0.9,1.2-1.4c0.4-0.5,0.7-1,1.1-1.5c3.6-5.3,5.5-11.7,5-18.6c-0.8-11.9-8.7-21.7-19.2-25.6c-0.7-0.3-1.4-0.5-2.1-0.7
				C120.2,80.2,120.8,72.9,121.1,64.5z"/>
			<path class="st0" d="M180.2,180.1c0.3,5.3-1.5,9.4-3.9,12.2C178.6,189.4,179.9,185,180.2,180.1z"/>
			<path class="st5" d="M141.9,283.8c0.2-0.1,0.4-0.1,0.7-0.1c1.2-0.1,2.9-0.1,5-0.1c0.3,0,0.7,0,1,0c0.4,0,0.7,0,1.1,0
				c0.4,0,0.8,0,1.1,0c0.6,0,1.2,0,1.8,0c0.4,0,0.8,0,1.2,0c0.2,0,0.4,0,0.6,0c0.4,0,0.8,0,1.3,0.1c0.4,0,0.9,0,1.3,0.1
				c2.2,0.1,4.5,0.3,6.7,0.5c0.5,0,0.9,0.1,1.4,0.1c1.8,0.2,3.6,0.4,5.3,0.7c3.4,0.5,6.6,1.1,9.2,1.9c1.9,0.6,3.4,1.3,4.5,2
				c2.5,1.8,2.1,5.3,1.7,7.3c-0.5,2.5-1.8,5.2-3.5,7.7c-0.4,0.6-0.8,1.1-1.2,1.6c-2.2,2.7-4.9,4.9-7.6,5.5c0,0-0.1,0-0.1,0
				c-0.4,0.1-0.9,0.1-1.3,0.2c-0.4,0-0.8,0-1.3,0c-2.1-0.1-4.6-0.6-7.1-1.4c-0.7-0.2-1.4-0.5-2.2-0.8c-4.8-1.8-9.9-4.4-14.1-6.6
				c-2.1-1.1-3.9-2-5.4-2.7c-0.2-0.5-0.4-1-0.6-1.7c0-0.7,0-1.4,0-2.1c0-0.7,0-1.3,0-2C141.6,290.5,141.7,287.1,141.9,283.8z"/>
			<path class="st6" d="M171.2,162.4c4.2,9.2,4.2,22.1,0.2,26.5c-3.8,4.2-17.1,12-27.8,10.2L171.2,162.4z"/>
			<path class="st6" d="M168.4,157.8l-29.6,39.3c-0.7-0.5-1.4-1.1-2-1.8l29.2-38.7C167.7,157,168.2,157.5,168.4,157.8
				C168.3,157.7,168.4,157.7,168.4,157.8z"/>
			<path class="st6" d="M164.9,156.3L136,194.6c-0.3-0.3-0.7-0.7-1-1.1l28.3-37.5C163.9,156.1,164.4,156.2,164.9,156.3z"/>
			<path class="st7" d="M163.3,156L135,193.5c-0.6-0.6-1.1-1.2-1.7-1.9c-1.6-1.8-3.3-3.8-5.3-5.5l22.8-30.2
				c5.7-0.1,9.8-0.1,11.4-0.1C162.6,155.9,162.9,155.9,163.3,156z"/>
			<path class="st8" d="M173.8,313.1c3.3-0.7,6.5-3.2,9.1-6.4c5.2,3.4,10.1,7.8,14,13.6c5.8,8.6,6.3,17.5,1.5,26.7
				c-6.8,12.9-22.7,22.2-25.2,22.3c0,0,0,0-0.1,0c-0.1,0-0.3,0-0.4,0.1c-0.7-1.9-1.5-3.6-2.2-5.2c-2.7-5.7-5.9-10.7-9.3-15
				c1.4-8.9,5.7-29.9,10.5-35.9c0.2,0,0.4,0,0.5,0C172.8,313.3,173.3,313.2,173.8,313.1z"/>
			<path class="st9" d="M162.5,311.6c0.5,0.2,0.9,0.3,1.4,0.5c1.9,0.6,3.7,1,5.4,1.2c-5,7.8-8.6,27.1-9.8,34
				c-0.3-0.3-0.6-0.6-0.8-0.9c0,0,0,0,0,0c-0.3-0.3-0.6-0.6-0.8-0.9c0,0,0,0,0,0c-0.3-0.3-0.6-0.6-0.9-0.9c-1.4-1.4-2.8-2.8-4.2-3.9
				c1.2-6.8,5-23.7,9.3-29.1C162.2,311.5,162.4,311.6,162.5,311.6z"/>
			<path class="st6" d="M117.6,156.7c12.6-0.6,24.7-0.8,33.3-0.9l-22.8,30.2c-3.3-2.9-7.4-5.1-12.7-4.7l0,0c0,0-0.1,0-0.1,0
				c0,0-0.1,0-0.1,0l0,0c-8.5,0.6-12.9,7.2-16.4,12.6c-2.2,3.4-4.4,6.6-7,7.9c-5.3,2.6-12.1,2.1-18.1,0.5l33.5-44.7
				c2.2-0.2,4.4-0.4,6.6-0.6C115,157,116.3,156.9,117.6,156.7z"/>
			<path class="st7" d="M138.8,197.1l29.6-39.3c1.1,1.4,2,2.9,2.8,4.6L143.6,199c-0.7-0.1-1.5-0.3-2.2-0.5
				C140.5,198.2,139.6,197.7,138.8,197.1z"/>
			<path class="st7" d="M136,194.6l28.9-38.3c0.4,0.1,0.7,0.2,1.1,0.3l-29.2,38.7C136.5,195.1,136.3,194.8,136,194.6z"/>
			<path class="st8" d="M141.9,326.4c-0.5-7.4-0.6-16-0.5-24.7c1.4,0.7,3.2,1.6,5.1,2.6c4.1,2.1,8.9,4.6,13.6,6.4
				c-4.8,6.7-8.3,23.7-9.2,28.5c-2.3-1.6-4.4-2.8-6.3-3.5c-0.6-0.2-1.2-0.4-1.8-0.5C142.4,332.6,142.1,329.6,141.9,326.4z"/>
			<path class="st0" d="M138.9,275.6c-0.1-0.2-0.2-0.4-0.3-0.5c0.4,0.1,1,0.4,1.6,0.7c-0.1,2.2-0.2,4.5-0.3,6.8l0,0l0,0
				C140,279.7,139.7,277.1,138.9,275.6z"/>
			<path class="st10" d="M131.3,203.6c0,0.1,0.1,0.2,0.1,0.3C131.4,203.7,131.4,203.6,131.3,203.6z"/>
			<path class="st3" d="M120,29.2c-0.3-2.2-0.7-4.1-1.2-5.4c8.9-0.6,17.5,0.5,25.7,3.1c8.2,2.6,16,6.8,23.4,12.6
				c19.4,15.2,35.3,41.1,47.3,76.8c-1.5,0.8-3,2-4.8,3.5c-5-14.6-11-27.3-17.9-38.2c-6.9-10.9-14.8-19.9-23.5-27
				c-8-6.5-16.7-11.2-25.9-14.2c-7.1-2.3-14.6-3.5-22.2-3.5C120.6,34,120.3,31.4,120,29.2z"/>
			<path class="st0" d="M123.4,149.9c26.3-1.8,47.2-5.1,63-9.1c0,0.1,0,0.1,0.1,0.2c0.2,0.4,0.4,0.9,0.6,1.3c0,0.1,0,0.1,0.1,0.2
				c0.2,0.4,0.3,0.8,0.4,1.1c0.1,0.2,0.1,0.4,0.2,0.5c0.1,0.4,0.2,0.7,0.4,1.1c0.1,0.2,0.2,0.5,0.2,0.7c0.1,0.4,0.2,0.7,0.3,1.1
				c0.1,0.3,0.1,0.5,0.2,0.8c0.1,0.4,0.2,0.7,0.3,1.1c0.1,0.3,0.2,0.6,0.2,0.9c0.1,0.4,0.2,0.7,0.2,1.1c0.1,0.3,0.1,0.7,0.2,1
				c0.1,0.3,0.1,0.7,0.2,1.1c0.1,0.4,0.1,0.8,0.2,1.1c0.1,0.3,0.1,0.7,0.2,1.1c0.1,0.4,0.1,0.8,0.2,1.2c0,0.1,0,0.3,0,0.4
				c-4.1,1.4-10.2,4.2-12.6,6.5c-1.2-3.6-2.9-6.9-5-9.6c-0.9-1.1-2.4-3-10-4l0-0.1c0,0-0.2,0-0.4,0c-6.9-0.9-18.7-1.1-39.2,0.4
				L123.4,149.9z"/>
			<path class="st3" d="M118.8,38.9c0.8,15.1,0.4,36.7-1.3,44.5c-2.6-0.6-5.3-0.8-8.1-0.6c-1.6,0.1-3.1,0.3-4.6,0.7
				c0-0.6,0-1.3,0.1-2.2c0.4-17.9,1.4-31.8,3.1-41.5c2.3-0.4,4.7-0.6,7-0.8c0.3,0,0.7,0,1-0.1C116.9,38.9,117.9,38.9,118.8,38.9z"/>
			<path class="st3" d="M116.8,23.9c0.9,1.9,1.5,6.8,1.9,13c-0.9,0-1.9,0.1-2.8,0.1c-2.5,0.1-5,0.4-7.5,0.8c0.7-3.4,1.4-6.3,2.3-8.5
				c0.9-2.2,1.8-3.9,2.8-5C114.6,24.1,115.7,24,116.8,23.9z"/>
			<path class="st10" d="M126.1,198.7c0.2,0.1,0.3,0.3,0.5,0.5C126.5,199,126.3,198.8,126.1,198.7z"/>
			<path class="st1" d="M155.2,571l0.1,0.1C155.3,571.1,155.3,571.1,155.2,571z"/>
			<path class="st1" d="M155,570.6l0.1,0.3C155.1,570.8,155.1,570.7,155,570.6z"/>
			<path class="st1" d="M155,570.6C155,570.6,155,570.6,155,570.6L155,570.6z"/>
			<path class="st11" d="M126.1,206.8c1.8-2.4,3.2-3.7,4.3-3.7c0.1,0,0.3,0,0.4,0.1c0.2,0.1,0.4,0.2,0.5,0.4c0,0.1,0.1,0.2,0.1,0.3
				c0,0,0,0.1,0,0.1c0,0.5-0.4,1-0.9,1.1c-1,0.3-4.3,4.7-4.8,6.2c0.1,0.1,0.1,0.3,0.1,0.4c0,0.5-0.4,1-0.9,1.1c-0.2,0-0.3,0-0.5-0.1
				c-0.5-0.2-0.8-0.6-0.8-1.1c0-0.6,0.4-1.6,0.9-2.5C125.1,208.2,125.7,207.3,126.1,206.8z"/>
			<path class="st10" d="M124.9,212.8c-0.2,0-0.3,0-0.5-0.1C124.5,212.7,124.7,212.8,124.9,212.8z"/>
			<path class="st12" d="M104.2,133c2.8,1,5.8,1.4,8.9,1.2c12.5-0.9,21.9-11.7,21.1-24.2c-0.7-9.7-7.4-17.6-16.3-20.2
				c-2.5-0.7-5.1-1-7.9-0.8c-12.5,0.9-21.9,11.7-21.1,24.2C89.5,122.5,95.8,130.1,104.2,133z M104.6,85.6
				C104.6,85.6,104.6,85.6,104.6,85.6c1.6-0.4,3.3-0.7,4.9-0.8c2.9-0.2,5.8,0.1,8.5,0.7c0.7,0.2,1.4,0.4,2.1,0.6
				c10.2,3.4,17.9,12.7,18.7,24.1c1,15.1-10.4,28.2-25.5,29.2c-0.5,0-0.9,0.1-1.4,0.1c-3.2,0.1-6.2-0.4-9.1-1.4
				c-0.4-0.1-0.8-0.3-1.2-0.4C92,134,84.9,125,84.1,114c-0.9-12.8,7.2-24.2,18.9-28"/>
			<path class="st10" d="M108.6,211.6c0.2,0.3,0.4,0.7,0.5,0.9C109,212.2,108.8,211.9,108.6,211.6z"/>
			<path class="st10" d="M107.3,209.9c0.2,0.2,0.3,0.4,0.5,0.6C107.6,210.3,107.4,210.1,107.3,209.9z"/>
			<path class="st10" d="M105.1,207.6c0.8,0.7,1.5,1.5,2.2,2.3C106.6,209.1,105.8,208.3,105.1,207.6z"/>
			<path class="st10" d="M104.8,207.4L104.8,207.4C104.8,207.4,104.8,207.4,104.8,207.4z"/>
			<path class="st11" d="M103.4,202.8c-0.2,0-0.4-0.2-0.6-0.4c-0.2-0.3-0.4-0.8,0.2-1.5c0.2-0.2,0.6-0.3,0.9-0.3
				c0.1-0.1,0.3-0.1,0.4-0.2c3.1-1.7,11.3-6.1,18-3.9c1.4,0.4,2.6,1.2,3.8,2.2c0.2,0.1,0.3,0.3,0.5,0.5c0.4,0.4,0.4,1,0,1.4
				c-0.3,0.3-0.7,0.4-1.1,0.2c-0.1,0-0.2-0.1-0.3-0.2c-1.1-1.1-2.4-1.9-3.7-2.3c-5.9-1.8-13.4,2.3-16.2,3.8
				c-0.7,0.4-1.2,0.7-1.6,0.7C103.6,202.8,103.5,202.8,103.4,202.8z"/>
			<path class="st4" d="M101.8,139.9c-24.2,0.2-45.2-2.6-63.9-8.4c-2.5-0.8-4.9-2.2-7-3.8c-2.1-1.6-4-3.5-5.7-5.2
				c9.1-41.6,42.8-75.3,80.6-82.3c-2.1,12.2-2.7,28.1-3,41.1c0,0.3,0,0.5,0,0.7c0,0.1,0,0.3,0,0.4c0,0.4,0.1,1.2,0.1,1.5
				c-0.1,0.1-0.1,0.3-0.1,0.5c-12.6,4-21.7,15.9-20.7,29.7C83,126.2,91,136.1,101.8,139.9z"/>
			<path class="st0" d="M124.9,212.8c0.5,0,1-0.5,0.9-1.1c0-0.2-0.1-0.3-0.1-0.4c0.6-1.5,3.8-5.9,4.8-6.2c0.5,0,1-0.5,0.9-1.1
				c0,0,0-0.1,0-0.1c0-0.1-0.1-0.2-0.1-0.3c-0.1-0.2-0.3-0.4-0.5-0.4c-0.1,0-0.3-0.1-0.4-0.1c-1,0.1-2.5,1.3-4.3,3.7
				c-0.4,0.5-1,1.4-1.6,2.4c-0.5,0.9-1,1.9-0.9,2.5c0,0.5,0.3,0.9,0.8,1.1C124.5,212.8,124.7,212.8,124.9,212.8z M103.1,200.9
				c-0.7,0.7-0.4,1.3-0.2,1.5c0.2,0.2,0.4,0.4,0.6,0.4c0.1,0,0.2,0,0.2,0c0.4,0,0.9-0.3,1.6-0.7c2.8-1.5,10.3-5.6,16.2-3.8
				c1.4,0.4,2.6,1.1,3.7,2.3c0.1,0.1,0.2,0.2,0.3,0.2c0.4,0.2,0.8,0.1,1.1-0.2c0.4-0.4,0.4-1,0-1.4c-0.2-0.2-0.3-0.3-0.5-0.5
				c-1.2-1.1-2.5-1.8-3.8-2.2c-6.7-2.2-14.9,2.2-18,3.9c-0.1,0.1-0.3,0.1-0.4,0.2C103.6,200.5,103.3,200.6,103.1,200.9z
				 M101.4,205.6c-0.5,0-1,0.5-0.9,1.1c0,0.4,0.3,0.8,0.6,0.9c0.1,0,0.3,0.1,0.4,0.1c0.1,0,0.1,0,0.2,0.1c1.3,0.6,4.7,4.1,5.5,5.4
				c-0.1,0.1-0.1,0.3-0.1,0.4c0,0.4,0.3,0.8,0.7,0.9c0.1,0,0.3,0.1,0.4,0.1c0.3,0,0.6-0.2,0.8-0.4c0.2-0.2,0.3-0.6,0.3-0.9
				c0-0.1,0-0.2-0.1-0.3c0-0.1-0.1-0.2-0.1-0.4c-0.1-0.3-0.3-0.6-0.5-0.9c-0.2-0.3-0.5-0.7-0.8-1.1c-0.2-0.2-0.3-0.4-0.5-0.6
				c0,0,0,0,0,0c-0.7-0.8-1.4-1.6-2.2-2.3c-0.1-0.1-0.2-0.2-0.3-0.3l0,0c-1.1-0.9-2.1-1.6-2.9-1.8
				C101.7,205.6,101.5,205.6,101.4,205.6z M90.8,225.8c3,3.3,7.3,6,12.4,7.5c3.9,1.2,8.3,1.8,12.9,1.4c6.5-0.4,13.4-2.6,20.2-7
				c0.5-0.3,0.6-0.9,0.3-1.4c-0.2-0.2-0.4-0.4-0.6-0.4c-0.3-0.1-0.5,0-0.8,0.1c-11.1,7.2-22.6,8.1-31.5,5.3c-4.7-1.4-8.6-3.9-11.5-7
				c-0.1-0.1-0.2-0.2-0.3-0.2c-0.4-0.2-0.8-0.1-1.1,0.2C90.5,224.8,90.5,225.4,90.8,225.8z M50.3,187c0.9,6,3.1,11.2,6.4,14.1
				c5,4.2,17.2,9.3,28.4,8.5c3.2-0.2,6.3-0.9,9.1-2.3c4.2-2,6.8-6.1,9.4-10c3.4-5.2,6.4-9.7,12-9.9l0-0.1l0,0.1
				c5.6-0.5,9.1,3.5,13.2,8.2c3.1,3.6,6.3,7.2,10.7,8.6c3,0.9,6.2,1.2,9.4,1c11.2-0.8,22.6-7.5,26.9-12.4c0.2-0.2,0.3-0.4,0.5-0.6
				c2.4-2.9,4.2-6.9,3.9-12.2c2.7-0.5,8.3-3.3,11.5-5.1c0,0.2,0,0.4,0,0.6c0,0.3,0,0.6,0,0.9c0,0.5,0,1,0,1.4c0,0.3,0,0.5,0,0.8
				c0,0.5,0,1-0.1,1.5c0,0.3,0,0.5,0,0.7c0,0.5,0,1-0.1,1.5c0,0.2,0,0.4,0,0.6c0,0.5-0.1,1.1-0.1,1.6c0,0.2,0,0.3,0,0.5
				c-0.1,0.6-0.1,1.2-0.2,1.7c0,0.1,0,0.2,0,0.4c-0.1,0.6-0.1,1.2-0.2,1.8c0,0.1,0,0.1,0,0.2c-0.8,6.1-2,11.2-3.6,14.5
				c-3.5,6.9-20.8,29.2-40.3,43.7l0,0c-24.6,14.9-44.8,11.8-61.5,3.5l0,0c0,0,0,0-0.1,0c-12.3-7.1-23.6-17-32.2-25.6
				c-2.1-2.1-4.1-4.2-5.9-6.1c-0.6-0.6-1.1-1.3-1.6-2.1c-0.2-0.3-0.3-0.5-0.5-0.8c0,0,0,0,0,0c-0.3-0.5-0.6-1.1-0.9-1.7c0,0,0,0,0,0
				c-0.3-0.6-0.6-1.2-0.8-1.8c0,0,0,0,0,0c-0.5-1.2-1-2.6-1.4-4c-0.4-1.2-0.7-2.5-1-3.8c-0.2-0.7-0.3-1.4-0.4-2.1
				c-0.1-0.6-0.2-1.2-0.3-1.8c-0.3-1.9-0.6-3.8-0.8-5.7c-0.1-0.8-0.2-1.7-0.3-2.5c-0.1-1.3-0.2-2.6-0.3-3.9
				c-0.1-0.9-0.1-1.8-0.2-2.8c0-0.1,0-0.3,0-0.5c0-0.8-0.1-1.6-0.1-2.4c2.4,1.2,6,2.3,8.8,3C48.4,186.6,49.4,186.8,50.3,187z"/>
			<path class="st7" d="M99.6,158.5l-31.7,42.1c-3.3-1.3-5.9-2.8-7.4-4.1c-0.4-0.3-0.8-0.8-1.1-1.2l26.5-35.2
				C90.2,159.5,94.8,159,99.6,158.5z"/>
			<path class="st11" d="M100.5,206.6c0-0.5,0.4-1,0.9-1.1c0.1,0,0.3,0,0.4,0c0.8,0.2,1.8,0.9,2.9,1.8c0,0,0,0,0,0
				c0.1,0.1,0.2,0.2,0.3,0.3c0.8,0.7,1.5,1.5,2.2,2.3c0,0,0,0,0,0c0.2,0.2,0.3,0.4,0.5,0.6c0.3,0.4,0.6,0.7,0.8,1.1
				c0.2,0.3,0.4,0.7,0.5,0.9c0.1,0.1,0.1,0.3,0.1,0.4c0,0.1,0.1,0.2,0.1,0.3c0,0.3-0.1,0.7-0.3,0.9c-0.2,0.2-0.5,0.4-0.8,0.4
				c-0.1,0-0.3,0-0.4-0.1c-0.4-0.1-0.6-0.5-0.7-0.9c0-0.2,0-0.3,0.1-0.4c-0.7-1.4-4.1-4.9-5.5-5.4c-0.1,0-0.2-0.1-0.2-0.1
				c-0.1,0-0.3,0-0.4-0.1C100.7,207.4,100.5,207,100.5,206.6z"/>
			<path class="st11" d="M103.8,231.4c8.9,2.8,20.4,1.8,31.5-5.3c0.2-0.2,0.5-0.2,0.8-0.1c0.2,0.1,0.5,0.2,0.6,0.4
				c0.3,0.5,0.2,1.1-0.3,1.4c-6.8,4.4-13.7,6.6-20.2,7c-4.6,0.3-9-0.2-12.9-1.4c-5-1.5-9.3-4.2-12.4-7.5c-0.4-0.4-0.3-1,0.1-1.4
				c0.3-0.3,0.7-0.3,1.1-0.2c0.1,0.1,0.2,0.1,0.3,0.2C95.1,227.5,99.1,230,103.8,231.4z"/>
			<path class="st1" d="M95.3,276.3c-0.2-0.6-0.4-1.1-0.6-1.7C94.9,275.1,95.1,275.7,95.3,276.3z"/>
			<path class="st6" d="M85.9,160.1l-26.5,35.2c-4.4-5.8-5.3-21.2-0.1-30.1c0.1-0.2,0.8-1.1,4.1-2.2
				C65.9,162.7,74.6,161.4,85.9,160.1z"/>
			<path class="st13" d="M159.2,568.5c0.6-1.3,2-4.2,2.6-4.2c0,0,0,0,0,0c0.1,0,0.8,0.4,1.9,3.3c0.9,2.4,1.7,4.2,2.8,4.4
				c0.2,0,0.3,0,0.5,0c1.4-0.2,1.9-2,2.4-5.8c0-0.1,0-0.2,0-0.4c0.1-0.7,0.2-1.4,0.2-2.2c0.4,2.3,0.8,3.3,1.5,3.5c0.1,0,0.2,0,0.4,0
				c0.7,0,1-0.4,1.3-1.5c-0.1,3.9-0.5,6.5-1.1,7.3c-4.1,5.4-24.1,9.5-39.7,8.1c-3.6-0.3-6.8-0.9-9.5-1.7c-4.5-1.4-7.6-3.5-8.9-6.1
				c-0.4-0.9-0.8-2-1.1-3.5c0,0,0,0,0,0c1.6-0.2,2.1-2.6,3.1-8.9c0.1-0.6,0.2-1.2,0.3-1.9c0-0.1,0-0.2,0.1-0.4c0-0.2,0-0.3,0.1-0.5
				c0.1-0.3,0.1-0.6,0.2-0.8c0,0.3,0.1,0.5,0.2,0.9c0.4,2,0.9,3.9,2.3,4.2c0.1,0,0.3,0,0.4,0c1.3-0.1,2.4-1.8,3.6-4
				c0.6-1.1,2.3-3.9,2.9-3.8c0,0,0,0,0,0c0.3,0.1,1.6,1.2,2.9,10.4c0.9,6.7,1.6,8.5,2.7,8.9c0.1,0.1,0.3,0.1,0.5,0.1
				c1.7,0,2.2-2.3,3.6-9.1c0.6-2.9,1.6-7.7,2.4-9c0.1,0.2,0.3,0.7,0.6,1.4c0.3,0.8,0.6,1.8,0.9,3.4c1.2,5.5,2.4,8,3.9,8.4
				c0.1,0,0.2,0.1,0.3,0.1c1.9,0.2,3.1-2.4,4.4-5.2c0.5-1.2,1.4-3.1,2-3.6c0.1,0.1,0.3,0.5,0.6,1.3c0.3,0.8,0.7,2,1,4
				c1,4.9,1.9,7.1,3.3,7.4c0.1,0,0.2,0,0.3,0.1c0.1,0,0.2,0,0.4,0C157,573.1,158,571.1,159.2,568.5z"/>
			<path class="st2" d="M137.5,286.5c-0.3,2.8-0.9,5.4-1.3,7.1c-0.1-0.2-0.2-0.4-0.3-0.7c0-0.1-0.1-0.2-0.2-0.3
				c-0.7-1.3-1.6-2.6-2.4-3.5c-0.1-0.1-0.2-0.2-0.3-0.3c-0.5-0.5-1-0.9-1.3-1c-0.1,0-0.3-0.1-0.4,0c-0.3,0-0.6,0.2-0.8,0.4
				c-0.5,0.6-0.2,1.5,0.3,2.3c0.6,1.1,0.1,4.1-1.2,7.4c-1.3,3.5-2.9,5.9-3.7,6.7c-1-3.4-3.5-13.1-4.1-15.6c0-0.3,0-0.5-0.1-0.7
				c-0.1-0.4-0.4-0.6-0.6-0.7c-0.4-0.2-0.7-0.1-0.7,0c-0.6,0.2-0.8,0.3-0.5,1.7c0,1.5-1.2,6.1-2.2,8.4c-0.3-1.9-0.9-5.2-1.6-8.9
				c-0.1-0.4-0.1-0.7-0.2-1.1c-0.4-1.9-0.8-3.9-1.2-5.8c-0.3-1.5-0.6-2.8-0.9-3.9c-0.2-0.9-0.4-1.6-0.6-2.4
				c-0.1-0.5-0.2-0.9-0.3-1.3c-0.3-1.2-0.6-2.2-0.8-3c0,0,0,0,0,0c-0.2-0.5-0.3-0.9-0.4-1.3c0,0,0,0,0,0c-0.2-0.5-0.4-0.9-0.6-1.1
				c-0.1-0.1-0.1-0.1-0.2-0.2c-0.1-0.1-0.3-0.2-0.4-0.2c-0.1,0-0.2,0-0.3,0c-0.2,0-1,0-1.2,1c-0.4,1.4-0.4,4.9-0.4,9
				c0,3.2,0,8.2-0.3,10.3c-0.1-0.2-0.2-0.5-0.3-0.7c0-0.1,0-0.1-0.1-0.2c-0.7-1.8-1.3-4.5-1.8-6.8c-0.9-4.3-1.4-6.2-2.6-6.6
				c-0.2-0.1-0.3-0.1-0.5-0.1c-0.3,0-0.6,0.2-0.9,0.4c-0.9,0.8-1.9,3.3-3.4,7.4c0,0.1,0,0.1-0.1,0.2c-0.3,0.8-0.7,1.7-1,2.6
				c-0.2-2.3-1.1-5.4-2.2-8.9c-0.2-0.6-0.4-1.1-0.6-1.7c-0.2-0.6-0.4-1.2-0.6-1.8c0,0,0-0.1,0-0.1c-1.9-5.4-4.3-11.1-6.1-15.4
				c-0.6-1.4-1.1-2.6-1.5-3.5c-0.4-0.9-0.6-1.6-0.8-2.1c-0.1-0.2-0.2-0.4-0.4-0.5l0.1-0.2c16.7,8.3,36.9,11.4,61.5-3.5l0,0
				c-0.2,0.2-0.4,0.6-0.3,0.9c0.1,0.5,0.1,1,0.2,1.4c0.1,1.2-0.1,2.5-0.2,3.5c-0.1-0.1-0.1-0.2-0.2-0.2c-0.4-0.5-0.8-0.7-1-0.8
				c-0.3-0.1-0.5,0-0.6,0c-1.1,0.4-0.7,1.6-0.3,2.9c0.9,2.8,0.7,7.9,0.4,11.4c-0.2-0.3-0.3-0.6-0.5-0.8c0,0,0,0-0.1-0.1
				c-0.3-0.4-0.5-0.6-0.7-0.7c-0.2-0.1-0.4,0-0.7,0c0,0-0.1,0-0.1,0.1c-0.8,0.4-0.6,1.3-0.4,1.9c0.1,0.5,0.2,1.1,0.2,1.8
				c0.1,1.9,0,4.4-0.2,6c-0.1,0-0.1-0.1-0.1-0.1c-0.7-0.4-1.4-0.8-2-1c-0.5-0.2-0.9-0.4-1-0.4c-0.3-0.1-0.8-0.3-1.4-0.2
				c-0.4,0-0.8,0.2-1.1,0.6c-0.7,0.9-0.2,2.1,0.3,3C138.1,278.3,138,282.5,137.5,286.5z"/>
			<path class="st9" d="M73.6,310c2.7,3.8,15.8,22,18.3,36.3c-2.3,2.1-4.6,4.7-6.9,7.5c-1.1-4.3-4.7-11.5-8.4-18.5
				c-0.1-0.3-0.3-0.5-0.4-0.8c0,0,0,0,0,0c-0.1-0.3-0.3-0.5-0.4-0.8c-4.9-9-10-17.3-10.5-18.1C67.8,313.6,70.6,311.7,73.6,310z"/>
			<path class="st13" d="M103.9,572.5c1.4-0.1,1.7-1.9,2.2-7.5c0.1-1.1,0.3-2.5,0.4-3.6c0.1,0.5,0.3,1.1,0.4,1.8
				c0.8,4,1.3,5.4,2,5.6c0.2,0.1,0.3,0.1,0.6,0.1c0.4,0,0.6-0.1,0.8-0.5c0.2,1.4,0.5,2.6,0.8,3.6c-2.5,0.4-4.8,0.8-7.1,1.2
				L103.9,572.5z"/>
			<path class="st1" d="M103.6,568.7c0,0.1,0,0.1,0.1,0.2C103.6,568.8,103.6,568.8,103.6,568.7z"/>
			<path class="st7" d="M70.4,201.5l32.5-43.4c1.3-0.1,2.7-0.3,4.1-0.4l-33.5,44.7C72.4,202.1,71.4,201.8,70.4,201.5z"/>
			<path class="st1" d="M103.4,568c0,0.2,0.1,0.3,0.1,0.5C103.4,568.3,103.4,568.1,103.4,568z"/>
			<path class="st6" d="M99.6,158.5c1.1-0.1,2.2-0.2,3.4-0.4l-32.5,43.4c-0.9-0.3-1.7-0.6-2.5-0.9L99.6,158.5z"/>
			<path class="st8" d="M93.7,344.7c-1.5-7.2-5.4-15-9.2-21.7c-3.8-6.6-7.6-11.9-9.1-14c0.5-0.3,1-0.5,1.6-0.8c0.1,0,0.1,0,0.2,0
				c0.3,0,0.6-0.2,0.8-0.5c6.3-3,13.2-5.3,20.6-6.5c0.7-0.1,1.3-0.2,1.7-0.4c2.3,13,4.1,26.6,3.7,37.7
				C101.1,339.2,97.5,341.4,93.7,344.7z"/>
			<path class="st9" d="M54.7,326.8c2.5-3.5,5.5-6.9,9-9.9c1.9,3.1,19.1,31.5,19.7,38.9c-2.4,3.1-4.7,6.5-6.8,10.2
				C73.3,351.1,57.9,331,54.7,326.8z"/>
			<path class="st1" d="M78.7,564.9c0,0.2,0.1,0.4,0.1,0.6C78.7,565.3,78.7,565.1,78.7,564.9z"/>
			<path class="st0" d="M50.3,170.7c-2.6-2.1-8.1-4-11.7-4.5c0-0.1,0-0.2,0-0.3C42.9,166.3,48,168.8,50.3,170.7z"/>
			<path class="st0" d="M38.5,182.9c2.4,1.3,5.8,2.6,8.8,3.4c-2.8-0.7-6.4-1.9-8.8-3C38.5,183.2,38.5,183.1,38.5,182.9z"/>
			<path class="st14" d="M47.3,219.2c-0.6-0.6-1.1-1.3-1.6-2.1C46.2,217.9,46.7,218.6,47.3,219.2z"/>
			<path class="st15" d="M53.3,325.3c-2-3.1-3.1-6.4-3.3-9.6c-0.2-2.8,0.3-5.6,1.5-8.2c2.4-5.2,7.3-9.1,12.4-9.7
				c1.6-0.2,3.7-0.2,5.7,0.3c1.2,0.3,2.3,0.8,3.2,1.6c1.7,1.5,2.8,3.7,3.2,6.7c-0.9,0.4-1.7,0.9-2.6,1.4
				C65.1,312.4,58.2,318.4,53.3,325.3z"/>
			<path class="st8" d="M53.5,328.6c2,2.6,6.8,9.1,11.4,16.6c4.6,7.5,8.9,16.1,10,23c0,0.2,0.1,0.4,0.2,0.5
				c-2.5,4.7-4.8,9.8-6.4,15.1c-0.1,0.5-0.3,0.9-0.4,1.4c-14.8-12.8-19.9-24.9-20.5-34.7c-0.3-4.3,0.2-8.1,1.1-11.5
				C49.9,335.4,51.5,331.9,53.5,328.6z"/>
			<path class="st0" d="M39.7,149.3c0.1-0.9,0.1-1.6,0.2-2.2c0-0.1,0-0.2,0-0.3c0-0.1,0-0.2,0-0.3c13.7,3.5,34.2,5.7,64.7,4.4
				c6.3-0.3,12.5-0.6,18.5-1c0.1,0,0.2,0,0.3,0l0,0.3c-2,0.1-4,0.3-6.2,0.5c-1.6,0.1-3.3,0.1-5,0.2c-28.8,1.4-43,3.9-50.2,6.2
				c-0.1,0-0.2,0-0.2,0l0,0c-5.9,1.9-7,3.8-7.7,4.9c-1.6,2.6-2.7,5.7-3.4,9c-0.1-0.1-0.3-0.3-0.5-0.4c-2.3-1.9-7.4-4.4-11.7-4.7
				c0-0.8,0.1-1.6,0.1-2.3c0-0.8,0.1-1.6,0.1-2.3c0-0.6,0.1-1.2,0.1-1.8c0-0.8,0.1-1.5,0.1-2.3c0,0,0-0.1,0-0.1
				c0-0.4,0.1-0.8,0.1-1.2c0.2-2.5,0.3-4.6,0.5-6.3C39.6,149.5,39.6,149.4,39.7,149.3z"/>
			<path class="st1" d="M39.9,147.1c0-0.1,0-0.2,0-0.3C39.9,146.8,39.9,147,39.9,147.1z"/>
			<path class="st1" d="M39.7,149.3c0,0.1,0,0.2,0,0.4C39.6,149.5,39.6,149.4,39.7,149.3z"/>
			<path class="st14" d="M38.5,182.9c0,0.1,0,0.3,0,0.4l0,0C38.5,183.2,38.5,183.1,38.5,182.9z"/>
			<g>
				<path class="st16" d="M168.4,157.8C168.4,157.7,168.3,157.7,168.4,157.8c-0.2-0.2-0.7-0.7-2.5-1.2c-0.3-0.1-0.7-0.2-1.1-0.3
					c-0.5-0.1-1-0.2-1.6-0.3c-0.3-0.1-0.7-0.1-1.1-0.2c-1.6,0-5.7,0-11.4,0.1c-8.5,0.1-20.6,0.3-33.3,0.9c-1.3,0.1-2.6,0.2-3.9,0.4
					c-2.2,0.2-4.4,0.4-6.6,0.6c-1.4,0.1-2.7,0.3-4.1,0.4c-1.1,0.1-2.2,0.2-3.4,0.4c-4.8,0.5-9.4,1.1-13.7,1.6
					c-11.3,1.4-20,2.6-22.5,3c-3.3,1.1-4,1.9-4.1,2.2c-5.2,8.8-4.3,24.2,0.1,30.1c0.4,0.5,0.7,0.9,1.1,1.2c1.5,1.2,4.1,2.8,7.4,4.1
					c0.8,0.3,1.6,0.6,2.5,0.9c1,0.3,2,0.6,3.1,0.9c6,1.6,12.8,2,18.1-0.5c2.7-1.3,4.8-4.5,7-7.9c3.5-5.4,7.9-12.1,16.4-12.6l0,0
					c0,0,0.1,0,0.1,0c0,0,0.1,0,0.1,0l0,0c5.3-0.4,9.4,1.8,12.7,4.7c2,1.7,3.7,3.7,5.3,5.5c0.6,0.6,1.1,1.3,1.7,1.9
					c0.3,0.4,0.7,0.7,1,1.1c0.2,0.2,0.5,0.5,0.7,0.7c0.7,0.7,1.4,1.3,2,1.8c0.9,0.6,1.7,1.1,2.6,1.4c0.7,0.2,1.5,0.4,2.2,0.5
					c10.7,1.9,24.1-6,27.8-10.2c3.9-4.4,3.9-17.3-0.2-26.5C170.4,160.7,169.5,159.1,168.4,157.8z"/>
				<path class="st14" d="M193.1,156.3c-0.2,0-0.3,0.1-0.5,0.1c-0.6,0.2-1.2,0.4-2,0.6c0,0.1,0,0.3,0.1,0.4
					c-3.6,0.9-9.5,3.6-12.6,6.1c-1.2-3.6-2.9-6.9-5-9.6c-0.9-1.1-2.4-3-10-4l0-0.1c0,0-0.2,0-0.4,0c-6.9-0.9-18.7-1.1-39.2,0.4
					c-2,0.1-4,0.3-6.2,0.5c-1.6,0.1-3.3,0.1-5,0.2c-28.8,1.4-43,3.9-50.2,6.2c-0.1,0-0.2,0-0.2,0l0,0c-5.9,1.9-7,3.8-7.7,4.9
					c-1.6,2.6-2.7,5.7-3.4,9c-0.1-0.1-0.3-0.3-0.5-0.4c-2.6-2.1-8.1-4-11.7-4.5c0-0.1,0-0.2,0-0.3l0,0c-0.7-0.1-1.4-0.1-2,0l0,0
					c-1.4,0.5-2,13.6-0.5,15.6c0.1,0.1,0.3,0.3,0.4,0.4c0.5,0.4,1.2,0.8,2.1,1.2c0-0.1,0-0.2,0-0.4c2.4,1.3,5.8,2.6,8.8,3.4
					c1.1,0.3,2,0.5,2.9,0.7c0.9,6,3.1,11.2,6.4,14.1c5,4.2,17.2,9.3,28.4,8.5c3.2-0.2,6.3-0.9,9.1-2.3c4.2-2,6.8-6.1,9.4-10
					c3.4-5.2,6.4-9.7,12-9.9l0-0.1l0,0.1c5.6-0.5,9.1,3.5,13.2,8.2c3.1,3.6,6.3,7.2,10.7,8.6c3,0.9,6.2,1.2,9.4,1
					c11.2-0.8,22.6-7.5,26.9-12.4c0.2-0.2,0.3-0.4,0.5-0.6c2.3-2.9,3.5-7.3,3.9-12.2c3.4-1.2,8.3-3.4,11.5-5.5c0,0.1,0,0.3,0,0.4
					c0.9-0.5,1.6-1,2-1.2c0.2-0.1,0.3-0.2,0.4-0.3C194.8,172.7,193.8,161.7,193.1,156.3z M171.4,188.8c-3.8,4.2-17.1,12-27.8,10.2
					c-0.7-0.1-1.5-0.3-2.2-0.5c-0.9-0.3-1.7-0.8-2.6-1.4c-0.7-0.5-1.4-1.1-2-1.8c-0.2-0.2-0.5-0.5-0.7-0.7c-0.3-0.3-0.7-0.7-1-1.1
					c-0.6-0.6-1.1-1.2-1.7-1.9c-1.6-1.8-3.3-3.8-5.3-5.5c-3.3-2.9-7.4-5.1-12.7-4.7l0,0c0,0-0.1,0-0.1,0c0,0-0.1,0-0.1,0l0,0
					c-8.5,0.6-12.9,7.2-16.4,12.6c-2.2,3.4-4.4,6.6-7,7.9c-5.3,2.6-12.1,2.1-18.1,0.5c-1.1-0.3-2.1-0.6-3.1-0.9
					c-0.9-0.3-1.7-0.6-2.5-0.9c-3.3-1.3-5.9-2.8-7.4-4.1c-0.4-0.3-0.8-0.8-1.1-1.2c-4.4-5.8-5.3-21.2-0.1-30.1
					c0.1-0.2,0.8-1.1,4.1-2.2c2.5-0.4,11.2-1.6,22.5-3c4.3-0.5,8.9-1,13.7-1.6c1.1-0.1,2.2-0.2,3.4-0.4c1.3-0.1,2.7-0.3,4.1-0.4
					c2.2-0.2,4.4-0.4,6.6-0.6c1.3-0.1,2.6-0.2,3.9-0.4c12.6-0.6,24.7-0.8,33.3-0.9c5.7-0.1,9.8-0.1,11.4-0.1
					c0.4,0.1,0.7,0.1,1.1,0.2c0.6,0.1,1.1,0.2,1.6,0.3c0.4,0.1,0.7,0.2,1.1,0.3c1.8,0.5,2.3,1,2.4,1.1c0,0,0,0.1,0.1,0.1
					c1.1,1.4,2,2.9,2.8,4.6C175.3,171.5,175.3,184.5,171.4,188.8z"/>
			</g>
			<path class="st0" d="M75.8,511.6c10.3-41.8,17-59.9,17.1-60.3c0.1-0.5-0.2-1.1-0.7-1.2c-0.1,0-0.2,0-0.3,0
				c-0.4,0-0.8,0.3-0.9,0.7c0,0.1-0.4,1.4-1.1,3.8C74.2,439.6,68.4,424,67.4,410c-0.6-8.1,0.5-15.7,2.3-22.3c0,0,0,0,0.1-0.1
				c0.2-0.3,0.3-0.6,0.2-0.9c0,0,0,0,0,0c0.2-0.8,0.5-1.6,0.7-2.4c3.4-10.9,8.9-20.4,14.6-27.7c2.7-3.5,5.5-6.5,8.2-9c0,0,0,0,0,0
				c0.2-0.1,0.3-0.2,0.4-0.4c3.8-3.5,7.3-5.8,9.8-6.5c-0.4,5.8-1.4,10.9-3.2,14.6c-0.2,0.5,0,1.1,0.4,1.3c0.1,0,0.2,0.1,0.3,0.1
				c0.1,0,0.2,0,0.3,0c0.3,0,0.7-0.2,0.8-0.5c2.1-4.3,3.2-10.1,3.5-16.8c0.7-15.8-2.8-36.6-6.6-53.5c0.3-0.8,0.6-1.6,1-2.7
				c0.7-1.9,1.8-5,2.6-6.3c0.2,0.5,0.4,1.3,0.6,2.1c0.2,0.8,0.4,1.7,0.6,2.5c0.8,3.5,1.6,7.4,3.1,9.2c0.4,0.4,0.7,0.6,1,0.7
				c0.3,0.1,0.6,0,0.7,0c1.5-0.5,1.7-3.2,1.6-12.9c0-1.5,0-3,0-4.4c0,0,0-0.1,0-0.1c0-0.2,0-0.4,0-0.6c1.7,6.5,4.5,20.6,5.1,25.2
				c0.1,0.8,0.3,1.8,1.2,2.1c0.1,0,0.3,0.1,0.5,0.1c0.3,0,0.7-0.1,1-0.5c0.6-0.6,1.2-2.1,1.8-3.8c0.1-0.3,0.2-0.6,0.3-1c0,0,0,0,0,0
				c0.1-0.3,0.2-0.7,0.3-1c0-0.2,0.1-0.3,0.1-0.5c0.2,0.6,0.3,1.3,0.5,2c0.9,3.5,2.1,7.9,2.6,9.7c0.2,0.8,0.7,1.1,1.1,1.2
				c0.1,0,0.1,0,0.1,0c0.1,0,0.2,0,0.4,0c0.9-0.1,1.7-1,2.3-1.7c1.9-2.5,5-9,5-13.3c0.9,1.3,1.7,2.8,1.9,4c0.1,0.7,0.4,1.1,0.9,1.2
				c0.1,0,0.2,0,0.3,0c0.3,0,0.6-0.1,0.9-0.5c0.3-0.4,0.7-1.5,1.1-3c0.8-2.9,1.5-7.3,1.7-11.3l0,0c-0.1,1.4-0.1,2.7-0.2,4.1
				c0,1-0.1,2-0.1,3c0,0,0,0,0,0c-0.1,2.8-0.2,5.7-0.2,8.6c0,0,0,0,0,0c-0.3,14,0,28.1,1.5,38c0.5,3.6,1.3,6.6,2.2,8.8
				c0.1,0.3,0.4,0.5,0.7,0.6c0.1,0,0.2,0,0.3,0c0.1,0,0.2,0,0.3-0.1c0.5-0.2,0.7-0.8,0.5-1.3c-0.7-1.8-1.4-4.2-1.8-7
				c0.1,0,0.3,0.1,0.4,0.1c4,1.2,9.9,5.5,15.6,12.4c0.1,0.2,0.2,0.4,0.4,0.6c0,0,0,0,0,0c3.2,4,6.4,8.9,9.1,14.6
				c7.1,15.2,15.3,46.4-9.4,85.9c-0.3-2.3-0.5-4.1-0.6-5.3c0,0,0-0.1,0-0.1c-0.1-0.2-0.2-0.4-0.3-0.5c-0.1-0.1-0.2-0.2-0.4-0.2
				c-0.1,0-0.3-0.1-0.4,0c-0.5,0.1-0.9,0.6-0.9,1.1c0.3,2.6,0.6,5.2,0.9,7.9c6.1,51.9,14.2,67.9,15.2,100.6c-0.9,0.2-1,1.3-1.3,5.6
				c0,0.5-0.1,1.1-0.2,1.7c-0.5-2.9-0.7-4.1-1.6-4.4c-0.1,0-0.2-0.1-0.4,0c-1.2,0-1.3,1-1.7,5.2c-0.2,2-0.5,5.8-1,7.3
				c-0.3-0.4-0.7-1.2-1.2-2.8c-1-2.8-1.9-4.2-3.1-4.6c-0.2-0.1-0.3-0.1-0.5-0.1c-2-0.1-3.2,2.5-4.6,5.3c-0.6,1.2-1.5,3.1-2,3.5
				c0,0,0,0-0.1-0.1l-0.1-0.1l-0.1-0.1l-0.1-0.3c0,0,0,0,0,0l-0.3-0.8l0,0c0,0,0-0.1-0.1-0.2c-0.1-0.2-0.1-0.4-0.2-0.6
				c-0.1-0.1-0.1-0.3-0.1-0.5c0,0,0,0,0,0c-0.1-0.2-0.1-0.3-0.1-0.5c-0.1-0.6-0.3-1.2-0.5-2c-0.1-0.3-0.1-0.5-0.2-0.8c0,0,0,0,0,0
				c-0.9-4.5-1.8-6.5-3.2-6.9c-0.1,0-0.2,0-0.3-0.1c-1.7-0.2-2.7,2-4,4.8c-0.6,1.4-1.8,3.9-2.4,4.1c-0.1,0-0.3-0.2-0.8-1.1
				c-0.2-0.3-0.3-0.7-0.5-1.2c0-0.1-0.1-0.3-0.2-0.5c0-0.1-0.1-0.2-0.1-0.3c0-0.1-0.1-0.3-0.1-0.4c-0.3-0.9-0.6-2.1-0.9-3.6
				c-0.9-4.2-1.8-6.1-2.9-6.5c-0.2-0.1-0.3-0.1-0.5-0.1c-1.9,0.1-2.7,3.2-4.3,10.9c-0.5,2.3-1.1,5.2-1.6,6.7
				c-0.3-0.9-0.7-2.8-1.2-6.5c-1.3-9.5-2.8-11.5-4.2-12c-0.1,0-0.2-0.1-0.3-0.1c-2-0.4-3.5,2.1-5,4.7c-0.6,1-1.4,2.5-2,2.9
				c-0.1-0.1-0.2-0.4-0.3-0.7c-0.1-0.4-0.3-0.9-0.4-1.7c-0.2-1-0.3-1.8-0.5-2.5c-0.2-0.6-0.4-1.1-0.7-1.4c-0.2-0.2-0.4-0.3-0.6-0.4
				c-0.1,0-0.3-0.1-0.4-0.1c-1.3,0-1.7,1.6-2.5,7.1c-0.3,2-0.8,5.2-1.3,6.7c0-0.1-0.1-0.2-0.1-0.3c-0.1-0.2-0.2-0.3-0.3-0.4
				c-0.3-2.7-0.6-5.9-0.7-9.7c-0.7-22.7,1.5-10.6,4.4-44.6c1.8-21.2,3.3-39.6,3.6-50.8l0,0c4.5-0.3,9-1.5,12-3.4
				c0.5-0.3,0.6-0.9,0.3-1.4c0-0.1-0.1-0.1-0.1-0.2c0,0-0.1-0.1-0.1-0.1c-0.1-0.1-0.2-0.1-0.4-0.2c-0.3-0.1-0.5,0-0.8,0.1
				c-3,2-7.5,3-11.9,3.2c-3.4,0.1-6.7-0.2-9.2-1.1c-1.1-0.4-2.1-0.8-2.8-1.4c-0.1-0.1-0.2-0.1-0.4-0.2c-0.4-0.1-0.8,0-1,0.4
				c-0.3,0.4-0.2,1.1,0.2,1.4c1,0.7,2.2,1.3,3.7,1.8c2.4,0.7,5.4,1.1,8.5,1c-0.2,5.6-0.6,12.9-1.3,21.5c-0.6,8.6-1.5,18.5-2.3,29
				c-2.8,33.4-4.7,17.7-4.4,40.7c-1,0.1-1,0.6-0.8,6.5c0,0.6,0,1.3,0.1,2c-0.5-2-0.9-3.1-1.4-3.6c0,0-0.1-0.1-0.1-0.1
				c-0.1-0.1-0.3-0.2-0.4-0.2c-0.1,0-0.2,0-0.4,0c-1.4,0.1-1.6,1.8-2.2,7.3c-0.1,1.3-0.3,2.9-0.5,4.2c0,0,0,0,0,0c0,0,0-0.1-0.1-0.2
				c0-0.1,0-0.2-0.1-0.3c0-0.1-0.1-0.3-0.1-0.5c-0.3-1.1-0.6-2.6-1-4.7c0-0.2-0.1-0.4-0.1-0.6c-0.1-0.4-0.2-0.8-0.2-1.1c0,0,0,0,0,0
				c-0.1-0.5-0.2-1-0.3-1.5c0,0,0,0,0,0c-0.7-3.2-1.4-4.8-2.2-5.5c-0.2-0.2-0.4-0.4-0.7-0.5c-0.2-0.1-0.4-0.1-0.5-0.1
				c-1.9-0.1-2.9,2.6-4.4,7c-0.4,1.3-1,3.1-1.5,4c-0.2-0.4-0.4-1.2-0.6-2.4c-0.4-2.2-1-4.4-2.6-4.6c-0.1,0-0.2,0-0.4,0
				c-1.7,0.1-2.9,2.7-4.6,6.1c-0.9,1.8-2.9,5.9-3.7,5.8c0,0-0.3-0.1-0.6-0.8c-0.3-0.6-0.7-1.7-1.1-3.5c0-0.2-0.1-0.4-0.1-0.6
				c0-0.2-0.1-0.4-0.1-0.5c-0.7-3.6-1.4-5.9-2.3-7c-0.1-0.1-0.2-0.2-0.2-0.3l0,0c-0.1-0.1-0.2-0.2-0.2-0.2c-0.2-0.1-0.3-0.3-0.5-0.3
				c-0.1,0-0.2-0.1-0.3-0.1c-0.1,0-0.2,0-0.3-0.1c-1.9-0.2-1.9,0.2-3.3,3.4c-0.7,1.5-0.6,6.3-0.8,6.4s-0.8-0.2-1-1.2
				c-0.5-1-0.2-0.6-0.4-1.5c-0.4-0.4-0.4-1-0.8-1.3c-0.6-0.5-1.2-0.8-1.8-1c-0.2-0.1-0.5-0.1-0.7-0.2c-2.4-0.3-4.6,1.3-6.1,2.8
				c0.2-4.2,4.9-11.3,6.8-22"/>
			<path class="st13" d="M65.6,562.9c0.2,0,0.3,0.1,0.5,0.1c1.1,0.4,2.2,1.6,3.1,3.5c0.2,0.5,0.9,1.8,2,2.1c0.2,0,0.3,0.1,0.5,0.1
				c1.8,0-0.9-3,0.4-6.1c0.7-1.5,1.8-4,2.4-4.3c0.1,0.1,0.4,0.4,0.8,1.4c0.4,0.9,0.8,2.5,1.3,5.1c0.9,4.4,1.9,6.6,3.4,7
				c0.1,0,0.2,0.1,0.3,0.1c2.2,0.3,3.9-3,5.8-6.9c0.4-0.7,0.8-1.7,1.3-2.5c0.1-0.1,0.1-0.2,0.2-0.4c0.5-1,1-1.8,1.4-2
				c0.1,0.1,0.2,0.3,0.4,0.8c0.2,0.4,0.4,1.1,0.6,2.1c0.4,2.4,0.9,4,2,4.4c0.1,0.1,0.3,0.1,0.5,0.1c1.6,0.1,2.3-2.1,3.6-5.8
				c0.3-1,0.8-2.4,1.3-3.6c0.1-0.1,0.1-0.3,0.2-0.4c0.1-0.2,0.2-0.5,0.3-0.7c0.1-0.1,0.1-0.2,0.2-0.3c0.1-0.3,0.3-0.5,0.4-0.6
				c0.2,0.2,0.5,0.6,0.8,1.8c0.4,1.1,0.9,3,1.4,5.9c1.3,7,2,8.6,2.9,8.8c0.1,0,0.3,0,0.4,0c0,0,0,0,0,0l0.1,0.6
				c-18.9,2.9-27.4,3.4-36.5,0.5c-2.5-0.8-4.8-1.8-6.9-3.1c-0.4-0.2-0.8-1.1-0.9-3.8l0,0C60.8,565.4,63.3,562.6,65.6,562.9z"/>
			<path class="st1" d="M27.3,139.9c-0.7-0.4-1.4-0.7-2-1.1C25.9,139.2,26.6,139.5,27.3,139.9z"/>
			<path class="st1" d="M59,540.5c-0.1,0.4-0.1,0.8-0.2,1.1C58.9,541.3,58.9,540.9,59,540.5z"/>
			<path class="st3" d="M23.5,120.9c-1.7-1.6-3.1-2.9-4.4-3.5c0.4-16.5,11.2-38,28.4-56.2c18.4-19.6,41.3-32.8,63.1-36.5
				c-1.9,3-3.3,7.7-4.4,13.4c-17.3,3.1-34.3,11.8-48.8,25.1C40.6,78.7,28.6,99.1,23.5,120.9z"/>
			<path class="st1" d="M24.4,138.2c0.3,0.2,0.6,0.4,0.9,0.5C25,138.6,24.7,138.4,24.4,138.2z"/>
			<path class="st1" d="M22.2,136.8c0.3,0.2,0.6,0.4,0.9,0.6C22.8,137.3,22.5,137.1,22.2,136.8z"/>
			<path class="st1" d="M19.3,134.4c0.2,0.2,0.4,0.4,0.6,0.5C19.6,134.8,19.5,134.6,19.3,134.4z"/>
			<path class="st1" d="M18.7,133.8c0.2,0.2,0.4,0.4,0.5,0.5C19.1,134.2,18.9,134,18.7,133.8z"/>
			<path class="st3" d="M17.9,119c1.3,0.4,3.3,2.4,5.4,4.5c0,0,0,0,0,0c3.6,3.6,8.2,8.2,14,9.9c7.3,2.2,14.9,4,26.9,6
				c1.4,0.2,2.7,0.4,4.1,0.6l0,0c12.8,1.6,26.5,2.2,41.4,1.7c0.8,0,1.5,0,2.3-0.1c9.1-0.3,16.9-0.7,24.3-1.2
				c24.3-1.7,43.3-4.7,56.6-9c3-1,5.7-2,8.2-3.1c3.8-1.7,6.9-4.1,9.5-6.1c0.3-0.3,0.7-0.5,1-0.8c2.5-2,4.7-3.7,6.2-3.8
				c0.2,0,0.5,0,0.8,0.1c0.5,0.2,1.1,0.7,1.8,1.8c0.5,0.8,0.5,1.9-0.1,3.1c-2.2,4.3-11.7,10.7-33.4,16.3c-15,3.8-35.7,7.2-63.9,9.2
				c-5.9,0.4-12.1,0.7-18.4,1c-31.3,1.3-51.8-1-65.2-4.6c-0.7-0.2-1.3-0.4-2-0.6c-1.4-0.4-2.8-0.9-4-1.3c-2.3-0.8-4.3-1.7-6-2.6
				c-0.7-0.4-1.4-0.7-2-1.1c-0.3-0.2-0.6-0.4-0.9-0.5c-0.4-0.3-0.8-0.5-1.2-0.8c-0.3-0.2-0.6-0.4-0.9-0.6c-0.9-0.6-1.7-1.3-2.4-1.9
				c-0.2-0.2-0.4-0.4-0.6-0.5c0,0,0,0,0,0c-0.2-0.2-0.4-0.4-0.5-0.5c-4.2-4.3-4-8-4-8c0.9-6,2.1-6.9,2.7-7
				C17.5,118.9,17.7,118.9,17.9,119z"/>
		</g>
	</g>
</g>
<g>
	
		<image style="overflow:visible;opacity:0.38;" width="930" height="930" id="XMLID_120_" xlink:href="F92DD18E.png"  transform="matrix(0.24 0 0 0.24 0 0)">
	</image>
	<g id="XMLID_34_">
		
			<image style="overflow:visible;" width="798" height="798" id="XMLID_119_" xlink:href="F92DD192.png"  transform="matrix(0.24 0 0 0.24 15.84 15.84)">
		</image>
		<g id="XMLID_114_">
			<path id="XMLID_117_" class="st17" d="M110.1,90.9c11.4-0.8,21.3,7.8,22.1,19.2c0.8,11.4-7.8,21.3-19.2,22.1
				c-11.4,0.8-21.3-7.8-22.1-19.2C90.1,101.6,98.7,91.7,110.1,90.9z"/>
		</g>
	</g>
</g>
<rect id="XMLID_1_" x="90.1" y="360.7" transform="matrix(0.9976 -6.882476e-002 6.882476e-002 0.9976 -27.2359 9.4389)" class="st16" width="66.5" height="78.5"/>
<text transform="matrix(0.9976 -6.882476e-002 6.882476e-002 0.9976 92.521 436.0173)" class="st1 st18 st19 st20">4</text>
</svg>
