<?xml version="1.0" encoding="utf-8"?>
<!-- Generator: Adobe Illustrator 19.0.0, SVG Export Plug-In . SVG Version: 6.00 Build 0)  -->
<svg version="1.1" id="Layer_1" xmlns="http://www.w3.org/2000/svg" xmlns:xlink="http://www.w3.org/1999/xlink" x="0px" y="0px"
	 viewBox="0 0 463.8 242.1" style="enable-background:new 0 0 463.8 242.1;" xml:space="preserve">
<style type="text/css">
	.st0{fill:#567EB8;}
	.st1{fill:#A2C6E9;}
	.st2{fill:#FFFFFF;}
	.st3{fill:#010101;}
	.st4{fill:none;stroke:#FFFFFF;stroke-width:4;stroke-linecap:round;stroke-miterlimit:10;}
</style>
<path class="st0" d="M401,112.5l17.5,1.5c0,0,1.6-0.7,4.2-2.1C406.4,104.2,401,112.5,401,112.5z"/>
<path class="st1" d="M436.7,111.3c41.5-28.6,20.6-75.3-33.6-75.3c-36.3,0-52.5,51.7-68.7,68.1C278.5,91.4,266.7,6.5,189.5,0.2
	C111.8-6.1,0,124.2,0,124.2c6.7,20.8,73.7,120.5,170,117.8c56.8-1.6,126.2-47.7,160.5-86.2c10.7,10.5,19.3,26.8,66.8,40.8
	C466.4,217.2,485.3,134.4,436.7,111.3z"/>
<path class="st0" d="M80,68.7c52-28.7,91.2-32.7,120.7-29.7s68.3,46,91.8,52s43.5,18.5,59-2s37-49.5,63-43s40,32.5,31.5,46
	c-6,9.5-17.2,16.6-23.3,19.9c4.8,2.3,10.5,5.9,17.3,11.6c30,25,7,66-24,68s-66-27-98-24c-13.4,1.3-29.4,11.1-48.1,22.5
	c-26,15.9-57.3,20.9-93.9,24.4c-63,6-153-39-176-90.2C31.8,92.2,80,68.7,80,68.7z"/>
<circle class="st1" cx="404.7" cy="80.7" r="18"/>
<circle class="st2" cx="89.5" cy="124.7" r="26"/>
<circle class="st3" cx="87.4" cy="125.4" r="11.4"/>
<path class="st4" d="M121.6,96.8c7.4,9.4,19.5,38.9-3.9,61.4"/>
<path class="st4" d="M143.6,107.3c5.3,6.7,14.6,27.8-2.1,43.9"/>
<path class="st4" d="M164.2,117.3c3.5,4.4,9.6,18.3-1.4,28.9"/>
</svg>
