<?xml version="1.0" encoding="utf-8"?>
<!-- Generator: Adobe Illustrator 19.0.0, SVG Export Plug-In . SVG Version: 6.00 Build 0)  -->
<svg version="1.1" id="Layer_1" xmlns="http://www.w3.org/2000/svg" xmlns:xlink="http://www.w3.org/1999/xlink" x="0px" y="0px"
	 viewBox="0 0 444.1 278.9" style="enable-background:new 0 0 444.1 278.9;" xml:space="preserve">
<style type="text/css">
	.st0{fill:#273649;}
	.st1{fill:#567EB8;}
	.st2{fill:#314156;}
	.st3{fill:#FFFFFF;}
	.st4{fill:#010101;}
	.st5{fill:none;stroke:#FFFFFF;stroke-width:5;stroke-linecap:round;stroke-miterlimit:10;}
</style>
<path id="XMLID_14_" class="st0" d="M112.1,86.2c-4.7-16.7,8-46,47-73.7c34.8-24.8,111.5-11,121.5,10s-8.2,29.4-23,34.5
	c-5.3,1.8-32,4-30.5,21s33.7,52.9,44.6,58S112.1,86.2,112.1,86.2z"/>
<path id="XMLID_15_" class="st1" d="M412.8,161.9c6.1-3.3,17.3-10.3,23.3-19.9c8.5-13.5-5.5-39.5-31.5-46s-47.5,22.5-63,43
	s-35.5,8-59,2s-64.8-67.7-109.5-71c-50.3-3.8-72,7-119,39.5c-41.9,29-52.8,60.8-54,76.9c17.4-11.9,46.2-24.4,86-20.4
	c48,4.8,138.6,46.1,173.9,74c18.7-11.4,34.7-21.3,48.1-22.5c32-3,67,26,98,24s54-43,24-68C423.3,167.8,417.5,164.1,412.8,161.9"/>
<path class="st2" d="M0.1,186.4c-0.1,1.9-0.1,3.7,0,5.1c2.6,35,103,93,166,87C202.7,275,234,255.9,260,240
	c-35.3-27.9-125.9-69.2-173.9-74C46.3,162,17.5,174.5,0.1,186.4z"/>
<circle class="st0" cx="396.1" cy="128.5" r="16.5"/>
<circle class="st3" cx="93.1" cy="134" r="24.5"/>
<circle class="st4" cx="90.3" cy="131.7" r="9.8"/>
<path class="st5" d="M135.9,109.5c3.1,9.2,17.3,36.4-13.1,58.1"/>
<path class="st5" d="M157.9,127.1c2.1,6.1,11.6,24.4-8.8,39"/>
<path class="st5" d="M176.6,141.5c1.3,3.8,7.3,15.3-5.5,24.4"/>
</svg>
