<?xml version="1.0" encoding="utf-8"?>
<!-- Generator: Adobe Illustrator 19.0.0, SVG Export Plug-In . SVG Version: 6.00 Build 0)  -->
<svg version="1.1" id="Turtle" xmlns="http://www.w3.org/2000/svg" xmlns:xlink="http://www.w3.org/1999/xlink" x="0px" y="0px"
	 viewBox="0 0 722.8 329" style="enable-background:new 0 0 722.8 329;" xml:space="preserve">
<style type="text/css">
	.st0{fill:#1F3F66;}
	.st1{fill:#27567C;}
	.st2{fill:#2D588C;}
	.st3{fill:#557DB7;}
	.st4{fill:#FFFFFF;}
</style>
<g>
	<path class="st0" d="M297.7,178.4c1.6-38.4,14.7-75.1,37.8-106C345.8,58.4,358,45.9,372,34.6c-4.3-3.3-8.4-6.3-12.1-8.9
		c-58.9,34.7-93.2,88.7-95.5,152.6c-1.8,49.6,16.7,97.4,49.8,134c7.5-2.8,14.5-5.7,21.1-8.5C309.5,267.4,295.8,223.6,297.7,178.4z"
		/>
	<path class="st0" d="M242.3,177.5c1.4-39,14.2-76.5,36.9-108.3c15.5-21.7,35.1-40.3,58.6-55.8c-4.4-1.9-9-3.5-13.8-4.9
		C253,43.8,211.2,104.8,208.9,177.5c-1.7,55.5,21.1,108.9,60.7,147.4c7.7-1.4,14.9-3.2,21.7-5.1c-7.1-8.6-13.6-17.8-19.4-27.5
		C251.1,257.2,240.8,217.5,242.3,177.5z"/>
	<path class="st0" d="M353,179.4c1.7-37.8,15.1-73.7,38.6-103.9c4.1-5.3,8.6-10.4,13.3-15.3c-5.1-3.9-10.2-7.9-15-11.6
		c-43.2,32.8-68.1,78.2-70.3,130.7c-1.7,42,11.7,82.6,36.5,116c7.3-3,15-6.6,22.8-10.4C360.3,252.1,351.4,215.8,353,179.4z"/>
	<path class="st0" d="M186.9,176.8c1.3-39.7,13.7-77.9,36.1-110.6C240.4,40.8,263,19.3,290.7,2c-6.5-0.7-13-1.2-19.6-1.6
		c-72.9,36.7-115.6,100.6-117.6,176.4c-1.5,58.2,21.8,112.8,62.9,152c2.3,0.1,4.7,0.2,6.9,0.2c6.6,0,12.8-0.2,18.9-0.7
		c-9.7-10.9-18.3-22.8-25.7-35.5C195.9,257.3,185.6,217.2,186.9,176.8z"/>
	<path class="st0" d="M131.5,176.3c1-40.3,13.2-79.4,35.2-113c16-24.4,36.6-45.4,61.4-62.8c-8.9,0.5-20.3,2.3-33.1,5.1
		C134.5,45.1,99.6,106,98.2,176.4c-1,50.5,16,98.4,46.6,136.1c12.3,4.7,24.8,8.6,37.3,11.5c-7.8-9.6-14.9-19.8-21-30.6
		C140.7,257.6,130.5,217.1,131.5,176.3z"/>
	<path class="st0" d="M20.8,175.8C21.3,136.9,31.4,98.8,49.9,65C23.3,87.3,1.8,113.7,0,146.2c-0.7,12.2,8.6,43.2,23.9,71.8
		C21.7,204.2,20.6,190,20.8,175.8z"/>
	<path class="st0" d="M463.8,181.8c1.4-25.6,8.6-50.2,21.1-72.4c-7.8-2.5-16-6.4-24.5-11.2c-18.1,24.2-28.4,52.4-29.9,83.4
		c-1.1,21.8,2.4,43.3,9.9,63.7c6.7-6.8,16.7-14,27.2-17.5C464.2,212.8,462.9,197.3,463.8,181.8z"/>
	<path class="st0" d="M718.8,250.9c3.7-26.1-1.1-55.5-2.7-59.2c-1.7-3.8-5-8.7-7.4-15.5c-0.7,4.2-1.3,8.6-1.5,13
		C705.8,210.4,710,231.4,718.8,250.9z"/>
	<path class="st0" d="M76.2,176c0.8-41,12.7-81,34.2-115.5c9.2-14.8,20-28.3,32.3-40.7c-16.1,5.2-32.1,11.1-46,17.1
		c-33.9,38.5-53.2,87-54,139.3c-0.4,31.3,5.9,61.7,17.8,89.4c13,10.1,28.6,20.2,45.5,29.3C86,259.3,75.3,218.5,76.2,176z"/>
	<path class="st0" d="M408.4,180.5c1.7-33.9,13.1-66.1,33.2-93.7c-6.3-4.2-12.7-8.7-19-13.3c-29.1,29.1-45.7,65.7-47.6,106.9
		c-1.5,33.4,6.9,65.9,23.3,94.3c9-5,17.3-10,24.1-14.5C411.8,234.6,407,207.6,408.4,180.5z"/>
	<path class="st0" d="M519.1,183.1c2-36.2,16.2-70,41-97.8c9.1-10.2,19.4-19.5,31-27.9c-0.6,0.3-1.2,0.6-1.7,0.9
		c-23.4,13.3-42,51.2-81,54.2c-13.5,20.9-21.3,44.6-22.7,70.4c-0.8,15.6,0.8,31.1,4.6,46.1c9.7,4.2,23.7,11.9,38.5,20.3
		C521.3,227.7,517.9,205.2,519.1,183.1z"/>
	<path class="st0" d="M629.8,186.1c2.2-35.1,16.8-67.6,42.4-94c8.9-9.2,19-17.5,30.2-25.1c-2.6-2.3-5.3-4.3-8.1-6.2
		c-59.6,26.4-94.6,70.5-97.9,125c-2.3,39.3,13,78.2,40.5,109.1c9.3,1.4,19.2,2.3,28.8,2c-1.6-2.1-3.1-4.1-4.6-6.3
		C638.7,259,627.6,221.9,629.8,186.1z"/>
	<path class="st0" d="M685.2,187.7c2-31.9,14.9-61.4,37.2-86c-0.8-6.4-2.9-12.3-5.8-17.6c-39.3,25.5-62.1,61.1-64.7,103.4
		c-2.3,37.9,12.4,75.4,39,105.2c3.2-1.2,6.3-2.6,9.2-4.4c3.6-2.2,6.7-5.3,9.2-9C691.7,250.8,683.2,218.8,685.2,187.7z"/>
	<path class="st0" d="M574.5,184.6c2.1-35.6,16.5-68.8,41.7-95.9c14-15,30.9-28,50.6-38.8c-0.7-0.1-1.4-0.2-2.1-0.2
		c-3.5-0.3-7.1-0.7-10.9-1c-68.6,26.7-109.3,75.1-112.7,135.7c-1.7,29.3,5.7,58,20.1,83.5c16.9,9.6,31.4,17.5,38.2,19.1
		c1.3,0.3,2.7,0.7,4.2,1C582.7,256.5,572.4,219.9,574.5,184.6z"/>
	<path class="st1" d="M42.8,176.1c0.7-52.3,20.1-100.8,54-139.3c-15.1,6.5-27.9,13.2-36,19.5C57,59.2,53.4,62,49.9,65
		c-18.5,33.8-28.6,71.9-29.1,110.8c-0.2,14.2,0.9,28.3,3.1,42.2c9.9,18.6,22.3,36.2,36.1,47c0.2,0.1,0.4,0.3,0.6,0.4
		C48.6,237.8,42.4,207.5,42.8,176.1z"/>
	<path class="st1" d="M98.2,176.4C99.6,106,134.5,45.1,195.1,5.6C178.9,9,160.7,14,142.7,19.8c-12.3,12.4-23.1,25.9-32.3,40.7
		C88.8,95,77,134.9,76.2,176c-0.9,42.5,9.9,83.3,30,118.9c12.3,6.6,25.3,12.6,38.6,17.7C114.1,274.8,97.1,226.9,98.2,176.4z"/>
	<path class="st1" d="M153.5,176.9c2-75.8,44.7-139.7,117.6-176.4c-13.8-0.7-27.6-0.5-40.4-0.1c-0.8,0-1.7,0.1-2.6,0.1
		c-24.9,17.4-45.5,38.4-61.4,62.8c-22,33.6-34.1,72.6-35.2,113c-1.1,40.8,9.2,81.3,29.5,117.1c6.2,10.8,13.2,21,21,30.6
		c11.6,2.6,23.1,4.3,34.3,4.8C175.3,289.7,152,235.1,153.5,176.9z"/>
	<path class="st1" d="M208.9,177.5C211.2,104.8,253,43.8,324.1,8.6c-10.6-3.2-21.9-5.2-33.4-6.5C263,19.3,240.4,40.8,223,66.2
		c-22.3,32.7-34.8,70.9-36.1,110.6c-1.3,40.4,9,80.5,29.6,116c7.4,12.7,16,24.6,25.7,35.5c9.7-0.7,18.8-1.9,27.4-3.5
		C230,286.4,207.1,233,208.9,177.5z"/>
	<path class="st1" d="M264.3,178.3c2.3-63.8,36.7-117.9,95.5-152.6c-2.5-1.8-4.9-3.3-7.1-4.7c-4.7-2.9-9.6-5.4-14.8-7.6
		c-23.5,15.4-43.1,34.1-58.6,55.8c-22.7,31.8-35.5,69.2-36.9,108.3c-1.5,40,8.8,79.7,29.7,114.8c5.7,9.7,12.2,18.8,19.4,27.5
		c8.1-2.3,15.6-4.8,22.8-7.5C281,275.7,262.4,227.9,264.3,178.3z"/>
	<path class="st1" d="M319.6,179.3c2.2-52.5,27.1-97.9,70.3-130.7c-6.3-5-12.4-9.7-18-13.9c-13.9,11.2-26.1,23.8-36.5,37.7
		c-23.1,30.9-36.2,67.6-37.8,106c-1.9,45.3,11.9,89.1,37.6,125.5c6.3-2.6,12.3-5.2,18.1-7.5c0.9-0.4,1.9-0.7,2.8-1.1
		C331.3,261.9,317.9,221.3,319.6,179.3z"/>
	<path class="st1" d="M375,180.4c1.9-41.2,18.5-77.7,47.6-106.9c-6-4.4-11.9-8.9-17.7-13.3c-4.7,4.9-9.1,10-13.3,15.3
		c-23.5,30.1-36.9,66-38.6,103.9c-1.7,36.5,7.3,72.8,25.9,105.5c6.5-3.2,13.1-6.7,19.3-10.2C381.9,246.2,373.5,213.8,375,180.4z"/>
	<path class="st1" d="M430.4,181.6c1.5-31,11.9-59.2,29.9-83.4c-6.1-3.4-12.4-7.3-18.7-11.5c-20.1,27.6-31.5,59.8-33.2,93.7
		c-1.3,27.1,3.4,54.1,14,79.6c7.1-4.8,12.5-8.9,15-11.8c0.9-1,1.8-2.1,2.9-3.1C432.8,224.9,429.3,203.4,430.4,181.6z"/>
	<path class="st1" d="M485.7,182.9c1.4-25.8,9.2-49.5,22.7-70.4c-2.1,0.2-4.2,0.2-6.3,0.2c-5.3-0.1-11.1-1.3-17.2-3.3
		c-12.5,22.2-19.7,46.8-21.1,72.4c-0.8,15.6,0.5,31,3.7,46c3.9-1.3,8-2.1,11.9-2.1c2.3,0,6.1,1.2,11,3.3
		C486.5,214,484.9,198.5,485.7,182.9z"/>
	<path class="st1" d="M541.1,184.4c3.4-60.6,44-108.9,112.7-135.7c-19.5-1.6-42.3-2.1-62.7,8.7c-11.6,8.4-21.9,17.7-31,27.9
		c-24.7,27.8-38.9,61.7-41,97.8c-1.2,22.1,2.2,44.6,9.8,66.2c10.8,6.1,22,12.7,32.3,18.6C546.7,242.4,539.4,213.7,541.1,184.4z"/>
	<path class="st1" d="M596.4,185.9c3.2-54.5,38.3-98.6,97.9-125c-9.2-6-19.1-9.8-27.5-11c-19.7,10.8-36.7,23.7-50.6,38.8
		c-25.2,27.1-39.6,60.3-41.7,95.9c-2.1,35.3,8.2,71.9,29.1,103.5c8.3,2.1,20.2,5,33.3,7C609.4,264.1,594.1,225.2,596.4,185.9z"/>
	<path class="st1" d="M651.8,187.5c2.6-42.3,25.4-77.9,64.7-103.4c-3.6-6.5-8.5-12.2-14.1-17.1c-11.2,7.5-21.3,15.9-30.2,25.1
		c-25.6,26.4-40.3,58.9-42.4,94c-2.2,35.8,8.9,72.9,31.3,104.6c1.5,2.1,3,4.2,4.6,6.3c8.8-0.3,17.4-1.5,25.1-4.3
		C664.2,262.9,649.4,225.4,651.8,187.5z"/>
	<path class="st1" d="M707.1,189.2c0.3-4.4,0.8-8.7,1.5-13c-1.4-3.9-2.4-8.5-2.6-13.8c-0.7-14.7,18-24,16.7-56.7
		c-0.1-1.3-0.2-2.6-0.3-3.9c-22.3,24.6-35.1,54.1-37.2,86c-2,31,6.5,63.1,24,91.6c5.1-7.6,8.1-17.7,9.6-28.5
		C710,231.4,705.8,210.4,707.1,189.2z"/>
</g>
<path class="st2" d="M484.9,168.9c1.3,14.1,46.7,64.1,95.3,83.5s87.3,19.4,101.3,14c14-5.4,23.3-10.7,22.7-30s-28.7-45-28.7-67.5
	s31.4-30.5,28.7-64.5s-41.4-30-52-29.3s-116.7,46.6-142,70.2C484.9,168.9,484.9,168.9,484.9,168.9z"/>
<path class="st3" d="M6.9,143.7c-1.5,34.7,22,124.7,207.3,122.7s286-70.7,287.3-94s-97.3-120-242-121.3S9.6,81.7,6.9,143.7z"/>
<circle class="st4" cx="81.3" cy="144" r="37"/>
<circle cx="76.6" cy="140" r="13"/>
<g>
	<path class="st4" d="M128.7,92.7c0,0,0.3,0.3,0.8,0.9c0.5,0.6,1.4,1.8,2.3,3.1c0.9,1.3,1.9,3,3,4.9c1,1.9,2.2,4.2,3.2,6.6
		c1.1,2.5,2.1,5.2,3.1,8.1c0.5,1.5,1,3,1.4,4.6c0.5,1.6,0.9,3.2,1.2,4.8c0.8,3.3,1.4,6.8,1.8,10.3c0.5,3.5,0.7,7.2,0.7,10.9
		c0,1.8,0,3.7-0.1,5.5c-0.1,1.8-0.3,3.7-0.5,5.5c-0.1,0.9-0.3,1.8-0.4,2.7c-0.2,0.9-0.3,1.8-0.5,2.7c-0.2,0.9-0.4,1.8-0.6,2.6
		l-0.3,1.3c-0.1,0.4-0.2,0.9-0.4,1.3c-0.3,0.8-0.5,1.7-0.8,2.5c-0.3,0.8-0.6,1.6-0.9,2.4c-0.3,0.8-0.6,1.6-0.9,2.3
		c-0.4,0.8-0.7,1.5-1,2.2c-0.7,1.5-1.5,2.8-2.3,4.2c-0.4,0.7-0.8,1.3-1.2,1.9c-0.4,0.6-0.8,1.2-1.2,1.8c-1.7,2.3-3.4,4.2-5,5.8
		c-1.6,1.7-3.2,2.8-4.4,3.9c-1.3,1-2.4,1.6-3.1,2.1c-0.7,0.5-1.1,0.7-1.1,0.7c-1.2,0.7-2.7,0.4-3.5-0.8c-0.6-0.9-0.5-2,0.1-2.8
		l0.2-0.2c0,0,0.3-0.3,0.7-1c0.5-0.6,1.2-1.5,2-2.7c0.4-0.6,0.8-1.2,1.3-2c0.5-0.7,1-1.5,1.5-2.3c0.5-0.8,1.1-1.7,1.6-2.7
		c0.5-1,1.1-1.9,1.5-3c1-2.1,2-4.5,2.8-7.1c0.2-0.6,0.4-1.3,0.6-1.9c0.2-0.7,0.4-1.4,0.5-2c0.2-0.7,0.4-1.4,0.5-2.1
		c0.1-0.7,0.3-1.4,0.4-2.2l0.2-1.1l0.2-1.1c0.1-0.7,0.2-1.5,0.4-2.2c0.2-1.5,0.4-3,0.5-4.6c0.3-3.1,0.4-6.3,0.4-9.6
		c0-3.2-0.1-6.5-0.4-9.7c-0.2-3.2-0.6-6.4-1-9.4c-0.4-3.1-0.9-6-1.4-8.8c-0.5-2.8-1.1-5.4-1.7-7.9c-0.6-2.4-1.2-4.6-1.7-6.6
		c-0.6-1.9-1-3.6-1.5-5c-0.5-1.4-0.8-2.3-1.1-3.1c-0.3-0.8-0.5-1.2-0.5-1.2l0,0c-0.5-1.3,0.1-2.8,1.3-3.3
		C126.9,91.6,128,91.9,128.7,92.7z"/>
</g>
<g>
	<path class="st4" d="M162.3,112.7c0,0,0.2,0.2,0.5,0.6c0.3,0.4,0.9,1.3,1.4,2.2c0.6,0.9,1.2,2,1.8,3.3c0.6,1.3,1.3,2.8,1.9,4.4
		c0.7,1.6,1.3,3.5,1.9,5.4c0.6,1.9,1.1,4,1.6,6.2c0.4,2.2,0.9,4.4,1.1,6.8c0.3,2.3,0.4,4.7,0.4,7.1c0,2.4-0.1,4.8-0.4,7.2
		c-0.1,1.2-0.4,2.4-0.5,3.5c-0.3,1.1-0.5,2.3-0.8,3.4c-0.3,1.1-0.6,2.2-1,3.2c-0.4,1.1-0.8,2.1-1.2,3c-0.9,1.9-1.9,3.7-2.9,5.2
		c-1,1.5-2.1,2.9-3.1,4c-1,1.2-2,2-2.8,2.7c-0.8,0.7-1.5,1.2-2,1.5c-0.5,0.3-0.7,0.5-0.7,0.5c-1.1,0.8-2.7,0.6-3.5-0.5
		c-0.7-1-0.6-2.3,0.1-3.2l0.2-0.2c0,0,0.2-0.2,0.5-0.6c0.3-0.4,0.8-0.9,1.4-1.6c0.5-0.7,1.3-1.5,2-2.6c0.7-1,1.4-2.2,2.2-3.6
		c0.7-1.4,1.4-2.9,2-4.5c0.3-0.8,0.6-1.7,0.8-2.6c0.3-0.9,0.5-1.8,0.7-2.8c0.2-0.9,0.4-1.9,0.6-2.9c0.1-1,0.3-2,0.4-3
		c0.2-2.1,0.3-4.2,0.3-6.3c0-2.1-0.1-4.3-0.3-6.4c-0.2-2.1-0.4-4.2-0.8-6.2c-0.3-2-0.7-3.9-1.1-5.7c-0.4-1.8-0.8-3.5-1.3-5.1
		c-0.4-1.6-0.9-3-1.3-4.2c-0.4-1.2-0.8-2.3-1.1-3.2c-0.4-0.9-0.6-1.4-0.8-1.9c-0.2-0.5-0.4-0.7-0.4-0.7l0,0
		c-0.6-1.2-0.1-2.7,1.1-3.4C160.2,111.4,161.6,111.7,162.3,112.7z"/>
</g>
<g>
	<path class="st4" d="M189.9,128.8c0,0,0.1,0.1,0.4,0.4c0.2,0.3,0.7,0.9,1.1,1.5c0.4,0.6,0.9,1.4,1.3,2.2c0.5,0.9,1,1.9,1.4,3
		c0.5,1.1,0.9,2.3,1.4,3.6c0.4,1.3,0.8,2.7,1.1,4.2c0.3,1.5,0.6,3,0.8,4.6c0.2,1.6,0.3,3.2,0.3,4.8c0,1.6-0.1,3.3-0.3,4.9
		c-0.2,1.6-0.6,3.2-1,4.7c-0.2,0.8-0.4,1.5-0.7,2.2c-0.3,0.7-0.6,1.4-0.9,2.1c-0.6,1.3-1.4,2.5-2.1,3.6c-0.7,1.1-1.5,2-2.2,2.7
		c-0.7,0.8-1.4,1.3-2,1.8c-0.6,0.5-1.1,0.8-1.4,1c-0.3,0.2-0.5,0.3-0.5,0.3c-1.2,0.8-2.7,0.5-3.5-0.7c-0.6-0.9-0.5-2.1,0.1-2.9
		l0.2-0.2c0,0,0.4-0.5,1.1-1.5c0.3-0.5,0.8-1,1.2-1.7c0.4-0.7,0.8-1.5,1.3-2.3c0.4-0.9,0.8-1.8,1.1-2.9c0.4-1,0.6-2.2,0.9-3.4
		c0.3-1.2,0.4-2.5,0.5-3.8c0.1-1.3,0.1-2.6,0.1-4c0-1.4-0.1-2.7-0.2-4.1c-0.1-1.3-0.3-2.7-0.4-4c-0.1-0.6-0.2-1.3-0.3-1.9
		c-0.1-0.6-0.2-1.2-0.3-1.8c-0.2-1.2-0.5-2.3-0.7-3.3c-0.2-1-0.5-1.9-0.7-2.8c-0.2-0.8-0.4-1.5-0.6-2.1c-0.2-0.6-0.3-0.9-0.4-1.2
		c-0.1-0.3-0.2-0.5-0.2-0.5l0,0c-0.5-1.3,0.1-2.8,1.4-3.3C188.1,127.7,189.2,128,189.9,128.8z"/>
</g>
<g>
	<path class="st4" d="M213.4,143c0,0,0.1,0.1,0.3,0.2c0.2,0.1,0.4,0.2,0.8,0.7c0.2,0.2,0.4,0.4,0.6,0.6c0.2,0.2,0.4,0.4,0.6,0.7
		c0.4,0.5,0.8,1,1.1,1.7c0.7,1.2,1.5,2.8,1.9,4.5c0.1,0.4,0.2,0.9,0.3,1.3c0.1,0.5,0.2,0.9,0.2,1.4c0.1,0.9,0.2,2,0.2,2.9
		c0,1-0.1,2-0.3,3c-0.1,0.5-0.2,1-0.3,1.5c-0.2,0.5-0.3,1-0.5,1.4c-0.3,0.9-0.8,1.8-1.2,2.6c-0.2,0.4-0.5,0.8-0.8,1.1
		c-0.3,0.4-0.5,0.7-0.8,1c-0.5,0.6-1.1,1.1-1.6,1.5c-0.5,0.4-1,0.7-1.4,0.9c-0.8,0.4-1.3,0.6-1.3,0.6c-1.3,0.5-2.8-0.2-3.3-1.5
		c-0.2-0.5-0.2-1.1-0.1-1.6l0.2-0.7c0,0,0.1-0.4,0.3-1c0.1-0.3,0.3-0.6,0.3-1c0.1-0.4,0.2-0.8,0.3-1.2c0-0.5,0.2-0.9,0.2-1.4
		c0-0.5,0.2-1,0.2-1.6c0-0.3,0-0.6,0.1-0.9c0-0.3,0-0.6,0-0.9c0.1-0.6,0-1.3,0-1.9c0-0.3-0.1-0.7-0.1-1c0-0.3,0-0.7-0.1-1
		c0-0.7-0.1-1.3-0.1-2c0-0.7-0.1-1.3-0.1-1.9c0-0.6-0.1-1.2-0.1-1.8c0-0.6,0-1.1,0-1.5c0-0.2,0-0.5,0-0.6c0-0.2,0-0.3,0.1-0.4
		c0.1-0.2,0-0.6,0-0.8c0-0.2,0-0.3,0-0.3l0,0c0-1.6,1.3-2.9,2.9-2.9C212.5,142.7,212.9,142.8,213.4,143z"/>
</g>
<g>
	<path class="st4" d="M497,154c0,0,0.1,0.1,0.3,0.3c0.1,0.1,0.2,0.2,0.4,0.3c0.2,0.1,0.3,0.3,0.5,0.5c0.4,0.5,1,1.1,1.5,1.7
		c0.2,0.3,0.5,0.7,0.8,1c0.2,0.4,0.5,0.8,0.7,1.2c0.6,0.8,1,1.8,1.5,2.9c0.4,1.1,0.9,2.2,1.2,3.5c0.4,1.2,0.5,2.6,0.7,3.9
		c0,1.4,0.1,2.8-0.1,4.2c-0.1,1.4-0.5,2.8-0.9,4.2c-0.2,0.7-0.5,1.3-0.8,1.9c-0.3,0.6-0.5,1.3-0.9,1.8c-0.7,1.1-1.4,2.2-2.2,3.1
		c-0.8,0.9-1.5,1.7-2.3,2.3c-0.8,0.6-1.5,1.2-2.2,1.7c-0.7,0.4-1.3,0.7-1.8,1c-1,0.5-1.6,0.8-1.6,0.8c-1.3,0.6-2.8,0.1-3.3-1.2
		c-0.4-0.9-0.3-1.9,0.3-2.7l0.2-0.3c0,0,0.4-0.4,1-1.1c0.3-0.3,0.7-0.8,1.2-1.2c0.4-0.5,0.8-1.1,1.3-1.7c0.5-0.6,0.9-1.3,1.3-2
		c0.5-0.7,0.8-1.5,1.2-2.3c0.2-0.4,0.3-0.8,0.5-1.3c0.1-0.4,0.3-0.8,0.4-1.3c0.2-0.9,0.4-1.8,0.5-2.7c0.2-0.9,0.1-1.9,0.1-2.8
		c-0.1-0.9-0.1-1.9-0.3-2.8c-0.1-0.9-0.3-1.8-0.5-2.7c-0.1-0.4-0.2-0.8-0.3-1.2c-0.1-0.4-0.2-0.8-0.3-1.2c-0.2-0.7-0.5-1.4-0.7-2
		c-0.2-0.6-0.4-1-0.5-1.4c-0.1-0.2-0.2-0.4-0.3-0.6c-0.1-0.2-0.2-0.3-0.2-0.5c-0.1-0.3-0.2-0.4-0.2-0.4l0,0
		c-0.6-1.3-0.1-2.8,1.1-3.4C495.1,153.3,496.2,153.4,497,154z"/>
</g>
</svg>
