<?xml version="1.0" encoding="utf-8"?>
<!-- Generator: Adobe Illustrator 19.0.0, SVG Export Plug-In . SVG Version: 6.00 Build 0)  -->
<svg version="1.1" id="expanded" opacity="0.5" xmlns="http://www.w3.org/2000/svg" xmlns:xlink="http://www.w3.org/1999/xlink"
	 x="0px" y="0px" viewBox="0 0 478.7 629.1" style="enable-background:new 0 0 478.7 629.1;" xml:space="preserve">
<style type="text/css">
	.st0{fill:#328DC6;}
	.st1{fill:#86CEF2;}
	.st2{fill:#BBE3F2;}
	.st3{opacity:0.5;fill:#328DC6;}
	.st4{fill:none;stroke:#000000;stroke-width:5;stroke-linecap:round;stroke-miterlimit:10;}
</style>
<g>
	<path class="st0" d="M93.3,175.8c-1.1,9.5-0.2,19.4,1.8,29.5c1,5.1,2.2,10.2,3.7,15.4c0.4,1.3,0.8,2.6,1.2,3.9
		c0.4,1.3,0.8,2.6,1.2,3.9c0.4,1.3,0.9,2.6,1.3,3.9c0.5,1.3,0.9,2.6,1.4,3.9c3.7,10.4,7.8,21.2,12.4,32.3c4.6,11,9.6,22.3,14.9,33.6
		c5.3,11.3,10.9,22.6,16.4,33.9c11,22.5,21.8,44.8,28.5,66.7c3.4,10.9,5.8,21.7,7.1,32.1c1.4,10.4,1.7,20.3,1.4,29.5
		c-0.1,4.6-0.5,9-0.9,13.2c-0.4,4.2-0.9,8.2-1.5,11.9c-1.1,7.4-2.4,13.9-3.6,19.2c-1.2,5.3-2.3,9.4-3,12.3c-0.8,2.8-1.2,4.3-1.2,4.3
		l0,0.1c-0.4,1.5,0.4,3.1,1.9,3.6c1.6,0.5,3.3-0.3,3.8-1.9c0,0,0.5-1.5,1.5-4.3c0.9-2.8,2.3-7,3.8-12.3c1.5-5.3,3.3-11.9,4.9-19.5
		c0.8-3.8,1.6-7.9,2.3-12.2c0.6-4.3,1.3-8.9,1.7-13.7c0.9-9.6,1.2-20.1,0.4-31.2c-0.8-11.1-2.6-22.8-5.5-34.5
		c-2.9-11.8-6.8-23.6-11.2-35.4c-4.4-11.8-9.3-23.5-14.1-35.1c-4.9-11.6-9.7-23.1-14.2-34.5c-4.5-11.4-8.8-22.6-12.6-33.6
		c-3.8-11-7.2-21.6-10.1-31.8c-0.8-2.6-1.4-5-2.1-7.4c-0.3-1.2-0.6-2.4-0.9-3.6c-0.3-1.2-0.6-2.4-0.8-3.5c-1.1-4.6-1.9-9.1-2.5-13.3
		c-1.2-8.4-1.3-15.9-0.2-21.6c0.5-3.1,1.4-5.6,2.3-7.7c-11.9-0.3-22-0.9-28.3-1.8C93.9,171.9,93.5,173.8,93.3,175.8z"/>
	<g>
		<path class="st1" d="M130.8,203.7c-2.3,18.1-3.5,39.4-2.4,62.1c0.7,11.4,1.8,23.1,4.2,35c1.1,5.9,2.5,11.9,4.4,17.8
			c0.4,1.5,0.9,2.9,1.4,4.4l0.8,2.2l0.2,0.5l0.2,0.6l0.4,1c0.5,1.4,1.1,2.9,1.7,4.3c0.6,1.4,1.2,2.8,1.8,4.2
			c4.9,11.2,10.3,21.8,15.7,32.3c5.4,10.4,10.8,20.6,15.9,30.5c10.2,19.8,18.9,38.6,24.4,55.3c2.8,8.3,4.7,16.1,5.7,23.1
			c1,6.9,1.1,13,0.6,17.9c-0.5,4.9-1.6,8.6-2.5,11c-0.2,0.6-0.4,1.1-0.6,1.6c-0.2,0.5-0.4,0.8-0.5,1.1c-0.3,0.6-0.4,0.9-0.4,0.9
			l-0.1,0.2c-0.7,1.5,0,3.2,1.4,3.9c1.5,0.7,3.3,0.1,4-1.4c0,0,0.2-0.4,0.5-1.1c0.2-0.3,0.4-0.8,0.6-1.3c0.2-0.5,0.5-1.1,0.8-1.8
			c1.1-2.8,2.4-7,3.1-12.5c0.7-5.5,0.8-12.1-0.2-19.6c-0.9-7.5-2.8-15.7-5.4-24.4c-5.3-17.4-13.8-36.8-23.5-57
			c-4.9-10.1-10.1-20.4-15.2-31c-5.1-10.5-10.3-21.2-14.7-32c-0.5-1.4-1.1-2.7-1.6-4.1c-0.5-1.4-1-2.6-1.5-4.1l-0.4-1.1l-0.2-0.5
			l-0.2-0.5l-0.7-2c-0.4-1.4-0.9-2.7-1.2-4.1c-1.6-5.5-2.8-11.1-3.7-16.7c-1.9-11.2-2.8-22.5-3.2-33.5c-0.6-21.9,1.1-42.4,3.7-59.7
			c2-13.3,4.6-24.7,7.3-33.5c-5,0-10-0.1-14.9-0.1C134.4,180.9,132.3,191.6,130.8,203.7z"/>
		<g>
			<path class="st2" d="M157.5,172.1c-7.2,26.5-6.8,47.7,0.9,64.2c6.3,13.4,14.6,21.7,22.6,29.7c13.8,13.8,26.9,26.9,26.9,65.7
				c0,12.9-9.9,30.4-20.4,49c-13.7,24.2-29.2,51.6-29.2,78.4c0,12.2,2.9,21.8,5.5,30.4c3.8,12.7,6.5,21.8-1.4,32.8
				c-0.5,0.7-0.3,1.6,0.3,2.1c0.3,0.2,0.6,0.3,0.9,0.3c0.5,0,0.9-0.2,1.2-0.6c8.8-12.2,5.6-22.9,1.8-35.4
				c-2.5-8.3-5.3-17.8-5.3-29.5c0-26,15.3-53,28.8-76.9c11.2-19.7,20.8-36.8,20.8-50.4c0-40-13.5-53.5-27.8-67.8
				c-7.8-7.8-15.9-15.9-22-28.8c-7.5-16.1-7.7-36.8-0.5-63C159.6,172.1,158.6,172.1,157.5,172.1z"/>
			<g>
				<path class="st2" d="M171.1,235.1c-6.1,13-14.2,21-22,28.8c-14.3,14.3-27.8,27.8-27.8,67.8c0,13.7,9.6,30.7,20.8,50.4
					c13.5,23.9,28.8,50.9,28.8,76.9c0,11.7-2.8,21.2-5.3,29.5c-3.7,12.5-7,23.2,1.8,35.4c0.3,0.4,0.8,0.6,1.2,0.6
					c0.3,0,0.6-0.1,0.9-0.3c0.7-0.5,0.8-1.4,0.3-2.1c-7.9-11-5.2-20.1-1.4-32.8c2.6-8.5,5.5-18.2,5.5-30.4
					c0-26.7-15.5-54.2-29.2-78.4c-10.5-18.5-20.4-36.1-20.4-49c0-38.8,13.1-51.8,26.9-65.7c8-8,16.2-16.3,22.6-29.7
					c7.8-16.6,8.1-37.7,0.9-64.3c-1,0-2.1,0-3.1,0C178.8,198.3,178.7,219,171.1,235.1z"/>
				<g>
					<path class="st1" d="M187.4,205.6c2.6,17.3,4.3,37.8,3.7,59.7c-0.4,10.9-1.2,22.2-3.2,33.5c-1,5.6-2.1,11.2-3.7,16.7
						c-0.4,1.4-0.8,2.7-1.2,4.1l-0.7,2l-0.2,0.5l-0.2,0.5l-0.4,1.1c-0.5,1.4-1,2.7-1.5,4.1c-0.5,1.4-1.1,2.7-1.6,4.1
						c-4.4,10.8-9.5,21.5-14.7,32c-5.1,10.5-10.3,20.8-15.2,31c-9.8,20.2-18.3,39.5-23.5,57c-2.6,8.7-4.5,16.9-5.4,24.4
						c-0.9,7.4-0.9,14.1-0.2,19.6c0.7,5.5,2,9.7,3.1,12.5c0.3,0.7,0.5,1.3,0.8,1.8c0.2,0.5,0.5,1,0.6,1.3c0.3,0.7,0.5,1.1,0.5,1.1
						c0.7,1.5,2.4,2.1,3.9,1.4c1.5-0.7,2.2-2.4,1.5-4l-0.1-0.2c0,0-0.1-0.3-0.4-0.9c-0.1-0.3-0.3-0.7-0.5-1.1
						c-0.2-0.5-0.4-1-0.6-1.6c-0.9-2.4-2-6.1-2.5-11c-0.5-4.9-0.4-11,0.6-17.9c1-6.9,2.9-14.7,5.7-23.1
						c5.5-16.7,14.3-35.5,24.4-55.3c5.1-9.9,10.5-20.1,15.9-30.5c5.4-10.5,10.9-21.1,15.7-32.3c0.6-1.4,1.2-2.8,1.8-4.2
						c0.6-1.4,1.2-2.9,1.7-4.3l0.4-1l0.2-0.6l0.2-0.5l0.8-2.2c0.5-1.5,1-2.9,1.4-4.4c1.8-5.9,3.2-11.8,4.4-17.8
						c2.3-11.9,3.5-23.6,4.2-35c1.2-22.8-0.1-44-2.4-62.1c-1.5-12.2-3.6-22.9-5.9-31.8c-4.5,0.1-9.5,0.1-14.9,0.2
						C182.7,180.8,185.4,192.3,187.4,205.6z"/>
					<g>
						<path class="st0" d="M202.5,171.8c0.9,2,1.7,4.5,2.3,7.6c1,5.7,0.9,13.2-0.2,21.6c-0.6,4.2-1.4,8.7-2.5,13.3
							c-0.2,1.2-0.5,2.3-0.8,3.5c-0.3,1.2-0.6,2.4-0.9,3.6c-0.7,2.4-1.3,4.8-2.1,7.4c-2.9,10.2-6.3,20.8-10.1,31.8
							c-3.8,10.9-8,22.2-12.6,33.6c-4.5,11.4-9.4,22.9-14.2,34.5c-4.9,11.6-9.7,23.3-14.1,35.1c-4.4,11.8-8.3,23.6-11.2,35.4
							c-2.9,11.8-4.8,23.4-5.5,34.5c-0.8,11.1-0.5,21.6,0.4,31.2c0.4,4.8,1.1,9.4,1.7,13.7c0.7,4.3,1.4,8.4,2.3,12.2
							c1.6,7.6,3.4,14.1,4.9,19.5c1.6,5.3,2.9,9.5,3.8,12.3c0.9,2.8,1.5,4.3,1.5,4.3c0.5,1.5,2.1,2.4,3.6,1.9
							c1.6-0.4,2.5-2.1,2.1-3.7l0-0.1c0,0-0.4-1.5-1.2-4.3c-0.8-2.8-1.8-7-3-12.3c-1.2-5.3-2.5-11.8-3.6-19.2
							c-0.6-3.7-1.1-7.7-1.5-11.9c-0.4-4.2-0.7-8.6-0.9-13.2c-0.3-9.2,0-19.1,1.4-29.5c1.3-10.4,3.7-21.2,7.1-32.1
							c6.7-21.9,17.5-44.2,28.5-66.7c5.5-11.3,11.1-22.6,16.4-33.9c5.3-11.3,10.3-22.6,14.9-33.6c4.6-11,8.7-21.9,12.4-32.3
							c0.5-1.3,0.9-2.6,1.4-3.9c0.4-1.3,0.9-2.6,1.3-3.9c0.4-1.3,0.8-2.6,1.2-3.9c0.4-1.3,0.8-2.6,1.2-3.9
							c1.5-5.2,2.8-10.3,3.7-15.4c2-10.1,2.9-20,1.8-29.5c-0.1-1.3-0.3-2.6-0.6-3.9c-9.3-0.1-15.5-0.3-16-0.3
							C214.7,171.6,210,171.7,202.5,171.8z"/>
						<g>
							<path class="st1" d="M328.9,170.7c0.8,2.3,1.5,4.9,2,7.8c1,6.6,0.7,14.7-0.7,23.5c-0.7,4.4-1.6,9-2.8,13.8
								c-1.2,4.8-2.6,9.6-4.2,14.8c-3.1,10.2-6.8,20.9-10.8,31.8c-4,10.9-8.5,22.2-13.2,33.5c-4.8,11.3-9.8,22.8-14.9,34.3
								c-5.1,11.5-10.1,23.1-14.7,34.7c-4.6,11.6-8.7,23.3-11.7,34.9c-3.1,11.6-5.1,23.1-6.1,34.1c-1,11-0.9,21.4-0.2,31
								c0.3,4.8,0.9,9.3,1.5,13.7c0.6,4.3,1.3,8.4,2,12.2c1.5,7.6,3.1,14.2,4.5,19.5c1.5,5.4,2.7,9.5,3.6,12.4
								c0.9,2.8,1.4,4.3,1.4,4.3c0.5,1.5,2.1,2.4,3.7,2c1.6-0.5,2.5-2.1,2-3.7l0,0c0,0-0.4-1.5-1.3-4.3c-0.8-2.8-1.9-6.9-3.3-12.2
								c-1.3-5.3-2.7-11.7-4-19.2c-0.6-3.7-1.2-7.7-1.7-11.9c-0.5-4.2-0.9-8.6-1.1-13.2c-0.5-9.2-0.3-19.2,0.8-29.7
								c1.2-10.5,3.3-21.4,6.6-32.5c6.4-22.2,16.9-44.9,27.5-67.6c5.3-11.4,10.7-22.8,15.7-34.1c5.1-11.3,9.8-22.6,14.2-33.7
								c4.3-11,8.3-21.9,11.7-32.2c3.5-10.3,6.4-20.6,8.1-30.3c1.7-9.7,2.4-19.1,1.3-27.7c-0.4-3-1-5.9-1.8-8.6
								c-0.4,0.2-0.7,0.4-1.1,0.5C340.3,169.5,335.6,170.2,328.9,170.7z"/>
							<g>
								<path class="st0" d="M297.5,206.5c2.9,16.9,5,37.1,4.8,58.7c-0.2,10.8-0.8,21.9-2.5,32.9c-0.8,5.5-1.9,11-3.3,16.4
									c-0.3,1.4-0.7,2.7-1.1,4l-0.6,2l-0.1,0.5c0,0.1,0,0,0,0.1l0,0.1l-0.1,0.3l-0.4,1.1l-0.7,2l-0.7,2c-0.5,1.3-1,2.7-1.5,4
									c-4.1,10.8-9.1,21.5-14,32.1c-4.9,10.6-9.9,21-14.6,31.3c-9.4,20.4-17.6,40-22.6,57.6c-2.5,8.8-4.2,17.1-5,24.6
									c-0.4,3.8-0.6,7.3-0.5,10.6c0,3.3,0.3,6.4,0.7,9.1c0.8,5.5,2.2,9.7,3.3,12.5c0.3,0.7,0.6,1.3,0.8,1.8
									c0.3,0.5,0.5,0.9,0.6,1.3c0.3,0.7,0.5,1,0.5,1c0.7,1.4,2.4,2,3.8,1.4c1.5-0.6,2.2-2.4,1.6-3.9l-0.1-0.2c0,0-0.1-0.3-0.4-0.9
									c-0.1-0.3-0.3-0.7-0.5-1.1c-0.2-0.5-0.4-1-0.6-1.6c-0.8-2.5-1.8-6.2-2.2-11c-0.4-4.9-0.2-10.9,0.9-17.8
									c1.1-6.9,3.2-14.6,6.1-22.8c5.8-16.5,14.9-35,25.4-54.6c5.2-9.8,10.8-19.9,16.5-30.2c5.6-10.4,11.3-21,16.4-32.2
									c0.6-1.4,1.3-2.8,1.9-4.2l0.9-2.2l0.9-2.1l0.4-1l0.2-0.6l0.2-0.6l0.8-2.2c0.6-1.5,1.1-3,1.6-4.5c2-6,3.5-12.1,4.8-18.1
									c2.6-12.1,4-24,4.9-35.6c1.6-23.1,0.7-44.7-1.3-63.2c-1.3-11.9-3.1-22.6-5.2-31.6c-8.4,0.4-18.3,0.6-28.6,0.7
									C292.1,180.6,295.1,192.4,297.5,206.5z"/>
								<path class="st0" d="M311.4,150.1c0,0.1,0.1,0.2,0.1,0.3C311.5,150.3,311.4,150.2,311.4,150.1z"/>
							</g>
						</g>
					</g>
				</g>
			</g>
		</g>
	</g>
</g>
<g>
	<path class="st0" d="M246,172c-2,8.9-3.8,19.3-5,30.9c-2,18.5-2.9,40.1-1.3,63.2c0.9,11.6,2.3,23.5,4.9,35.6
		c1.3,6,2.8,12.1,4.8,18.1c0.5,1.5,1,3,1.6,4.5l0.8,2.2l0.2,0.6l0.2,0.6l0.4,1l0.9,2.1l0.9,2.2c0.6,1.4,1.2,2.8,1.9,4.2
		c5.1,11.2,10.8,21.8,16.4,32.2c5.6,10.4,11.2,20.4,16.5,30.2c10.5,19.6,19.6,38.1,25.4,54.6c2.9,8.2,5,15.9,6.1,22.8
		c1.2,6.9,1.4,12.9,0.9,17.8c-0.4,4.9-1.4,8.6-2.2,11c-0.2,0.6-0.4,1.1-0.6,1.6c-0.2,0.5-0.4,0.8-0.5,1.1c-0.3,0.6-0.4,0.9-0.4,0.9
		l-0.1,0.2c-0.6,1.4,0,3.1,1.4,3.8c1.5,0.7,3.3,0.1,4-1.3c0,0,0.2-0.4,0.5-1c0.2-0.3,0.4-0.8,0.6-1.3c0.2-0.5,0.5-1.1,0.8-1.8
		c1.1-2.8,2.6-7,3.3-12.5c0.4-2.7,0.7-5.8,0.7-9.1c0-3.3-0.1-6.9-0.5-10.6c-0.8-7.5-2.5-15.8-5-24.6c-5-17.6-13.2-37.2-22.6-57.6
		c-4.7-10.2-9.7-20.7-14.6-31.3c-4.9-10.6-9.8-21.3-14-32.1c-0.5-1.3-1-2.7-1.5-4l-0.7-2l-0.7-2l-0.4-1.1l-0.1-0.3l0-0.1
		c0-0.1,0,0,0-0.1l-0.1-0.5l-0.6-2c-0.4-1.3-0.8-2.6-1.1-4c-1.4-5.3-2.5-10.9-3.3-16.4c-1.7-11-2.3-22.1-2.5-32.9
		c-0.2-21.6,1.9-41.8,4.8-58.7c2.4-14,5.4-25.8,8.3-34.3C264.6,172.2,254.7,172.1,246,172z"/>
	<g>
		<path class="st2" d="M286.1,235.1c-6.1,13-14.2,21-22,28.8c-14.3,14.3-27.8,27.8-27.8,67.8c0,13.7,9.6,30.7,20.8,50.4
			c13.5,23.9,28.8,50.9,28.8,76.9c0,11.7-2.8,21.2-5.3,29.5c-3.7,12.5-7,23.2,1.8,35.4c0.3,0.4,0.8,0.6,1.2,0.6
			c0.3,0,0.6-0.1,0.9-0.3c0.7-0.5,0.8-1.4,0.3-2.1c-7.9-11-5.2-20.1-1.4-32.8c2.6-8.5,5.5-18.2,5.5-30.4c0-26.7-15.5-54.2-29.2-78.4
			c-10.5-18.5-20.4-36.1-20.4-49c0-38.8,13.1-51.8,26.9-65.7c8-8,16.2-16.3,22.6-29.7c7.8-16.6,8.1-37.7,0.9-64.3c-1,0-2.1,0-3.1,0
			C293.8,198.3,293.7,219,286.1,235.1z"/>
		<g>
			<path class="st1" d="M219.4,176.6c-1.1,8.6-0.4,17.9,1.3,27.7c1.7,9.7,4.6,19.9,8.1,30.3c3.5,10.3,7.4,21.1,11.7,32.2
				c4.4,11,9.1,22.3,14.2,33.7c5.1,11.3,10.4,22.8,15.7,34.1c10.6,22.7,21.1,45.4,27.5,67.6c3.2,11.1,5.4,22,6.6,32.5
				c1.2,10.5,1.3,20.5,0.8,29.7c-0.2,4.6-0.7,9-1.1,13.2c-0.5,4.2-1.1,8.2-1.7,11.9c-1.3,7.4-2.7,13.9-4,19.2
				c-1.3,5.3-2.5,9.4-3.3,12.2c-0.8,2.8-1.3,4.3-1.3,4.3l0,0.1c-0.5,1.6,0.4,3.2,2,3.7c1.6,0.5,3.3-0.4,3.8-2c0,0,0.5-1.5,1.4-4.3
				c0.9-2.8,2.1-7,3.6-12.4c1.4-5.4,3.1-11.9,4.5-19.5c0.8-3.8,1.4-7.9,2-12.2c0.6-4.3,1.1-8.9,1.5-13.7c0.7-9.6,0.8-20-0.2-31
				c-1-11-3-22.5-6.1-34.1c-3.1-11.6-7.1-23.3-11.7-34.9c-4.6-11.6-9.6-23.2-14.7-34.7c-5.1-11.5-10.1-22.9-14.9-34.3
				c-4.8-11.3-9.2-22.6-13.2-33.5c-4-11-7.6-21.6-10.8-31.8c-1.6-5.1-3-10-4.2-14.8c-1.2-4.8-2.1-9.4-2.8-13.8
				c-1.4-8.8-1.7-16.9-0.7-23.5c0.4-2.4,0.9-4.7,1.5-6.7c-6.2-0.1-11.3-0.2-14.7-0.2C219.9,173.3,219.6,174.9,219.4,176.6z"/>
			<g>
				<path class="st1" d="M200.7,171.8c-2.3,8.9-4.4,19.7-5.9,31.9c-2.3,18.1-3.5,39.4-2.4,62.1c0.7,11.4,1.8,23.1,4.2,35
					c1.1,5.9,2.5,11.9,4.4,17.8c0.4,1.5,0.9,2.9,1.4,4.4l0.8,2.2l0.2,0.5l0.2,0.6l0.4,1c0.5,1.4,1.1,2.9,1.7,4.3
					c0.6,1.4,1.2,2.8,1.8,4.2c4.9,11.2,10.3,21.8,15.7,32.3c5.4,10.4,10.8,20.6,15.9,30.5c10.2,19.8,18.9,38.6,24.4,55.3
					c2.8,8.3,4.7,16.1,5.7,23.1c1,6.9,1.1,13,0.6,17.9c-0.5,4.9-1.6,8.6-2.5,11c-0.2,0.6-0.4,1.1-0.6,1.6c-0.2,0.5-0.4,0.8-0.5,1.1
					c-0.3,0.6-0.4,0.9-0.4,0.9l-0.1,0.2c-0.7,1.5,0,3.2,1.4,3.9c1.5,0.7,3.3,0.1,4-1.4c0,0,0.2-0.4,0.5-1.1c0.2-0.3,0.4-0.8,0.6-1.3
					c0.2-0.5,0.5-1.1,0.8-1.8c1.1-2.8,2.4-7,3.1-12.5c0.7-5.5,0.8-12.1-0.2-19.6c-0.9-7.5-2.8-15.7-5.4-24.4
					c-5.3-17.4-13.8-36.8-23.5-57c-4.9-10.1-10.1-20.4-15.2-31c-5.1-10.5-10.3-21.2-14.7-32c-0.5-1.4-1.1-2.7-1.6-4.1
					c-0.5-1.4-1-2.6-1.5-4.1l-0.4-1.1l-0.2-0.5l-0.2-0.5l-0.7-2c-0.4-1.4-0.9-2.7-1.2-4.1c-1.6-5.5-2.8-11.1-3.7-16.7
					c-1.9-11.2-2.8-22.5-3.2-33.5c-0.6-21.9,1.1-42.4,3.7-59.7c2-13.6,4.7-25.2,7.4-34c-0.2,0-0.3,0-0.4,0
					C214.8,171.6,209.3,171.7,200.7,171.8z"/>
			</g>
		</g>
	</g>
</g>
<g>
	<path class="st1" d="M255.4,205.6c2.6,17.3,4.3,37.8,3.7,59.7c-0.4,10.9-1.2,22.2-3.2,33.5c-1,5.6-2.1,11.2-3.7,16.7
		c-0.4,1.4-0.8,2.7-1.2,4.1l-0.7,2l-0.2,0.5l-0.2,0.5l-0.4,1.1c-0.5,1.4-1,2.7-1.5,4.1c-0.5,1.4-1.1,2.7-1.6,4.1
		c-4.4,10.8-9.5,21.5-14.7,32c-5.1,10.5-10.3,20.8-15.2,31c-9.8,20.2-18.3,39.5-23.5,57c-2.6,8.7-4.5,16.9-5.4,24.4
		c-0.9,7.4-0.9,14.1-0.2,19.6c0.7,5.5,2,9.7,3.1,12.5c0.3,0.7,0.5,1.3,0.8,1.8c0.2,0.5,0.5,1,0.6,1.3c0.3,0.7,0.5,1.1,0.5,1.1
		c0.7,1.5,2.4,2.1,3.9,1.4c1.5-0.7,2.2-2.4,1.5-4l-0.1-0.2c0,0-0.1-0.3-0.4-0.9c-0.1-0.3-0.3-0.7-0.5-1.1c-0.2-0.5-0.4-1-0.6-1.6
		c-0.9-2.4-2-6.1-2.5-11c-0.5-4.9-0.4-11,0.6-17.9c1-6.9,2.9-14.7,5.7-23.1c5.5-16.7,14.3-35.5,24.4-55.3
		c5.1-9.9,10.5-20.1,15.9-30.5c5.4-10.5,10.9-21.1,15.7-32.3c0.6-1.4,1.2-2.8,1.8-4.2c0.6-1.4,1.2-2.9,1.7-4.3l0.4-1l0.2-0.6
		l0.2-0.5l0.8-2.2c0.5-1.5,1-2.9,1.4-4.4c1.8-5.9,3.2-11.8,4.4-17.8c2.3-11.9,3.5-23.6,4.2-35c1.2-22.8-0.1-44-2.4-62.1
		c-1.5-12.1-3.6-22.8-5.8-31.6c-5.2,0-10.2,0-14.9-0.1C250.7,180.8,253.4,192.3,255.4,205.6z"/>
	<g>
		<path class="st2" d="M255,240c-5.5,18.4-13.9,34.5-21.2,48.6c-12,23.2-22.4,43.2-17.3,65.5c1.1,4.8,3.7,10.3,6.7,16.7
			c7.1,15.1,16,33.8,13.2,58.2c-0.6,5.5-3,13.9-5.7,23.7c-6.6,24-14.8,53.8-7.7,71.1c0.2,0.6,0.8,0.9,1.4,0.9c0.2,0,0.4,0,0.6-0.1
			c0.8-0.3,1.1-1.2,0.8-2c-6.7-16.3,1.7-46.8,7.8-69.1c2.7-9.9,5.1-18.4,5.7-24.1c2.9-25.2-6.6-45.2-13.5-59.8
			c-2.9-6.2-5.5-11.6-6.5-16c-4.9-21.1,5.2-40.7,17-63.4c7.4-14.3,15.8-30.5,21.4-49.2c4.3-14.2-2.2-46.8-13.3-68.8
			c-1.2,0-2.3,0-3.4,0C252.3,193.3,259.1,226.2,255,240z"/>
		<g>
			<path class="st2" d="M212.9,171.6c-11.2,22.1-17.7,54.9-13.4,69.2c5.6,18.7,14,34.9,21.4,49.2c11.8,22.7,21.9,42.2,17,63.4
				c-1,4.5-3.6,9.8-6.5,16c-6.9,14.6-16.4,34.6-13.5,59.8c0.7,5.7,3,14.3,5.7,24.1c6.1,22.3,14.6,52.8,7.8,69.1
				c-0.3,0.8,0,1.6,0.8,2c0.2,0.1,0.4,0.1,0.6,0.1c0.6,0,1.1-0.3,1.4-0.9c7.1-17.3-1.1-47.1-7.7-71.1c-2.7-9.8-5-18.2-5.7-23.7
				c-2.8-24.4,6.1-43.1,13.2-58.2c3-6.4,5.6-11.8,6.7-16.7c5.2-22.2-5.2-42.3-17.3-65.5c-7.4-14.2-15.7-30.2-21.2-48.6
				c-4.1-13.8,2.8-47.1,14-68.4c-0.6,0-0.9,0-1,0C215.1,171.6,214.3,171.6,212.9,171.6z"/>
			<g>
				<path class="st2" d="M273.5,236.4c6.3,13.4,14.6,21.7,22.6,29.7c13.8,13.8,26.9,26.9,26.9,65.7c0,12.9-9.9,30.4-20.4,49
					c-13.7,24.2-29.2,51.6-29.2,78.4c0,12.2,2.9,21.8,5.5,30.4c3.8,12.7,6.5,21.8-1.4,32.8c-0.5,0.7-0.3,1.6,0.3,2.1
					c0.3,0.2,0.6,0.3,0.9,0.3c0.5,0,0.9-0.2,1.2-0.6c8.8-12.2,5.6-22.9,1.8-35.4c-2.5-8.3-5.3-17.8-5.3-29.5c0-26,15.3-53,28.8-76.9
					c11.2-19.7,20.8-36.8,20.8-50.4c0-40-13.5-53.5-27.8-67.8c-7.8-7.8-15.9-15.9-22-28.8c-7.5-16.1-7.7-36.8-0.5-63
					c-1,0-2.1,0-3.1,0C265.4,198.7,265.7,219.8,273.5,236.4z"/>
			</g>
		</g>
	</g>
</g>
<path class="st3" d="M353.8,109.6c-20-47.5-98.9-85.4-138.4-85.5v0c0,0,0,0-0.1,0s0,0-0.1,0v0c-39.5,0.1-118.4,38-138.4,85.5
	c-18.2,43.1,0.5,53.5,11.5,59c10.9,5.4,124.7,3,126.9,3c2.2,0,116.1,2.4,126.9-3C353.3,163.1,371.9,152.7,353.8,109.6z"/>
<path id="XMLID_3_" class="st4" d="M144.5,96.2c0,0,4.7-34,14.7-34s24,29.3,24,29.3"/>
<path id="XMLID_7_" class="st4" d="M281.3,96.2c0,0-4.7-34-14.7-34s-24,29.3-24,29.3"/>
<path id="XMLID_4_" class="st4" d="M192.9,137.6c0,0,8.9,18,20.3,18c11.3,0,19.7-18,19.7-18"/>
</svg>
