<?xml version="1.0" encoding="utf-8"?>
<!-- Generator: Adobe Illustrator 17.0.0, SVG Export Plug-In . SVG Version: 6.00 Build 0)  -->
<!DOCTYPE svg PUBLIC "-//W3C//DTD SVG 1.1//EN" "http://www.w3.org/Graphics/SVG/1.1/DTD/svg11.dtd">
<svg version="1.1" id="Layer_1" xmlns="http://www.w3.org/2000/svg" xmlns:xlink="http://www.w3.org/1999/xlink" x="0px" y="0px"
	 width="555.166px" height="178.439px" viewBox="0 0 555.166 178.439" enable-background="new 0 0 555.166 178.439"
	 xml:space="preserve">
<path fill="#FFFFFF" d="M0,169.439c0,4.971,4.029,9,9,9h537.166c4.971,0,9-4.029,9-9c0-3.519-2.024-6.558-4.967-8.037
	c0.91-2.065,1.408-4.246,1.408-6.505c0-12.835-15.755-23.239-35.19-23.239c-1.562,0-3.096,0.074-4.604,0.204
	c-4.78-8.878-14.158-14.913-24.947-14.913c-1.928,0-3.811,0.194-5.631,0.562c-6.071-16.589-21.998-28.429-40.69-28.429
	c-6.148,0-11.992,1.289-17.29,3.598c-7.458-6.08-16.976-9.73-27.348-9.73c-1.443,0-2.869,0.074-4.276,0.212
	c-6.997-14.513-21.849-24.528-39.04-24.528c-9.865,0-18.956,3.304-26.238,8.858c-6.062-6.128-13.942-10.449-22.763-12.103
	C299.1,36.252,281.936,22,261.431,22c-0.922,0-1.834,0.039-2.742,0.095C251.263,8.911,237.142,0,220.931,0
	c-10.886,0-20.825,4.025-28.435,10.655C184.887,4.025,174.947,0,164.061,0c-23.412,0-42.474,18.578-43.278,41.794
	c-6.284,2.063-11.93,5.522-16.577,10.013c-7.793-7.533-18.398-12.175-30.092-12.175c-23.923,0-43.316,19.393-43.316,43.316
	c0,3.049,0.319,6.023,0.918,8.894c-10.35,7.915-17.032,20.386-17.032,34.422c0,1.604,0.094,3.186,0.264,4.746
	c-8.292,2.742-14.282,10.543-14.282,19.754c0,4.134,1.22,7.976,3.298,11.215C1.572,163.597,0,166.335,0,169.439z"/>
</svg>
