<svg version="1.1" id="Layer_1" xmlns="http://www.w3.org/2000/svg" xmlns:xlink="http://www.w3.org/1999/xlink" x="0px" y="0px"
	 width="259.471px" height="124.192px" viewBox="0 0 259.471 124.192" enable-background="new 0 0 259.471 124.192"
	 xml:space="preserve">
<path fill="#FFFFFF" d="M0,84.532c0,8.402,3.083,16.079,8.17,21.98c-3.835,1.031-6.661,4.522-6.661,8.682c0,4.971,4.029,9,9,9
	h239.845c4.971,0,9-4.029,9-9c0-4.079-2.715-7.519-6.435-8.624c4.115-5.586,6.551-12.486,6.551-19.957
	c0-11.23-5.5-21.17-13.948-27.291c0.038-0.652,0.062-1.308,0.062-1.97c0-18.605-15.083-33.688-33.688-33.688
	c-12.099,0-22.704,6.382-28.645,15.96c-3.614-14.711-16.884-25.627-32.71-25.627c-6.969,0-13.443,2.116-18.816,5.741
	c-5.304-11.643-17.034-19.741-30.663-19.741c-9.052,0-17.263,3.577-23.316,9.386c-2.501-0.592-5.107-0.915-7.79-0.915
	c-18.605,0-33.688,15.083-33.688,33.688c0,3.084,0.422,6.067,1.198,8.904c-1.242-0.139-2.502-0.217-3.78-0.217
	C15.083,50.844,0,65.927,0,84.532z"/>
</svg>
