<?xml version="1.0" encoding="utf-8"?>
<!-- Generator: Adobe Illustrator 17.0.0, SVG Export Plug-In . SVG Version: 6.00 Build 0)  -->
<!DOCTYPE svg PUBLIC "-//W3C//DTD SVG 1.1//EN" "http://www.w3.org/Graphics/SVG/1.1/DTD/svg11.dtd">
<svg version="1.1" id="Layer_1" xmlns="http://www.w3.org/2000/svg" xmlns:xlink="http://www.w3.org/1999/xlink" x="0px" y="0px"
	 width="1920px" height="2444.92px" viewBox="0 0 1920 2444.92" enable-background="new 0 0 1920 2444.92" xml:space="preserve">
<path fill="#140F28" d="M46.537,2444.92c22.059,0,32.797-4.167,44.166-8.58c11.508-4.466,23.408-9.084,46.863-9.084
	c23.454,0,35.354,4.618,46.862,9.084c11.369,4.413,22.107,8.58,44.166,8.58s32.797-4.167,44.166-8.58
	c11.508-4.466,23.407-9.084,46.862-9.084c23.455,0,35.354,4.618,46.862,9.084c11.369,4.413,22.107,8.58,44.166,8.58
	c22.06,0,32.798-4.167,44.167-8.58c11.508-4.466,23.408-9.084,46.862-9.084c23.455,0,35.355,4.618,46.863,9.084
	c11.369,4.413,22.107,8.58,44.166,8.58c22.059,0,32.798-4.167,44.166-8.58c11.508-4.466,23.407-9.084,46.862-9.084
	c23.455,0,35.354,4.618,46.862,9.084c11.369,4.413,22.107,8.58,44.166,8.58c22.06,0,32.798-4.167,44.167-8.58
	c11.508-4.466,23.407-9.084,46.862-9.084s35.354,4.618,46.862,9.084c11.368,4.413,22.107,8.58,44.166,8.58s32.797-4.167,44.166-8.58
	c11.508-4.466,23.408-9.084,46.862-9.084c23.455,0,35.354,4.618,46.862,9.084c11.369,4.413,22.107,8.58,44.166,8.58
	c22.06,0,32.798-4.167,44.166-8.58c11.508-4.466,23.408-9.084,46.863-9.084c23.455,0,35.354,4.618,46.863,9.084
	c11.369,4.413,22.107,8.58,44.166,8.58c22.059,0,32.798-4.167,44.166-8.58c11.508-4.466,23.408-9.084,46.863-9.084
	c23.455,0,35.355,4.618,46.863,9.084c11.369,4.413,22.107,8.58,44.167,8.58c22.06,0,32.798-4.167,44.167-8.58
	c11.508-4.466,23.408-9.084,46.863-9.084c23.455,0,35.355,4.618,46.862,9.084c11.368,4.413,22.106,8.58,44.166,8.58
	c22.06,0,32.798-4.167,44.167-8.58c11.508-4.466,23.408-9.084,46.863-9.084c23.455,0,35.355,4.618,46.864,9.084
	c11.369,4.413,22.107,8.58,44.167,8.58c22.06,0,32.798-4.167,44.167-8.58c2.93-1.137,5.886-2.284,9.052-3.362
	c0.046-0.016,0.092-0.031,0.138-0.046V0H-0.47v2435.244c0.953,0.365,1.899,0.731,2.841,1.097
	C13.739,2440.753,24.478,2444.92,46.537,2444.92z"/>
</svg>
