<?xml version="1.0" encoding="utf-8"?>
<!-- Generator: Adobe Illustrator 19.0.0, SVG Export Plug-In . SVG Version: 6.00 Build 0)  -->
<svg version="1.1" xmlns="http://www.w3.org/2000/svg" xmlns:xlink="http://www.w3.org/1999/xlink" x="0px" y="0px"
	 viewBox="0 0 1920 364.2" style="enable-background:new 0 0 1920 364.2;" xml:space="preserve">
<style type="text/css">
	.st0{fill:#182607;}
	.st1{fill:#101905;}
	.st2{fill:#1F3309;}
	.st3{fill:#5F467F;}
	.st4{fill:none;stroke:#261E33;stroke-width:7;stroke-linecap:round;stroke-miterlimit:10;}
	.st5{fill:#33527F;}
	.st6{fill:none;stroke:#0F1B33;stroke-width:9;stroke-linecap:round;stroke-miterlimit:10;}
	.st7{fill:#2C384C;}
	.st8{fill:#161C26;}
	.st9{fill:#25333F;}
	.st10{fill:#2E4059;}
	.st11{fill:#1A261A;}
	.st12{fill:#233323;}
	.st13{fill:#2B3F2B;}
	.st14{fill:#111911;}
	.st15{fill:none;stroke:#BAAB6E;stroke-width:100;stroke-miterlimit:10;}
	.st16{fill:#BAAB6E;}
	.st17{fill:#B79B6E;}
	.st18{fill:#C68F46;}
	.st19{fill:#D3AF67;}
	.st20{fill:#999937;}
	.st21{fill:#916D2C;}
	.st22{fill:#A08D3C;}
	.st23{fill:#A3A558;}
	.st24{fill:#B78D6E;}
	.st25{fill:none;stroke:#8C8153;stroke-width:100;stroke-miterlimit:10;}
</style>
<g id="seaweed">
	<g>
		<path class="st0" d="M1679.9,105.2c0,0,0.1,0.3,0.4,0.7c0.1,0.1,0.1,0.2,0.2,0.4c0.2,0.2,0.4,0.4,0.7,0.7c0.2,0.3,0.5,0.5,0.7,0.8
			c0.2,0.3,0.4,0.6,0.6,0.9c0.8,1.2,1.5,2.7,2,4.3c0.5,1.6,0.9,3.3,1.2,5c0.3,1.7,0.7,3.5,1.2,5.3c0.5,1.8,1,3.7,1.8,5.4
			c0.8,1.7,1.9,3,3.4,3.4c0.8,0.2,1.7,0.3,2.7,0.2c0.3,0,0.7-0.1,1-0.1c0.3,0,0.6-0.1,1.1-0.1c0.4,0,0.8,0,1.2,0
			c0.4,0,0.8,0,1.2,0.1c3.2,0.2,6.5,1.2,9.5,3.3c1.5,1.1,2.9,2.4,4.1,4.1c0.6,0.9,1.1,1.9,1.4,3c0.3,1.1,0.6,2.4,0.5,3.8
			c-0.1,1.3-0.5,2.7-1.1,4c-0.7,1.2-1.5,2.3-2.5,3.1c-1.9,1.7-4,2.5-5.9,3.1c-0.5,0.2-1,0.3-1.5,0.4l-0.4,0.1c-0.1,0,0.4-0.1,0.2,0
			l-0.1,0l-0.1,0l-0.6,0.2l-0.3,0.1c-0.1,0-0.2,0.1-0.2,0.1c-0.1,0-0.1,0.1-0.2,0.1c-0.1,0-0.3,0.1-0.4,0.2
			c-0.3,0.1-0.4,0.3-0.4,0.3c0,0,0,0,0,0.1c0,0.2,0,1.1,0.5,2.1c0.4,1,1.1,2.2,2,3.3c1.7,2.2,4,4.2,6.6,5.8c2.6,1.6,5.4,2.6,8.3,2.8
			c0.4,0,0.7,0.1,1.1,0.1l1.2,0c0.8,0,1.6-0.1,2.5-0.2c1.7-0.2,3.4-0.5,5.1-0.9c3.4-0.8,6.8-1.7,10.1-2.9c3.3-1.2,6.5-2.5,9.6-4.1
			c3-1.6,6-3.4,8.2-5.4c0.5-0.5,1-1,1.3-1.5c0.1-0.2,0.2-0.4,0.2-0.5c0-0.1-0.2,0.1-0.2,0.6c0,0.1,0,0.3,0,0.4
			c0,0.1,0.1,0.3,0.1,0.4c0.1,0.1,0.1,0.2,0.2,0.3c0,0,0.1,0.1,0.1,0.1c0,0,0,0.1,0,0.1c0.2,0.2,0.1,0.2,0,0.2l-0.7,0l-1.3-0.1
			c-3.7-0.4-7.2-0.8-10.6-1.7c-3.4-0.9-6.5-2.4-9.5-4.1c-1.5-0.9-3-1.8-4.6-3c-0.4-0.3-0.8-0.6-1.1-0.9c-0.4-0.3-0.8-0.7-1.2-1.1
			l-0.6-0.6c-0.2-0.2-0.4-0.5-0.6-0.7c-0.2-0.3-0.4-0.5-0.6-0.8c-0.2-0.3-0.4-0.6-0.6-0.9l-0.3-0.5l-0.3-0.6
			c-0.2-0.4-0.3-0.8-0.4-1.3c-0.2-1-0.4-2-0.2-3.2c0.1-1.2,0.5-2.2,0.9-3.2c0.2-0.4,0.5-0.8,0.8-1.2c0.3-0.4,0.6-0.8,0.8-1
			c1.1-1.2,2.1-1.8,3.1-2.4c0.5-0.2,0.9-0.5,1.4-0.7c0.4-0.2,0.8-0.3,1.3-0.5c1.7-0.6,3.2-1,4.6-1.3c1.2-0.3,2.5-0.5,3.6-0.8
			c0.6-0.1,1.1-0.3,1.7-0.4c0.5-0.1,1-0.3,1.6-0.4c1-0.2,2-0.6,3-0.8c1.9-0.6,3.7-1.2,5.3-1.8c1.6-0.6,3-1.3,4.3-1.9
			c2.5-1.3,4.3-2.5,5.3-3.4c1.1-0.9,1.5-1.4,1.3-1.1c0.9-1.6,3-2.3,4.6-1.4c1.6,0.9,2.3,3,1.4,4.6c-0.1,0.2-0.6,1.3-1.8,2.9
			c-1.2,1.6-3.2,3.7-6,5.8c-1.4,1-3,2.1-4.8,3.2c-1.8,1-3.8,2-6,3c-1.1,0.5-2.2,1-3.4,1.4c-0.6,0.2-1.2,0.4-1.8,0.7
			c-0.6,0.2-1.3,0.5-1.8,0.6c-1.2,0.4-2.4,0.7-3.7,1.1c-1.1,0.3-2.1,0.6-3,1l-0.6,0.3c-0.1,0.1-0.3,0.2-0.4,0.3
			c-0.2,0.2-0.4,0.3-0.2,0.2c0,0,0.1-0.1,0.2-0.2c0.1-0.1,0.1-0.2,0.2-0.3c0.2-0.3,0.3-0.7,0.4-1.1c0-0.5,0-0.8-0.1-1.1
			c0-0.1,0-0.2-0.1-0.2c0,0,0-0.1-0.1-0.1c0,0,0,0,0,0c0,0,0,0,0,0c0,0,0.1,0.1,0.1,0.1c0,0,0.1,0.1,0.1,0.1l0.2,0.2
			c0.1,0.1,0.3,0.3,0.5,0.4c0.2,0.1,0.4,0.3,0.6,0.5c0.9,0.6,1.9,1.3,3.1,2c2.4,1.3,5.1,2.4,7.7,3.9c2.7,1.4,5.5,3.1,8.3,4.4
			l1.2,0.5c0.6,0.2,1.1,0.4,1.8,0.8c0.6,0.3,1.3,0.7,2.1,1.5l0.3,0.3l0.3,0.4c0.2,0.3,0.4,0.5,0.5,0.9c0.3,0.6,0.5,1.4,0.5,2.1
			c0,1.4-0.4,2.4-0.8,3.1c-0.4,0.7-0.8,1.2-1.2,1.7c-0.8,0.9-1.6,1.5-2.5,2.1c-3.2,2.3-6.5,3.8-9.8,5.4c-6.6,3.1-13.4,5.9-20.6,8
			c-1.8,0.5-3.6,1-5.5,1.4c-0.9,0.2-1.9,0.4-2.9,0.6l-1.5,0.2c-0.5,0.1-1.1,0.1-1.6,0.1c-4.3,0.2-8.5-0.9-12.2-2.6
			c-1.9-0.9-3.6-1.9-5.3-3.1c-1.7-1.2-3.2-2.5-4.6-4.1c-1.4-1.6-2.7-3.3-3.6-5.4c-0.9-2.1-1.7-4.6-1.3-7.8c0.3-1.6,0.9-3.2,2-4.5
			c1-1.3,2.3-2.2,3.4-2.8c0.6-0.3,1.2-0.6,1.9-0.8l1-0.3c0.2-0.1,0.3-0.1,0.4-0.1l0.3-0.1l1.4-0.3l0.9-0.2c1.2-0.2,2.1-0.6,2.7-1
			c0.6-0.4,0.7-0.5,0.9-0.9c0.1-0.2,0.1-0.5,0.1-0.8c0-0.3-0.2-0.7-0.3-1.2c-0.3-0.8-1-1.7-1.8-2.5c-1.6-1.5-3.7-2.6-5.9-3l-0.8-0.1
			l-0.7-0.1c-0.5-0.1-1.3,0-1.9,0c-1.5,0-3.2-0.2-4.8-0.8c-1.6-0.6-2.9-1.6-3.9-2.7c-1-1.1-1.7-2.3-2.2-3.5
			c-0.6-1.1-0.9-2.2-1.3-3.3c-0.4-1-0.7-2-0.9-2.9c-0.5-1.8-1.2-3.4-1.9-4.7c-0.7-1.2-1.6-2.1-2.4-2.6c-0.8-0.5-1.5-0.5-2.1-0.4
			c-0.1,0-0.3,0.1-0.3,0.1c-0.1,0.1-0.1,0.2-0.1,0.3c0,0.1-0.1,0.2-0.1,0.2c-0.1,0-0.3,0-0.4,0.1c-0.5,0.1-0.8,0.1-0.8,0.1
			c-4.9,1.2-9.9-1.9-11-6.8c-1.2-4.9,1.9-9.9,6.8-11C1673.8,99,1678.1,101.3,1679.9,105.2z"/>
	</g>
	<g>
		<path class="st1" d="M1705.4,85.5c0,0,0.1,0.1,0.3,0.3c0.1,0.1,0.2,0.2,0.3,0.4c0.1,0.1,0.2,0.3,0.4,0.5c0.2,0.1,0.4,0.2,0.5,0.3
			c0.2,0.1,0.4,0.1,0.5,0.3c0.3,0.3,0.6,0.5,0.7,0.8c0.1,0.1,0.1,0.3,0.2,0.4c0,0.1,0,0.3,0,0.4c-0.1,0.3-0.1,0.7-0.1,1.1
			c0,0.9,0,1.9,0.1,3.2c0.2,1.2,0.4,2.6,0.8,4c0.2,0.7,0.5,1.4,0.8,2.1c0.3,0.7,0.7,1.4,1.1,2c0.4,0.7,0.9,1.3,1.5,1.8
			c0.6,0.6,1.2,1.1,2,1.5c0.8,0.4,1.7,0.8,2.7,1l0.2,0l0.1,0c-0.1,0,0.1,0,0.1,0l0.1,0l0.5,0.1c0.4,0.1,1,0.2,1.4,0.3
			c0.9,0.2,1.8,0.5,2.8,1c1,0.5,2,1.1,3,2.1c0.9,1,1.6,2.4,1.9,3.7c0.2,1.3,0.1,2.5-0.1,3.5c-0.2,1-0.6,1.9-1,2.8
			c-1.6,3.3-3.8,5.9-6.2,8.5c-1.2,1.3-2.4,2.5-3.8,3.7c-0.7,0.6-1.4,1.2-2.1,1.8c-0.4,0.3-0.7,0.6-1.1,0.8c-0.2,0.2-0.7,0.5-0.9,0.7
			c-1.1,0.9-2.2,2.2-3.2,3.5c-1,1.3-1.8,2.8-2.6,4.3c-1.5,3.1-2.6,6.5-2.9,9.9c-0.2,1.7-0.2,3.4,0.2,4.9c0.2,0.7,0.4,1.4,0.8,1.9
			c0.2,0.3,1.1,1.4,1.7,2.2c1.2,1.7,2.1,3.4,3.1,4.9c1,1.5,2.1,2.8,3.2,3.8c1.2,1,2.4,1.6,3.9,1.9c0.7,0.2,1.5,0.3,2.3,0.3
			c0.2,0,0.4,0,0.6,0l0.3,0l0.2,0c0.1,0-0.1,0,0,0l0.1,0l0.4,0l0.1,0l0.3-0.1c2-0.5,4.2-2.9,5.5-5.8c1.4-2.8,2.1-6.3,1.9-9
			c0-0.6-0.2-1.2-0.3-1.6c-0.1-0.4-0.3-0.5-0.2-0.3c0,0.1,0.1,0.1,0.2,0.2c0,0,0.1,0,0.1,0.1l0,0c0.2,0-0.2,0-0.2,0l-0.1,0l-0.2,0
			c-0.1,0-0.1,0-0.3-0.1c-0.3-0.1-0.5-0.1-0.8-0.2l-0.6-0.2c-0.4-0.2-0.8-0.3-1.1-0.5c-0.7-0.4-1.3-0.8-1.9-1.2
			c-2.2-1.7-3.6-3.6-4.7-5.5c-1.2-1.9-2.1-3.8-2.8-5.8c-0.7-2-1.2-4.1-1.5-6.3c-0.1-1.1-0.2-2.3-0.1-3.7c0.1-0.7,0.2-1.4,0.4-2.2
			c0.2-0.8,0.6-1.7,1.3-2.7c0.7-1,1.7-2,3-2.6c1.3-0.6,2.6-0.7,3.7-0.7c2.1,0.2,3.4,0.8,4.5,1.4l0.2,0.1c0.2,0.1-0.2-0.1-0.1-0.1
			l0.1,0l0.3,0.1l0.1,0.1l0,0c0,0-0.1,0-0.1,0c0,0,0.1,0.1,0.1,0.1c0.2,0,0.5,0.1,0.9,0c0.8-0.1,2-0.6,3.1-1.2
			c1.1-0.6,2.2-1.4,3.3-2.3c2.1-1.8,4.1-3.8,5.7-5.9c1.7-2.1,3.1-4.3,4.1-6.5c1.1-2.2,1.8-4.3,2.1-6.2c0.1-0.9,0.1-1.7-0.1-2.2
			c-0.1-0.2-0.3-0.4-0.4-0.4c-0.2,0-0.3,0.1-0.3,0.3c0,0.1-0.1,0.2-0.1,0.3c-0.2,0-0.5-0.1-0.8-0.1l-0.4,0c-0.2,0-0.4-0.1-0.5-0.2
			c-0.4-0.1-0.8-0.2-1.1-0.4c-1.3-0.5-2.7-1.2-3.9-2.3c-1.2-1.1-2.2-2.7-2.7-4.3c-0.5-1.6-0.6-3.3-0.4-4.6c0.3-2.7,1.6-4.3,2.7-5.2
			c2.3-1.9,4.4-1.5,4.4-1.6c1.3-1.3,3.4-1.4,4.7-0.1s1.4,3.4,0.1,4.7c0.1-0.1,0.7,1.6,1.2,2.9c0.2,0.6,0.5,1.1,0.5,1.1
			c0,0,0-0.2-0.2-0.4c-0.1-0.2-0.4-0.3-0.6-0.1c-0.2,0.2-0.2,0.6,0.1,1.2l0.1,0.4c0,0.1,0,0.1,0.1,0.2l0.3,0.3
			c0.2,0.2,0.4,0.4,0.6,0.6c0.4,0.3,0.8,0.7,1.2,1.1c0.7,0.8,1.3,1.8,1.7,2.7c0.4,0.9,0.5,1.8,0.6,2.7c0.2,1.7,0.1,3.1-0.1,4.6
			c-0.5,2.8-1.4,5.4-2.6,8c-1.2,2.6-2.6,5.2-4.2,7.8c-1.7,2.6-3.5,5.3-5.9,7.8c-1.2,1.3-2.5,2.5-4.1,3.7c-1.6,1.2-3.4,2.3-5.8,3
			c-1.2,0.4-2.6,0.6-4.1,0.5c-0.8-0.1-1.5-0.2-2.3-0.4c-0.2-0.1-0.5-0.2-0.7-0.2l-0.3-0.1l-0.2-0.1l-0.3-0.1l-0.1,0l-0.3-0.1l-0.1,0
			c-0.4-0.2-0.8-0.2-0.4-0.1c0.2,0,0.6,0,1.1-0.2c0.5-0.2,0.9-0.6,1.1-0.9c0.3-0.5,0.1-0.3,0.1,0.1c0,0.4,0,1,0,1.6
			c0.1,1.3,0.4,2.7,0.9,4.2c0.5,1.4,1.1,2.8,1.8,4.1c0.7,1.3,1.5,2.4,2.2,3c0.2,0.2,0.3,0.3,0.4,0.4c0.1,0,0.1,0.1,0.1,0.1
			c0,0,0,0,0,0c0,0-0.1,0-0.1,0c-0.1,0,0,0,0.1,0l0.2,0l0.1,0c0.1,0-0.3-0.1,0,0l0.4,0.1c0.5,0.1,1,0.3,1.4,0.5c1,0.4,1.9,1,2.6,1.7
			c1.5,1.4,2.2,3.1,2.6,4.5c0.4,1.4,0.5,2.8,0.5,4c0,2.5-0.5,4.7-1.1,6.9c-0.7,2.1-1.6,4.2-2.7,6.1c-1.2,1.9-2.6,3.8-4.4,5.4
			c-1.8,1.6-4.2,3-7,3.4c-0.4,0-0.7,0.1-1.1,0.1l-0.6,0l-0.4,0l-0.1,0c0,0-0.3,0-0.2,0l-0.2,0l-0.4,0c-0.3,0-0.6-0.1-0.8-0.1
			c-1.1-0.2-2.3-0.4-3.4-0.8c-2.2-0.7-4.4-2.1-6-3.7c-1.7-1.7-2.8-3.5-3.8-5.3c-1-1.8-1.8-3.5-2.7-5c-0.5-0.8-0.8-1.2-1.6-2.5
			c-0.6-1.1-1-2.3-1.2-3.4c-0.4-2.2-0.3-4.3,0-6.3c0.6-4,1.9-7.7,3.6-11.1c0.8-1.7,1.8-3.4,2.9-4.9c1.1-1.6,2.3-3,3.9-4.3
			c0.4-0.4,0.7-0.5,1.1-0.9c0.3-0.2,0.6-0.5,0.9-0.7c0.6-0.5,1.2-1,1.8-1.6c1.2-1.1,2.3-2.3,3.2-3.6c1.9-2.5,3.5-5.2,4.2-7.7
			c0.3-1.2,0.3-2.4,0-2.7c-0.1-0.2-0.2-0.1-0.4-0.1c-0.1,0-0.4-0.1-0.8-0.1c-0.4,0-0.8-0.1-1.3,0c-0.3,0-0.4,0-0.7,0.1l-0.5,0
			l-0.1,0c0,0,0.1,0,0,0l-0.2,0l-0.3,0c-1.7,0.1-3.5-0.1-5.2-0.5c-3.5-0.7-6.6-2.5-9-4.6c-2.4-2.1-4.1-4.5-5.3-6.9
			c-1.2-2.3-2-4.6-2.5-6.7c-0.5-2.1-0.7-4-0.7-5.8c0-0.9,0-1.7,0.1-2.5c0-0.8,0.2-1.5,0.6-2.1c0.4-0.6,0.8-1.2,1.3-1.6
			c0.3-0.2,0.6-0.5,0.8-0.6c0.3-0.2,0.6-0.3,0.8-0.5c0.2-0.1,0.4,0,0.6-0.1c0.2,0,0.3,0,0.5,0c0.3,0,0.4,0,0.4,0
			C1701.8,82.7,1704,83.8,1705.4,85.5L1705.4,85.5z"/>
	</g>
	<g>
		<path class="st2" d="M1743.2,81.2c0,0-0.2,0-0.5-0.1c-0.2,0-0.3-0.1-0.6-0.1c-0.2,0-0.4-0.1-0.6-0.1c-0.9-0.2-2.3,0-3.6,0.7
			c-1.2,0.8-2.6,1.9-4.2,3.3c-1.5,1.4-3.2,3-4.6,5.1c-1.4,2-2.8,4.4-3.1,7c-0.2,1.3,0,2.5,0.5,3.6c0.1,0.3,0.3,0.5,0.5,0.8
			c0.1,0.1,0.2,0.3,0.3,0.4l0.1,0.2l0.2,0.3l0.4,0.5l0.2,0.2l0.2,0.3c0.3,0.4,0.6,0.8,0.8,1.2c1.8,3.3,2.7,6.8,3.5,10.3
			c0.7,3.6,1.1,7.2,1.4,11c0.2,3.7,0.3,7.5-0.4,11.5c-0.1,0.5-0.2,1-0.3,1.5c0,0.5,0.2,1.2,0.5,2c0.2,0.8,0.4,1.6,0,2.3
			c-0.2,0.3-0.4,0.6-0.7,0.9c-0.3,0.3-0.6,0.6-0.9,0.9c-0.7,0.6-1.4,1.3-2.4,1.8l-0.4,0.2l-0.2,0.1c-0.1,0,0.4-0.2,0.2-0.1l0,0
			l-0.3,0.1l-0.6,0.3l-0.6,0.3c-0.2,0.1-0.4,0.2-0.5,0.3c-0.2,0.1-0.5,0.3-0.7,0.4c-0.2,0.1-0.5,0.3-0.7,0.4l-0.7,0.5
			c-0.4,0.4-0.9,0.7-1.3,1.1c-0.8,0.7-1.4,1.5-1.9,2.4c-0.5,0.9-0.9,1.8-1.2,2.8c-0.3,1-0.4,2.1-0.5,3.1c-0.1,2.1,0.1,4.3,0.5,6.2
			c0.3,1.9,0.9,3.6,1.3,5c0.4,1.4,0.9,2.5,1.1,3.2c0.3,0.7,0.4,1.1,0.4,1.1c0.8,1.1,0.5,2.7-0.7,3.5c-1.1,0.8-2.7,0.5-3.5-0.7
			c0,0-0.4-0.4-0.9-1.1c-0.6-0.7-1.4-1.7-2.3-3.2c-0.9-1.4-2-3.2-3-5.4c-0.9-2.2-1.9-4.9-2.3-8.1c-0.2-1.6-0.3-3.4-0.1-5.2
			c0.1-0.9,0.3-1.9,0.5-2.8c0.3-1,0.5-1.9,1-2.9c0.8-1.9,1.9-3.8,3.3-5.4c0.7-0.9,1.5-1.6,2.3-2.3c0.4-0.3,0.8-0.7,1.2-1
			c0.4-0.3,0.8-0.7,1.3-1c0.5-0.3,1-0.6,1.4-0.9c0.5-0.3,0.8-0.4,1.2-0.6l0.6-0.3l0.3-0.2l0.3-0.1l0,0l-0.1,0
			c-0.3,0.2-0.3,0.2-0.4,0.3c0,0,0,0,0,0c0,0,0-0.1,0.1-0.1c0.1,0,0.6,0,1.3,0c0.6,0,1.2-0.1,1.5-0.4c0.2-0.3,0.4-0.6,0.5-1
			c1.3-2.8,2-6.2,2.4-9.6c0.3-3.4,0.2-6.9-0.4-10.3c-0.6-3.3-1.5-6.6-3.1-9.2c-0.2-0.3-0.4-0.6-0.6-0.9l-0.1-0.2l-0.2-0.2l-0.4-0.5
			l-0.4-0.5c-0.2-0.2-0.3-0.4-0.5-0.6c-0.3-0.4-0.6-0.8-0.8-1.3c-0.5-0.9-0.8-1.8-1-2.8c-0.1-0.9-0.2-1.9-0.2-2.8
			c0.1-1.8,0.5-3.5,1-5c0.5-1.5,1.1-2.9,1.7-4.2c1.3-2.6,2.7-4.8,4-6.8c1.3-2,2.6-3.5,3.6-4.9c1-1.4,1.5-2.8,2-4
			c0.1-0.3,0.2-0.6,0.3-0.8c0-0.2,0.1-0.4,0.1-0.6c0-0.3,0-0.5,0-0.5c0.4-6,5.7-10.5,11.7-10.1c6,0.4,10.5,5.7,10.1,11.7
			c-0.4,6-5.7,10.5-11.7,10.1C1744.3,81.5,1743.7,81.4,1743.2,81.2z"/>
	</g>
	<g>
		<path class="st3" d="M262.7,165.2c0,0,0.2-0.1,0.5-0.2c0.3-0.1,0.7-0.3,1.3-0.5c1-0.5,2.4-1.4,3.5-2.7c0.6-0.6,1.1-1.4,1.6-2.3
			c0.5-0.9,0.9-1.9,1.3-2.9c0.9-2.1,2-4.5,3.1-7.1c1.1-2.6,2.3-5.5,3.5-8.5c1.2-3,2.4-6.2,3.7-9.5c1.2-3.3,2.5-6.8,3.6-10.3
			c1.2-3.5,2.3-7.1,3.4-10.7c1-3.6,2.1-7.2,2.9-10.8c0.9-3.6,1.7-7.1,2.3-10.6c0.3-1.7,0.6-3.4,0.9-5.1c0.3-1.7,0.5-3.3,0.7-4.9
			c0.4-3.2,0.6-6.2,0.6-8.9c0.1-2.8,0-5.3-0.3-7.4c-0.1-1.1-0.3-2.1-0.4-3c-0.1-0.5-0.1-0.9-0.2-1.3c-0.1-0.4-0.2-0.8-0.3-1.1
			c-0.2-0.7-0.3-1.4-0.5-1.9c-0.2-0.5-0.4-1-0.5-1.3c-0.3-0.7-0.4-1.1-0.4-1.1l-0.2-0.4c-0.7-1.9,0.2-4,2.1-4.7s4,0.2,4.7,2.1
			c0,0.1,0.1,0.1,0.1,0.2c0,0,0.2,0.5,0.5,1.5c0.2,0.5,0.3,1.1,0.6,1.8c0.2,0.7,0.3,1.5,0.5,2.4c0.1,0.4,0.2,0.9,0.3,1.4
			c0.1,0.5,0.1,1,0.2,1.5c0.1,1.1,0.3,2.2,0.4,3.5c0.2,2.5,0.2,5.2,0.1,8.2c-0.1,3-0.3,6.1-0.7,9.5c-0.2,1.7-0.4,3.4-0.6,5.1
			c-0.2,1.7-0.5,3.5-0.8,5.3c-0.3,1.8-0.6,3.6-0.9,5.4c-0.3,1.8-0.7,3.7-1.1,5.6c-0.8,3.7-1.6,7.5-2.5,11.2
			c-0.9,3.7-1.8,7.5-2.8,11.2c-1,3.7-1.9,7.3-2.9,10.7c-1,3.5-1.9,6.8-2.9,10c-0.9,3.2-1.8,6.2-2.7,8.9c-0.8,2.8-1.6,5.3-2.3,7.5
			c-0.3,1.1-0.7,2.2-1,3.1c-0.2,1-0.4,2-0.4,2.9c0,1.8,0.3,3.4,0.7,4.5c0.2,0.6,0.3,1,0.5,1.4c0.1,0.3,0.2,0.5,0.2,0.5
			c5.3,8.4,2.7,19.5-5.7,24.8c-8.4,5.3-19.5,2.7-24.8-5.7c-5.3-8.4-2.7-19.5,5.7-24.8c1.4-0.9,3-1.6,4.5-2L262.7,165.2z"/>
	</g>
	<g>
		<path class="st3" d="M242,103.6c0,0,0.1,1,0.3,2.6c0.2,1.7,0.4,4,0.9,6.8c0.5,2.8,1.3,5.9,2.5,9c0.7,1.6,1.4,3.1,2.4,4.6
			c0.9,1.5,2,2.9,3.2,4.1c1.2,1.3,2.6,2.4,4,3.3c1.4,1,2.9,1.7,4.4,2.4c0.8,0.3,1.5,0.6,2.3,0.9c0.8,0.2,1.5,0.5,2.2,0.7
			c0.7,0.2,1.5,0.4,2.2,0.5c0.7,0.1,1.4,0.3,2.1,0.4c1.3,0.2,2.6,0.4,3.7,0.5c1.1,0.1,2.1,0.2,2.9,0.2c1.6,0.1,2.5,0.1,2.5,0.1
			l0.1,0c1.9,0.1,3.4,1.7,3.4,3.6c-0.1,1.9-1.7,3.4-3.6,3.4c-0.1,0-0.2,0-0.2,0c0,0-1-0.1-2.8-0.3c-0.9-0.1-1.9-0.3-3.2-0.4
			c-1.2-0.2-2.6-0.5-4.1-0.8c-0.7-0.2-1.5-0.4-2.3-0.6c-0.8-0.3-1.6-0.5-2.5-0.8c-0.8-0.3-1.7-0.7-2.6-1c-0.9-0.4-1.7-0.8-2.6-1.2
			c-1.7-0.9-3.5-2-5.1-3.3c-1.6-1.3-3.2-2.7-4.5-4.3c-1.4-1.6-2.6-3.3-3.5-5.1c-1-1.8-1.8-3.6-2.4-5.4c-1.2-3.6-1.8-7.1-2.1-10
			c-0.3-3-0.4-5.4-0.5-7.1c-0.1-1.7-0.1-2.6-0.1-2.6c0-0.8,0.6-1.6,1.5-1.6C241.3,102.2,241.9,102.8,242,103.6z"/>
	</g>
	<g>
		<path class="st3" d="M288.4,123.4c0,0,0.2,0.1,0.5,0.1c0.3,0.1,0.9,0.2,1.5,0.4c1.3,0.3,3.2,0.8,5.5,1.2c1.2,0.2,2.4,0.4,3.8,0.5
			c1.3,0.2,2.7,0.3,4.2,0.4c1.5,0.1,2.9,0.1,4.5,0.1c1.5-0.1,3-0.2,4.5-0.4c1.5-0.2,2.9-0.6,4.3-1c0.7-0.3,1.3-0.5,2-0.8
			c0.6-0.3,1.2-0.6,1.8-1c0.6-0.3,1-0.8,1.5-1.1c0.4-0.5,0.9-0.8,1.3-1.3c0.4-0.5,0.8-0.9,1-1.4c0.3-0.5,0.6-0.9,0.8-1.4
			c0.5-1,0.7-1.9,1-2.8c0.2-0.9,0.3-1.7,0.4-2.3c0.1-1.3,0.1-2.1,0.1-2.1l0-0.2c0.1-1,0.9-1.7,1.8-1.6c0.9,0.1,1.6,0.8,1.6,1.7
			c0,0,0,0.9,0,2.4c0,0.8-0.1,1.7-0.3,2.8c-0.2,1.1-0.4,2.3-1,3.6c-0.2,0.7-0.6,1.3-0.9,2c-0.3,0.7-0.8,1.3-1.2,2
			c-0.4,0.7-1.1,1.2-1.6,1.9c-0.6,0.6-1.2,1.2-2,1.7c-0.7,0.5-1.4,1-2.2,1.4c-0.8,0.5-1.6,0.8-2.4,1.2c-1.6,0.7-3.3,1.2-5.1,1.6
			c-1.7,0.4-3.4,0.6-5.1,0.8c-1.7,0.2-3.4,0.3-5,0.3c-1.6,0-3.1,0-4.6-0.1c-1.5-0.1-2.8-0.2-4.1-0.3c-2.5-0.3-4.6-0.6-6.1-0.9
			c-0.7-0.1-1.3-0.3-1.7-0.3c-0.4-0.1-0.6-0.1-0.6-0.1c-1.9-0.4-3.1-2.3-2.7-4.2c0.4-1.9,2.3-3.1,4.2-2.7
			C288.2,123.4,288.3,123.4,288.4,123.4L288.4,123.4z"/>
	</g>
	<g>
		<path class="st3" d="M298.4,93c0,0-0.2,0.1-0.5,0.2c-0.3,0.1-0.8,0.3-1.3,0.6c-1.1,0.4-2.8,1-4.8,1.4c-2.1,0.4-4.6,0.7-7.4,0.4
			c-1.4-0.2-2.9-0.6-4.3-1.2c-1.4-0.6-2.7-1.6-3.8-2.6c-0.5-0.6-1.1-1.1-1.5-1.7l-0.7-0.9l-0.5-0.9c-0.7-1.2-1.2-2.5-1.6-3.8
			c-0.2-0.6-0.3-1.2-0.5-1.8c-0.2-0.6-0.3-1.2-0.4-1.7c-0.2-1.1-0.3-2.2-0.4-3.2c-0.1-1-0.1-1.9-0.2-2.7c0-0.8,0-1.5,0-2
			c0-1.1,0-1.8,0-1.8c0-1.1,0.9-2,2-1.9c1,0,1.9,0.8,1.9,1.8l0,0.1c0,0,0,0.6,0.1,1.6c0,0.5,0.1,1.2,0.2,1.9
			c0.1,0.7,0.1,1.5,0.3,2.4c0.1,0.9,0.3,1.8,0.6,2.7c0.1,0.5,0.2,1,0.4,1.4c0.2,0.5,0.3,1,0.5,1.4c0.4,1,0.9,1.9,1.4,2.7l0.4,0.6
			l0.5,0.6c0.3,0.4,0.7,0.7,1,1c0.7,0.6,1.5,1,2.4,1.3c0.9,0.3,1.8,0.5,2.7,0.5c1.8,0.1,3.7-0.2,5.2-0.7c1.5-0.5,2.8-1,3.7-1.4
			c0.4-0.2,0.8-0.4,1-0.5c0.2-0.1,0.3-0.2,0.3-0.2l0.1,0c1.7-1,3.8-0.4,4.8,1.3c1,1.7,0.4,3.8-1.3,4.8C298.6,92.9,298.5,93,298.4,93
			z"/>
	</g>
	<path class="st4" d="M254.9,87.2c0,8-6.5,14.4-14.4,14.4c-8,0-14.4-6.5-14.4-14.4"/>
	<path class="st4" d="M282.2,58.9c0,5.9-4.8,10.7-10.7,10.7s-10.7-4.8-10.7-10.7"/>
	<path class="st4" d="M307.3,23c3.2,9.8-2.1,20.4-11.9,23.7s-20.4-2.1-23.7-11.9"/>
	<path class="st4" d="M342.7,99.6c-1.6,6.7-8.3,10.9-15.1,9.3c-6.7-1.6-10.9-8.3-9.3-15.1"/>
	<g>
		<path class="st5" d="M1547.4,168.5c0,0,0.1-0.2,0.3-0.6c0.2-0.4,0.5-0.9,0.8-1.6c0.6-1.3,1.2-3.1,1.3-5.1c0.1-1,0-2.1-0.3-3.2
			c-0.3-1.1-0.7-2.2-1-3.4c-0.8-2.4-1.6-5.2-2.5-8.2c-0.9-3-1.8-6.3-2.8-9.8c-1-3.5-2-7.1-3-10.9c-1-3.8-2-7.7-3-11.7
			c-0.5-2-1-4-1.5-6c-0.5-2-1-4.1-1.4-6.1c-0.9-4.1-1.8-8.2-2.6-12.3c-0.4-2-0.8-4-1.1-6.1c-0.4-2-0.7-4-1-5.9
			c-0.3-2-0.6-3.9-0.9-5.8c-0.3-1.9-0.5-3.8-0.7-5.6c-0.4-3.6-0.6-7.1-0.7-10.4c-0.1-3.2-0.1-6.2,0.1-9c0-1.3,0.2-2.6,0.4-3.8
			c0.1-0.6,0.1-1.2,0.2-1.7c0.1-0.5,0.2-1.1,0.3-1.6c0.2-1,0.4-1.9,0.6-2.7c0.2-0.8,0.5-1.4,0.6-2c0.3-1.1,0.5-1.7,0.5-1.7
			c0.8-2.5,3.5-4,6-3.2c2.5,0.8,4,3.5,3.2,6c0,0.1-0.1,0.2-0.1,0.3l-0.2,0.5c0,0-0.2,0.4-0.5,1.2c-0.2,0.4-0.3,0.8-0.6,1.4
			c-0.2,0.6-0.3,1.3-0.6,2c-0.1,0.4-0.2,0.8-0.3,1.2c-0.1,0.4-0.2,0.9-0.2,1.4c-0.1,1-0.4,2-0.4,3.2c-0.2,2.3-0.4,5-0.3,8
			c0.1,3,0.3,6.2,0.7,9.6c0.2,1.7,0.4,3.5,0.7,5.3c0.1,0.9,0.3,1.8,0.4,2.7c0.2,0.9,0.3,1.8,0.5,2.8c0.7,3.7,1.6,7.6,2.5,11.5
			c1,3.9,2.1,7.8,3.2,11.7c1.2,3.9,2.5,7.8,3.7,11.6c1.3,3.8,2.7,7.5,4,11.1c1.3,3.6,2.7,7,4.1,10.3c1.3,3.3,2.6,6.3,3.9,9.1
			c1.2,2.8,2.4,5.4,3.4,7.6c0.5,1.1,1,2.2,1.5,3.2c0.5,0.9,1.2,1.7,1.9,2.4c1.4,1.4,3.1,2.2,4.4,2.7c0.7,0.2,1.2,0.4,1.6,0.4
			c0.4,0.1,0.6,0.1,0.6,0.1c13.1,3,21.2,16,18.3,29c-3,13.1-16,21.2-29,18.3c-13.1-3-21.2-16-18.3-29c0.6-2.6,1.6-5,2.9-7.1
			L1547.4,168.5z"/>
	</g>
	<g>
		<path class="st5" d="M1597,92.2c0,0,0,1-0.1,2.9c-0.1,1.8-0.1,4.5-0.5,7.7c-0.3,3.2-1,7-2.3,11c-0.7,2-1.5,4-2.6,6
			c-1,2-2.4,3.9-3.9,5.7c-1.5,1.8-3.2,3.4-5,4.8c-1.8,1.4-3.7,2.6-5.6,3.6c-1,0.5-1.9,0.9-2.9,1.4c-1,0.4-1.9,0.8-2.8,1.1
			c-0.9,0.3-1.8,0.6-2.7,0.9c-0.9,0.2-1.7,0.5-2.5,0.7c-0.8,0.2-1.6,0.3-2.4,0.5c-0.7,0.2-1.5,0.3-2.1,0.4c-1.3,0.2-2.5,0.4-3.5,0.5
			c-1.9,0.2-3,0.3-3,0.3c-2.5,0.3-4.7-1.5-4.9-4c-0.3-2.5,1.5-4.7,4-4.9c0.1,0,0.2,0,0.3,0l0.2,0c0,0,1,0,2.7-0.1
			c0.9,0,1.9-0.1,3.1-0.2c0.6,0,1.2-0.1,1.9-0.2c0.7-0.1,1.4-0.1,2.1-0.3c0.7-0.1,1.4-0.3,2.2-0.4c0.7-0.2,1.5-0.4,2.3-0.6
			c0.8-0.2,1.6-0.5,2.4-0.7c0.8-0.3,1.6-0.6,2.4-0.9c1.6-0.7,3.2-1.5,4.7-2.6c1.5-1,3-2.2,4.3-3.5c1.3-1.3,2.5-2.8,3.5-4.4
			c1-1.6,1.9-3.2,2.6-4.9c1.4-3.4,2.3-6.8,2.8-9.7c0.5-3,0.8-5.5,1-7.3c0.2-1.8,0.3-2.9,0.3-2.9c0.1-1.1,1.1-1.9,2.2-1.8
			C1596.3,90.3,1597.1,91.2,1597,92.2z"/>
	</g>
	<g>
		<path class="st5" d="M1545.1,121.5c0,0-0.2,0.1-0.7,0.1c-0.4,0.1-1.1,0.2-1.9,0.4c-1.6,0.3-3.9,0.6-6.7,0.9
			c-1.4,0.1-2.9,0.3-4.5,0.3c-1.6,0.1-3.3,0.1-5,0.1c-1.8,0-3.6-0.1-5.4-0.3c-1.9-0.2-3.7-0.5-5.6-0.9c-1.9-0.4-3.8-1-5.6-1.8
			c-0.9-0.4-1.8-0.8-2.6-1.3c-0.9-0.5-1.7-1-2.4-1.6c-0.8-0.6-1.5-1.2-2.2-1.9c-0.6-0.7-1.3-1.4-1.8-2.1c-0.5-0.7-1-1.4-1.4-2.2
			c-0.4-0.7-0.8-1.5-1-2.2c-0.6-1.4-0.8-2.8-1.1-4c-0.1-1.2-0.2-2.2-0.3-3.1c0-1.7,0-2.6,0-2.6c0-1.2,1-2.2,2.3-2.2
			c1.2,0,2.1,0.9,2.2,2.1l0,0.2c0,0,0.1,0.8,0.2,2.2c0.1,0.7,0.3,1.5,0.4,2.5c0.3,0.9,0.5,1.9,1,2.9c0.2,0.5,0.5,1,0.8,1.5
			c0.3,0.5,0.7,1,1.1,1.5c0.4,0.5,0.9,0.9,1.3,1.4c0.5,0.4,1,0.8,1.6,1.2c0.6,0.4,1.2,0.7,1.9,1c0.6,0.3,1.4,0.6,2.1,0.8
			c1.5,0.5,3,0.8,4.6,1.1c1.6,0.3,3.2,0.3,4.8,0.4c1.6,0,3.2,0,4.8-0.1c1.6-0.1,3.1-0.2,4.5-0.4c1.4-0.2,2.8-0.4,4-0.6
			c2.5-0.5,4.6-0.9,6-1.3c0.7-0.2,1.2-0.3,1.6-0.4c0.3-0.1,0.5-0.2,0.5-0.2l0,0c2.4-0.7,4.9,0.7,5.6,3c0.7,2.4-0.7,4.9-3,5.6
			C1545.4,121.5,1545.3,121.5,1545.1,121.5z"/>
	</g>
	<g>
		<path class="st5" d="M1531.6,64.4c0,0-0.2,0.1-0.6,0.3c-0.4,0.2-0.9,0.4-1.5,0.6c-1.3,0.5-3.1,1.1-5.4,1.6
			c-2.3,0.5-5.1,0.8-8.2,0.3c-1.6-0.2-3.2-0.7-4.8-1.4c-1.6-0.7-3-1.8-4.3-3c-0.6-0.6-1.2-1.2-1.7-1.9l-0.7-1l-0.6-1
			c-0.8-1.4-1.3-2.8-1.8-4.2c-0.3-0.7-0.4-1.4-0.5-2c-0.2-0.7-0.3-1.3-0.4-1.9c-0.2-1.2-0.3-2.4-0.4-3.5c-0.1-1.1-0.1-2-0.1-2.9
			c0-0.9,0-1.6,0-2.2c0-1.2,0-1.9,0-1.9c0-1.4,1.2-2.5,2.6-2.5c1.3,0,2.4,1.1,2.5,2.3l0,0.1c0,0,0,0.6,0.1,1.8c0,0.6,0.1,1.2,0.2,2
			c0.1,0.8,0.2,1.7,0.4,2.6c0.1,0.5,0.2,0.9,0.3,1.4c0.1,0.5,0.2,1,0.4,1.5c0.1,0.5,0.3,1,0.5,1.5c0.2,0.5,0.3,1,0.6,1.5
			c0.4,1,0.9,2,1.5,2.8l0.5,0.6l0.5,0.6c0.3,0.4,0.7,0.7,1.1,1c0.8,0.6,1.6,1,2.4,1.3c0.9,0.3,1.8,0.4,2.7,0.5c0.9,0,1.9,0,2.8-0.2
			c0.9-0.2,1.8-0.4,2.6-0.6c1.6-0.5,3-1.1,3.9-1.5c0.4-0.2,0.8-0.4,1-0.5c0.2-0.1,0.3-0.2,0.3-0.2l0,0c2.1-1.3,4.9-0.6,6.2,1.6
			s0.6,4.9-1.6,6.2C1531.9,64.3,1531.7,64.4,1531.6,64.4z"/>
	</g>
	<path class="st6" d="M1579.4,74.2c0,8.7,7,15.7,15.7,15.7c8.7,0,15.7-7,15.7-15.7"/>
	<g>
		<path class="st5" d="M1570.4,52.3c0,0-0.2,0.6-0.5,1.8c-0.3,1.1-0.7,2.8-1.4,4.8c-0.3,1-0.8,2.1-1.2,3.2c-0.6,1.1-1.1,2.3-1.9,3.5
			c-0.4,0.6-0.7,1.2-1.2,1.8c-0.5,0.6-0.9,1.2-1.4,1.7c-0.5,0.5-1.1,1.1-1.6,1.6c-0.6,0.5-1.2,1-1.8,1.5c-0.6,0.5-1.3,0.9-1.9,1.3
			l-1,0.6c-0.3,0.2-0.7,0.4-1,0.5c-0.7,0.3-1.4,0.6-2.1,0.9l-0.5,0.2l-0.5,0.1c-0.4,0.1-0.7,0.2-1.1,0.3c-0.7,0.2-1.4,0.4-2.1,0.5
			c-0.7,0.1-1.3,0.2-2,0.2c-0.6,0.1-1.3,0.1-1.9,0.2c-0.6,0-1.2,0-1.7,0c-1.1,0-2.2,0-3,0c-0.9-0.1-1.7-0.2-2.3-0.2
			c-1.3-0.1-2-0.2-2-0.2c-2.5-0.3-4.3-2.5-4-5c0.3-2.5,2.5-4.3,5-4c0.2,0,0.3,0,0.5,0.1l0.4,0.1c0,0,0.6,0.1,1.6,0.4
			c0.5,0.1,1.1,0.3,1.9,0.4c0.7,0.2,1.5,0.2,2.4,0.3c0.4,0.1,0.9,0.1,1.4,0.2c0.5,0,0.9,0,1.4,0c0.5,0,1,0,1.5,0
			c0.5,0,1-0.1,1.5-0.2c0.3,0,0.5-0.1,0.8-0.1l0.4,0l0.4-0.1c0.5-0.1,1-0.3,1.6-0.4c0.3-0.1,0.5-0.2,0.8-0.3l0.7-0.3
			c0.5-0.2,1-0.4,1.5-0.7c0.5-0.3,1-0.6,1.4-0.9c0.4-0.4,0.9-0.7,1.3-1.1c0.4-0.4,0.8-0.8,1.2-1.2c0.4-0.4,0.7-0.8,1.1-1.3
			c0.7-0.8,1.3-1.8,1.9-2.7c0.5-0.9,1-1.8,1.4-2.7c0.8-1.7,1.4-3.2,1.8-4.3c0.4-1.1,0.7-1.7,0.7-1.7c0.4-1,1.5-1.5,2.6-1.1
			C1570.1,50.3,1570.6,51.3,1570.4,52.3z"/>
	</g>
	<path class="st6" d="M1561.6,38.2c-1.3,5.4,1.9,10.8,7.3,12.1c5.4,1.3,10.8-1.9,12.1-7.3"/>
	<path class="st6" d="M1513.7,26.8c0,6.4-5.2,11.6-11.6,11.6c-6.4,0-11.6-5.2-11.6-11.6"/>
	<g>
		<path class="st5" d="M1579.2,128.7c0,0-0.2-0.1-0.6-0.2c-0.3-0.1-0.5-0.1-0.7-0.2c-0.3-0.1-0.5-0.2-0.8-0.3
			c-0.6-0.2-1.2-0.6-1.9-1c-0.7-0.4-1.4-0.9-2.1-1.5c-0.8-0.6-1.4-1.3-2.2-2c-0.7-0.8-1.4-1.5-2-2.4c-0.3-0.4-0.6-0.9-1-1.3
			c-0.3-0.5-0.6-0.9-0.9-1.4c-0.6-0.9-1.1-1.9-1.6-2.9c-0.5-1-0.9-2-1.3-3c-0.4-1-0.8-2-1.1-2.9c-0.3-0.9-0.7-1.9-0.9-2.7
			c-0.2-0.9-0.5-1.7-0.7-2.5c-0.2-0.8-0.3-1.5-0.5-2.1c-0.1-0.6-0.2-1.2-0.3-1.6c-0.2-0.9-0.3-1.4-0.3-1.4c-0.2-1,0.4-2,1.4-2.2
			c0.9-0.2,1.8,0.3,2.1,1.1l0,0.1c0,0,0.2,0.5,0.5,1.3c0.2,0.4,0.4,0.9,0.6,1.5c0.2,0.6,0.4,1.2,0.8,1.9c0.3,0.7,0.6,1.4,1,2.2
			c0.3,0.8,0.8,1.5,1.2,2.3c0.4,0.8,0.9,1.6,1.4,2.4c0.5,0.8,1,1.6,1.6,2.4c0.6,0.8,1.1,1.5,1.7,2.2c0.3,0.3,0.6,0.7,0.9,1
			c0.3,0.3,0.6,0.6,0.9,0.9c0.6,0.6,1.2,1,1.8,1.5c0.6,0.4,1.1,0.8,1.6,1.1c0.5,0.3,1,0.5,1.4,0.7c0.4,0.1,0.7,0.3,1,0.3
			c0.1,0,0.2,0,0.3,0.1c0.1,0,0.2,0,0.1,0c0,0-0.1,0,0,0c0.1,0,0.1,0,0.1,0l0.1,0c2.5,0.2,4.3,2.4,4.2,4.8c-0.2,2.5-2.4,4.3-4.8,4.2
			C1579.7,128.8,1579.4,128.7,1579.2,128.7z"/>
	</g>
	<path class="st6" d="M1566.8,93.2c0.8,3.5-1.4,7-4.9,7.9c-3.5,0.8-7-1.4-7.9-4.9"/>
	<path class="st6" d="M1522.6,4.5c-3.5,10.7,2.3,22.2,12.9,25.7s22.2-2.3,25.7-12.9"/>
	<path class="st6" d="M1484.1,87.6c1.7,7.3,9.1,11.9,16.4,10.1s11.9-9.1,10.1-16.4"/>
	<g>
		<path class="st7" d="M709,168.9c0,0-0.1-0.4-0.3-1c-0.2-0.7-0.7-1.6-1.4-2.8c-0.7-1.1-1.7-2.5-3-3.9c-0.6-0.7-1.5-1.4-2.4-2
			c-1-0.7-2.1-1.2-3.2-1.9c-2.3-1.3-4-2.9-4.8-5.3c-0.4-1.2-0.6-2.6-0.8-4c-0.2-1.4-0.7-2.7-1.4-3.9c-0.7-1.2-2.1-1.8-3.8-2.3
			c-0.8-0.3-1.6-0.5-2.2-0.8c-0.6-0.4-1-0.9-1.4-1.5c-1.7-2.1-2.5-5.1-3.9-7.9l-0.3-0.5l-0.1-0.1l0-0.1c0,0-0.2-0.2-0.1-0.1l0,0
			l-0.2-0.3c-0.2-0.3-0.4-0.7-0.6-1c-0.4-0.7-0.9-1.3-1.4-1.9c-0.5-0.5-1-1.2-1.7-1.7c-0.6-0.5-1.3-1-2.1-1.4
			c-1.6-0.8-3.4-1.3-5-2.1c-1.6-0.8-2.7-2-3.4-3.4c-0.3-0.7-0.2-1.7,0-2.8c0.2-1.1,0.6-2.1,0.8-3.1c0.2-0.9,0.2-1.8-0.1-2.4
			c-0.3-0.6-0.6-1.2-1-1.8c-0.7-1.2-1.5-2.2-2.4-3.2c-0.8-1-1.8-1.9-2.7-2.8c-0.8-0.9-1.7-1.8-2.4-2.7c-0.7-0.9-1.3-1.8-1.8-2.7
			c-0.5-0.9-0.8-1.7-1.1-2.6c-0.3-0.8-0.4-1.6-0.4-2.4c0.1-1.5,0.9-2.9,1.7-3.9c0.2-0.2,0.4-0.5,0.6-0.7c0.2-0.2,0.3-0.3,0.5-0.5
			c0.3-0.3,0.5-0.4,0.5-0.4c0.4-0.4,1-0.5,1.5-0.4l0.2,0c0,0,0.2,0,0.6,0.1c0.2,0,0.4,0.1,0.7,0.2c0.3,0.1,0.5,0.2,0.8,0.3
			c0.6,0.2,1.2,0.5,1.8,0.8c0.6,0.3,1.1,0.8,1.6,1.3c0.5,0.5,0.7,1.1,0.9,1.9c0.2,0.7,0.5,1.5,0.6,2.4c0.4,1.7,0.4,3.8,0.5,6.2
			c0.1,1.2,0.1,2.4,0.4,3.6c0.2,1.2,0.6,2.4,1.2,3.6c0.3,0.6,0.6,1.1,1,1.7c0.4,0.5,1.1,0.9,2,1.1c0.9,0.2,2,0.3,3,0.4
			c1,0.1,1.8,0.4,2.3,0.8c1,0.8,1.5,2.1,1.8,3.6c0.2,0.7,0.2,1.5,0.4,2.3c0.1,0.8,0.2,1.7,0.5,2.3c0.2,0.7,0.6,1.3,1,1.9
			c0.4,0.5,0.9,1,1.6,1.5c0.6,0.4,1.3,0.8,2,1.2c0.3,0.2,0.7,0.3,1.1,0.5l0.3,0.1l0,0c0.1,0.1-0.1-0.1-0.1-0.1l0.1,0l0.1,0.1
			l0.6,0.2l2.5,0.9c0.8,0.3,1.7,0.6,2.5,1c1.5,0.8,3.1,1.6,4.3,2.8c0.6,0.6,1.2,1.1,1.5,1.9c0.4,0.7,0.6,1.6,0.7,2.6
			c0.1,0.9,0.2,1.8,0.5,2.6c0.2,0.8,0.6,1.4,1.1,2c1.8,2.4,5,3.7,7,5.8c2,2.1,2.7,4.8,2.6,7.6c0,0.7-0.1,1.4-0.1,2
			c0,0.7-0.1,1.3-0.1,1.9c-0.1,1.2,0,2.3,0.1,3.3c0.2,2,0.5,3.6,0.8,5c0.6,2.7,1.2,4.1,1.2,4.1l0,0c0.2,0.4,0,0.9-0.4,1.1
			c-0.4,0.2-0.9,0-1.1-0.4C709.1,169,709,169,709,168.9z"/>
	</g>
	<g>
		<path class="st8" d="M710.8,168.2c0,0,0.5-1.2,1.4-3.2c0.4-1,1-2.3,1.6-3.8c0.3-0.7,0.7-1.5,1-2.3c0.4-0.8,0.8-1.7,1.1-2.7
			c0.3-1,0.5-2.3,0.9-3.4c0.4-1.1,1-2.1,2-2.8c0.5-0.4,1-0.6,1.7-0.8c0.7-0.2,1.4-0.2,2.1-0.3c1.5,0,3-0.1,4-0.7c1-0.6,2-1.4,3-2.3
			c1-0.9,1.9-2,2.9-2.9c1-1,2.2-1.9,3.5-2.7c0.6-0.3,1.3-0.8,2-0.9c0.4-0.1,0.7-0.1,1.1,0l0,0c-0.1,0,0.2,0-0.2,0.1l0.1,0l0.1,0
			l0.2,0c0.2,0,0.1,0.1,0.1,0.1c0.1,0.5,0.9,1.4,1.7,1.3c0.4,0,0.8-0.3,0.9-0.7c0.2-0.4,0.2-0.9,0.2-1.3c-0.1-1-0.5-2.1-1.1-3.1
			c-0.6-1.1-1.4-2.1-2-3.3c-1.3-2.2-1.9-4.7-1.3-7.3c0.6-2.6,2.8-5,4.7-6.7c1.9-1.8,3.3-3.3,4.8-4.3c1.5-1,2.8-1.7,3.9-2.3
			c1.1-0.5,1.9-0.9,2.5-1.2c0.6-0.3,0.9-0.5,0.9-0.5l0,0c1-0.7,2.4-0.3,3,0.7c0.7,1,0.3,2.4-0.7,3c-0.4,0.2-0.8,0.3-1.1,0.3
			c0,0-0.3,0-0.8,0.1c-0.5,0.1-1.2,0.3-2.1,0.8c-0.8,0.5-1.7,1.2-2.3,2.3c-0.6,1-1.1,2.4-0.5,4c0.5,1.6,2,3.2,2.4,4.8
			c0.3,1.6-0.1,3.5-1.2,5.9c-0.6,1.2-1.2,2.4-1.8,3.7c-0.6,1.3-1.1,2.6-1.5,4c-0.2,0.7-0.4,1.4-0.6,2.2c-0.2,0.8-0.3,1.6-0.5,2.6
			c-0.2,1-0.6,2.1-1.3,3.1c-0.3,0.5-0.7,1-1.2,1.4c-0.2,0.2-0.4,0.4-0.7,0.6l-0.4,0.3c-0.1,0.1-0.3,0.2-0.4,0.3
			c-0.3,0.2-0.7,0.4-0.7,0.4l-0.2,0.1l-0.1,0.1l-0.1,0c-0.4,0.1-0.1,0-0.2,0.1l0,0c-0.2,0.2-0.4,0.4-0.7,0.4
			c-0.2,0.1-0.5,0.1-0.8,0.1l-0.8,0c-0.5,0-1.1,0-1.6,0c-0.6,0-1.1-0.1-1.7-0.1c-1.2,0-2.4,0-3.4,0.2c-1.1,0.2-2.1,0.7-2.9,1.4
			c-0.4,0.3-0.7,0.8-1,1.4c-0.2,0.6-0.3,1.2-0.5,1.9c-0.2,1.3-0.4,2.5-1.1,3.2c-0.6,0.7-1.4,1.1-2.4,1.4c-1,0.3-2.1,0.5-3,0.8
			c-0.9,0.3-1.6,0.8-2.3,1.3c-0.7,0.5-1.3,1-1.8,1.4c-1.1,0.9-2,1.8-2.7,2.6c-0.7,0.8-1.2,1.4-1.5,1.9c-0.2,0.2-0.3,0.4-0.3,0.5
			c-0.1,0.1-0.1,0.2-0.1,0.2l0,0c-0.4,0.6-1.2,0.8-1.8,0.4C710.8,169.4,710.6,168.7,710.8,168.2z"/>
	</g>
	<g>
		<path class="st9" d="M708.1,164.9c0,0-0.4-0.2-1-0.4c-0.1-0.1-0.3-0.1-0.5-0.2c-0.2-0.1-0.3-0.2-0.5-0.3c-0.4-0.2-0.7-0.4-1.1-0.6
			c-0.7-0.5-1.4-1-1.7-1.6c-0.4-0.6-0.3-1.2-0.3-2c0-0.7,0.2-1.5,0.6-2.4c0.4-0.9,1-1.8,1.5-2.8c1.1-2,1.6-4.3,0.4-6.8
			c-0.5-1.3-1.4-2.5-2-3.9c-0.6-1.3-0.7-2.7-0.6-4.1c0.1-1.4,0.5-2.9,1.1-4.4c0.5-1.5,1.2-3.1,1.4-4.7c0.3-1.6,0.2-3.2-0.2-4.7
			c-0.4-1.5-1-3-1.8-4.4c-1.7-2.7-4.2-5.1-5.6-6.5c-0.1-0.1-0.2-0.2-0.3-0.3l-0.3-0.2c-0.1-0.1-0.2-0.1-0.2-0.2l-0.5-0.6
			c-0.5-0.7-0.9-1.4-1.2-2.3c-0.3-0.9-0.4-1.9-0.6-2.8c-0.2-1.1-0.4-2.1-0.7-3c-0.3-0.9-0.8-1.7-1.4-2.4c-0.5-0.7-1-1.4-1.6-2.1
			c-0.6-0.7-1.2-1.3-1.9-1.9c-0.6-0.6-1.3-1.3-2-2c-0.7-0.6-1.3-1.3-2-2c-0.6-0.7-1.2-1.4-1.7-2.1c-0.5-0.7-1-1.5-1.4-2.3
			c-0.3-0.8-0.6-1.6-0.9-2.4c-0.5-1.6-0.6-3.2-0.6-4.8c0-1.6,0.5-3.2,0.9-4.6c1-2.9,2.1-5.4,2.7-7.6c0.3-1.1,0.6-2.1,0.9-3
			c0.2-0.9,0.5-1.7,0.6-2.5c0.2-0.7,0.4-1.4,0.5-2c0.1-0.6,0.2-1.1,0.3-1.5c0.1-0.4,0.1-0.7,0.1-0.9c0-0.2,0-0.3,0-0.3l0,0
			c0.1-0.5,0.5-0.8,0.9-0.7s0.8,0.5,0.7,0.9c0,0.1,0,0.2-0.1,0.2c0,0,0,0.1-0.1,0.3c-0.1,0.2-0.1,0.5-0.2,0.9
			c-0.2,0.8-0.3,1.9-0.2,3.4c0,0.7,0.1,1.6,0.2,2.4c0.2,0.9,0.3,1.8,0.7,2.8c0.4,1,0.7,2,1.4,3.1c0.7,1.1,1.3,2.1,2.1,3.2
			c0.8,1.1,1.5,2.2,2.1,3.3c0.3,0.5,0.6,1.1,0.8,1.7c0.2,0.6,0.5,1.2,0.6,1.8c0.2,0.6,0.3,1.2,0.3,1.9c0.1,0.7,0.2,1.3,0.2,2
			c0,0.7,0,1.4-0.1,2.2c0,0.8,0,1.5,0,2.3c0,0.8,0,1.6,0.1,2.4c0.1,0.8,0.3,1.5,0.6,2.3c0.3,0.7,0.5,1.5,0.9,2.1
			c0.4,0.6,0.9,1.2,1.6,1.7c0.7,0.5,1.4,0.8,2.3,1c0.9,0.3,1.9,0.6,2.7,1c1.8,0.8,2.6,1.8,4.1,4.1c2.5,4.2,2.2,8.4,2.2,12.1
			c0,1.9,0.1,3.6,0.3,5.3c0.2,1.7,0.5,3.3,1.2,4.9c0.6,1.6,1.6,3.1,2.3,4.7c0.8,1.5,1.4,3.1,1.6,4.6c0.1,0.8,0.2,1.5,0.2,2.3
			c0,0.7-0.2,1.5-0.5,2.2c-0.5,1.4-1.4,2.8-2,4.1c-1.2,2.6-0.9,5,0.1,7.1c0.5,1.1,0.9,2.1,1.2,3c0.3,0.9,0.4,1.8,0.3,2.6
			c-0.1,0.8-0.1,1.5-0.6,2c-0.5,0.6-1.2,1-2,1.4c-0.4,0.2-0.8,0.3-1.2,0.4c-0.2,0.1-0.4,0.1-0.5,0.2c-0.2,0-0.4,0.1-0.5,0.1
			c-0.6,0.2-1.1,0.2-1.1,0.2c0,0.4-0.4,0.8-0.9,0.7S708.1,165.3,708.1,164.9z"/>
	</g>
	<g>
		<path class="st10" d="M706.5,166.3c0,0,0.2-0.4,0.7-1.1c0.3-0.3,0.6-0.7,1.1-1.1c0.5-0.4,1.2-0.7,1.9-1.2c0.3-0.2,0.6-0.5,0.9-0.9
			c0.2-0.4,0.4-0.8,0.6-1.2c0.4-0.9,0.8-1.8,1.2-2.9c0.7-2.1,1.2-4.7,2.2-7.2c0.5-1.2,1.1-2.5,1.9-3.6c0.8-1.2,2-2.1,3.4-3
			c1.4-0.9,2.8-1.9,3.5-3.2c0.2-0.3,0.3-0.6,0.4-1c0-0.2,0.1-0.3,0.1-0.5l0-0.1l0,0c0-0.1-0.1,0.1-0.1,0.1l-0.1-0.1V139
			c0-0.4,0-0.9,0-1.3c0-0.2,0-0.4-0.1-0.7c-0.1-0.2-0.1-0.4-0.2-0.6c-0.4-0.8-0.7-1.4-1.2-2.2c-0.4-0.7-0.8-1.4-1-2.2
			c-0.2-0.7-0.3-1.5-0.4-2.2c0-0.4,0-0.8,0-1.2c0-0.4,0-0.8,0-1.2c0.2-3.2,1.2-7.1,0.4-10.5c-0.4-1.7-1.1-3.4-2-4.9
			c-0.9-1.6-2.2-3-3.3-4.5c-2.4-3-4.2-6.1-4.3-9.7c-0.1-1.8,0.4-3.7,0.8-5.6c0.4-1.8,0.7-3.6,0.6-5.2c-0.2-3.2-0.8-6.3-1.1-9.2
			c-0.4-2.9-0.5-5.9-0.1-8.5c0.3-1.3,0.6-2.6,1.1-3.6c0.4-1.1,1.1-2.1,1.6-2.9c0.3-0.4,0.6-0.8,0.9-1.1c0.3-0.3,0.6-0.6,0.9-0.9
			c0.6-0.5,1.4-0.6,2.2-0.6c0.7,0.1,1.4,0.2,1.8,0.4c0.5,0.2,0.8,0.4,0.8,0.3c0.3-0.3,0.9-0.2,1.2,0.1s0.2,0.9-0.1,1.2
			c0,0,0.1,0.3,0.3,0.8c0.2,0.5,0.3,1.1,0.4,1.7c0.1,0.6,0.1,1.2,0,1.7c-0.1,0.5-0.5,0.8-0.8,1.4c-0.3,0.5-0.6,1-0.9,1.7
			c-0.4,0.6-0.6,1.3-1,2.1c-0.7,1.6-1.4,3.6-1.7,6.1c-0.3,2.5-0.1,5.3,0.9,8.1c0.3,0.7,0.6,1.4,1.1,2.1c0.4,0.7,1,1.3,1.6,2
			c0.6,0.6,1.2,1.3,1.8,2c0.6,0.7,1.1,1.3,1.5,2.1c1.7,2.9,2,6.4,1.7,10.2c-0.1,1.9-0.3,3.8-0.2,5.7c0.1,1.9,0.4,3.7,0.9,5.4
			c0.5,1.8,1.4,3.4,2.4,5.2c0.5,0.8,1,1.7,1.4,2.6c0.5,0.9,0.9,1.8,1.2,2.7c0.3,0.9,0.5,1.9,0.7,2.9c0.1,0.5,0.1,1,0.1,1.5
			c0,0.5,0,1-0.1,1.5c-0.3,2-1.5,4-2.6,5.9c-0.1,0.2-0.3,0.5-0.4,0.7c-0.1,0.2-0.3,0.4-0.4,0.6c-0.2,0.4-0.4,0.8-0.6,1.2
			c-0.2,0.5-0.4,1-0.5,1.4c-0.2,0.5-0.3,1-0.4,1.4c-0.3,0.9-0.4,1.8-0.5,2.7c-0.1,0.9-0.1,1.9-0.1,2.8c0,1.8-0.3,3.5-1,4.9
			c-0.7,1.3-1.6,2.5-2.5,3.6c-1.9,2.1-4.1,3.7-5.8,5.2c-0.9,0.8-1.6,1.5-2.3,2.2c-0.3,0.4-0.6,0.7-0.9,1.1c-0.3,0.4-0.4,0.7-0.6,1.1
			c-0.2,0.8-0.3,1.6-0.5,2.2c-0.2,0.6-0.5,1.1-0.7,1.4c-0.5,0.7-0.8,1-0.8,1c-1.8,1.4-4.5,1.1-5.9-0.7
			C706.2,169.1,706,167.6,706.5,166.3L706.5,166.3z"/>
	</g>
	<g>
		<path class="st11" d="M1402.4,183.4c0,0,0.6-1.4,1.2-4.1c0.3-1.3,0.6-3,0.8-5c0.1-1,0.2-2.1,0.1-3.3c0-0.6-0.1-1.3-0.1-1.9
			c-0.1-0.7-0.1-1.4-0.1-2c-0.2-2.8,0.6-5.5,2.6-7.6c2-2.1,5.2-3.4,7-5.8c0.5-0.6,0.9-1.2,1.1-2c0.3-0.8,0.4-1.7,0.5-2.6
			c0.1-0.9,0.3-1.8,0.7-2.6c0.4-0.8,0.9-1.4,1.5-1.9c1.2-1.1,2.7-2,4.3-2.8c0.8-0.4,1.6-0.7,2.5-1l2.5-0.9l0.6-0.2l0.1-0.1l0.1,0
			c0,0-0.2,0.2-0.1,0.1l0,0l0.3-0.1c0.4-0.2,0.7-0.3,1.1-0.5c0.7-0.3,1.4-0.7,2-1.2c0.7-0.4,1.1-0.9,1.6-1.5c0.4-0.6,0.8-1.2,1-1.9
			c0.3-0.7,0.4-1.5,0.5-2.3c0.1-0.8,0.2-1.6,0.4-2.3c0.3-1.5,0.8-2.7,1.8-3.6c0.6-0.4,1.4-0.6,2.3-0.8c1-0.1,2.1-0.2,3-0.4
			c0.9-0.2,1.6-0.6,2-1.1c0.4-0.5,0.7-1.1,1-1.7c0.5-1.2,0.9-2.4,1.2-3.6c0.2-1.2,0.3-2.5,0.4-3.6c0.1-2.4,0.1-4.5,0.5-6.2
			c0.1-0.9,0.4-1.7,0.6-2.4c0.2-0.7,0.5-1.3,0.9-1.9c0.4-0.5,1-0.9,1.6-1.3c0.6-0.3,1.2-0.6,1.8-0.8c0.3-0.1,0.5-0.2,0.8-0.3
			c0.3-0.1,0.4-0.1,0.7-0.2c0.4-0.1,0.6-0.1,0.6-0.1l0.1,0c0.5-0.1,1.1,0,1.5,0.4c0,0,0.2,0.1,0.5,0.4c0.2,0.1,0.3,0.3,0.5,0.5
			c0.2,0.2,0.4,0.4,0.6,0.7c0.8,1,1.6,2.3,1.7,3.9c0.1,0.8-0.1,1.5-0.4,2.4c-0.3,0.8-0.6,1.7-1.1,2.6c-0.5,0.9-1.1,1.8-1.8,2.7
			c-0.7,0.9-1.6,1.8-2.4,2.7c-0.9,0.9-1.8,1.8-2.7,2.8c-0.9,1-1.7,2-2.4,3.2c-0.4,0.6-0.7,1.1-1,1.8c-0.3,0.6-0.2,1.5-0.1,2.4
			c0.2,1,0.5,2,0.8,3.1c0.2,1,0.3,2,0,2.8c-0.7,1.4-1.8,2.6-3.4,3.4c-1.6,0.8-3.4,1.3-5,2.1c-0.8,0.4-1.5,0.8-2.1,1.4
			c-0.6,0.5-1.1,1.2-1.7,1.7c-0.5,0.6-1,1.2-1.4,1.9c-0.2,0.3-0.4,0.7-0.6,1l-0.2,0.3l0,0c0.1-0.1-0.2,0.2-0.1,0.1l0,0.1l-0.1,0.1
			l-0.3,0.5c-1.4,2.8-2.3,5.8-3.9,7.9c-0.4,0.6-0.8,1.1-1.4,1.5c-0.6,0.4-1.4,0.6-2.2,0.8c-1.6,0.4-3.1,1.1-3.8,2.3
			c-0.7,1.1-1.2,2.4-1.4,3.9c-0.2,1.4-0.4,2.8-0.8,4c-0.8,2.4-2.5,4-4.8,5.3c-1.1,0.7-2.3,1.2-3.2,1.9c-1,0.7-1.8,1.3-2.4,2
			c-1.3,1.4-2.3,2.7-3,3.9c-0.7,1.1-1.1,2.1-1.4,2.8c-0.2,0.6-0.3,1-0.3,1c-0.1,0.5-0.5,0.8-1,0.7c-0.5-0.1-0.8-0.5-0.7-1
			C1402.3,183.5,1402.3,183.5,1402.4,183.4L1402.4,183.4z"/>
	</g>
	<g>
		<path class="st12" d="M1399.9,184.3c0,0,0-0.1-0.1-0.2c-0.1-0.1-0.2-0.3-0.3-0.5c-0.3-0.4-0.8-1.1-1.5-1.9
			c-0.7-0.8-1.6-1.7-2.7-2.6c-0.6-0.5-1.2-1-1.8-1.4c-0.7-0.5-1.3-1-2.3-1.3c-0.9-0.3-2-0.5-3-0.8c-1-0.3-1.8-0.7-2.4-1.4
			c-0.6-0.7-0.9-1.8-1.1-3.2c-0.1-0.6-0.2-1.3-0.5-1.9c-0.2-0.6-0.6-1-1-1.4c-0.9-0.6-1.8-1.1-2.9-1.4c-1.1-0.3-2.3-0.3-3.4-0.2
			c-0.6,0-1.1,0-1.7,0.1c-0.6,0-1.1,0-1.6,0l-0.8,0c-0.3,0-0.5,0-0.8-0.1c-0.2-0.1-0.5-0.2-0.7-0.4l0,0c-0.1,0,0.2,0-0.2-0.1l-0.1,0
			l-0.1-0.1l-0.2-0.1c-0.1-0.1-0.5-0.3-0.7-0.4c-0.1-0.1-0.3-0.2-0.4-0.3l-0.4-0.3c-0.2-0.2-0.5-0.4-0.7-0.6
			c-0.4-0.4-0.8-0.9-1.2-1.4c-0.7-1-1.1-2.2-1.3-3.1c-0.2-1-0.4-1.9-0.5-2.6c-0.2-0.8-0.4-1.5-0.6-2.2c-0.4-1.4-0.9-2.7-1.5-4
			c-0.6-1.3-1.3-2.5-1.8-3.7c-1.1-2.3-1.5-4.3-1.2-5.9c0.3-1.6,1.8-3.2,2.4-4.8c0.6-1.6,0.1-3-0.5-4c-0.6-1-1.5-1.8-2.3-2.3
			c-0.8-0.5-1.6-0.7-2.1-0.8c-0.5-0.1-0.8-0.1-0.8-0.1c-1.2,0-2.2-1-2.2-2.3c0-1.2,1-2.2,2.3-2.2c0.4,0,0.8,0.1,1.1,0.3l0,0
			c0,0,0.3,0.2,0.9,0.5c0.6,0.3,1.4,0.7,2.5,1.2c1.1,0.5,2.4,1.2,3.9,2.3c1.5,1,2.9,2.5,4.8,4.3c1.9,1.8,4.1,4.2,4.7,6.7
			c0.6,2.6,0,5.1-1.3,7.3c-0.7,1.1-1.4,2.2-2,3.3c-0.6,1.1-1,2.1-1.1,3.1c0,0.5,0,1,0.2,1.3c0.2,0.4,0.5,0.6,0.9,0.7
			c0.9,0.1,1.6-0.8,1.7-1.3c0-0.1-0.1-0.2,0.1-0.1l0.2,0l0.1,0l0.1,0c-0.4-0.1-0.1,0-0.2-0.1l0,0c0.4,0,0.8,0,1.1,0
			c0.7,0.2,1.3,0.6,2,0.9c1.3,0.7,2.4,1.6,3.5,2.7c1,1,2,2.1,2.9,2.9c1,0.9,1.9,1.7,3,2.3c1,0.6,2.5,0.7,4,0.7
			c0.7,0,1.5,0.1,2.1,0.3c0.7,0.2,1.2,0.4,1.7,0.8c0.9,0.7,1.6,1.7,2,2.8c0.4,1.1,0.6,2.4,0.9,3.4c0.3,1.1,0.7,1.9,1.1,2.7
			c0.4,0.8,0.7,1.6,1,2.3c0.6,1.4,1.1,2.7,1.6,3.8c0.9,2.1,1.4,3.2,1.4,3.2c0.3,0.7,0,1.4-0.7,1.7
			C1400.9,185.1,1400.2,184.9,1399.9,184.3L1399.9,184.3z"/>
	</g>
	<g>
		<path class="st13" d="M1403.3,180.1c0,0-0.4-0.1-1.1-0.2c-0.2,0-0.3-0.1-0.5-0.1c-0.2-0.1-0.3-0.1-0.5-0.2
			c-0.4-0.1-0.8-0.3-1.2-0.4c-0.8-0.3-1.5-0.8-2-1.4c-0.5-0.6-0.5-1.3-0.6-2c-0.1-0.8,0-1.6,0.3-2.6c0.3-0.9,0.8-2,1.2-3
			c0.9-2.2,1.3-4.5,0.1-7.1c-0.6-1.3-1.4-2.7-2-4.1c-0.3-0.7-0.4-1.4-0.5-2.2c0-0.7,0-1.5,0.2-2.3c0.2-1.5,0.8-3.1,1.6-4.6
			c0.8-1.6,1.7-3.1,2.3-4.7c0.7-1.6,1-3.2,1.2-4.9c0.2-1.7,0.3-3.5,0.3-5.3c0-3.7-0.2-8,2.2-12.1c1.5-2.3,2.3-3.3,4.1-4.1
			c0.8-0.4,1.8-0.7,2.7-1c0.8-0.3,1.6-0.6,2.3-1c0.7-0.4,1.2-1,1.6-1.7c0.4-0.7,0.7-1.4,0.9-2.1c0.2-0.7,0.4-1.5,0.6-2.3
			c0.1-0.8,0.1-1.6,0.1-2.4c0-0.8,0-1.5,0-2.3c0-0.8-0.1-1.5-0.1-2.2c0-0.7,0.1-1.4,0.2-2c0.1-0.7,0.2-1.3,0.3-1.9
			c0.2-0.6,0.4-1.2,0.6-1.8c0.2-0.6,0.5-1.1,0.8-1.7c0.7-1.1,1.3-2.2,2.1-3.3c0.8-1.1,1.5-2.1,2.1-3.2c0.6-1.1,1-2.1,1.4-3.1
			c0.3-1,0.5-1.9,0.7-2.8c0.1-0.9,0.2-1.7,0.2-2.4c0-1.5-0.1-2.6-0.2-3.4c-0.1-0.4-0.2-0.7-0.2-0.9c-0.1-0.2-0.1-0.3-0.1-0.3
			c-0.2-0.4,0-0.9,0.4-1.1c0.4-0.2,0.9,0,1.1,0.4c0,0.1,0.1,0.1,0.1,0.2l0,0c0,0,0,0.1,0,0.3c0,0.2,0.1,0.5,0.1,0.9
			c0.1,0.4,0.2,0.9,0.3,1.5c0.1,0.6,0.3,1.2,0.5,2c0.2,0.7,0.4,1.6,0.6,2.5c0.2,0.9,0.5,1.9,0.9,3c0.6,2.1,1.8,4.7,2.7,7.6
			c0.4,1.5,0.9,3,0.9,4.6c0.1,1.6-0.1,3.2-0.6,4.8c-0.2,0.8-0.5,1.6-0.9,2.4c-0.4,0.8-0.9,1.5-1.4,2.3c-0.5,0.7-1.1,1.5-1.7,2.1
			c-0.7,0.7-1.3,1.3-2,2c-0.7,0.6-1.3,1.3-2,2c-0.7,0.6-1.3,1.3-1.9,1.9c-0.6,0.7-1.1,1.4-1.6,2.1c-0.6,0.7-1,1.5-1.4,2.4
			c-0.3,0.9-0.5,2-0.7,3c-0.2,1-0.3,1.9-0.6,2.8c-0.3,0.9-0.7,1.7-1.2,2.3l-0.5,0.6c-0.1,0.1-0.1,0.2-0.2,0.2l-0.3,0.2
			c-0.1,0.1-0.2,0.2-0.3,0.3c-1.5,1.4-3.9,3.7-5.6,6.5c-0.9,1.4-1.5,2.9-1.8,4.4c-0.4,1.5-0.5,3.1-0.2,4.7c0.3,1.6,0.9,3.2,1.4,4.7
			c0.6,1.5,1,3,1.1,4.4c0.1,1.4,0,2.8-0.6,4.1c-0.6,1.3-1.5,2.6-2,3.9c-1.2,2.5-0.7,4.8,0.4,6.8c0.5,1,1.1,1.9,1.5,2.8
			c0.4,0.9,0.6,1.6,0.6,2.4c0,0.7,0.1,1.4-0.3,2c-0.4,0.6-1,1.1-1.7,1.6c-0.4,0.2-0.7,0.4-1.1,0.6c-0.2,0.1-0.3,0.2-0.5,0.3
			c-0.2,0.1-0.3,0.1-0.5,0.2c-0.6,0.3-1,0.4-1,0.4c0,0.4-0.3,0.9-0.7,0.9C1403.7,180.8,1403.3,180.5,1403.3,180.1z"/>
	</g>
	<g>
		<path class="st14" d="M1400,186c0,0-0.4-0.3-0.8-1c-0.2-0.4-0.5-0.8-0.7-1.4c-0.2-0.6-0.3-1.4-0.5-2.2c-0.1-0.4-0.3-0.8-0.6-1.1
			c-0.3-0.4-0.6-0.7-0.9-1.1c-0.7-0.7-1.4-1.5-2.3-2.2c-1.7-1.5-3.9-3.1-5.8-5.2c-0.9-1.1-1.8-2.2-2.5-3.6c-0.7-1.4-1-3-1-4.9
			c-0.1-0.9,0-1.9-0.1-2.8c-0.1-0.9-0.2-1.8-0.5-2.7c-0.1-0.4-0.3-0.9-0.4-1.4c-0.2-0.5-0.4-1-0.5-1.4c-0.2-0.4-0.4-0.8-0.6-1.2
			c-0.1-0.2-0.2-0.4-0.4-0.6c-0.1-0.2-0.2-0.5-0.4-0.7c-1.1-2-2.3-3.9-2.6-5.9c-0.1-0.5-0.1-1-0.1-1.5c0-0.5,0.1-1,0.1-1.5
			c0.1-1,0.3-2,0.7-2.9c0.3-0.9,0.7-1.9,1.2-2.7c0.4-0.9,0.9-1.8,1.4-2.6c1-1.7,1.8-3.4,2.4-5.2c0.6-1.8,0.9-3.6,0.9-5.4
			c0.1-1.9-0.1-3.8-0.2-5.7c-0.3-3.8,0-7.3,1.7-10.2c0.4-0.7,1-1.4,1.5-2.1c0.6-0.7,1.2-1.3,1.8-2c0.6-0.7,1.1-1.3,1.6-2
			c0.5-0.7,0.8-1.4,1.1-2.1c1-2.8,1.2-5.6,0.9-8.1c-0.3-2.5-1.1-4.5-1.7-6.1c-0.4-0.8-0.7-1.5-1-2.1c-0.3-0.7-0.6-1.2-0.9-1.7
			c-0.2-0.5-0.6-0.9-0.8-1.4c-0.1-0.5-0.1-1.1,0-1.7c0.1-0.6,0.3-1.2,0.4-1.7c0.1-0.5,0.3-0.8,0.3-0.8c-0.3-0.3-0.4-0.8-0.1-1.2
			s0.8-0.4,1.2-0.1c0,0,0.3-0.2,0.8-0.3c0.5-0.2,1.1-0.3,1.8-0.4c0.7,0,1.5,0.1,2.2,0.6c0.3,0.2,0.6,0.5,0.9,0.9
			c0.3,0.3,0.6,0.7,0.9,1.1c0.6,0.8,1.2,1.8,1.6,2.9c0.5,1.1,0.8,2.3,1.1,3.6c0.4,2.6,0.3,5.6-0.1,8.5c-0.4,3-0.9,6-1.1,9.2
			c-0.1,1.6,0.2,3.4,0.6,5.2c0.4,1.9,0.8,3.8,0.8,5.6c-0.1,3.6-1.9,6.8-4.3,9.7c-1.2,1.5-2.4,3-3.3,4.5c-1,1.6-1.7,3.2-2,4.9
			c-0.9,3.4,0.2,7.3,0.4,10.5c0,0.4,0,0.8,0,1.2c0,0.4,0,0.8,0,1.2c-0.1,0.8-0.1,1.5-0.4,2.2c-0.3,0.7-0.6,1.4-1,2.2
			c-0.5,0.8-0.8,1.4-1.2,2.2c-0.1,0.2-0.2,0.4-0.2,0.6c0,0.2,0,0.4,0,0.7c-0.1,0.4,0,0.9,0,1.3v0.3l-0.1,0.1c0,0-0.1-0.2-0.1-0.1
			l0,0l0,0.1c0,0.2,0.1,0.3,0.1,0.5c0.1,0.3,0.2,0.6,0.4,1c0.7,1.3,2.1,2.3,3.5,3.2c1.4,0.9,2.6,1.8,3.4,3c0.8,1.2,1.4,2.4,1.9,3.6
			c1,2.5,1.5,5,2.2,7.2c0.4,1.1,0.8,2,1.2,2.9c0.2,0.4,0.4,0.8,0.6,1.2c0.2,0.4,0.5,0.7,0.9,0.9c0.7,0.5,1.4,0.8,1.9,1.2
			c0.5,0.4,0.8,0.8,1.1,1.1c0.5,0.6,0.7,1.1,0.7,1.1l0,0c0.8,2.2-0.3,4.6-2.5,5.4C1402.6,187.2,1401.1,186.9,1400,186z"/>
	</g>
</g>
<g id="seabed">
	<line class="st15" x1="0" y1="214.2" x2="1920" y2="214.2"/>
	<circle class="st16" cx="112.6" cy="166.8" r="31.5"/>
	<circle class="st16" cx="394.6" cy="187.8" r="52.5"/>
	<circle class="st16" cx="707.4" cy="167.5" r="17.2"/>
	<circle class="st16" cx="1279.3" cy="193.1" r="80.3"/>
	<circle class="st16" cx="1674.3" cy="193.5" r="71.2"/>
	<circle class="st16" cx="1835.3" cy="172.5" r="23.2"/>
	<circle class="st17" cx="112.9" cy="167" r="14.7"/>
	<circle class="st18" cx="407.6" cy="166.8" r="17.5"/>
	<circle class="st19" cx="374" cy="196.4" r="7.8"/>
	<circle class="st20" cx="707.1" cy="164.3" r="7"/>
	<circle class="st21" cx="1279" cy="157.8" r="17.5"/>
	<circle class="st22" cx="1342.3" cy="213.5" r="40.2"/>
	<circle class="st23" cx="1674.6" cy="188.8" r="48"/>
	<circle class="st24" cx="1843" cy="161.3" r="5.5"/>
	<line class="st25" x1="0" y1="314.2" x2="1920" y2="314.2"/>
</g>
</svg>
