<?xml version="1.0" encoding="utf-8"?>
<!-- Generator: Adobe Illustrator 17.0.0, SVG Export Plug-In . SVG Version: 6.00 Build 0)  -->
<!DOCTYPE svg PUBLIC "-//W3C//DTD SVG 1.1//EN" "http://www.w3.org/Graphics/SVG/1.1/DTD/svg11.dtd">
<svg version="1.1" id="Layer_1" xmlns="http://www.w3.org/2000/svg" xmlns:xlink="http://www.w3.org/1999/xlink" x="0px" y="0px"
	 width="1923.319px" height="2169.716px" viewBox="0 0 1923.319 2169.716" enable-background="new 0 0 1923.319 2169.716"
	 xml:space="preserve">
<path fill="#1386C1" d="M1916.808,16.031c-11.521,4.466-23.435,9.084-46.918,9.084c-23.483,0-35.396-4.618-46.918-9.084
	c-11.382-4.412-22.133-8.579-44.218-8.579c-22.085,0-32.836,4.167-44.218,8.579c-11.521,4.466-23.435,9.084-46.918,9.084
	c-23.482,0-35.396-4.618-46.917-9.084c-11.382-4.412-22.132-8.579-44.217-8.579c-22.085,0-32.836,4.167-44.218,8.579
	c-11.521,4.466-23.435,9.084-46.918,9.084c-23.482,0-35.396-4.618-46.917-9.084c-11.382-4.412-22.133-8.579-44.218-8.579
	c-22.085,0-32.836,4.167-44.218,8.579c-11.521,4.466-23.435,9.084-46.917,9.084c-23.482,0-35.396-4.618-46.917-9.084
	c-11.382-4.412-22.132-8.579-44.218-8.579c-22.085,0-32.836,4.167-44.218,8.579c-11.521,4.466-23.435,9.084-46.917,9.084
	c-23.482,0-35.395-4.618-46.917-9.084c-11.382-4.412-22.132-8.579-44.217-8.579c-22.085,0-32.836,4.167-44.218,8.579
	c-11.521,4.466-23.434,9.084-46.916,9.084c-23.482,0-35.395-4.618-46.917-9.084c-11.382-4.412-22.132-8.579-44.217-8.579
	s-32.836,4.167-44.218,8.579c-11.521,4.466-23.435,9.084-46.917,9.084c-23.482,0-35.395-4.618-46.917-9.084
	c-11.382-4.412-22.133-8.579-44.218-8.579c-22.085,0-32.836,4.167-44.217,8.579c-11.521,4.466-23.435,9.084-46.917,9.084
	c-23.482,0-35.396-4.618-46.917-9.084c-11.382-4.412-22.133-8.579-44.218-8.579c-22.085,0-32.836,4.167-44.218,8.579
	c-11.521,4.466-23.435,9.084-46.917,9.084c-23.482,0-35.395-4.618-46.917-9.084c-11.382-4.412-22.132-8.579-44.217-8.579
	c-22.085,0-32.836,4.167-44.217,8.579c-11.521,4.466-23.435,9.084-46.917,9.084s-35.395-4.618-46.917-9.084
	c-11.382-4.412-22.132-8.579-44.217-8.579c-22.085,0-32.836,4.167-44.218,8.579c-11.521,4.466-23.435,9.084-46.917,9.084
	s-35.396-4.618-46.917-9.084C0.188,15.995,0.094,15.958,0,15.922v2153.794h1923.171V41.261V13.62
	C1921.021,14.398,1918.925,15.211,1916.808,16.031z"/>
<path fill="#FFFFFF" d="M1923.309,5.676c0.046-0.015-0.092,0.031-0.138,0.046c-3.165,1.078-6.121,2.225-9.052,3.362
	c-11.369,4.412-22.107,8.58-44.167,8.58s-32.798-4.167-44.167-8.58C1814.277,4.618,1802.377,0,1778.922,0
	c-23.455,0-35.355,4.618-46.863,9.084c-11.369,4.412-22.108,8.58-44.167,8.58c-22.06,0-32.798-4.167-44.166-8.58
	C1632.218,4.618,1620.318,0,1596.863,0c-23.455,0-35.355,4.618-46.863,9.084c-11.369,4.412-22.107,8.58-44.167,8.58
	c-22.06,0-32.798-4.167-44.167-8.58C1450.159,4.618,1438.259,0,1414.804,0c-23.455,0-35.355,4.618-46.863,9.084
	c-11.368,4.412-22.107,8.58-44.166,8.58s-32.798-4.167-44.166-8.58C1268.101,4.618,1256.201,0,1232.746,0
	c-23.455,0-35.354,4.618-46.863,9.084c-11.369,4.412-22.107,8.58-44.166,8.58c-22.059,0-32.797-4.167-44.166-8.58
	C1086.044,4.618,1074.144,0,1050.689,0c-23.455,0-35.354,4.618-46.862,9.084c-11.368,4.412-22.106,8.58-44.166,8.58
	s-32.798-4.167-44.166-8.58C903.987,4.618,892.088,0,868.633,0s-35.355,4.618-46.862,9.084c-11.369,4.412-22.107,8.58-44.167,8.58
	c-22.059,0-32.798-4.167-44.166-8.58C721.93,4.618,710.03,0,686.576,0c-23.455,0-35.354,4.618-46.862,9.084
	c-11.369,4.412-22.107,8.58-44.166,8.58c-22.06,0-32.798-4.167-44.166-8.58C539.873,4.618,527.973,0,504.518,0
	c-23.455,0-35.355,4.618-46.862,9.084c-11.369,4.412-22.107,8.58-44.167,8.58c-22.059,0-32.797-4.167-44.166-8.58
	C357.815,4.618,345.916,0,322.461,0c-23.455,0-35.354,4.618-46.862,9.084c-11.369,4.412-22.107,8.58-44.166,8.58
	s-32.798-4.167-44.166-8.58C175.759,4.618,163.86,0,140.405,0c-23.455,0-35.355,4.618-46.863,9.084
	c-11.369,4.412-22.107,8.58-44.166,8.58S16.579,13.497,5.21,9.084C4.269,8.719,3.323,8.352,2.37,7.987
	C2.323,7.97,2.278,7.952,2.232,7.934c0,0,0.282,8.098,0,7.988c-0.094-0.037,0.188,0.073,0.282,0.11
	c11.508,4.466,23.408,9.084,46.862,9.084s35.354-4.618,46.862-9.084c11.369-4.412,22.107-8.58,44.166-8.58
	c22.059,0,32.797,4.167,44.166,8.58c11.508,4.466,23.407,9.084,46.862,9.084s35.354-4.618,46.862-9.084
	c11.369-4.412,22.107-8.58,44.166-8.58s32.797,4.167,44.166,8.58c11.508,4.466,23.407,9.084,46.862,9.084
	c23.455,0,35.355-4.618,46.863-9.084c11.369-4.412,22.107-8.58,44.167-8.58c22.06,0,32.798,4.167,44.166,8.58
	c11.508,4.466,23.407,9.084,46.863,9.084c23.455,0,35.354-4.618,46.862-9.084c11.369-4.412,22.107-8.58,44.166-8.58
	c22.059,0,32.798,4.167,44.166,8.58c11.508,4.466,23.407,9.084,46.862,9.084c23.455,0,35.355-4.618,46.862-9.084
	c11.369-4.412,22.107-8.58,44.167-8.58s32.798,4.167,44.166,8.58c11.508,4.466,23.408,9.084,46.862,9.084s35.354-4.618,46.862-9.084
	c11.369-4.412,22.107-8.58,44.166-8.58c22.059,0,32.797,4.167,44.166,8.58c11.508,4.466,23.408,9.084,46.862,9.084
	c23.455,0,35.355-4.618,46.863-9.084c11.368-4.412,22.107-8.58,44.166-8.58s32.798,4.167,44.166,8.58
	c11.508,4.466,23.408,9.084,46.863,9.084c23.455,0,35.355-4.618,46.863-9.084c11.368-4.412,22.107-8.58,44.166-8.58
	c22.06,0,32.798,4.167,44.167,8.58c11.508,4.466,23.407,9.084,46.862,9.084c23.455,0,35.355-4.618,46.863-9.084
	c11.368-4.412,22.107-8.58,44.167-8.58c22.059,0,32.797,4.167,44.166,8.58c11.508,4.466,23.407,9.084,46.862,9.084
	c23.455,0,35.355-4.618,46.863-9.084c11.369-4.412,22.107-8.58,44.167-8.58c22.06,0,32.798,4.167,44.167,8.58
	c11.508,4.466,23.408,9.084,46.863,9.084s35.355-4.618,46.863-9.084c2.115-0.821,4.208-1.633,6.356-2.412
	c0.046-0.017,0.092-0.033,0.138-0.05C1923.309,13.571,1923.171,5.722,1923.309,5.676z"/>
</svg>
