<?xml version="1.0" encoding="utf-8"?>
<!-- Generator: Adobe Illustrator 19.0.0, SVG Export Plug-In . SVG Version: 6.00 Build 0)  -->
<svg version="1.1" xmlns="http://www.w3.org/2000/svg" xmlns:xlink="http://www.w3.org/1999/xlink" x="0px" y="0px"
	 viewBox="0 0 612 792" style="enable-background:new 0 0 612 792;" xml:space="preserve">
<style type="text/css">
	.st0{fill:#93BBE3;}
	.st1{fill:#FFFFFF;}
	.st2{fill:#4B86BC;}
	.st3{fill:#102232;}
	.st4{fill:#7EA2BF;}
	.st5{display:none;opacity:0.45;}
	.st6{display:inline;}
	.st7{fill:#55391D;}
	.st8{fill:#E7E3DF;}
	.st9{fill:#DCD5CF;}
	.st10{fill:#F16060;}
	.st11{fill:#E75D5B;}
	.st12{fill:#E55C59;}
	.st13{fill:#78422C;}
	.st14{fill:#7A432D;}
	.st15{fill:#5D3C21;}
	.st16{fill:#5C3C21;}
	.st17{fill:#E7E2DE;}
	.st18{fill:#FEF5F4;}
	.st19{fill:#954938;}
	.st20{fill:#EBE7E3;}
</style>
<g id="Layer_1">
	<path id="XMLID_14_" class="st0" d="M514.4,420.8c-5.3-7.4-13.5-12.2-21.6-16.2c-29-14.4-86.1,6.7-117.6,14.5
		c25.6-27.4,41.4-64.8,41.4-106c0-83.9-65.3-151.9-145.8-151.9S125,229.1,125,313.1c0,39.7,14.6,75.8,38.5,102.9
		c-4.9,3.6-11.5,5.6-17.7,6.4c-31.4,4.4-63-5.8-91.9-18.8c-12.1-5.4-27.3-11-37.4-2.4c-6.9,5.9-8,16.7-4.7,25.2
		c3.3,8.5,10,15.1,17,21.1c32.4,27.9,127.8,7.8,138,18.4c10.2,10.6-90.9,58-105.9,78c-2.3,3-4.5,6.6-3.8,10.3c0.5,2.9,2.7,5.3,5,7.2
		c10,8,24.1,9.5,36.6,6.5c12.5-2.9,46.9-20.5,57.5-27.8c13.4-9.2,30.7-26.3,42.8-37.1c4.5-4,14.1-11,20.1-10.3
		c8.2,1,7.6,13.2,8.4,21.4c1.1,11.6-0.6,23.5-5,34.3c-4.6,11.5-12.1,21.7-16.1,33.4c-4,11.7-3.5,26.3,5.7,34.5
		c8.2,7.2,20.9,7,30.6,2.1s16.7-13.9,22.3-23.2c17.4-28.4,10.1-93.1,21-95.9c10.9-2.8,14.3,37.3,30.2,59.4
		c15.9,22.1,37.1,43.8,64.3,46.3c7.1,0.7,14.7-0.2,20.7-4.1c11.3-7.3,13.9-23.6,9-36.1c-4.9-12.5-15.7-21.8-26.8-29.3
		c-11.1-7.6-23.1-14-32.7-23.5c-9-8.8-8.9-29.2,1.2-28.8c10.1,0.4,61.6,51.1,106,60.5c14.6,3.1,33.6,2.6,39.9-10.9
		c4.5-9.7-0.6-21.5-8.7-28.5s-18.6-10.2-28.6-13.9c0,0-72.9-25.6-74.8-32.9s62.5-9.9,93.7-4.5c13,2.3,29.1,3.9,36.8-6.9
		C521.3,439,519.7,428.3,514.4,420.8z"/>
	<ellipse id="XMLID_2_" cx="208" cy="340" rx="20.4" ry="36.3"/>
	<ellipse id="XMLID_3_" class="st1" cx="201.1" cy="318.5" rx="7.3" ry="8.6"/>
	<ellipse id="XMLID_6_" cx="328.1" cy="340" rx="20.4" ry="36.3"/>
	<ellipse id="XMLID_5_" class="st1" cx="323.4" cy="318.5" rx="7.3" ry="8.6"/>
	<ellipse id="XMLID_4_" class="st2" cx="270.2" cy="409" rx="20" ry="9.7"/>
	<ellipse id="XMLID_7_" class="st3" cx="270.2" cy="409" rx="7.9" ry="3.9"/>
	<ellipse id="XMLID_9_" class="st4" cx="312.3" cy="196" rx="10.6" ry="7.7"/>
	<ellipse id="XMLID_10_" class="st4" cx="354.5" cy="223.7" rx="12.8" ry="12"/>
	<ellipse id="XMLID_11_" class="st4" cx="316.1" cy="225" rx="11.7" ry="11.3"/>
</g>
<g id="Layer_2" class="st5">
	<g id="XMLID_8_" class="st6">
		<path id="XMLID_70_" class="st7" d="M254.3,513.8c-0.2,0-0.3,0.1-0.4,0.2c-25.3,21.4-54.4,30.3-87.5,26.3
			c-15.9-1.9-29.8-7.5-40.7-19.6c0-0.1-0.1-0.1-0.2-0.1c-4.8-3-7.3-7.1-5.9-13c2.4-12-3.4-14.9-14.7-16.1
			c-36.9-3.9-55.3-24.7-51.6-56.2c3.7-31.4,33.7-44.5,59-25.1c13.6,10.4,26.8,19.9,45.1,16.9c2.8-0.5,5.5-1.5,10-2.7
			c0.6-0.2,0.8-0.9,0.4-1.4c-12.8-15.1-26.1-28.2-34.3-45.1c-29.1-60.2-25.4-118.2,15.9-170.6c41.3-52.3,97.8-69.6,161.3-53
			C375.6,171.1,414.4,216,424.5,282c7.8,51.2-7.7,96.6-44.8,133.7c-11.4,11.4-10.4,16,5.1,20.2c16.7,4.5,33,2.8,48.1-6
			c14-8.2,28.3-8.8,43-1.9c28.4,13.2,28.8,58.3,1.3,76.5c-0.1,0.1-0.1,0.1-0.2,0.2c-8.7,12.2-21,13.3-34.5,11.1c0,0-0.1,0-0.1,0
			c-9.7-0.6-19.5-1.2-26.2,8c0,0-0.1,0.1-0.1,0.1c-7.5,16.2-21.4,23.5-38.1,25.3c-35.5,3.8-69.1-0.6-97.1-25.6
			c-0.1-0.1-0.2-0.1-0.2-0.1c-7.7-2.9-10.1-10.7-14.9-16.4c-0.2-0.2-0.5-0.4-0.8-0.3C260.6,507.8,258.9,513.2,254.3,513.8z"/>
		<path id="XMLID_67_" class="st8" d="M254.4,513.4c3.3-4.6,6.6-9.2,10-13.9c0.4-0.5,1.1-0.5,1.4,0c5.1,8.2,9.7,15.5,14.3,22.8
			c0.3,0.6,0,1.3-0.7,1.3c-9.7,0.6-19.7,1.8-25.2-9.3C254.2,514,254.2,513.7,254.4,513.4z"/>
		<path id="XMLID_65_" class="st9" d="M441.7,516c0,0.1,0,0.2,0,0.3c0,0.5-0.5,0.9-1,0.8c-8.9-1.8-14.8,7.7-23.4,6.9
			c-0.5,0-0.9-0.5-0.8-1c3.5-15.4,15.9-5.6,24.1-7.8C441.1,515,441.7,515.4,441.7,516z"/>
		<path id="XMLID_63_" class="st10" d="M402.6,523.6c0.4,0.2,0.6,0.7,0.4,1.1c-5.3,11.8-16.9,13.3-27.5,14.9
			c-18.7,2.7-37.5,1-55.6-4.6c-29.8-9.1-48.5-34.2-49.9-65.7c-0.2-3.6,1.2-7.6-2.7-12.9c-0.5-0.7-1.5-0.4-1.6,0.4
			c-2,27.5-11.7,48.9-36.3,60.6c-0.2,0.1-0.5,0.1-0.7,0c-19.6-8.4-39.3-7.6-59.2-1.2c-3.1,1-6.9,3.3-9.2,1.6
			c-8.7-6.5-9.6,0.8-11.9,5.6c-0.2,0.4-0.7,0.6-1.2,0.4c-19-9.2-22.7-23.2-12-45.2c6.3-14,19-10.1,29.4-9.2
			c24.5,2.2,27,1.9,40.8-14.1c-8.7,11.2-20.4,19.9-39.6,14.2c-11-3.3-23.3-1.4-33.5,5.9c0,0-0.1,0-0.1,0.1
			c-11.6,11.1-42.4,7.9-58.4-6.2c-12.1-10.7-15.3-34.5-6.3-47.3c9.2-13.2,25.6-14.7,41-2.4c14.4,11.5,29.4,19.5,48.5,17.5
			c5.5-0.6,10.7-1.6,15.2-4.5c9.3-6,13.8-10.8,2.1-21.2c-48.2-42.5-61.4-111.5-34-169c26.9-56.2,89.3-90.8,147.6-81.8
			C355.4,171,403.6,218,413.1,283c7.5,51.2-9.2,93.9-46.2,129.2c-11.7,11.2-11.3,19.5,3.4,27.8c17.8,10.1,36.8,10.6,55.9,3.8
			c4.5-1.6,8.8-4,13.1-6.1c18.6-8.7,38-3.3,45.7,12.8c8.1,17-0.3,39.1-18.5,47.5c-17,7.8-35.2,8.1-53.4,6.2c-0.2,0-0.3-0.1-0.5-0.2
			c-2.6-2-3.5-5.1-4.9-7.9c-7.9-15.9-18.7-20.9-35.3-16.7c-23.9,6-32,0.6-37.2-24.9c4.7,25.6,13,31.2,37.6,25
			c21.6-5.4,36.3,6.7,34.1,27.8c0,0.3-0.2,0.6-0.5,0.7c-20,8.1-40.7,3.9-61.2,3c-3.5-0.1-7.3-3.3-10.3,0.8c-1.4,1.9-1.3,4.5,0.7,5.7
			c3.4,2,7.3,5.2,10.5-0.8c0.7-1.4,2.8-2.4,4.2-1.9C367.3,520.5,386,516.3,402.6,523.6z"/>
		<path id="XMLID_62_" class="st11" d="M148.4,523.5c1.2-5.3-3.8-8.7-4.8-13.1c-0.1-0.3,0-0.6,0.3-0.8c0.5-0.5,0.9-1,1.1-0.9
			c22.6,9.2,44.8-4.9,67.6-1.1c7.4,1.2,11.1,5.3,15.7,9.2c0.4,0.4,0.4,1.1-0.1,1.4c-25.3,16.5-51.9,17-79.4,6.3
			C148.5,524.4,148.3,523.9,148.4,523.5z"/>
		<path id="XMLID_61_" class="st12" d="M401.3,523.8c-16-0.7-32.3,2.1-47.6-5.8c-6.2-3.2-8,9.8-16.4,6.1c-4.7-2.1-12.1-0.8-10.1-8.6
			c1.5-5.8,4.1-11.2,13.8-9.2c21.2,4.3,42.9,1.4,64.4,1.4c0.3,0,0.6,0.1,0.7,0.4c2.6,4,1.9,8.1,0.5,12.2
			C404.8,521.5,403.1,522.6,401.3,523.8z"/>
		<path id="XMLID_60_" class="st13" d="M406.4,518.7c-0.2-3.7-0.3-7.4-0.5-11c0,0,0-0.1,0-0.1c2.7-21.5-17.4-28.8-33-25.1
			c-27.5,6.6-39.9-3.1-40.2-32.4c0-0.7,0.9-1.1,1.4-0.7c5.7,5.2,4.4,12.9,7.5,18.5c5.7,10.7,13.1,14.6,24.9,10.7
			c25.7-8.3,37.5-1.8,46.2,25c0.1,0.4,0,0.8-0.3,1c-4.9,3.5-1.1,10.4-4.3,14.6C407.5,519.8,406.4,519.5,406.4,518.7z"/>
		<path id="XMLID_59_" class="st14" d="M140.3,468.1c4.9-2.6,10.8-3,17.1-2.6c30.9,2.1,32.1,2.1,50.6-16.6c0.6-0.6,1.7,0,1.4,0.8
			c-4.7,17.6-20.6,27.5-39.4,24c-9.3-1.7-18.5-3.7-27-0.1C141.3,470.1,142,471.6,140.3,468.1z"/>
		<path id="XMLID_58_" class="st15" d="M220.2,323.7c9.8,10.8,11.3,32.3,2.5,42.1c-7.5,8.4-15.2,6.6-21.6-1.5
			c-6.9-8.8-6.9-34.5,0.6-42.9c5.9-6.6,13.3-13.7,17.9,1.6c-2.9,2.5-8.3,2.5-8.9,8.9C217.6,332.9,217.4,326.5,220.2,323.7z"/>
		<path id="XMLID_57_" class="st16" d="M348.9,346.5c-0.8,4.6-1.2,9.5-2.7,14c-2.1,6.4-5.7,11.6-13.5,11.6
			c-7-0.1-10.5-4.8-12.9-10.4c-4.5-10.2-4.8-20.7-1.4-31.3c2.4-7.6,6.2-14.7,14.9-14.3c8,0.3,11.2,7.7,13.2,14.5
			C348.1,335.5,348.2,341,348.9,346.5z"/>
		<path id="XMLID_56_" class="st17" d="M220.2,323.7c3.8,6.3,2.3,11.1-4,14.6c-3.4,1.9-6.3,0.6-8.7-1.6c-3.5-3.2-4.8-7-1.8-11.3
			c3.8-5.5,8.6-5.7,13.9-2.4c0,0,0,0.7,0,0.7L220.2,323.7z"/>
		<path id="XMLID_55_" class="st18" d="M193.7,215c-5.5-0.5-8.4-3.9-8-9.4c0.3-4.6,3-7.8,8.1-7.8c5.5,0,9.2,2.9,9.2,8.5
			C202.9,211.7,199.6,214.9,193.7,215z"/>
		<path id="XMLID_54_" class="st19" d="M284.9,365.9c0.3,9.4-2.4,15.8-11.5,15.9c-9.3,0.1-13.8-5.5-14.5-18.8
			C268,377.1,276,384.5,284.9,365.9z"/>
		<path id="XMLID_53_" class="st20" d="M341.7,330.4c-0.2,5.5-2.9,9-8.4,9.5c-5.7,0.5-9-3.4-9.5-8.3c-0.5-5.3,3.1-9.2,8.3-9.5
			C337.4,321.7,340.7,325,341.7,330.4z"/>
	</g>
</g>
</svg>
