<?xml version="1.0" encoding="utf-8"?>
<!-- Generator: Adobe Illustrator 19.0.0, SVG Export Plug-In . SVG Version: 6.00 Build 0)  -->
<svg version="1.1" id="Layer_1" xmlns="http://www.w3.org/2000/svg" xmlns:xlink="http://www.w3.org/1999/xlink" x="0px" y="0px"
	 viewBox="0 0 307.2 327.1" style="enable-background:new 0 0 307.2 327.1;" xml:space="preserve">
<style type="text/css">
	.st0{fill:#567EB8;}
	.st1{fill:none;stroke:#25374C;stroke-width:5;stroke-linecap:round;stroke-miterlimit:10;}
</style>
<g id="XMLID_1_">
	<path id="XMLID_2_" class="st0" d="M307.2,152.5C307.2,68.4,238.8,0,154.7,0S2.2,68.4,2.2,152.5c0,28.2,19.9,77.2,20.1,77.7
		c0.5,1.1,0,2.5-1,3.1c-9.9,5.9-17,15.3-19.9,26.5c-2.9,11.2-1.2,22.8,4.7,32.7c9.6,16.2,30.5,21.5,46.7,12
		c6.2-3.6,10.5-9.5,12.3-16.4c1.8-6.9,0.8-14.1-2.9-20.3c-0.7-1.2-0.3-2.7,0.9-3.4c1.2-0.7,2.7-0.3,3.4,0.9
		c4.3,7.3,5.5,15.8,3.4,24.1c-1.9,7.6-6.5,14-12.9,18.4c5.3,7.8,13.5,13.8,22.8,16.5c10.3,3,20.8,1.8,29.6-3.4
		c7.5-4.5,13.3-14.6,14.4-25.3c1.1-11-2.7-21-10.6-28.2c-1-0.9-1.1-2.5-0.2-3.5c0.9-1,2.5-1.1,3.5-0.2c9.2,8.3,13.5,19.8,12.3,32.4
		c-0.7,7-3.1,13.6-6.7,19.1c13.5,12.4,38.8,15.7,56.4,7.6c-6.2-4.8-10.7-11.5-12.7-19.2c-2.3-9.1-1-18.7,3.8-26.8
		c0.7-1.2,2.2-1.6,3.4-0.9c1.2,0.7,1.6,2.2,0.9,3.4c-4.1,7-5.3,15.1-3.3,23c2,7.9,7,14.5,14,18.6c17.4,10.3,39.7,5.3,51.7-5.4
		c-3.4-3.8-5.8-8.3-7.1-13.3c-2.1-8.2-0.9-16.8,3.4-24.1c0.7-1.2,2.2-1.6,3.4-0.9c1.2,0.7,1.6,2.2,0.9,3.4
		c-3.6,6.2-4.7,13.4-2.9,20.3c1.3,5,3.9,9.4,7.5,12.8c0,0,0,0,0,0c0,0,0,0,0,0c1.4,1.3,3,2.5,4.7,3.6c7.8,4.6,17,5.9,25.8,3.7
		c8.8-2.3,16.2-7.8,20.9-15.7c11.9-20.1-14.8-59.5-15.1-59.9c-0.6-0.9-0.6-2,0-2.9C297.1,216.1,307.2,185.1,307.2,152.5z"/>
</g>
<path id="XMLID_3_" class="st1" d="M78.5,122.2c0,0,4.7-34,14.7-34s24,29.3,24,29.3"/>
<path class="st1" d="M215.3,122.2c0,0-4.7-34-14.7-34s-24,29.3-24,29.3"/>
<path id="XMLID_4_" class="st1" d="M126.9,163.6c0,0,8.9,18,20.3,18s19.7-18,19.7-18"/>
</svg>
