<?xml version="1.0" encoding="utf-8"?>
<!-- Generator: Adobe Illustrator 19.0.0, SVG Export Plug-In . SVG Version: 6.00 Build 0)  -->
<svg version="1.1" id="Layer_1" xmlns="http://www.w3.org/2000/svg" xmlns:xlink="http://www.w3.org/1999/xlink" x="0px" y="0px"
	 viewBox="0 0 627 536.5" style="enable-background:new 0 0 627 536.5;" xml:space="preserve">
<style type="text/css">
	.st0{fill:#856D4A;}
	.st1{fill:#558749;}
	.st2{fill:#3B5A32;}
	.st3{fill:none;stroke:#3B5A32;stroke-width:26;stroke-miterlimit:10;}
	.st4{fill:none;stroke:#3B5A32;stroke-width:26;stroke-linecap:round;stroke-miterlimit:10;}
	.st5{fill:#FFFFFF;}
	.st6{fill:#010101;}
</style>
<path class="st0" d="M201.5,205.8c-10.7-8-18.2-25.2-29.7-44.4s-37-38.1-85.5-24.6s-84,47-86,76.5s5,78.5,38,83.5
	s107.7,12.8,151.6-18.8S201.5,205.8,201.5,205.8z"/>
<path class="st0" d="M531.3,363.3c0,0,69,0,82-14s9,44-27,46S538.3,389.3,531.3,363.3z"/>
<path class="st0" d="M280.3,166.3c9.5,3.7,58-18,60-72s11-88-7-94s-64,93-66,103S262.3,159.3,280.3,166.3z"/>
<path class="st0" d="M507.3,299.3c-3.8,12.9,82,3,100-17s29-16,9-21s-60.4-9-72.7,0C531.3,270.3,512.3,282.3,507.3,299.3z"/>
<path class="st0" d="M453.3,406.3c11.1-13.8,33,3,38,27s9,61,0,75s-36,38-56,24s-6-15,0-40s19-40,15-52S445.3,416.3,453.3,406.3z"/>
<path class="st0" d="M245.3,510.3c5.9,21.8-81-21-80-77s32-101,40-108c8-7,40,31,40,31s-14,19-12,51S242.3,499.3,245.3,510.3z"/>
<g>
	<path class="st1" d="M500.3,392.5c0.5-9.2,14-9.2,21-14.2s3.5-14,10-18.5s11-9.5,12-0.5c1.5-6.1-2.2-16.5-9.2-29.3
		c-0.1,0.8-0.2,1.7-0.5,2.6c-2.7,9-19.8,39.2-37.7,32.4c-17.9-6.8-9.8-7.4-11.8-16.7c-2-9.3,34.1-29.7,34.1-29.7
		c4.3,0.2,8.1,1.1,10.9,2.6c-4.5-7.4-9.9-15.5-15.8-23.9c-2,10.2-17.1,23.9-24.9,22.9c-16-2-25.5-22.5-18-23.3
		c7.5-0.8,17-16.2,23-22.2c0.7-0.7,1.4-1.1,2.1-1.3c-23.3-30.2-50.6-61.7-71.2-84.1c-46-50-106-47-136-44c-6,0.6-12.4,1.4-19,2.8
		c5-0.1,8.7,0.5,9,1.7c1,4,4.5,19.5-15.5,24s-27-7-25.5-11.6c0.5-1.7,1.6-3.2,2.9-4.6c-10,4.8-19.9,11.4-29.3,20.8
		c3.2,1.5,3.5,6,6.5,12c4,8-5,20.5-13.5,29c-6,6-15.7,3.3-19.3-1.6c-5.6,16.5-6,36-3,55.5c2.3,0.3,4.2,1.2,4.2,1.2
		c4-2.1,34.5,54.4,32.5,59.9c-1.3,3.7-6.2,8.2-11.2,10c5.5,9,11.3,16.5,17.2,22c4.3,4,10.4,7.7,17.9,11.2
		c-0.5-4.5-1.8-21.5,3.7-20.5c6.4,1.2,50.7,31.2,69.5,28.4c15.4-2.3,10.6,8.7,6.4,14.1c18.1,3.3,36.9,6,54.6,8c-0.1-1.3,0-2.2,0-2.2
		c-0.1-5,7.9-3.9,9.4-5.7c1.5-1.8,75-3.5,82,2.9c3.6,3.3,7,5,8.9,6.4c10.3-2.3,19.7-5.6,27.9-9.6
		C498.8,395.6,500.3,392.5,500.3,392.5z"/>
	<path class="st2" d="M262.8,173.8c20-4.5,16.5-20,15.5-24c-0.3-1.2-4-1.9-9-1.7c-9.4,1.9-19.3,4.8-29.1,9.5
		c-1.3,1.4-2.4,2.9-2.9,4.6C235.8,166.8,242.8,178.3,262.8,173.8z"/>
	<path class="st2" d="M470.4,296.9c-7.5,0.8,2,21.3,18,23.3c7.8,1,22.9-12.8,24.9-22.9c-5.5-7.7-11.5-15.8-17.7-23.9
		c-0.7,0.2-1.4,0.7-2.1,1.3C487.4,280.7,477.9,296.1,470.4,296.9z"/>
	<path class="st2" d="M484.1,348.3c2,9.3-6,9.9,11.8,16.7c17.9,6.8,35-23.5,37.7-32.4c0.3-0.9,0.4-1.8,0.5-2.6
		c-1.5-2.8-3.2-5.7-5-8.7c-2.8-1.5-6.6-2.4-10.9-2.6C518.2,318.6,482.1,339,484.1,348.3z"/>
	<path class="st2" d="M203.9,219.3c8.5-8.5,17.5-21,13.5-29c-3-6-3.3-10.5-6.5-12c-6.9,6.8-13.4,15-19.6,25c-2.8,4.5-5,9.3-6.7,14.4
		C188.2,222.7,197.9,225.3,203.9,219.3z"/>
	<path class="st2" d="M218.3,334.3c2-5.5-28.5-62-32.5-59.9c0,0-2-0.9-4.2-1.2c3.9,25.8,13.8,51.7,25.6,71
		C212.1,342.5,217,337.9,218.3,334.3z"/>
	<path class="st2" d="M315.4,385.4c-18.9,2.8-63.1-27.3-69.5-28.4c-5.6-1-4.2,16-3.7,20.5c19.6,9.1,48.7,16.5,79.6,22.1
		C326,394.1,330.9,383.1,315.4,385.4z"/>
	<path class="st2" d="M385.8,399.6c-1.5,1.8-9.5,0.7-9.4,5.7c0,0-0.1,1,0,2.2c25,2.9,48.1,4.5,64.9,4.8c12.8,0.2,24.6-1.1,35.4-3.5
		c-1.9-1.4-5.3-3.1-8.9-6.4C460.8,396.1,387.3,397.8,385.8,399.6z"/>
	<path class="st2" d="M543.3,359.3c-1-9-5.5-4-12,0.5s-3,13.5-10,18.5s-20.5,5-21,14.2c0,0-1.5,3.2,4.3,6.7
		C526.2,388.6,539.9,373.3,543.3,359.3z"/>
</g>
<ellipse transform="matrix(0.8714 0.4906 -0.4906 0.8714 159.4593 -162.7055)" class="st3" cx="390.1" cy="222.8" rx="50.5" ry="25.3"/>
<path id="XMLID_14_" class="st4" d="M313.5,166.7c-11,12-15.2,71.1,42.3,108.6s104.5,21.1,112-12.5"/>
<path class="st2" d="M240.8,200.3c-4.3,4,3.5,62,27,69.5s30.5-25,30.5-25s-18.5-47.7-16.5-55.1C283.8,182.3,247.8,193.8,240.8,200.3
	z"/>
<path class="st2" d="M282.8,291.3c1.5,10.5,70.3,43.5,78.9,43c8.6-0.5,15.6-14.5,14.6-21.5c-1-7-62.5-34-64.5-51
	S282.8,291.3,282.8,291.3z"/>
<path class="st2" d="M390.1,337.8c8.8,9.5,53.8,14.1,62.8,9.3s6.5-20.3,0-25.3s-48.5,4.5-62.8-6S390.1,337.8,390.1,337.8z"/>
<path class="st2" d="M460.8,368.3c6,2,20.5,11,14.5,13.5s-82.2,10-91.6,3.5c-9.4-6.5-12.7-14-7.3-20S460.8,368.3,460.8,368.3z"/>
<path class="st2" d="M353.3,363.2c0.9,3.1-36,11.6-55-1.9s-45.5-29.7-49.5-36.9c-4-7.1,3.5-8.3,23.5-10.7
	C292.3,311.3,351.3,356.6,353.3,363.2z"/>
<path class="st2" d="M245.6,308.8c-2.3,7.4-21.3,5-27.3,0s-25.5-42.5-23-56c2.5-13.5,10.5-21.5,20-15.3S248.9,298.3,245.6,308.8z"/>
<circle class="st5" cx="74.1" cy="208" r="41.3"/>
<circle class="st6" cx="68.2" cy="204.6" r="15"/>
</svg>
