<?xml version="1.0" encoding="utf-8"?>
<!-- Generator: Adobe Illustrator 19.0.0, SVG Export Plug-In . SVG Version: 6.00 Build 0)  -->
<svg version="1.1" id="Layer_1" xmlns="http://www.w3.org/2000/svg" xmlns:xlink="http://www.w3.org/1999/xlink" x="0px" y="0px"
	 viewBox="0 0 837.7 595.8" style="enable-background:new 0 0 837.7 595.8;" xml:space="preserve">
<style type="text/css">
	.st0{fill:#485BA9;}
	.st1{fill:#CBD3EB;}
	.st2{fill:#010101;}
	.st3{fill:none;stroke:#010101;stroke-width:4;stroke-linecap:round;stroke-miterlimit:10;}
	.st4{fill:#FFFFFF;}
</style>
<path class="st0" d="M408.7,514.4c0,0,8.6,80.7-14.8,81.3c-23.3,0.7-49.3-50.7-47.3-66.7S408.7,514.4,408.7,514.4z"/>
<g>
	<path class="st1" d="M410.3,436.1c-89.3-7-74.7-48-152.7-48s-109,41-180,30C32.1,411,10,378,0,355.3c0,0,4.1,71.6,72.2,126.2
		c9.2,1.8,21.7,3.4,35.4,2.8c36.4-1.8,63.2-18.3,79.7-49c0.8-1.5,2.6-2,4.1-1.2c1.5,0.8,2,2.6,1.2,4.1
		c-17.3,32.3-46.6,50.3-84.9,52.2c-2.3,0.1-4.5,0.2-6.7,0.2c-6.7,0-12.9-0.5-18.5-1.2c1.3,1,2.7,1.9,4.1,2.8c82,55.4,188,47,225,53
		s129-28,164-55c27.3-21.1,65.6-62.2,87.3-85.5C523.8,420.8,464,440.3,410.3,436.1z"/>
	<path class="st2" d="M107.7,490.2c38.2-1.8,67.6-19.9,84.9-52.2c0.8-1.5,0.2-3.3-1.2-4.1c-1.5-0.8-3.3-0.2-4.1,1.2
		c-16.4,30.7-43.3,47.2-79.7,49c-13.7,0.7-26.2-0.9-35.4-2.8c3.3,2.6,6.7,5.2,10.3,7.8c5.6,0.7,11.9,1.2,18.5,1.2
		C103.2,490.4,105.5,490.4,107.7,490.2z"/>
</g>
<path class="st3" d="M236.3,385.4c-8,18.7,7.6,65.3,32.9,76.6"/>
<path class="st3" d="M260.5,387.5c-6,14.1,6.5,49.1,25.5,57.7"/>
<path class="st3" d="M278,389.1c-4,10,4.4,34.8,17.2,40.9"/>
<path class="st0" d="M795.6,201.1c4.3-63.2,44-193,28-200s-55,35-55,35s-46.3,50.7-53,101c-6.7,50.3-54.4,91.5-80,103
	c-22.9,10.2-46.9,7.4-71.7,0.5c-6.9-10.6-14.8-27.8-13.3-49.5c2.2-31.4-32,12-45.4,30c-41-15.3-123.4-56-175.5-67.2
	c-10.6-35.7,12.8-78.9,12.8-78.9s36.7-70,18.7-74.8s-83.3,50.8-110,76.1c-20.9,19.9-59.9,82.1-75.7,107.9
	c-27.4,10.9-52.2,23.2-67.9,34.8C70.3,246.6,12.4,335.9,0,355.3C10,378,32.1,411,77.6,418.1c71,11,102-30,180-30
	c15.1,0,26.8,1.5,36.3,4.1c4.1,19.7,15.4,60.8,40.7,83.6c34,30.7,86,80,165.3,60.7c77.7-18.9-46.5-41.7-46.8-101.4
	c40.7-4.7,80.9-18.4,109.7-30.4c2.3-2.4,4.4-4.7,6.2-6.7c14.1,7.4,37.9,17.6,42.2,7.1c3.6-8.8-2.4-21.2-7.8-29.7
	c36.9-15.3,100.5-30.4,132.1-0.3c49,46.7,87.8,52.8,100.3,12C848.6,346,789.3,295.1,795.6,201.1z"/>
<circle class="st4" cx="194.3" cy="292.7" r="32.3"/>
<circle class="st2" cx="186.3" cy="292.1" r="11.7"/>
</svg>
