<?xml version="1.0" encoding="utf-8"?>
<!-- Generator: Adobe Illustrator 19.0.0, SVG Export Plug-In . SVG Version: 6.00 Build 0)  -->
<svg version="1.1" xmlns="http://www.w3.org/2000/svg" xmlns:xlink="http://www.w3.org/1999/xlink" x="0px" y="0px"
	 viewBox="0 0 478.7 629.1" style="enable-background:new 0 0 478.7 629.1;" xml:space="preserve">
<style type="text/css">
	.st0{fill:#A88A40;}
	.st1{opacity:0.5;fill:#7F5619;}
	.st2{fill:#7F5619;}
	.st3{fill:#BF8826;}
	.st4{fill:#D8962B;}
	.st5{fill:#E2AF71;}
	.st6{fill:#FFFFFF;}
	.st7{fill:#BF7D58;}
	.st8{opacity:0.5;fill:#BFADA3;}
	.st9{fill:#F5A26F;}
	.st10{fill:#FFB199;}
	.st11{fill:#F4E5DC;}
</style>
<g id="lines">
	<g>
		<path class="st0" d="M289.8,545.1c-0.5,0-0.9,0-1.4-0.1c-15.7-2.4-48.8-19.9-45.1-56.3c1-9.4,2.9-19.9,4.8-30
			c4.2-22.3,9.3-50,1.1-58.2c-10.9-10.9-12.5-31-14.1-50.5c-1.1-13.1-2.2-28-6.4-33.3c-18.6-23.8-17.3-66-17.2-67.8
			c0.2-5,4.3-8.9,9.3-8.7c5,0.2,8.8,4.3,8.7,9.3l0,0c0,0.4-1.1,37.5,13.4,56.1c7.5,9.6,8.8,25.8,10.2,43c1.2,15.5,2.6,33,8.8,39.2
			c14.9,14.9,9.3,45.1,3.9,74.2c-1.9,10.2-3.7,19.9-4.6,28.5c-3,29.2,29.6,36.6,29.9,36.7c4.9,0.8,8.3,5.4,7.5,10.3
			C298,541.9,294.1,545.1,289.8,545.1z"/>
	</g>
	<g>
		<path class="st0" d="M353.7,539.1c-1.9,0-3.8-0.6-5.5-1.9c-3.9-3-4.7-8.7-1.6-12.6c0.8-1.2-0.3-11.8-24.3-32.7
			c-14.9-13-26.4-30.5-31.6-47.8c-6-19.9-3.2-37.9,7.8-50.6c5.5-6.4,4.8-15.1,3.2-21.4c-4.1-16.5-18.8-34.2-32.6-39.5
			c-23.2-8.9-29.7-42.4-35.5-72c-2-10.4-3.9-20.1-6.3-27c-1.6-4.7,0.9-9.8,5.6-11.4c4.7-1.6,9.8,0.9,11.4,5.6
			c2.8,8,4.8,18.4,6.9,29.4c4.4,22.5,10.4,53.3,24.3,58.6c19.3,7.4,38,29.8,43.6,52c3.7,14.7,1.2,28-7,37.5
			c-15.6,18.1-0.9,53,22.1,73.1c13.5,11.8,22.6,22.5,27.1,32c6.4,13.3,2.5,21.6-0.4,25.3C359.1,537.9,356.4,539.1,353.7,539.1z"/>
	</g>
	<g>
		<path class="st0" d="M420.9,526.4c-1,0-2-0.2-2.9-0.5c-4.7-1.6-7.2-6.7-5.6-11.4c3.7-10.8,3.6-49-12.9-57.4
			c-21.1-10.8-44.1-28.7-33.5-71.7c5.1-20.5-15.4-35.8-42.6-53.7c-5.2-3.4-10.2-6.7-14.5-9.9c-23.9-17.7-63.6-89.9-68.1-98.1
			c-2.4-4.4-0.8-9.8,3.6-12.2c4.4-2.4,9.8-0.8,12.2,3.6c11.6,21.3,45.4,79.3,62.9,92.2c3.9,2.9,8.6,6,13.7,9.3
			c24.8,16.3,58.7,38.6,50.2,73.1c-7.1,28.8,4,41,24.2,51.3c29.1,14.9,26.5,65.3,21.8,79.3C428.2,524.1,424.7,526.4,420.9,526.4z"/>
	</g>
	<path class="st1" d="M226.8,189.2c-2.9-1.4-4.9-4.4-4.9-7.8c0-2.8,1.3-5.2,3.3-6.8c-2-0.8-4-1.5-6.1-2.1
		c-7.9,4.2-13.3,12.5-13.3,22.1c0,3.7,0.8,7.2,2.3,10.4C214.7,200,221.3,194.7,226.8,189.2z"/>
	<path d="M221.9,181.3c0,3.4,2,6.4,4.9,7.8c3.2-3.3,6.1-6.6,8.5-10c-3.3-1.7-6.6-3.3-10.1-4.7C223.2,176.1,221.9,178.6,221.9,181.3z
		"/>
	<path class="st2" d="M205.8,194.5c0-9.6,5.4-17.9,13.3-22.1c-1.9-0.5-3.9-1-5.8-1.4l-44.5,31c0,0,5.2,8.9,11.9,20.3
		c7.9-4.5,17.8-10.5,27.4-17.5C206.6,201.7,205.8,198.2,205.8,194.5z"/>
	<g>
		<path class="st3" d="M260.9,196.6c0,0,0.4,0.1,1.1,0.2c0.1,0,0.1,0,0.2,0l0.1,0l0.2,0c0.1,0,0.2,0,0.4,0c0.6,0,1.2,0.1,2,0.1
			c3.2,0.2,8.3,0.3,14.8,1.1c6.5,0.8,14.5,2.4,23.3,5.7c8.7,3.3,18.1,8.5,26.6,16.1c8.5,7.5,16.2,17.1,22.2,28.2
			c0.4,0.7,0.8,1.4,1.2,2.1l0.1,0.3l0.2,0.3l0.3,0.5l0.5,1c0.3,0.7,0.7,1.3,1,2c0.3,0.7,0.7,1.3,1,2.1c0.7,1.4,1.4,2.9,2.1,4.4
			c0.7,1.5,1.3,3,2,4.4c1.3,3,2.5,6.1,3.6,9.4c1.1,3.2,2,6.6,2.8,10.1c0.7,3.5,1.2,7.2,1.3,11c0,1.9,0,3.8-0.2,5.6
			c-0.1,1.8-0.4,3.6-0.6,5.2c-0.2,1.6-0.3,2.9-0.2,3.8c0.1,0.9,0.2,1.5,0.5,2.3c0.7,1.5,2.4,3.6,4.6,5.6l1.7,1.5l1.9,1.7
			c1.3,1.2,2.6,2.3,3.9,3.5c2.6,2.3,5.1,4.6,7.7,7c5.1,4.7,10.1,9.6,15,14.6c9.8,10,19.3,20.3,27.8,31.6c4.2,5.7,8.2,11.5,11.6,17.9
			c1.7,3.2,3.2,6.6,4.4,10.2c1.2,3.6,2.1,7.6,2.2,12l0,0.8l0,0.4l0,0.3l0,1.2c0,0.8,0,1.6,0,2.4c0,1.6,0,3.1,0,4.7
			c0,3.1,0,6.2,0.1,9.2c0.1,6.1,0.3,12,0.7,17.8c0.7,11.5,2.1,22.3,3.9,32c0.9,4.8,2,9.4,3.1,13.7c0.6,2.1,1.2,4.2,1.8,6.2
			c0.3,1,0.6,2,1,2.9c0.4,0.9,1,1.8,1.7,2.5c1.5,1.5,3.7,2.7,6,3.6c2.3,0.9,4.5,1.6,6.3,2.4c1.8,0.8,3,1.6,3.8,2.6
			c0.4,0.5,0.6,1,0.9,1.5c0.3,0.5,0.5,1,0.7,1.5c0.2,0.5,0.3,1,0.4,1.5c0.1,0.5,0.2,1,0.3,1.5c0.1,0.5,0.1,1,0.2,1.5
			c0,0.5,0.1,1,0.1,1.5c0,2-0.2,4-0.4,5.8c-0.3,1.8-0.5,3.4-0.7,4.6c-0.1,0.6-0.2,1.1-0.3,1.4c-0.1,0.4-0.1,0.5-0.1,0.5l-0.9,4
			c-1.5,6.4-6.7,10.9-12.8,11.9c0,0-0.2,0-0.6,0.1c-0.4,0-0.9,0.1-1.7,0.1c-0.7,0-1.6,0-2.6,0c-0.5,0-1.1-0.1-1.6-0.2
			c-0.6-0.1-1.2-0.2-1.8-0.3c-1.2-0.3-2.5-0.7-3.9-1.1c-1.4-0.5-2.8-1.2-4.2-2c-0.7-0.4-1.4-0.9-2.2-1.4c-0.7-0.5-1.4-1.1-2-1.7
			c-0.7-0.6-1.4-1.2-2-1.9c-0.7-0.7-1.2-1.4-1.8-2.2c-0.6-0.8-1.2-1.6-1.7-2.5c-0.5-0.9-1-1.8-1.4-2.8c-0.4-1-0.7-2-0.8-3.2
			c-0.1-1.1-0.1-2.3,0-3.6c0.1-1.3,0.3-2.6,0.7-4c0.4-1.4,0.7-2.7,1.1-4.1c0.9-2.8,1.7-5.4,1.8-7.9c0.1-1.2,0-2.4-0.3-3.5
			c-0.3-1.1-0.6-2.3-0.9-3.4c-0.6-2.3-1.1-4.7-1.7-7.1c-1-4.9-1.9-10-2.6-15.4c-1.4-10.7-2.2-22.2-2.4-34.3
			c-0.1-6.1-0.1-12.3,0.1-18.6c0.1-3.2,0.2-6.4,0.3-9.6c0.1-1.6,0.2-3.2,0.2-4.8c0-0.8,0.1-1.6,0.1-2.4l0.1-1.2l0-0.3l0-0.2l0-0.4
			c0-2.1-0.3-4.5-1.1-7.1c-0.8-2.6-1.9-5.3-3.2-8c-2.6-5.4-6-10.8-9.8-16.1c-7.6-10.5-16.5-20.7-25.8-30.5
			c-4.7-4.9-9.5-9.6-14.4-14.3c-2.5-2.3-4.9-4.6-7.4-6.9c-1.2-1.1-2.5-2.2-3.7-3.3l-1.9-1.7l-2.1-1.9c-0.7-0.7-1.4-1.4-2.1-2.1
			c-0.7-0.8-1.4-1.4-2-2.3c-1.3-1.6-2.7-3.6-3.7-5.8c-1.1-2.3-1.7-5-1.8-7.4c-0.1-2.4,0.1-4.4,0.3-6.1c0.4-3.4,0.6-6.1,0.5-8.9
			c-0.1-2.8-0.5-5.5-1.1-8.3c-1.2-5.6-3.3-11.2-5.7-16.5c-0.6-1.3-1.3-2.7-1.9-4c-0.7-1.3-1.3-2.6-1.9-3.8c-0.3-0.6-0.7-1.3-1-2
			c-0.4-0.7-0.7-1.3-1.1-2l-0.5-1l-0.3-0.5l-0.1-0.1c0,0-0.1-0.2,0,0l-0.1-0.2c-0.4-0.6-0.7-1.2-1.1-1.8c-2.8-4.8-5.9-9.1-9.2-13
			c-3.3-3.9-6.8-7.3-10.4-10.2c-7.2-5.9-14.9-9.5-21.9-11.8c-7.1-2.2-13.6-3.1-19.1-3.3c-5.5-0.2-9.8,0-13.1,0.1
			c-0.9,0-1.6,0.1-2.3,0.1c-0.2,0-0.3,0-0.5,0c-0.1,0-0.2,0-0.2,0c-0.1,0-0.2,0-0.3,0c-0.4,0-0.8,0-1.2,0c-1,0-1.5-0.1-1.5-0.1
			c-5.8-0.3-10.3-5.2-10-11c0.3-5.8,5.2-10.3,11-10c0.3,0,0.7,0,1,0.1L260.9,196.6z"/>
	</g>
	<path class="st4" d="M225.3,166.6c1-6-7.7-10.3-16.2-7.6c-1.4,0.5-3.3-2.7-3.3-2.7c-1.9-11.7-13.1-26-47.2-65.5
		C104.9,28.4,33,20.1,25.8,19.1C25.3,14.4,18.5-3.4,0,0.6c3.3,18.4,8.8,22,16,25.9c0.3,13.8,0.6,21.6,9.9,38.3
		c9.3,16.7,74.6,86,86.3,94.7c22.8,16.9,38.3,30.3,48,34.8c-2.7,10.7-4.7,13.4,2.3,17.1C171,215.8,223.5,177.4,225.3,166.6z"/>
	<g>
		<path class="st5" d="M57.4,32.8c0,0,0.1,0,0.3,0c0.1,0,0.3,0,0.4,0c0.2,0,0.5,0,0.8,0.1c0.5,0.1,1.2,0.1,2,0.2
			c0.7,0.1,1.5,0.2,2.3,0.4c1.7,0.3,3.7,0.8,6,1.4c1.1,0.3,2.3,0.6,3.6,1c1.3,0.4,2.5,0.8,3.9,1.3c2.7,0.9,5.6,2,8.6,3.3
			c1.5,0.6,3,1.3,4.6,2c1.6,0.7,3.1,1.4,4.7,2.3c1.6,0.8,3.2,1.6,4.8,2.5c1.6,0.9,3.2,1.8,4.8,2.7c3.2,1.9,6.4,3.9,9.6,6.1
			c3.2,2.1,6.2,4.5,9.1,6.9c1.4,1.2,2.9,2.5,4.3,3.7c1.3,1.3,2.7,2.5,4,3.8c2.5,2.6,4.9,5.2,7,7.9c1.1,1.3,2,2.6,2.9,4
			c0.9,1.3,1.8,2.6,2.5,3.9c0.8,1.3,1.5,2.5,2.1,3.8c0.6,1.2,1.2,2.4,1.7,3.5c0.5,1.1,0.9,2.2,1.3,3.2c0.3,1,0.6,2,0.8,2.8
			c0.1,0.4,0.2,0.8,0.3,1.2c0.1,0.4,0.2,0.8,0.2,1.1c0.1,0.7,0.2,1.2,0.3,1.7c0.2,0.9,0.2,1.4,0.2,1.4c0.2,1.7-1,3.2-2.7,3.4
			c-1,0.1-2-0.3-2.7-1l-0.2-0.3c0,0-0.3-0.3-0.8-1c-0.3-0.3-0.6-0.7-0.9-1.2c-0.2-0.2-0.4-0.5-0.6-0.8c-0.2-0.3-0.5-0.5-0.7-0.8
			c-0.5-0.6-1-1.2-1.6-1.9c-0.6-0.7-1.3-1.4-2-2.2c-0.7-0.8-1.5-1.6-2.3-2.4c-0.4-0.4-0.8-0.9-1.2-1.3c-0.4-0.4-0.9-0.9-1.4-1.3
			c-0.5-0.4-0.9-0.9-1.4-1.4c-0.5-0.5-1-0.9-1.5-1.4c-0.5-0.5-1-1-1.6-1.4c-0.5-0.5-1.1-0.9-1.7-1.4c-1.1-1-2.3-1.9-3.5-2.9
			c-1.2-1-2.5-2-3.7-3c-2.5-2-5.2-4.1-7.9-6.2c-2.8-2-5.6-4.1-8.4-6.2c-2.9-2-5.7-4.1-8.6-6.1c-2.9-2-5.7-3.9-8.5-5.8
			c-2.8-1.9-5.5-3.7-8-5.4c-2.6-1.7-5-3.3-7.3-4.8c-2.3-1.5-4.3-2.8-6.2-4c-1.8-1.2-3.4-2.2-4.7-3.1c-0.6-0.4-1.2-0.8-1.7-1.1
			c-0.2-0.2-0.5-0.3-0.7-0.4c-0.2-0.1-0.3-0.2-0.4-0.3c-0.1-0.1-0.2-0.2-0.3-0.2c-0.2-0.1-0.3-0.1-0.4-0.2c-0.2-0.1-0.3-0.1-0.3-0.1
			l-0.1,0c-1.6-0.7-2.3-2.5-1.6-4C55.2,33.5,56.3,32.9,57.4,32.8z"/>
	</g>
	<g>
		<path class="st3" d="M221.3,246.9c0,0,0.1,0.4,0.2,1.2c0.1,0.8,0.3,1.9,0.5,3.4c0.4,2.9,1,7.2,1.6,12.7c0.6,5.5,1.3,12.1,2,19.7
			c0.3,3.8,0.6,7.9,0.9,12.1c0.3,4.3,0.5,8.8,0.7,13.5c0.3,9.4,0.4,19.7-0.3,30.6c-0.3,5.5-0.9,11.1-1.7,16.9
			c-0.9,5.8-2,11.7-3.9,17.7c-0.9,3-2,6-3.4,9c-0.7,1.5-1.4,3-2.2,4.5l-1.1,2c-0.4,0.6-0.8,1.3-1,1.8c-0.3,0.5-0.5,1-0.8,1.6
			c-0.3,0.6-0.5,1.1-0.8,1.7c-0.5,1.2-0.9,2.3-1.3,3.5c-0.7,2.4-1.2,4.8-1.4,7.4c-0.9,10,2.6,20.8,8,31.1c2.6,5.2,5.7,10.3,8.8,15.5
			c3.2,5.2,6.5,10.5,9.5,16.2c1.5,2.9,3,5.9,4.2,9.1c0.6,1.6,1.2,3.3,1.7,5c0.2,0.9,0.5,1.8,0.7,2.7l0.1,0.3l0,0.2l0.1,0.4l0.1,0.5
			l0.1,0.5c0,0.1,0,0.2,0.1,0.3l0.1,0.4c0.1,0.5,0.1,1.1,0.2,1.6l0.1,1.4c0,0.9,0.1,1.8,0.1,2.7c0,1.8-0.1,3.5-0.2,5.1
			c-0.2,3.3-0.7,6.4-1.1,9.4c-0.9,6-2,11.5-2.9,16.9c-0.9,5.4-1.7,10.5-2.2,15.5c-0.5,4.9-0.7,9.7-0.6,14.1c0.1,2.2,0.2,4.4,0.5,6.5
			c0.3,2.1,0.9,4.1,1.8,5.9c1.6,3.7,4.3,6.7,7,9.1c2.7,2.4,5.4,4.2,7.7,5.8c2.3,1.6,4.1,3.2,5.7,4.8c0.8,0.8,1.5,1.6,2.2,2.4
			c0.6,0.8,1.2,1.7,1.7,2.6c0.5,0.9,0.9,1.8,1.2,2.8c0.4,1,0.7,1.9,0.9,2.9c0.3,1,0.5,2,0.6,3c0.1,0.5,0.2,0.9,0.2,1.4
			c0.1,0.5,0.1,0.9,0.2,1.4c0.2,1.8,0.3,3.4,0.3,4.5c0,0.6,0,1,0,1.3c0,0.3,0,0.5,0,0.5l-0.1,2c-0.4,7.3-5.3,13.4-11.8,15.6
			c0,0-0.2,0.1-0.5,0.2c-0.3,0.1-0.8,0.2-1.4,0.4c-1.2,0.3-3,0.6-5.1,0.7c-4.2,0.1-10.1-0.7-15.8-4.7c-0.7-0.5-1.4-1-2.1-1.6
			c-0.7-0.6-1.4-1.2-2.1-1.9c-0.7-0.7-1.3-1.4-2-2.2c-0.7-0.8-1.3-1.6-1.9-2.5c-2.5-3.5-4.7-7.7-6.2-12.5
			c-1.5-4.8-2.2-10.3-2.4-15.8c-0.1-5.5,0.3-11.1,0.5-16.5c0.1-2.7,0.2-5.4,0.2-8.1c0-2.7-0.1-5.4,0.1-8.2c0.2-5.5,0.8-11,1.7-16.5
			c1.8-11,4.8-22.2,7-32.9c0.6-2.7,1-5.3,1.3-7.9c0.2-1.3,0.3-2.5,0.3-3.7c0-0.6,0-1.2,0-1.7l0-0.8l0-0.6c-0.3-4.3-2.3-9.2-4.7-14.3
			c-2.4-5.1-5.4-10.3-8.4-15.6c-3.1-5.3-6.2-10.9-9-16.7c-2.8-5.8-5.4-12-7.1-18.6c-1.7-6.6-2.6-13.7-1.9-20.7c0.4-3.5,1-7,2-10.4
			c0.5-1.7,1.1-3.3,1.8-4.9c0.3-0.8,0.7-1.6,1-2.4c0.3-0.8,0.8-1.6,1.2-2.4c0.4-0.9,0.8-1.4,1.1-2.1l1-1.8c0.6-1.1,1.1-2.2,1.7-3.4
			c1-2.3,1.9-4.8,2.6-7.3c1.5-5,2.5-10.3,3.1-15.5c0.7-5.2,1-10.4,1.2-15.5c0.2-5.1,0.1-10.1,0-14.9c-0.2-4.8-0.4-9.5-0.8-14
			c-0.7-9-1.7-17.2-2.8-24.5c-1.1-7.3-2.2-13.6-3.3-18.8c-1-5.2-1.9-9.2-2.6-11.9c-0.3-1.3-0.6-2.4-0.8-3.1c-0.2-0.7-0.3-1-0.3-1
			l0,0c-1.5-5.7,1.9-11.5,7.6-13c5.7-1.5,11.5,1.9,13,7.6C221.2,246.2,221.3,246.6,221.3,246.9z"/>
	</g>
	<g>
		<path class="st3" d="M322.2,539.1c-1.3,0-2.6-0.3-3.9-0.9c-21-10.2-21.5-34.8-21.9-56.6c-0.3-17.3-0.6-33.7-9.9-40.2
			c-23-16.2-12.5-53.6-3.4-86.6c4.2-15,8.1-29.2,8-38.2c-0.4-42.8-58.8-72.2-59.4-72.5c-4.5-2.2-6.3-7.6-4.1-12.1
			c2.2-4.5,7.6-6.3,12-4.1c2.8,1.4,68.9,34.6,69.4,88.5c0.1,11.5-4.2,26.9-8.7,43.2c-7.2,25.9-16.2,58.2-3.6,67
			c16.7,11.8,17.2,34.5,17.5,54.6c0.4,21.3,1.4,35.7,11.7,40.7c4.5,2.2,6.3,7.5,4.2,12C328.8,537.2,325.6,539.1,322.2,539.1z"/>
	</g>
	<g>
		<path class="st3" d="M390.2,521.1c-1.5,0-3-0.4-4.4-1.2c-4.3-2.5-5.8-8-3.4-12.3c3.1-5.4,6.2-18.1,1.6-29.3
			c-3.5-8.4-10.7-14.1-21.4-17.1c-17.2-4.8-28.9-13.6-34.8-26.2c-6.8-14.8-5.1-33.6,5.2-55.8c15.2-32.8,6.4-48.9-3.9-67.5
			c-6-11-12.3-22.3-13.3-36.9c-1.8-26.1-50.3-40.3-68.7-43.6c-4.9-0.9-8.2-5.5-7.3-10.4c0.9-4.9,5.5-8.2,10.4-7.3
			c0.8,0.1,19.6,3.5,39.1,12c35,15.2,43.5,34.5,44.5,48.1c0.8,10.7,5.8,19.8,11.1,29.5c11,20,23.5,42.8,4.4,83.8
			c-5.5,11.8-10.9,28.4-5.2,40.6c3.5,7.6,11.3,13.1,23.2,16.4c20.4,5.6,29.3,18.1,33.2,27.6c6.7,16.2,3.4,34.7-2.6,45.1
			C396.4,519.4,393.4,521.1,390.2,521.1z"/>
	</g>
	<g>
		<path class="st3" d="M267.2,545.1c-1,0-2.1-0.2-3.1-0.6c-4.7-1.7-7.1-6.9-5.4-11.5c13.6-37.2,8.7-48.5,1.4-55.3
			c-15.1-13.9-25.4-32.7-29.8-54.4c-3.5-17.5-3-36.7,1.4-52.6c2.2-7.9,6.6-14,10.5-19.4c6.9-9.7,11.1-15.5,5.1-29l-0.4-0.9
			c-13.8-31.2-27.6-65.6-25.2-83.5c0.7-4.9,5.2-8.4,10.1-7.7c4.9,0.7,8.4,5.2,7.7,10.1c-1.4,10.1,6.6,34.9,23.8,73.8l0.4,0.9
			c10.1,22.9,0.7,36.1-6.9,46.8c-3.3,4.6-6.4,8.9-7.7,13.8c-7.2,25.9-3,64.9,23.2,89c16.3,15,17.3,36.7,3.4,74.7
			C274.4,542.8,270.9,545.1,267.2,545.1z"/>
	</g>
	<path class="st6" d="M230.7,190.1c-1.4,0-2.7-0.3-3.9-0.9c-5.5,5.5-12,10.9-18.8,15.7c3.9,8.6,12.6,14.5,22.6,14.5
		c13.8,0,24.9-11.2,24.9-24.9c0-1-0.1-1.9-0.2-2.9c-4.8-3.1-10.1-6.8-16-10.2C239.3,186.2,235.5,190.1,230.7,190.1z"/>
	<path d="M230.7,190.1c4.8,0,8.7-3.9,8.7-8.6c-1.3-0.8-2.7-1.5-4.1-2.3c-2.4,3.4-5.3,6.7-8.5,10C228,189.7,229.3,190.1,230.7,190.1z
		"/>
	<path class="st3" d="M271.3,199.6c-3.7-0.2-9.2-3.6-15.8-8c0.1,0.9,0.2,1.9,0.2,2.9c0,13.8-11.2,24.9-24.9,24.9
		c-10,0-18.7-5.9-22.6-14.5c-9.6,7-19.5,13-27.4,17.5c7.6,12.8,17,28.7,23.1,38.2C215.3,278.6,281.3,200.1,271.3,199.6z"/>
</g>
<g id="expanded">
	<g>
		<path class="st7" d="M291.1,527.2c-0.3-0.1-32.9-7.5-29.9-36.7c0.9-8.6,2.7-18.3,4.6-28.5c5.4-29.2,11.1-59.3-3.9-74.2
			c-6.2-6.2-7.6-23.7-8.8-39.2c-1.4-17.2-2.7-33.4-10.2-43c-14.5-18.6-13.4-55.8-13.4-56.1c0.2-5-3.7-9.1-8.7-9.3
			c-5-0.2-9.1,3.7-9.3,8.7c-0.1,1.8-1.3,44,17.2,67.8c4.2,5.4,5.4,20.2,6.4,33.3c1.6,19.5,3.2,39.6,14.1,50.5
			c8.2,8.2,3.1,35.9-1.1,58.2c-1.9,10.1-3.9,20.6-4.8,30c-3.7,36.4,29.4,53.9,45.1,56.3c0.5,0.1,0.9,0.1,1.4,0.1
			c4.4,0,8.2-3.2,8.9-7.6C299.4,532.5,296,527.9,291.1,527.2z"/>
		<path class="st7" d="M407.7,441.1c-20.2-10.3-31.3-22.5-24.2-51.3c8.5-34.5-25.4-56.8-50.2-73.1c-5-3.3-9.8-6.4-13.7-9.3
			c-17.5-13-51.4-71-62.9-92.2c-2.4-4.4-7.8-6-12.2-3.6c-4.1,2.2-5.8,7.1-4,11.3c-2.2-1.3-4.9-1.7-7.5-0.8
			c-4.7,1.6-7.2,6.7-5.6,11.4c2.3,6.8,4.3,16.6,6.3,27c5.7,29.6,12.3,63.1,35.5,72c13.9,5.3,28.5,23.1,32.6,39.5
			c1.6,6.3,2.3,15.1-3.2,21.4c-11,12.7-13.7,30.7-7.8,50.6c5.2,17.4,16.7,34.8,31.6,47.8c24,21,25.1,31.5,24.3,32.7
			c-3,3.9-2.3,9.6,1.6,12.6c1.6,1.3,3.6,1.9,5.5,1.9c2.7,0,5.4-1.2,7.1-3.5c2.9-3.8,6.8-12,0.4-25.3c-4.5-9.4-13.6-20.2-27.1-32
			c-23-20.1-37.7-55-22.1-73.1c8.2-9.5,10.7-22.9,7-37.5c-5.6-22.2-24.3-44.5-43.6-52c-13.9-5.3-19.9-36.1-24.3-58.6
			c-1.7-8.7-3.3-17-5.3-24.1c12.4,22.1,43.1,74.2,62.9,88.9c4.3,3.2,9.3,6.4,14.5,9.9c27.2,17.9,47.7,33.2,42.6,53.7
			c-10.6,42.9,12.3,60.9,33.5,71.7c16.5,8.5,16.6,46.6,12.9,57.4c-1.6,4.7,0.9,9.8,5.6,11.4c1,0.3,1.9,0.5,2.9,0.5
			c3.7,0,7.2-2.4,8.5-6.1C434.2,506.4,436.8,455.9,407.7,441.1z"/>
	</g>
	<path class="st8" d="M226.8,189.2c-2.9-1.4-4.9-4.4-4.9-7.8c0-2.8,1.3-5.2,3.3-6.8c-2-0.8-4-1.5-6.1-2.1
		c-7.9,4.2-13.3,12.5-13.3,22.1c0,3.7,0.8,7.2,2.3,10.4C214.7,200,221.3,194.7,226.8,189.2z"/>
	<path d="M221.9,181.3c0,3.4,2,6.4,4.9,7.8c3.2-3.3,6.1-6.6,8.5-10c-3.3-1.7-6.6-3.3-10.1-4.7C223.2,176.1,221.9,178.6,221.9,181.3z
		"/>
	<path class="st7" d="M205.8,194.5c0-9.6,5.4-17.9,13.3-22.1c-1.9-0.5-3.9-1-5.8-1.4l-44.5,31c0,0,5.2,8.9,11.9,20.3
		c7.9-4.5,17.8-10.5,27.4-17.5C206.6,201.7,205.8,198.2,205.8,194.5z"/>
	<path class="st9" d="M225.3,166.6c1-6-7.7-10.3-16.2-7.6c-1.4,0.5-3.3-2.7-3.3-2.7c-1.9-11.7-13.1-26-47.2-65.5
		C104.9,28.4,33,20.1,25.8,19.1C25.3,14.4,18.5-3.4,0,0.6c3.3,18.4,8.8,22,16,25.9c0.3,13.8,0.6,21.6,9.9,38.3
		c9.3,16.7,74.6,86,86.3,94.7c22.8,16.9,38.3,30.3,48,34.8c-2.7,10.7-4.7,13.4,2.3,17.1C171,215.8,223.5,177.4,225.3,166.6z"/>
	<g>
		<path class="st10" d="M57.4,32.8c0,0,0.1,0,0.3,0c0.1,0,0.3,0,0.4,0c0.2,0,0.5,0,0.8,0.1c0.5,0.1,1.2,0.1,2,0.2
			c0.7,0.1,1.5,0.2,2.3,0.4c1.7,0.3,3.7,0.8,6,1.4c1.1,0.3,2.3,0.6,3.6,1c1.3,0.4,2.5,0.8,3.9,1.3c2.7,0.9,5.6,2,8.6,3.3
			c1.5,0.6,3,1.3,4.6,2c1.6,0.7,3.1,1.4,4.7,2.3c1.6,0.8,3.2,1.6,4.8,2.5c1.6,0.9,3.2,1.8,4.8,2.7c3.2,1.9,6.4,3.9,9.6,6.1
			c3.2,2.1,6.2,4.5,9.1,6.9c1.4,1.2,2.9,2.5,4.3,3.7c1.3,1.3,2.7,2.5,4,3.8c2.5,2.6,4.9,5.2,7,7.9c1.1,1.3,2,2.6,2.9,4
			c0.9,1.3,1.8,2.6,2.5,3.9c0.8,1.3,1.5,2.5,2.1,3.8c0.6,1.2,1.2,2.4,1.7,3.5c0.5,1.1,0.9,2.2,1.3,3.2c0.3,1,0.6,2,0.8,2.8
			c0.1,0.4,0.2,0.8,0.3,1.2c0.1,0.4,0.2,0.8,0.2,1.1c0.1,0.7,0.2,1.2,0.3,1.7c0.2,0.9,0.2,1.4,0.2,1.4c0.2,1.7-1,3.2-2.7,3.4
			c-1,0.1-2-0.3-2.7-1l-0.2-0.3c0,0-0.3-0.3-0.8-1c-0.3-0.3-0.6-0.7-0.9-1.2c-0.2-0.2-0.4-0.5-0.6-0.8c-0.2-0.3-0.5-0.5-0.7-0.8
			c-0.5-0.6-1-1.2-1.6-1.9c-0.6-0.7-1.3-1.4-2-2.2c-0.7-0.8-1.5-1.6-2.3-2.4c-0.4-0.4-0.8-0.9-1.2-1.3c-0.4-0.4-0.9-0.9-1.4-1.3
			c-0.5-0.4-0.9-0.9-1.4-1.4c-0.5-0.5-1-0.9-1.5-1.4c-0.5-0.5-1-1-1.6-1.4c-0.5-0.5-1.1-0.9-1.7-1.4c-1.1-1-2.3-1.9-3.5-2.9
			c-1.2-1-2.5-2-3.7-3c-2.5-2-5.2-4.1-7.9-6.2c-2.8-2-5.6-4.1-8.4-6.2c-2.9-2-5.7-4.1-8.6-6.1c-2.9-2-5.7-3.9-8.5-5.8
			c-2.8-1.9-5.5-3.7-8-5.4c-2.6-1.7-5-3.3-7.3-4.8c-2.3-1.5-4.3-2.8-6.2-4c-1.8-1.2-3.4-2.2-4.7-3.1c-0.6-0.4-1.2-0.8-1.7-1.1
			c-0.2-0.2-0.5-0.3-0.7-0.4c-0.2-0.1-0.3-0.2-0.4-0.3c-0.1-0.1-0.2-0.2-0.3-0.2c-0.2-0.1-0.3-0.1-0.4-0.2c-0.2-0.1-0.3-0.1-0.3-0.1
			l-0.1,0c-1.6-0.7-2.3-2.5-1.6-4C55.2,33.5,56.3,32.9,57.4,32.8z"/>
	</g>
	<path d="M230.7,190.1c4.8,0,8.7-3.9,8.7-8.6c-1.3-0.8-2.7-1.5-4.1-2.3c-2.4,3.4-5.3,6.7-8.5,10C228,189.7,229.3,190.1,230.7,190.1z
		"/>
	<path class="st9" d="M478.6,528.2c0-0.5-0.1-1-0.2-1.5c-0.1-0.5-0.2-1-0.3-1.5c-0.1-0.5-0.3-1-0.4-1.5c-0.2-0.5-0.4-1-0.7-1.5
		c-0.2-0.5-0.5-1.1-0.9-1.5c-0.8-0.9-2-1.8-3.8-2.6c-1.8-0.7-4-1.5-6.3-2.4c-2.3-0.9-4.5-2-6-3.6c-0.7-0.8-1.3-1.6-1.7-2.5
		c-0.4-0.9-0.6-1.9-1-2.9c-0.7-2-1.2-4-1.8-6.2c-1.1-4.3-2.2-8.8-3.1-13.7c-1.8-9.7-3.2-20.4-3.9-32c-0.4-5.8-0.6-11.7-0.7-17.8
		c-0.1-3-0.1-6.1-0.1-9.2c0-1.6,0-3.1,0-4.7c0-0.8,0-1.6,0-2.4l0-1.2l0-0.3l0-0.4l0-0.8c-0.1-4.4-1-8.4-2.2-12
		c-1.2-3.6-2.7-7-4.4-10.2c-3.4-6.4-7.4-12.3-11.6-17.9c-8.5-11.3-18-21.6-27.8-31.6c-4.9-5-9.9-9.8-15-14.6c-2.5-2.4-5.1-4.7-7.7-7
		c-1.3-1.2-2.6-2.3-3.9-3.5l-1.9-1.7l-1.7-1.5c-2.2-2-3.9-4.1-4.6-5.6c-0.3-0.8-0.5-1.3-0.5-2.3c0-0.9,0.1-2.2,0.2-3.8
		c0.2-1.6,0.4-3.4,0.6-5.2c0.1-1.9,0.2-3.7,0.2-5.6c-0.1-3.8-0.5-7.5-1.3-11c-0.7-3.5-1.7-6.9-2.8-10.1c-1.1-3.2-2.3-6.3-3.6-9.4
		c-0.7-1.5-1.3-3-2-4.4c-0.7-1.5-1.4-2.9-2.1-4.4c-0.4-0.7-0.7-1.4-1-2.1c-0.3-0.7-0.7-1.3-1-2l-0.5-1l-0.3-0.5l-0.2-0.3l-0.1-0.3
		c-0.4-0.7-0.8-1.4-1.2-2.1c-6-11.1-13.7-20.6-22.2-28.2c-8.5-7.6-17.9-12.8-26.6-16.1c-8.7-3.3-16.8-4.9-23.3-5.7
		c-6.5-0.8-11.6-0.9-14.8-1.1c-0.3,0-0.5,0-0.7,0c-2.6-1.4-5.4-3.2-8.6-5.3c0.1,0.9,0.2,1.9,0.2,2.9c0,0.9,0,1.8-0.1,2.6
		c-3.8,1.4-6.6,5-6.8,9.4c-0.1,1.6,0.2,3.1,0.8,4.4c-0.8,1-1.8,1.9-2.7,2.7c-2,0.5-3.7,1.6-5,3.2c-3.3,1.6-7,2.5-11,2.5
		c-10,0-18.7-5.9-22.6-14.5c-9.6,7-19.5,13-27.4,17.5c6.9,11.8,15.5,26.1,21.6,35.8c0.5,2.4,1.2,5.5,1.9,9.1
		c1.1,5.2,2.2,11.5,3.3,18.8c1.1,7.3,2.1,15.5,2.8,24.5c0.4,4.5,0.6,9.2,0.8,14c0.2,4.8,0.2,9.8,0,14.9c-0.2,5.1-0.5,10.3-1.2,15.5
		c-0.7,5.2-1.7,10.4-3.1,15.5c-0.7,2.5-1.6,5-2.6,7.3c-0.5,1.2-1.1,2.3-1.7,3.4l-1,1.8c-0.4,0.7-0.7,1.2-1.1,2.1
		c-0.4,0.8-0.8,1.6-1.2,2.4c-0.4,0.8-0.7,1.6-1,2.4c-0.7,1.6-1.2,3.2-1.8,4.9c-1,3.3-1.7,6.8-2,10.4c-0.7,7.1,0.2,14.2,1.9,20.7
		c1.7,6.6,4.3,12.8,7.1,18.6c2.8,5.8,5.9,11.3,9,16.7c3,5.3,6,10.6,8.4,15.6c2.4,5.1,4.4,10,4.7,14.3l0,0.6l0,0.8c0,0.6,0,1.1,0,1.7
		c0,1.2-0.2,2.4-0.3,3.7c-0.3,2.5-0.8,5.2-1.3,7.9c-2.2,10.8-5.3,21.9-7,32.9c-0.9,5.5-1.5,11.1-1.7,16.5c-0.1,2.7-0.1,5.5-0.1,8.2
		c0,2.7-0.1,5.4-0.2,8.1c-0.2,5.4-0.6,11-0.5,16.5c0.1,5.5,0.9,10.9,2.4,15.8c1.5,4.8,3.7,9,6.2,12.5c0.6,0.9,1.3,1.7,1.9,2.5
		c0.7,0.8,1.3,1.5,2,2.2c0.7,0.7,1.4,1.3,2.1,1.9c0.7,0.6,1.4,1.1,2.1,1.6c5.8,4,11.6,4.8,15.8,4.7c2.1-0.1,3.9-0.4,5.1-0.7
		c0.6-0.2,1.1-0.3,1.4-0.4c0.3-0.1,0.5-0.2,0.5-0.2c6.6-2.2,11.5-8.2,11.8-15.6l0.1-2c0,0,0-0.2,0-0.5c0-0.3,0-0.8,0-1.3
		c0-1.2-0.1-2.7-0.3-4.5c-0.1-0.4-0.1-0.9-0.2-1.4c-0.1-0.5-0.2-0.9-0.2-1.4c-0.1-1-0.3-2-0.6-3c-0.2-1-0.5-2-0.9-2.9
		c-0.3-1-0.8-1.9-1.2-2.8c-0.5-0.9-1-1.8-1.7-2.6c-0.7-0.8-1.4-1.6-2.2-2.4c-1.6-1.6-3.4-3.1-5.7-4.8c-2.2-1.6-5-3.4-7.7-5.8
		c-2.7-2.4-5.3-5.4-7-9.1c-0.8-1.8-1.4-3.8-1.8-5.9c-0.3-2.1-0.4-4.3-0.5-6.5c-0.1-4.5,0.1-9.2,0.6-14.1c0.5-4.9,1.3-10.1,2.2-15.5
		c0.9-5.4,2-11,2.9-16.9c0.5-3,0.9-6.1,1.1-9.4c0.1-1.6,0.2-3.3,0.2-5.1c0-0.9,0-1.8-0.1-2.7l-0.1-1.4c0-0.5-0.1-1.1-0.2-1.6
		l-0.1-0.4c0-0.1,0-0.3-0.1-0.3l-0.1-0.5l-0.1-0.5l-0.1-0.4l0-0.2l-0.1-0.3c-0.2-0.9-0.4-1.8-0.7-2.7c-0.5-1.7-1.1-3.4-1.7-5
		c-1.2-3.2-2.7-6.2-4.2-9.1c-3-5.7-6.3-11-9.5-16.2c-3.1-5.2-6.2-10.3-8.8-15.5c-5.4-10.3-8.8-21-8-31.1c0.2-2.5,0.7-5,1.4-7.4
		c0.4-1.2,0.8-2.4,1.3-3.5c0.2-0.6,0.5-1.2,0.8-1.7c0.3-0.6,0.5-1.1,0.8-1.6c0.2-0.5,0.6-1.2,1-1.8l1.1-2c0.8-1.5,1.5-3,2.2-4.5
		c1.3-3,2.4-6,3.4-9c1.9-6,3-11.9,3.9-17.7c0.9-5.8,1.4-11.4,1.7-16.9c0.6-10.9,0.6-21.2,0.3-30.6c-0.2-4.7-0.4-9.2-0.7-13.5
		c-0.3-4.3-0.6-8.3-0.9-12.1c-0.6-7.6-1.4-14.2-2-19.7c-0.3-2.6-0.6-4.9-0.8-6.9c0.2-0.1,0.4-0.3,0.6-0.4
		c4,18.3,13.8,42.2,23.7,64.4l0.4,0.9c6,13.5,1.8,19.3-5.1,29c-3.9,5.4-8.3,11.5-10.5,19.4c-4.4,16-5,35.1-1.4,52.6
		c4.4,21.7,14.7,40.5,29.8,54.4c7.3,6.8,12.3,18.1-1.4,55.3c-1.7,4.7,0.7,9.8,5.4,11.5c1,0.4,2.1,0.6,3.1,0.6c3.7,0,7.1-2.3,8.5-5.9
		c13.9-38,13-59.7-3.4-74.7c-26.2-24.1-30.4-63.1-23.2-89c1.3-4.8,4.5-9.2,7.7-13.8c7.6-10.6,17.1-23.8,6.9-46.8l-0.4-0.9
		c-13.5-30.5-21.4-52.4-23.4-65.3c16.2,9.9,50.9,34.9,51.3,67.9c0.1,9-3.9,23.2-8,38.2c-9.2,33-19.6,70.4,3.4,86.6
		c9.3,6.5,9.6,22.9,9.9,40.2c0.4,21.7,0.8,46.4,21.9,56.6c1.3,0.6,2.6,0.9,3.9,0.9c3.3,0,6.6-1.9,8.1-5.1c2.2-4.5,0.3-9.9-4.2-12
		c-10.3-5-11.3-19.3-11.7-40.7c-0.4-20.1-0.8-42.8-17.5-54.6c-12.6-8.9-3.6-41.1,3.6-67c4.5-16.3,8.8-31.7,8.7-43.2
		c-0.4-42.3-41.2-71.9-60.1-83.3c0.4-0.4,0.8-0.9,1.2-1.3c20.3,4.2,63.8,18.3,65.6,43c1,14.6,7.3,26,13.3,36.9
		c10.3,18.7,19.1,34.8,3.9,67.5c-10.3,22.2-12.1,41-5.2,55.8c5.8,12.6,17.5,21.4,34.8,26.2c10.7,3,17.9,8.7,21.4,17.1
		c4.6,11.2,1.5,23.9-1.6,29.3c-2.5,4.3-1,9.8,3.4,12.3c1.4,0.8,2.9,1.2,4.4,1.2c3.1,0,6.2-1.6,7.8-4.5c5.9-10.4,9.2-28.9,2.6-45.1
		c-3.9-9.5-12.8-21.9-33.2-27.6c-11.9-3.3-19.7-8.8-23.2-16.4c-5.6-12.2-0.3-28.8,5.2-40.6c19.1-41,6.6-63.7-4.4-83.8
		c-5.3-9.7-10.4-18.8-11.1-29.5c-1-13.5-9.5-32.9-44.5-48.1c-8.1-3.5-16.1-6.1-22.7-8c3-0.1,6.7-0.2,11.1,0c5.5,0.2,12,1.1,19.1,3.3
		c7.1,2.2,14.7,5.9,21.9,11.8c3.6,2.9,7.1,6.3,10.4,10.2c3.3,3.9,6.4,8.2,9.2,13c0.4,0.6,0.7,1.2,1.1,1.8l0.1,0.2c-0.1-0.1,0,0,0,0
		l0.1,0.1l0.3,0.5l0.5,1c0.4,0.7,0.7,1.3,1.1,2c0.4,0.7,0.7,1.3,1,2c0.6,1.3,1.3,2.5,1.9,3.8c0.6,1.3,1.2,2.6,1.9,4
		c2.4,5.3,4.5,10.9,5.7,16.5c0.6,2.8,1,5.6,1.1,8.3c0.1,2.8-0.1,5.5-0.5,8.9c-0.2,1.7-0.4,3.7-0.3,6.1c0.1,2.4,0.7,5.1,1.8,7.4
		c1,2.3,2.4,4.2,3.7,5.8c0.7,0.9,1.4,1.5,2,2.3c0.7,0.7,1.4,1.4,2.1,2.1l2.1,1.9l1.9,1.7c1.2,1.1,2.5,2.2,3.7,3.3
		c2.5,2.2,5,4.5,7.4,6.9c4.9,4.6,9.7,9.4,14.4,14.3c9.4,9.7,18.2,19.9,25.8,30.5c3.7,5.3,7.1,10.7,9.8,16.1c1.3,2.7,2.4,5.4,3.2,8
		c0.8,2.6,1.2,5.1,1.1,7.1l0,0.4l0,0.2l0,0.3l-0.1,1.2c0,0.8-0.1,1.6-0.1,2.4c-0.1,1.6-0.2,3.2-0.2,4.8c-0.1,3.2-0.3,6.4-0.3,9.6
		c-0.2,6.3-0.2,12.5-0.1,18.6c0.3,12.1,1,23.7,2.4,34.3c0.7,5.3,1.6,10.5,2.6,15.4c0.6,2.4,1.1,4.8,1.7,7.1c0.3,1.2,0.6,2.3,0.9,3.4
		c0.3,1.1,0.4,2.3,0.3,3.5c-0.1,2.4-0.9,5.1-1.8,7.9c-0.4,1.4-0.8,2.7-1.1,4.1c-0.4,1.4-0.6,2.7-0.7,4c-0.1,1.3-0.1,2.5,0,3.6
		c0.1,1.1,0.5,2.2,0.8,3.2c0.4,1,0.9,1.9,1.4,2.8c0.6,0.9,1.1,1.7,1.7,2.5c0.6,0.8,1.2,1.5,1.8,2.2c0.7,0.7,1.4,1.3,2,1.9
		c0.7,0.6,1.4,1.2,2,1.7c0.7,0.5,1.5,1,2.2,1.4c1.5,0.8,2.8,1.5,4.2,2c1.4,0.5,2.7,0.9,3.9,1.1c0.6,0.1,1.2,0.3,1.8,0.3
		c0.6,0.1,1.1,0.1,1.6,0.2c1,0.1,1.9,0.1,2.6,0c0.7-0.1,1.3-0.1,1.7-0.1c0.4-0.1,0.6-0.1,0.6-0.1c6.1-1,11.3-5.5,12.8-11.9l0.9-4
		c0,0,0-0.2,0.1-0.5c0.1-0.3,0.2-0.8,0.3-1.4c0.3-1.2,0.5-2.8,0.7-4.6c0.3-1.8,0.4-3.8,0.4-5.8C478.7,529.2,478.7,528.7,478.6,528.2
		z"/>
	<path class="st11" d="M230.7,190.1c-1.4,0-2.7-0.3-3.9-0.9c-5.5,5.5-12,10.9-18.8,15.7c3.9,8.6,12.6,14.5,22.6,14.5
		c13.8,0,24.9-11.2,24.9-24.9c0-1-0.1-1.9-0.2-2.9c-4.8-3.1-10.1-6.8-16-10.2C239.3,186.2,235.5,190.1,230.7,190.1z"/>
</g>
</svg>
