<?xml version="1.0" encoding="utf-8"?>
<!-- Generator: Adobe Illustrator 19.0.0, SVG Export Plug-In . SVG Version: 6.00 Build 0)  -->
<svg version="1.1" xmlns="http://www.w3.org/2000/svg" xmlns:xlink="http://www.w3.org/1999/xlink" x="0px" y="0px"
	 viewBox="0 0 615.1 506.9" style="enable-background:new 0 0 615.1 506.9;" xml:space="preserve">
<style type="text/css">
	.st0{fill:#A88A40;}
	.st1{opacity:0.5;fill:#7F5619;}
	.st2{fill:#7F5619;}
	.st3{fill:#BF8826;}
	.st4{fill:#D8962B;}
	.st5{fill:#E2AF71;}
	.st6{fill:#FFFFFF;}
	.st7{fill:#BF7D58;}
	.st8{opacity:0.5;fill:#BFADA3;}
	.st9{fill:#F5A26F;}
	.st10{fill:#FFB199;}
	.st11{fill:#F4E5DC;}
</style>
<g id="lines">
	<g>
		<path class="st0" d="M528.8,187.9c0,0.5,0,0.9,0,1.4c-1.6,15.8-17.2,49.8-53.8,48.1c-9.4-0.5-20-1.8-30.2-3.2
			c-22.5-2.9-50.4-6.6-58.2,2.1c-10.3,11.5-30.3,14.2-49.7,16.8c-13,1.8-27.8,3.8-32.9,8.2c-22.7,19.8-65,20.9-66.8,20.9
			c-5,0.1-9.1-3.9-9.2-8.8c-0.1-5,3.9-9.1,8.8-9.2l0,0c0.4,0,37.5-1,55.3-16.5c9.2-8,25.3-10.2,42.4-12.5c15.4-2.1,32.8-4.4,38.7-11
			c14.1-15.7,44.5-11.8,73.9-7.9c10.3,1.4,20.1,2.6,28.8,3c29.4,1.4,35-31.5,35-31.9c0.5-4.9,4.9-8.6,9.8-8.1
			C525.1,179.9,528.5,183.5,528.8,187.9z"/>
	</g>
	<g>
		<path class="st0" d="M519.3,124.3c0.1,1.9-0.4,3.9-1.6,5.6c-2.8,4.1-8.4,5.1-12.5,2.3c-1.2-0.7-11.7,0.9-31.4,26
			c-12.2,15.6-29,28.1-46,34.2c-19.6,7-37.7,5.3-50.9-5c-6.6-5.1-15.4-3.9-21.5-2c-16.2,5-33.1,20.6-37.7,34.7
			c-7.7,23.6-40.7,32-69.9,39.3c-10.2,2.6-19.9,5-26.6,7.7c-4.6,1.9-9.9-0.4-11.7-5c-1.9-4.6,0.4-9.9,5-11.7
			c7.9-3.2,18.1-5.8,29-8.5c22.2-5.6,52.6-13.3,57.2-27.4c6.4-19.7,27.7-39.6,49.5-46.4c14.5-4.5,27.9-2.7,37.9,5
			c18.9,14.6,53-2,71.8-26c11-14.1,21.3-23.8,30.4-28.8c12.9-7.1,21.4-3.6,25.3-1C517.8,119,519.1,121.6,519.3,124.3z"/>
	</g>
	<g>
		<path class="st0" d="M503,57.9c0.1,1-0.1,2-0.3,2.9c-1.4,4.8-6.3,7.6-11.1,6.2c-11-3.1-49.1-0.9-56.6,16
			c-9.6,21.7-26.3,45.6-69.7,37.3c-20.8-3.9-35,17.3-51.3,45.5c-3.1,5.4-6.1,10.5-9.1,15c-16.3,24.8-86.3,68.4-94.2,73.3
			c-4.2,2.6-9.8,1.3-12.4-2.9c-2.6-4.2-1.3-9.8,2.9-12.4c20.6-12.7,76.7-49.7,88.7-67.9c2.7-4.1,5.5-9,8.5-14.2
			c14.9-25.6,35.3-60.7,70.2-54.1c29.2,5.5,40.7-6.2,49.9-27c13.3-29.9,63.8-30.1,78-26C500.2,50.8,502.8,54.2,503,57.9z"/>
	</g>
	<path class="st1" d="M176.8,270.2c-1.3,3-4.1,5.1-7.6,5.3c-2.8,0.2-5.3-1-7-2.9c-0.7,2-1.3,4.1-1.7,6.2
		c4.6,7.7,13.2,12.6,22.8,12.1c3.7-0.2,7.2-1.2,10.3-2.8C188.3,281.6,182.6,275.4,176.8,270.2z"/>
	<path d="M169.3,275.5c3.4-0.2,6.3-2.3,7.6-5.3c-3.4-3.1-6.9-5.8-10.4-8c-1.5,3.3-3,6.8-4.1,10.4C164,274.5,166.5,275.6,169.3,275.5
		z"/>
	<path class="st2" d="M183.3,290.9c-9.6,0.5-18.2-4.4-22.8-12.1c-0.4,1.9-0.8,3.9-1,5.9l33.4,42.7c0,0,8.7-5.7,19.6-13
		c-4.9-7.6-11.5-17.2-18.9-26.4C190.5,289.7,187,290.7,183.3,290.9z"/>
	<g>
		<path class="st3" d="M182.4,235.8c0,0,0-0.4,0.1-1.1c0-0.1,0-0.1,0-0.2l0-0.1l0-0.2c0-0.1,0-0.2,0-0.4c0-0.6,0-1.2,0-2
			c0-3.2-0.2-8.3,0.3-14.8c0.5-6.6,1.6-14.7,4.5-23.5c2.8-8.9,7.5-18.5,14.6-27.5c7.1-8.9,16.2-17.1,26.9-23.7
			c0.7-0.4,1.3-0.8,2-1.3l0.3-0.2l0.3-0.2l0.5-0.3l1-0.6c0.6-0.4,1.3-0.8,1.9-1.1c0.6-0.4,1.3-0.8,2-1.2c1.4-0.8,2.8-1.6,4.3-2.3
			c1.4-0.7,2.9-1.5,4.3-2.2c2.9-1.4,6-2.8,9.1-4.1c3.1-1.3,6.5-2.4,9.9-3.3c3.5-0.9,7.1-1.6,10.9-1.9c1.9-0.1,3.8-0.2,5.6-0.1
			c1.8,0,3.6,0.2,5.2,0.3c1.6,0.1,2.9,0.1,3.8,0c0.9-0.1,1.5-0.3,2.2-0.7c1.5-0.7,3.5-2.6,5.4-4.9l1.4-1.8l1.6-2
			c1.1-1.4,2.2-2.7,3.2-4.1c2.2-2.7,4.3-5.4,6.6-8.1c4.4-5.3,9-10.6,13.7-15.8c9.4-10.4,19.2-20.4,30-29.5c5.4-4.5,11-8.8,17.3-12.6
			c3.1-1.9,6.4-3.6,10-5c3.5-1.4,7.5-2.5,11.9-2.9l0.8-0.1l0.4,0l0.3,0l1.2,0c0.8,0,1.6-0.1,2.4-0.1c1.6-0.1,3.1-0.1,4.7-0.2
			c3.1-0.2,6.2-0.3,9.2-0.6c6.1-0.4,12-1,17.7-1.6c11.5-1.3,22.1-3.3,31.7-5.6c4.8-1.2,9.3-2.5,13.5-3.8c2.1-0.7,4.1-1.4,6-2.2
			c1-0.4,1.9-0.7,2.8-1.1c0.9-0.4,1.7-1.1,2.4-1.8c1.4-1.5,2.4-3.8,3.2-6.2c0.7-2.3,1.4-4.6,2-6.5c0.7-1.8,1.5-3,2.4-3.9
			c0.5-0.4,1-0.7,1.5-1c0.5-0.3,1-0.5,1.5-0.7c0.5-0.2,1-0.4,1.5-0.5c0.5-0.2,1-0.3,1.5-0.4c0.5-0.1,1-0.2,1.5-0.2
			c0.5-0.1,1-0.1,1.5-0.2c2-0.1,4,0,5.8,0.1c1.9,0.2,3.4,0.3,4.7,0.5c0.6,0.1,1.1,0.2,1.4,0.2c0.4,0.1,0.5,0.1,0.5,0.1l4.1,0.7
			c6.5,1.2,11.3,6.1,12.6,12.2c0,0,0,0.2,0.1,0.6c0.1,0.4,0.1,0.9,0.2,1.7c0.1,0.7,0.1,1.6,0.1,2.6c0,0.5,0,1.1-0.1,1.6
			c0,0.6-0.1,1.2-0.2,1.8c-0.2,1.2-0.5,2.6-0.9,4c-0.4,1.5-1.1,2.8-1.8,4.3c-0.4,0.7-0.8,1.5-1.3,2.2c-0.5,0.7-1,1.4-1.6,2.1
			c-0.6,0.7-1.2,1.4-1.8,2.1c-0.6,0.7-1.4,1.3-2.1,2c-0.7,0.6-1.5,1.3-2.4,1.9c-0.8,0.6-1.7,1.1-2.7,1.6c-1,0.4-2,0.8-3.1,1
			c-1.1,0.2-2.3,0.3-3.6,0.2c-1.3,0-2.6-0.2-4-0.5c-1.4-0.3-2.8-0.6-4.1-0.9c-2.8-0.8-5.5-1.4-8-1.4c-1.2,0-2.4,0.1-3.5,0.5
			c-1.1,0.4-2.2,0.7-3.4,1.1c-2.3,0.8-4.6,1.4-7,2.1c-4.8,1.3-9.9,2.4-15.2,3.5c-10.6,2-22.1,3.4-34.2,4.3c-6,0.4-12.2,0.7-18.6,0.9
			c-3.2,0.1-6.4,0.1-9.6,0.2c-1.6,0-3.2,0-4.8,0c-0.8,0-1.6,0-2.4,0l-1.2,0l-0.3,0l-0.2,0l-0.4,0c-2.1,0.1-4.5,0.6-7,1.5
			c-2.5,0.9-5.2,2.1-7.8,3.6C374.2,61.4,369,65,364,69.1c-10.1,8.2-19.8,17.6-29,27.5c-4.6,5-9.1,10-13.4,15.2
			c-2.2,2.6-4.3,5.2-6.4,7.8c-1,1.3-2.1,2.6-3.1,3.9l-1.6,2l-1.8,2.2c-0.6,0.7-1.3,1.5-1.9,2.2c-0.7,0.7-1.4,1.5-2.2,2.2
			c-1.5,1.4-3.4,2.9-5.6,4c-2.2,1.2-4.9,2-7.3,2.2c-2.4,0.2-4.4,0.1-6.1,0c-3.4-0.2-6.1-0.3-8.9-0.1c-2.8,0.2-5.5,0.8-8.3,1.5
			c-5.5,1.5-11,3.9-16.2,6.6c-1.3,0.7-2.6,1.4-3.9,2.1c-1.2,0.7-2.5,1.4-3.7,2.2c-0.6,0.3-1.2,0.7-1.9,1.1c-0.6,0.4-1.3,0.8-1.9,1.2
			l-1,0.6l-0.5,0.3l-0.1,0.1c0,0-0.2,0.1,0,0l-0.2,0.1c-0.6,0.4-1.2,0.8-1.7,1.2c-4.6,3.1-8.8,6.4-12.5,9.9
			c-3.7,3.5-6.9,7.2-9.6,10.9c-5.5,7.5-8.7,15.4-10.6,22.5c-1.8,7.2-2.3,13.8-2.2,19.2c0.1,5.5,0.5,9.8,0.8,13.1
			c0.1,0.9,0.1,1.6,0.2,2.3c0,0.2,0,0.3,0,0.5c0,0.1,0,0.2,0,0.2c0,0.1,0,0.2,0,0.3c0,0.4,0,0.8,0,1.2c0,1,0,1.5,0,1.5
			c0.1,5.8-4.6,10.6-10.5,10.6c-5.8,0.1-10.6-4.6-10.6-10.5c0-0.3,0-0.7,0-1L182.4,235.8z"/>
	</g>
	<path class="st4" d="M154.3,273c-6-0.6-9.9,8.2-6.7,16.6c0.5,1.4-2.5,3.4-2.5,3.4c-11.5,2.5-25.2,14.5-62.8,50.7
		c-59.3,57-63.7,129.3-64.3,136.5c-4.6,0.8-22,8.5-17.1,26.7c18.1-4.3,21.5-10,25-17.4c13.7-1,21.6-1.8,37.7-12
		c16.1-10.2,81.8-79.2,89.8-91.4c15.7-23.7,28.2-39.9,32.2-49.8c10.8,2.1,13.6,3.9,16.9-3.2C206.5,324.4,165.3,274.1,154.3,273z"/>
	<g>
		<path class="st5" d="M29.9,447.9c0,0,0-0.1,0-0.3c0-0.1,0-0.3-0.1-0.4c0-0.2,0-0.5,0-0.8c0-0.5,0.1-1.2,0.1-2
			c0-0.7,0.1-1.5,0.2-2.3c0.2-1.7,0.5-3.7,1-6c0.2-1.1,0.5-2.4,0.8-3.6c0.3-1.3,0.7-2.6,1-4c0.8-2.7,1.7-5.7,2.8-8.7
			c0.5-1.5,1.1-3.1,1.8-4.7c0.6-1.6,1.3-3.2,2-4.8c0.7-1.6,1.4-3.3,2.2-4.9c0.8-1.6,1.6-3.3,2.5-5c1.8-3.3,3.6-6.6,5.6-9.9
			c2-3.3,4.1-6.4,6.4-9.5c1.1-1.5,2.3-3,3.5-4.5c1.2-1.4,2.4-2.8,3.6-4.2c2.5-2.7,5-5.2,7.5-7.4c1.3-1.1,2.5-2.2,3.8-3.1
			c1.3-1,2.5-1.9,3.8-2.7c1.2-0.8,2.4-1.6,3.6-2.3c1.2-0.7,2.3-1.3,3.4-1.8c1.1-0.5,2.1-1,3.1-1.4c1-0.4,1.9-0.7,2.7-1
			c0.4-0.1,0.8-0.3,1.2-0.4c0.4-0.1,0.7-0.2,1.1-0.3c0.7-0.2,1.2-0.3,1.7-0.4c0.9-0.2,1.4-0.3,1.4-0.3c1.7-0.3,3.3,0.8,3.6,2.5
			c0.2,1-0.2,2.1-0.9,2.7l-0.3,0.2c0,0-0.3,0.3-1,0.9c-0.3,0.3-0.7,0.6-1.1,1c-0.2,0.2-0.5,0.4-0.7,0.6c-0.2,0.2-0.5,0.5-0.8,0.8
			c-0.5,0.5-1.2,1.1-1.8,1.7c-0.6,0.6-1.3,1.4-2.1,2.1c-0.8,0.7-1.5,1.6-2.3,2.4c-0.4,0.4-0.8,0.8-1.2,1.3c-0.4,0.5-0.8,1-1.2,1.4
			c-0.4,0.5-0.9,1-1.3,1.5c-0.4,0.5-0.8,1.1-1.3,1.6c-0.4,0.5-0.9,1.1-1.3,1.6c-0.4,0.6-0.9,1.2-1.3,1.7c-0.9,1.1-1.8,2.4-2.8,3.6
			c-1,1.2-1.9,2.6-2.8,3.9c-1.9,2.6-3.8,5.4-5.7,8.3c-1.9,2.9-3.8,5.8-5.7,8.7c-1.9,3-3.8,6-5.6,8.9c-1.8,3-3.6,5.9-5.3,8.8
			c-1.7,2.9-3.4,5.7-4.9,8.3c-1.6,2.7-3,5.2-4.4,7.5c-1.4,2.3-2.6,4.5-3.7,6.4c-1.1,1.9-2,3.5-2.8,4.9c-0.4,0.7-0.7,1.3-1,1.8
			c-0.1,0.3-0.3,0.5-0.4,0.7c-0.1,0.2-0.2,0.3-0.3,0.4c-0.1,0.1-0.2,0.2-0.2,0.3c-0.1,0.2-0.1,0.3-0.1,0.4c-0.1,0.2-0.1,0.3-0.1,0.3
			l0,0.1c-0.6,1.6-2.4,2.4-3.9,1.8C30.8,450,30,449,29.9,447.9z"/>
	</g>
	<g>
		<path class="st3" d="M234.8,272.5c0,0,0.4-0.1,1.2-0.2c0.8-0.1,1.9-0.4,3.4-0.6c2.9-0.6,7.2-1.4,12.6-2.3c5.4-0.9,12-2,19.5-3
			c3.8-0.5,7.8-1.1,12.1-1.6c4.3-0.5,8.7-1,13.4-1.4c9.4-0.9,19.6-1.4,30.6-1.4c5.5,0,11.1,0.3,16.9,0.8c5.8,0.5,11.8,1.4,17.9,2.9
			c3.1,0.8,6.1,1.7,9.2,2.9c1.5,0.6,3.1,1.2,4.6,2l2.1,1c0.6,0.3,1.4,0.7,1.9,0.9c0.5,0.2,1.1,0.5,1.7,0.7c0.6,0.2,1.2,0.5,1.8,0.7
			c1.2,0.4,2.4,0.8,3.6,1.1c2.4,0.6,4.9,0.9,7.4,1c10.1,0.3,20.6-3.7,30.6-9.6c5-2.9,10-6.3,15-9.7c5-3.4,10.1-7,15.7-10.4
			c2.8-1.7,5.7-3.3,8.8-4.7c1.6-0.7,3.2-1.4,4.9-2c0.9-0.3,1.7-0.6,2.6-0.8l0.3-0.1l0.2,0l0.4-0.1l0.5-0.1l0.5-0.1
			c0.1,0,0.2,0,0.3-0.1l0.4-0.1c0.5-0.1,1.1-0.2,1.6-0.3l1.4-0.2c0.9-0.1,1.8-0.2,2.7-0.2c1.8-0.1,3.5-0.1,5.1-0.1
			c3.3,0.1,6.4,0.3,9.4,0.6c6,0.6,11.6,1.4,17.1,2c5.4,0.6,10.6,1.1,15.6,1.3c5,0.2,9.7,0.2,14.1-0.2c2.2-0.2,4.4-0.4,6.4-0.8
			c2.1-0.4,4-1.2,5.8-2.1c3.6-1.8,6.5-4.6,8.7-7.5c2.2-2.8,3.9-5.7,5.4-8c1.5-2.4,3-4.3,4.4-5.9c0.8-0.8,1.5-1.6,2.3-2.3
			c0.8-0.7,1.6-1.3,2.5-1.8c0.9-0.5,1.8-1,2.7-1.4c0.9-0.4,1.9-0.8,2.9-1.1c1-0.3,1.9-0.6,2.9-0.8c0.5-0.1,0.9-0.2,1.4-0.3
			c0.5-0.1,0.9-0.2,1.4-0.2c1.8-0.3,3.3-0.5,4.5-0.5c0.6,0,1-0.1,1.3-0.1c0.3,0,0.5,0,0.5,0l2,0c7.3,0,13.6,4.5,16.2,11
			c0,0,0.1,0.2,0.2,0.5c0.1,0.3,0.2,0.8,0.4,1.4c0.4,1.2,0.8,2.9,1,5c0.4,4.2-0.2,10.1-3.8,16.1c-0.5,0.7-1,1.5-1.5,2.2
			c-0.6,0.7-1.2,1.5-1.8,2.2c-0.6,0.7-1.4,1.4-2.1,2.1c-0.7,0.7-1.5,1.4-2.4,2.1c-3.3,2.7-7.4,5.1-12.1,6.9
			c-4.7,1.8-10.1,2.8-15.6,3.2c-5.5,0.4-11.1,0.3-16.5,0.4c-2.7,0-5.4,0.1-8.1,0.2c-2.7,0.1-5.4,0.4-8.2,0.4
			c-5.5,0.1-11-0.2-16.6-0.8c-11.1-1.2-22.4-3.6-33.3-5.2c-2.7-0.4-5.4-0.7-7.9-0.9c-1.3-0.1-2.5-0.1-3.7-0.1c-0.6,0-1.2,0-1.7,0.1
			l-0.8,0.1l-0.6,0.1c-4.3,0.6-9.1,2.8-14,5.5c-4.9,2.7-10,6-15.1,9.3c-5.2,3.3-10.5,6.8-16.2,9.9c-5.7,3.1-11.7,6-18.2,8.1
			c-6.5,2.1-13.5,3.3-20.6,3c-3.5-0.2-7.1-0.6-10.5-1.4c-1.7-0.4-3.4-0.9-5-1.5c-0.8-0.3-1.6-0.6-2.4-0.9c-0.8-0.3-1.6-0.7-2.4-1
			c-0.9-0.4-1.5-0.7-2.1-1l-1.9-0.9c-1.1-0.5-2.3-1-3.5-1.5c-2.4-0.9-4.9-1.6-7.4-2.2c-5.1-1.2-10.4-1.9-15.6-2.3
			c-5.2-0.4-10.4-0.4-15.5-0.3c-5.1,0.1-10.1,0.4-14.9,0.8c-4.8,0.4-9.5,0.9-13.9,1.5c-8.9,1.2-17.1,2.7-24.3,4.2
			c-7.2,1.5-13.4,3-18.6,4.3c-5.1,1.3-9.1,2.4-11.8,3.2c-1.3,0.4-2.3,0.7-3,0.9c-0.7,0.2-1,0.3-1,0.3l0,0
			c-5.6,1.8-11.6-1.3-13.4-6.9c-1.8-5.6,1.3-11.6,6.9-13.4C234.1,272.7,234.4,272.6,234.8,272.5z"/>
	</g>
	<g>
		<path class="st3" d="M521,155.8c0.1,1.3-0.1,2.7-0.7,4c-9,21.6-33.6,23.3-55.3,24.9c-17.3,1.3-33.6,2.4-39.6,12.1
			c-14.9,23.8-52.8,15.5-86.3,8.1c-15.2-3.4-29.6-6.5-38.6-5.9c-42.7,2.8-68.9,62.7-69.2,63.3c-2,4.6-7.2,6.7-11.8,4.7
			c-4.6-2-6.7-7.2-4.7-11.8c1.2-2.9,30.8-70.7,84.6-74.2c11.5-0.7,27.1,2.7,43.6,6.3c26.3,5.8,59,13,67.1,0
			c10.9-17.4,33.5-19,53.5-20.5c21.3-1.6,35.6-3.4,40-13.9c1.9-4.6,7.2-6.7,11.8-4.8C518.8,149.3,520.8,152.4,521,155.8z"/>
	</g>
	<g>
		<path class="st3" d="M499.3,88.9c0.1,1.5-0.2,3.1-0.9,4.5c-2.2,4.4-7.6,6.2-12.1,4c-5.5-2.8-18.4-5.2-29.3,0
			c-8.2,3.9-13.5,11.4-15.9,22.3c-3.8,17.5-12,29.6-24.3,36.1c-14.4,7.6-33.2,6.9-56-2.2c-33.5-13.4-49.1-3.7-67.2,7.6
			c-10.6,6.6-21.6,13.5-36.1,15.3c-25.9,3.3-37.5,52.4-39.8,71c-0.6,4.9-5.1,8.4-10,7.8c-4.9-0.6-8.5-5.1-7.8-10
			c0.1-0.8,2.5-19.8,9.8-39.6c13.3-35.8,32.1-45.4,45.6-47.1c10.6-1.3,19.5-6.9,28.9-12.7c19.4-12.1,41.4-25.8,83.4-9
			c12.1,4.8,29,9.3,40.9,3c7.4-3.9,12.5-12,15.1-24.1c4.5-20.7,16.5-30.3,25.7-34.7c15.8-7.5,34.5-5.2,45.1,0.1
			C497.3,82.8,499.1,85.7,499.3,88.9z"/>
	</g>
	<g>
		<path class="st3" d="M530,210.4c0.1,1-0.1,2.1-0.4,3.1c-1.5,4.8-6.5,7.4-11.2,6c-37.8-11.6-48.9-6-55.3,1.7
			c-13.1,15.9-31.3,27.2-52.7,32.7c-17.3,4.5-36.5,5-52.6,1.4c-8-1.8-14.4-5.8-20-9.4c-10-6.4-16.1-10.2-29.2-3.5l-0.9,0.4
			c-30.4,15.5-64,31.2-82,29.7c-5-0.4-8.6-4.7-8.3-9.7c0.4-5,4.7-8.6,9.7-8.3c10.2,0.8,34.5-8.5,72.3-27.8l0.9-0.4
			c22.3-11.4,36-2.6,47.1,4.4c4.8,3,9.3,5.9,14.2,7c26.3,5.8,64.9-0.5,87.6-28c14.1-17.1,35.7-19.3,74.4-7.4
			C527.3,203.4,529.8,206.7,530,210.4z"/>
	</g>
	<path class="st6" d="M177.5,266.3c0.1,1.4-0.2,2.7-0.7,3.9c5.8,5.2,11.5,11.4,16.7,17.9c8.3-4.4,13.8-13.4,13.3-23.4
		c-0.8-13.7-12.5-24.3-26.2-23.5c-1,0.1-1.9,0.2-2.9,0.3c-2.9,4.9-6.2,10.5-9.3,16.5C173.2,257.8,177.2,261.5,177.5,266.3z"/>
	<path d="M177.5,266.3c-0.3-4.8-4.3-8.5-9.1-8.3c-0.7,1.4-1.4,2.8-2,4.2c3.5,2.2,7,4.9,10.4,8C177.3,269,177.6,267.7,177.5,266.3z"
		/>
	<path class="st3" d="M184.8,225.2c0,3.7-3.1,9.3-7.1,16.3c0.9-0.2,1.9-0.3,2.9-0.3c13.7-0.8,25.5,9.8,26.2,23.5
		c0.5,10-4.9,19-13.3,23.4c7.5,9.2,14,18.8,18.9,26.4c12.4-8.2,27.7-18.6,36.9-25.2C266.7,276.8,184.7,215.2,184.8,225.2z"/>
</g>
<g id="expanded">
	<g>
		<path class="st7" d="M510.8,187.5c0,0.3-5.6,33.3-35,31.9c-8.7-0.4-18.4-1.7-28.8-3c-29.4-3.8-59.8-7.8-73.9,7.9
			c-5.8,6.5-23.3,8.9-38.7,11c-17.1,2.3-33.2,4.5-42.4,12.5c-17.8,15.5-54.9,16.5-55.3,16.5c-5,0.1-8.9,4.2-8.8,9.2
			c0.1,5,4.2,8.9,9.2,8.8c1.8,0,44.1-1.1,66.8-20.9c5.1-4.5,19.9-6.5,32.9-8.2c19.4-2.6,39.4-5.3,49.7-16.8c7.8-8.7,35.7-5,58.2-2.1
			c10.2,1.3,20.8,2.7,30.2,3.2c36.5,1.8,52.2-32.3,53.8-48.1c0-0.5,0.1-0.9,0-1.4c-0.2-4.4-3.6-8-8.1-8.5
			C515.7,178.9,511.3,182.6,510.8,187.5z"/>
		<path class="st7" d="M418.5,75.8c-9.2,20.7-20.8,32.5-49.9,27c-34.9-6.6-55.3,28.5-70.2,54.1c-3,5.2-5.9,10.1-8.5,14.2
			c-12,18.2-68.1,55.2-88.7,67.9c-4.2,2.6-5.5,8.2-2.9,12.4c2.4,4,7.4,5.4,11.5,3.4c-1.2,2.3-1.4,5-0.4,7.5c1.9,4.6,7.1,6.8,11.7,5
			c6.7-2.7,16.4-5.2,26.6-7.7c29.2-7.4,62.3-15.7,69.9-39.3c4.6-14.1,21.5-29.7,37.7-34.7c6.2-1.9,14.9-3.1,21.5,2
			c13.3,10.2,31.4,12,50.9,5c17.1-6.1,33.9-18.6,46-34.2c19.6-25.1,30.1-26.8,31.4-26c4.1,2.8,9.7,1.8,12.5-2.3
			c1.2-1.7,1.7-3.7,1.6-5.6c-0.1-2.7-1.5-5.3-3.9-6.9c-3.9-2.7-12.4-6.1-25.3,1c-9.2,5-19.4,14.7-30.4,28.8
			c-18.8,24-52.9,40.7-71.8,26c-10-7.7-23.4-9.5-37.9-5c-21.9,6.8-43.1,26.7-49.5,46.4c-4.6,14.2-35,21.8-57.2,27.4
			c-8.6,2.2-16.8,4.2-23.8,6.6c21.4-13.6,71.8-47.1,85.3-67.7c2.9-4.5,5.9-9.6,9.1-15c16.4-28.2,30.6-49.4,51.3-45.5
			c43.5,8.2,60.1-15.6,69.7-37.3c7.5-17,45.7-19.1,56.6-16c4.8,1.4,9.8-1.4,11.1-6.2c0.3-1,0.4-2,0.3-2.9c-0.2-3.7-2.7-7.1-6.5-8.2
			C482.2,45.8,431.7,46,418.5,75.8z"/>
	</g>
	<path class="st8" d="M176.8,270.2c-1.3,3-4.1,5.1-7.6,5.3c-2.8,0.2-5.3-1-7-2.9c-0.7,2-1.3,4.1-1.7,6.2
		c4.6,7.7,13.2,12.6,22.8,12.1c3.7-0.2,7.2-1.2,10.3-2.8C188.3,281.6,182.6,275.4,176.8,270.2z"/>
	<path d="M169.3,275.5c3.4-0.2,6.3-2.3,7.6-5.3c-3.4-3.1-6.9-5.8-10.4-8c-1.5,3.3-3,6.8-4.1,10.4C164,274.5,166.5,275.6,169.3,275.5
		z"/>
	<path class="st7" d="M183.3,290.9c-9.6,0.5-18.2-4.4-22.8-12.1c-0.4,1.9-0.8,3.9-1,5.9l33.4,42.7c0,0,8.7-5.7,19.6-13
		c-4.9-7.6-11.5-17.2-18.9-26.4C190.5,289.7,187,290.7,183.3,290.9z"/>
	<path class="st9" d="M154.3,273c-6-0.6-9.9,8.2-6.7,16.6c0.5,1.4-2.5,3.4-2.5,3.4c-11.5,2.5-25.2,14.5-62.8,50.7
		c-59.3,57-63.7,129.3-64.3,136.5c-4.6,0.8-22,8.5-17.1,26.7c18.1-4.3,21.5-10,25-17.4c13.7-1,21.6-1.8,37.7-12
		c16.1-10.2,81.8-79.2,89.8-91.4c15.7-23.7,28.2-39.9,32.2-49.8c10.8,2.1,13.6,3.9,16.9-3.2C206.5,324.4,165.3,274.1,154.3,273z"/>
	<g>
		<path class="st10" d="M29.9,447.9c0,0,0-0.1,0-0.3c0-0.1,0-0.3-0.1-0.4c0-0.2,0-0.5,0-0.8c0-0.5,0.1-1.2,0.1-2
			c0-0.7,0.1-1.5,0.2-2.3c0.2-1.7,0.5-3.7,1-6c0.2-1.1,0.5-2.4,0.8-3.6c0.3-1.3,0.7-2.6,1-4c0.8-2.7,1.7-5.7,2.8-8.7
			c0.5-1.5,1.1-3.1,1.8-4.7c0.6-1.6,1.3-3.2,2-4.8c0.7-1.6,1.4-3.3,2.2-4.9c0.8-1.6,1.6-3.3,2.5-5c1.8-3.3,3.6-6.6,5.6-9.9
			c2-3.3,4.1-6.4,6.4-9.5c1.1-1.5,2.3-3,3.5-4.5c1.2-1.4,2.4-2.8,3.6-4.2c2.5-2.7,5-5.2,7.5-7.4c1.3-1.1,2.5-2.2,3.8-3.1
			c1.3-1,2.5-1.9,3.8-2.7c1.2-0.8,2.4-1.6,3.6-2.3c1.2-0.7,2.3-1.3,3.4-1.8c1.1-0.5,2.1-1,3.1-1.4c1-0.4,1.9-0.7,2.7-1
			c0.4-0.1,0.8-0.3,1.2-0.4c0.4-0.1,0.7-0.2,1.1-0.3c0.7-0.2,1.2-0.3,1.7-0.4c0.9-0.2,1.4-0.3,1.4-0.3c1.7-0.3,3.3,0.8,3.6,2.5
			c0.2,1-0.2,2.1-0.9,2.7l-0.3,0.2c0,0-0.3,0.3-1,0.9c-0.3,0.3-0.7,0.6-1.1,1c-0.2,0.2-0.5,0.4-0.7,0.6c-0.2,0.2-0.5,0.5-0.8,0.8
			c-0.5,0.5-1.2,1.1-1.8,1.7c-0.6,0.6-1.3,1.4-2.1,2.1c-0.8,0.7-1.5,1.6-2.3,2.4c-0.4,0.4-0.8,0.8-1.2,1.3c-0.4,0.5-0.8,1-1.2,1.4
			c-0.4,0.5-0.9,1-1.3,1.5c-0.4,0.5-0.8,1.1-1.3,1.6c-0.4,0.5-0.9,1.1-1.3,1.6c-0.4,0.6-0.9,1.2-1.3,1.7c-0.9,1.1-1.8,2.4-2.8,3.6
			c-1,1.2-1.9,2.6-2.8,3.9c-1.9,2.6-3.8,5.4-5.7,8.3c-1.9,2.9-3.8,5.8-5.7,8.7c-1.9,3-3.8,6-5.6,8.9c-1.8,3-3.6,5.9-5.3,8.8
			c-1.7,2.9-3.4,5.7-4.9,8.3c-1.6,2.7-3,5.2-4.4,7.5c-1.4,2.3-2.6,4.5-3.7,6.4c-1.1,1.9-2,3.5-2.8,4.9c-0.4,0.7-0.7,1.3-1,1.8
			c-0.1,0.3-0.3,0.5-0.4,0.7c-0.1,0.2-0.2,0.3-0.3,0.4c-0.1,0.1-0.2,0.2-0.2,0.3c-0.1,0.2-0.1,0.3-0.1,0.4c-0.1,0.2-0.1,0.3-0.1,0.3
			l0,0.1c-0.6,1.6-2.4,2.4-3.9,1.8C30.8,450,30,449,29.9,447.9z"/>
	</g>
	<path d="M177.5,266.3c-0.3-4.8-4.3-8.5-9.1-8.3c-0.7,1.4-1.4,2.8-2,4.2c3.5,2.2,7,4.9,10.4,8C177.3,269,177.6,267.7,177.5,266.3z"
		/>
	<path class="st9" d="M501.7,0.2c-0.5,0.1-1,0.1-1.5,0.2c-0.5,0.1-1,0.2-1.5,0.4c-0.5,0.1-1,0.3-1.5,0.5c-0.5,0.2-1,0.5-1.5,0.7
		c-0.5,0.3-1,0.6-1.5,1c-0.9,0.8-1.7,2.1-2.4,3.9c-0.6,1.8-1.3,4.1-2,6.5c-0.8,2.4-1.8,4.6-3.2,6.2c-0.7,0.8-1.5,1.4-2.4,1.8
		c-0.9,0.4-1.9,0.7-2.8,1.1c-1.9,0.8-4,1.4-6,2.2c-4.2,1.4-8.7,2.7-13.5,3.8c-9.6,2.3-20.2,4.3-31.7,5.6c-5.7,0.7-11.6,1.2-17.7,1.6
		c-3,0.2-6.1,0.4-9.2,0.6c-1.6,0.1-3.1,0.1-4.7,0.2c-0.8,0-1.6,0.1-2.4,0.1l-1.2,0l-0.3,0l-0.4,0l-0.8,0.1
		c-4.4,0.3-8.3,1.4-11.9,2.9c-3.6,1.4-6.9,3.1-10,5c-6.2,3.7-11.9,8.1-17.3,12.6c-10.8,9.1-20.6,19.1-30,29.5
		c-4.7,5.2-9.3,10.4-13.7,15.8c-2.2,2.7-4.4,5.4-6.6,8.1c-1.1,1.4-2.2,2.7-3.2,4.1l-1.6,2l-1.4,1.8c-1.9,2.3-3.9,4.1-5.4,4.9
		c-0.7,0.4-1.3,0.6-2.2,0.7c-0.9,0.1-2.2,0.1-3.8,0c-1.6-0.1-3.4-0.2-5.2-0.3c-1.9,0-3.8,0-5.6,0.1c-3.8,0.3-7.4,1-10.9,1.9
		c-3.5,0.9-6.8,2-9.9,3.3c-3.2,1.3-6.2,2.6-9.1,4.1c-1.4,0.7-2.9,1.5-4.3,2.2c-1.4,0.8-2.8,1.6-4.3,2.3c-0.7,0.4-1.4,0.8-2,1.2
		c-0.6,0.4-1.3,0.8-1.9,1.1l-1,0.6l-0.5,0.3l-0.3,0.2l-0.3,0.2c-0.7,0.4-1.3,0.8-2,1.3c-10.7,6.6-19.9,14.8-26.9,23.7
		c-7.1,8.9-11.8,18.6-14.6,27.5c-2.9,8.9-4,17-4.5,23.5c-0.5,6.6-0.3,11.7-0.3,14.8c0,0.3,0,0.5,0,0.7c-1.3,2.6-2.9,5.6-4.8,8.9
		c0.9-0.2,1.9-0.3,2.9-0.3c0.9,0,1.8,0,2.6,0c1.6,3.8,5.4,6.4,9.8,6.3c1.6,0,3-0.4,4.4-1c1,0.8,2,1.7,2.8,2.6
		c0.6,1.9,1.8,3.6,3.5,4.8c1.8,3.2,2.9,6.9,3.1,10.8c0.5,10-4.9,19-13.3,23.4c7.5,9.2,14,18.8,18.9,26.4
		c11.4-7.6,25.2-16.9,34.5-23.5c2.4-0.7,5.4-1.5,9-2.4c5.1-1.3,11.4-2.8,18.6-4.3c7.2-1.5,15.4-3,24.3-4.2c4.5-0.6,9.1-1.1,13.9-1.5
		c4.8-0.4,9.8-0.7,14.9-0.8c5.1-0.1,10.3,0,15.5,0.3c5.2,0.4,10.5,1.1,15.6,2.3c2.5,0.6,5.1,1.3,7.4,2.2c1.2,0.5,2.4,0.9,3.5,1.5
		l1.9,0.9c0.7,0.3,1.3,0.6,2.1,1c0.8,0.4,1.7,0.7,2.4,1c0.8,0.3,1.6,0.6,2.4,0.9c1.6,0.6,3.3,1.1,5,1.5c3.4,0.8,6.9,1.3,10.5,1.4
		c7.1,0.3,14.1-0.9,20.6-3c6.5-2.1,12.5-5,18.2-8.1c5.7-3.1,11-6.6,16.2-9.9c5.2-3.3,10.2-6.6,15.1-9.3c4.9-2.7,9.7-4.9,14-5.5
		l0.6-0.1l0.8-0.1c0.6,0,1.1-0.1,1.7-0.1c1.2,0,2.4,0,3.7,0.1c2.6,0.2,5.2,0.5,7.9,0.9c10.9,1.6,22.1,4.1,33.3,5.2
		c5.6,0.6,11.1,0.9,16.6,0.8c2.7,0,5.5-0.2,8.2-0.4c2.7-0.1,5.4-0.2,8.1-0.2c5.4-0.1,11,0,16.5-0.4c5.5-0.4,10.9-1.5,15.6-3.2
		c4.8-1.8,8.8-4.2,12.1-6.9c0.8-0.7,1.6-1.3,2.4-2.1c0.7-0.7,1.5-1.4,2.1-2.1c0.6-0.7,1.2-1.4,1.8-2.2c0.5-0.7,1-1.5,1.5-2.2
		c3.6-6,4.2-11.9,3.8-16.1c-0.2-2.1-0.6-3.8-1-5c-0.2-0.6-0.3-1-0.4-1.4c-0.1-0.3-0.2-0.5-0.2-0.5c-2.5-6.4-8.8-11-16.2-11l-2,0
		c0,0-0.2,0-0.5,0c-0.3,0-0.7,0-1.3,0.1c-1.2,0-2.7,0.2-4.5,0.5c-0.4,0.1-0.9,0.2-1.4,0.2c-0.5,0.1-0.9,0.2-1.4,0.3
		c-1,0.2-2,0.5-2.9,0.8c-1,0.3-1.9,0.6-2.9,1.1c-1,0.4-1.9,0.9-2.7,1.4c-0.9,0.5-1.7,1.1-2.5,1.8c-0.8,0.7-1.5,1.5-2.3,2.3
		c-1.5,1.7-2.9,3.6-4.4,5.9c-1.5,2.3-3.2,5.2-5.4,8c-2.2,2.8-5.1,5.6-8.7,7.5c-1.8,0.9-3.7,1.6-5.8,2.1c-2.1,0.4-4.2,0.6-6.4,0.8
		c-4.5,0.3-9.2,0.4-14.1,0.2c-5-0.2-10.2-0.7-15.6-1.3c-5.4-0.6-11-1.4-17.1-2c-3-0.3-6.1-0.5-9.4-0.6c-1.7,0-3.3,0-5.1,0.1
		c-0.9,0-1.8,0.1-2.7,0.2l-1.4,0.2c-0.5,0.1-1.1,0.2-1.6,0.3l-0.4,0.1c-0.1,0-0.3,0.1-0.3,0.1l-0.5,0.1l-0.5,0.1l-0.4,0.1l-0.2,0
		l-0.3,0.1c-0.9,0.2-1.8,0.5-2.6,0.8c-1.7,0.6-3.4,1.2-4.9,2c-3.2,1.4-6.1,3-8.8,4.7c-5.6,3.3-10.6,6.9-15.7,10.4
		c-5,3.4-10,6.8-15,9.7c-10,5.9-20.5,10-30.6,9.6c-2.5-0.1-5-0.4-7.4-1c-1.2-0.3-2.4-0.6-3.6-1.1c-0.6-0.2-1.2-0.4-1.8-0.7
		c-0.6-0.2-1.1-0.5-1.7-0.7c-0.5-0.2-1.2-0.6-1.9-0.9l-2.1-1c-1.5-0.7-3.1-1.4-4.6-2c-3.1-1.2-6.2-2.1-9.2-2.9
		c-6.1-1.5-12.1-2.4-17.9-2.9c-5.8-0.5-11.5-0.8-16.9-0.8c-10.9,0-21.2,0.6-30.6,1.4c-4.7,0.4-9.2,0.9-13.4,1.4
		c-4.3,0.5-8.3,1-12.1,1.6c-7.6,1.1-14.1,2.1-19.5,3c-2.6,0.4-4.9,0.8-6.9,1.2c-0.1-0.2-0.3-0.4-0.4-0.6c18.1-5,41.4-16.1,63.1-27.1
		l0.9-0.4c13.2-6.7,19.2-2.9,29.2,3.5c5.6,3.6,12,7.6,20,9.4c16.2,3.6,35.4,3,52.6-1.4c21.4-5.5,39.6-16.9,52.7-32.7
		c6.3-7.7,17.4-13.2,55.3-1.7c4.8,1.5,9.8-1.2,11.2-6c0.3-1,0.4-2.1,0.4-3.1c-0.2-3.7-2.6-7-6.4-8.1c-38.8-11.8-60.3-9.7-74.4,7.4
		c-22.7,27.5-61.3,33.8-87.6,28c-4.9-1.1-9.4-3.9-14.2-7c-11-7-24.7-15.7-47.1-4.4l-0.9,0.4c-29.8,15.2-51.2,24.2-63.9,27
		c9-16.7,32.1-52.8,65-54.9c8.9-0.6,23.3,2.6,38.6,5.9c33.5,7.4,71.4,15.7,86.3-8.1c6-9.6,22.3-10.8,39.6-12.1
		c21.7-1.6,46.3-3.4,55.3-24.9c0.5-1.3,0.8-2.6,0.7-4c-0.2-3.3-2.2-6.4-5.5-7.8c-4.6-1.9-9.9,0.2-11.8,4.8
		c-4.4,10.6-18.7,12.4-40,13.9c-20,1.5-42.7,3.1-53.5,20.5c-8.2,13-40.9,5.8-67.1,0c-16.5-3.6-32.1-7.1-43.6-6.3
		c-42.2,2.7-69.5,45.1-79.9,64.6c-0.5-0.4-0.9-0.8-1.4-1.2c3.1-20.5,14.8-64.7,39.3-67.8c14.5-1.8,25.5-8.7,36.1-15.3
		c18.1-11.3,33.7-21,67.2-7.6c22.7,9.1,41.6,9.8,56,2.2c12.3-6.5,20.4-18.7,24.3-36.1c2.4-10.9,7.7-18.4,15.9-22.3
		c10.9-5.2,23.8-2.8,29.3,0c4.4,2.2,9.9,0.4,12.1-4c0.7-1.4,1-3,0.9-4.5c-0.2-3.1-2-6.1-5-7.6c-10.7-5.3-29.4-7.6-45.1-0.1
		c-9.2,4.4-21.2,14-25.7,34.7c-2.6,12-7.7,20.1-15.1,24.1c-11.9,6.3-28.8,1.8-40.9-3c-42-16.8-64-3.1-83.4,9
		c-9.4,5.8-18.2,11.4-28.9,12.7c-13.5,1.7-32.3,11.2-45.6,47.1c-3.1,8.3-5.3,16.4-6.8,23.1c-0.3-3-0.6-6.6-0.6-11.1
		c-0.1-5.5,0.4-12,2.2-19.2c1.9-7.2,5.1-15,10.6-22.5c2.7-3.8,5.9-7.4,9.6-10.9c3.7-3.5,7.9-6.8,12.5-9.9c0.6-0.4,1.1-0.8,1.7-1.2
		l0.2-0.1c-0.1,0.1,0,0,0,0l0.1-0.1l0.5-0.3l1-0.6c0.6-0.4,1.3-0.8,1.9-1.2c0.6-0.4,1.3-0.8,1.9-1.1c1.2-0.7,2.5-1.4,3.7-2.2
		c1.3-0.7,2.6-1.4,3.9-2.1c5.2-2.7,10.7-5.1,16.2-6.6c2.8-0.8,5.5-1.3,8.3-1.5c2.8-0.3,5.5-0.2,8.9,0.1c1.7,0.1,3.7,0.2,6.1,0
		c2.4-0.2,5.1-1,7.3-2.2c2.2-1.2,4.1-2.6,5.6-4c0.8-0.7,1.5-1.4,2.2-2.2c0.7-0.7,1.3-1.5,1.9-2.2l1.8-2.2l1.6-2
		c1-1.3,2.1-2.6,3.1-3.9c2.1-2.6,4.3-5.2,6.4-7.8c4.4-5.2,8.8-10.2,13.4-15.2c9.2-9.9,18.9-19.3,29-27.5c5.1-4,10.3-7.7,15.5-10.6
		c2.6-1.5,5.2-2.7,7.8-3.6c2.5-1,5-1.4,7-1.5l0.4,0l0.2,0l0.3,0l1.2,0c0.8,0,1.6,0,2.4,0c1.6,0,3.2,0,4.8,0c3.2,0,6.4-0.1,9.6-0.2
		c6.3-0.2,12.5-0.5,18.6-0.9c12.1-0.9,23.6-2.3,34.2-4.3c5.3-1,10.4-2.2,15.2-3.5c2.4-0.7,4.8-1.3,7-2.1c1.1-0.4,2.3-0.7,3.4-1.1
		c1.1-0.3,2.3-0.5,3.5-0.5c2.5,0,5.2,0.6,8,1.4c1.4,0.3,2.8,0.6,4.1,0.9c1.4,0.3,2.7,0.5,4,0.5c1.3,0,2.5,0,3.6-0.2
		c1.1-0.2,2.2-0.6,3.1-1c1-0.4,1.8-1,2.7-1.6c0.8-0.6,1.6-1.2,2.4-1.9c0.7-0.7,1.5-1.3,2.1-2c0.7-0.7,1.3-1.4,1.8-2.1
		c0.6-0.7,1.1-1.4,1.6-2.1c0.5-0.8,0.9-1.5,1.3-2.2c0.8-1.5,1.4-2.9,1.8-4.3c0.4-1.4,0.7-2.8,0.9-4c0.1-0.6,0.2-1.2,0.2-1.8
		c0-0.6,0.1-1.1,0.1-1.6c0-1,0-1.9-0.1-2.6c-0.1-0.7-0.2-1.3-0.2-1.7c-0.1-0.4-0.1-0.6-0.1-0.6c-1.3-6-6.1-11-12.6-12.2L515.6,1
		c0,0-0.2,0-0.5-0.1c-0.3,0-0.8-0.1-1.4-0.2c-1.3-0.2-2.8-0.3-4.7-0.5c-1.9-0.2-3.8-0.2-5.8-0.1C502.6,0.1,502.1,0.2,501.7,0.2z"/>
	<path class="st11" d="M177.5,266.3c0.1,1.4-0.2,2.7-0.7,3.9c5.8,5.2,11.5,11.4,16.7,17.9c8.3-4.4,13.8-13.4,13.3-23.4
		c-0.8-13.7-12.5-24.3-26.2-23.5c-1,0.1-1.9,0.2-2.9,0.3c-2.9,4.9-6.2,10.5-9.3,16.5C173.2,257.8,177.2,261.5,177.5,266.3z"/>
</g>
</svg>
