<?xml version="1.0" encoding="utf-8"?>
<!-- Generator: Adobe Illustrator 19.0.0, SVG Export Plug-In . SVG Version: 6.00 Build 0)  -->
<svg version="1.1" id="Layer_3" xmlns="http://www.w3.org/2000/svg" xmlns:xlink="http://www.w3.org/1999/xlink" x="0px" y="0px"
	 viewBox="0 0 478.7 628.9" style="enable-background:new 0 0 478.7 628.9;" xml:space="preserve">
<style type="text/css">
	.st0{fill:#3E275E;}
	.st1{fill:#562C77;}
	.st2{fill:#FFFFFF;}
	.st3{fill:#60378C;}
	.st4{fill:#6F41A5;}
</style>
<g>
	<path class="st0" d="M254.5,233.3c0,0,0.3,0.1,0.9,0.3c0.3,0.1,0.6,0.2,1,0.4c0.2,0.1,0.4,0.1,0.7,0.2c0.3,0.1,0.6,0.3,0.9,0.4
		c0.6,0.3,1.3,0.6,2.1,1c0.2,0.1,0.4,0.2,0.6,0.3c0.2,0.1,0.3,0.2,0.5,0.3c0.4,0.2,0.7,0.4,1.1,0.6c0.8,0.5,1.6,0.9,2.4,1.5
		c0.8,0.5,1.7,1.1,2.6,1.7c3.7,2.5,8,5.6,12.6,9.5c4.7,3.9,9.8,8.3,15.1,13.4c5.4,5,11.1,10.6,16.9,16.7c2.9,3,5.9,6.1,8.9,9.3
		l0.4,0.4l0.1,0.2l0.3,0.3l0.5,0.6l0.5,0.6c0.2,0.2,0.3,0.4,0.6,0.7l1.3,1.8c0.4,0.6,0.9,1.2,1.2,1.8c0.7,1.1,1.4,2.2,2,3.3
		c0.6,1.1,1.2,2.2,1.8,3.4c2.2,4.5,4,9.1,5.6,13.7c1.6,4.6,3.1,9.3,4.4,14c2.6,9.4,4.8,19,7,28.6c2.1,9.5,4.2,19,6.3,28.2
		c1.1,4.6,2.2,9.1,3.5,13.3c0.6,2.1,1.3,4.2,2.1,6.1c0.2,0.5,0.4,0.9,0.6,1.4c0.2,0.4,0.4,0.9,0.6,1.3c0.4,0.8,0.8,1.6,1.2,2.1
		l0.3,0.5l0.5,0.7l1,1.4c0.7,0.9,1.4,1.8,2,2.7c1.3,1.8,2.7,3.6,4,5.4c2.6,3.6,5.2,7.1,7.6,10.5c2.4,3.4,4.8,6.8,7,10.1
		c2.2,3.3,4.3,6.5,6.3,9.6c2,3.1,3.8,6.2,5.6,9c1.7,2.9,3.4,5.7,4.8,8.4c0.7,1.3,1.4,2.6,2.1,3.9c0.6,1.3,1.3,2.5,1.9,3.7
		c1.2,2.3,2.2,4.6,3.1,6.5c0.9,2,1.6,3.8,2.3,5.4c0.3,0.8,0.6,1.5,0.9,2.2c0.2,0.7,0.5,1.3,0.6,1.9c0.8,2.3,1.2,3.5,1.2,3.5
		c0.7,2.1-0.4,4.4-2.5,5.1c-2,0.7-4.1-0.3-4.9-2.2l-0.1-0.3c0,0-0.5-1.1-1.3-3.1c-0.2-0.5-0.5-1.1-0.7-1.7c-0.3-0.6-0.6-1.3-1-2
		c-0.7-1.4-1.5-3.1-2.5-4.9c-1-1.8-2.1-3.8-3.4-6c-0.6-1.1-1.3-2.2-2-3.4c-0.7-1.1-1.5-2.3-2.3-3.6c-1.5-2.5-3.3-5-5.1-7.8
		c-1.9-2.7-3.8-5.5-5.9-8.5c-4.2-5.8-8.9-12.1-14-18.6c-2.6-3.3-5.2-6.6-7.9-10c-1.4-1.7-2.8-3.4-4.2-5.1c-0.7-0.9-1.4-1.7-2.1-2.6
		l-1.1-1.3l-0.5-0.7l-0.7-0.9c-1.9-2.6-2.9-5-4-7.4c-1-2.4-1.9-4.7-2.7-7.1c-1.6-4.7-2.9-9.4-4.2-14.1c-2.5-9.4-4.7-18.9-7-28.3
		c-2.3-9.4-4.6-18.8-7.3-27.7c-1.3-4.5-2.7-8.9-4.2-13.1c-1.5-4.2-3.1-8.3-5-12c-0.5-0.9-0.9-1.8-1.4-2.7c-0.5-0.9-1-1.6-1.5-2.5
		c-0.3-0.5-0.5-0.7-0.7-1l-0.6-0.9c-0.1-0.1-0.3-0.4-0.5-0.6l-0.5-0.6l-0.5-0.6l-0.3-0.3l-0.1-0.2c0.1,0.1-0.3-0.3,0.2,0.2l-0.1-0.1
		c-3-3.2-6-6.2-8.9-9.3c-5.8-6-11.1-11.7-16.1-17c-5-5.2-9.5-10-13.5-14.3c-4-4.2-7.6-7.8-10.5-10.7c-1.5-1.4-2.8-2.7-3.9-3.7
		c-0.3-0.3-0.6-0.5-0.8-0.8c-0.1-0.1-0.3-0.2-0.4-0.4c-0.1-0.1-0.2-0.2-0.3-0.3c-0.4-0.3-0.8-0.7-1.2-1c-0.2-0.2-0.3-0.3-0.5-0.4
		c-0.2-0.1-0.4-0.3-0.6-0.4c-0.4-0.2-0.7-0.4-0.9-0.6c-0.5-0.3-0.8-0.5-0.8-0.5l-0.1,0c-1.9-1.2-2.4-3.7-1.1-5.6
		C250.9,233.4,252.8,232.8,254.5,233.3z"/>
</g>
<g>
	<path class="st0" d="M287.9,216.9c0,0,0.3,0.1,0.9,0.3c0.6,0.2,1.5,0.5,2.6,0.8c2.3,0.8,5.5,2,9.6,3.7c4.1,1.8,9,4,14.4,7
		c5.4,3,11.5,6.8,17.7,11.9c3.1,2.6,6.2,5.5,9.1,9.3c1.4,1.9,2.9,4,4,6.6c0.3,0.6,0.5,1.3,0.8,2l0.3,1l0,0.1c0,0.1,0,0,0.1,0.2
		l0,0.2l0.1,0.4c0.1,0.5,0.3,1,0.4,1.5c0.1,0.6,0.3,1.1,0.4,1.7c1,4.3,1.8,8.7,2.7,13.1c0.8,4.4,1.7,8.9,2.6,13.4
		c1.8,9.1,3.7,18.4,6,27.6c1.2,4.6,2.5,9.2,4,13.6c0.8,2.2,1.6,4.4,2.5,6.4c0.9,2.1,1.9,4,3,5.7c0.3,0.4,0.5,0.8,0.8,1.2
		c0.3,0.3,0.5,0.8,0.8,1l0.4,0.4l0.2,0.2l0.2,0.1c0.1,0.1,0.2,0.2,0.3,0.3l0.1,0.1l0,0l0.2,0.1l0.4,0.3c0.9,0.7,2.2,1.6,3.2,2.5
		c1,0.8,2,1.7,3,2.5c3.9,3.4,7.5,6.9,11,10.5c6.9,7.2,13.4,14.7,19,22.4c5.7,7.7,10.8,15.6,14.4,24.1c1.8,4.3,3.3,8.7,3.6,13.6
		l0.1,0.9l0,0.5l0,0.4c0,0.5,0,0.9,0,1.4c0,1,0.1,1.9,0.1,2.8c0.1,1.9,0.2,3.7,0.3,5.6c0.5,7.3,1.2,14,1.9,20
		c0.7,5.9,1.5,11.1,2.1,15.3c0.7,4.2,1.3,7.4,1.9,9.4c0.3,1,0.5,1.6,0.6,1.7l0,0l0,0l-0.1-0.1c0-0.1-0.1-0.1-0.1-0.1
		c-0.1-0.1-0.2-0.2-0.3-0.3c-0.1-0.1-0.5-0.4-0.8-0.5c-0.2-0.1-0.4-0.1-0.4-0.1c2.1,0.7,3.2,3,2.5,5.1s-3,3.2-5.1,2.5
		c0,0-0.2,0-0.5-0.2c-0.3-0.1-0.8-0.5-1-0.7c-0.1-0.1-0.3-0.3-0.5-0.4c-0.1-0.1-0.2-0.2-0.3-0.4c-0.1-0.1-0.1-0.1-0.2-0.2
		c0-0.1-0.1-0.1-0.1-0.2c-0.1-0.1-0.2-0.3-0.2-0.4c-0.6-1-1-2-1.4-3.3c-0.8-2.5-1.7-5.9-2.6-10.2c-0.9-4.3-1.8-9.6-2.8-15.6
		c-0.9-6-1.9-12.8-2.7-20.4c-0.2-1.9-0.4-3.8-0.5-5.8c-0.1-1-0.1-2-0.2-3c0-0.5-0.1-1-0.1-1.5l0-0.4l0-0.3l-0.1-0.6
		c0-0.7-0.2-1.6-0.4-2.4c-0.2-0.8-0.4-1.7-0.7-2.5c-0.3-0.9-0.6-1.7-0.9-2.6c-0.3-0.9-0.7-1.8-1.1-2.6c-3.2-7.1-8.1-14.4-13.6-21.5
		c-5.5-7.1-11.8-14.2-18.5-20.9c-3.4-3.4-6.9-6.6-10.4-9.6c-0.9-0.7-1.8-1.5-2.7-2.2c-0.9-0.7-1.6-1.2-2.7-2l-0.4-0.3
		c0,0-0.2-0.1,0,0l-0.1-0.1l-0.3-0.2l-1.1-0.9l-0.5-0.4l-0.5-0.5l-0.9-0.9c-0.6-0.6-1-1.2-1.6-1.9c-0.5-0.6-0.9-1.2-1.3-1.9
		c-1.7-2.5-2.9-5-4-7.4c-1.1-2.5-2.1-4.9-3-7.4c-1.7-4.9-3.2-9.8-4.5-14.6c-2.6-9.7-4.6-19.2-6.4-28.3c-0.9-4.6-1.8-9.1-2.7-13.4
		c-0.9-4.4-1.7-8.6-2.6-12.6l-0.3-1.4c-0.1-0.5-0.3-1-0.4-1.5l-0.1-0.4l0-0.2c0,0.1,0,0,0,0l0-0.1l-0.2-0.4
		c-0.1-0.3-0.2-0.6-0.3-0.9c-0.5-1.2-1.4-2.6-2.4-3.8c-2-2.6-4.6-5-7.2-7.2c-5.3-4.4-10.7-8.1-15.6-11.4c-4.9-3.2-9.3-5.9-12.9-8.1
		c-7.3-4.4-11.5-7-11.5-7l-0.1,0c-1.9-1.2-2.5-3.6-1.4-5.5C284.2,217.1,286.2,216.4,287.9,216.9z"/>
</g>
<g>
	<path class="st1" d="M264.1,203c0,0,0.1,0,0.3,0c0.1,0,0.2,0,0.4,0.1c0.1,0,0.2,0,0.3,0c0,0,0.1,0,0.2,0c0.1,0,0.2,0,0.4,0l0.1,0
		l0.2,0c0.1,0,0.3,0,0.4,0c0.6,0,1.3,0.1,2,0.1c3.2,0.1,8.2,0.2,14.6,0.9c6.4,0.8,14.2,2.2,22.7,5.4c8.5,3.2,17.6,8.2,25.9,15.5
		c8.3,7.3,15.9,16.7,21.8,27.5c0.4,0.7,0.8,1.3,1.1,2l0.1,0.3l0.2,0.3l0.3,0.5l0.5,1c0.7,1.3,1.4,2.6,2.1,4.1
		c0.7,1.4,1.4,2.9,2.1,4.3c0.6,1.4,1.3,2.9,2,4.4c1.2,3,2.5,6,3.5,9.2c1.1,3.1,2,6.4,2.7,9.8c0.7,3.4,1.2,7,1.2,10.6
		c0,1.8,0,3.6-0.2,5.4c-0.1,1.8-0.4,3.5-0.5,5.1c-0.2,1.6-0.3,3-0.3,4.2c0.1,1.1,0.3,2,0.7,3c0.9,2,2.8,4.2,5,6.3l1.7,1.6l1.9,1.7
		c1.3,1.1,2.6,2.3,3.9,3.4c2.6,2.3,5.1,4.6,7.7,7c5.1,4.7,10.1,9.6,14.9,14.5c9.8,9.9,19.2,20.3,27.5,31.4
		c4.1,5.6,8.1,11.4,11.3,17.7c1.6,3.1,3.1,6.4,4.3,9.9c1.2,3.5,2,7.3,2,11.3c0,1.1,0,1.8,0,2.6c0,0.8,0,1.6-0.1,2.4
		c0,1.6,0,3.2-0.1,4.7c0,3.1,0,6.2,0,9.3c0.1,6.1,0.2,12.1,0.6,17.9c0.6,11.6,1.9,22.5,3.6,32.3c0.9,4.9,1.9,9.6,3,13.9
		c0.6,2.2,1.1,4.3,1.8,6.3c0.3,1,0.6,2,1,3c0.4,0.9,0.9,1.8,1.5,2.7c0.6,0.8,1.4,1.6,2.2,2.3c0.8,0.7,1.7,1.3,2.6,1.9
		c1.9,1.1,3.6,2.2,5.2,3.2c1.5,1,2.5,2.1,3.3,3.2c0.4,0.5,0.7,1.1,1,1.7c0.3,0.5,0.6,1.1,0.8,1.6c0.2,0.5,0.5,1.1,0.7,1.6
		c0.2,0.5,0.4,1,0.6,1.5c0.2,0.5,0.3,1,0.4,1.6c0.1,0.5,0.3,1,0.4,1.5c0.4,2,0.7,3.8,0.8,5.4c0.1,1.7,0.2,3,0.2,4c0,0.5,0,0.9,0,1.2
		c0,0.3,0,0.4,0,0.4l-0.1,2c-0.3,5.2-4.6,9.3-9.7,9.3c0,0-0.2,0-0.5,0c-0.3,0-0.8,0-1.4-0.1c-0.6-0.1-1.3-0.2-2.2-0.3
		c-0.4-0.1-0.9-0.2-1.4-0.3c-0.5-0.1-1-0.3-1.5-0.5c-1-0.4-2.1-0.8-3.3-1.4c-1.2-0.6-2.3-1.3-3.6-2.2c-0.6-0.4-1.2-0.9-1.9-1.4
		c-0.6-0.5-1.2-1.1-1.8-1.7c-0.6-0.6-1.2-1.2-1.8-1.9c-0.6-0.7-1.1-1.4-1.6-2.1c-0.5-0.7-1.1-1.5-1.6-2.3c-0.5-0.8-1-1.7-1.3-2.6
		c-0.4-0.9-0.7-1.9-0.9-2.9c-0.2-1-0.3-2.1-0.3-3.3c0-1.1,0-2.3,0.2-3.5c0.2-1.2,0.3-2.4,0.5-3.7c0.5-2.5,0.8-4.9,0.7-7.3
		c0-2.3-0.8-4.5-1.4-6.7c-0.6-2.3-1.1-4.6-1.7-7c-1-4.8-1.9-9.8-2.7-15.1c-1.5-10.5-2.3-22-2.6-34c-0.2-6-0.2-12.2,0-18.5
		c0.1-3.1,0.2-6.3,0.3-9.5c0.1-1.6,0.1-3.2,0.2-4.8c0-0.8,0.1-1.6,0.1-2.4c0-0.8,0.1-1.7,0.1-2.2c0-2.4-0.4-5.1-1.3-7.8
		c-0.9-2.7-2-5.5-3.4-8.3c-2.7-5.5-6.2-11-10-16.4c-7.7-10.6-16.7-20.9-26.1-30.6c-4.7-4.9-9.6-9.6-14.5-14.3
		c-2.5-2.3-4.9-4.6-7.5-6.9c-1.3-1.1-2.5-2.2-3.8-3.3l-1.9-1.7l-2-1.8l-2-2c-0.6-0.7-1.3-1.4-1.9-2.2c-1.3-1.5-2.5-3.3-3.4-5.4
		c-1-2.1-1.5-4.5-1.6-6.7c-0.1-2.2,0.1-4.1,0.3-5.8c0.4-3.4,0.7-6.2,0.6-9.2c-0.1-2.9-0.5-5.8-1.1-8.7c-1.3-5.8-3.4-11.5-5.8-16.9
		c-0.6-1.4-1.3-2.7-1.9-4c-0.7-1.3-1.3-2.6-2-3.9c-0.6-1.3-1.4-2.6-2.1-4l-0.5-1l-0.3-0.5l-0.1-0.1c0,0-0.1-0.1,0-0.1l-0.1-0.2
		c-0.4-0.6-0.7-1.2-1.1-1.8c-5.7-9.8-12.6-17.8-20-23.9c-7.4-6.1-15.3-10-22.6-12.4c-7.3-2.4-14.1-3.4-19.7-3.7
		c-5.6-0.3-10.1-0.2-13.3-0.1c-0.9,0-1.6,0-2.3,0.1c-0.2,0-0.3,0-0.5,0c-0.1,0-0.2,0-0.2,0c-0.1,0-0.2,0-0.3,0c-0.4,0-0.7,0-1,0
		c-0.2,0-0.3,0-0.4,0c-0.1,0-0.2,0-0.3,0c-0.2,0-0.3,0-0.4,0c-0.2,0-0.3,0-0.3,0c-4.1-0.3-7.3-3.8-7-8c0.3-4.1,3.8-7.3,8-7
		C263.6,203,263.8,203,264.1,203L264.1,203z"/>
</g>
<g>
	<path class="st0" d="M225.3,246.9c0,0,0.7,1.1,1.8,3.2c1.2,2.1,2.8,5.1,4.9,9c2,3.9,4.5,8.7,7.1,14.3c2.6,5.6,5.4,12,8.1,19.3
		c1.4,3.6,2.6,7.5,3.8,11.7c0.6,2.1,1.1,4.3,1.5,6.7c0.4,2.4,0.7,4.9,0.4,8.3c-0.1,1.1-0.2,2.1-0.4,3.2c-0.1,0.5-0.1,1.1-0.2,1.6
		l-0.1,1.5c-0.1,1-0.2,2-0.2,3c0,1-0.1,2.1-0.1,3.2c-0.1,4.2-0.1,8.5,0.3,12.9c0.3,4.4,1.1,8.7,2,13.1c1.1,4.4,2.3,8.7,4,13
		c3.3,8.5,7.9,16.8,13.5,24.3c0.7,1,1.4,1.9,2.2,2.8l2.2,2.8c1.6,2,3.2,3.9,4.8,5.9c0.4,0.5,0.8,0.9,1.2,1.5l1.2,1.6l2.4,3.3
		c0.8,1.1,1.5,2.2,2.2,3.3c0.7,1.1,1.5,2.2,2.1,3.4c2.7,4.6,4.9,9.7,6.5,14.9c1.5,5.3,2.1,10.8,2.2,15.9c0,5.1-0.3,9.7-0.4,13.9
		c0,1,0,2.1,0,3.1c0,1,0.1,2,0.1,3c0.1,2.1,0.3,4.3,0.5,6.5c0.7,8.5,1.5,16.5,2.5,23.8c1,7.3,2.1,13.9,3.4,19.7
		c0.7,2.9,1.4,5.5,2.1,7.9c0.7,2.4,1.5,4.5,2.3,6.4c1.6,3.7,3.2,6.2,4.4,7.5c0.6,0.6,1.1,1.1,1.4,1.4c0.3,0.3,0.5,0.4,0.5,0.4
		l0.5,0.4c1.7,1.4,2,3.9,0.6,5.6c-1.3,1.6-3.6,1.9-5.3,0.8c0,0-0.3-0.2-1-0.7c-0.7-0.4-1.6-1.2-2.6-2.2c-2.1-2-4.4-5.2-6.6-9.5
		c-1.1-2.1-2.1-4.5-3.1-7.1c-1-2.6-1.9-5.4-2.8-8.5c-1.8-6.1-3.3-13-4.6-20.5c-1.4-7.5-2.5-15.7-3.6-24.3c-0.3-2.2-0.5-4.3-0.8-6.6
		c-0.1-1.2-0.2-2.4-0.3-3.6c0-1.2-0.1-2.4-0.1-3.6c-0.1-4.8,0.2-9.4,0-13.7c-0.1-4.3-0.7-8.4-2-12.3c-1.3-4-3.1-7.9-5.5-11.7
		c-0.5-1-1.2-1.9-1.9-2.9c-0.6-0.9-1.2-1.9-1.9-2.8l-2.1-2.7l-1-1.4c-0.3-0.5-0.8-0.9-1.2-1.4c-1.6-1.9-3.2-3.8-4.8-5.7l-2.5-3
		c-0.8-1-1.7-2-2.5-3.1c-3.2-4.2-6.2-8.6-8.8-13.3l-1.9-3.5c-0.7-1.1-1.2-2.4-1.8-3.6c-0.6-1.2-1.1-2.4-1.7-3.6
		c-0.5-1.2-1-2.5-1.5-3.7c-2-4.9-3.4-9.9-4.7-15c-1.1-5.1-2-10.1-2.4-15.1c-0.3-2.5-0.3-5-0.4-7.4c0-1.2,0-2.5,0-3.7
		c0-1.2,0-2.4,0.1-3.6c0.1-1.2,0.1-2.4,0.2-3.6c0.1-1.2,0.2-2.4,0.3-3.6c0.1-0.6,0.1-1.2,0.2-1.8c0.1-0.5,0.2-1.1,0.2-1.6
		c0.2-1.1,0.3-2.2,0.4-3.3c0-0.3,0.1-0.5,0.1-0.8c0-0.4,0-0.7,0-1.1c-0.1-0.8-0.1-1.6-0.2-2.5c-0.2-1.7-0.6-3.6-1-5.4
		c-0.8-3.7-1.9-7.3-2.9-10.8c-1-3.5-2.1-6.8-3.2-10c-1.1-3.2-2.1-6.2-3.1-9.1c-2.1-5.7-3.8-10.6-5.4-14.7c-3-8.2-4.7-12.8-4.7-12.8
		c-0.8-2.1,0.3-4.4,2.4-5.2C222.3,244.6,224.3,245.3,225.3,246.9L225.3,246.9z"/>
</g>
<g>
	<path class="st2" d="M258.9,195c-4.8-3.1-10.1-6.8-16-10.2c-0.1,4.8-4,8.6-8.7,8.6c-4.8,0-8.8-3.9-8.8-8.8c0-2.8,1.3-5.2,3.3-6.8
		c-2-0.8-4-1.5-6.1-2.1c-7.9,4.2-13.3,12.5-13.3,22.1c0,13.8,11.2,24.9,24.9,24.9c13.8,0,24.9-11.2,24.9-24.9
		C259.1,196.9,259,195.9,258.9,195z"/>
	<path d="M225.4,184.7c0,4.8,3.9,8.8,8.8,8.8c4.8,0,8.7-3.9,8.7-8.6c-4.5-2.6-9.3-5-14.2-6.9C226.7,179.5,225.4,182,225.4,184.7z"/>
</g>
<g>
	<path class="st0" d="M243.1,239c0,0,0.3,0.2,0.7,0.6c0.5,0.4,1.2,1,2.1,1.7c1.8,1.6,4.4,3.8,7.5,6.9c3.2,3.1,6.8,6.9,10.8,11.6
		c4,4.6,8.3,10.1,12.7,16.3c4.3,6.3,8.7,13.4,12.5,21.4c1.9,4,3.7,8.3,5.2,12.9c0.7,2.3,1.4,4.6,2,7c0.3,1.3,0.5,2.3,0.8,3.5
		c0.2,1.1,0.5,2.3,0.7,3.4c1.9,9.2,3.6,18.7,5.1,28.3c1.5,9.6,2.9,19.3,4.7,28.7c0.9,4.7,2,9.3,3.3,13.4c0.7,2,1.5,4,2.3,5.4
		c0.4,0.7,0.8,1.2,1.2,1.6c0.3,0.3,0.3,0.3,0.4,0.4l0.4,0.4c0.3,0.3,0.7,0.5,1.1,0.8c1.5,1.1,3.5,2.2,5.4,3.3c2,1.1,4.1,2.1,6.2,3.2
		c4.2,2.1,8.5,4.2,12.8,6.6c4.2,2.4,8.4,5,12.3,8.7c1.9,1.9,3.8,4.1,5.1,6.9c1.4,2.8,2,6.2,1.6,9.4c-0.1,0.4-0.1,0.8-0.2,1.2
		l-0.1,0.6l-0.1,0.3l-0.1,0.5c-0.2,0.5-0.3,1-0.5,1.5c-0.3,0.7-0.5,1.4-0.8,2c-0.3,0.6-0.5,1.1-0.8,1.7c-1.1,2.2-2.3,4-3.5,5.8
		c-2.4,3.5-4.8,6.5-6.9,9.4c-2.1,2.9-4.1,5.6-5.7,8.3c-1.6,2.7-2.9,5.3-3.9,7.8c-1,2.5-1.7,4.9-2.1,7.2c-0.5,2.3-0.7,4.4-0.7,6.3
		c-0.1,3.9,0.4,7,0.7,9c0.2,1,0.4,1.8,0.5,2.4c0.1,0.5,0.2,0.8,0.2,0.8l0.1,0.2c0.5,2.2-0.9,4.3-3,4.8c-2.1,0.5-4.1-0.8-4.7-2.8
		c0,0-0.1-0.3-0.3-0.9c-0.2-0.6-0.5-1.5-0.7-2.7c-0.6-2.4-1.3-6-1.4-10.8c-0.1-4.7,0.5-10.6,2.7-16.8c1.1-3.1,2.5-6.3,4.2-9.4
		c1.7-3.1,3.7-6.3,5.8-9.4c2.1-3.1,4.4-6.2,6.4-9.4c1-1.6,1.9-3.1,2.6-4.7l0.5-1.1c0.1-0.3,0.2-0.6,0.3-0.9c0.1-0.5,0.3-1,0.4-1.5
		c-0.1,0.4,0,0.1,0,0.2l0-0.1l0-0.1l0-0.2l0-0.4c0-1.1-0.2-2-0.8-3.1c-0.6-1.1-1.6-2.3-2.9-3.4c-2.7-2.3-6.3-4.5-10.1-6.4
		c-3.9-2-8.1-3.8-12.4-5.8c-2.2-1-4.4-2-6.7-3.1c-2.3-1.1-4.6-2.4-7-4c-0.6-0.4-1.2-0.9-1.9-1.3c-0.3-0.3-0.6-0.5-1-0.8
		c-0.4-0.3-0.8-0.7-1-0.9l-0.2-0.2l-0.1-0.1l-0.2-0.2l-0.5-0.5c-0.3-0.4-0.6-0.7-0.9-1.1c-0.5-0.7-1-1.4-1.4-2.1
		c-1.7-2.8-2.7-5.4-3.7-8c-1.8-5.1-3-10.1-4-15.1c-2.1-9.9-3.6-19.6-5.3-29.1c-1.6-9.5-3.2-18.8-5.1-27.6c-0.2-1.1-0.5-2.2-0.7-3.3
		c-0.2-1.1-0.5-2.2-0.8-3.2c-0.5-2-1.1-3.9-1.7-5.9c-1.3-3.9-2.9-7.6-4.6-11.2c-1.7-3.6-3.5-7.1-5.4-10.4c-1.9-3.3-3.8-6.5-5.7-9.5
		c-3.8-6.1-7.5-11.5-10.8-16.3c-3.4-4.8-6.4-9-8.9-12.4c-5-6.8-7.9-10.7-7.9-10.7l-0.1-0.1c-1.3-1.8-0.9-4.3,0.8-5.6
		C239.7,237.8,241.7,237.9,243.1,239z"/>
</g>
<path class="st1" d="M274.8,203c-3.7-0.2-9.2-3.6-15.8-8c0.1,0.9,0.2,1.9,0.2,2.9c0,13.8-11.2,24.9-24.9,24.9
	c-13.8,0-24.9-11.2-24.9-24.9c0-9.6,5.4-17.9,13.3-22.1c-1.9-0.5-3.9-1-5.8-1.4l-44.5,31c0,0,23.5,40.5,35,58.5
	S284.8,203.5,274.8,203z"/>
<path class="st3" d="M228.8,170c1-6-10.3-12.3-17.3-5.5c-1.1,1-2.7,2.4-4.6,4c-1.9-11.7-10.7-34.8-44.8-74.4
	C108.4,31.8,31.8,18.5,31.8,18.5S17.9-10.3,3.5,4c-12,11.9,10.1,24.4,15.6,23.5c-7.7,5.3,1,24,10.3,40.7c9.3,16.7,74.6,86,86.3,94.7
	c22.8,16.9,44.6,28.2,54.3,32.7c-6.8,5.4-11,15.5-4.1,19.2C174.5,219.2,227,180.8,228.8,170z"/>
<g>
	<path class="st4" d="M80.7,47.5c0,0,0.3,0,1-0.1c0.5-0.1,1.8,0,3.4,0.1c0.3,0,0.7,0.1,1.1,0.1c0.4,0.1,0.7,0.1,1.1,0.2
		c0.8,0.1,1.6,0.3,2.5,0.5c1.7,0.4,3.7,0.9,5.7,1.7c0.5,0.2,1,0.4,1.6,0.5c0.5,0.2,1,0.4,1.6,0.6c1.1,0.4,2.2,0.9,3.3,1.4
		c1.1,0.5,2.2,1.1,3.4,1.7c0.6,0.3,1.1,0.6,1.7,0.9c0.6,0.3,1.1,0.7,1.7,1c1.1,0.7,2.3,1.4,3.5,2.2c1.1,0.8,2.2,1.6,3.4,2.4
		c0.6,0.4,1.1,0.9,1.7,1.3l1.6,1.4c1.1,0.9,2.2,1.9,3.2,2.8c1,1,2,2,3,3l1.5,1.5c0.5,0.5,1,1,1.4,1.6c1.8,2.2,3.6,4.3,5,6.7
		c1.4,2.3,2.9,4.5,3.9,6.7c0.6,1.1,1,2.2,1.5,3.3c0.3,0.5,0.5,1.1,0.7,1.6c0.2,0.5,0.4,1.1,0.6,1.6c0.7,2.1,1.3,4,1.7,5.6
		c0.4,1.7,0.6,3.3,0.8,4.5c0.3,2.5,0.4,4,0.4,4c0.1,1.7-1.3,3.2-3,3.3c-0.9,0-1.7-0.3-2.3-0.9l-0.2-0.2c0,0-1-1-2.5-2.8
		c-0.8-0.9-1.6-2-2.6-3.2c-1.1-1.2-2.2-2.5-3.4-3.9c-0.3-0.4-0.6-0.7-0.9-1.1c-0.3-0.4-0.7-0.7-1-1.1c-0.7-0.8-1.4-1.5-2.1-2.3
		c-0.7-0.8-1.4-1.6-2.2-2.4c-0.8-0.8-1.5-1.6-2.3-2.5c-0.4-0.4-0.8-0.9-1.1-1.3c-0.4-0.4-0.8-0.8-1.2-1.2c-0.8-0.8-1.7-1.7-2.5-2.6
		c-0.8-0.9-1.7-1.7-2.6-2.6c-0.9-0.9-1.7-1.8-2.6-2.6c-0.9-0.8-1.8-1.7-2.7-2.5l-1.3-1.3l-1.4-1.2c-0.9-0.8-1.8-1.7-2.7-2.5
		c-0.9-0.8-1.8-1.6-2.7-2.3c-1.7-1.6-3.5-3-5.1-4.4c-1.7-1.3-3.2-2.7-4.7-3.9c-0.7-0.6-1.4-1.2-2.1-1.7c-0.7-0.5-1.3-1-1.9-1.5
		c-0.6-0.5-1.2-0.9-1.7-1.3c-0.3-0.2-0.5-0.4-0.8-0.6c-0.2-0.2-0.4-0.3-0.6-0.5c-0.7-0.5-1.1-1.1-1.8-1.4c-0.6-0.3-0.9-0.5-0.9-0.5
		l-0.1-0.1c-1.5-0.8-2.1-2.7-1.2-4.3C78.8,48.2,79.7,47.6,80.7,47.5z"/>
</g>
<g>
	<path class="st1" d="M257.5,223.7c0,0,0.1,0,0.3-0.1c0.2,0,0.6-0.1,1-0.1c0.9-0.1,2.1-0.2,3.6-0.2c3,0,7.3,0.4,12,1.9
		c2.3,0.8,4.8,1.8,7.3,3.3c0.6,0.4,1.3,0.7,1.9,1.1c0.6,0.4,1.3,0.8,1.8,1.4c1.1,1.1,1.5,3,1.7,5.3c0.2,2.2,0.2,4.7,1,6.3
		c0.2,0.4,0.4,0.8,0.7,1.1c0.3,0.3,0.6,0.6,0.9,1c0.6,0.6,1.2,1.3,1.8,1.9c2.5,2.6,5,5.5,7.5,8.6c5.1,6.1,10.4,13.1,14.8,21.5
		c0.3,0.5,0.6,1.1,0.8,1.6c0.3,0.5,0.5,1.1,0.8,1.7c0.3,0.6,0.5,1.1,0.8,1.7c0.2,0.6,0.5,1.2,0.7,1.7c0.5,1.1,0.9,2.4,1.3,3.6
		l0.3,0.9c0.1,0.3,0.2,0.5,0.3,0.8l0.5,1.6c1.3,4.3,2.8,8.7,4.3,13.2c1.5,4.5,3.1,9,4.8,13.5c1.7,4.5,3.5,9.1,5.4,13.7
		c3.8,9.1,7.9,18.3,12.5,27c2.3,4.4,4.7,8.7,7.3,12.8c2.6,4.1,5.4,7.9,8.4,11.3c1.5,1.6,3.1,3.2,4.7,4.4c0.8,0.7,1.6,1.1,2.4,1.7
		c1,0.5,2,1,3,1.5c0.5,0.3,0.9,0.5,1.4,0.8c0.5,0.3,0.7,0.5,1.1,0.8c0.4,0.3,0.7,0.5,1,0.8c0.3,0.3,0.7,0.6,0.9,0.9
		c1.2,1.2,2.2,2.5,3,3.8c1.6,2.6,2.7,5.3,3.5,7.8c1.6,5.2,2.3,10.1,2.8,14.8c0.5,4.8,0.7,9.4,0.8,13.8c0.3,8.9,0.2,17.2,0.2,24.7
		c0,7.6,0.2,14.5,0.6,20.5c0.4,6,1.1,11.2,1.9,15.3c0.9,4.1,1.9,7.1,2.8,9c0.2,0.5,0.4,0.9,0.6,1.2c0.2,0.4,0.3,0.6,0.5,0.9
		c0.3,0.4,0.4,0.7,0.4,0.7l0.1,0.2c1.1,1.9,0.5,4.4-1.4,5.5c-1.9,1.1-4.3,0.5-5.4-1.3c0,0-0.2-0.3-0.6-0.9c-0.2-0.3-0.4-0.7-0.7-1.1
		c-0.3-0.5-0.5-1-0.8-1.6c-1.2-2.4-2.6-6-3.7-10.6c-1.1-4.6-2-10.1-2.6-16.5c-0.6-6.3-0.9-13.4-1.2-21.1c-0.3-7.7-0.4-15.9-0.9-24.5
		c-0.3-4.3-0.6-8.7-1.2-13c-0.6-4.3-1.4-8.7-2.7-12.6c-0.7-2-1.5-3.8-2.5-5.2c-0.5-0.7-1-1.4-1.5-1.9c-0.1-0.1-0.3-0.2-0.4-0.4
		c-0.1-0.1-0.3-0.2-0.4-0.3c-0.1-0.1-0.3-0.2-0.4-0.3c-0.1,0-0.2-0.1-0.2-0.1l-1.5-0.7c-0.7-0.3-1.4-0.7-2.1-1
		c-1.3-0.8-2.6-1.5-3.8-2.4c-2.4-1.7-4.4-3.7-6.4-5.6c-3.8-4-7-8.3-9.9-12.7c-2.9-4.4-5.6-9-8.1-13.6c-4.9-9.2-9.1-18.7-12.9-28.1
		c-3.8-9.4-7.2-18.8-10.4-27.9c-1.6-4.5-3.1-9-4.5-13.5l-0.5-1.6c-0.1-0.3-0.2-0.5-0.3-0.8l-0.3-0.7c-0.3-0.9-0.7-1.8-1.1-2.7
		l-0.6-1.3l-0.7-1.3l-0.7-1.3l-0.8-1.3c-2-3.4-4.4-6.6-6.8-9.6c-1.2-1.5-2.5-2.9-3.7-4.3c-1.3-1.4-2.6-2.7-3.9-4
		c-2.6-2.6-5.2-4.9-7.7-7.1c-0.6-0.6-1.3-1.1-1.9-1.6c-0.3-0.3-0.6-0.5-0.9-0.8c-0.3-0.2-0.7-0.4-1.1-0.5c-0.8-0.3-1.8-0.4-2.8-0.3
		c-1,0-2.2,0.2-3.2,0.2c-1.1,0.1-2.1,0.2-2.9,0.1c-0.9-0.1-1.6-0.3-2.2-0.7c-0.6-0.4-1-0.9-1.4-1.4c-0.4-0.5-0.9-1-1.3-1.5
		c-1.6-2-3-4-4.2-6c-2.3-3.9-3.7-7.7-4.5-10.5c-0.4-1.4-0.7-2.6-0.8-3.4c-0.1-0.4-0.1-0.7-0.2-0.9c0-0.2-0.1-0.3-0.1-0.3l0-0.1
		C252.5,227.1,254.5,224.3,257.5,223.7z"/>
</g>
<g>
	<path class="st1" d="M259.1,214.2c0,0,0.1-0.2,0.4-0.5c0.3-0.3,0.8-0.8,1.3-1.3c1.1-1.1,2.7-2.3,4.6-3.6c1.9-1.2,4.1-2.3,6.5-2.8
		c1.2-0.3,2.4-0.4,3.6-0.4c1.2,0,2.5,0.1,3.7,0.6c2.4,0.8,4.6,3,6.9,5.2c1.2,1.1,2.2,2.7,3,4.8c0.4,1,0.8,2.1,1.2,3.2
		c0.4,1,0.8,2.2,1.3,3.1c0.9,2,2.2,3.3,3.8,4.2c1.6,0.9,3.1,2,4.8,3c3.2,2.1,6.6,4.4,10,6.9c3.4,2.6,7,5.3,10.4,8.4
		c3.5,3.1,7,6.5,10.2,10.6c0.8,1,1.6,2.1,2.4,3.1c0.7,1.1,1.5,2.2,2.2,3.4c0.6,1.2,1.4,2.4,1.9,3.7c0.5,1.3,1.2,2.6,1.6,4
		c0.2,0.7,0.4,1.4,0.6,2.1c0.2,0.7,0.3,1.2,0.5,1.8c0.3,1.2,0.6,2.4,0.9,3.6c0.6,2.4,1.3,4.9,1.9,7.3c2.6,9.8,5.5,19.9,8.7,30
		c1.6,5,3.4,10.1,5.2,15c1.8,5,3.8,9.9,6,14.7c2.2,4.8,4.5,9.4,7.1,13.7c1.3,2.1,2.7,4.2,4.2,6c1.5,1.8,3.1,3.5,4.8,4.8l0.3,0.3
		l0.1,0.1l0.2,0.2l0.2,0.2l0.8,0.6l0.8,0.6l0.9,0.7c1.2,1,2.2,2,3.3,3c2.1,2,4,4.1,5.8,6.2c3.6,4.3,6.8,8.7,9.6,13.3
		c5.6,9.1,9.8,18.7,12.4,28.3c1.3,4.8,2.2,9.6,2.4,14.5c0.2,2.4,0.1,4.8-0.2,7.2c-0.3,2.4-0.7,4.8-1.5,7.1c-0.3,1-0.6,1.9-0.9,2.8
		c-0.1,0.5-0.3,1-0.4,1.4c-0.1,0.4-0.2,0.9-0.3,1.3c-0.2,0.9-0.4,1.7-0.6,2.6c-0.2,0.9-0.3,1.7-0.5,2.6c-0.6,3.4-1,6.7-1,9.8
		c0,0.4,0,0.8,0,1.1c0,0.4,0,0.8,0,1.1c0,0.7,0,1.5,0.1,2.2c0.1,1.4,0.2,2.8,0.4,4.1c0.3,2.6,1,5,1.5,7.1c1.3,4.2,2.8,7.3,4,9.3
		c0.5,1,1.1,1.8,1.4,2.3c0.3,0.5,0.5,0.8,0.5,0.8l0.1,0.2c1.2,1.9,0.6,4.3-1.3,5.5c-1.8,1.1-4.2,0.6-5.4-1.1c0,0-0.2-0.3-0.6-0.9
		c-0.4-0.6-1-1.4-1.7-2.6c-1.4-2.3-3.4-5.9-5-10.8c-1.6-4.9-2.9-11.1-3-18.2c-0.1-3.6,0.2-7.3,0.8-11.3c0.2-1,0.3-2,0.5-3
		c0.2-1,0.4-2,0.7-3.1c0.1-0.5,0.2-1,0.4-1.6c0.1-0.5,0.3-1,0.4-1.4c0.3-1,0.5-2,0.8-3c0.5-1.6,0.8-3.3,0.9-5.2
		c0.1-1.8,0.2-3.7,0-5.7c-0.3-4-1.1-8.1-2.4-12.3c-2.5-8.4-6.6-17-11.8-25.2c-2.6-4.1-5.6-8-8.9-11.7c-1.6-1.8-3.4-3.6-5.1-5.3
		c-0.9-0.8-1.8-1.6-2.7-2.3l-0.7-0.5l-0.8-0.6l-1.6-1.2c-2.6-1.9-4.8-4.2-6.8-6.5c-2-2.3-3.7-4.7-5.3-7.1c-3.2-4.9-5.8-10-8.1-15.2
		c-2.3-5.1-4.3-10.4-6.2-15.6c-1.9-5.2-3.5-10.5-5-15.7c-3.1-10.4-5.7-20.8-8.1-30.7c-0.6-2.5-1.2-4.9-1.8-7.4
		c-0.3-1.2-0.6-2.4-0.9-3.6c-0.2-0.6-0.3-1.2-0.5-1.8l-0.5-1.4c-0.2-0.9-0.8-1.9-1.1-2.8c-0.4-0.9-1-1.8-1.5-2.7
		c-0.6-0.9-1.2-1.7-1.8-2.6c-0.7-0.8-1.3-1.6-2-2.4c-2.8-3.2-5.9-6-9.2-8.5c-3.3-2.5-6.7-4.8-10-6.8c-3.4-2-6.7-3.8-9.9-5.4
		c-1.6-0.8-3.2-1.6-4.7-2.3c-0.8-0.4-1.6-0.7-2.4-0.8c-0.9-0.1-1.9,0-2.8,0.2c-2,0.4-4.2,1.4-6.1,2c-2,0.7-3.7,1-5.1,0.9
		c-2.9-0.2-5.6-0.2-7.5-1.3c-1-0.5-1.8-1.3-2.5-2.1c-0.7-0.8-1.4-1.7-1.9-2.7c-1.1-1.9-1.8-4.2-2.3-6.3c-0.4-2.2-0.7-4.1-0.8-5.7
		c-0.1-0.7-0.1-1.4-0.1-1.8c0-0.4,0-0.7,0-0.7l0-0.1C256.3,218.8,257.3,216.1,259.1,214.2z"/>
</g>
<g>
	<path class="st1" d="M243.2,234.7c0,0,0.3-0.2,0.9-0.5c0.3-0.2,0.7-0.4,1.1-0.6c0.4-0.2,0.8-0.4,1.3-0.7c2.1-1.1,4.9-2.4,7.6-3.2
		c1.4-0.4,2.8-0.8,4.1-0.9c0.7-0.1,1.3-0.1,1.9-0.1c0.6,0,1.2,0.1,1.7,0.2c1.1,0.2,2.1,0.6,2.9,1.3c0.8,0.7,1.3,1.7,2,2.6
		c0.7,0.9,1.5,1.8,2.8,2.4c0.4,0.1,1.1-0.1,1.7-0.1c0.6-0.1,0.9,0.1,0.9,0.5c0.1,0.8,0.2,1.5,0.3,2.4c0.1,1.7,0.2,3.4,0.2,5.4
		c0,0.9-0.1,2-0.2,3c-0.1,1-0.1,2.1-0.2,3.1c-0.2,2.1-0.5,4.3-0.6,6.5c-0.1,2.1-0.1,4.2,0.1,6.2c0.4,3.9,2.2,7.1,3.6,10.7
		c1.5,3.5,3.1,7.2,4.7,11c1.6,3.8,3.3,7.8,4.8,12.1c0.4,1.1,0.7,2.2,1,3.4c0.3,1.1,0.6,2.1,0.9,3.2c0.6,2.2,1.1,4.4,1.6,6.5
		c1,4.4,2,8.8,2.9,13.2c0.9,4.5,1.6,9,2.3,13.5c0.7,4.5,1.6,9,2.6,13.5c1,4.5,2.3,8.8,3.9,13c1.6,4.2,3.5,8.2,5.8,11.6
		c1.2,1.7,2.5,3.3,3.9,4.7c1.4,1.4,2.9,2.7,4.6,3.6l0.6,0.4l1,0.6l1.5,1l1.9,1.4l0.9,0.7l0.8,0.7l1.6,1.4l1.5,1.5c1,1,1.8,2,2.8,3
		c3.4,4.2,6.1,8.7,8.4,13.2c2.2,4.6,3.9,9.2,5.3,13.8c1.4,4.6,2.4,9.2,3.1,13.8c0.7,4.6,1.2,9,1.3,13.5c0,2.2,0,4.5-0.2,6.7
		c-0.1,0.6-0.1,1.1-0.2,1.7c-0.1,0.6-0.2,1.2-0.3,1.8c-0.1,0.6-0.3,1.2-0.4,1.9c-0.2,0.6-0.3,1.1-0.5,1.7l-0.2,0.7l-0.1,0.4
		c-0.1,0.2-0.1,0.6-0.2,1c-0.1,0.8-0.2,1.6-0.3,2.4c-0.1,1.7-0.1,3.4-0.1,5.1c0.3,6.9,1.3,13.3,2.5,18.9c1.2,5.6,2.7,10.4,4.1,14.1
		c1.4,3.8,2.9,6.5,3.9,8.1c0.3,0.4,0.5,0.7,0.7,1c0.2,0.3,0.4,0.5,0.5,0.7c0.3,0.4,0.4,0.5,0.4,0.5l0.2,0.3c1.4,1.7,1.2,4.2-0.5,5.6
		c-1.6,1.4-4.1,1.2-5.5-0.4c0,0-0.2-0.3-0.7-0.8c-0.2-0.3-0.5-0.6-0.8-1c-0.3-0.4-0.7-0.9-1-1.4c-1.5-2.1-3.3-5.3-5-9.5
		c-1.7-4.2-3.5-9.3-5-15.2c-1.5-6-2.8-12.7-3.4-20.5c-0.1-1.9-0.2-3.9-0.1-6.1c0-1.1,0.1-2.2,0.3-3.3c0.1-0.6,0.1-1.1,0.3-1.9
		l0.2-1.1l0.2-0.7l0.1-0.2l0-0.1l0.1-0.3l0-0.2l0.1-0.4c0.1-0.4,0.1-0.7,0.2-1.1c0-0.4,0.1-0.8,0.1-1.2c0-0.4,0.1-0.9,0.1-1.3
		c0.1-1.8,0-3.7-0.1-5.6c-0.2-3.9-0.8-8-1.6-12c-0.8-4.1-1.8-8.2-3.2-12.3c-1.4-4.1-3-8.1-5-12c-2-3.8-4.4-7.4-7.1-10.6
		c-0.7-0.7-1.4-1.6-2.2-2.2l-1.1-1.1l-1.2-1l-0.6-0.5l-0.6-0.4l-1.1-0.8l-3.1-1.8c-2.6-1.4-4.8-3.3-7-5.2c-2.1-2-3.9-4.1-5.6-6.4
		c-3.3-4.5-5.7-9.4-7.7-14.2c-2-4.9-3.5-9.7-4.7-14.6c-1.3-4.8-2.3-9.6-3.2-14.4c-0.9-4.7-1.5-9.4-2-14c-0.5-4.6-0.7-9-1-13.4
		c-0.2-2.2-0.4-4.3-0.6-6.3c-0.1-1-0.3-2.2-0.4-3.1c-0.2-0.9-0.3-1.8-0.5-2.8c-0.9-3.7-2.4-7.2-4.2-10.5c-1.8-3.3-4-6.2-6.3-8.9
		c-2.4-2.6-4.5-5.3-7.8-6.9c-3.3-1.6-7.5-2.2-11.5-2.7c-2-0.3-3.9-0.5-5.6-0.7c-1.8-0.2-3.3-0.6-4.8-0.9c-0.7-0.2-1.4-0.4-2.1-0.6
		c-0.4-0.1-0.4-0.4-0.2-0.9c0.2-0.5,0.5-1.1,0.5-1.5c-0.2-1.3-0.8-2.1-1.5-2.8c-0.7-0.7-1.5-1.3-1.9-2c-0.5-0.7-0.7-1.7-0.6-2.7
		c0-1,0.2-2.2,0.6-3.4c0.4-1.2,0.9-2.5,1.6-3.8c1.2-2.5,2.8-5.1,4.1-7.1c0.3-0.5,0.6-0.9,0.8-1.2c0.2-0.3,0.5-0.7,0.7-1
		c0.4-0.6,0.6-0.9,0.6-0.9l0.1-0.2C239,237.8,241,236,243.2,234.7z"/>
</g>
<g>
	<path class="st1" d="M219.1,256.2c0,0,0.1,0.4,0.2,1.2c0.1,0.7,0.4,1.8,0.6,3.3c0.5,2.9,1.3,7,2.1,12.4c0.8,5.3,1.8,11.8,2.7,19.2
		c0.2,1.9,0.4,3.8,0.7,5.8c0.2,2,0.4,4,0.6,6.1c0.4,4.2,0.8,8.6,1.1,13.2c0.6,9.2,0.7,19.3,0.2,30.1c-0.7,10.7-1.9,22.1-6,33.7
		l-0.8,2.2c-0.3,0.7-0.6,1.4-0.9,2.1l-0.9,2.2c-0.3,0.7-0.7,1.4-1.1,2.1c-0.7,1.3-1.4,2.6-2.1,3.9l-1,1.9c-0.3,0.6-0.5,1.1-0.7,1.7
		c-0.2,0.6-0.5,1.1-0.7,1.7l-0.6,1.8c-0.5,1.2-0.7,2.5-1.1,3.8c-0.2,0.6-0.2,1.3-0.4,1.9c-0.1,0.6-0.2,1.3-0.3,1.9l-0.2,2
		c0,0.3-0.1,0.7-0.1,1l0,1l0,2l0.1,2c0,1.3,0.3,2.7,0.5,4c0.5,2.7,1.1,5.4,2,8c1.7,5.3,4.1,10.6,6.8,15.8c2.7,5.2,5.8,10.3,8.9,15.5
		c3.1,5.2,6.3,10.4,9.1,16.1c1.4,2.8,2.7,5.8,3.8,9l0.7,2.4c0.2,0.8,0.4,1.7,0.6,2.5l0.1,0.6l0,0.2c0,0,0.1,0.7,0.1,0.4l0,0.3
		l0.2,1.1l0.2,1.1c0,0.4,0.1,0.9,0.1,1.4c0,0.9,0.1,1.9,0.1,2.8l0,2.5c0,0.8-0.1,1.6-0.1,2.4c-0.1,0.8-0.1,1.6-0.2,2.3
		c-0.3,3.1-0.8,6.1-1.3,8.9c-1,5.8-2.1,11.2-3,16.5c-0.9,5.3-1.7,10.4-2.2,15.4c-0.5,5-0.8,9.7-0.6,14.3c0.1,4.5,0.6,8.9,2.1,12.7
		c1.5,3.8,3.6,7.2,6,9.9c2.3,2.8,4.8,5,6.8,7.1c1.1,1,2.1,2,3,3c1,0.9,1.9,1.9,2.7,2.8c0.8,0.9,1.7,1.8,2.4,2.7
		c0.2,0.2,0.4,0.5,0.5,0.7c0.2,0.2,0.3,0.5,0.5,0.7c0.4,0.4,0.7,0.9,1,1.3c0.6,0.9,1.2,1.8,1.6,2.8c0.5,0.9,1,1.8,1.4,2.7
		c0.4,0.9,0.8,1.8,1,2.6c0.3,0.8,0.6,1.6,0.9,2.3c0.5,1.5,0.8,2.8,0.9,3.7c0.2,0.9,0.2,1.5,0.2,1.5l0.1,1c0.6,5.5-3.2,10.4-8.5,11.4
		c0,0-0.6,0.1-1.6,0.2c-1,0.1-2.5,0.1-4.3-0.1c-0.9-0.1-1.9-0.2-3-0.5c-1.1-0.3-2.2-0.6-3.4-1c-1.2-0.4-2.4-1-3.7-1.6
		c-1.2-0.7-2.5-1.5-3.8-2.4c-0.7-0.5-1.3-1-1.9-1.5c-0.6-0.5-1.3-1.2-1.9-1.8c-0.6-0.6-1.2-1.3-1.8-2c-0.6-0.7-1.3-1.4-1.8-2.2
		c-1.1-1.6-2.3-3.3-3.4-5.1c-1-1.9-2-3.9-2.8-6c-0.8-2.2-1.5-4.4-2-6.8c-0.5-2.4-1-4.8-1.2-7.3c-0.1-1.3-0.3-2.5-0.4-3.8
		c0-1.3-0.1-2.5-0.2-3.8c-0.1-1.3-0.1-2.5-0.1-3.8c0-1.3-0.1-2.6-0.1-3.8c0-1.3,0-2.6,0-3.8c0-1.3,0-2.6,0-3.9
		c-0.1-1.3-0.1-2.6-0.1-3.9c0-1.3-0.1-2.6,0-3.9c0.1-5.3,0.6-10.6,1.4-16c1.5-10.8,4.4-21.7,6.6-32.5c0.6-2.7,1-5.4,1.4-8.1
		c0.1-0.7,0.2-1.3,0.2-2c0.1-0.6,0.2-1.3,0.2-1.9l0.1-1.9c0-0.6,0-1.1,0-1.6c0-0.3,0-0.5,0-0.8l-0.1-1.1l-0.1-1.1l0-0.3
		c0-0.3,0,0.3,0,0.2l0-0.1l-0.1-0.4c-0.1-0.6-0.2-1.2-0.4-1.8l-0.5-1.8c-0.8-2.5-1.8-5-3-7.5c-2.4-5.1-5.3-10.2-8.3-15.5
		c-3-5.2-6.1-10.6-8.9-16.2c-2.8-5.6-5.4-11.4-7.3-17.6c-1-3.1-1.7-6.3-2.3-9.5c-0.2-1.6-0.5-3.3-0.5-4.9l-0.1-2.5l0-2.5l0-1.2
		c0-0.4,0.1-0.8,0.1-1.2l0.2-2.5c0.1-0.8,0.3-1.6,0.4-2.5c0.2-0.8,0.2-1.6,0.5-2.4c0.4-1.6,0.7-3.2,1.3-4.8l0.8-2.3
		c0.3-0.8,0.7-1.6,1-2.3c0.3-0.8,0.7-1.6,1-2.3l1-1.9c0.7-1.3,1.3-2.5,2-3.8c0.3-0.6,0.6-1.1,0.9-1.7l0.8-1.8
		c0.3-0.6,0.5-1.2,0.8-1.8l0.6-1.9c1.7-5,2.8-10.1,3.6-15.3c0.7-5.2,1.1-10.3,1.3-15.4c0.3-10.1-0.2-19.8-1-28.6
		c-0.8-8.9-1.9-17-3.2-24.2c-1.2-7.2-2.4-13.4-3.6-18.5c-1.1-5.1-2.1-9.1-2.8-11.8c-0.4-1.3-0.6-2.4-0.8-3c-0.2-0.7-0.3-1-0.3-1l0,0
		c-1.1-4,1.2-8.1,5.2-9.3c4-1.1,8.1,1.2,9.3,5.2C219,255.8,219,256,219.1,256.2z"/>
</g>
<g>
	<path class="st1" d="M222.7,251.9c0,0,0.1,0,0.4,0c0.3,0,0.6,0.1,1.1,0.2c1,0.1,2.3,0.5,3.8,1c1.6,0.5,3.3,1.2,5.1,2.2
		c1.9,1,3.7,2.3,5.6,3.9c1.8,1.6,3.5,3.6,5,6c0.7,1.2,1.5,2.5,1.9,3.9c0.4,1.5,0.6,3.1,0.4,4.9c-0.3,3.6-1.8,7.9-2.5,11.8
		c-0.2,1-0.3,2-0.3,3c0,1,0,1.9-0.1,2.9c0,2,0,4,0,6c0.1,4,0.5,8.3-0.3,13.1c-0.2,1-0.4,2-0.6,3.1c-0.1,0.5-0.2,1-0.3,1.5l-0.1,0.7
		c0,0.2-0.1,0.5-0.1,0.7c-0.1,0.9-0.2,1.8-0.3,2.7c-0.1,0.9-0.1,1.9-0.2,2.9c-0.4,7.9,0.6,16.5,1.8,25.1c1.3,8.7,3.1,17.7,6.1,26.3
		c0.4,1.1,0.8,2.2,1.1,3.2c0.4,1.1,0.8,2.1,1.3,3.2c0.4,1,0.8,2.1,1.3,3.1l1.5,3.1c0.5,1,1.1,2,1.6,3l0.8,1.5l0.4,0.7l0.5,0.9
		l1.9,3.1c0.6,1.1,1.2,2.3,1.9,3.4c2.4,4.6,4.6,9.2,6.3,14.1c1.7,4.9,2.9,9.9,3.6,15c0.7,5.1,0.9,10.1,0.8,15
		c-0.2,4.9-0.7,9.7-1.2,14.3c-0.2,1.2-0.3,2.3-0.5,3.4c-0.1,0.9-0.3,2.2-0.4,3.2c-0.2,2-0.3,4.1-0.4,6.2c-0.1,4.2,0,8.4,0.3,12.4
		c0.6,8.1,1.6,15.8,2.9,22.8c1.3,7,2.9,13.4,4.5,18.9c1.7,5.5,3.4,10.2,5.1,13.8c1.7,3.6,3.3,6.2,4.5,7.7c0.3,0.4,0.6,0.7,0.8,1
		c0.2,0.3,0.4,0.5,0.6,0.6c0.3,0.3,0.5,0.5,0.5,0.5l0.3,0.3c1.5,1.6,1.4,4.1-0.2,5.6c-1.6,1.5-4.1,1.4-5.6-0.1c0,0-0.3-0.3-0.8-0.8
		c-0.2-0.3-0.6-0.6-0.9-0.9c-0.3-0.4-0.7-0.8-1.1-1.3c-1.6-2-3.6-5.1-5.6-9.2c-1.9-4.1-3.9-9-5.8-14.9c-1.8-5.8-3.5-12.4-5-19.7
		c-1.5-7.3-2.7-15.3-3.4-23.8c-0.3-4.3-0.6-8.7-0.5-13.3c0-2.3,0.1-4.6,0.3-7.1c0.1-1.3,0.2-2.2,0.4-3.5c0.1-1.1,0.3-2.2,0.4-3.3
		c0.5-4.4,0.8-8.9,0.9-13.4c0-4.5-0.2-8.9-0.9-13.4c-0.7-4.4-1.8-8.8-3.4-13c-1.5-4.2-3.6-8.4-5.8-12.4c-0.6-1-1.1-1.9-1.7-3
		l-1.9-3.1l-0.4-0.7l-0.5-0.8l-1-1.7c-0.7-1.1-1.4-2.2-1.9-3.4l-1.7-3.4c-0.6-1.1-1-2.3-1.6-3.5c-0.5-1.2-1-2.3-1.5-3.5
		c-0.4-1.2-0.9-2.4-1.3-3.5c-0.5-1.2-0.8-2.4-1.2-3.5c-0.4-1.2-0.7-2.4-1.1-3.6c-0.6-2.4-1.3-4.7-1.8-7.1c-0.5-2.4-1.1-4.7-1.5-7.1
		c-0.2-1.2-0.4-2.4-0.6-3.5c-0.2-1.2-0.3-2.4-0.5-3.5c-1.2-9.4-1.3-18.5-0.6-27.3c0.1-1.1,0.2-2.2,0.3-3.3c0.1-1.1,0.3-2.3,0.4-3.4
		c0.3-2,0.6-3.9,1-5.8c0.2-1.5,0.2-3.1,0-4.7c0-0.8-0.3-1.6-0.4-2.4c-0.2-0.8-0.4-1.6-0.7-2.4c-0.6-1.6-1.3-3.1-2.3-4.5
		c-0.9-1.4-1.8-2.8-3.2-3.9c-2.6-2.4-6.4-4-8.8-5.9c-1.3-0.9-2.2-1.9-2.9-3c-0.7-1.1-1-2.2-1.4-3.4c-0.6-2.3-0.9-4.5-1-6.7
		c-0.2-4.4,0.6-8.4,1.5-11.4c0.5-1.5,0.9-2.7,1.3-3.6c0.2-0.4,0.3-0.7,0.4-1c0.1-0.2,0.2-0.3,0.2-0.3c1-2.6,3.5-4.2,6.1-4.1
		L222.7,251.9z"/>
</g>
</svg>
