<?xml version="1.0" encoding="utf-8"?>
<!-- Generator: Adobe Illustrator 19.0.0, SVG Export Plug-In . SVG Version: 6.00 Build 0)  -->
<svg version="1.1" xmlns="http://www.w3.org/2000/svg" xmlns:xlink="http://www.w3.org/1999/xlink" x="0px" y="0px"
	 viewBox="0 0 235.8 151.2" style="enable-background:new 0 0 235.8 151.2;" xml:space="preserve">
<style type="text/css">
	.st0{display:none;}
	.st1{display:inline;fill:none;stroke:#997797;stroke-width:7;stroke-linecap:round;stroke-miterlimit:10;}
	.st2{display:inline;fill:none;stroke:#BA90B6;stroke-width:7;stroke-linecap:round;stroke-miterlimit:10;}
	.st3{display:inline;}
	.st4{fill:#BA90B6;}
	.st5{fill:#997797;}
	.st6{fill:#F9DCF9;}
	.st7{fill:#DCC5DD;}
	.st8{fill:#191419;}
	.st9{fill:#6A70BF;}
	.st10{fill:#898CFF;}
	.st11{fill:#D9DCFF;}
	.st12{fill:#A5A8BF;}
</style>
<g id="lines" class="st0">
	<path class="st1" d="M123.1,74.9c0,0,16,9.5,29.5,10s22.4-7.3,31.3-4.8c11.3,3.1,21,18.3,42.8,11.5"/>
	<path class="st1" d="M126.3,78.6c0,0,37.8-20.3,49.8-17.3s17.6,10.9,27.8,9s17.8-4,24.7,0.8"/>
	<path class="st1" d="M123.9,76.9c0,0,20.4,27.7,36.4,26.6s23-4,31.7,2.4s9.5,17.8,15.9,18.5"/>
	<path class="st2" d="M120.7,81.7c10,1.9,24,20.2,33.7,25.5c9.7,5.3,34.8,6.5,37.5,17c2.7,10.5-15.2,18.3-19,7.7"/>
	<path class="st2" d="M126.3,78.6c0,0,36.2,1.7,44,8.5c7.8,6.8,5.8,9.8,17.7,12c11.8,2.2,26.3-3.9,26.3,20.5"/>
	<path class="st2" d="M130.5,72.5c0,0,24.7-21.8,50-19.8c15.7,1.2,19,24,31.2,29c12.2,5,20.7,0.3,20.7,0.3"/>
	<g class="st3">
		<path class="st4" d="M127.6,68.4c0,0,0.9,0.1,2.5,0.3c1.6,0.2,4,0.4,7.1,0.6c3.1,0.2,6.8,0.4,11.1,0.4c4.3,0,9.1,0,14.2-0.6
			c2.6-0.3,5.2-0.7,7.8-1.3c1.3-0.3,2.6-0.7,3.7-1.2c1.2-0.5,2.2-1.1,3-1.8c0.7-0.7,1.1-1.5,1.2-2.1c0.1-1.7,0.1-2.8-0.1-4.2
			c-0.2-1.4-0.6-2.7-1.1-4.1c-0.5-1.3-1.2-2.6-2-3.8c-3.3-4.9-8.9-8.8-14.9-11.7c-6.1-2.9-12.7-5-19.5-6.5
			c-6.8-1.5-13.7-2.5-20.6-2.9c-6.8-0.5-13.6-0.5-20,0.2c-3.2,0.4-6.3,0.9-9,1.8c-0.7,0.2-1.3,0.5-1.9,0.7c-0.3,0.1-0.5,0.3-0.8,0.4
			c-0.5,0.3-0.6,0.4-1.1,0.6c-1,0.5-1.9,0.8-2.8,1.1c-0.9,0.3-1.9,0.4-2.9,0.5c-3.9,0.3-7.5-1-10.4-2.9c-2.9-1.9-5.2-4.6-6.5-7.8
			c-0.6-1.6-1-3.4-0.9-5.1c0-1.8,0.5-3.5,1.1-5c1.4-3,3.7-5,5.8-6.5c1.1-0.7,2.2-1.2,3.2-1.9c1-0.6,1.9-1.4,2.7-2.2
			C77.2,2.7,78,2,78.9,1.4c0.9-0.5,1.8-0.9,2.6-1c3.4-0.7,6.2-0.3,8,0.2c1.8,0.5,2.8,1.2,2.8,1.2c2,1.4,2.6,4.1,1.2,6.1
			c-0.2,0.3-0.4,0.5-0.6,0.8l-0.1,0.1c0,0-0.8,0.8-2.3,1.6c-1.5,0.8-3.7,1.7-6.3,2.3c-0.7,0.1-1.4,0.2-2.2,0.1
			c-0.8-0.1-1.7-0.3-2.6-0.5c-0.9-0.2-1.9-0.3-2.7,0c-0.4,0.1-0.8,0.3-1.2,0.5c-0.4,0.2-0.8,0.4-1.1,0.7c-1.5,0.9-2.8,2.2-3.5,3.6
			c-0.7,1.4-0.8,3-0.2,4.8c0.6,1.8,2.1,3.6,3.9,4.9c1.9,1.3,4.2,2.1,6.4,2c0.6,0,1.1-0.1,1.7-0.2c0.5-0.1,1.2-0.4,1.5-0.5
			c0.2-0.1,0.7-0.4,0.9-0.5c0.4-0.2,0.9-0.5,1.3-0.7c0.9-0.4,1.7-0.7,2.6-1c3.4-1,6.8-1.6,10.3-1.9c6.9-0.7,13.9-0.6,21.1,0
			c7.1,0.6,14.3,1.6,21.4,3.2c7.1,1.6,14.1,3.8,20.7,7c3.3,1.6,6.5,3.4,9.4,5.6c1.5,1.1,2.9,2.3,4.2,3.6c1.3,1.3,2.5,2.7,3.5,4.3
			c1,1.5,2,3.2,2.6,4.9c0.7,1.7,1.2,3.5,1.4,5.3c0.3,1.7,0.3,3.8,0.2,5.3c-0.1,2.5-1.4,4.6-2.9,6c-1.5,1.4-3.1,2.3-4.6,3
			c-1.5,0.7-3.1,1.2-4.6,1.6c-3,0.8-5.9,1.3-8.6,1.6c-5.5,0.7-10.5,0.9-14.9,0.9c-4.4,0.1-8.2,0-11.4-0.1c-3.2-0.1-5.6-0.2-7.3-0.3
			c-1.7-0.1-2.6-0.2-2.6-0.2c-1.9-0.1-3.4-1.8-3.2-3.7c0.1-1.9,1.8-3.4,3.7-3.2C127.4,68.4,127.5,68.4,127.6,68.4L127.6,68.4z"/>
	</g>
	<g class="st3">
		<path class="st4" d="M124.4,76.5c0,0,0.2,0.1,0.7,0.2c0.4,0.2,1.1,0.4,2,0.7c1.7,0.7,4.2,1.7,7.4,3.1c3.1,1.4,6.9,3.2,11.1,5.9
			c2.1,1.3,4.2,2.8,6.4,4.8c1.1,1,2.1,2.1,3,3.5c0.9,1.4,1.8,3,2.1,5c0.2,1,0.2,2,0.1,3c-0.1,0.5-0.2,1-0.3,1.5
			c-0.1,0.2-0.1,0.5-0.2,0.7l-0.1,0.4l-0.1,0.2l0,0.1l-0.1,0.2c-0.5,1.2-1.7,3.1-2.8,4.4c-2.4,2.8-5.6,4.9-9,6.1
			c-3.4,1.3-7,1.8-10.7,2.1c-3.6,0.2-7.3,0.2-10.9-0.1c-7.3-0.5-14.8-1.8-22.2-3.4c-7.4-1.6-14.9-3.3-22.3-5.1
			c-7.4-1.7-14.9-3.5-22.1-4.4c-1.8-0.2-3.6-0.4-5.3-0.4c-1.7,0-3.3,0.1-4.6,0.5l-0.4,0.2l-0.1,0c0,0,0.1,0,0,0l-0.1,0l-0.3,0.1
			c-0.4,0.2-0.9,0.4-1.2,0.6c-0.7,0.3-1.4,0.8-2.1,1.2c-1.3,0.9-2.5,1.8-3.4,2.9c-1.8,2.1-2.3,4.4-1.5,6.9c0.7,2.5,2.6,4.9,4.7,7
			c4.3,4.1,9.5,7.1,14.5,9.4c2.5,1.1,5,2.1,7.3,2.9c1.2,0.4,2.4,0.8,3.5,1.1c1.2,0.3,2.3,0.5,3.4,0.6c2.3,0.2,4.5-0.1,6.4-0.1
			c2-0.1,3.7,0,5.3,0.3c3.1,0.5,5.5,1.4,7.2,2.2c1.6,0.8,2.5,1.6,2.5,1.6l0.1,0.1c1.8,1.6,2,4.3,0.4,6.1c-0.3,0.3-0.6,0.6-0.9,0.8
			c0,0-1,0.7-2.9,1.2c-1.9,0.5-4.8,0.9-8.3,0.4c-1.7-0.3-3.6-0.8-5.6-1.7c-2-0.9-4-2.1-6.2-3.2c-1.1-0.5-2.3-1-3.5-1.4
			c-1.2-0.4-2.5-0.8-3.7-1.3c-2.5-0.9-5.2-2-7.9-3.3c-2.7-1.3-5.5-2.8-8.2-4.6c-2.7-1.8-5.5-3.8-8-6.4c-2.5-2.6-5-5.6-6.2-9.8
			c-0.6-2.1-0.8-4.5-0.2-6.8c0.5-2.3,1.7-4.4,3.2-6c1.5-1.7,3.2-2.9,4.9-4c0.9-0.5,1.7-1,2.7-1.5c0.5-0.3,0.9-0.4,1.3-0.6l0.3-0.1
			l0.2-0.1l0.2-0.1c0.3-0.1,0.6-0.2,0.9-0.3c2.3-0.6,4.4-0.7,6.5-0.7c2,0.1,4,0.3,5.9,0.5c7.7,1.1,15.2,3,22.6,4.8
			c7.4,1.8,14.8,3.7,22.1,5.2c7.3,1.5,14.5,2.8,21.5,3.3c3.5,0.3,6.9,0.3,10.1,0.1c1.6-0.1,3.2-0.3,4.7-0.6c1.5-0.3,3-0.7,4.4-1.2
			c2.7-1,5-2.5,6.6-4.5c0.8-1.1,1.3-1.8,2-3.3c-0.1,0.2,0,0,0,0.1l0,0l0-0.1l0.1-0.2c0-0.1,0.1-0.2,0.1-0.3c0.1-0.2,0.1-0.4,0.1-0.7
			c0.1-0.4,0-0.9-0.1-1.3c-0.4-1.8-1.9-3.6-3.5-5.2c-1.7-1.5-3.7-2.9-5.5-4c-3.8-2.2-7.4-3.8-10.4-5.1c-3-1.2-5.4-2-7.1-2.6
			c-0.8-0.3-1.5-0.5-1.9-0.6c-0.4-0.1-0.6-0.2-0.6-0.2l-0.1,0c-1.9-0.6-2.9-2.5-2.4-4.4c0.6-1.9,2.5-2.9,4.4-2.4
			C124.3,76.5,124.3,76.5,124.4,76.5z"/>
	</g>
	<g class="st3">
		<path class="st4" d="M130,68.6c-7.7-0.5-14.9-7.1-22.3-9.7c-0.1,0.2-0.3,0.5-0.5,0.8c-3,4-4.5,7.8-4.5,12.2
			c0,3.5,3.2,11.3,1.8,15.2c0.2,0,0.5,0,0.7,0c10.5,0,11.2-1.3,12.3-1.6c2.9-0.7,3.1-0.8,5.6,0.6S138.2,69.1,130,68.6z"/>
		<path class="st4" d="M90.5,84.9c0,0,0.2,0.1,0.5,0.2l-0.2-2.3L90.5,84.9z"/>
	</g>
	<g class="st3">
		<path class="st5" d="M101.4,61.7c1.4,0,2.8,0.3,4,0.9c0.5-0.9,1.2-1.9,1.9-2.8c0.2-0.3,0.4-0.5,0.5-0.8c-0.5-0.2-1-0.3-1.5-0.5
			c-7.9-2.1-12.5,2.3-12.5,2.3l-0.9,6.9C94.1,64.2,97.4,61.7,101.4,61.7z"/>
		<path class="st5" d="M92.3,71.5l-1.5,11.3l0.2,2.3c1.4,0.6,5.6,1.9,13.5,2c0.7-1.9,0.3-4.8-0.3-7.7c-0.9,0.3-1.8,0.5-2.8,0.5
			C96.6,79.9,92.7,76.2,92.3,71.5z"/>
		<path class="st6" d="M92.3,70.8c0,0.2,0,0.5,0,0.7l0.5-3.8C92.5,68.6,92.3,69.7,92.3,70.8z"/>
		<path class="st6" d="M110.5,70.8c0-3.6-2.1-6.7-5.1-8.2c-1,1.7-1.7,3.4-2.1,5.1c1,0.7,1.6,1.8,1.6,3.1c0,1.4-0.7,2.6-1.8,3.2
			c0.3,1.6,0.8,3.5,1.2,5.4C107.9,78.2,110.5,74.8,110.5,70.8z"/>
		<path class="st7" d="M101.1,74.6c-2.1,0-3.8-1.7-3.8-3.8c0-2.1,1.7-3.8,3.8-3.8c0.8,0,1.6,0.3,2.2,0.7c0.4-1.8,1.1-3.4,2.1-5.1
			c-1.2-0.6-2.6-0.9-4-0.9c-3.9,0-7.3,2.5-8.6,6l-0.5,3.8c0.4,4.7,4.3,8.4,9.1,8.4c1,0,1.9-0.2,2.8-0.5c-0.4-1.9-0.9-3.8-1.2-5.4
			C102.4,74.4,101.8,74.6,101.1,74.6z"/>
		<path class="st8" d="M103,74c1.1-0.7,1.8-1.9,1.8-3.2c0-1.3-0.6-2.4-1.6-3.1c-0.3,1.4-0.5,2.7-0.5,4.2
			C102.8,72.5,102.8,73.2,103,74z"/>
		<path class="st8" d="M97.3,70.8c0,2.1,1.7,3.8,3.8,3.8c0.7,0,1.4-0.2,1.9-0.6c-0.1-0.8-0.2-1.5-0.2-2.1c0-1.4,0.2-2.8,0.5-4.2
			c-0.6-0.5-1.4-0.7-2.2-0.7C99,67,97.3,68.7,97.3,70.8z"/>
	</g>
	<g class="st3">
		<path class="st4" d="M21.2,79.1c7.5-0.7,11.4-3.5,16.2-3.6c4.8-0.1,26.7,3.8,37.5,4.1c8.4,0.3,15.5-1.3,18.9-0.3
			c-0.5-2-0.8-4.4-0.4-7.7c1.2-9.2,6.4-12.9,4.5-15.3c-1.9-2.4-25.9-0.6-39.3,6.5c-13.4,7.1-20.2,5.8-22.5,5.8
			c-2.3,0-12.3-4.1-16-3.7c-3.8,0.4-20,7.8-20,8.6c0,0.1,0.1,0.2,0.4,0.4C3.9,75.4,14.9,79.7,21.2,79.1z"/>
		<path class="st5" d="M36.3,78.4c2.8,0.1,21.5,7,30.3,8.3c8.9,1.4,24.6,3.3,27.3,0c1.8-2.1,0.5-4-0.3-7.4
			c-3.3-1.1-10.4,0.5-18.9,0.3c-10.8-0.3-32.7-4.2-37.5-4.1c-4.8,0.1-8.6,2.9-16.2,3.6c-6.3,0.6-17.3-3.7-20.8-5.2
			c2.5,1.9,17,8.8,21.3,8.8C26.4,82.8,33.6,78.3,36.3,78.4z"/>
	</g>
</g>
<g id="expanded">
	<path class="st9" d="M5.2,68.2c7.4-5.1,15.3-3.6,24.4-1.9c0.9,0.2,1.9,0.4,2.9,0.5c4.9,0.9,8.5-1,13.4-3.6
		c3.6-1.9,7.7-4.1,12.9-5.4c11.1-2.8,38.6,10.6,48.8,15.8c2-1,3.2-1.8,3.3-1.8c1.7-1,3.8-0.4,4.8,1.2c0.8,1.3,0.6,2.9-0.3,4
		c0,0.7-0.3,1.3-0.7,1.9c-2.2,3-22.1,29.3-39.5,28c-3.6-0.3-6.8-0.6-9.6-0.9c-9.4-1-14.1-1.5-19.8,2.7c-3.6,2.7-5.8,6.5-7.6,9.9
		c-2.4,4.3-4.8,8.7-9.9,9.3c-0.1,0-0.3,0-0.4,0c-1.8,0-3.3-1.3-3.5-3.1c-0.2-1.9,1.1-3.7,3.1-3.9c1.5-0.2,3-2.8,4.6-5.7
		c2.1-3.8,4.8-8.6,9.6-12.1c7.9-5.8,14.6-5.1,24.7-4c2.7,0.3,5.9,0.6,9.4,0.9c7.9,0.5,18-8,25.4-15.7c-5.4,2.1-11.8,3.9-17.8,4.1
		c-7.2,0.3-13-1.6-18.1-3.2c-4.9-1.5-8.8-2.8-12.4-1.8c-3,0.8-6.1,2.8-9.4,4.9c-6.2,3.9-13.5,8.5-23.6,8.5c-3.6,0-7.5-0.6-11.8-1.9
		c-1.8-0.6-2.9-2.5-2.3-4.4c0.6-1.8,2.5-2.9,4.4-2.3c13.6,4.3,21.7-0.9,29.6-5.8c3.8-2.4,7.3-4.6,11.3-5.7
		c5.6-1.6,10.8,0.1,16.4,1.8c4.8,1.5,9.8,3.1,15.8,2.9c5.4-0.2,11.4-2,16.4-4C85.3,70.5,66.9,63,60.5,64.6c-4.4,1.1-7.9,3-11.3,4.8
		c-5.2,2.8-10.7,5.7-18,4.3c-1-0.2-2-0.4-2.9-0.5c-8.5-1.6-14.1-2.7-19.1,0.8c-1.6,1.1-3.8,0.7-4.9-0.9C3.2,71.5,3.6,69.3,5.2,68.2z
		"/>
	<g>
		<path class="st10" d="M1.8,85.2c0.3,0.1,4.5,2.4,11.2,2.4c3.6,0,7.8-0.6,12.5-2.6c6.3-2.6,10.3-8.8,14.2-14.7
			c3.8-5.8,7.4-11.3,12.7-13.3c0,0.2-0.1,0.4-0.1,0.6c-0.3,1.7-0.3,3.8-0.2,5.3c0.1,2.5,1.4,4.6,2.9,6c1.5,1.4,3.1,2.3,4.6,3
			c1.5,0.7,3.1,1.2,4.6,1.6c3,0.8,5.9,1.3,8.6,1.6c5.5,0.7,10.5,0.9,14.9,0.9c3.6,0.1,6.9,0,9.7-0.1c-11.9,1.1-28.4,3.6-34.1,8.5
			c-2.6,2.3-4.2,4.2-5.5,5.7c-2.5,2.9-3.5,4.2-10.5,5.4c-2.3,0.4-4.8,0.5-7.2,0.6c-9.8,0.3-22,0.8-22,23.4c0,1.9,1.6,3.5,3.5,3.5
			s3.5-1.6,3.5-3.5c0-15.8,5.7-16,15.2-16.4c2.7-0.1,5.5-0.2,8.2-0.7c8.9-1.6,11.2-3.9,14.5-7.8c1.2-1.4,2.6-3,4.8-5
			c3.6-3.1,16.4-5.4,28.4-6.6c-1.8,1-3.8,2-5.8,3.3c-2.1,1.3-4.2,2.8-6.4,4.8c-1.1,1-2.1,2.1-3,3.5c-0.9,1.4-1.8,3-2.1,5
			c-0.2,1-0.2,2-0.1,3c0.1,0.5,0.2,1,0.3,1.5c0,0.1,0,0.1,0.1,0.2c-3,1.5-7.7,2.7-12.7,4c-11.6,3-23.6,6-25.8,14.9
			c-1.9,7.6,3.9,14.4,10.7,16.4c1.5,0.5,3,0.7,4.4,0.7c4.9,0,8.9-2.7,10.6-7.4c0.7-1.8-0.3-3.8-2.1-4.5c-1.8-0.7-3.8,0.3-4.5,2.1
			c-1.2,3.4-4.5,3-6.4,2.4c-3.1-0.9-7-4.1-6-8c1.2-4.8,12.1-7.6,20.8-9.8c5.5-1.4,10.8-2.8,14.5-4.7c2.3,2.6,5.5,4.6,8.7,5.8
			c3.4,1.3,7,1.8,10.7,2.1c3.6,0.2,7.3,0.2,10.9-0.1c7.3-0.5,14.8-1.8,22.2-3.4c7.4-1.6,14.9-3.3,22.3-5.1
			c7.4-1.7,14.9-3.5,22.1-4.4c1.8-0.2,3.6-0.4,5.3-0.4c1.7,0,3.3,0.1,4.6,0.5l0.4,0.2l0.1,0c0,0,0,0,0,0c0,0,0,0,0,0l0.1,0l0.3,0.1
			c0.4,0.2,0.9,0.4,1.2,0.6c0.7,0.3,1.4,0.8,2.1,1.2c1.3,0.9,2.5,1.8,3.4,2.9c1.8,2.1,2.3,4.4,1.5,6.9c-0.7,2.5-2.6,4.9-4.7,7
			c-4.3,4.1-9.5,7.1-14.5,9.4c-2.5,1.1-5,2.1-7.3,2.9c-1.2,0.4-2.4,0.8-3.5,1.1c-1.2,0.3-2.3,0.5-3.4,0.6c-2.3,0.2-4.5-0.1-6.4-0.1
			c-2-0.1-3.7,0-5.3,0.3c-3.1,0.5-5.5,1.4-7.2,2.2c-1.6,0.8-2.5,1.6-2.5,1.6l-0.1,0.1c-1.8,1.6-2,4.3-0.4,6.1
			c0.3,0.3,0.6,0.6,0.9,0.8c0,0,1,0.7,2.9,1.2c1.9,0.5,4.8,0.9,8.3,0.4c1.7-0.3,3.6-0.8,5.6-1.7c2-0.9,4-2.1,6.2-3.2
			c1.1-0.5,2.3-1,3.5-1.4c1.2-0.4,2.5-0.8,3.7-1.3c2.5-0.9,5.2-2,7.9-3.3c2.7-1.3,5.5-2.8,8.2-4.6c2.7-1.8,5.5-3.8,8-6.4
			c2.5-2.6,5-5.6,6.2-9.8c0.6-2.1,0.8-4.5,0.2-6.8c-0.5-2.3-1.7-4.4-3.2-6c-1.5-1.7-3.2-2.9-4.9-4c-0.9-0.5-1.7-1-2.7-1.5
			c-0.5-0.3-0.9-0.4-1.3-0.6l-0.3-0.1l-0.2-0.1l-0.2-0.1c-0.3-0.1-0.6-0.2-0.9-0.3c-2.3-0.6-4.4-0.7-6.5-0.7c-2,0.1-4,0.3-5.9,0.5
			c-7.7,1.1-15.2,3-22.6,4.8c-7.4,1.8-14.8,3.7-22.1,5.2c-7.3,1.5-14.5,2.8-21.5,3.3c-3.5,0.3-6.9,0.3-10.1,0.1
			c-1.6-0.1-3.2-0.3-4.7-0.6c-1.5-0.3-3-0.7-4.4-1.2c-2.3-0.9-4.4-2.1-5.9-3.7c3.2-2.4,6.5-5.6,10-8.8c6.3-5.9,13.4-12.6,18.3-13.5
			c0.1,0,0.1,0,0.2-0.1c0.6,0.1,1.3,0.2,2.3,0.5c1,0.2,1.8,1.6,12.3,1.6c0.2,0,0.5,0,0.7,0c-1.4-3.9,1.8-11.7,1.8-15.2
			c0-4.3-1.5-8.2-4.5-12.2c-0.2-0.3-0.4-0.5-0.5-0.8c-7.3,2.5-14.4,9-22,9.6c-5.4-4.4-23.7-18-44.2-19.4c3.4-4.3,8.4-7.8,13.9-10.4
			c6.1-2.9,12.7-5,19.5-6.5c6.8-1.5,13.7-2.5,20.6-2.9c6.8-0.5,13.6-0.5,20,0.2c3.2,0.4,6.3,0.9,9,1.8c0.7,0.2,1.3,0.5,1.9,0.7
			c0.3,0.1,0.5,0.3,0.8,0.4c0.5,0.3,0.6,0.4,1.1,0.6c1,0.5,1.9,0.8,2.8,1.1c0.9,0.3,1.9,0.4,2.9,0.5c3.9,0.3,7.5-1,10.4-2.9
			c2.9-1.9,5.2-4.6,6.5-7.8c0.6-1.6,1-3.4,0.9-5.1c0-1.8-0.5-3.5-1.1-5c-1.4-3-3.7-5-5.8-6.5c-1.1-0.7-2.2-1.2-3.2-1.9
			c-1-0.6-1.9-1.4-2.7-2.2c-0.9-0.8-1.7-1.6-2.6-2.1c-0.9-0.5-1.8-0.9-2.6-1c-3.4-0.7-6.2-0.3-8,0.2c-1.8,0.5-2.8,1.2-2.8,1.2
			c-2,1.4-2.6,4.1-1.2,6.1c0.2,0.3,0.4,0.5,0.6,0.8l0.1,0.1c0,0,0.8,0.8,2.3,1.6c1.5,0.8,3.7,1.7,6.3,2.3c0.7,0.1,1.4,0.2,2.2,0.1
			c0.8-0.1,1.7-0.3,2.6-0.5c0.9-0.2,1.9-0.3,2.7,0c0.4,0.1,0.8,0.3,1.2,0.5c0.4,0.2,0.8,0.4,1.1,0.7c1.5,0.9,2.8,2.2,3.5,3.6
			c0.7,1.4,0.8,3,0.2,4.8c-0.6,1.8-2.1,3.6-3.9,4.9c-1.9,1.3-4.2,2.1-6.4,2c-0.6,0-1.1-0.1-1.7-0.2c-0.5-0.1-1.2-0.4-1.5-0.5
			c-0.2-0.1-0.7-0.4-0.9-0.5c-0.4-0.2-0.9-0.5-1.3-0.7c-0.9-0.4-1.7-0.7-2.6-1c-3.4-1-6.8-1.6-10.3-1.9c-6.9-0.7-13.9-0.6-21.1,0
			c-7.1,0.6-14.3,1.6-21.4,3.2c-7.1,1.6-14.1,3.8-20.7,7c-3.3,1.6-6.5,3.4-9.4,5.6c-1.5,1.1-2.9,2.3-4.2,3.6
			c-1.3,1.3-2.5,2.7-3.5,4.3c-0.4,0.6-0.8,1.2-1.2,1.9c0,0-0.1,0-0.1,0c-10.6,0.8-16.2,9.5-21.2,17.2c-3.5,5.3-6.7,10.3-11,12.1
			C12.5,82.8,5.4,79.2,5.1,79c-1.7-0.9-3.8-0.3-4.7,1.4S0.1,84.2,1.8,85.2z M93.5,91.7c1-0.6,1.9-1.1,2.9-1.6
			c-1.2,1.1-2.5,2.3-3.7,3.5c-2.8,2.6-5.6,5.3-8.3,7.4c0,0,0-0.1,0-0.1c0.4-1.8,1.9-3.6,3.5-5.2C89.7,94.1,91.7,92.8,93.5,91.7z
			 M57.8,58.4c0.1-0.8,0.3-1.5,0.5-2.3c14.5-0.1,28.8,7.7,37.1,13.4c-2.4,0.1-5,0.2-7.9,0.3c-4.3,0-9.1,0-14.2-0.6
			c-2.6-0.3-5.2-0.7-7.8-1.3c-1.3-0.3-2.6-0.7-3.7-1.2c-1.2-0.5-2.2-1.1-3-1.8c-0.7-0.7-1.1-1.5-1.2-2.1
			C57.6,60.9,57.7,59.9,57.8,58.4z"/>
		<path class="st4" d="M145.3,84.9c0,0-0.2,0.1-0.5,0.2l0.2-2.3L145.3,84.9z"/>
	</g>
	<g>
		<path class="st9" d="M134.4,61.7c-1.4,0-2.8,0.3-4,0.9c-0.5-0.9-1.2-1.9-1.9-2.8c-0.2-0.3-0.4-0.5-0.5-0.8c0.5-0.2,1-0.3,1.5-0.5
			c7.9-2.1,12.5,2.3,12.5,2.3l0.9,6.9C141.7,64.2,138.4,61.7,134.4,61.7z"/>
		<path class="st9" d="M143.5,71.5l1.5,11.3l-0.2,2.3c-1.4,0.6-5.6,1.9-13.5,2c-0.7-1.9-0.3-4.8,0.3-7.7c0.9,0.3,1.8,0.5,2.8,0.5
			C139.2,79.9,143.1,76.2,143.5,71.5z"/>
		<path class="st6" d="M143.6,70.8c0,0.2,0,0.5,0,0.7l-0.5-3.8C143.4,68.6,143.6,69.7,143.6,70.8z"/>
		<path class="st11" d="M125.3,70.8c0-3.6,2.1-6.7,5.1-8.2c1,1.7,1.7,3.4,2.1,5.1c-1,0.7-1.6,1.8-1.6,3.1c0,1.4,0.7,2.6,1.8,3.2
			c-0.3,1.6-0.8,3.5-1.2,5.4C128,78.2,125.3,74.8,125.3,70.8z"/>
		<path class="st12" d="M134.8,74.6c2.1,0,3.8-1.7,3.8-3.8c0-2.1-1.7-3.8-3.8-3.8c-0.8,0-1.6,0.3-2.2,0.7c-0.4-1.8-1.1-3.4-2.1-5.1
			c1.2-0.6,2.6-0.9,4-0.9c3.9,0,7.3,2.5,8.6,6l0.5,3.8c-0.4,4.7-4.3,8.4-9.1,8.4c-1,0-1.9-0.2-2.8-0.5c0.4-1.9,0.9-3.8,1.2-5.4
			C133.4,74.4,134.1,74.6,134.8,74.6z"/>
		<path class="st8" d="M132.8,74c-1.1-0.7-1.8-1.9-1.8-3.2c0-1.3,0.6-2.4,1.6-3.1c0.3,1.4,0.5,2.7,0.5,4.2
			C133.1,72.5,133,73.2,132.8,74z"/>
		<path class="st8" d="M138.6,70.8c0,2.1-1.7,3.8-3.8,3.8c-0.7,0-1.4-0.2-1.9-0.6c0.1-0.8,0.2-1.5,0.2-2.1c0-1.4-0.2-2.8-0.5-4.2
			c0.6-0.5,1.4-0.7,2.2-0.7C136.9,67,138.6,68.7,138.6,70.8z"/>
	</g>
	<g>
		<path class="st10" d="M214.7,79.1c-7.5-0.7-11.4-3.5-16.2-3.6c-4.8-0.1-26.7,3.8-37.5,4.1c-8.4,0.3-15.5-1.3-18.9-0.3
			c0.5-2,0.8-4.4,0.4-7.7c-1.2-9.2-6.4-12.9-4.5-15.3c1.9-2.4,25.9-0.6,39.3,6.5s20.2,5.8,22.5,5.8s12.3-4.1,16-3.7
			c3.8,0.4,20,7.8,20,8.6c0,0.1-0.1,0.2-0.4,0.4C232,75.4,220.9,79.7,214.7,79.1z"/>
		<path class="st9" d="M199.5,78.4c-2.8,0.1-21.5,7-30.3,8.3c-8.9,1.4-24.6,3.3-27.3,0c-1.8-2.1-0.5-4,0.3-7.4
			c3.3-1.1,10.4,0.5,18.9,0.3c10.8-0.3,32.7-4.2,37.5-4.1c4.8,0.1,8.6,2.9,16.2,3.6c6.3,0.6,17.3-3.7,20.8-5.2
			c-2.5,1.9-17,8.8-21.3,8.8C209.4,82.8,202.3,78.3,199.5,78.4z"/>
	</g>
</g>
</svg>
