<svg version="1.1" id="Layer_1" xmlns="http://www.w3.org/2000/svg" xmlns:xlink="http://www.w3.org/1999/xlink" x="0px" y="0px"
	 viewBox="0 0 5 4.8" style="enable-background:new 0 0 5 4.8;" xml:space="preserve">
<style type="text/css">
	.st0{fill:#8E8E8E;}
</style>
<path id="XMLID_1_" class="st0" d="M2.5,0.8L4,0c0,0,0.1,0,0.1,0.1L3.8,1.7c0,0,0,0,0,0L5,2.9C5,2.9,5,3,5,3L3.3,3.2c0,0,0,0,0,0
	L2.5,4.7c0,0-0.1,0-0.1,0L1.7,3.2c0,0,0,0,0,0L0,3C0,3,0,2.9,0,2.9l1.2-1.2c0,0,0,0,0,0L0.9,0.1C0.9,0,1,0,1,0L2.5,0.8
	C2.5,0.8,2.5,0.8,2.5,0.8z"/>
</svg>
