<svg version="1.1" id="Layer_1" xmlns="http://www.w3.org/2000/svg" xmlns:xlink="http://www.w3.org/1999/xlink" x="0px" y="0px"
	 width="10733.016px" height="13660.833px" viewBox="0 0 10733.016 13660.833" enable-background="new 0 0 10733.016 13660.833"
	 xml:space="preserve">
<path fill="#6ABFEB" d="M262.674,13660.683c123.255,0,183.253-23.283,246.774-47.938c64.3-24.954,130.788-50.758,261.841-50.758
	c131.05,0,197.537,25.804,261.835,50.758c63.521,24.654,123.519,47.938,246.774,47.938s183.253-23.283,246.774-47.938
	c64.3-24.954,130.786-50.758,261.838-50.758s197.538,25.804,261.838,50.758c63.521,24.654,123.519,47.938,246.774,47.938
	c123.257,0,183.254-23.283,246.777-47.938c64.299-24.954,130.788-50.758,261.84-50.758c131.051,0,197.541,25.804,261.841,50.758
	c63.521,24.654,123.519,47.938,246.775,47.938c123.255,0,183.254-23.283,246.774-47.938
	c64.299-24.954,130.787-50.758,261.839-50.758c131.051,0,197.54,25.804,261.838,50.758c63.522,24.654,123.521,47.938,246.775,47.938
	c123.256,0,183.255-23.283,246.777-47.938c64.298-24.954,130.787-50.758,261.839-50.758c131.052,0,197.539,25.804,261.839,50.758
	c63.521,24.654,123.52,47.938,246.774,47.938c123.254,0,183.252-23.283,246.772-47.938c64.3-24.954,130.789-50.758,261.839-50.758
	s197.539,25.804,261.836,50.758c63.521,24.654,123.521,47.938,246.775,47.938c123.256,0,183.255-23.283,246.775-47.938
	c64.3-24.954,130.789-50.758,261.841-50.758s197.541,25.804,261.841,50.758c63.521,24.654,123.52,47.938,246.775,47.938
	s183.255-23.283,246.775-47.938c64.3-24.954,130.789-50.758,261.841-50.758c131.054,0,197.542,25.804,261.841,50.758
	c63.523,24.654,123.521,47.938,246.776,47.938c123.258,0,183.257-23.283,246.778-47.938c64.3-24.954,130.79-50.758,261.844-50.758
	c131.051,0,197.541,25.804,261.84,50.758c63.52,24.654,123.518,47.938,246.773,47.938c123.257,0,183.258-23.283,246.781-47.938
	c64.3-24.954,130.788-50.758,261.842-50.758c131.056,0,197.545,25.804,261.846,50.758c63.521,24.654,123.521,47.938,246.779,47.938
	s183.258-23.283,246.781-47.938c16.372-6.354,32.889-12.762,50.575-18.786c0.255-0.087,0.515-0.173,0.771-0.26V-0.091H0.027
	v13606.707c5.326,2.039,10.61,4.086,15.873,6.129C79.42,13637.399,139.419,13660.683,262.674,13660.683z"/>
</svg>
