<?xml version="1.0" encoding="utf-8"?>
<!-- Generator: Adobe Illustrator 17.0.0, SVG Export Plug-In . SVG Version: 6.00 Build 0)  -->
<!DOCTYPE svg PUBLIC "-//W3C//DTD SVG 1.1//EN" "http://www.w3.org/Graphics/SVG/1.1/DTD/svg11.dtd">
<svg version="1.1" id="Layer_1" xmlns="http://www.w3.org/2000/svg" xmlns:xlink="http://www.w3.org/1999/xlink" x="0px" y="0px"
	 width="76.875px" height="172.063px" viewBox="0 0 76.875 172.063" enable-background="new 0 0 76.875 172.063"
	 xml:space="preserve">
<g>
	<path fill="#9CA2A4" d="M65.879,128.73c0-0.002-0.001-0.003-0.002-0.005c-0.01-0.01-0.01-0.01-0.01-0.02
		c-0.59-2.31-0.94-4.65-0.93-7c-1.11,0.59-2.22,1.05-3.34,1.53c-0.018,0.007-0.035,0.016-0.053,0.023
		c0.151,1.451,0.56,2.896,1.193,3.977C63.403,128.381,64.635,128.735,65.879,128.73z"/>
	<path fill="#B3A5B7" d="M44.02,55.553c-0.105-0.381-0.2-0.76-0.294-1.149c-0.103-0.486-0.204-0.983-0.291-1.497
		c-0.327-2.095-0.431-4.341-0.364-6.738c0.011-0.766,0.055-1.536,0.104-2.326c0.209-3.472,0.682-7.234,1.199-11.333
		c0.177-1.372,0.351-2.777,0.521-4.214c0.053-0.431,0.108-0.871,0.154-1.314c0.027-0.215,0.053-0.431,0.07-0.648
		c0.042-0.286-0.2,0.525-0.288,0.779c-0.19,0.527-0.37,1.056-0.548,1.575l-0.002,0.01c-0.037,0.118-0.073,0.237-0.11,0.355
		c-0.14,0.443-0.28,0.886-0.432,1.337c-2.094,6.806-2.81,12.947-2.827,17.694c-0.006,0.694,0.005,1.36,0.024,1.986
		c0.095,2.476,0.392,4.469,0.758,5.814c0.069,0.257,0.141,0.488,0.215,0.699c0.146-0.021,0.292-0.047,0.439-0.065
		c0.36-0.06,0.72-0.1,1.09-0.13c0.271-0.027,0.546-0.043,0.821-0.061C44.176,56.068,44.094,55.812,44.02,55.553L44.02,55.553z"/>
	<path fill="#AFBABE" d="M4.597,99.915c-0.73-0.54-0.97-0.5-0.97-0.5c-1.12,2.95,1.15,11.02,1.58,12.44
		c4.96,2.29,11.97,7.42,15.97,12.29c-2.62-6.06-7.22-13.28-11.18-18.38C7.877,103.025,5.938,100.895,4.597,99.915z"/>
	<path fill="#736E61" d="M24.888,13.411c2.4-1.704,4.875-2.558,7.155-2.54c-2.876-1.958-6.799-1.547-10.561,1.131
		c-6.518,4.628-11.315,14.757-9.889,26.703c0,0.01,0.01,0.02,0.01,0.02c0.735,3.047,2.086,5.853,4.138,8.157
		C11.623,32.093,17.057,18.973,24.888,13.411z"/>
	<path fill="#E4F1FB" d="M23.307,131.195L23.307,131.195c-0.01,0-0.01,0-0.01-0.01v-0.01c-0.01-0.02-0.01-0.03-0.01-0.05
		c-0.01-0.03-0.02-0.07-0.02-0.11c0-0.02,0-0.04,0-0.06c0.11-0.83-0.12-1.79-0.61-2.82c-2.57-5.39-12.26-12.82-18.17-15.49
		c-0.93-0.43-1.77-0.73-2.47-0.89c-0.59-0.14-1.6-0.29-1.78,0.24c-0.68,2.07,1.06,10.61,6.51,16.92c3.11,3.59,8.45,7.57,16.39,6.34
		C22.978,133.855,23.047,132.495,23.307,131.195z"/>
	<path fill="#008AC1" d="M23.437,131.385L23.437,131.385c-0.02-0.015-0.034-0.04-0.05-0.06
		C23.404,131.345,23.417,131.37,23.437,131.385z"/>
	<path fill="#9CA2A4" d="M44.367,166.235c0.29-1.6-1.62-4.04-2.37-5.33c-2.64-4.55-4.19-8.9-5.36-14.02
		c-0.84,0.25-1.7,0.44-2.59,0.56c1.02,4.42,2.33,8.71,3.84,13c0.78,2.22,1.66,4.38,2.8,6.44c0.1,0.18,0.22,0.38,0.35,0.58
		C41.988,167.265,44.247,166.905,44.367,166.235z"/>
	<path fill="#008AC1" d="M53.557,115.045c-0.01,0.02-0.02,0.04-0.04,0.05C53.537,115.085,53.547,115.065,53.557,115.045
		L53.557,115.045z"/>
	<path fill="#969FA5" d="M15.837,105.555c-1.94-2.91-3.07-3.88-3.47-4.09c-0.95,1.76-1.29,3.57-1.35,3.89
		c4.94,6.39,10.64,15.86,12.6,22.5c0,0.01,0.01,0.03,0.01,0.05c0.02,0.05,0.05,0.09,0.06,0.14
		C23.988,121.155,20.087,111.935,15.837,105.555z"/>
	<path fill="#008AC1" d="M23.937,135.265L23.937,135.265c-0.05-0.035-0.105-0.06-0.164-0.074
		C23.832,135.205,23.887,135.23,23.937,135.265z"/>
	<path fill="#008AC1" d="M23.607,131.485c0.01,0.01,0.02,0.02,0.03,0.02C23.627,131.505,23.617,131.495,23.607,131.485
		L23.607,131.485z"/>
	<path fill="#008AC1" d="M23.337,131.265c0.01,0.03,0.03,0.05,0.05,0.08C23.367,131.315,23.358,131.295,23.337,131.265
		L23.337,131.265z"/>
	<path fill="#9CA2A4" d="M61.597,111.915c0.7-0.6,1.51-1.27,2.4-1.77c-1.28-0.83-2.7-0.63-4.07,0.06c-0.01-0.01-0.01-0.01-0.01,0
		c-2.05,1.37-3.65,3.2-5.22,5.07c0.46,0.99,0.88,1.98,1.22,2.99C57.767,116.115,59.448,113.785,61.597,111.915z"/>
	<path fill="#777D7F" d="M44.017,57.345c-0.38,0.02-0.76,0.05-1.13,0.1c-0.18,0.02-0.355,0.051-0.533,0.076
		c-0.358,0.05-0.712,0.106-1.061,0.172c-0.102-0.206-0.203-0.431-0.29-0.689c-0.028-0.077-0.053-0.176-0.08-0.257
		c-0.415-1.22-0.743-2.93-0.914-5.061c-0.039-0.588-0.073-1.196-0.088-1.842c-0.114-3.438,0.157-7.666,1.025-12.309
		c0.436-2.4,1.043-4.91,1.824-7.487c0.002-0.01,0.002-0.01,0.002-0.01c0.037-0.118,0.073-0.237,0.11-0.355
		c0.045-0.106,0.079-0.214,0.103-0.325c0.077-0.204,0.134-0.413,0.198-0.609c0.03-0.088,0.06-0.176,0.08-0.267
		c0.056-0.156,0.101-0.315,0.157-0.471c0.367-1.088,0.779-2.188,1.213-3.293c-0.089,0.022-0.191,0.053-0.292,0.083
		c-1.17,0.384-2.516,1.087-3.954,2.065c-0.47,0.317-0.948,0.665-1.439,1.03c-3.201,2.474-6.729,6.182-9.753,10.812
		c-2.632,4.043-6.157,10.743-6.88,18.589c-0.34,3.652-0.033,7.58,1.215,11.577c0.138,0.391,0.293,0.791,0.449,1.182
		c-0.22,0.37-0.42,0.74-0.6,1.12c-0.44,0.85-0.82,1.73-1.15,2.63c-0.99,2.7-1.53,5.61-1.53,8.65
		c0,13.89,11.747,21.365,25.637,21.365c11.1,0,20.417-10.522,20.438-10.563c0.68-1.46,2.778-3.083,5.995-13.773
		c1.755-5.832,0.39-15.54-7-14.07c-0.074,0.015-0.614,0.305-0.936,0.469c-0.114,0.058-0.202,0.1-0.231,0.108
		c-0.283,0.07-0.285-0.214-0.163-0.547c-4.606-5.021-11.217-8.18-18.55-8.18c-0.171,0-0.342,0.006-0.512,0.01
		c-0.258,0.005-0.514,0.016-0.768,0.031C44.41,57.317,44.211,57.326,44.017,57.345z"/>
	<path fill="#C5D1D7" d="M53.587,127.285c1.59-2.42,4.39-3.67,7.16-4.82c0.26-0.11,0.52-0.22,0.78-0.32c1.21-0.5,2.4-1,3.45-1.6
		c0.07-1.26,0.25-2.52,0.56-3.77c0.15-0.62,1.11-0.36,0.96,0.27c-0.31,1.26-0.49,2.55-0.54,3.85c-0.13,2.27,0.11,4.56,0.67,6.75
		c0.1,0.38,0.22,0.7,0.37,0.99c0.17,0.36,0.38,0.65,0.63,0.89c1.4,1.39,3.77,1.04,5.92,0.48c1.17-0.31,3.49-0.77,3.32-2.42
		c-0.11-1.08-0.52-2.12-0.99-3.1c-0.8-1.67-1.78-3.26-2.54-4.94c-1.2-2.66-3.16-10.15-7.32-9.16c-0.15,0.02-0.3,0.07-0.46,0.13
		c-0.04,0.01-0.07,0.03-0.11,0.05c-0.16,0.05-0.31,0.12-0.46,0.18c-0.04,0.02-0.08,0.04-0.12,0.06c-1.95,0.9-3.54,2.41-5.01,4.1
		c-2.11,2.43-3.97,5.23-6.28,7.15c-0.49,0.41-1.2-0.3-0.71-0.71c0.82-0.68,1.57-1.43,2.28-2.21c-0.31-1.02-0.7-2.02-1.15-3.01
		c-0.15-0.34-0.31-0.68-0.48-1.03c-1.63-3.39-3.67-6.7-4.29-10.33c-0.02-0.13,0-0.25,0.06-0.35c-1.11,0.16-2.25,0.23-3.4,0.23
		c-0.92,0-1.82-0.05-2.71-0.15c0,0.04,0.01,0.08,0.01,0.13c0,3.19-0.33,6.47-2.03,9.26c-1.64,2.68-3.58,3.7-6.29,5.03
		c-4.75,2.34-9.2,6.67-10.48,11.86c-0.37,1.52-0.47,3.11-0.23,4.75c0,0.01,0,0.01,0,0.02c0.01,0.01,0.01,0.03,0.01,0.05
		c0.01,0.02,0.01,0.04,0.01,0.07c0,0.07-0.01,0.13-0.03,0.19c-0.56,1.99-0.53,4.21-0.57,6.27c-0.06,3.19-0.02,6.39,0.1,9.58
		c0.2,5.47,0.23,11.28,1.43,16.65c0.6,2.69,3.6,2.69,5.8,3.11c1.98,0.37,4.42,0.83,6.4,0.22c0.98-0.31,2.81-1.25,3.32-2.27
		c0.14-0.29-0.01-0.7-0.23-1.09c-0.2-0.36-0.45-0.71-0.57-0.93c-3.39-6.22-5.33-13.4-6.88-20.27c-0.09-0.42,0.3-0.67,0.62-0.61
		c0,0,0,0,0.01,0c0.03-0.01,0.07-0.02,0.11-0.02c5.31-0.6,10.13-4.07,13.74-7.84c3.06-3.19,5.89-6.95,7.26-11.21
		c-0.09,0.11-0.16,0.22-0.24,0.34C54.097,128.325,53.228,127.825,53.587,127.285z"/>
	<path fill="#9D9682" d="M45.863,23.441c0.002,0,0.004,0.001,0.006,0.001c0.118-5.696-0.485-10.988-2.258-15.06
		c-0.949-2.163-2.191-3.901-3.725-5.204c-0.01,0-0.01-0.01-0.01-0.01c-0.721-0.627-1.521-1.143-2.378-1.557
		c-0.949-0.483-1.985-0.834-3.09-1.054C24.861-1.371,15.984,3.85,10.666,14.538c-4.739,9.517-5.694,22.517,1.094,30.125
		c-0.556-1.98-0.931-3.934-1.156-5.85c-0.625-5.27-0.074-10.2,1.288-14.496c1.836-5.764,5.123-10.374,9.004-13.135
		c3.209-2.278,6.546-3.039,9.401-2.22c0.02,0,0.04-0.001,0.06,0.009c1.014,0.222,1.872,0.666,2.584,1.314
		c0.02,0.01,0.051,0.029,0.071,0.049c0.041,0.029,0.071,0.069,0.102,0.108c0.183,0.187,0.367,0.383,0.531,0.591
		c0.072,0.099,0.154,0.197,0.226,0.306c0.205,0.286,0.391,0.583,0.567,0.91c0.01,0.02,0.01,0.03,0.021,0.05
		c1.95,3.711,2.053,9.974,1.682,16.628c1.136-1.033,2.273-1.963,3.382-2.736c0.46-0.32,0.917-0.619,1.353-0.881
		c1.338-0.81,2.613-1.382,3.77-1.663c0.179-0.048,0.551-0.107,0.846-0.151c-0.019,0-0.038-0.011-0.056-0.008
		c0.089-0.012,0.173-0.018,0.255-0.022c0.019-0.003,0.044-0.007,0.061-0.009l0.001-0.007C45.788,23.445,45.83,23.444,45.863,23.441z
		"/>
	<path fill="#008AC1" d="M43.862,50.17c-0.038,0.076-0.088,0.16-0.136,0.233C43.774,50.329,43.824,50.246,43.862,50.17L43.862,50.17
		z"/>
	<path fill="#727273" d="M32.943,6.285c0.061,0.049,0.122,0.108,0.173,0.157c-0.031-0.039-0.061-0.079-0.102-0.108
		C32.993,6.314,32.963,6.294,32.943,6.285z"/>
	<path fill="#727273" d="M23.688,128.115c0-0.02,0-0.05,0-0.069v0c-0.01-0.05-0.04-0.09-0.06-0.14
		C23.657,127.975,23.677,128.045,23.688,128.115z"/>
	<path fill="#A8A8A8" d="M23.337,131.265L23.337,131.265c0.02,0.03,0.03,0.05,0.05,0.08
		C23.367,131.315,23.347,131.295,23.337,131.265z M23.437,131.385c-0.02-0.015-0.034-0.04-0.05-0.06
		C23.404,131.345,23.417,131.37,23.437,131.385L23.437,131.385z M23.607,131.485L23.607,131.485c0.01,0.01,0.02,0.02,0.03,0.02
		C23.627,131.505,23.617,131.495,23.607,131.485z M23.937,135.265c-0.05-0.035-0.105-0.06-0.164-0.074
		C23.833,135.205,23.887,135.23,23.937,135.265L23.937,135.265z"/>
</g>
<path fill="none" stroke="#515659" stroke-linecap="round" stroke-miterlimit="10" d="M61.228,83.208
	c1.435,3.256,5.282,4.708,8.601,3.245"/>
<path fill="none" stroke="#515659" stroke-linecap="round" stroke-miterlimit="10" d="M66.585,67.508
	c-0.25,0.75,0.813-2.063,2.125,0"/>
<g>
	<path fill="#FFFFFF" d="M53.752,76.174c0.565-0.655,1.196-1.274,1.827-1.935c0.649-0.646,1.369-1.221,2.09-1.687
		c0.443-0.278,0.88-0.496,1.306-0.687c-0.04-2.8-1.55-5.961-4.294-8.391c-4.355-3.855-10.164-4.407-12.973-1.232
		c-2.81,3.174-1.557,8.873,2.799,12.727c2.397,2.122,5.233,3.236,7.768,3.286c0.038-0.068,0.06-0.126,0.101-0.195
		C52.725,77.472,53.183,76.812,53.752,76.174z"/>
	<path fill="#868686" d="M61.437,71.096c-0.39,0.067-0.951,0.173-1.598,0.399c-0.253,0.088-0.526,0.208-0.8,0.331
		c-0.426,0.191-0.863,0.409-1.306,0.687c-0.721,0.466-1.44,1.041-2.09,1.687c-0.631,0.661-1.262,1.28-1.827,1.935
		c-0.569,0.638-1.027,1.298-1.376,1.886c-0.042,0.069-0.064,0.128-0.102,0.195c-0.283,0.506-0.48,0.971-0.579,1.31
		c-0.115,0.38-0.153,0.603-0.153,0.603s0.065-0.218,0.224-0.579c0.141-0.346,0.422-0.806,0.769-1.331
		c0.016-0.024,0.027-0.044,0.044-0.069c-0.533,0.781,0.249-0.45,1.442-1.777c0.546-0.624,1.246-1.231,1.836-1.9
		c0.958-0.986,2.077-1.796,3.109-2.352c0.305-0.164,0.604-0.312,0.887-0.427c0.616-0.266,1.152-0.439,1.533-0.539
		c0.384-0.091,0.604-0.143,0.604-0.143S61.829,71.044,61.437,71.096z"/>
</g>
<ellipse transform="matrix(0.6628 -0.7488 0.7488 0.6628 -32.6267 61.5378)" fill="#4169B1" cx="52.01" cy="66.993" rx="4.46" ry="6.12"/>
<path fill="#FFFFFF" d="M52.787,62.13c-0.298,0.979-1.629,1.441-2.973,1.032c-1.343-0.409-2.191-1.535-1.892-2.514"/>
<ellipse transform="matrix(0.6628 -0.7488 0.7488 0.6628 -34.9662 63.8929)" fill="#FFFFFF" cx="53.455" cy="70.768" rx="0.713" ry="0.978"/>
<path fill="#727273" d="M32.943,6.285c0.061,0.049,0.122,0.108,0.173,0.157c-0.031-0.039-0.061-0.079-0.102-0.108
	C32.993,6.314,32.963,6.294,32.943,6.285z"/>
<path fill="#9D9682" d="M7.004,32.68c0.386,4.515,1.863,8.74,4.756,11.983c-0.556-1.98-0.931-3.934-1.156-5.85
	c-0.22-1.853-0.287-3.661-0.232-5.418c-0.297-0.017-0.589-0.023-0.902-0.07C8.646,33.202,7.809,32.969,7.004,32.68z"/>
<path fill="#B7B09E" d="M27.538,6.066c0.149-2.113,0.954-4.379,1.834-5.858c-0.824,0.051-1.637,0.164-2.44,0.323
	c-0.773,1.266-1.602,3.417-1.75,5.518c-0.06,0.856-0.013,1.935,0.366,2.914c0.74-0.186,1.47-0.284,2.185-0.303
	C27.542,7.884,27.471,7.017,27.538,6.066z"/>
<path fill="#B7B09E" d="M6.924,29.181c-0.027,0.807-0.023,1.609,0.014,2.405c0.845,0.335,1.759,0.613,2.68,0.75
	c0.249,0.038,0.521,0.064,0.802,0.081c0.048-0.801,0.122-1.589,0.222-2.364c-0.273-0.018-0.538-0.021-0.823-0.064
	C8.847,29.844,7.855,29.548,6.924,29.181z"/>
<path fill="#B7B09E" d="M11.147,13.639c-0.16,0.3-0.327,0.589-0.481,0.899c-0.173,0.347-0.329,0.707-0.491,1.062
	c1.009,0.903,2.367,1.842,3.82,2.415c0.19,0.075,0.397,0.146,0.612,0.213c0.428-0.724,0.889-1.406,1.366-2.062
	c-0.409-0.099-0.826-0.225-1.254-0.393C13.442,15.269,12.189,14.48,11.147,13.639z"/>
<path fill="#9D9682" d="M24.185,5.979c0.127-1.797,0.729-3.708,1.447-5.151c-5.525,1.521-10.428,5.63-14.005,11.916
	c0.962,0.8,2.176,1.593,3.459,2.099c0.452,0.178,0.982,0.346,1.547,0.448c1.296-1.627,2.731-3.017,4.265-4.108
	c1.222-0.867,2.462-1.512,3.687-1.936C24.238,8.314,24.097,7.215,24.185,5.979z"/>
<path fill="#9D9682" d="M9.744,16.56c-1.526,3.62-2.516,7.615-2.779,11.567C7.894,28.52,8.93,28.845,9.967,29
	c0.251,0.038,0.527,0.064,0.811,0.08c0.263-1.657,0.635-3.251,1.115-4.763c0.595-1.868,1.356-3.599,2.226-5.2
	c-0.163-0.055-0.325-0.106-0.49-0.171C12.223,18.391,10.84,17.494,9.744,16.56z"/>
<path fill="#B7B09E" d="M45.669,17.207c-0.101-1.085-0.249-2.131-0.429-3.148c-2.069-0.175-5.276,0.16-8.048,1.341
	c-0.464,0.198-0.967,0.449-1.467,0.749c0.242,1.227,0.398,2.568,0.487,3.994c0.735-0.563,1.602-1.061,2.591-1.482
	C40.967,17.737,43.529,17.272,45.669,17.207z"/>
<path fill="#9D9682" d="M36.274,21.405c0.083,2.361,0.013,4.909-0.132,7.521c1.136-1.033,2.273-1.963,3.382-2.736
	c0.46-0.32,0.917-0.619,1.353-0.881c1.338-0.81,2.613-1.382,3.77-1.663c0.179-0.048,0.551-0.107,0.846-0.151
	c-0.019,0-0.038-0.011-0.056-0.008c0.089-0.012,0.173-0.018,0.255-0.022c0.019-0.003,0.044-0.007,0.061-0.009l0.001-0.007
	c0.032-0.003,0.075-0.005,0.107-0.008c0.002,0,0.004,0.001,0.006,0.001c0.037-1.798-0.007-3.548-0.128-5.24
	c-1.948,0.05-4.379,0.455-6.546,1.378C38.263,19.977,37.183,20.573,36.274,21.405z"/>
<path fill="#9D9682" d="M45.046,13.047c-0.353-1.677-0.819-3.249-1.436-4.665c-0.949-2.163-2.191-3.901-3.725-5.204
	c-0.01,0-0.01-0.01-0.01-0.01c-0.721-0.627-1.521-1.143-2.378-1.557c-0.949-0.483-1.985-0.834-3.09-1.054
	c-1.288-0.26-2.562-0.379-3.819-0.383c-0.844,1.145-1.885,3.582-2.052,5.963c-0.053,0.753-0.024,1.68,0.24,2.56
	c0.518,0.048,1.03,0.124,1.522,0.266c0.02,0,0.04-0.001,0.06,0.009c1.014,0.222,1.872,0.666,2.584,1.314
	c0.02,0.01,0.051,0.029,0.071,0.049c0.041,0.029,0.071,0.069,0.102,0.108c0.183,0.187,0.367,0.383,0.531,0.591
	c0.072,0.099,0.154,0.197,0.226,0.306c0.205,0.286,0.391,0.583,0.567,0.91c0.01,0.02,0.01,0.03,0.021,0.05
	c0.433,0.824,0.77,1.78,1.036,2.832c0.41-0.231,0.839-0.451,1.304-0.65C39.458,13.348,42.711,12.904,45.046,13.047z"/>
<path fill="#B7B09E" d="M6.938,31.586c0.017,0.366,0.035,0.731,0.066,1.094c0.804,0.289,1.642,0.522,2.466,0.645
	c0.313,0.047,0.605,0.054,0.902,0.07c0.01-0.329,0.028-0.654,0.048-0.978c-0.281-0.017-0.554-0.043-0.802-0.081
	C8.697,32.198,7.783,31.921,6.938,31.586z"/>
<path fill="#B7B09E" d="M6.965,28.126c-0.023,0.352-0.03,0.703-0.041,1.054c0.931,0.367,1.922,0.663,2.895,0.809
	c0.285,0.042,0.551,0.046,0.823,0.064c0.042-0.326,0.084-0.651,0.135-0.972c-0.284-0.016-0.56-0.043-0.811-0.08
	C8.93,28.845,7.894,28.52,6.965,28.126z"/>
<path fill="#B7B09E" d="M10.175,15.6c-0.146,0.319-0.293,0.634-0.43,0.959c1.096,0.935,2.479,1.832,3.885,2.386
	c0.165,0.065,0.327,0.116,0.49,0.171c0.162-0.297,0.318-0.601,0.488-0.888c-0.214-0.067-0.422-0.138-0.612-0.213
	C12.541,17.442,11.184,16.504,10.175,15.6z"/>
<path fill="#B7B09E" d="M11.626,12.744c-0.165,0.29-0.32,0.596-0.479,0.895c1.042,0.841,2.294,1.63,3.572,2.134
	c0.427,0.169,0.844,0.294,1.254,0.393c0.216-0.298,0.434-0.593,0.659-0.876c-0.565-0.102-1.095-0.27-1.547-0.448
	C13.802,14.337,12.588,13.544,11.626,12.744z"/>
<path fill="#B7B09E" d="M25.183,6.05c0.148-2.101,0.977-4.253,1.75-5.518c-0.436,0.087-0.872,0.178-1.301,0.296
	c-0.718,1.443-1.319,3.355-1.447,5.151c-0.087,1.236,0.053,2.335,0.399,3.268c0.323-0.112,0.644-0.202,0.964-0.282
	C25.17,7.985,25.122,6.906,25.183,6.05z"/>
<path fill="#B7B09E" d="M28.536,6.137c0.168-2.381,1.208-4.818,2.052-5.963c-0.408-0.001-0.813,0.01-1.216,0.035
	c-0.88,1.479-1.685,3.745-1.834,5.858c-0.067,0.951,0.004,1.818,0.195,2.595c0.352-0.009,0.7,0.004,1.043,0.035
	C28.512,7.817,28.483,6.89,28.536,6.137z"/>
<path fill="#B7B09E" d="M45.24,14.058c-0.061-0.341-0.124-0.679-0.193-1.012c-2.336-0.143-5.589,0.302-8.247,1.433
	c-0.465,0.198-0.894,0.419-1.304,0.65c0.083,0.33,0.16,0.669,0.229,1.019c0.5-0.299,1.002-0.551,1.467-0.749
	C39.963,14.219,43.171,13.883,45.24,14.058z"/>
<path fill="#B7B09E" d="M38.803,18.66c-0.99,0.422-1.856,0.919-2.591,1.482c0.026,0.415,0.047,0.835,0.062,1.263
	c0.909-0.832,1.989-1.429,2.92-1.826c2.167-0.923,4.598-1.328,6.546-1.378c-0.024-0.332-0.041-0.668-0.072-0.995
	C43.529,17.272,40.967,17.737,38.803,18.66z"/>
<g>
	<path fill="#736E61" d="M46.832,23.182c-0.07,3.707-0.442,7.582-1.007,11.414c-0.168,1.233-0.376,2.467-0.594,3.681
		c-0.318,1.796-0.667,4.016-1.044,5.826c-0.149,2.617-0.153,5.042,0.097,7.305c0.057,0.55,0.13,1.082,0.234,1.611
		c0.007,0.046,0.018,0.091,0.026,0.137c1.758-7.989,4.285-20.336,4.643-30.276C48.434,22.933,47.649,23.02,46.832,23.182z"/>
	<path fill="#736E61" d="M49.143,17.663c-0.172-2.776-0.609-5.195-1.411-7.034c-1.229-2.824-3.045-4.846-5.275-6.195
		c0.794,1.03,1.481,2.209,2.066,3.542c1.212,2.777,1.884,6.116,2.164,9.758C47.563,17.65,48.396,17.627,49.143,17.663z"/>
	<path fill="#736E61" d="M11.475,37.365c0.036,0.446,0.064,0.889,0.118,1.34c0,0.01,0.01,0.02,0.01,0.02
		c0.735,3.047,2.086,5.853,4.138,8.157c-0.849-3.05-1.273-6.023-1.372-8.88c-0.207-0.011-0.415-0.023-0.633-0.056
		C12.98,37.833,12.216,37.621,11.475,37.365z"/>
	<path fill="#736E61" d="M28.45,10.6c0.021-0.303,0.074-0.611,0.121-0.918c-2.22-0.166-4.685,0.609-7.088,2.32
		c-1.965,1.395-3.768,3.298-5.297,5.592c0.886,0.699,1.943,1.369,3.067,1.826c1.618-2.466,3.535-4.517,5.636-6.009
		c1.173-0.833,2.363-1.459,3.54-1.883C28.421,11.228,28.427,10.919,28.45,10.6z"/>
	<path fill="#736E61" d="M11.395,32.812c0.887,0.363,1.86,0.663,2.837,0.809c0.073,0.011,0.158,0.014,0.234,0.023
		c0.339-3.818,1.305-7.327,2.699-10.409c-1.096-0.524-2.146-1.219-3.027-1.953C12.598,24.639,11.606,28.549,11.395,32.812z"/>
	<path fill="#8B8477" d="M29.448,10.671c-0.012,0.171-0.015,0.356-0.017,0.542c0.806-0.212,1.599-0.318,2.373-0.332
		c0.002-0.049-0.003-0.093,0-0.142c-0.702-0.439-1.457-0.748-2.258-0.917C29.502,10.104,29.468,10.388,29.448,10.671z"/>
	<path fill="#8B8477" d="M11.392,36.271c0.793,0.303,1.637,0.558,2.492,0.686c0.144,0.022,0.308,0.032,0.465,0.047
		c-0.006-0.798,0.016-1.585,0.063-2.361c-0.108-0.008-0.215-0.016-0.327-0.032c-0.916-0.137-1.844-0.414-2.727-0.751
		C11.343,34.653,11.35,35.456,11.392,36.271z"/>
	<path fill="#8B8477" d="M17.584,22.325c0.352-0.712,0.731-1.394,1.128-2.053c-1.089-0.465-2.144-1.12-3.061-1.831
		c-0.373,0.611-0.727,1.246-1.06,1.906C15.419,21.067,16.457,21.785,17.584,22.325z"/>
	<path fill="#8B8477" d="M49.192,18.664c-0.718-0.042-1.542-0.031-2.435,0.054c0.064,1.13,0.092,2.285,0.088,3.461
		c0.812-0.151,1.606-0.246,2.372-0.298C49.241,20.77,49.232,19.697,49.192,18.664z"/>
	<path fill="#8B8477" d="M13.883,36.957c-0.855-0.128-1.698-0.383-2.492-0.686c0.018,0.362,0.053,0.728,0.083,1.094
		c0.742,0.256,1.506,0.468,2.261,0.581c0.219,0.033,0.426,0.045,0.633,0.056c-0.012-0.334-0.018-0.667-0.021-0.998
		C14.191,36.989,14.028,36.979,13.883,36.957z"/>
	<path fill="#8B8477" d="M11.395,32.812c-0.017,0.347-0.031,0.695-0.038,1.047c0.883,0.337,1.812,0.615,2.727,0.751
		c0.112,0.017,0.219,0.024,0.327,0.032c0.02-0.332,0.025-0.671,0.054-0.998c-0.076-0.009-0.161-0.012-0.234-0.023
		C13.255,33.475,12.282,33.175,11.395,32.812z"/>
	<path fill="#8B8477" d="M14.138,21.282c0.881,0.735,1.931,1.429,3.027,1.953c0.138-0.305,0.273-0.614,0.419-0.91
		c-1.127-0.54-2.165-1.258-2.993-1.978"/>
	<path fill="#8B8477" d="M15.651,18.441c0.917,0.712,1.972,1.367,3.061,1.831c0.175-0.29,0.356-0.573,0.54-0.852
		c-1.124-0.457-2.181-1.127-3.067-1.826C16.002,17.869,15.827,18.154,15.651,18.441z"/>
	<path fill="#8B8477" d="M29.448,10.671c0.02-0.283,0.054-0.567,0.097-0.85c-0.319-0.067-0.643-0.115-0.974-0.139
		c-0.047,0.307-0.099,0.615-0.121,0.918c-0.022,0.319-0.029,0.627-0.021,0.927c0.335-0.121,0.67-0.227,1.002-0.315
		C29.432,11.027,29.436,10.842,29.448,10.671z"/>
	<path fill="#8B8477" d="M32.043,10.871c-0.077-0.052-0.162-0.084-0.24-0.133c-0.003,0.049,0.003,0.093,0,0.142
		C31.883,10.879,31.964,10.87,32.043,10.871z"/>
	<path fill="#8B8477" d="M49.192,18.664c-0.013-0.338-0.029-0.673-0.049-1.001c-0.748-0.036-1.581-0.013-2.456,0.071
		c0.025,0.327,0.051,0.653,0.069,0.985C47.651,18.633,48.474,18.622,49.192,18.664z"/>
	<path fill="#8B8477" d="M49.217,21.881c-0.766,0.052-1.56,0.146-2.372,0.298c-0.001,0.332-0.007,0.667-0.013,1.002
		c0.818-0.162,1.603-0.248,2.354-0.302C49.198,22.545,49.21,22.21,49.217,21.881z"/>
</g>
</svg>
