<?xml version="1.0" encoding="utf-8"?>
<!-- Generator: Adobe Illustrator 17.0.0, SVG Export Plug-In . SVG Version: 6.00 Build 0)  -->
<!DOCTYPE svg PUBLIC "-//W3C//DTD SVG 1.1//EN" "http://www.w3.org/Graphics/SVG/1.1/DTD/svg11.dtd">
<svg version="1.1" id="Layer_1" xmlns="http://www.w3.org/2000/svg" xmlns:xlink="http://www.w3.org/1999/xlink" x="0px" y="0px"
	 width="1559.324px" height="1133.004px" viewBox="0 0 1559.324 1133.004" enable-background="new 0 0 1559.324 1133.004"
	 xml:space="preserve">
<path fill="#0285C0" d="M131.308,491.426c21.608,2.271,43.108,5.73,64.144,10.32c4.238,0.926,8.465,1.896,12.681,2.912
	c-0.008-0.014-0.015-0.027-0.023-0.041c-4.223-1.018-8.457-1.99-12.701-2.917c-21.036-4.59-42.537-8.048-64.144-10.32
	c20.203,46.13,44.333,90.212,76.484,129.465c10.038,12.256,20.544,24.105,31.427,35.6c-10.867-11.48-21.358-23.314-31.383-35.554
	C175.642,581.638,151.511,537.556,131.308,491.426z"/>
<path fill="#0285C0" d="M100.201,568.429c-15.751-26.25-30.481-53.094-44.745-80.18c19.171-0.367,38.159,0.127,56.762,1.477
	c4.664,0.339,9.332,0.736,13.993,1.184c-0.006-0.015-0.013-0.029-0.019-0.044c-4.67-0.45-9.345-0.847-14.018-1.187
	c-18.602-1.35-37.591-1.844-56.762-1.477c14.264,27.086,28.993,53.93,44.745,80.18c29.178,48.622,62.022,94.573,99.856,136.861
	c5.734,6.408,11.558,12.739,17.473,18.986c-5.9-6.232-11.71-12.547-17.43-18.94C162.223,663.002,129.379,617.051,100.201,568.429z"
	/>
<path fill="#0285C0" d="M966.677,893.391c-3.555-5.705-7.651-12.02-11.448-17.418c66.115-14.2,134.262-54.25,208.345-121.679
	c1.593-1.355,3.152-2.708,4.67-4.057c0.011,0,0.025,0.003,0.036,0.006C1111.073,805.922,1035.795,860.459,966.677,893.391z"/>
<path fill="#0285C0" d="M543.19,953.74c3.991,0.69,7.982,1.339,11.984,1.951C551.169,955.076,547.172,954.425,543.19,953.74z"/>
<path fill="#0285C0" d="M539.199,953.036c0,0,0,0,0,0.003c1.328,0.237,2.655,0.472,3.98,0.698
	C541.851,953.508,540.524,953.274,539.199,953.036z"/>
<path fill="#0285C0" d="M213.967,506.095c33.297,8.38,65.971,19.654,98.851,34.12c-0.007-0.012-0.014-0.024-0.022-0.036
	c-32.888-14.471-65.569-25.748-98.873-34.13c9.674,17.41,19.695,34.621,30.418,51.407c20.439,31.997,43.675,61.604,69.661,89.075
	c-25.968-27.458-49.19-57.05-69.617-89.029C233.662,540.716,223.64,523.505,213.967,506.095z"/>
<path fill="#0285C0" d="M622.481,619.947c10.909,0,20.77,4.572,27.767,11.902c-6.999-7.356-16.878-11.948-27.81-11.948
	c-21.172,0-38.397,17.222-38.397,38.397c0,0.843,0.344,1.605,0.899,2.155c-0.529-0.547-0.855-1.29-0.855-2.109
	C584.084,637.169,601.309,619.947,622.481,619.947z"/>
<path fill="#0285C0" d="M322.745,548.162c-0.985-1.606-1.965-3.215-2.939-4.827c7.64,3.464,15.296,7.099,22.977,10.913
	c40.605,20.156,82.175,45.512,127.094,77.514c39.694,28.284,77.072,58.142,113.217,87.019c8.216,6.563,16.389,13.093,24.531,19.554
	c0.718,0.516,1.446,1.018,2.183,1.507c2.222,1.468,4.518,2.821,6.878,4.049c1.247,0.646,2.509,1.267,3.784,1.849
	c0.643,0.292,1.289,0.58,1.938,0.856c0.025,0.011,0.05,0.022,0.074,0.033c0.017,0.006,0.036,0.014,0.052,0.022
	c0.097,0.039,0.193,0.08,0.29,0.119c0.273,0.113,0.546,0.224,0.822,0.334c2.542,1.01,5.128,1.91,7.75,2.688
	c2.881,0.856,5.799,1.581,8.746,2.164c1.482,0.295,2.97,0.557,4.463,0.784c0.417,0.064,0.836,0.124,1.256,0.182
	c0.017,0.003,0.033,0.005,0.052,0.008s0.041,0.005,0.063,0.008c0.025,0.003,0.052,0.005,0.077,0.011
	c0.008,0.003,0.017,0.003,0.025,0.003c0.006,0,0.011,0,0.017,0.003c0.017,0,0.033,0.003,0.05,0.006
	c0.008,0.003,0.017,0.003,0.022,0.003c0.008,0.003,0.014,0.003,0.022,0.003c0.006,0.003,0.011,0.003,0.014,0.003
	c0.008,0,0.017,0.003,0.022,0.003c0.003,0,0.003,0,0.006,0c0.005,0,0.011,0.003,0.014,0.003c0.006,0,0.008,0,0.014,0
	c0.006,0.003,0.011,0.003,0.017,0.003c0.014,0.003,0.025,0.003,0.039,0.005c0.72,0.091,1.443,0.174,2.167,0.251
	c6.008,0.624,12.075,0.737,18.1,0.282c1.493-0.113,2.984-0.254,4.471-0.436c0.237-0.028,0.475-0.058,0.712-0.088
	c0.003,0,0.005,0,0.008,0c0.008-0.003,0.017-0.003,0.025-0.005c0.008,0,0.017,0,0.025-0.003c0.006,0,0.011,0,0.017-0.003
	c0.003,0,0.006,0,0.008,0s0.005,0,0.008,0c0-0.003,0.003-0.003,0.005-0.003c0.008,0,0.019-0.003,0.028-0.003
	c0.006,0,0.008,0,0.014-0.003c0.008,0,0.017-0.003,0.025-0.003c0.005,0,0.014-0.003,0.019-0.003c0.006,0,0.014,0,0.022-0.003
	c0.006,0,0.011,0,0.017-0.003c0.017,0,0.03-0.003,0.047-0.006c0.006,0,0.011,0,0.017-0.003c0.005,0,0.008,0,0.014-0.003
	c0.008,0,0.017,0,0.022-0.003c0.005,0,0.011,0,0.017-0.003c0.008,0,0.017,0,0.025-0.003c0.201-0.028,0.403-0.058,0.604-0.088
	c0.704-0.105,1.41-0.215,2.111-0.337c2.904-0.5,5.785-1.129,8.625-1.913c2.79-0.773,5.545-1.675,8.236-2.741
	c0.373-0.146,0.745-0.295,1.115-0.45c0.019-0.008,0.039-0.016,0.058-0.022c0.014-0.005,0.028-0.011,0.044-0.019
	c0.019-0.005,0.036-0.014,0.055-0.022c0.005,0,0.017-0.005,0.025-0.011c0.003,0,0.008-0.003,0.011-0.005
	c0.008-0.003,0.016-0.006,0.025-0.008s0.019-0.006,0.03-0.014c0.008-0.005,0.019-0.008,0.03-0.014c0.008,0,0.019-0.005,0.028-0.011
	c0.028-0.014,0.055-0.025,0.075-0.033c0.627-0.27,1.25-0.546,1.871-0.836c1.281-0.596,2.545-1.225,3.789-1.899
	c2.451-1.325,4.83-2.793,7.09-4.421c0.315-0.226,0.627-0.455,0.936-0.687c0.066-0.052,0.226-0.174,0.37-0.281
	c0.006-0.003,0.014-0.008,0.019-0.014c0.044-0.039,0.088-0.069,0.124-0.097c0,0,0.003,0,0.006-0.003
	c0.019-0.016,0.039-0.03,0.058-0.05c0.006-0.003,0.008-0.005,0.014-0.008c0.011-0.005,0.019-0.014,0.025-0.019
	c0.005-0.005,0.011-0.008,0.017-0.014v0.003c0.003-0.003,0.006-0.006,0.006-0.006c0.408-0.323,0.814-0.651,1.212-0.982
	c1.054-0.88,2.078-1.794,3.064-2.749c1.518-1.468,2.92-3.025,4.281-4.637c0.13-0.155,0.259-0.309,0.386-0.466
	c0.113-0.141,0.226-0.281,0.337-0.425c0.028-0.03,0.052-0.063,0.075-0.097c1.893-2.481,3.618-5.095,5.211-7.778
	c1.201-2.026,2.327-4.093,3.37-6.204c0.585-1.187,1.148-2.385,1.678-3.596c0.119-0.268,0.237-0.535,0.353-0.806
	c0.003-0.008,0.006-0.017,0.011-0.025c0.003-0.008,0.005-0.014,0.008-0.022s0.006-0.014,0.008-0.022
	c0.011-0.025,0.022-0.052,0.033-0.077c0.066-0.155,0.13-0.312,0.193-0.466c0.259-0.635,0.513-1.272,0.756-1.913
	c1.079-2.826,2.018-5.708,2.779-8.636c0.403-1.551,0.765-3.116,1.071-4.689c0.163-0.842,0.315-1.684,0.447-2.531
	c0.063-0.395,0.124-0.789,0.182-1.184c0.003-0.014,0.005-0.025,0.005-0.039c0-0.005,0.003-0.008,0.003-0.014s0-0.008,0-0.014
	c0.003-0.006,0.003-0.011,0.003-0.017c0.003-0.011,0.003-0.022,0.006-0.036c0.003-0.017,0.005-0.033,0.005-0.047
	c0-0.003,0.003-0.008,0.003-0.011s0-0.008,0-0.014c0.003-0.011,0.003-0.019,0.005-0.028c0-0.003,0-0.005,0-0.008
	c0.003-0.014,0.003-0.025,0.006-0.036c0-0.008,0-0.014,0.003-0.022c0-0.011,0.003-0.022,0.003-0.033v-0.003
	c0.003-0.003,0.003-0.003,0.003-0.006c0-0.008,0-0.014,0-0.019c0.003,0,0.003-0.003,0.003-0.003c0-0.003,0-0.008,0-0.014
	c0.003-0.003,0.003-0.003,0.003-0.006c0.003-0.022,0.003-0.039,0.005-0.05c0-0.003,0-0.006,0-0.008c0-0.003,0-0.003,0-0.005
	c0.003-0.006,0.003-0.008,0.003-0.008c0.005-0.052,0.014-0.102,0.019-0.155c0.419-3.458,0.604-6.95,0.497-10.433
	c-0.052-1.827-0.174-3.654-0.381-5.47c-0.033-0.298-0.066-0.593-0.105-0.889c-0.005-0.039-0.017-0.113-0.025-0.193
	c0-0.014-0.003-0.028-0.005-0.041c-0.003-0.011-0.005-0.025-0.005-0.039s-0.003-0.025-0.005-0.039c0-0.008,0-0.017-0.003-0.022
	c0-0.006,0-0.011-0.003-0.014c0-0.014-0.003-0.028-0.005-0.039c0-0.008,0-0.017-0.003-0.025c0-0.005,0-0.011-0.003-0.014
	c-0.003-0.03-0.005-0.047-0.005-0.047c-0.047-0.32-0.094-0.64-0.146-0.96c-0.146-0.908-0.312-1.813-0.494-2.716
	c-0.326-1.62,0.444-3.271,2.122-3.734c1.033-0.283,2.246,0.054,3.015,0.816c-0.766-0.793-2.005-1.15-3.058-0.862
	c-1.678,0.464-2.448,2.114-2.122,3.734c0.182,0.903,0.348,1.808,0.494,2.716c0.052,0.32,0.099,0.64,0.146,0.96
	c0,0,0.003,0.017,0.005,0.047c0.003,0.003,0.003,0.008,0.003,0.014c0.003,0.008,0.003,0.017,0.003,0.025
	c0.003,0.011,0.006,0.025,0.006,0.039c0.003,0.003,0.003,0.008,0.003,0.014c0.003,0.006,0.003,0.014,0.003,0.022
	c0.003,0.014,0.006,0.025,0.006,0.039s0.003,0.028,0.005,0.039c0.003,0.014,0.005,0.028,0.005,0.041
	c0.008,0.08,0.019,0.155,0.025,0.193c0.039,0.295,0.072,0.591,0.105,0.889c0.207,1.816,0.328,3.643,0.381,5.47
	c0.108,3.483-0.077,6.974-0.497,10.433c-0.006,0.052-0.014,0.102-0.019,0.155c0,0,0,0.003-0.003,0.008c0,0.003,0,0.003,0,0.005
	c0,0.003,0,0.006,0,0.008c-0.003,0.011-0.003,0.028-0.006,0.05c0,0.003,0,0.003-0.003,0.005c0,0.006,0,0.011,0,0.014
	c0,0,0,0.003-0.003,0.003c0,0.006,0,0.011,0,0.019c0,0.003,0,0.003-0.003,0.005v0.003c0,0.011-0.003,0.022-0.003,0.033
	c-0.003,0.008-0.003,0.014-0.003,0.022c-0.003,0.011-0.003,0.022-0.005,0.036c0,0.003,0,0.005,0,0.008
	c-0.003,0.008-0.003,0.017-0.005,0.028c0,0.005,0,0.011,0,0.014s-0.003,0.008-0.003,0.011c0,0.014-0.003,0.03-0.005,0.047
	c-0.003,0.014-0.003,0.025-0.006,0.036c0,0.005,0,0.011-0.003,0.017c0,0.005,0,0.008,0,0.014s-0.003,0.008-0.003,0.014
	c0,0.014-0.003,0.025-0.006,0.039c-0.058,0.395-0.119,0.789-0.182,1.184c-0.133,0.847-0.284,1.689-0.447,2.531
	c-0.306,1.573-0.668,3.138-1.071,4.689c-0.762,2.928-1.7,5.81-2.779,8.636c-0.243,0.64-0.497,1.278-0.756,1.913
	c-0.064,0.155-0.127,0.312-0.193,0.466c-0.011,0.025-0.022,0.052-0.033,0.077c-0.003,0.008-0.005,0.014-0.008,0.022
	s-0.006,0.014-0.008,0.022c-0.005,0.008-0.008,0.017-0.011,0.025c-0.116,0.27-0.235,0.538-0.353,0.806
	c-0.53,1.212-1.093,2.409-1.678,3.596c-1.043,2.111-2.169,4.179-3.37,6.204c-1.592,2.683-3.317,5.296-5.211,7.778
	c-0.022,0.033-0.047,0.066-0.075,0.097c-0.11,0.144-0.224,0.284-0.337,0.425c-0.127,0.157-0.257,0.312-0.386,0.466
	c-1.361,1.612-2.763,3.168-4.281,4.637c-0.985,0.955-2.009,1.868-3.064,2.749c-0.397,0.331-0.803,0.66-1.212,0.983
	c0,0-0.003,0.003-0.005,0.005v-0.003c-0.005,0.005-0.011,0.008-0.017,0.014c-0.005,0.006-0.014,0.014-0.025,0.019
	c-0.005,0.003-0.008,0.005-0.014,0.008c-0.019,0.019-0.039,0.033-0.058,0.05c-0.003,0.003-0.006,0.003-0.006,0.003
	c-0.036,0.028-0.08,0.058-0.124,0.097c-0.006,0.005-0.014,0.011-0.019,0.014c-0.143,0.108-0.304,0.229-0.37,0.281
	c-0.309,0.232-0.621,0.461-0.936,0.687c-2.26,1.628-4.64,3.097-7.09,4.422c-1.245,0.673-2.509,1.303-3.789,1.899
	c-0.621,0.29-1.245,0.566-1.871,0.836c-0.019,0.008-0.047,0.019-0.075,0.033c-0.008,0.005-0.019,0.011-0.028,0.011
	c-0.011,0.005-0.022,0.008-0.03,0.014c-0.011,0.008-0.022,0.011-0.03,0.014c-0.008,0.003-0.016,0.006-0.025,0.008
	c-0.003,0.003-0.008,0.005-0.011,0.005c-0.008,0.006-0.019,0.011-0.025,0.011c-0.019,0.008-0.036,0.017-0.055,0.022
	c-0.017,0.008-0.03,0.014-0.044,0.019c-0.019,0.005-0.039,0.014-0.058,0.022c-0.37,0.155-0.742,0.304-1.115,0.45
	c-2.691,1.065-5.445,1.968-8.236,2.741c-2.84,0.784-5.721,1.413-8.625,1.913c-0.701,0.121-1.408,0.232-2.111,0.337
	c-0.202,0.03-0.403,0.061-0.604,0.088c-0.008,0.003-0.017,0.003-0.025,0.003c-0.006,0.003-0.011,0.003-0.017,0.003
	c-0.005,0.003-0.014,0.003-0.022,0.003c-0.005,0.003-0.008,0.003-0.014,0.003c-0.005,0.003-0.011,0.003-0.017,0.003
	c-0.017,0.003-0.03,0.005-0.047,0.005c-0.005,0.003-0.011,0.003-0.016,0.003c-0.008,0.003-0.017,0.003-0.022,0.003
	c-0.005,0-0.014,0.003-0.019,0.003c-0.008,0-0.017,0.003-0.025,0.003c-0.005,0.003-0.008,0.003-0.014,0.003
	c-0.008,0-0.019,0.003-0.028,0.003c-0.003,0-0.006,0-0.006,0.003c-0.003,0-0.005,0-0.008,0s-0.005,0-0.008,0
	c-0.005,0.003-0.011,0.003-0.016,0.003c-0.008,0.003-0.017,0.003-0.025,0.003c-0.008,0.003-0.017,0.003-0.025,0.006
	c-0.003,0-0.005,0-0.008,0c-0.237,0.03-0.475,0.061-0.712,0.088c-1.488,0.182-2.978,0.323-4.471,0.436
	c-6.025,0.455-12.091,0.342-18.1-0.281c-0.723-0.077-1.446-0.16-2.167-0.251c-0.014-0.003-0.025-0.003-0.039-0.006
	c-0.005,0-0.011,0-0.017-0.003c-0.006,0-0.008,0-0.014,0c-0.003,0-0.008-0.003-0.014-0.003c-0.003,0-0.003,0-0.005,0
	c-0.006,0-0.014-0.003-0.022-0.003c-0.003,0-0.008,0-0.014-0.003c-0.008,0-0.014,0-0.022-0.003c-0.006,0-0.014,0-0.022-0.003
	c-0.017-0.003-0.033-0.005-0.05-0.005c-0.005-0.003-0.011-0.003-0.017-0.003c-0.008,0-0.017,0-0.025-0.003
	c-0.025-0.006-0.052-0.008-0.077-0.011c-0.022-0.003-0.044-0.005-0.064-0.008c-0.019-0.003-0.036-0.005-0.052-0.008
	c-0.419-0.058-0.839-0.119-1.256-0.182c-1.493-0.226-2.981-0.488-4.463-0.784c-2.948-0.582-5.865-1.308-8.746-2.164
	c-2.622-0.778-5.208-1.678-7.75-2.688c-0.276-0.11-0.549-0.221-0.822-0.334c-0.097-0.039-0.193-0.08-0.29-0.119
	c-0.017-0.008-0.036-0.017-0.052-0.022c-0.025-0.011-0.05-0.022-0.075-0.033c-0.649-0.276-1.294-0.563-1.938-0.856
	c-1.275-0.582-2.536-1.203-3.784-1.849c-2.36-1.228-4.656-2.581-6.878-4.049c-0.737-0.489-1.466-0.991-2.183-1.507
	c-8.142-6.461-16.314-12.991-24.531-19.554C546.908,689.857,509.53,660,469.836,631.716
	c-44.919-32.002-86.489-57.358-127.094-77.514c-7.681-3.814-15.337-7.449-22.977-10.913c0.974,1.612,1.954,3.221,2.939,4.827
	c19.822,32.275,42.448,62.825,68.37,90.48c0.798,0.851,1.599,1.7,2.402,2.547c-0.789-0.831-1.575-1.665-2.359-2.501
	C365.194,610.988,342.568,580.438,322.745,548.162z"/>
<path fill="#0285C0" d="M645.854,636.037c5.517,5.801,8.908,13.642,8.908,22.261c0,0.843,0.344,1.605,0.899,2.155
	c-0.529-0.547-0.855-1.29-0.855-2.109C654.806,649.702,651.397,641.842,645.854,636.037z"/>
<path fill="#B6D5EF" d="M50.522,488.36c-9.632,0.26-19.304,0.731-28.991,1.421c-4.195,0.431-6.497,1.394-7.466,3.127
	c-0.458,0.817-0.593,1.777-0.469,2.898c0.513,0.949,1.162,2.012,1.667,3.135c1.675,3.218,3.243,6.478,4.515,9.748
	c0.108,0.265,0.215,0.527,0.326,0.789v0.003c0.006,0.014,0.011,0.028,0.017,0.044c89.812,219.426,252.758,370.606,453.19,428.209
	c0.271,0.077,0.544,0.157,0.817,0.235c0.006,0.003,0.011,0.003,0.017,0.006c8.02,2.294,16.102,4.438,24.244,6.431
	c-2.31,3.025-5.465,6.87-8.401,10.405c-13.758,16.571-30.879,37.191-24.106,54.479c5.073,12.95,7.794,13.137,10.424,13.32
	c2.274,0.157,4.424,0.306,8.553,11.01c4.289,11.123,6.74,16.195,9.039,18.715c2.484,2.719,4.858,2.528,8.454,2.238
	c0.348-0.028,0.709-0.058,1.087-0.085c1.385-0.102,2.906-0.353,4.513-0.624c3.693-0.615,7.8-1.3,12.13-0.599
	c5.1,0.828,10.51,3.58,15.914,10.64c0.017,0.019,0.036,0.041,0.055,0.058c4.7,4.104,10.805,7.353,16.75,8.912
	c2.382,0.624,4.598,0.933,6.571,0.933c3.13,0,5.655-0.773,7.281-2.291c2.219-2.07,2.749-5.321,1.576-9.663
	c-1.3-4.811-4.697-10.858-10.096-17.976c-13.949-18.387-13.389-34.144-12.85-49.379c0.489-13.803,0.85-27.589-8.901-41.971
	c0.941,0.174,1.88,0.34,2.818,0.511c0-0.003,0-0.003,0-0.003c1.325,0.237,2.652,0.472,3.98,0.701c0.006,0,0.008,0,0.011,0.003
	c3.983,0.684,7.979,1.336,11.984,1.951c4.557,0.701,9.124,1.358,13.709,1.968c0.293,0.039,0.585,0.077,0.88,0.116
	c29.518,3.88,59.659,5.859,90.328,5.862c0.019,0,0.066,0,0.086,0c46.746,0.003,94.132-4.885,141.106-14.603
	c0.149-5.945,0.458-11.945,0.872-17.932c-46.77,8.854-94.201,14.614-141.849,13.968c-57.231-0.776-115.541-8.951-169.506-28.585
	c-101.619-36.973-191.948-102.304-267.052-179.359c-3.598-3.691-7.164-7.411-10.699-11.162
	c-34.17-36.25-65.366-75.293-92.667-116.977C94.892,570.076,72.174,529.501,50.522,488.36z"/>
<path fill="#193B67" d="M543.19,953.74c-0.003-0.003-0.005-0.003-0.011-0.003c-1.325-0.226-2.652-0.461-3.98-0.698
	c-0.938-0.171-1.877-0.337-2.818-0.511c9.751,14.382,9.389,28.168,8.901,41.971c-0.538,15.235-1.098,30.992,12.85,49.379
	c5.398,7.118,8.796,13.165,10.096,17.976c1.173,4.341,0.643,7.593-1.576,9.663c-1.626,1.518-4.151,2.291-7.281,2.291
	c-1.973,0-4.19-0.309-6.571-0.933c-5.945-1.559-12.05-4.808-16.75-8.912c-0.019-0.017-0.039-0.039-0.055-0.058
	c-5.404-7.06-10.814-9.812-15.914-10.64c-4.33-0.701-8.437-0.017-12.13,0.599c-1.606,0.27-3.127,0.522-4.513,0.624
	c-0.378,0.028-0.74,0.058-1.087,0.085c-3.596,0.29-5.97,0.48-8.454-2.238c-2.299-2.52-4.75-7.593-9.039-18.715
	c-4.129-10.703-6.279-10.852-8.553-11.01c-2.63-0.182-5.352-0.37-10.424-13.32c-6.773-17.288,10.347-37.908,24.106-54.479
	c2.937-3.536,6.091-7.38,8.401-10.405c-8.142-1.993-16.223-4.137-24.244-6.431c-0.006-0.003-0.011-0.003-0.017-0.006
	c-0.331,0.508-0.773,1.19-0.902,1.383c-20.841,31.223-46.782,70.081-32.087,98.456c10.905,21.056,15.326,20.898,19.601,20.749
	c4.377-0.155,8.515-0.301,18.017,18.293c18.199,35.612,21.078,35.074,33.183,32.813c0.604-0.113,1.234-0.232,1.888-0.348
	c2.354-0.425,4.938-1.137,7.673-1.893c13.356-3.693,31.643-8.749,51.948,12.693c6.809,4.789,14.609,8.346,22.174,10.499
	c13.347,3.792,25.966,3.204,31.133-2.743c6.974-8.021-0.102-24.075-19.921-45.208c-28.016-29.874-29.94-57.714-31.8-84.637
	c-0.933-13.502-2.078-27.371-6.149-40.367c-4.584-0.61-9.152-1.267-13.709-1.968C551.172,955.079,547.181,954.43,543.19,953.74z"/>
<path fill="#193B67" d="M1257.421,404.231c-16.422,8.986-36.012,15.735-58.23,20.059c-19.858,3.864-41.946,5.824-65.651,5.824
	c-24.671,0.003-50.623-2.078-77.13-6.185c-22.83-3.538-45.222-8.479-64.757-14.294c-5.506-1.018-29.309-2.177-58.776-18.718
	c-4.529-2.542-9.066-5.035-13.608-7.482H130.396c-15.569,9.581-32.247,18.518-50.751,26.181c-0.017,0.006-0.03,0.011-0.047,0.014
	c-24.649,6.952-42.953,13.968-55.956,21.448c-11.509,6.618-18.627,13.491-21.762,21.009c-5.368,12.867,1.717,25.665,9.218,39.216
	c0.817,1.477,1.642,2.964,2.454,4.466c0-0.003,0-0.006,0-0.008c-0.124-1.121,0.011-2.081,0.469-2.898
	c0.969-1.733,3.271-2.697,7.466-3.127c9.693-0.69,19.372-1.162,29.01-1.421c0.008,0.016,0.016,0.031,0.025,0.047
	c21.653,41.141,44.371,81.716,69.861,120.628c27.301,41.684,58.497,80.726,92.667,116.977c3.521,3.735,7.073,7.441,10.656,11.116
	c75.104,77.056,165.433,142.387,267.052,179.359c53.966,19.634,112.276,27.81,169.506,28.585
	c47.648,0.646,95.078-5.114,141.849-13.968c0.104-1.502,0.213-3.002,0.327-4.502c-0.627,0.121-1.254,0.24-1.882,0.358
	c-56.695,10.678-113.896,16.182-171.579,12.55c-57.929-3.649-114.702-16.601-168.041-39.539
	c-49.936-21.475-96.657-50.036-139.983-82.752c-37.033-27.965-71.563-59.238-103.468-92.941
	c-5.915-6.247-11.739-12.578-17.473-18.986c-37.834-42.288-70.677-88.239-99.856-136.861c-15.751-26.25-30.481-53.094-44.745-80.18
	c19.171-0.367,38.159,0.127,56.762,1.477c4.673,0.339,9.348,0.737,14.018,1.187c0.006,0.015,0.013,0.029,0.019,0.044
	c0.008,0.001,0.016,0.002,0.025,0.002c14.868,34.483,31.822,68.053,52.936,99.196c16.213,23.917,34.785,46.229,54.676,67.298
	c14.506,15.362,29.713,30.064,45.219,44.247c37.182,34.011,76.705,65.453,117.823,94.559
	c41.681,29.504,85.051,56.908,131.311,78.701c40.511,19.085,83.693,30.089,127.985,36.076c21.961,2.97,44.113,4.64,66.275,4.673
	c22.701,0.033,45.493-1.96,68.127-3.549c4.408-0.309,8.813-0.64,13.215-0.996c0.142-1.468,0.287-2.934,0.434-4.391
	c-11.556,0.926-23.124,1.686-34.694,2.395c-22.243,1.361-44.32,2.685-66.609,1.731c-44.976-1.927-90.372-9.547-133.152-23.686
	c-22.618-7.474-44.19-17.89-65.251-28.941c-22.632-11.873-44.554-25.074-65.983-38.993c-42.934-27.881-83.914-58.564-123.067-91.529
	c-26.618-22.41-52.374-45.976-76.305-71.257c-10.883-11.494-21.388-23.343-31.427-35.6c-32.151-39.252-56.281-83.335-76.484-129.465
	c21.608,2.271,43.108,5.73,64.144,10.32c4.245,0.927,8.479,1.899,12.701,2.917c0.008,0.014,0.015,0.027,0.023,0.041
	c0.007,0.002,0.014,0.003,0.021,0.005c14.611,26.424,29.965,52.428,47.176,77.271c16.575,23.924,35.17,46.219,55.138,67.271
	c10.461,11.027,21.3,21.712,32.422,32.111c31.878,29.802,65.82,57.65,101.313,83.034c34.273,24.511,69.673,47.579,106.999,67.194
	c37.036,19.463,76.153,35.325,116.979,44.761c20.424,4.72,41.273,7.692,62.207,8.752c23.625,1.198,47.237,2.641,70.876,3.494
	c1.615,0.058,3.229,0.113,4.846,0.166c0.153-1.456,0.303-2.912,0.448-4.36c-7.441-0.234-14.874-0.535-22.299-0.873
	c-23.082-1.052-46.334-1.744-69.341-3.925c-21.172-2.006-42.109-6.155-62.602-11.788c-81.615-22.441-154.296-69.308-221.932-118.839
	c-18.064-13.229-35.355-27.71-52.387-42.23c-16.949-14.448-33.426-29.452-49.263-45.109c-5.005-4.948-9.916-9.967-14.733-15.06
	c-25.986-27.471-49.222-57.078-69.661-89.075c-10.723-16.786-20.744-33.997-30.418-51.407c33.305,8.382,65.985,19.659,98.873,34.13
	c0.007,0.012,0.014,0.024,0.022,0.036c0.007,0.003,0.015,0.006,0.022,0.01c7.491,12.638,15.296,25.091,23.603,37.232
	c16.343,23.886,34.625,46.419,54.529,67.418c5.571,5.876,11.269,11.632,17.088,17.264c13.295,12.867,27.216,25.077,41.562,36.757
	c7.052,5.741,14.225,11.33,21.481,16.811c7.606,5.746,15.701,10.805,23.62,16.107c31.593,21.152,62.905,42.821,96.364,60.973
	c33.387,18.114,67.868,33.741,103.499,46.897c36.572,13.505,73.713,25.637,112.306,31.726c0.295,0.047,0.591,0.094,0.886,0.141
	c0.126-1.461,0.243-2.888,0.35-4.278c-8.664-1.332-17.285-3.015-25.853-4.864c-19.013-4.099-37.513-10.14-55.956-16.262
	c-18.282-6.064-36.396-12.643-54.272-19.819c-35.421-14.222-69.86-31.34-102.588-50.985c-16.248-9.751-32.074-20.186-47.814-30.73
	c-7.907-5.296-15.792-10.626-23.697-15.928c-7.918-5.31-16.058-10.353-23.683-16.077c-28.776-21.605-56.014-45.353-80.791-71.466
	c-0.803-0.846-1.604-1.695-2.402-2.547c-25.922-27.655-48.548-58.205-68.37-90.48c-0.985-1.606-1.965-3.215-2.939-4.827
	c7.64,3.464,15.296,7.099,22.977,10.913c40.605,20.156,82.175,45.512,127.094,77.514c39.694,28.284,77.072,58.142,113.217,87.019
	c8.216,6.563,16.389,13.093,24.531,19.554c0.718,0.516,1.446,1.018,2.183,1.507c2.222,1.468,4.518,2.821,6.878,4.049
	c1.247,0.646,2.509,1.267,3.784,1.849c0.643,0.292,1.289,0.58,1.938,0.856c0.025,0.011,0.05,0.022,0.075,0.033
	c0.017,0.006,0.036,0.014,0.052,0.022c0.097,0.039,0.193,0.08,0.29,0.119c0.273,0.113,0.547,0.224,0.822,0.334
	c2.542,1.01,5.128,1.91,7.75,2.688c2.881,0.856,5.799,1.581,8.746,2.164c1.482,0.295,2.97,0.557,4.463,0.784
	c0.417,0.064,0.836,0.124,1.256,0.182c0.017,0.003,0.033,0.005,0.052,0.008s0.041,0.005,0.064,0.008
	c0.025,0.003,0.052,0.005,0.077,0.011c0.008,0.003,0.017,0.003,0.025,0.003c0.005,0,0.011,0,0.017,0.003
	c0.017,0,0.033,0.003,0.05,0.005c0.008,0.003,0.017,0.003,0.022,0.003c0.008,0.003,0.014,0.003,0.022,0.003
	c0.005,0.003,0.011,0.003,0.014,0.003c0.008,0,0.017,0.003,0.022,0.003c0.003,0,0.003,0,0.005,0c0.006,0,0.011,0.003,0.014,0.003
	c0.005,0,0.008,0,0.014,0c0.005,0.003,0.011,0.003,0.017,0.003c0.014,0.003,0.025,0.003,0.039,0.006
	c0.72,0.091,1.443,0.174,2.167,0.251c6.008,0.624,12.075,0.737,18.1,0.281c1.493-0.113,2.984-0.254,4.471-0.436
	c0.237-0.028,0.475-0.058,0.712-0.088c0.003,0,0.005,0,0.008,0c0.008-0.003,0.016-0.003,0.025-0.006c0.008,0,0.017,0,0.025-0.003
	c0.005,0,0.011,0,0.016-0.003c0.003,0,0.006,0,0.008,0c0.003,0,0.006,0,0.008,0c0-0.003,0.003-0.003,0.006-0.003
	c0.008,0,0.019-0.003,0.028-0.003c0.005,0,0.008,0,0.014-0.003c0.008,0,0.017-0.003,0.025-0.003c0.005,0,0.014-0.003,0.019-0.003
	c0.006,0,0.014,0,0.022-0.003c0.005,0,0.011,0,0.016-0.003c0.017,0,0.03-0.003,0.047-0.005c0.006,0,0.011,0,0.017-0.003
	c0.006,0,0.008,0,0.014-0.003c0.008,0,0.017,0,0.022-0.003c0.006,0,0.011,0,0.017-0.003c0.008,0,0.017,0,0.025-0.003
	c0.201-0.028,0.403-0.058,0.604-0.088c0.704-0.105,1.41-0.215,2.111-0.337c2.903-0.5,5.785-1.129,8.625-1.913
	c2.79-0.773,5.545-1.675,8.236-2.741c0.373-0.146,0.745-0.295,1.115-0.45c0.019-0.008,0.039-0.017,0.058-0.022
	c0.014-0.006,0.028-0.011,0.044-0.019c0.019-0.006,0.036-0.014,0.055-0.022c0.006,0,0.017-0.006,0.025-0.011
	c0.003,0,0.008-0.003,0.011-0.005c0.008-0.003,0.017-0.006,0.025-0.008c0.008-0.003,0.019-0.005,0.03-0.014
	c0.008-0.006,0.019-0.008,0.03-0.014c0.008,0,0.019-0.006,0.028-0.011c0.028-0.014,0.055-0.025,0.075-0.033
	c0.627-0.27,1.25-0.547,1.871-0.836c1.281-0.596,2.545-1.225,3.789-1.899c2.451-1.325,4.83-2.793,7.09-4.422
	c0.315-0.226,0.626-0.455,0.936-0.687c0.066-0.052,0.226-0.174,0.37-0.281c0.005-0.003,0.014-0.008,0.019-0.014
	c0.044-0.039,0.088-0.069,0.124-0.097c0,0,0.003,0,0.006-0.003c0.019-0.016,0.039-0.03,0.058-0.05
	c0.005-0.003,0.008-0.006,0.014-0.008c0.011-0.005,0.019-0.014,0.025-0.019c0.006-0.005,0.011-0.008,0.017-0.014v0.003
	c0.003-0.003,0.005-0.005,0.005-0.005c0.409-0.323,0.814-0.651,1.212-0.983c1.054-0.88,2.078-1.794,3.064-2.749
	c1.518-1.468,2.92-3.025,4.281-4.637c0.13-0.155,0.259-0.309,0.386-0.466c0.113-0.141,0.226-0.282,0.337-0.425
	c0.028-0.03,0.052-0.063,0.075-0.097c1.893-2.481,3.618-5.095,5.211-7.778c1.201-2.026,2.327-4.093,3.37-6.204
	c0.585-1.187,1.148-2.385,1.678-3.596c0.119-0.268,0.237-0.535,0.353-0.806c0.003-0.008,0.006-0.017,0.011-0.025
	c0.003-0.008,0.006-0.014,0.008-0.022c0.003-0.008,0.005-0.014,0.008-0.022c0.011-0.025,0.022-0.052,0.033-0.077
	c0.066-0.155,0.13-0.312,0.193-0.466c0.259-0.635,0.513-1.272,0.756-1.913c1.079-2.826,2.018-5.708,2.779-8.636
	c0.403-1.551,0.765-3.116,1.071-4.689c0.163-0.842,0.315-1.684,0.447-2.531c0.063-0.395,0.124-0.789,0.182-1.184
	c0.003-0.014,0.006-0.025,0.006-0.039c0-0.005,0.003-0.008,0.003-0.014c0-0.005,0-0.008,0-0.014
	c0.003-0.005,0.003-0.011,0.003-0.017c0.003-0.011,0.003-0.022,0.006-0.036c0.003-0.017,0.005-0.033,0.005-0.047
	c0-0.003,0.003-0.008,0.003-0.011s0-0.008,0-0.014c0.003-0.011,0.003-0.019,0.005-0.028c0-0.003,0-0.006,0-0.008
	c0.003-0.014,0.003-0.025,0.005-0.036c0-0.008,0-0.014,0.003-0.022c0-0.011,0.003-0.022,0.003-0.033v-0.003
	c0.003-0.003,0.003-0.003,0.003-0.005c0-0.008,0-0.014,0-0.019c0.003,0,0.003-0.003,0.003-0.003c0-0.003,0-0.008,0-0.014
	c0.003-0.003,0.003-0.003,0.003-0.005c0.003-0.022,0.003-0.039,0.006-0.05c0-0.003,0-0.005,0-0.008s0-0.003,0-0.005
	c0.003-0.006,0.003-0.008,0.003-0.008c0.005-0.052,0.014-0.102,0.019-0.155c0.419-3.458,0.604-6.95,0.497-10.433
	c-0.052-1.827-0.174-3.654-0.381-5.47c-0.033-0.298-0.066-0.593-0.105-0.889c-0.005-0.039-0.017-0.113-0.025-0.193
	c0-0.014-0.003-0.028-0.005-0.041c-0.003-0.011-0.005-0.025-0.005-0.039s-0.003-0.025-0.006-0.039c0-0.008,0-0.017-0.003-0.022
	c0-0.005,0-0.011-0.003-0.014c0-0.014-0.003-0.028-0.006-0.039c0-0.008,0-0.017-0.003-0.025c0-0.006,0-0.011-0.003-0.014
	c-0.003-0.03-0.005-0.047-0.005-0.047c-0.047-0.32-0.094-0.64-0.146-0.96c-0.146-0.908-0.312-1.813-0.494-2.716
	c-0.326-1.62,0.444-3.271,2.122-3.734c1.053-0.289,2.292,0.068,3.058,0.862c0.355,0.352,0.616,0.793,0.719,1.307
	c0.091,0.453,0.179,0.905,0.262,1.361c2.462,13.706,0.778,27.812-4.25,40.762c-3.058,7.88-7.077,15.489-12.238,22.204
	c-5.26,6.848-11.909,12.475-19.48,16.643c-10.596,5.835-22.488,8.97-34.497,10.033c-12.202,1.076-24.705-0.042-36.506-3.326
	c-0.662-0.185-1.325-0.376-1.982-0.575c59.583,46.478,117.891,87.565,178.772,109.44c0.778-11.172,0.886-20.766-0.386-28.05
	c-0.041-0.226,0.11-0.442,0.337-0.48c0.221-0.039,0.439,0.11,0.477,0.337c1.294,7.411,1.179,17.148,0.381,28.48
	c-0.022,0.301-0.044,0.599-0.066,0.903c-0.028,0.384-0.058,0.77-0.086,1.156c-0.108,1.419-0.226,2.859-0.351,4.325
	c-0.351,4.06-0.762,8.288-1.209,12.657c-0.146,1.452-0.298,2.92-0.453,4.402c-0.193,1.852-0.392,3.726-0.591,5.622
	c-0.422,4.013-0.856,8.103-1.272,12.246c-0.149,1.474-0.298,2.953-0.442,4.438c-0.494,5.048-0.955,10.159-1.355,15.293
	c-0.116,1.518-0.229,3.036-0.334,4.557c-0.414,5.984-0.726,11.978-0.878,17.92c-0.008,0.367-0.019,0.734-0.025,1.099
	c-0.8,36.07,4.444,69.979,28.568,86.818c27.172,18.967,32.57,15.884,37.789,12.906c5.255-3,10.217-5.837,33.898,10.883
	c10.731,7.576,19.116,13.231,25.839,17.308c21.859,13.253,26.176,9.845,36.534,1.667c0.673-0.533,1.372-1.085,2.103-1.653
	c2.636-2.051,5.363-4.609,8.25-7.317c7.245-6.792,15.459-14.495,26.863-18.969c13.251-5.197,28.061-4.863,45.28,1.021
	c14.92,1.946,31.511,0.293,45.523-4.529c4.673-1.609,8.813-3.497,12.332-5.594c7.209-4.297,11.821-9.478,13.115-14.959
	c3.425-14.501-15.737-29.788-53.96-43.047c-53.847-18.682-74.238-51.749-93.955-83.726c-1.239-2.009-2.476-4.013-3.715-6.006
	c-0.21-0.339-0.419-0.676-0.632-1.016c-3.574-5.732-7.19-11.374-11.04-16.839c-0.177-0.248-0.353-0.497-0.53-0.745
	c-5.368-7.551-11.203-14.76-18.023-21.412c-12.158-11.857-27.44-21.936-48.766-29.013c-0.215-0.072-0.334-0.306-0.262-0.524
	c0.072-0.215,0.306-0.334,0.524-0.262c19.659,6.525,35.35,15.859,49.056,29.231c0.933,0.905,1.855,1.833,2.768,2.779
	c5.821,6.028,10.88,12.39,15.577,19.011c66.115-14.2,134.262-54.25,208.345-121.679c1.441-1.308,2.881-2.628,4.325-3.958
	c0.099-0.088,0.224-0.119,0.345-0.099c0.011,0,0.025,0.003,0.036,0.006c0.008,0,0.014,0,0.019,0.003
	c0.141-0.144,0.281-0.287,0.419-0.428c0.008-0.008,0.017-0.017,0.025-0.025c95.864-97.399,167.82-227.492,196.317-389.085
	c0.453-2.567,0.894-5.143,1.325-7.727c2.444-14.659,4.535-29.572,6.253-44.742c0.019-0.149,0.113-0.276,0.251-0.334
	c53.243-22.381,99.273-55.624,133.116-96.141c31.055-37.177,49.848-78.438,52.917-116.189c3.359-41.328-12.37-75.226-44.306-95.528
	c-3.307,26.75-27.412,41.941-57.866,61.133c-32.653,20.584-73.294,46.199-100.731,95.881c-0.085,0.152-0.254,0.237-0.428,0.21
	c-0.171-0.028-0.309-0.157-0.342-0.328c-5.669-28.453-31.414-53.982-56.314-78.67c-13.416-13.303-26.087-25.866-34.682-38.101
	c-9.616-13.689-12.704-24.958-9.701-35.43c-0.381-0.177-0.842-0.268-1.372-0.268c-3.74,0-11.567,4.67-20.62,15.1
	c-9.872,11.374-18.354,26.366-23.882,42.222c-15.724,45.09-21.969,136.718,112.847,243.75c0.11,0.088,0.168,0.226,0.154,0.367
	c-2.445,24.709-10.237,45.923-23.266,63.485c-1.912,2.577-3.935,5.076-6.072,7.495
	C1282.859,387.533,1271.224,396.676,1257.421,404.231z"/>
<path fill="#193B67" d="M657.842,661.379c-0.857,0-1.629-0.356-2.181-0.927c-0.555-0.55-0.899-1.313-0.899-2.155
	c0-8.619-3.391-16.46-8.908-22.261c-5.89-6.169-14.191-10.018-23.373-10.018c-17.824,0-32.325,14.501-32.325,32.325
	c0,1.675-1.361,3.036-3.036,3.036c-0.857,0-1.629-0.356-2.181-0.927c-0.555-0.55-0.899-1.313-0.899-2.155
	c0-21.175,17.225-38.397,38.397-38.397c10.932,0,20.811,4.592,27.81,11.948c6.583,6.895,10.63,16.231,10.63,26.495
	C660.878,660.018,659.517,661.379,657.842,661.379z"/>
<path fill="#B6D5EF" d="M312.84,540.225c-0.007-0.003-0.015-0.006-0.022-0.01c-32.88-14.466-65.554-25.74-98.851-34.12
	c9.674,17.41,19.695,34.621,30.418,51.407c20.427,31.979,43.649,61.571,69.617,89.029c4.817,5.093,9.728,10.112,14.733,15.06
	c15.837,15.657,32.314,30.661,49.263,45.109c17.032,14.52,34.323,29.002,52.387,42.23c67.636,49.531,140.317,96.398,221.932,118.839
	c20.493,5.633,41.43,9.781,62.602,11.788c23.007,2.18,46.26,2.873,69.341,3.925c7.425,0.339,14.858,0.639,22.299,0.873
	c0.016,0,0.032,0.001,0.048,0.002c0.444-4.383,0.861-8.694,1.214-12.759c-0.295-0.047-0.591-0.094-0.886-0.141
	c-38.593-6.089-75.734-18.221-112.306-31.726c-35.631-13.157-70.112-28.784-103.499-46.897
	c-33.459-18.152-64.771-39.821-96.364-60.973c-7.918-5.302-16.013-10.361-23.62-16.107c-7.256-5.481-14.429-11.07-21.481-16.811
	c-14.346-11.68-28.268-23.89-41.562-36.757c-5.833-5.647-11.546-11.418-17.131-17.31c-19.904-20.999-38.186-43.532-54.529-67.418
	C328.136,565.316,320.33,552.863,312.84,540.225z"/>
<path fill="#B6D5EF" d="M208.154,504.663c-0.007-0.002-0.014-0.003-0.021-0.005c-4.216-1.017-8.443-1.987-12.681-2.912
	c-21.036-4.59-42.537-8.048-64.144-10.32c20.203,46.13,44.333,90.212,76.484,129.465c10.025,12.24,20.516,24.074,31.383,35.554
	c23.931,25.281,49.687,48.847,76.305,71.257c39.153,32.965,80.133,63.648,123.067,91.529c21.428,13.919,43.351,27.12,65.983,38.993
	c21.061,11.051,42.633,21.467,65.251,28.941c42.78,14.139,88.176,21.76,133.152,23.686c22.29,0.955,44.367-0.37,66.609-1.731
	c11.57-0.708,23.138-1.469,34.694-2.395c0.016-0.001,0.032-0.003,0.048-0.004c0.422-4.195,0.858-8.335,1.289-12.401
	c0.196-1.846,0.389-3.704,0.58-5.559c-1.617-0.052-3.232-0.108-4.847-0.166c-23.639-0.853-47.251-2.296-70.876-3.494
	c-20.934-1.06-41.783-4.032-62.207-8.752c-40.825-9.436-79.943-25.298-116.979-44.761c-37.326-19.615-72.725-42.683-106.999-67.194
	c-35.493-25.384-69.435-53.232-101.313-83.034c-11.138-10.414-21.991-21.114-32.466-32.157
	c-19.969-21.052-38.563-43.347-55.138-67.271C238.119,557.091,222.765,531.087,208.154,504.663z"/>
<path fill="#B6D5EF" d="M126.236,490.912c-0.008-0.001-0.016-0.002-0.025-0.002c-4.662-0.449-9.329-0.846-13.993-1.184
	c-18.602-1.35-37.591-1.844-56.762-1.477c14.264,27.086,28.993,53.93,44.745,80.18c29.178,48.622,62.022,94.573,99.856,136.861
	c5.72,6.393,11.53,12.708,17.43,18.94c31.905,33.703,66.436,64.976,103.468,92.941c43.326,32.717,90.047,61.277,139.983,82.752
	c53.339,22.938,110.112,35.891,168.041,39.539c57.683,3.632,114.884-1.871,171.579-12.55c0.627-0.118,1.255-0.237,1.882-0.358
	c0.016-0.003,0.032-0.006,0.047-0.009c0.4-5.164,0.864-10.306,1.361-15.384c-4.402,0.356-8.807,0.687-13.215,0.996
	c-22.635,1.59-45.426,3.582-68.127,3.549c-22.163-0.033-44.314-1.703-66.275-4.673c-44.292-5.986-87.475-16.99-127.985-36.076
	c-46.26-21.793-89.63-49.196-131.311-78.701c-41.118-29.107-80.641-60.548-117.823-94.559
	c-15.521-14.197-30.743-28.914-45.262-44.293c-19.891-21.069-38.463-43.381-54.676-67.298
	C158.058,558.965,141.103,525.395,126.236,490.912z"/>
<path fill="#B6D5EF" d="M668.015,759.471c12.009-1.063,23.901-4.198,34.497-10.033c7.571-4.167,14.219-9.795,19.48-16.643
	c5.161-6.715,9.18-14.324,12.238-22.204c5.029-12.95,6.712-27.056,4.25-40.762c-0.083-0.455-0.171-0.908-0.262-1.361
	c-0.104-0.513-0.365-0.955-0.719-1.307c-0.769-0.762-1.982-1.099-3.015-0.816c-1.678,0.464-2.448,2.114-2.122,3.734
	c0.182,0.903,0.348,1.808,0.494,2.716c0.052,0.32,0.099,0.64,0.146,0.96c0,0,0.003,0.017,0.005,0.047
	c0.003,0.003,0.003,0.008,0.003,0.014c0.003,0.008,0.003,0.017,0.003,0.025c0.003,0.011,0.005,0.025,0.005,0.039
	c0.003,0.003,0.003,0.008,0.003,0.014c0.003,0.006,0.003,0.014,0.003,0.022c0.003,0.014,0.005,0.025,0.005,0.039
	s0.003,0.028,0.005,0.039c0.003,0.014,0.005,0.028,0.005,0.041c0.008,0.08,0.019,0.155,0.025,0.193
	c0.039,0.295,0.072,0.591,0.105,0.889c0.207,1.816,0.328,3.643,0.381,5.47c0.108,3.483-0.077,6.974-0.497,10.433
	c-0.006,0.052-0.014,0.102-0.019,0.155c0,0,0,0.003-0.003,0.008c0,0.003,0,0.003,0,0.005c0,0.003,0,0.006,0,0.008
	c-0.003,0.011-0.003,0.028-0.005,0.05c0,0.003,0,0.003-0.003,0.006c0,0.005,0,0.011,0,0.014c0,0,0,0.003-0.003,0.003
	c0,0.006,0,0.011,0,0.019c0,0.003,0,0.003-0.003,0.006v0.003c0,0.011-0.003,0.022-0.003,0.033c-0.003,0.008-0.003,0.014-0.003,0.022
	c-0.003,0.011-0.003,0.022-0.006,0.036c0,0.003,0,0.006,0,0.008c-0.003,0.008-0.003,0.017-0.005,0.028c0,0.005,0,0.011,0,0.014
	s-0.003,0.008-0.003,0.011c0,0.014-0.003,0.03-0.005,0.047c-0.003,0.014-0.003,0.025-0.006,0.036c0,0.005,0,0.011-0.003,0.017
	c0,0.005,0,0.008,0,0.014s-0.003,0.008-0.003,0.014c0,0.014-0.003,0.025-0.005,0.039c-0.058,0.395-0.119,0.789-0.182,1.184
	c-0.132,0.847-0.284,1.689-0.447,2.531c-0.306,1.573-0.668,3.138-1.071,4.689c-0.762,2.928-1.7,5.81-2.779,8.636
	c-0.243,0.64-0.497,1.278-0.756,1.913c-0.064,0.155-0.127,0.312-0.193,0.466c-0.011,0.025-0.022,0.052-0.033,0.077
	c-0.003,0.008-0.006,0.014-0.008,0.022s-0.005,0.014-0.008,0.022c-0.006,0.008-0.008,0.017-0.011,0.025
	c-0.116,0.27-0.235,0.538-0.353,0.806c-0.53,1.212-1.093,2.409-1.678,3.596c-1.043,2.111-2.169,4.179-3.37,6.204
	c-1.593,2.683-3.318,5.296-5.211,7.778c-0.022,0.033-0.047,0.066-0.075,0.097c-0.11,0.144-0.224,0.284-0.337,0.425
	c-0.127,0.157-0.257,0.312-0.386,0.466c-1.361,1.612-2.763,3.168-4.281,4.637c-0.985,0.955-2.009,1.868-3.064,2.749
	c-0.397,0.331-0.803,0.66-1.212,0.982c0,0-0.003,0.003-0.006,0.006v-0.003c-0.005,0.005-0.011,0.008-0.017,0.014
	c-0.006,0.005-0.014,0.014-0.025,0.019c-0.006,0.003-0.008,0.006-0.014,0.008c-0.019,0.019-0.039,0.033-0.058,0.05
	c-0.003,0.003-0.006,0.003-0.006,0.003c-0.036,0.028-0.08,0.058-0.124,0.097c-0.005,0.005-0.014,0.011-0.019,0.014
	c-0.143,0.108-0.304,0.229-0.37,0.281c-0.309,0.232-0.621,0.461-0.936,0.687c-2.26,1.628-4.639,3.097-7.09,4.421
	c-1.245,0.673-2.509,1.303-3.789,1.899c-0.621,0.29-1.245,0.566-1.871,0.836c-0.019,0.008-0.047,0.019-0.075,0.033
	c-0.008,0.005-0.019,0.011-0.028,0.011c-0.011,0.006-0.022,0.008-0.03,0.014c-0.011,0.008-0.022,0.011-0.03,0.014
	s-0.017,0.006-0.025,0.008c-0.003,0.003-0.008,0.005-0.011,0.005c-0.008,0.006-0.019,0.011-0.025,0.011
	c-0.019,0.008-0.036,0.017-0.055,0.022c-0.017,0.008-0.03,0.014-0.044,0.019c-0.019,0.006-0.039,0.014-0.058,0.022
	c-0.37,0.155-0.742,0.304-1.115,0.45c-2.691,1.065-5.445,1.968-8.236,2.741c-2.84,0.784-5.721,1.413-8.625,1.913
	c-0.701,0.121-1.408,0.232-2.111,0.337c-0.202,0.03-0.403,0.061-0.604,0.088c-0.008,0.003-0.017,0.003-0.025,0.003
	c-0.005,0.003-0.011,0.003-0.017,0.003c-0.006,0.003-0.014,0.003-0.022,0.003c-0.005,0.003-0.008,0.003-0.014,0.003
	c-0.005,0.003-0.011,0.003-0.017,0.003c-0.017,0.003-0.03,0.006-0.047,0.006c-0.006,0.003-0.011,0.003-0.017,0.003
	c-0.008,0.003-0.017,0.003-0.022,0.003c-0.005,0-0.014,0.003-0.019,0.003c-0.008,0-0.017,0.003-0.025,0.003
	c-0.005,0.003-0.008,0.003-0.014,0.003c-0.008,0-0.019,0.003-0.028,0.003c-0.003,0-0.005,0-0.005,0.003c-0.003,0-0.006,0-0.008,0
	s-0.006,0-0.008,0c-0.005,0.003-0.011,0.003-0.017,0.003c-0.008,0.003-0.017,0.003-0.025,0.003
	c-0.008,0.003-0.017,0.003-0.025,0.005c-0.003,0-0.005,0-0.008,0c-0.237,0.03-0.475,0.061-0.712,0.088
	c-1.488,0.182-2.978,0.323-4.471,0.436c-6.025,0.455-12.091,0.342-18.1-0.282c-0.723-0.077-1.446-0.16-2.167-0.251
	c-0.014-0.003-0.025-0.003-0.039-0.005c-0.006,0-0.011,0-0.017-0.003c-0.005,0-0.008,0-0.014,0c-0.003,0-0.008-0.003-0.014-0.003
	c-0.003,0-0.003,0-0.006,0c-0.006,0-0.014-0.003-0.022-0.003c-0.003,0-0.008,0-0.014-0.003c-0.008,0-0.014,0-0.022-0.003
	c-0.005,0-0.014,0-0.022-0.003c-0.017-0.003-0.033-0.006-0.05-0.006c-0.006-0.003-0.011-0.003-0.017-0.003
	c-0.008,0-0.017,0-0.025-0.003c-0.025-0.006-0.052-0.008-0.077-0.011c-0.022-0.003-0.044-0.006-0.063-0.008
	c-0.019-0.003-0.036-0.006-0.052-0.008c-0.42-0.058-0.839-0.119-1.256-0.182c-1.493-0.226-2.981-0.488-4.463-0.784
	c-2.948-0.582-5.865-1.308-8.746-2.164c-2.622-0.778-5.208-1.678-7.75-2.688c-0.276-0.11-0.549-0.221-0.822-0.334
	c-0.097-0.039-0.193-0.08-0.29-0.119c-0.017-0.008-0.036-0.017-0.052-0.022c-0.025-0.011-0.05-0.022-0.074-0.033
	c-0.649-0.276-1.294-0.563-1.938-0.856c-1.275-0.582-2.536-1.203-3.784-1.849c-2.36-1.228-4.656-2.581-6.878-4.049
	c-0.737-0.489-1.466-0.991-2.183-1.507c-8.142-6.461-16.314-12.991-24.531-19.554c-36.145-28.878-73.523-58.735-113.217-87.019
	c-44.919-32.002-86.489-57.358-127.094-77.514c-7.681-3.814-15.337-7.449-22.977-10.913c0.974,1.612,1.954,3.221,2.939,4.827
	c19.822,32.275,42.448,62.825,68.37,90.48c0.784,0.836,1.57,1.669,2.359,2.501c24.777,26.113,52.015,49.862,80.791,71.466
	c7.626,5.724,15.765,10.767,23.683,16.077c7.905,5.302,15.79,10.631,23.697,15.928c15.74,10.543,31.566,20.979,47.814,30.73
	c32.728,19.645,67.167,36.763,102.588,50.985c17.876,7.176,35.99,13.756,54.272,19.819c18.442,6.122,36.942,12.163,55.956,16.262
	c8.568,1.849,17.189,3.532,25.853,4.864c0.016,0.002,0.031,0.005,0.047,0.007c0.061-0.753,0.116-1.496,0.168-2.225
	c-60.904-21.884-119.233-62.994-178.841-109.494c0.008,0.003,0.017,0.005,0.025,0.007c0.657,0.199,1.319,0.39,1.982,0.575
	C643.311,759.43,655.813,760.548,668.015,759.471z"/>
<path fill="#B6D5EF" d="M1163.573,754.294c-74.083,67.429-142.23,107.479-208.345,121.679c3.798,5.398,7.893,11.713,11.448,17.418
	c69.118-32.932,144.396-87.469,201.602-143.149c-0.011-0.003-0.025-0.006-0.036-0.006
	C1166.725,751.586,1165.166,752.938,1163.573,754.294z"/>
<path fill="#FFFFFF" d="M622.481,619.947c-21.172,0-38.397,17.222-38.397,38.397c0,0.82,0.327,1.563,0.855,2.109
	c0.552,0.57,1.324,0.927,2.181,0.927c1.675,0,3.036-1.361,3.036-3.036c0-17.824,14.501-32.325,32.325-32.325
	c9.183,0,17.483,3.849,23.373,10.018c5.543,5.805,8.951,13.665,8.951,22.307c0,0.82,0.327,1.563,0.855,2.109
	c0.552,0.57,1.324,0.927,2.181,0.927c1.675,0,3.036-1.361,3.036-3.036c0-10.264-4.048-19.6-10.63-26.495
	C643.251,624.519,633.39,619.947,622.481,619.947z"/>
</svg>
