<svg version="1.1" xmlns="http://www.w3.org/2000/svg" xmlns:xlink="http://www.w3.org/1999/xlink" x="0px" y="0px"
	 width="167.173px" height="98.053px" viewBox="0 0 167.173 98.053" enable-background="new 0 0 167.173 98.053"
	 xml:space="preserve">
<g id="MongoDB">
	<path fill="#005CE2" stroke="#000000" stroke-width="0.5" stroke-miterlimit="10" d="M119.994,57.22
		c-0.558-0.406-4.249-0.576-3.725-0.174c0.628,0.481,1.539,0.922,2.789,1.371c-0.46,0.044-0.63,0.148-0.164,0.313
		c2.436,0.865-0.635,1.839-1.066,2.537c-0.726,1.175-2.788,2.08-4.876,3.184c-3.027,1.6-3.395,4.036-0.273,6.553
		c-0.48-0.044-1.616-0.194-2.097-0.244c-1.557-0.159-2.202-0.184-3.572-0.241c-9.209-3.547-13.371-7.037-20.209-9.882
		c-2.285-0.951-9.493-3.367-15.837-3.37c-7.388-0.004-4.024,2.054-1.772,3.221c2.629,1.362,6.288,2.751,8.859,4.263
		c2.784,1.637,6.487,3.786,9.766,5.644c-0.765-0.036-5.955-0.023-6.159,0.002c-3.136-1.606-6.571-3.496-9.587-4.937
		c-3.495-1.669-5.261-3.255-8.08-4.753c-1.963-1.043-10.332-4.178-17.526-3.624c-6.953,0.536-3.476,2.674-0.42,4.146
		c6.206,2.987,9.945,6.207,14.478,9.92c-3.143,0.08-6.017,0.293-8.927,0.498c-2.066-0.992-4.69-1.954-6.654-2.867
		c-2.907-1.352-6.884-2.32-11.43-3.315C22.991,63.159,8.68,61.259,6.099,58.464c-0.146-0.158-0.673-0.259-1.271-0.304
		c-0.091-0.323-0.242-0.65-0.481-0.992c-0.295-0.423-3.611-0.422-3.342,0.001c1.009,1.589-0.34,3.058-0.674,4.799
		c-0.303,1.58,2.555,3.008,5.802,4.658c3.292,1.673,8.482,3.179,13.678,4.832c5.043,1.604,10.014,3.298,17.122,4.577
		c-0.746,0.751-0.29,1.854-0.068,2.398c1.089,2.664,8.005,5.873,13.026,8.875c4.79,2.863,8.789,4.902,18.893,6.895
		c4.93,0.972,10.095,1.615,15.289,2.119c2.399,0.233,18.964,0.32,20.668,0.246c1.002-0.044,1.847-0.132,2.624-0.268
		c1.485,0.238,2.982,0.441,4.482,0.607c14.968,1.891,29.389,1.627,30.393-2.177c0.018-0.069-0.001-0.139,0.009-0.208
		c1.998,0.168,17.888-0.868,19.859-1.281c4.129-0.865,5.238-2.16,4.685-3.883c-1.394-4.34-17.622-9.533-25.539-13.329
		c-0.902-0.433,6.444-5.827,3.054-9.08c-1.73-1.659-5.819-3.379-9.512-4.962C130.692,60.227,122.171,58.806,119.994,57.22z"/>
</g>
<g id="Express_shadow" opacity="0.5">
	<path opacity="0.5" d="M141.166,76.218c-0.11-0.053-0.185-0.146-0.21-0.263c-0.072-0.34,0.27-0.761,1.119-1.767
		c1.586-1.878,4.242-5.021,2.081-7.095c-1.637-1.571-5.574-3.258-9.048-4.746l-0.39-0.167c-1.83-0.784-4.563-1.506-7.207-2.203
		c-3.295-0.869-6.408-1.69-7.644-2.591c-0.241-0.177-1.587-0.355-2.665-0.355c-0.175,0-0.315,0.005-0.429,0.012
		c0.576,0.372,1.363,0.734,2.39,1.103l1.054,0.378l-0.853,0.081c0.35,0.163,0.685,0.4,0.727,0.758
		c0.064,0.553-0.605,0.985-1.253,1.404c-0.318,0.206-0.68,0.439-0.776,0.596c-0.644,1.042-2.181,1.833-3.96,2.748
		c-0.332,0.172-0.671,0.346-1.011,0.525c-1.412,0.746-2.209,1.671-2.306,2.675c-0.105,1.087,0.611,2.285,2.072,3.463l0.644,0.519
		l-0.823-0.075c-0.266-0.024-0.73-0.081-1.176-0.135c-0.36-0.044-0.709-0.087-0.925-0.108c-1.515-0.156-2.166-0.183-3.464-0.236
		l-0.172-0.021c-5.197-2.002-8.735-3.954-12.157-5.843c-2.612-1.441-5.08-2.803-8.058-4.043c-2.238-0.931-9.43-3.347-15.741-3.351
		c-3.8,0-4.229,0.555-4.271,0.725c-0.043,0.179,0.124,0.734,2.613,2.024c1.088,0.563,2.333,1.123,3.652,1.715
		c1.821,0.818,3.705,1.664,5.219,2.554c3.21,1.889,6.859,3.998,9.762,5.643l0.912,0.517l-1.047-0.049
		c-0.293-0.014-1.335-0.022-2.787-0.022c-1.643,0-3.199,0.011-3.332,0.022l-0.072,0.007l-0.07-0.032
		c-1.117-0.572-2.272-1.181-3.433-1.792c-2.069-1.09-4.209-2.217-6.146-3.143c-2.021-0.965-3.467-1.901-4.864-2.807
		c-1.046-0.678-2.035-1.317-3.227-1.951c-1.839-0.978-8.965-3.66-15.659-3.66c-0.593,0-1.175,0.021-1.729,0.064
		c-3.303,0.255-3.766,0.848-3.812,1.09c-0.058,0.311,0.316,1.059,3.48,2.582c5.824,2.804,9.447,5.78,13.643,9.226l1.405,1.152
		l-0.672,0.018c-2.903,0.074-5.629,0.266-8.265,0.451l-0.718,0.051l-0.06-0.028c-1.103-0.53-2.377-1.055-3.608-1.563
		c-1.095-0.451-2.128-0.877-3.043-1.303c-3.02-1.404-7.276-2.399-11.378-3.298c-2.78-0.608-5.868-1.197-8.854-1.767
		c-2.685-0.512-5.323-1.015-7.742-1.529c0.975,0.306,1.959,0.614,2.947,0.928c5.043,1.604,10.014,3.298,17.122,4.577
		c-0.746,0.751-0.29,1.854-0.068,2.398c1.089,2.664,8.005,5.873,13.026,8.875c4.79,2.863,8.789,4.902,18.893,6.895
		c4.93,0.972,10.095,1.615,15.289,2.119c2.399,0.233,18.964,0.32,20.668,0.246c1.002-0.044,1.847-0.132,2.624-0.268
		c1.485,0.238,2.982,0.441,4.482,0.607c14.968,1.891,29.389,1.627,30.393-2.177c0.018-0.069-0.001-0.139,0.009-0.208
		c1.864,0.157,15.818-0.735,19.28-1.19c-3.411-1.859-8.043-3.755-12.355-5.519C146.199,78.433,143.37,77.275,141.166,76.218z"/>
</g>
<g id="Express">
	<path fill="#005CE2" stroke="#000000" stroke-width="0.5" stroke-miterlimit="10" d="M119.994,38.588
		c-0.558-0.406-4.249-0.576-3.725-0.174c0.628,0.481,1.539,0.922,2.789,1.371c-0.46,0.044-0.63,0.148-0.164,0.313
		c2.436,0.865-0.635,1.839-1.066,2.537c-0.726,1.175-2.788,2.08-4.876,3.184c-3.027,1.6-3.395,4.036-0.273,6.553
		c-0.48-0.044-1.616-0.194-2.097-0.244c-1.557-0.159-2.202-0.184-3.572-0.241c-9.209-3.547-13.371-7.037-20.209-9.882
		c-2.285-0.951-9.493-3.367-15.837-3.37c-7.388-0.004-4.024,2.054-1.772,3.221c2.629,1.362,6.288,2.751,8.859,4.263
		c2.784,1.637,6.487,3.786,9.766,5.644c-0.765-0.036-5.955-0.023-6.159,0.002c-3.136-1.606-6.571-3.496-9.587-4.937
		c-3.495-1.669-5.261-3.255-8.08-4.753c-1.963-1.043-10.332-4.178-17.526-3.624c-6.953,0.536-3.476,2.674-0.42,4.146
		c6.206,2.987,9.945,6.207,14.478,9.92c-3.143,0.08-6.017,0.293-8.927,0.498c-2.066-0.992-4.69-1.954-6.654-2.867
		c-2.907-1.352-6.884-2.32-11.43-3.315C22.991,44.527,8.68,42.628,6.099,39.833c-0.146-0.158-0.673-0.259-1.271-0.304
		c-0.091-0.323-0.242-0.65-0.481-0.992c-0.295-0.423-3.611-0.422-3.342,0.001c1.009,1.589-0.34,3.058-0.674,4.799
		c-0.303,1.58,2.555,3.008,5.802,4.658c3.292,1.673,8.482,3.179,13.678,4.832c5.043,1.604,10.014,3.298,17.122,4.577
		c-0.746,0.751-0.29,1.854-0.068,2.398c1.089,2.664,8.005,5.873,13.026,8.875c4.79,2.863,8.789,4.902,18.893,6.895
		c4.93,0.972,10.095,1.615,15.289,2.119c2.399,0.233,18.964,0.32,20.668,0.246c1.002-0.044,1.847-0.132,2.624-0.268
		c1.485,0.238,2.982,0.441,4.482,0.607c14.968,1.891,29.389,1.627,30.393-2.177c0.018-0.069-0.001-0.139,0.009-0.208
		c1.998,0.168,17.888-0.868,19.859-1.281c4.129-0.865,5.238-2.16,4.685-3.883c-1.394-4.34-17.622-9.533-25.539-13.329
		c-0.902-0.433,6.444-5.827,3.054-9.08c-1.73-1.659-5.819-3.379-9.512-4.962C130.692,41.595,122.171,40.174,119.994,38.588z"/>
</g>
<g id="Express_copy">
</g>
<g id="Angular2_shadow" opacity="0.5">
	<path opacity="0.5" d="M141.166,57.593c-0.11-0.053-0.185-0.146-0.21-0.263c-0.072-0.34,0.27-0.761,1.119-1.767
		c1.586-1.878,4.242-5.021,2.081-7.095c-1.637-1.571-5.574-3.258-9.048-4.746l-0.39-0.167c-1.83-0.784-4.563-1.506-7.207-2.203
		c-3.295-0.869-6.408-1.69-7.644-2.591c-0.241-0.177-1.587-0.355-2.665-0.355c-0.175,0-0.315,0.005-0.429,0.012
		c0.576,0.372,1.363,0.734,2.39,1.103l1.054,0.378l-0.853,0.081c0.35,0.163,0.685,0.4,0.727,0.758
		c0.064,0.553-0.605,0.985-1.253,1.404c-0.318,0.206-0.68,0.439-0.776,0.596c-0.644,1.042-2.181,1.833-3.96,2.748
		c-0.332,0.172-0.671,0.346-1.011,0.525c-1.412,0.746-2.209,1.671-2.306,2.675c-0.105,1.087,0.611,2.285,2.072,3.463l0.644,0.519
		l-0.823-0.075c-0.266-0.024-0.73-0.081-1.176-0.135c-0.36-0.044-0.709-0.087-0.925-0.108c-1.515-0.156-2.166-0.183-3.464-0.236
		l-0.172-0.021c-5.197-2.002-8.735-3.954-12.157-5.843c-2.612-1.441-5.08-2.803-8.058-4.043c-2.238-0.931-9.43-3.347-15.741-3.351
		c-3.8,0-4.229,0.555-4.271,0.725c-0.043,0.179,0.124,0.734,2.613,2.024c1.088,0.563,2.333,1.123,3.652,1.715
		c1.821,0.818,3.705,1.664,5.219,2.554c3.21,1.889,6.859,3.998,9.762,5.643l0.912,0.517l-1.047-0.049
		c-0.293-0.014-1.335-0.022-2.787-0.022c-1.643,0-3.199,0.011-3.332,0.022l-0.072,0.007l-0.07-0.032
		c-1.117-0.572-2.272-1.181-3.433-1.792c-2.069-1.09-4.209-2.217-6.146-3.143c-2.021-0.965-3.467-1.901-4.864-2.807
		c-1.046-0.678-2.035-1.317-3.227-1.951c-1.839-0.978-8.965-3.66-15.659-3.66c-0.593,0-1.175,0.021-1.729,0.064
		c-3.303,0.255-3.766,0.848-3.812,1.09c-0.058,0.311,0.316,1.059,3.48,2.582c5.824,2.804,9.447,5.78,13.643,9.226l1.405,1.152
		l-0.672,0.018c-2.903,0.074-5.629,0.266-8.265,0.451l-0.718,0.051l-0.06-0.028c-1.103-0.53-2.377-1.055-3.608-1.563
		c-1.095-0.451-2.128-0.877-3.043-1.303c-3.02-1.404-7.276-2.399-11.378-3.298c-2.78-0.608-5.868-1.197-8.854-1.767
		c-2.685-0.512-5.323-1.015-7.742-1.529c0.975,0.306,1.959,0.614,2.947,0.928c5.043,1.604,10.014,3.298,17.122,4.577
		c-0.746,0.751-0.29,1.854-0.068,2.398c1.089,2.664,8.005,5.873,13.026,8.875c4.79,2.863,8.789,4.902,18.893,6.895
		c4.93,0.972,10.095,1.615,15.289,2.119c2.399,0.233,18.964,0.32,20.668,0.246c1.002-0.044,1.847-0.132,2.624-0.268
		c1.485,0.238,2.982,0.441,4.482,0.607c14.968,1.891,29.389,1.627,30.393-2.177c0.018-0.069-0.001-0.139,0.009-0.208
		c1.864,0.157,15.818-0.735,19.28-1.19c-3.411-1.859-8.043-3.755-12.355-5.519C146.199,59.808,143.37,58.65,141.166,57.593z"/>
</g>
<g id="Angular2">
	<path fill="#005CE2" stroke="#000000" stroke-width="0.5" stroke-miterlimit="10" d="M119.994,19.932
		c-0.558-0.406-4.249-0.576-3.725-0.174c0.628,0.481,1.539,0.922,2.789,1.371c-0.46,0.044-0.63,0.148-0.164,0.313
		c2.436,0.865-0.635,1.839-1.066,2.537c-0.726,1.175-2.788,2.08-4.876,3.184c-3.027,1.6-3.395,4.036-0.273,6.553
		c-0.48-0.044-1.616-0.194-2.097-0.244c-1.557-0.159-2.202-0.184-3.572-0.241c-9.209-3.547-13.371-7.037-20.209-9.882
		c-2.285-0.951-9.493-3.367-15.837-3.37c-7.388-0.004-4.024,2.054-1.772,3.221c2.629,1.362,6.288,2.751,8.859,4.263
		c2.784,1.637,6.487,3.786,9.766,5.644c-0.765-0.036-5.955-0.023-6.159,0.002c-3.136-1.606-6.571-3.496-9.587-4.937
		c-3.495-1.669-5.261-3.255-8.08-4.753c-1.963-1.043-10.332-4.178-17.526-3.624c-6.953,0.536-3.476,2.674-0.42,4.146
		c6.206,2.987,9.945,6.207,14.478,9.92c-3.143,0.08-6.017,0.293-8.927,0.498c-2.066-0.992-4.69-1.954-6.654-2.867
		c-2.907-1.352-6.884-2.32-11.43-3.315C22.991,25.871,8.68,23.971,6.099,21.176c-0.146-0.158-0.673-0.259-1.271-0.304
		c-0.091-0.323-0.242-0.65-0.481-0.992c-0.295-0.423-3.611-0.422-3.342,0.001c1.009,1.589-0.34,3.058-0.674,4.799
		c-0.303,1.58,2.555,3.008,5.802,4.658c3.292,1.673,8.482,3.179,13.678,4.832c5.043,1.604,10.014,3.298,17.122,4.577
		c-0.746,0.751-0.29,1.854-0.068,2.398c1.089,2.664,8.005,5.873,13.026,8.875c4.79,2.863,8.789,4.902,18.893,6.895
		c4.93,0.972,10.095,1.615,15.289,2.119c2.399,0.233,18.964,0.32,20.668,0.246c1.002-0.044,1.847-0.132,2.624-0.268
		c1.485,0.238,2.982,0.441,4.482,0.607c14.968,1.891,29.389,1.627,30.393-2.177c0.018-0.069-0.001-0.139,0.009-0.208
		c1.998,0.168,17.888-0.868,19.859-1.281c4.129-0.865,5.238-2.16,4.685-3.883c-1.394-4.34-17.622-9.533-25.539-13.329
		c-0.902-0.433,6.444-5.827,3.054-9.08c-1.73-1.659-5.819-3.379-9.512-4.962C130.692,22.939,122.171,21.518,119.994,19.932z"/>
</g>
<g id="NodeJS_shadow" opacity="0.5">
	<path opacity="0.5" d="M141.166,38.885c-0.11-0.053-0.185-0.146-0.21-0.263c-0.072-0.34,0.27-0.761,1.119-1.767
		c1.586-1.878,4.242-5.021,2.081-7.095c-1.637-1.571-5.574-3.258-9.048-4.746l-0.39-0.167c-1.83-0.784-4.563-1.506-7.207-2.203
		c-3.295-0.869-6.408-1.69-7.644-2.591c-0.241-0.177-1.587-0.355-2.665-0.355c-0.175,0-0.315,0.005-0.429,0.012
		c0.576,0.372,1.363,0.734,2.39,1.103l1.054,0.378l-0.853,0.081c0.35,0.163,0.685,0.4,0.727,0.758
		c0.064,0.553-0.605,0.985-1.253,1.404c-0.318,0.206-0.68,0.439-0.776,0.596c-0.644,1.042-2.181,1.833-3.96,2.748
		c-0.332,0.172-0.671,0.346-1.011,0.525c-1.412,0.746-2.209,1.671-2.306,2.675c-0.105,1.087,0.611,2.285,2.072,3.463l0.644,0.519
		l-0.823-0.075c-0.266-0.024-0.73-0.081-1.176-0.135c-0.36-0.044-0.709-0.087-0.925-0.108c-1.515-0.156-2.166-0.183-3.464-0.236
		l-0.172-0.021c-5.197-2.002-8.735-3.954-12.157-5.843c-2.612-1.441-5.08-2.803-8.058-4.043c-2.238-0.931-9.43-3.347-15.741-3.351
		c-3.8,0-4.229,0.555-4.271,0.725c-0.043,0.179,0.124,0.734,2.613,2.024c1.088,0.563,2.333,1.123,3.652,1.715
		c1.821,0.818,3.705,1.664,5.219,2.554c3.21,1.889,6.859,3.998,9.762,5.643l0.912,0.517l-1.047-0.049
		c-0.293-0.014-1.335-0.022-2.787-0.022c-1.643,0-3.199,0.011-3.332,0.022l-0.072,0.007l-0.07-0.032
		c-1.117-0.572-2.272-1.181-3.433-1.792c-2.069-1.09-4.209-2.217-6.146-3.143c-2.021-0.965-3.467-1.901-4.864-2.807
		c-1.046-0.678-2.035-1.317-3.227-1.951c-1.839-0.978-8.965-3.66-15.659-3.66c-0.593,0-1.175,0.021-1.729,0.064
		c-3.303,0.255-3.766,0.848-3.812,1.09c-0.058,0.311,0.316,1.059,3.48,2.582c5.824,2.804,9.447,5.78,13.643,9.226l1.405,1.152
		l-0.672,0.018c-2.903,0.074-5.629,0.266-8.265,0.451l-0.718,0.051l-0.06-0.028c-1.103-0.53-2.377-1.055-3.608-1.563
		c-1.095-0.451-2.128-0.877-3.043-1.303c-3.02-1.404-7.276-2.399-11.378-3.298c-2.78-0.608-5.868-1.197-8.854-1.767
		c-2.685-0.512-5.323-1.015-7.742-1.529c0.975,0.306,1.959,0.614,2.947,0.928c5.043,1.604,10.014,3.298,17.122,4.577
		c-0.746,0.751-0.29,1.854-0.068,2.398c1.089,2.664,8.005,5.873,13.026,8.875c4.79,2.863,8.789,4.902,18.893,6.895
		c4.93,0.972,10.095,1.615,15.289,2.119c2.399,0.233,18.964,0.32,20.668,0.246c1.002-0.044,1.847-0.132,2.624-0.268
		c1.485,0.238,2.982,0.441,4.482,0.607c14.968,1.891,29.389,1.627,30.393-2.177c0.018-0.069-0.001-0.139,0.009-0.208
		c1.864,0.157,15.818-0.735,19.28-1.19c-3.411-1.859-8.043-3.755-12.355-5.519C146.199,41.1,143.37,39.941,141.166,38.885z"/>
</g>
<g id="NodeJS">
	<path fill="#005CE2" stroke="#000000" stroke-width="0.5" stroke-miterlimit="10" d="M119.994,0.733
		c-0.558-0.406-4.249-0.576-3.725-0.174c0.628,0.481,1.539,0.922,2.789,1.371c-0.46,0.044-0.63,0.148-0.164,0.313
		c2.436,0.865-0.635,1.839-1.066,2.537c-0.726,1.175-2.788,2.08-4.876,3.184c-3.027,1.6-3.395,4.036-0.273,6.553
		c-0.48-0.044-1.616-0.194-2.097-0.244c-1.557-0.159-2.202-0.184-3.572-0.241c-9.209-3.547-13.371-7.037-20.209-9.882
		c-2.285-0.951-9.493-3.367-15.837-3.37C63.577,0.776,66.94,2.833,69.192,4c2.629,1.362,6.288,2.751,8.859,4.263
		c2.784,1.637,6.487,3.786,9.766,5.644c-0.765-0.036-5.955-0.023-6.159,0.002c-3.136-1.606-6.571-3.496-9.587-4.937
		c-3.495-1.669-5.261-3.255-8.08-4.753C62.029,3.176,53.659,0.04,46.465,0.595c-6.953,0.536-3.476,2.674-0.42,4.146
		c6.206,2.987,9.945,6.207,14.478,9.92c-3.143,0.08-6.017,0.293-8.927,0.498c-2.066-0.992-4.69-1.954-6.654-2.867
		c-2.907-1.352-6.884-2.32-11.43-3.315C22.991,6.673,8.68,4.773,6.099,1.978C5.953,1.82,5.425,1.719,4.828,1.674
		c-0.091-0.323-0.242-0.65-0.481-0.992C4.051,0.26,0.736,0.261,1.005,0.683c1.009,1.589-0.34,3.058-0.674,4.799
		C0.027,7.062,2.886,8.49,6.133,10.14c3.292,1.673,8.482,3.179,13.678,4.832c5.043,1.604,10.014,3.298,17.122,4.577
		c-0.746,0.751-0.29,1.854-0.068,2.398c1.089,2.664,8.005,5.873,13.026,8.875c4.79,2.863,8.789,4.902,18.893,6.895
		c4.93,0.972,10.095,1.615,15.289,2.119c2.399,0.233,18.964,0.32,20.668,0.246c1.002-0.044,1.847-0.132,2.624-0.268
		c1.485,0.238,2.982,0.441,4.482,0.607c14.968,1.891,29.389,1.627,30.393-2.177c0.018-0.069-0.001-0.139,0.009-0.208
		c1.998,0.168,17.888-0.868,19.859-1.281c4.129-0.865,5.238-2.16,4.685-3.883c-1.394-4.34-17.622-9.533-25.539-13.329
		c-0.902-0.433,6.444-5.827,3.054-9.08c-1.73-1.659-5.819-3.379-9.512-4.962C130.692,3.741,122.171,2.319,119.994,0.733z"/>
</g>
</svg>
