
<svg version="1.1" xmlns="http://www.w3.org/2000/svg" xmlns:xlink="http://www.w3.org/1999/xlink" x="0px" y="0px"
	 width="98.283px" height="159.446px" viewBox="0 0 98.283 159.446" enable-background="new 0 0 98.283 159.446"
	 xml:space="preserve">
<g id="Color">
	<path fill="#C9C6B9" d="M27.332,96.367c-2.78,4.91-4.78,9.76-5.06,15.06c-0.02,0.31-0.03,0.62-0.02,0.94
		c-0.03,1.2,0.04,2.43,0.22,3.68c0.8-0.41,1.53-0.93,2.23-1.63c0.29-0.28,0.68-0.24,1.05-0.27c0.05,0,0.09,0.04,0.11,0.09
		c0.75,2.2-2.65,4.08-4.44,4.47c-2.67,0.59-5.41,1.11-8.08,0.73c-0.11,0.02-0.22,0-0.32-0.05c-0.74-0.11-1.48-0.3-2.2-0.58
		c0.61,0.86,1.01,1.88,1.11,3.09c0.05,0.65,0.03,1.27-0.05,1.86c1.74-1.38,3.36-2.14,5.93-1.99c2.19,0.13,4.74,0.22,6.64-1.12
		c1.98-1.4,2.91-3.45,4.54-5.14c0.4-0.4,1.01,0.02,0.9,0.53c-0.56,2.72-2.87,5.59-5.59,6.72c0.34,0.54,0.57,1.2,0.89,1.73
		c0.54,0.9,1.14,1.75,1.77,2.58c0.44,0.59,1.02,1.21,1.52,1.87c0,0.01,0.01,0.02,0.02,0.03c1.02,0.86,2.17,1.56,3.53,2.02
		c2.19,0.74,4.77,0.63,6.78,1.65h0.01c0.01-1.67,0.25-3.4,0.7-5.23c0.13-0.55,0.93-0.32,0.83,0.23c-0.75,4.25-0.96,8.84,1.63,12.52
		c0.72,1.01,3.33,3.22,3.74,4.56c0.35,1.15,0.16,1.81-0.42,2.88c-0.72,1.32-1.1,2.64-1.4,3.99c0.66,0.08,1.3,0.26,1.92,0.54
		c2.26-3.76,6.26-6.59,3.93-11.65c-1.79-3.9-0.17-7.12,1.19-10.62c-0.44-0.46-0.87-0.94-1.27-1.45c-1.26-1.59-2.29-3.35-3.28-5.05
		c-0.28-0.48-0.56-0.97-0.85-1.45c-0.99-1.66-2.26-3.53-4.1-4.87c-0.93-0.66-1.93-1.17-2.99-1.7c-0.75-0.38-1.53-0.78-2.27-1.23
		c-1.96-1.2-3.37-2.85-4.19-4.91c-1.03-2.59-1.19-5.41-1.21-7.57c-0.03-2.72,0.18-5.1,0.63-7.28c0.44-2.13,1.22-4.08,2.32-5.79
		c1.02-1.59,2.27-3.01,3.53-4.39c-1.53-0.43-3.04-0.96-4.51-1.55C32.582,88.027,29.942,91.787,27.332,96.367z"/>
	<path fill="#295BB2" d="M34.222,89.707c0.01-0.04,0.03-0.08,0.05-0.12c-0.03,0.04-0.05,0.08-0.07,0.12
		C34.212,89.697,34.222,89.707,34.222,89.707z"/>
	<path fill="#295BB2" d="M33.822,104.377c0.02-0.01,0.04-0.01,0.05,0c-0.02-0.03-0.04-0.06-0.06-0.1c0,0.02,0.01,0.03,0,0.05
		C33.822,104.347,33.822,104.357,33.822,104.377z"/>
	<path fill="#C9C6B9" d="M43.862,144.407c-0.75-0.78-1.48-1.49-2.09-2.4c-1.61-2.4-2.52-4.8-2.83-7.31
		c-0.21,0.18-0.48,0.3-0.78,0.32c-0.83,0.05-1.65,0.02-2.45-0.09c0.01,0.57,0.15,1.17,0.31,1.79c0.3,1.15,0.71,2.19,1.27,3.19
		l0.23,0.42c0.37,0.67,0.75,1.36,1.22,1.94c0.26,0.32,0.57,0.61,0.91,0.91c0.19,0.17,0.39,0.35,0.57,0.53l0.21,0.22
		c0.26,0.26,0.49,0.5,0.76,0.68c0.42-0.32,0.88-0.51,1.36-0.48c0.47,0.03,0.73,0.57,0.38,0.93c-1.08,1.11-1.95,2.22-2.86,3.49
		c-0.44,0.6-0.92,1.19-1.31,1.82c0.81,0.37,1.55,0.9,2.16,1.55c0.4-0.14,0.79-0.24,1.19-0.3c0.14-0.72,0.38-1.47,0.65-2.29
		C43.162,148.097,45.202,145.787,43.862,144.407z"/>
	<path fill="#295BB2" d="M36.892,157.387c0.08,0,0.15-0.02,0.22-0.04c0,0,0-0.01,0-0.02c-0.06,0.01-0.12,0.01-0.19,0.01
		C36.902,157.357,36.892,157.377,36.892,157.387z"/>
	<path fill="#C9C6B9" d="M12.972,114.817c0.26-0.71,0.87-2.02,1.75-2.08c-0.79-0.79-1.41-1.59-1.74-2.23
		c-0.1-0.19,0.12-0.46,0.32-0.32c1.35,0.95,2.41,2.23,3.86,3.05c0.82,0.47,1.69,0.92,2.64,1.07c0.04,0.01,0.07,0.01,0.11,0.01
		c-0.02-0.39-0.02-0.78-0.01-1.15c0.01-0.53,0-1.21,0.16-1.78c0-0.02,0-0.04,0.01-0.06c-2.1-1.76-4.78-4.04-7.28-3.1
		c-3.32,1.25-3.39,5.72-3.53,8.99c0.4,0.3,0.76,0.63,1.09,1c0.03-0.07,0.09-0.11,0.19-0.13c0.62-0.11,1.23-0.19,1.84-0.24
		C12.362,116.807,12.682,115.597,12.972,114.817z"/>
	<path fill="#295BB2" d="M33.692,90.677c0,0,0,0.01,0,0.02c0,0.03-0.01,0.07-0.02,0.11c0.03-0.09,0.06-0.18,0.09-0.27
		c-0.02,0.04-0.04,0.08-0.06,0.13C33.702,90.667,33.702,90.667,33.692,90.677z"/>
	<path fill="#49483E" d="M29.552,71.957c-1.98-2.68-6.46-5.39-9.94-4.3c-1.52,0.48-2.31,1.27-2.59,2.2
		c-0.25,1.14,0.21,2.27,1.08,3.7c0.32,0.52,0.67,1.07,1.06,1.58c0.91,0.94,1.97,1.69,2.93,2.07c0.05,0.02,0.09,0.05,0.12,0.09
		C25.232,77.917,33.112,76.787,29.552,71.957z"/>
	<path fill="#295BB2" d="M32.552,93.947c0-0.06,0.01-0.13,0.02-0.19c-0.03,0.13-0.06,0.25-0.09,0.37c0.01,0,0.02,0,0.02-0.01
		C32.512,94.057,32.532,94.007,32.552,93.947z"/>
	<path fill="#ECBDFF" d="M68.722,54.927c-1.57,1.32-2.85,2.73-4.06,4.33c2.1-0.68,4.16-1.85,5.5-2.74c2.87-1.9,5.4-4.1,7.94-6.35
		c-1.37,0.43-2.74,0.87-4.11,1.31C72.222,52.587,70.342,53.567,68.722,54.927z"/>
	<path fill="#C9C6B9" d="M90.772,41.577c-6.66,0.4-12.93,1.75-18.65,3.99c-7.02,2.76-12.62,7.26-17.17,11.3
		c-0.09,0.09-0.21,0.13-0.33,0.13c-0.14,0-0.27-0.06-0.37-0.17c-0.19-0.2-0.17-0.52,0.04-0.7c1.64-1.46,3.41-2.97,5.34-4.45
		c-0.01-0.01-0.02-0.03-0.03-0.05c-0.49-1.08-2.79-3.82-3.85-4.36c-0.32,1.49-0.54,2.92-0.72,4.21c-0.03,0.25-0.25,0.44-0.49,0.44
		c-0.02,0-0.05,0-0.07-0.01c-0.27-0.04-0.46-0.29-0.43-0.56c0.28-2.04,0.67-4.45,1.38-6.87c3.05-10.35,9.68-19.24,15.39-25.74
		c0,0,0.01,0,0-0.01c0.2-0.21,0.38-0.42,0.57-0.63c0.85-0.95,1.67-1.85,2.46-2.69c0.19-0.2,0.5-0.21,0.71-0.03
		c0.2,0.19,0.21,0.51,0.02,0.71c-0.84,0.9-1.73,1.87-2.65,2.9c0.99,3.41,1.33,6.87,1.42,9.98c0.99-4.36,1.96-8.83,2.59-13.27
		c0.04-0.26,0.09-0.58,0.16-0.94c0.32-1.9,0.99-5.86-0.3-6.95c-1.27-1.06-3.52,1.34-4.6,2.49l-0.32,0.34
		c-4.33,4.49-8.19,9.55-11.82,14.79c-0.43,0.61-0.85,1.22-1.26,1.84c-2.21,3.25-4.33,6.54-6.43,9.8c-1.66,2.58-3.37,5.24-5.07,7.79
		c-0.1,0.15-0.26,0.22-0.42,0.22c-0.09,0-0.19-0.02-0.28-0.08c-0.23-0.15-0.29-0.46-0.13-0.69c0.27-0.41,0.54-0.82,0.81-1.23
		c-0.23-0.13-0.5-0.3-0.79-0.49c-1.05-0.66-2.62-1.66-3.48-1.52c-0.03,0.12-0.06,0.24-0.09,0.36c-0.05,0.23-0.26,0.38-0.48,0.38
		c-0.04,0-0.08,0-0.12-0.01c-0.27-0.07-0.43-0.34-0.37-0.61c2.13-8.93,7.47-19.41,14.56-28.71c0.18-0.25,0.37-0.49,0.57-0.73
		c0.72-0.96,1.48-1.9,2.26-2.82c0.18-0.21,0.49-0.24,0.7-0.06c0.22,0.17,0.24,0.49,0.07,0.7c-0.81,0.96-1.64,2-2.47,3.1
		c1.15,3.34,1.67,6.74,1.92,9.83c0.76-4.41,1.49-8.92,1.89-13.4c0.02-0.25,0.06-0.57,0.1-0.94c0.22-1.92,0.69-5.91-0.67-6.92
		c-1.32-0.99-3.44,1.53-4.46,2.73l-0.29,0.35c-7.07,8.16-12.67,17.96-18.09,27.43c-1.52,2.66-3.09,5.41-4.65,8.05
		c-0.09,0.16-0.26,0.25-0.43,0.25c-0.09,0-0.18-0.03-0.26-0.07c-0.23-0.14-0.31-0.45-0.17-0.69c0.18-0.3,0.36-0.61,0.54-0.92
		c-1.41-0.27-3.84-0.55-5.73,0.11c0,1.64-0.02,3.27-0.04,4.86c-0.01,0.28-0.2,0.48-0.51,0.49c-0.27,0-0.5-0.23-0.49-0.5
		c0.01-0.94,0.02-1.88,0.03-2.83c0.02-2.29,0-4.61-0.14-6.93c-0.36-6.03-1.69-11.67-3.95-16.76c-2.4-5.41-5.78-10.36-9.1-15.15
		c-0.63,2.28-1,4.24-1.16,6.11c-0.93,10.81,1.66,22.8,7.34,34.2c0.7,1.41,1.45,2.81,2.25,4.2c0.13,0.24,0.05,0.54-0.19,0.68
		c-0.08,0.05-0.16,0.07-0.25,0.07c-0.17,0-0.34-0.09-0.43-0.25c-0.41-0.71-0.8-1.42-1.19-2.13c-0.05,0.06-0.12,0.11-0.2,0.14
		c-0.27,0.41-0.54,0.82-0.82,1.23c-2.87,4.3-5.84,8.75-7.29,13.65c-1.21,4.09-0.6,7.7,1.82,10.72c0.84,1.04,2.06,1.85,3.24,2.63
		c0.13,0.09,0.27,0.18,0.4,0.27c-0.05-0.1-0.08-0.2-0.11-0.3c-0.93-2.09-0.81-4.38,1.4-5.85c0.17-0.11,0.35-0.22,0.53-0.32
		c0,0,0.01-0.01,0.02-0.01c0.06-0.05,0.12-0.09,0.18-0.13c0.09-0.06,0.19-0.09,0.27-0.09c5.19-2.5,11.87,1.12,14.41,5.9
		c1.88,3.53-1.53,5.86-5.2,6.75c0.23,0.1,0.46,0.2,0.69,0.31c3.22,1.44,6.7,3,10.25,3.92c0.08-0.03,0.16-0.03,0.24-0.01
		c0.09,0,0.18,0.04,0.25,0.11c0.01,0.01,0.02,0.02,0.03,0.03c0.13,0.04,0.26,0.07,0.4,0.1c2.07,0.47,4.15,0.71,6.22,0.57
		c5.08-0.35,9.06-3.61,12.17-9.99c1.9-3.89,3.17-7.23,3.91-10.34c-1.6,0.07-3.15,0.08-4.6,0.09c0,0,0,0-0.01,0
		c-0.27,0-0.49-0.23-0.5-0.5c0-0.28,0.23-0.5,0.5-0.5c1.52-0.01,3.16-0.02,4.83-0.1c0.35-0.01,0.69-0.03,1.04-0.06
		c0.97-0.06,1.95-0.14,2.92-0.27c5.48-0.72,10.78-2.91,15.75-6.5c5.66-4.09,10.55-9.31,15.28-14.37l0.13-0.13
		C94.832,41.457,92.812,41.457,90.772,41.577z M20.252,41.737c-0.3,0.08-0.56-0.07-0.7-0.3c-0.11-0.18-0.14-0.4-0.05-0.59
		c-0.01-0.01-0.01-0.02-0.02-0.03c-3.64-7.43-2.88-15.31-3.53-23.33c-0.01-0.14-0.02-0.27-0.03-0.41c-0.08-0.87,1.05-0.94,1.46-0.39
		c5.25,6.91,6.25,15.33,6.66,23.77c0,0.01,0,0.02,0,0.03c0,0.43-0.39,0.74-0.79,0.76C22.252,41.407,21.252,41.567,20.252,41.737z
		 M32.072,61.997c-0.01,0-0.02,0-0.03,0c-0.26,0-0.48-0.2-0.5-0.46c-0.18-2.5-0.96-5.08-1.71-7.57c-0.41-1.34-0.82-2.72-1.15-4.09
		c-2.78,1.74-6.24,4.25-8.06,6.98c-0.15,0.23-0.47,0.29-0.69,0.14c-0.23-0.15-0.29-0.46-0.14-0.69c2.06-3.08,6.01-5.86,8.97-7.65
		c0.14-0.08,0.31-0.09,0.46-0.03c0.15,0.07,0.26,0.2,0.29,0.36c0.32,1.54,0.81,3.14,1.28,4.69c0.77,2.54,1.56,5.17,1.75,7.78
		C32.562,61.737,32.352,61.977,32.072,61.997z M51.832,65.727c-0.04,0.02-0.08,0.02-0.13,0.02c-0.22,0-0.42-0.15-0.48-0.38
		l-0.41-1.62c-0.68-2.71-1.32-5.29-2.31-7.81c-0.57,0.44-1.23,0.89-1.91,1.36c-1.76,1.21-3.76,2.58-4.43,4.07
		c-0.11,0.25-0.41,0.37-0.66,0.25c-0.25-0.11-0.36-0.41-0.25-0.66c0.79-1.75,2.91-3.2,4.77-4.49c0.89-0.6,1.72-1.18,2.36-1.73
		c0.12-0.11,0.28-0.14,0.44-0.11c0.16,0.04,0.28,0.14,0.35,0.29c1.17,2.8,1.9,5.75,2.61,8.59l0.41,1.62
		C52.262,65.387,52.102,65.667,51.832,65.727z M81.342,49.057c-5.7,6.08-11.46,10.66-19.31,12.46c-1.07,0.25-2.18,0.44-3.33,0.58
		c-0.4,0.05-0.8-0.32-0.89-0.69c-0.35-0.77-0.7-1.54-1.05-2.31c-0.01-0.02-0.02-0.04-0.03-0.06c-0.02-0.02-0.02-0.03-0.03-0.05
		c-0.01-0.04-0.03-0.09-0.04-0.13c-0.09-0.26-0.04-0.46,0.07-0.62c0-0.04,0.02-0.08,0.04-0.12c0.03-0.06,0.07-0.12,0.14-0.17
		c4.41-3.5,9.41-5.47,14.58-7.13c2.94-0.95,5.93-1.8,8.89-2.78c0.1-0.03,0.21-0.07,0.31-0.1
		C81.362,47.717,81.782,48.587,81.342,49.057z"/>
	<path fill="#ECBDFF" d="M18.552,21.347c0.54,5.71,0.36,12.95,3.91,17.03c0.04-1.95,0.22-3.9-0.01-5.85
		C21.942,28.147,20.572,24.747,18.552,21.347z"/>
	<path fill="#295BB2" d="M1.362,116.507c0-0.03,0.01-0.05,0.03-0.08c-0.02,0-0.03,0-0.05-0.01
		C1.352,116.447,1.352,116.477,1.362,116.507z"/>
	<path d="M80.692,47.937c-0.1,0.03-0.21,0.07-0.31,0.1c-2.96,0.98-5.95,1.83-8.89,2.78c-5.17,1.66-10.17,3.63-14.58,7.13
		c-0.07,0.05-0.11,0.11-0.14,0.17c-0.02,0.04-0.04,0.08-0.04,0.12c-0.11,0.16-0.16,0.36-0.07,0.62c0.01,0.04,0.03,0.09,0.04,0.13
		c0.01,0.02,0.01,0.03,0.03,0.05c0.01,0.02,0.02,0.04,0.03,0.06c0.35,0.77,0.7,1.54,1.05,2.31c0.09,0.37,0.49,0.74,0.89,0.69
		c1.15-0.14,2.26-0.33,3.33-0.58c7.85-1.8,13.61-6.38,19.31-12.46C81.782,48.587,81.362,47.717,80.692,47.937z M70.162,56.517
		c-1.34,0.89-3.4,2.06-5.5,2.74c1.21-1.6,2.49-3.01,4.06-4.33c1.62-1.36,3.5-2.34,5.27-3.45c1.37-0.44,2.74-0.88,4.11-1.31
		C75.562,52.417,73.032,54.617,70.162,56.517z"/>
	<path d="M97.792,40.507c-2.09-0.05-4.57-0.08-7.08,0.07c-6.76,0.41-13.14,1.78-18.96,4.06c-4.27,1.67-8.01,3.97-11.31,6.43
		c-0.63-1.22-3.08-4.26-4.47-4.79c0.12-0.5,0.26-1.01,0.41-1.52c2.92-9.92,9.22-18.51,14.76-24.88c1.28,4.83,1.31,9.59,1.17,13.66
		c-0.01,0.26,0.17,0.48,0.43,0.51c0.25,0.03,0.5-0.13,0.55-0.38l0.57-2.49c1.15-5,2.33-10.18,3.06-15.34
		c0.04-0.25,0.09-0.56,0.15-0.91c0.41-2.41,1.1-6.43-0.64-7.88c-1.99-1.67-4.68,1.19-5.97,2.57l-0.31,0.32
		c-3.89,4.04-7.4,8.53-10.7,13.19c0.79-4.57,1.57-9.27,1.98-13.94c0.02-0.25,0.06-0.56,0.1-0.91c0.28-2.43,0.75-6.48-1.06-7.84
		c-2.08-1.56-4.61,1.45-5.82,2.89l-0.29,0.34c-7.13,8.23-12.76,18.07-18.19,27.59c-1.17,2.04-2.37,4.15-3.58,6.21
		c-0.04-0.02-0.08-0.03-0.12-0.04c-1.71-0.34-4.12-0.6-6.15,0.01c-0.02-1.3-0.06-2.61-0.14-3.93c-0.37-6.15-1.73-11.91-4.04-17.1
		c-2.58-5.83-6.25-11.09-9.8-16.19c-0.11-0.15-0.3-0.23-0.49-0.2c-0.19,0.03-0.34,0.16-0.4,0.35c-0.82,2.78-1.29,5.11-1.48,7.31
		c-0.97,11.34,1.85,23.92,7.98,35.8c-0.06,0.03-0.12,0.08-0.16,0.15c-0.37,0.57-0.76,1.14-1.14,1.72
		c-2.91,4.36-5.92,8.88-7.41,13.92c-1.31,4.43-0.64,8.35,1.99,11.64c0.93,1.16,2.22,2.01,3.47,2.84c0.67,0.44,1.31,0.86,1.88,1.33
		c1.17,1.85,2.97,3.42,4.84,4.12c0.97,0.36,2.43,0.44,3.98,0.25c0.01,0,0.01,0.01,0.02,0.01c0.66,0.29,1.33,0.59,2.01,0.89
		c1.51,0.67,3.07,1.37,4.67,2.01c-0.42,7.21-6.71,12.67-9.29,19.22c-0.98,2.48-2.1,5.31-2.56,8.14c-2.44-1.88-5.5-3.5-8.37-2.39
		c-3.25,1.25-3.65,5.89-3.55,9.29c-2.25-1.32-5.15-1.89-7.46-2.08c-0.7-0.05-0.97,0.55-0.84,1.08v0.01c0,0.04,0,0.07,0.01,0.11
		c0.17,1.24,0.02,2.48,0.23,3.72c0.1,0.59,0.11,1.36,0.35,1.97c0.12,0.86,0.26,1.71,0.39,2.54c0.38,2.45,0.53,5.19,1.47,7.5
		c-0.16,0.46,0.38,1.08,0.97,0.81c0.93-0.42,1.86-0.89,2.75-1.41c0,0.16,0.01,0.32,0.02,0.48c0.1,1.65,0.68,3.77,1.74,5.05
		c0.14,0.17,0.45,0.25,0.65,0.17c0.05-0.01,0.09-0.03,0.13-0.05c0.03-0.01,0.07-0.03,0.09-0.05c0.19-0.01,0.38-0.09,0.52-0.22
		c1.68-1.57,3.34-2.73,5.43-3.63c1.56-0.67,3.15-1.36,4.25-2.7c1.85-2.25-0.26-5.49-2.58-6.56c0.43-0.02,0.88-0.01,1.36,0.04
		c1.5,0.15,2.95,0.13,4.41-0.11c0.01,0.03,0.02,0.07,0.03,0.1c0.23,0.58,0.5,1.12,0.79,1.64c2.09,4.82,6.54,8.71,11.67,9.75
		c0,0.05,0,0.09,0,0.14c0.01,0.69,0.17,1.36,0.34,2.05c0.32,1.23,0.77,2.35,1.37,3.43l0.23,0.41c0.38,0.71,0.79,1.44,1.31,2.09
		c0.31,0.38,0.67,0.71,1.02,1.02c0.18,0.16,0.36,0.33,0.54,0.5l0.2,0.21c0.23,0.22,0.46,0.46,0.73,0.68
		c-0.66,0.74-1.21,1.65-1.62,2.23c-0.44,0.61-1.14,1.42-1.71,2.3c-0.94-0.18-1.93-0.15-2.88,0.13c-1.32,0.38-2.29,1.51-2.89,2.84
		c0,0.01,0,0.01-0.01,0.02c-0.73,1.11-0.91,2.48-1.33,3.81c-0.12,0.4,0.08,0.88,0.44,1.08c0.72,0.39,1.48,0.42,2.26,0.32
		c0,0,0,0,0.01,0c0.8,0.1,1.71-0.09,2.49-0.19c0,0.19,0.03,0.39,0.1,0.57c0.14,0.39,0.48,0.55,0.8,0.51
		c1.2,0.34,2.75,0.61,4.15,0.49c0.67,0.04,1.35,0.03,2.02-0.02c1.94-0.13,4.72-0.12,6.64-0.96c0.17,0.05,0.35,0.02,0.47-0.15
		c0.04-0.05,0.07-0.09,0.1-0.14c0.03-0.01,0.06-0.03,0.09-0.05c0.56-0.35,0.6-0.99,0.33-1.43c-0.11-1.21-1.2-2.35-2.16-3.25
		c-0.16-0.15-0.33-0.3-0.51-0.43c1.1-1.66,2.21-3.27,3.73-4.76c0.85-0.84,2.08-2.34,1.95-3.65c-0.22-2.28-1.51-3.93-2.12-6.15
		c-0.71-2.58,0.02-5.24,1.21-7.52c2.16,1.98,4.64,3.57,7.06,5.12c0.59,0.38,1.18,0.76,1.76,1.14l1.32,0.87
		c0.08,0.06,0.18,0.08,0.27,0.08c0.09,0,0.17-0.02,0.25-0.06c0.16-0.09,0.26-0.27,0.25-0.46c-0.02-0.48-0.19-0.84-0.36-1.18
		l-0.26-0.52c-0.14-0.28-0.29-0.56-0.41-0.85c-0.19-0.44-0.42-0.85-0.64-1.25c-0.23-0.41-0.45-0.8-0.62-1.21
		c-0.18-0.42-0.37-0.84-0.56-1.25c-0.08-0.17-0.16-0.34-0.23-0.51c0.67,0.52,1.32,1.06,1.9,1.73c0.75,0.88,1.78,2.081,2.51,3.21
		c0.11,0.23,0.23,0.46,0.34,0.7c0.39,0.81,1.57,0.22,1.39-0.59c-1.03-4.56-3.24-8.56-6.08-12.14c-0.01-0.01-0.01-0.02-0.02-0.03
		c-1.92-3.12-4.52-6-7.1-8.52c-1.34-1.79-3.12-3.23-5.29-4.35c-2.99-1.53-5.24-4.05-7.7-6.28c-0.81-0.74-2.05-1.71-3.14-2.81
		c-2.06-2.89-3.05-6.14-2.21-9.94c0.56-2.55,2.31-4.85,3.81-7.06c0.06-0.09,0.12-0.18,0.18-0.27c0.1,0.02,0.2,0.05,0.3,0.07
		c1.75,0.4,3.53,0.65,5.31,0.65c0.42,0,0.84-0.02,1.26-0.04c5.39-0.37,9.77-3.92,13-10.55c1.99-4.07,3.3-7.56,4.05-10.83
		c1.09-0.06,2.18-0.16,3.27-0.3c5.64-0.74,11.09-2.99,16.2-6.68c5.75-4.15,10.67-9.41,15.43-14.49l0.9-0.96
		c0.13-0.14,0.17-0.35,0.09-0.53C98.162,40.637,97.992,40.517,97.792,40.507z M1.362,116.507c-0.01-0.03-0.01-0.06-0.02-0.09
		c0.02,0.01,0.03,0.01,0.05,0.01C1.372,116.457,1.362,116.477,1.362,116.507z M37.112,157.347c-0.07,0.02-0.14,0.04-0.22,0.04
		c0-0.01,0.01-0.03,0.03-0.05c0.07,0,0.13,0,0.19-0.01C37.112,157.337,37.112,157.347,37.112,157.347z M22.212,77.297
		c-0.03-0.04-0.07-0.07-0.12-0.09c-0.96-0.38-2.02-1.13-2.93-2.07c-0.39-0.51-0.74-1.06-1.06-1.58c-0.87-1.43-1.33-2.56-1.08-3.7
		c0.28-0.93,1.07-1.72,2.59-2.2c3.48-1.09,7.96,1.62,9.94,4.3C33.112,76.787,25.232,77.917,22.212,77.297z M20.292,116.497
		c0,0.06,0,0.12,0.01,0.19c0.01,0.07,0.02,0.14,0.05,0.2c-0.09,0.03-0.19,0.06-0.29,0.09c-2.02,0.56-3.99,0.63-5.97,0.74
		c0.01-0.65,0.02-1.3,0.17-1.98c0.11-0.53,0.22-1.08,0.43-1.58c0.15-0.35,0.38-0.61,0.51-0.96c1.44,1.31,3.29,2.49,4.9,2.59
		C20.142,116.037,20.212,116.277,20.292,116.497z M10.352,118.217c-0.33-0.37-0.69-0.7-1.09-1c0.14-3.27,0.21-7.74,3.53-8.99
		c2.5-0.94,5.18,1.34,7.28,3.1c-0.01,0.02-0.01,0.04-0.01,0.06c-0.16,0.57-0.15,1.25-0.16,1.78c-0.01,0.37-0.01,0.76,0.01,1.15
		c-0.04,0-0.07,0-0.11-0.01c-0.95-0.15-1.82-0.6-2.64-1.07c-1.45-0.82-2.51-2.1-3.86-3.05c-0.2-0.14-0.42,0.13-0.32,0.32
		c0.33,0.64,0.95,1.44,1.74,2.23c-0.88,0.06-1.49,1.37-1.75,2.08c-0.29,0.78-0.61,1.99-0.59,3.03c-0.61,0.05-1.22,0.13-1.84,0.24
		C10.442,118.107,10.382,118.147,10.352,118.217z M42.112,151.617c-0.4,0.06-0.79,0.16-1.19,0.3c-0.61-0.65-1.35-1.18-2.16-1.55
		c0.39-0.63,0.87-1.22,1.31-1.82c0.91-1.27,1.78-2.38,2.86-3.49c0.35-0.36,0.09-0.9-0.38-0.93c-0.48-0.03-0.94,0.16-1.36,0.48
		c-0.27-0.18-0.5-0.42-0.76-0.68l-0.21-0.22c-0.18-0.18-0.38-0.36-0.57-0.53c-0.34-0.3-0.65-0.59-0.91-0.91
		c-0.47-0.58-0.85-1.27-1.22-1.94l-0.23-0.42c-0.56-1-0.97-2.04-1.27-3.19c-0.16-0.62-0.3-1.22-0.31-1.79
		c0.8,0.11,1.62,0.14,2.45,0.09c0.3-0.02,0.57-0.14,0.78-0.32c0.31,2.51,1.22,4.91,2.83,7.31c0.61,0.91,1.34,1.62,2.09,2.4
		c1.34,1.38-0.7,3.69-1.1,4.92C42.492,150.147,42.252,150.897,42.112,151.617z M34.222,89.707c0,0-0.01-0.01-0.02,0
		c0.02-0.04,0.04-0.08,0.07-0.12C34.252,89.627,34.232,89.667,34.222,89.707z M33.732,88.557c-1.1,1.71-1.88,3.66-2.32,5.79
		c-0.45,2.18-0.66,4.56-0.63,7.28c0.02,2.16,0.18,4.98,1.21,7.57c0.82,2.06,2.23,3.71,4.19,4.91c0.74,0.45,1.52,0.85,2.27,1.23
		c1.06,0.53,2.06,1.04,2.99,1.7c1.84,1.34,3.11,3.21,4.1,4.87c0.29,0.48,0.57,0.97,0.85,1.45c0.99,1.7,2.02,3.46,3.28,5.05
		c0.4,0.51,0.83,0.99,1.27,1.45c-1.36,3.5-2.98,6.72-1.19,10.62c2.33,5.06-1.67,7.89-3.93,11.65c-0.62-0.28-1.26-0.46-1.92-0.54
		c0.3-1.35,0.68-2.67,1.4-3.99c0.58-1.07,0.77-1.73,0.42-2.88c-0.41-1.34-3.02-3.55-3.74-4.56c-2.59-3.68-2.38-8.27-1.63-12.52
		c0.1-0.55-0.7-0.78-0.83-0.23c-0.45,1.83-0.69,3.56-0.7,5.23h-0.01c-2.01-1.02-4.59-0.91-6.78-1.65c-1.36-0.46-2.51-1.16-3.53-2.02
		c-0.01-0.01-0.02-0.02-0.02-0.03c-0.5-0.66-1.08-1.28-1.52-1.87c-0.63-0.83-1.23-1.68-1.77-2.58c-0.32-0.53-0.55-1.19-0.89-1.73
		c2.72-1.13,5.03-4,5.59-6.72c0.11-0.51-0.5-0.93-0.9-0.53c-1.63,1.69-2.56,3.74-4.54,5.14c-1.9,1.34-4.45,1.25-6.64,1.12
		c-2.57-0.15-4.19,0.61-5.93,1.99c0.08-0.59,0.1-1.21,0.05-1.86c-0.1-1.21-0.5-2.23-1.11-3.09c0.72,0.28,1.46,0.47,2.2,0.58
		c0.1,0.05,0.21,0.07,0.32,0.05c2.67,0.38,5.41-0.14,8.08-0.73c1.79-0.39,5.19-2.27,4.44-4.47c-0.02-0.05-0.06-0.09-0.11-0.09
		c-0.37,0.03-0.76-0.01-1.05,0.27c-0.7,0.7-1.43,1.22-2.23,1.63c-0.18-1.25-0.25-2.48-0.22-3.68c-0.01-0.32,0-0.63,0.02-0.94
		c0.28-5.3,2.28-10.15,5.06-15.06c2.61-4.58,5.25-8.34,5.42-13.75c1.47,0.59,2.98,1.12,4.51,1.55
		C36.002,85.547,34.752,86.967,33.732,88.557z M33.872,104.377c-0.01-0.01-0.03-0.01-0.05,0c0-0.02,0-0.03-0.01-0.05
		c0.01-0.02,0-0.03,0-0.05C33.832,104.317,33.852,104.347,33.872,104.377z M33.762,90.537c-0.03,0.09-0.06,0.18-0.09,0.27
		c0.01-0.04,0.02-0.08,0.02-0.11c0-0.01,0-0.02,0-0.02c0.01-0.01,0.01-0.01,0.01-0.01C33.722,90.617,33.742,90.577,33.762,90.537z
		 M32.572,93.757c-0.01,0.06-0.02,0.13-0.02,0.19c-0.02,0.06-0.04,0.11-0.05,0.17c0,0.01-0.01,0.01-0.02,0.01
		C32.512,94.007,32.542,93.887,32.572,93.757z M96.522,41.617c-4.73,5.06-9.62,10.28-15.28,14.37c-4.97,3.59-10.27,5.78-15.75,6.5
		c-0.97,0.13-1.95,0.21-2.92,0.27c-0.35,0.03-0.69,0.05-1.04,0.06c-1.67,0.08-3.31,0.09-4.83,0.1c-0.27,0-0.5,0.22-0.5,0.5
		c0.01,0.27,0.23,0.5,0.5,0.5c0.01,0,0.01,0,0.01,0c1.45-0.01,3-0.02,4.6-0.09c-0.74,3.11-2.01,6.45-3.91,10.34
		c-3.11,6.38-7.09,9.64-12.17,9.99c-2.07,0.14-4.15-0.1-6.22-0.57c-0.14-0.03-0.27-0.06-0.4-0.1c-0.01-0.01-0.02-0.02-0.03-0.03
		c-0.07-0.07-0.16-0.11-0.25-0.11c-0.08-0.02-0.16-0.02-0.24,0.01c-3.55-0.92-7.03-2.48-10.25-3.92c-0.23-0.11-0.46-0.21-0.69-0.31
		c3.67-0.89,7.08-3.22,5.2-6.75c-2.54-4.78-9.22-8.4-14.41-5.9c-0.08,0-0.18,0.03-0.27,0.09c-0.06,0.04-0.12,0.08-0.18,0.13
		c-0.01,0-0.02,0.01-0.02,0.01c-0.18,0.1-0.36,0.21-0.53,0.32c-2.21,1.47-2.33,3.76-1.4,5.85c0.03,0.1,0.06,0.2,0.11,0.3
		c-0.13-0.09-0.27-0.18-0.4-0.27c-1.18-0.78-2.4-1.59-3.24-2.63c-2.42-3.02-3.03-6.63-1.82-10.72c1.45-4.9,4.42-9.35,7.29-13.65
		c0.28-0.41,0.55-0.82,0.82-1.23c0.08-0.03,0.15-0.08,0.2-0.14c0.39,0.71,0.78,1.42,1.19,2.13c0.09,0.16,0.26,0.25,0.43,0.25
		c0.09,0,0.17-0.02,0.25-0.07c0.24-0.14,0.32-0.44,0.19-0.68c-0.8-1.39-1.55-2.79-2.25-4.2c-5.68-11.4-8.27-23.39-7.34-34.2
		c0.16-1.87,0.53-3.83,1.16-6.11c3.32,4.79,6.7,9.74,9.1,15.15c2.26,5.09,3.59,10.73,3.95,16.76c0.14,2.32,0.16,4.64,0.14,6.93
		c-0.01,0.95-0.02,1.89-0.03,2.83c-0.01,0.27,0.22,0.5,0.49,0.5c0.31-0.01,0.5-0.21,0.51-0.49c0.02-1.59,0.04-3.22,0.04-4.86
		c1.89-0.66,4.32-0.38,5.73-0.11c-0.18,0.31-0.36,0.62-0.54,0.92c-0.14,0.24-0.06,0.55,0.17,0.69c0.08,0.04,0.17,0.07,0.26,0.07
		c0.17,0,0.34-0.09,0.43-0.25c1.56-2.64,3.13-5.39,4.65-8.05c5.42-9.47,11.02-19.27,18.09-27.43l0.29-0.35
		c1.02-1.2,3.14-3.72,4.46-2.73c1.36,1.01,0.89,5,0.67,6.92c-0.04,0.37-0.08,0.69-0.1,0.94c-0.4,4.48-1.13,8.99-1.89,13.4
		c-0.25-3.09-0.77-6.49-1.92-9.83c0.83-1.1,1.66-2.14,2.47-3.1c0.17-0.21,0.15-0.53-0.07-0.7c-0.21-0.18-0.52-0.15-0.7,0.06
		c-0.78,0.92-1.54,1.86-2.26,2.82c-0.2,0.24-0.39,0.48-0.57,0.73c-7.09,9.3-12.43,19.78-14.56,28.71c-0.06,0.27,0.1,0.54,0.37,0.61
		c0.04,0.01,0.08,0.01,0.12,0.01c0.22,0,0.43-0.15,0.48-0.38c0.03-0.12,0.06-0.24,0.09-0.36c0.86-0.14,2.43,0.86,3.48,1.52
		c0.29,0.19,0.56,0.36,0.79,0.49c-0.27,0.41-0.54,0.82-0.81,1.23c-0.16,0.23-0.1,0.54,0.13,0.69c0.09,0.06,0.19,0.08,0.28,0.08
		c0.16,0,0.32-0.07,0.42-0.22c1.7-2.55,3.41-5.21,5.07-7.79c2.1-3.26,4.22-6.55,6.43-9.8c0.41-0.62,0.83-1.23,1.26-1.84
		c3.63-5.24,7.49-10.3,11.82-14.79l0.32-0.34c1.08-1.15,3.33-3.55,4.6-2.49c1.29,1.09,0.62,5.05,0.3,6.95
		c-0.07,0.36-0.12,0.68-0.16,0.94c-0.63,4.44-1.6,8.91-2.59,13.27c-0.09-3.11-0.43-6.57-1.42-9.98c0.92-1.03,1.81-2,2.65-2.9
		c0.19-0.2,0.18-0.52-0.02-0.71c-0.21-0.18-0.52-0.17-0.71,0.03c-0.79,0.84-1.61,1.74-2.46,2.69c-0.19,0.21-0.37,0.42-0.57,0.63
		c0.01,0.01,0,0.01,0,0.01c-5.71,6.5-12.34,15.39-15.39,25.74c-0.71,2.42-1.1,4.83-1.38,6.87c-0.03,0.27,0.16,0.52,0.43,0.56
		c0.02,0.01,0.05,0.01,0.07,0.01c0.24,0,0.46-0.19,0.49-0.44c0.18-1.29,0.4-2.72,0.72-4.21c1.06,0.54,3.36,3.28,3.85,4.36
		c0.01,0.02,0.02,0.04,0.03,0.05c-1.93,1.48-3.7,2.99-5.34,4.45c-0.21,0.18-0.23,0.5-0.04,0.7c0.1,0.11,0.23,0.17,0.37,0.17
		c0.12,0,0.24-0.04,0.33-0.13c4.55-4.04,10.15-8.54,17.17-11.3c5.72-2.24,11.99-3.59,18.65-3.99c2.04-0.12,4.06-0.12,5.88-0.09
		L96.522,41.617z M57.722,25.597c-2.48,3.61-4.85,7.29-7.2,10.93c-1.21,1.88-2.45,3.81-3.7,5.71c-0.23-0.13-0.5-0.3-0.8-0.49
		c-1.16-0.74-2.6-1.64-3.76-1.69c2.54-9.42,8.21-19.15,13.63-26.43C57.222,17.777,57.602,21.907,57.722,25.597z"/>
	<path d="M51.782,63.507c-0.71-2.84-1.44-5.79-2.61-8.59c-0.07-0.15-0.19-0.25-0.35-0.29c-0.16-0.03-0.32,0-0.44,0.11
		c-0.64,0.55-1.47,1.13-2.36,1.73c-1.86,1.29-3.98,2.74-4.77,4.49c-0.11,0.25,0,0.55,0.25,0.66c0.25,0.12,0.55,0,0.66-0.25
		c0.67-1.49,2.67-2.86,4.43-4.07c0.68-0.47,1.34-0.92,1.91-1.36c0.99,2.52,1.63,5.1,2.31,7.81l0.41,1.62
		c0.06,0.23,0.26,0.38,0.48,0.38c0.05,0,0.09,0,0.13-0.02c0.27-0.06,0.43-0.34,0.36-0.6L51.782,63.507z"/>
	<path d="M29.512,48.987c-0.03-0.16-0.14-0.29-0.29-0.36c-0.15-0.06-0.32-0.05-0.46,0.03c-2.96,1.79-6.91,4.57-8.97,7.65
		c-0.15,0.23-0.09,0.54,0.14,0.69c0.22,0.15,0.54,0.09,0.69-0.14c1.82-2.73,5.28-5.24,8.06-6.98c0.33,1.37,0.74,2.75,1.15,4.09
		c0.75,2.49,1.53,5.07,1.71,7.57c0.02,0.26,0.24,0.46,0.5,0.46c0.01,0,0.02,0,0.03,0c0.28-0.02,0.49-0.26,0.47-0.54
		c-0.19-2.61-0.98-5.24-1.75-7.78C30.322,52.127,29.832,50.527,29.512,48.987z"/>
	<path d="M24.042,40.487c0-0.01,0-0.02,0-0.03c-0.41-8.44-1.41-16.86-6.66-23.77c-0.41-0.55-1.54-0.48-1.46,0.39
		c0.01,0.14,0.02,0.27,0.03,0.41c0.65,8.02-0.11,15.9,3.53,23.33c0.01,0.01,0.01,0.02,0.02,0.03c-0.09,0.19-0.06,0.41,0.05,0.59
		c0.14,0.23,0.4,0.38,0.7,0.3c1-0.17,2-0.33,3-0.49C23.652,41.227,24.042,40.917,24.042,40.487z M22.462,38.377
		c-3.55-4.08-3.37-11.32-3.91-17.03c2.02,3.4,3.39,6.8,3.9,11.18C22.682,34.477,22.502,36.427,22.462,38.377z"/>
</g>
<g id="Highlights">
	<g>
		<path fill="none" d="M57.505,11.59c0.053-0.421,0.119-0.842,0.201-1.264c0.002-0.008,0.007-0.013,0.009-0.021
			c-0.315,0.374-0.632,0.745-0.954,1.112C57.019,11.279,57.351,11.298,57.505,11.59z"/>
		<path fill="none" d="M73.328,16.521c-0.014,0.015-0.028,0.03-0.043,0.045c0.013,0.004,0.027,0.002,0.039,0.008
			C73.325,16.557,73.327,16.539,73.328,16.521z"/>
		<path fill="none" d="M52.12,37.97c0.012-0.044,0.021-0.089,0.033-0.133c-0.026,0.04-0.05,0.08-0.075,0.12
			C52.092,37.961,52.106,37.966,52.12,37.97z"/>
		<path fill="none" d="M74.327,21.287c0.01,0.047,0.021,0.094,0.03,0.142c0.01-0.059,0.021-0.118,0.03-0.176
			C74.367,21.265,74.348,21.278,74.327,21.287z"/>
		<path fill="none" d="M56.606,48.893c-0.006,0.011-0.014,0.02-0.021,0.031c0.01-0.007,0.02-0.013,0.029-0.02
			C56.611,48.9,56.609,48.896,56.606,48.893z"/>
		<path fill="none" d="M58.526,9.965c0.059-0.281,0.115-0.571,0.169-0.866c-0.229,0.293-0.462,0.584-0.699,0.871
			C58.158,9.896,58.357,9.896,58.526,9.965z"/>
		<path fill="none" d="M53.193,50.229c-0.243-0.152-0.519-0.281-0.781-0.406C52.664,49.976,52.927,50.107,53.193,50.229z"/>
		<path fill="none" d="M58.99,6.93c-0.023,0.022-0.044,0.045-0.066,0.067c0.02,0.005,0.041,0.005,0.06,0.011
			C58.986,6.982,58.988,6.956,58.99,6.93z"/>
		<polygon fill="none" points="72.406,17.504 72.394,17.518 72.403,17.514 		"/>
		<path fill="none" d="M42.129,146.678c-0.014,0.019-0.023,0.042-0.037,0.061c0.01-0.012,0.02-0.024,0.03-0.036
			C42.124,146.695,42.127,146.686,42.129,146.678z"/>
		<path fill="none" d="M53.106,47.69c0.014,0.011,0.027,0.021,0.041,0.031c0.001-0.009,0.001-0.018,0.002-0.027
			C53.135,47.693,53.121,47.692,53.106,47.69z"/>
		<path fill="none" d="M47.213,149.651c0.257-0.363,0.524-0.728,0.811-1.074c-0.525,0.609-1.063,1.274-1.45,1.991
			C46.802,150.253,47.013,149.934,47.213,149.651z"/>
		<path fill="#8C8A83" d="M60.205,67.957c-0.803,0.823-1.551,1.682-2.382,2.481c-0.413,0.397-0.82,0.847-1.166,1.335
			c-0.135,0.123-0.235,0.222-0.281,0.278c-1.947,2.391-4.284,4.395-6.79,6.176c-3.167,2.251-6.68,3.412-10.552,3.51
			c-3.865,0.097-7.288-2.277-10.897-3.276c-0.195-0.054-0.377,0.135-0.359,0.311c-0.423-0.096-0.905,0.424-0.505,0.874
			c0.319,0.36,0.61,0.478,1.081,0.511c0.103,0.007,0.184-0.02,0.254-0.059c0.298,0.189,0.594,0.382,0.902,0.562
			c0.099,0.058,0.193,0.065,0.273,0.039c0.183,0.133,0.367,0.255,0.554,0.346c0.441,0.214,1.019,0.355,1.595,0.426
			c0.456,0.203,0.921,0.379,1.39,0.542c1.878,0.871,3.816,1.52,5.826,1.864c0.078,0.031,0.153,0.066,0.247,0.075
			c0.094,0.011,0.189,0.013,0.283,0.023c0.095,0.099,0.207,0.182,0.36,0.222c8.431,2.18,15.462-4.074,18.416-11.57
			c0.454-0.79,0.859-1.613,1.193-2.477c0.021-0.055,0.026-0.11,0.022-0.163c0.439-0.552,0.73-1.176,0.694-1.964
			C60.362,67.944,60.265,67.896,60.205,67.957z"/>
		<path fill="#8C8A83" d="M96.616,41.781c-0.015-0.029-0.041-0.05-0.06-0.076c0.016-0.112-0.009-0.23-0.132-0.307
			c-0.159-0.099-0.282-0.18-0.472-0.183c-0.129-0.002-0.235,0.084-0.292,0.197c-0.141-0.242-0.349-0.459-0.635-0.499
			c-6.045-0.841-13.671,0.999-19.408,2.786c-7.788,2.426-14.05,8.002-20.773,12.354c-0.127,0.082-0.216,0.246-0.162,0.399
			c0.053,0.152,0.106,0.304,0.16,0.456c0.062,0.178,0.299,0.178,0.362,0c0.676-1.931,7.168-4.379,8.934-5.404
			c3.895-2.259,7.72-4.478,11.972-6.019c3.737-1.355,7.79-1.924,11.724-2.268c2.541-0.222,5.604,0.263,8.02-0.44
			c0.148-0.043,0.273-0.218,0.213-0.375c-0.013-0.034-0.026-0.068-0.039-0.102c0.015,0.008,0.028,0.019,0.044,0.027
			C96.433,42.495,96.803,42.152,96.616,41.781z"/>
		<path fill="#8C8A83" d="M31.203,74.929c-0.05,0.022-0.1,0.045-0.15,0.067c-0.056,0.283,0.096,0.614,0.469,0.614
			c0.645,0,0.648-0.991,0.012-1.005C31.475,74.734,31.379,74.852,31.203,74.929z"/>
		<path fill="#8C8A83" d="M41.578,41.343c0.031,0.047,0.064,0.095,0.107,0.126c0.422,0.314,0.852,0.502,1.368,0.603
			c0.045,0.009,0.085,0.006,0.124,0.001c0.362,0.312,0.811,0.499,1.345,0.503c0.528,0.004,0.64-0.789,0.125-0.921
			c-0.205-0.053-0.421-0.32-0.587-0.45c-0.219-0.172-0.45-0.314-0.699-0.437c0,0,0,0,0,0c0,0,0,0,0,0
			c-0.02-0.01-0.035-0.025-0.055-0.034c-0.015-0.013-0.026-0.029-0.042-0.041c-0.11-0.084-0.219-0.103-0.318-0.082
			c-0.421-0.102-0.838-0.045-1.26,0.133c-0.082,0.035-0.135,0.088-0.167,0.151C41.587,41.035,41.608,41.196,41.578,41.343z"/>
		<path fill="#8C8A83" d="M56.39,47.081c-0.117-0.092-0.231-0.112-0.369-0.048c-0.09,0.042-0.136,0.112-0.195,0.189
			c-0.022,0.029-0.025,0.069-0.03,0.107c-0.227-0.02-0.462,0.111-0.449,0.403c0.004,0.098-0.007,0.197-0.017,0.295
			c-0.111,0.265-0.209,0.534-0.282,0.811c-0.017,0.024-0.043,0.036-0.053,0.067c-0.094,0.307-0.112,0.623-0.115,0.94
			c-0.021,0.018-0.045,0.035-0.065,0.054c-0.172,0.154-0.065,0.413,0.121,0.479c0.119,0.162,0.402,0.16,0.472-0.075
			c0.004-0.012,0.008-0.026,0.011-0.038c0.679-0.239,1.328-0.539,1.915-0.963c0.159-0.115,0.249-0.324,0.133-0.507
			c-0.229-0.36-0.549-0.931-0.938-1.213C56.548,47.385,56.531,47.191,56.39,47.081z M56.606,48.893
			c0.003,0.004,0.006,0.007,0.009,0.011c-0.01,0.007-0.02,0.013-0.029,0.02C56.591,48.913,56.6,48.904,56.606,48.893z"/>
		<path fill="#8C8A83" d="M24.066,121.381c0.982-0.513,1.687-1.145,2.464-1.932c0.662-0.67,1.525-1.13,2.025-1.927
			c0.112-0.178,0.005-0.43-0.196-0.482c-1.33-0.341-2.321,1.073-3.163,1.925c-2.089,2.114-4.724,2.046-7.469,2.09
			c-0.02-0.029-0.04-0.057-0.059-0.086c-0.009-0.013-0.025-0.015-0.037-0.005c-0.035,0.031-0.071,0.062-0.106,0.093
			c-0.001,0-0.001,0-0.002,0c-0.206,0.004-0.318,0.098-0.368,0.221c-0.029,0.003-0.051-0.003-0.081,0.003
			c-0.514,0.099-1.106,0.396-1.356,0.878c-0.232,0.445,0.308,0.844,0.678,0.523c0.256-0.221,0.439-0.457,0.768-0.581
			c0.212-0.08,0.61-0.211,0.833-0.157c0.014,0.003,0.023-0.01,0.036-0.013C20.018,122.056,22.261,122.322,24.066,121.381z"/>
		<path fill="#8C8A83" d="M43.632,147.866c0.046-0.112,0.039-0.218,0-0.31c0.032-0.058,0.062-0.115,0.09-0.173
			c0.201,0.102,0.455,0.08,0.566-0.172c0.016-0.036,0.024-0.074,0.037-0.111c0.003,0.001,0.006,0.002,0.009,0.002
			c0.003-0.014,0.002-0.028,0.004-0.042c0.141-0.41,0.159-0.866,0.185-1.293c0.006-0.107-0.043-0.207-0.11-0.295
			c0.004-0.195-0.113-0.31-0.258-0.351c0.01-0.17,0.031-0.336,0.013-0.515c-0.031-0.312-0.311-0.572-0.602-0.636
			c-0.41-0.522-0.817-1.046-1.217-1.576c-0.129-0.169-0.298-0.254-0.472-0.276c-0.224-0.293-0.439-0.591-0.643-0.901
			c-0.329-1.388-0.977-2.654-1.534-3.95c0.04-0.079,0.06-0.168,0.039-0.256c-0.085-0.482-0.226-0.948-0.423-1.396
			c-0.06-0.162-0.176-0.235-0.3-0.27c-0.062-0.233-0.121-0.466-0.163-0.705c-0.073-0.277-0.444-0.306-0.603-0.134
			c-0.021-0.024-0.034-0.047-0.056-0.071c-0.258-0.28-0.704-0.053-0.716,0.297c-0.003,0.088-0.005,0.155-0.008,0.226
			c-0.293-0.197-0.691-0.31-1.198-0.356c-0.221-0.02-0.339,0.162-0.362,0.349c-0.148,0.051-0.3,0.111-0.464,0.188
			c-0.238,0.112-0.246,0.452-0.08,0.624c0.13,0.134,0.248,0.235,0.365,0.32c0.002,0.005,0.002,0.01,0.004,0.015
			c0.1,0.203,0.212,0.397,0.32,0.594c-0.191,0.095-0.324,0.299-0.247,0.543c0.091,0.291,0.201,0.574,0.308,0.858
			c-0.04,0.102-0.039,0.224,0.034,0.356c0.163,0.293,0.332,0.577,0.499,0.863c0.284,0.566,0.609,1.107,1.002,1.605
			c0.666,0.988,1.398,1.921,2.292,2.769c0.157,0.149,0.386,0.152,0.559,0.063c0.071,0.178,0.159,0.348,0.257,0.479
			c0.163,0.219,0.381,0.423,0.628,0.557c0.103,0.119,0.201,0.239,0.308,0.357c-1.063,1.09-1.698,2.585-2.059,4.04
			c-0.006,0.023-0.002,0.043-0.005,0.066c-0.118-0.033-0.224-0.079-0.36-0.094c-0.179-0.019-0.285,0.125-0.313,0.278
			c-0.092,0.062-0.159,0.167-0.176,0.3c-0.091,0.732,0.325,1.337,0.907,1.58c0.468,0.608,1.255,0.91,2.056,0.555
			c0.26-0.115,0.264-0.433,0.122-0.639c0.123-0.033,0.236-0.117,0.289-0.264c0.181-0.496,0.361-0.992,0.542-1.489
			c0.017-0.046,0.023-0.09,0.024-0.133C43.14,148.927,43.394,148.449,43.632,147.866z M42.129,146.678
			c-0.002,0.008-0.005,0.016-0.007,0.025c-0.01,0.012-0.02,0.024-0.03,0.036C42.106,146.72,42.115,146.697,42.129,146.678z"/>
		<path fill="#8C8A83" d="M50.815,144.275c-1.285,1.274-2.573,2.54-3.72,3.943c-0.507,0.62-1.087,1.374-1.407,2.184
			c-1.042,0.173-2.827,1.131-1.994,2.162c-0.177,0.418,0.031,0.995,0.578,0.959c2.977-0.199,3.647-3.696,5.474-5.442
			c0.215-0.205-0.006-0.656-0.308-0.529c-0.465,0.196-0.684,0.245-1.063,0.62c0.033-0.038,0.067-0.077,0.099-0.114
			c0.943-1.094,1.984-2.099,3.005-3.119C51.906,144.511,51.245,143.849,50.815,144.275z M47.213,149.651
			c-0.2,0.283-0.411,0.602-0.639,0.917c0.387-0.717,0.925-1.382,1.45-1.991C47.737,148.923,47.47,149.288,47.213,149.651z"/>
		<path fill="#8C8A83" d="M26.081,41.521c-0.155,0.343-0.257,0.706-0.235,1.085c0.015,0.251,0.212,0.363,0.398,0.345
			c0.149,0.17,0.449,0.218,0.592-0.037c0.201-0.357,0.412-0.771,0.607-1.212c0.314-0.475,0.685-1.257,0.633-1.897
			c0.129-0.626,0.165-1.243,0.035-1.793c-0.061-0.26-0.406-0.338-0.588-0.155c-0.022,0.022-0.038,0.047-0.058,0.069
			c-0.112-0.067-0.263-0.072-0.376-0.009c-0.215,0.12-0.374,0.281-0.508,0.456c-0.161-0.118-0.422-0.093-0.487,0.148
			c-0.091,0.335-0.126,0.675-0.198,1.014c-0.052,0.175,0.065,0.284,0.201,0.307c0.005,0.499,0.123,1.017,0.198,1.484
			c0.003,0.022,0.016,0.04,0.025,0.06C26.225,41.383,26.132,41.408,26.081,41.521z"/>
		<path fill="#8C8A83" d="M23.662,40.044c0.009,0.307,0.441,0.297,0.469,0c0.166-1.797,0.41-4.192-0.269-5.9
			c-0.03-0.075-0.165-0.102-0.181,0c-0.134,0.852-0.013,1.714,0.004,2.573C23.706,37.828,23.629,38.935,23.662,40.044z"/>
		<path fill="#8C8A83" d="M28.878,117.446c-0.658,1.132-1.247,2.185-2.017,3.185c0.414-0.621,0.818-1.245,1.189-1.876
			c0.077-0.131-0.095-0.251-0.202-0.156c-1.58,1.401-3.304,3.162-4.092,5.161c-0.164,0.417,0.438,0.578,0.664,0.28
			c0.157-0.208,0.315-0.422,0.472-0.633c-0.148,0.439-0.197,0.894-0.073,1.339c0.057,0.202,0.349,0.201,0.407,0
			c0.421-1.47,1.751-2.296,2.637-3.491c0.354-0.477,0.582-1.043,0.794-1.593c0.278-0.719,0.077-1.457,0.35-2.161
			C29.035,117.425,28.917,117.379,28.878,117.446z"/>
		<path fill="#8C8A83" d="M14.677,112.58c-0.035-0.012-0.087,0-0.111,0.029c-0.007,0.007-0.014,0.014-0.021,0.021
			c-0.08-0.744-0.359-1.46-0.882-1.857c-0.188-0.143-0.47-0.098-0.662,0c-0.033,0.017-0.067,0.034-0.1,0.051
			c-0.343,0.176-0.338,0.624-0.114,0.884c1.717,1.995-0.961,4.705-2.937,5.155c-0.801,0.225-0.463,1.402,0.341,1.236
			c0.016-0.005,0.031-0.007,0.047-0.012c-0.01,0.064,0.023,0.124,0.086,0.138c0.042,0.035,0.095,0.056,0.166,0.032
			c0.153-0.05,0.294-0.095,0.428-0.152c0.452,0.226,0.907,0.213,1.417-0.139c0.055-0.038,0.06-0.099,0.04-0.153
			c0.007,0,0.013-0.001,0.02-0.001c0.56-0.042,0.584-0.801,0.069-0.898c0.783-0.678,1.417-1.55,1.834-2.451
			c0.207-0.447,0.294-1.037,0.261-1.627c0.031-0.001,0.021-0.004,0.015-0.037c0.004,0.005,0.007,0.009,0.011,0.014
			c0.004-0.005,0.008-0.01,0.012-0.015c0.006,0.041,0.006,0.086,0.046,0.112c0.013,0.009,0.026,0.017,0.039,0.026
			c0.046,0.031,0.099,0.006,0.128-0.034C14.923,112.753,14.831,112.632,14.677,112.58z"/>
		<path fill="#302F2A" d="M20.382,76.802c1.341,1.019,2.853,1.606,4.747,1.52c1.953-0.089,4.029-1.379,5.23-3.014
			c0.23-0.105,0.461-0.209,0.693-0.311c0.05-0.022,0.1-0.045,0.15-0.067c0.176-0.077,0.272-0.195,0.331-0.324
			c0.214-0.469-0.26-1.126-0.875-1.04c-0.107-0.022-0.221,0.005-0.328,0.098c-4.06,1.816-7.306,4.287-11.484,1.01
			c-0.306-0.24-0.689,0.126-0.431,0.431C19.059,75.864,19.716,76.407,20.382,76.802z"/>
		<path fill="#FFF7EB" d="M46.58,21.578c0.594,0.438,1.402,1.087,1.619,1.855c0.21-0.388,0.423-0.775,0.637-1.16
			c-0.023-0.002-0.047,0-0.07-0.004c-0.458-0.085-0.688-0.489-1.015-0.78c-0.367-0.327-0.727-0.638-1.159-0.878
			c-0.411-0.228-0.839-0.429-1.261-0.635c-0.322-0.157-0.687-0.228-0.937-0.491c-0.125-0.131-0.091-0.326,0.055-0.423
			c1.141-0.762,4.548,0.663,4.937,2.222c0.136-0.24,0.28-0.472,0.418-0.71c1.033-1.248,1.944-2.643,2.826-3.969
			c0.189-0.285,0.426-0.604,0.67-0.941c-0.233,0.053-0.504-0.002-0.686-0.147c-0.423-0.338-0.567-0.929-0.885-1.366
			c-0.307-0.421-0.668-0.827-1.095-1.132c-0.459-0.327-1.012-0.541-1.55-0.704c-0.391-0.118-0.518-0.443-0.466-0.742
			c-1.982,2.973-3.735,6.185-5.401,9.131C44.362,20.562,45.648,20.891,46.58,21.578z"/>
		<path fill="#FFF7EB" d="M49.444,11.002c0.807,0.161,1.665,0.417,2.311,0.939c0.846,0.683,2.039,1.927,1.977,3.106
			c0.151-0.222,0.296-0.449,0.43-0.68c0.138-0.16,0.279-0.32,0.419-0.479c-0.765-0.607-1.042-1.819-1.719-2.54
			c-0.361-0.385-0.773-0.732-1.261-0.948c-0.377-0.167-0.757-0.136-1.013-0.471c-0.041-0.054-0.014-0.125,0.022-0.17
			c0.629-0.797,2.29,0.213,2.829,0.703c0.641,0.583,1.613,1.611,1.892,2.572c0.378-0.425,0.756-0.851,1.133-1.277
			c-0.033,0.098-0.047,0.203-0.009,0.319c0.137,0.42,0.281,0.835,0.42,1.25c0.588-0.211,1.195-0.344,1.774-0.579
			c0.396-0.16,0.799-0.377,1.074-0.714c0.123-0.151,0.219-0.268,0.352-0.346c0.277-1.289,0.568-3.052,0.635-4.704
			c0.533-1.688,0.944-5.411-1.226-5.913c-1.335-0.309-2.932,1.056-3.742,2.585c-2.584,1.881-4.802,4.515-6.786,7.423
			C49.089,11.002,49.252,10.963,49.444,11.002z M58.99,6.93c-0.002,0.026-0.004,0.052-0.006,0.079
			c-0.02-0.007-0.04-0.006-0.06-0.011C58.946,6.975,58.967,6.952,58.99,6.93z M58.694,9.099c-0.054,0.295-0.11,0.585-0.169,0.866
			c-0.169-0.069-0.367-0.069-0.531,0.005C58.233,9.683,58.465,9.392,58.694,9.099z M57.715,10.306
			c-0.002,0.008-0.007,0.012-0.009,0.021c-0.082,0.422-0.148,0.843-0.201,1.264c-0.154-0.292-0.486-0.311-0.744-0.172
			C57.083,11.05,57.401,10.679,57.715,10.306z"/>
		<path fill="#FFF7EB" d="M39.636,33.184c1.031,0.6,2.894,1.641,3.275,2.799c0.014,0.042,0.006,0.085,0.006,0.128
			c1.031-2.257,1.93-4.595,2.77-6.883c0.104-0.282,0.022-0.503-0.141-0.646c0.665-1.355,1.347-2.709,2.058-4.052
			c-0.094-0.004-0.186-0.031-0.265-0.084c-0.68-0.454-0.947-1.29-1.695-1.748c-0.754-0.462-1.531-0.902-2.435-0.938
			c-0.228-0.009-0.37-0.12-0.444-0.263c-0.601,1.052-1.193,2.067-1.78,3.01c-0.065,0.104-0.088,0.208-0.093,0.31
			c-0.996,1.576-1.863,3.252-2.742,4.912c0.831-0.098,1.772,0.296,2.471,0.708c1.012,0.596,2.607,1.523,3.174,2.604
			c0.341,0.651-0.355,1.421-1.026,1.026c-0.825-0.486-1.461-1.365-2.251-1.927c-0.542-0.386-1.918-1.484-2.628-0.932
			c-0.203,0.157-0.418,0.178-0.603,0.124c-0.274,0.496-0.558,0.983-0.848,1.464C37.517,32.49,38.601,32.582,39.636,33.184z"/>
		<path fill="#FFF7EB" d="M59.024,15.519c-0.49,0.201-1.047,0.295-1.56,0.152c0.182,0.982,0.318,1.976,0.451,2.998
			c0.024,0.187,0.174,0.281,0.316,0.279c0.152,1.152,0.329,2.303,0.211,3.409c-0.048,0.452,0.766,0.41,0.645-0.087
			c-0.378-1.544,0.395-3.761,0.544-5.241c0.064-0.637,0.103-1.281,0.139-1.926C59.515,15.289,59.227,15.436,59.024,15.519z"/>
		<path fill="#FFF7EB" d="M59.234,13.436c-0.711,0.299-1.422,0.419-2.17,0.476c0.005,0.015,0.009,0.03,0.014,0.045
			c0.11,0.408,0.21,0.816,0.295,1.228c0.697-0.236,1.372-0.178,1.963-0.73c0.079-0.074,0.287-0.244,0.493-0.354
			c0.02-0.343,0.049-0.684,0.076-1.026C59.667,13.231,59.421,13.357,59.234,13.436z"/>
		<path fill="#FFF7EB" d="M49.895,37.455c0.062-0.136,0.125-0.264,0.206-0.39c0.129-0.203-0.243-0.361-0.3-0.126
			c-0.043,0.177-0.065,0.32-0.035,0.5C49.776,37.496,49.87,37.508,49.895,37.455z"/>
		<path fill="#FFF7EB" d="M32.391,39.793c3.085,0.553,5.485,2.512,8.788,1.944c0.237-0.041,0.361-0.204,0.4-0.394
			c0.03-0.147,0.009-0.308-0.061-0.447c-0.047-0.093-0.112-0.177-0.199-0.235c-0.023-0.015-0.047-0.028-0.069-0.043
			c0.713-0.05,1.003-1.105,0.2-1.28c-0.047-0.01-0.092-0.025-0.139-0.036c0.52-0.925,1.001-1.881,1.455-2.856
			c-0.084,0.079-0.188,0.136-0.306,0.13c-0.989-0.054-1.656-1.037-2.386-1.632c-1.205-0.982-2.434-1.616-3.999-1.106
			c-0.102,0.033-0.196,0.018-0.278-0.021c-0.69,1.05-1.442,2.046-2.311,2.942c-0.2,0.206-0.265,0.462-0.231,0.702
			c-0.056-0.004-0.114-0.006-0.171-0.01c-0.62-0.043-0.831,0.811-0.443,1.155c-0.235,0.123-0.316,0.435-0.24,0.689
			c-0.003,0-0.006,0-0.01,0.001C32.14,39.332,32.147,39.749,32.391,39.793z"/>
		<path fill="#FFF7EB" d="M54.956,45.353c-0.867-2.607-2.668-4.777-5.48-5.263c-0.873,1.309-1.748,2.604-2.965,3.631
			c-0.287,0.242-0.279,0.777,0,1.021c0.063,0.055,0.121,0.115,0.183,0.17c-0.204-0.157-0.375-0.314-0.451-0.459
			c-0.121-0.229-0.421-0.184-0.552,0c-0.02,0.029-0.041,0.057-0.061,0.086c-0.093,0.131-0.061,0.358,0.06,0.462
			c1.498,1.297,2.705,2.885,4.107,4.28c1.128,1.123,2.894,2.769,4.6,2.642c0.51-0.038,0.674-0.648,0.254-0.939
			c-0.124-0.086-0.256-0.156-0.386-0.228c0.067-0.275,0.061-0.524-0.011-0.749c0.223-0.156,0.384-0.424,0.422-0.712
			c0.147-1.137,0.546-2.39,0.792-3.628C55.259,45.681,55.031,45.579,54.956,45.353z M53.106,47.69
			c0.015,0.002,0.029,0.003,0.043,0.005c-0.001,0.009-0.001,0.018-0.002,0.027C53.134,47.71,53.12,47.7,53.106,47.69z
			 M52.412,49.823c0.262,0.125,0.538,0.254,0.781,0.406C52.927,50.107,52.664,49.976,52.412,49.823z"/>
		<path fill="#FFF7EB" d="M64.669,20.98c0.977,0.851,1.164,1.948,1.757,3.027c0.108,0.197,0.071,0.383-0.029,0.525
			c0.414-0.534,0.836-1.063,1.263-1.589c-0.063-0.006-0.128-0.013-0.193-0.047c-0.812-0.424-1.111-1.731-1.592-2.482
			c-0.307-0.478-0.654-0.944-1.071-1.333c-0.252-0.234-0.524-0.42-0.755-0.654c-0.403,0.57-0.804,1.142-1.213,1.708
			C63.369,20.138,64.544,20.872,64.669,20.98z"/>
		<path fill="#FFF7EB" d="M65.536,24.528c-0.477-0.896-0.598-1.986-1.392-2.696c-0.408-0.365-1.427-0.765-1.551-1.36
			c-1.602,2.215-3.226,4.414-4.782,6.663c0.77,0.522,1.695,0.83,2.381,1.468c0.734,0.683,1.182,1.571,1.661,2.437
			c1.385-2.221,2.886-4.362,4.493-6.439C66.128,24.827,65.725,24.883,65.536,24.528z"/>
		<path fill="#FFF7EB" d="M61.086,31.736c-0.54-0.93-1.002-2.013-1.939-2.615c-0.633-0.407-1.29-0.757-1.893-1.208
			c-0.344,0.47-0.725,0.957-1.131,1.461c1.143,0.271,2.059,0.912,2.81,1.823c0.539,0.654,1.245,1.703,1.268,2.638
			c0.359-0.641,0.727-1.276,1.105-1.903C61.223,31.893,61.145,31.837,61.086,31.736z"/>
		<path fill="#FFF7EB" d="M66.657,19.432c0.369,0.501,0.696,1.033,0.988,1.583c0.226,0.425,0.51,0.826,0.533,1.302
			c1.204-1.457,2.453-2.889,3.749-4.298c-0.051,0.151-0.075,0.318-0.026,0.515c0.086,0.342,0.151,0.676,0.22,1.012
			c0.058,0.306,0.101,0.607,0.152,0.911c0.449-0.258,0.97-0.426,1.442-0.59c0.305-0.106,1.389-0.671,1.638-0.245
			c0.538,0.918-2.375,1.632-2.831,1.959c-0.02,0.014-0.041,0.016-0.061,0.026c0.013,0.093,0.019,0.186,0.031,0.279
			c0.044,0.396,0.085,0.792,0.115,1.196c0.004-0.023-0.007-0.048,0.013-0.067c0.261-0.254,0.253-0.411,0.669-0.464
			c0.44-0.057,0.745-0.167,1.095-0.447c0.116-0.093,0.601-0.505,0.929-0.547c0.224-1.496,0.351-2.981,0.312-4.397
			c0.117-0.091,0.203-0.23,0.217-0.428c0.158-1.484,2.383-7.802,0.327-9.007c-2.454-1.438-4.725,1.638-6.077,3.652
			c-0.751,0.651-1.325,1.34-1.813,2.155c-1.214,1.179-2.445,2.339-3.411,3.737c-0.094,0.137-0.193,0.271-0.288,0.407
			C65.411,17.965,66.177,18.781,66.657,19.432z M74.327,21.287c0.021-0.01,0.04-0.023,0.06-0.034
			c-0.009,0.059-0.021,0.117-0.03,0.176C74.349,21.382,74.337,21.334,74.327,21.287z M73.328,16.521
			c-0.001,0.018-0.003,0.036-0.004,0.054c-0.012-0.006-0.026-0.004-0.039-0.008C73.3,16.551,73.313,16.536,73.328,16.521z
			 M72.406,17.504c-0.001,0.003-0.003,0.006-0.003,0.009c-0.003,0.001-0.006,0.003-0.009,0.004
			C72.398,17.513,72.402,17.509,72.406,17.504z"/>
		<path fill="#FFF7EB" d="M58.93,32.909c-0.224-0.452-0.472-0.907-0.802-1.291c-0.652-0.76-1.409-1.405-2.375-1.717
			c-0.016-0.005-0.026-0.015-0.04-0.022c-2.379,2.903-5.322,6.274-5.953,9.674c2.551,0.174,5.126,2.274,5.891,4.75
			c0.015-0.245,0.015-0.486,0.001-0.724c0.114-0.115,0.214-0.25,0.275-0.421c0.145-0.402,0.302-0.796,0.455-1.192
			c-0.082-0.015-0.164-0.049-0.237-0.107c-0.39-0.308-0.53-0.81-0.808-1.217c-0.379-0.557-0.802-1.089-1.284-1.561
			c-0.868-0.851-1.83-1.552-2.968-1.998c-0.225-0.088-0.221-0.496,0.062-0.46c1.336,0.167,2.537,0.956,3.531,1.833
			c0.638,0.563,1.75,1.519,2.105,2.476c0.905-2.232,1.932-4.372,3.058-6.441c-0.112-0.007-0.227-0.055-0.3-0.15
			C59.22,33.918,59.164,33.381,58.93,32.909z M52.12,37.97c-0.014-0.004-0.028-0.009-0.042-0.013c0.025-0.04,0.049-0.08,0.075-0.12
			C52.141,37.881,52.132,37.926,52.12,37.97z"/>
		<path fill="#FFF7EB" d="M74.391,23.163c-0.311,0.146-0.607,0.182-0.948,0.208c-0.164,0.012-0.368,0.07-0.518-0.029
			c-0.082-0.054-0.123-0.106-0.216-0.106c-0.047,0-0.077-0.033-0.099-0.068c0.034,0.471,0.061,0.948,0.081,1.439
			c0.005,0.115,0.036,0.211,0.071,0.303c0.061,1.054,0.1,2.113,0.105,3.197c0,0.117,0.063,0.213,0.147,0.288
			c0.061,0.421,0.779,0.479,0.884,0.02c0.421-1.838,0.909-3.859,1.263-5.894C74.929,22.754,74.69,23.023,74.391,23.163z"/>
		<path fill="#E2CDB0" d="M36.074,33.837c1.565-0.51,2.794,0.125,3.999,1.106c0.73,0.594,1.397,1.577,2.386,1.632
			c0.118,0.006,0.222-0.051,0.306-0.13c0.095-0.089,0.151-0.207,0.152-0.336c0-0.043,0.008-0.086-0.006-0.128
			c-0.382-1.158-2.244-2.199-3.275-2.799c-1.035-0.602-2.119-0.694-3.197-0.387c-0.233,0.066-0.466,0.145-0.698,0.248
			c-0.351,0.156-0.231,0.636,0.056,0.772C35.878,33.855,35.972,33.871,36.074,33.837z"/>
		<path fill="#E2CDB0" d="M37.889,31.209c0.71-0.552,2.086,0.546,2.628,0.932c0.79,0.562,1.426,1.441,2.251,1.927
			c0.671,0.395,1.368-0.375,1.026-1.026c-0.567-1.082-2.161-2.008-3.174-2.604c-0.699-0.411-1.64-0.806-2.471-0.708
			c-0.425,0.05-0.822,0.22-1.14,0.6c-0.355,0.424-0.11,0.891,0.277,1.004C37.471,31.386,37.686,31.366,37.889,31.209z"/>
		<path fill="#E2CDB0" d="M43.209,21.759c0.904,0.036,1.681,0.477,2.435,0.938c0.748,0.458,1.015,1.294,1.695,1.748
			c0.08,0.053,0.172,0.079,0.265,0.084c0.277,0.013,0.572-0.169,0.63-0.448c0.047-0.224,0.023-0.44-0.036-0.648
			c-0.216-0.768-1.025-1.416-1.619-1.855c-0.932-0.688-2.217-1.017-3.365-0.874c-0.002,0-0.004,0-0.006,0
			c-0.443,0.056-0.598,0.497-0.444,0.792C42.839,21.639,42.981,21.75,43.209,21.759z"/>
		<path fill="#E2CDB0" d="M44.448,19.062c-0.146,0.098-0.179,0.292-0.055,0.423c0.25,0.263,0.615,0.333,0.937,0.491
			c0.422,0.206,0.85,0.407,1.261,0.635c0.432,0.24,0.793,0.551,1.159,0.878c0.327,0.292,0.557,0.695,1.015,0.78
			c0.022,0.004,0.046,0.003,0.07,0.004c0.189,0.015,0.398-0.045,0.486-0.231c0.118-0.251,0.127-0.506,0.064-0.759
			C48.996,19.725,45.589,18.3,44.448,19.062z"/>
		<path fill="#E2CDB0" d="M49.081,12.316c0.538,0.162,1.091,0.376,1.55,0.704c0.427,0.304,0.788,0.71,1.095,1.132
			c0.318,0.436,0.462,1.028,0.885,1.366c0.182,0.145,0.454,0.201,0.686,0.147c0.209-0.048,0.387-0.182,0.43-0.442
			c0.01-0.058,0.001-0.117,0.004-0.175c0.063-1.179-1.131-2.423-1.977-3.106c-0.647-0.522-1.505-0.778-2.311-0.939
			c-0.192-0.039-0.354,0.001-0.488,0.077c-0.187,0.106-0.305,0.292-0.34,0.495C48.564,11.873,48.69,12.198,49.081,12.316z"/>
		<path fill="#E2CDB0" d="M53.439,10.461c-0.539-0.491-2.201-1.5-2.829-0.703c-0.036,0.045-0.063,0.117-0.022,0.17
			c0.256,0.335,0.635,0.304,1.013,0.471c0.488,0.216,0.9,0.563,1.261,0.948c0.677,0.722,0.954,1.934,1.719,2.54
			c0.034,0.027,0.063,0.06,0.099,0.084c0.316,0.214,0.733-0.072,0.737-0.423c0.002-0.167-0.034-0.341-0.085-0.516
			C55.052,12.072,54.08,11.044,53.439,10.461z"/>
		<path fill="#E2CDB0" d="M59.723,12.033c-0.275,0.337-0.678,0.554-1.074,0.714c-0.579,0.235-1.186,0.368-1.774,0.579
			c-0.101,0.036-0.203,0.069-0.302,0.111c-0.251,0.106-0.119,0.515,0.136,0.502c0.12-0.006,0.237-0.018,0.355-0.027
			c0.748-0.057,1.459-0.177,2.17-0.476c0.187-0.079,0.433-0.205,0.67-0.36c0.489-0.32,0.94-0.778,0.752-1.29
			c-0.056-0.151-0.176-0.211-0.332-0.188c-0.103,0.015-0.18,0.049-0.25,0.09C59.942,11.765,59.846,11.882,59.723,12.033z"/>
		<path fill="#E2CDB0" d="M59.335,14.455c-0.59,0.552-1.266,0.494-1.963,0.73c-0.032,0.011-0.063,0.019-0.095,0.031
			c-0.151,0.057-0.234,0.302-0.05,0.386c0.077,0.035,0.158,0.047,0.237,0.07c0.512,0.143,1.069,0.049,1.56-0.152
			c0.202-0.083,0.491-0.23,0.747-0.417c0.305-0.222,0.562-0.502,0.562-0.809c0-0.369-0.251-0.328-0.505-0.193
			C59.623,14.211,59.415,14.38,59.335,14.455z"/>
		<path fill="#E2CDB0" d="M49.76,39.553c-0.142-0.01-0.284-0.019-0.426-0.017c-0.28,0.005-0.365,0.465-0.069,0.506
			c0.073,0.01,0.138,0.035,0.21,0.047c2.812,0.486,4.614,2.656,5.48,5.263c0.075,0.225,0.303,0.327,0.512,0.313
			c0.22-0.015,0.417-0.159,0.386-0.435c-0.036-0.314-0.109-0.623-0.203-0.929C54.886,41.827,52.31,39.727,49.76,39.553z"/>
		<path fill="#E2CDB0" d="M54.677,38.456c-0.994-0.877-2.195-1.666-3.531-1.833c-0.283-0.035-0.287,0.372-0.062,0.46
			c1.137,0.446,2.099,1.147,2.968,1.998c0.482,0.472,0.905,1.004,1.284,1.561c0.278,0.407,0.418,0.909,0.808,1.217
			c0.073,0.058,0.155,0.092,0.237,0.107c0.254,0.046,0.512-0.106,0.523-0.421c0.007-0.202-0.046-0.407-0.122-0.612
			C56.428,39.975,55.316,39.019,54.677,38.456z"/>
		<path fill="#E2CDB0" d="M58.933,31.197c-0.751-0.911-1.667-1.552-2.81-1.823c-0.071-0.017-0.135-0.047-0.208-0.061
			c-0.367-0.07-0.52,0.417-0.202,0.566c0.014,0.007,0.024,0.016,0.04,0.022c0.965,0.313,1.722,0.958,2.375,1.717
			c0.33,0.385,0.578,0.84,0.802,1.291c0.234,0.472,0.29,1.009,0.611,1.432c0.072,0.095,0.187,0.144,0.3,0.15
			c0.142,0.008,0.28-0.055,0.322-0.232c0.033-0.138,0.043-0.28,0.039-0.425C60.178,32.899,59.472,31.85,58.933,31.197z"/>
		<path fill="#E2CDB0" d="M60.192,28.603c-0.686-0.638-1.611-0.946-2.381-1.468c-0.035-0.024-0.074-0.043-0.109-0.068
			c-0.441-0.318-1.01,0.418-0.582,0.755c0.043,0.034,0.092,0.059,0.135,0.091c0.603,0.451,1.259,0.801,1.893,1.208
			c0.937,0.602,1.399,1.685,1.939,2.615c0.058,0.101,0.136,0.157,0.219,0.195c0.381,0.175,0.913-0.238,0.651-0.704
			c-0.035-0.062-0.069-0.125-0.104-0.188C61.374,30.173,60.926,29.286,60.192,28.603z"/>
		<path fill="#E2CDB0" d="M64.144,21.831c0.794,0.71,0.915,1.8,1.392,2.696c0.189,0.356,0.592,0.3,0.81,0.073
			c0.02-0.021,0.034-0.044,0.051-0.067c0.1-0.143,0.137-0.329,0.029-0.525c-0.593-1.08-0.78-2.176-1.757-3.027
			c-0.125-0.109-1.3-0.842-1.833-0.844c-0.158,0-0.267,0.055-0.267,0.22c0,0.04,0.016,0.076,0.024,0.115
			C62.716,21.066,63.736,21.467,64.144,21.831z"/>
		<path fill="#E2CDB0" d="M65.874,20.415c0.482,0.751,0.78,2.058,1.592,2.482c0.065,0.034,0.129,0.041,0.193,0.047
			c0.269,0.027,0.503-0.166,0.53-0.462c0.005-0.058-0.009-0.11-0.012-0.165c-0.023-0.476-0.307-0.877-0.533-1.302
			c-0.292-0.55-0.619-1.082-0.988-1.583c-0.479-0.65-1.246-1.467-2.077-1.754c-0.163-0.057-0.328-0.1-0.495-0.11
			c-0.267-0.016-0.437,0.31-0.304,0.529c0.077,0.126,0.169,0.232,0.268,0.332c0.231,0.234,0.503,0.419,0.755,0.654
			C65.22,19.47,65.568,19.937,65.874,20.415z"/>
		<path fill="#E2CDB0" d="M72.521,21.581c0.456-0.328,3.369-1.041,2.831-1.959c-0.25-0.426-1.333,0.139-1.638,0.245
			c-0.472,0.164-0.993,0.332-1.442,0.59c-0.143,0.082-0.28,0.173-0.404,0.277c-0.449,0.376,0.107,1.127,0.592,0.873
			C72.48,21.597,72.501,21.595,72.521,21.581z"/>
		<path fill="#E2CDB0" d="M74.382,22.104c-0.35,0.281-0.655,0.391-1.095,0.447c-0.417,0.054-0.409,0.211-0.669,0.464
			c-0.019,0.019-0.008,0.044-0.013,0.067c-0.006,0.033-0.013,0.057,0.005,0.086c0.022,0.035,0.052,0.068,0.099,0.068
			c0.093-0.001,0.134,0.052,0.216,0.106c0.15,0.099,0.354,0.041,0.518,0.029c0.34-0.025,0.637-0.062,0.948-0.208
			c0.299-0.14,0.538-0.409,0.77-0.642c0.015-0.015,0.031-0.031,0.046-0.046c0.21-0.206,0.476-0.392,0.399-0.721
			c-0.04-0.174-0.155-0.216-0.295-0.197C74.983,21.599,74.498,22.01,74.382,22.104z"/>
	</g>
</g>
<g id="Line_art">
	<path d="M80.692,47.937c-0.1,0.03-0.21,0.07-0.31,0.1c-2.96,0.98-5.95,1.83-8.89,2.78c-5.17,1.66-10.17,3.63-14.58,7.13
		c-0.07,0.05-0.11,0.11-0.14,0.17c-0.02,0.04-0.04,0.08-0.04,0.12c-0.11,0.16-0.16,0.36-0.07,0.62c0.01,0.04,0.03,0.09,0.04,0.13
		c0.01,0.02,0.01,0.03,0.03,0.05c0.01,0.02,0.02,0.04,0.03,0.06c0.35,0.77,0.7,1.54,1.05,2.31c0.09,0.37,0.49,0.74,0.89,0.69
		c1.15-0.14,2.26-0.33,3.33-0.58c7.85-1.8,13.61-6.38,19.31-12.46C81.782,48.587,81.362,47.717,80.692,47.937z M70.162,56.517
		c-1.34,0.89-3.4,2.06-5.5,2.74c1.21-1.6,2.49-3.01,4.06-4.33c1.62-1.36,3.5-2.34,5.27-3.45c1.37-0.44,2.74-0.88,4.11-1.31
		C75.562,52.417,73.032,54.617,70.162,56.517z"/>
	<path d="M97.792,40.507c-2.09-0.05-4.57-0.08-7.08,0.07c-6.76,0.41-13.14,1.78-18.96,4.06c-4.27,1.67-8.01,3.97-11.31,6.43
		c-0.63-1.22-3.08-4.26-4.47-4.79c0.12-0.5,0.26-1.01,0.41-1.52c2.92-9.92,9.22-18.51,14.76-24.88c1.28,4.83,1.31,9.59,1.17,13.66
		c-0.01,0.26,0.17,0.48,0.43,0.51c0.25,0.03,0.5-0.13,0.55-0.38l0.57-2.49c1.15-5,2.33-10.18,3.06-15.34
		c0.04-0.25,0.09-0.56,0.15-0.91c0.41-2.41,1.1-6.43-0.64-7.88c-1.99-1.67-4.68,1.19-5.97,2.57l-0.31,0.32
		c-3.89,4.04-7.4,8.53-10.7,13.19c0.79-4.57,1.57-9.27,1.98-13.94c0.02-0.25,0.06-0.56,0.1-0.91c0.28-2.43,0.75-6.48-1.06-7.84
		c-2.08-1.56-4.61,1.45-5.82,2.89l-0.29,0.34c-7.13,8.23-12.76,18.07-18.19,27.59c-1.17,2.04-2.37,4.15-3.58,6.21
		c-0.04-0.02-0.08-0.03-0.12-0.04c-1.71-0.34-4.12-0.6-6.15,0.01c-0.02-1.3-0.06-2.61-0.14-3.93c-0.37-6.15-1.73-11.91-4.04-17.1
		c-2.58-5.83-6.25-11.09-9.8-16.19c-0.11-0.15-0.3-0.23-0.49-0.2c-0.19,0.03-0.34,0.16-0.4,0.35c-0.82,2.78-1.29,5.11-1.48,7.31
		c-0.97,11.34,1.85,23.92,7.98,35.8c-0.06,0.03-0.12,0.08-0.16,0.15c-0.37,0.57-0.76,1.14-1.14,1.72
		c-2.91,4.36-5.92,8.88-7.41,13.92c-1.31,4.43-0.64,8.35,1.99,11.64c0.93,1.16,2.22,2.01,3.47,2.84c0.67,0.44,1.31,0.86,1.88,1.33
		c1.17,1.85,2.97,3.42,4.84,4.12c0.97,0.36,2.43,0.44,3.98,0.25c0.01,0,0.01,0.01,0.02,0.01c0.66,0.29,1.33,0.59,2.01,0.89
		c1.51,0.67,3.07,1.37,4.67,2.01c-0.42,7.21-6.71,12.67-9.29,19.22c-0.98,2.48-2.1,5.31-2.56,8.14c-2.44-1.88-5.5-3.5-8.37-2.39
		c-3.25,1.25-3.65,5.89-3.55,9.29c-2.25-1.32-5.15-1.89-7.46-2.08c-0.7-0.05-0.97,0.55-0.84,1.08v0.01c0,0.04,0,0.07,0.01,0.11
		c0.17,1.24,0.02,2.48,0.23,3.72c0.1,0.59,0.11,1.36,0.35,1.97c0.12,0.86,0.26,1.71,0.39,2.54c0.38,2.45,0.53,5.19,1.47,7.5
		c-0.16,0.46,0.38,1.08,0.97,0.81c0.93-0.42,1.86-0.89,2.75-1.41c0,0.16,0.01,0.32,0.02,0.48c0.1,1.65,0.68,3.77,1.74,5.05
		c0.14,0.17,0.45,0.25,0.65,0.17c0.05-0.01,0.09-0.03,0.13-0.05c0.03-0.01,0.07-0.03,0.09-0.05c0.19-0.01,0.38-0.09,0.52-0.22
		c1.68-1.57,3.34-2.73,5.43-3.63c1.56-0.67,3.15-1.36,4.25-2.7c1.85-2.25-0.26-5.49-2.58-6.56c0.43-0.02,0.88-0.01,1.36,0.04
		c1.5,0.15,2.95,0.13,4.41-0.11c0.01,0.03,0.02,0.07,0.03,0.1c0.23,0.58,0.5,1.12,0.79,1.64c2.09,4.82,6.54,8.71,11.67,9.75
		c0,0.05,0,0.09,0,0.14c0.01,0.69,0.17,1.36,0.34,2.05c0.32,1.23,0.77,2.35,1.37,3.43l0.23,0.41c0.38,0.71,0.79,1.44,1.31,2.09
		c0.31,0.38,0.67,0.71,1.02,1.02c0.18,0.16,0.36,0.33,0.54,0.5l0.2,0.21c0.23,0.22,0.46,0.46,0.73,0.68
		c-0.66,0.74-1.21,1.65-1.62,2.23c-0.44,0.61-1.14,1.42-1.71,2.3c-0.94-0.18-1.93-0.15-2.88,0.13c-1.32,0.38-2.29,1.51-2.89,2.84
		c0,0.01,0,0.01-0.01,0.02c-0.73,1.11-0.91,2.48-1.33,3.81c-0.12,0.4,0.08,0.88,0.44,1.08c0.72,0.39,1.48,0.42,2.26,0.32
		c0,0,0,0,0.01,0c0.8,0.1,1.71-0.09,2.49-0.19c0,0.19,0.03,0.39,0.1,0.57c0.14,0.39,0.48,0.55,0.8,0.51
		c1.2,0.34,2.75,0.61,4.15,0.49c0.67,0.04,1.35,0.03,2.02-0.02c1.94-0.13,4.72-0.12,6.64-0.96c0.17,0.05,0.35,0.02,0.47-0.15
		c0.04-0.05,0.07-0.09,0.1-0.14c0.03-0.01,0.06-0.03,0.09-0.05c0.56-0.35,0.6-0.99,0.33-1.43c-0.11-1.21-1.2-2.35-2.16-3.25
		c-0.16-0.15-0.33-0.3-0.51-0.43c1.1-1.66,2.21-3.27,3.73-4.76c0.85-0.84,2.08-2.34,1.95-3.65c-0.22-2.28-1.51-3.93-2.12-6.15
		c-0.71-2.58,0.02-5.24,1.21-7.52c2.16,1.98,4.64,3.57,7.06,5.12c0.59,0.38,1.18,0.76,1.76,1.14l1.32,0.87
		c0.08,0.06,0.18,0.08,0.27,0.08c0.09,0,0.17-0.02,0.25-0.06c0.16-0.09,0.26-0.27,0.25-0.46c-0.02-0.48-0.19-0.84-0.36-1.18
		l-0.26-0.52c-0.14-0.28-0.29-0.56-0.41-0.85c-0.19-0.44-0.42-0.85-0.64-1.25c-0.23-0.41-0.45-0.8-0.62-1.21
		c-0.18-0.42-0.37-0.84-0.56-1.25c-0.08-0.17-0.16-0.34-0.23-0.51c0.67,0.52,1.235,1.144,1.9,1.73
		c1.811,1.597,2.171,2.612,2.51,3.21c0.11,0.23,0.23,0.46,0.34,0.7c0.39,0.81,1.57,0.22,1.39-0.59c-1.03-4.56-3.24-8.56-6.08-12.14
		c-0.01-0.01-0.01-0.02-0.02-0.03c-1.92-3.12-4.52-6-7.1-8.52c-1.34-1.79-3.12-3.23-5.29-4.35c-2.99-1.53-5.24-4.05-7.7-6.28
		c-0.81-0.74-2.05-1.71-3.14-2.81c-2.06-2.89-3.05-6.14-2.21-9.94c0.56-2.55,2.31-4.85,3.81-7.06c0.06-0.09,0.12-0.18,0.18-0.27
		c0.1,0.02,0.2,0.05,0.3,0.07c1.75,0.4,3.53,0.65,5.31,0.65c0.42,0,0.84-0.02,1.26-0.04c5.39-0.37,9.77-3.92,13-10.55
		c1.99-4.07,3.3-7.56,4.05-10.83c1.09-0.06,2.18-0.16,3.27-0.3c5.64-0.74,11.09-2.99,16.2-6.68c5.75-4.15,10.67-9.41,15.43-14.49
		l0.9-0.96c0.13-0.14,0.17-0.35,0.09-0.53C98.162,40.637,97.992,40.517,97.792,40.507z M1.362,116.507
		c-0.01-0.03-0.01-0.06-0.02-0.09c0.02,0.01,0.03,0.01,0.05,0.01C1.372,116.457,1.362,116.477,1.362,116.507z M37.112,157.347
		c-0.07,0.02-0.14,0.04-0.22,0.04c0-0.01,0.01-0.03,0.03-0.05c0.07,0,0.13,0,0.19-0.01
		C37.112,157.337,37.112,157.347,37.112,157.347z M22.212,77.297c-0.03-0.04-0.07-0.07-0.12-0.09c-0.96-0.38-2.02-1.13-2.93-2.07
		c-0.39-0.51-0.74-1.06-1.06-1.58c-0.87-1.43-1.33-2.56-1.08-3.7c0.28-0.93,1.07-1.72,2.59-2.2c3.48-1.09,7.96,1.62,9.94,4.3
		C33.112,76.787,25.232,77.917,22.212,77.297z M20.292,116.497c0,0.06,0,0.12,0.01,0.19c0.01,0.07,0.02,0.14,0.05,0.2
		c-0.09,0.03-0.19,0.06-0.29,0.09c-2.02,0.56-3.99,0.63-5.97,0.74c0.01-0.65,0.02-1.3,0.17-1.98c0.11-0.53,0.22-1.08,0.43-1.58
		c0.15-0.35,0.38-0.61,0.51-0.96c1.44,1.31,3.29,2.49,4.9,2.59C20.142,116.037,20.212,116.277,20.292,116.497z M10.352,118.217
		c-0.33-0.37-0.69-0.7-1.09-1c0.14-3.27,0.21-7.74,3.53-8.99c2.5-0.94,5.18,1.34,7.28,3.1c-0.01,0.02-0.01,0.04-0.01,0.06
		c-0.16,0.57-0.15,1.25-0.16,1.78c-0.01,0.37-0.01,0.76,0.01,1.15c-0.04,0-0.07,0-0.11-0.01c-0.95-0.15-1.82-0.6-2.64-1.07
		c-1.45-0.82-2.51-2.1-3.86-3.05c-0.2-0.14-0.42,0.13-0.32,0.32c0.33,0.64,0.95,1.44,1.74,2.23c-0.88,0.06-1.49,1.37-1.75,2.08
		c-0.29,0.78-0.61,1.99-0.59,3.03c-0.61,0.05-1.22,0.13-1.84,0.24C10.442,118.107,10.382,118.147,10.352,118.217z M42.112,151.617
		c-0.4,0.06-0.79,0.16-1.19,0.3c-0.61-0.65-1.35-1.18-2.16-1.55c0.39-0.63,0.87-1.22,1.31-1.82c0.91-1.27,1.78-2.38,2.86-3.49
		c0.35-0.36,0.09-0.9-0.38-0.93c-0.48-0.03-0.94,0.16-1.36,0.48c-0.27-0.18-0.5-0.42-0.76-0.68l-0.21-0.22
		c-0.18-0.18-0.38-0.36-0.57-0.53c-0.34-0.3-0.65-0.59-0.91-0.91c-0.47-0.58-0.85-1.27-1.22-1.94l-0.23-0.42
		c-0.56-1-0.97-2.04-1.27-3.19c-0.16-0.62-0.3-1.22-0.31-1.79c0.8,0.11,1.62,0.14,2.45,0.09c0.3-0.02,0.57-0.14,0.78-0.32
		c0.31,2.51,1.22,4.91,2.83,7.31c0.61,0.91,1.34,1.62,2.09,2.4c1.34,1.38-0.7,3.69-1.1,4.92
		C42.492,150.147,42.252,150.897,42.112,151.617z M34.222,89.707c0,0-0.01-0.01-0.02,0c0.02-0.04,0.04-0.08,0.07-0.12
		C34.252,89.627,34.232,89.667,34.222,89.707z M33.732,88.557c-1.1,1.71-1.88,3.66-2.32,5.79c-0.45,2.18-0.66,4.56-0.63,7.28
		c0.02,2.16,0.18,4.98,1.21,7.57c0.82,2.06,2.23,3.71,4.19,4.91c0.74,0.45,1.52,0.85,2.27,1.23c1.06,0.53,2.06,1.04,2.99,1.7
		c1.84,1.34,3.11,3.21,4.1,4.87c0.29,0.48,0.57,0.97,0.85,1.45c0.99,1.7,2.02,3.46,3.28,5.05c0.4,0.51,0.83,0.99,1.27,1.45
		c-1.36,3.5-2.98,6.72-1.19,10.62c2.33,5.06-1.67,7.89-3.93,11.65c-0.62-0.28-1.26-0.46-1.92-0.54c0.3-1.35,0.68-2.67,1.4-3.99
		c0.58-1.07,0.77-1.73,0.42-2.88c-0.41-1.34-3.02-3.55-3.74-4.56c-2.59-3.68-2.38-8.27-1.63-12.52c0.1-0.55-0.7-0.78-0.83-0.23
		c-0.45,1.83-0.69,3.56-0.7,5.23h-0.01c-2.01-1.02-4.59-0.91-6.78-1.65c-1.36-0.46-2.51-1.16-3.53-2.02
		c-0.01-0.01-0.02-0.02-0.02-0.03c-0.5-0.66-1.08-1.28-1.52-1.87c-0.63-0.83-1.23-1.68-1.77-2.58c-0.32-0.53-0.55-1.19-0.89-1.73
		c2.72-1.13,5.03-4,5.59-6.72c0.11-0.51-0.5-0.93-0.9-0.53c-1.63,1.69-2.56,3.74-4.54,5.14c-1.9,1.34-4.45,1.25-6.64,1.12
		c-2.57-0.15-4.19,0.61-5.93,1.99c0.08-0.59,0.1-1.21,0.05-1.86c-0.1-1.21-0.5-2.23-1.11-3.09c0.72,0.28,1.46,0.47,2.2,0.58
		c0.1,0.05,0.21,0.07,0.32,0.05c2.67,0.38,5.41-0.14,8.08-0.73c1.79-0.39,5.19-2.27,4.44-4.47c-0.02-0.05-0.06-0.09-0.11-0.09
		c-0.37,0.03-0.76-0.01-1.05,0.27c-0.7,0.7-1.43,1.22-2.23,1.63c-0.18-1.25-0.25-2.48-0.22-3.68c-0.01-0.32,0-0.63,0.02-0.94
		c0.28-5.3,2.28-10.15,5.06-15.06c2.61-4.58,5.25-8.34,5.42-13.75c1.47,0.59,2.98,1.12,4.51,1.55
		C36.002,85.547,34.752,86.967,33.732,88.557z M33.762,90.537c-0.03,0.09-0.06,0.18-0.09,0.27c0.01-0.04,0.02-0.08,0.02-0.11
		c0-0.01,0-0.02,0-0.02c0.01-0.01,0.01-0.01,0.01-0.01C33.722,90.617,33.742,90.577,33.762,90.537z M32.572,93.757 M32.502,94.117
		 M96.522,41.617c-4.73,5.06-9.62,10.28-15.28,14.37c-4.97,3.59-10.27,5.78-15.75,6.5c-0.97,0.13-1.95,0.21-2.92,0.27
		c-0.35,0.03-0.69,0.05-1.04,0.06c-1.67,0.08-3.31,0.09-4.83,0.1c-0.27,0-0.5,0.22-0.5,0.5c0.01,0.27,0.23,0.5,0.5,0.5
		c0.01,0,0.01,0,0.01,0c1.45-0.01,3-0.02,4.6-0.09c-0.74,3.11-2.01,6.45-3.91,10.34c-3.11,6.38-7.09,9.64-12.17,9.99
		c-2.07,0.14-4.15-0.1-6.22-0.57c-0.14-0.03-0.27-0.06-0.4-0.1c-0.01-0.01-0.02-0.02-0.03-0.03c-0.07-0.07-0.16-0.11-0.25-0.11
		c-0.08-0.02-0.16-0.02-0.24,0.01c-3.55-0.92-7.03-2.48-10.25-3.92c-0.23-0.11-0.46-0.21-0.69-0.31c3.67-0.89,7.08-3.22,5.2-6.75
		c-2.54-4.78-9.22-8.4-14.41-5.9c-0.08,0-0.18,0.03-0.27,0.09c-0.06,0.04-0.12,0.08-0.18,0.13c-0.01,0-0.02,0.01-0.02,0.01
		c-0.18,0.1-0.36,0.21-0.53,0.32c-2.21,1.47-2.33,3.76-1.4,5.85c0.03,0.1,0.06,0.2,0.11,0.3c-0.13-0.09-0.27-0.18-0.4-0.27
		c-1.18-0.78-2.4-1.59-3.24-2.63c-2.42-3.02-3.03-6.63-1.82-10.72c1.45-4.9,4.42-9.35,7.29-13.65c0.28-0.41,0.55-0.82,0.82-1.23
		c0.08-0.03,0.15-0.08,0.2-0.14c0.39,0.71,0.78,1.42,1.19,2.13c0.09,0.16,0.26,0.25,0.43,0.25c0.09,0,0.17-0.02,0.25-0.07
		c0.24-0.14,0.32-0.44,0.19-0.68c-0.8-1.39-1.55-2.79-2.25-4.2c-5.68-11.4-8.27-23.39-7.34-34.2c0.16-1.87,0.53-3.83,1.16-6.11
		c3.32,4.79,6.7,9.74,9.1,15.15c2.26,5.09,3.59,10.73,3.95,16.76c0.14,2.32,0.16,4.64,0.14,6.93c-0.01,0.95-0.02,1.89-0.03,2.83
		c-0.01,0.27,0.22,0.5,0.49,0.5c0.31-0.01,0.5-0.21,0.51-0.49c0.02-1.59,0.04-3.22,0.04-4.86c1.89-0.66,4.32-0.38,5.73-0.11
		c-0.18,0.31-0.36,0.62-0.54,0.92c-0.14,0.24-0.06,0.55,0.17,0.69c0.08,0.04,0.17,0.07,0.26,0.07c0.17,0,0.34-0.09,0.43-0.25
		c1.56-2.64,3.13-5.39,4.65-8.05c5.42-9.47,11.02-19.27,18.09-27.43l0.29-0.35c1.02-1.2,3.14-3.72,4.46-2.73
		c1.36,1.01,0.89,5,0.67,6.92c-0.04,0.37-0.08,0.69-0.1,0.94c-0.4,4.48-1.13,8.99-1.89,13.4c-0.25-3.09-0.77-6.49-1.92-9.83
		c0.83-1.1,1.66-2.14,2.47-3.1c0.17-0.21,0.15-0.53-0.07-0.7c-0.21-0.18-0.52-0.15-0.7,0.06c-0.78,0.92-1.54,1.86-2.26,2.82
		c-0.2,0.24-0.39,0.48-0.57,0.73c-7.09,9.3-12.43,19.78-14.56,28.71c-0.06,0.27,0.1,0.54,0.37,0.61c0.04,0.01,0.08,0.01,0.12,0.01
		c0.22,0,0.43-0.15,0.48-0.38c0.03-0.12,0.06-0.24,0.09-0.36c0.86-0.14,2.43,0.86,3.48,1.52c0.29,0.19,0.56,0.36,0.79,0.49
		c-0.27,0.41-0.54,0.82-0.81,1.23c-0.16,0.23-0.1,0.54,0.13,0.69c0.09,0.06,0.19,0.08,0.28,0.08c0.16,0,0.32-0.07,0.42-0.22
		c1.7-2.55,3.41-5.21,5.07-7.79c2.1-3.26,4.22-6.55,6.43-9.8c0.41-0.62,0.83-1.23,1.26-1.84c3.63-5.24,7.49-10.3,11.82-14.79
		l0.32-0.34c1.08-1.15,3.33-3.55,4.6-2.49c1.29,1.09,0.62,5.05,0.3,6.95c-0.07,0.36-0.12,0.68-0.16,0.94
		c-0.63,4.44-1.6,8.91-2.59,13.27c-0.09-3.11-0.43-6.57-1.42-9.98c0.92-1.03,1.81-2,2.65-2.9c0.19-0.2,0.18-0.52-0.02-0.71
		c-0.21-0.18-0.52-0.17-0.71,0.03c-0.79,0.84-1.61,1.74-2.46,2.69c-0.19,0.21-0.37,0.42-0.57,0.63c0.01,0.01,0,0.01,0,0.01
		c-5.71,6.5-12.34,15.39-15.39,25.74c-0.71,2.42-1.1,4.83-1.38,6.87c-0.03,0.27,0.16,0.52,0.43,0.56c0.02,0.01,0.05,0.01,0.07,0.01
		c0.24,0,0.46-0.19,0.49-0.44c0.18-1.29,0.4-2.72,0.72-4.21c1.06,0.54,3.36,3.28,3.85,4.36c0.01,0.02,0.02,0.04,0.03,0.05
		c-1.93,1.48-3.7,2.99-5.34,4.45c-0.21,0.18-0.23,0.5-0.04,0.7c0.1,0.11,0.23,0.17,0.37,0.17c0.12,0,0.24-0.04,0.33-0.13
		c4.55-4.04,10.15-8.54,17.17-11.3c5.72-2.24,11.99-3.59,18.65-3.99c2.04-0.12,4.06-0.12,5.88-0.09L96.522,41.617z M57.722,25.597
		c-2.48,3.61-4.85,7.29-7.2,10.93c-1.21,1.88-2.45,3.81-3.7,5.71c-0.23-0.13-0.5-0.3-0.8-0.49c-1.16-0.74-2.6-1.64-3.76-1.69
		c2.54-9.42,8.21-19.15,13.63-26.43C57.222,17.777,57.602,21.907,57.722,25.597z"/>
	<path d="M24.042,40.487c0-0.01,0-0.02,0-0.03c-0.41-8.44-1.41-16.86-6.66-23.77c-0.41-0.55-1.54-0.48-1.46,0.39
		c0.01,0.14,0.02,0.27,0.03,0.41c0.65,8.02-0.11,15.9,3.53,23.33c0.01,0.01,0.01,0.02,0.02,0.03c-0.09,0.19-0.06,0.41,0.05,0.59
		c0.14,0.23,0.4,0.38,0.7,0.3c1-0.17,2-0.33,3-0.49C23.652,41.227,24.042,40.917,24.042,40.487z M22.462,38.377
		c-3.55-4.08-3.37-11.32-3.91-17.03c2.02,3.4,3.39,6.8,3.9,11.18C22.682,34.477,22.502,36.427,22.462,38.377z"/>
</g>
</svg>
