<svg version="1.1" id="Layer_1" xmlns="http://www.w3.org/2000/svg" xmlns:xlink="http://www.w3.org/1999/xlink" x="0px" y="0px"
	 width="4445.667px" height="1213px" viewBox="0 0 4445.667 1213" enable-background="new 0 0 4445.667 1213" xml:space="preserve">
<g opacity="0.5">
	<g>
		<path opacity="0.3" fill="#0F1D22" d="M2431.5,186c-4,0-21.299,30.025-21.299,30.025l241.667,344.358
			C2651.868,560.383,2435.5,186,2431.5,186z"/>
		<polygon fill="#0F1D22" points="1918.483,501.357 1844.764,501.357 1890.94,543.158 		"/>
		<polygon fill="#0F1D22" points="1919.436,568.953 1925.009,573.998 2034.673,573.998 2021.154,593.998 2087.929,599.764
			2110.072,566.158 		"/>
		<path opacity="0.3" fill="#0F1D22" d="M2082.753,229.678c0,0-255.913-138.678-262.583-137.678s-59.644,86.022-59.644,86.022
			l217.511,232.95L2082.753,229.678z"/>
		<path opacity="0.3" fill="#0F1D22" d="M1586.5,287c7-4.5,24.386,4.812,27.443,5.406c3.057,0.594,14.173,15.703,18.115,16.398
			s86.136-109.741,86.136-109.741S1602.216,60.086,1596.358,56.293c-5.858-3.793-79.396,7.797-87.377,11.752
			C1501,72,1469.233,170.232,1463.5,176s-24.812,24.965-24.812,24.965l95.079,145.905C1533.767,346.87,1579.5,291.5,1586.5,287z"/>
		<polygon fill="#0F1D22" points="2704.181,649.258 2667.402,649.797 2706.485,653.171 		"/>
		<path opacity="0.3" fill="#0F1D22" d="M2356.717,191.825l2.601-2.341c0,0-23.152-33.151-25.819-34.484s-35.667,6-40,8
			s-9.727,18.062-9.727,18.062l35.968,66.883L2356.717,191.825z"/>
		<path opacity="0.8" fill="#0F1D22" d="M2714.137,649.112l-62.269-88.729l-241.667-344.358c0,0-25.524-43.307-31.112-44.333
			c-5.589-1.026-19.77,17.792-19.77,17.792l-2.601,2.341l-36.977,56.12l-35.968-66.883c0,0-47.606-97.395-53.273-99.062
			s-69.667,18.667-74,20s-73.747,127.678-73.747,127.678l-104.716,181.294c0,0-226.037-249.972-231.537-247.972
			s-111.634,145.859-114.442,145.804s-12.994-18.972-15.891-19.638c-2.897-0.666-28.5-6.667-30.833-5.667
			c-2.333,1-51.566,63.37-51.566,63.37l-95.079-145.905c0,0-55.688-97.465-63.188-96.965s-44.085,28.499-48.793,35.464
			S988.579,639.705,988.579,639.705h743.125l-13.519-20H1975.5l-50.491-45.707l-5.573-5.045l190.636-2.795l-22.143,33.606
			l-38.941,59.101l618.414-9.068l36.78-0.539L2714.137,649.112z M1918.483,501.357l-27.542,41.801l-46.176-41.801H1918.483z"/>
	</g>
	<polygon fill="#0F1D22" points="1890.94,543.158 1918.483,501.357 1844.764,501.357 	"/>
</g>
<path fill="#F5E480" d="M3854.126,935.622c-49.222-19.191-98.429-37.505-147.58-54.954H455.386
	c-24.797,17.755-49.632,36.069-75.137,54.954c-19.997,14.807-40.407,29.966-61.544,45.492h3648.162
	C3929.288,965.425,3891.703,950.272,3854.126,935.622z"/>
<path fill="#D0A174" d="M4055.614,1045.883c60.271,45.905,120.411,95.696,180.223,149.585h119.998"/>
<path fill="#D0A174" d="M233.767,1036.259C137.115,1082.164-35.5,1178,6.694,1193.936c64.14,26.073,1069.182,17.663,2107.51,10.989
	c1102.054,3.512,2248.67,3.883,2302.489-9.457c125.289-33.669-200.607-103.68-301.405-149.585
	c-49.435-22.513-98.921-44.102-148.421-64.769H318.705c-0.26,0.191-0.516,0.38-0.776,0.571"/>
<path fill="#108042" d="M2779.146,665.123c0,0-283.18-499.79-288.746-500.123c-5.566-0.333-54.46,41.063-57.012,45.691
	s-124.807,226.691-131.347,227.5S2061.725,14.076,2048.988,6.663s-99.821-7.337-117.154,0
	c-17.333,7.337-269.421,422.97-278.21,423.82c-8.79,0.85-128.134-146.58-133.295-149.032c-5.161-2.452-56.882,11.558-59.186,15.048
	c-2.304,3.491-36.482,55.783-42.562,55.808c-6.08,0.025-67.859-89.402-71.802-93.189c-3.944-3.786-48.277-16.453-57.611-16.453
	c-9.333,0-50.916,13.333-56.791,16.667c-5.875,3.333-229.819,342.294-229.819,342.294h193.031l-26.008,29.078h663.125
	l-54.629-61.078h448.081l-55.135,95.496H2779.146z"/>
<path fill="#14592F" d="M1138.418,399.274c0,0,30.082,42.726,35.582,43.726s24.167-20.667,30-21.5s42.578,6.874,46.206,10.687
	c3.628,3.813,0.961,13.48,6.794,15.313s53.833-40.833,60.167-39.5c6.333,1.333,55.333,51.667,62.833,51s44.261-50.832,50.212-51.749
	c5.951-0.917,43.954-9.917,50.288-7.751s84.667,86.5,97.333,86.5c12.667,0,29.333-48.667,40-49.333c10.667-0.667,42.667,55,52,54
	c9.333-1,100.667-134.333,107.167-139.167s27.986-10.759,35-5s54.833,51.833,61.5,50.5s58.342-90.512,70.004-96.09
	s29.662-7.244,40.496,0.09s51.5,82,59.833,81.667c8.333-0.333,69-42,77.667-41.167s89.333,133.167,98.333,132.5
	s18.062-34.681,22.394-37.165c4.332-2.484,12.088-11.653,15.07-8.64c2.982,3.013,47.535,61.138,57.869,58.472
	c10.333-2.667,44.667-86,51.333-91.167s43.667-27.5,50-22.5s21,78.054,32,78.527s38.667-60.194,44-62.027s37.032,5.356,39.5,8.5
	s63.833,92.333,71.167,90.667C2610.5,487,2614.833,456,2622,448s26.97-8.349,26.97-8.349l31.383,54.356l95.18,164.857
	L1003.833,600.25L1138.418,399.274z"/>
<path fill="#146735" d="M810.5,703.326c0,0,165.796-131.756,283.129-137.756s86.154,13.281,259.487,8.614
	c173.333-4.667,183.649-57.278,350.982-56.612c167.333,0.667,161.984,35.498,323.984,37.498s152.649-24.666,347.983-17.999
	c195.333,6.667,286.811,133.493,445.478,139.493C2980.21,682.564,810.5,703.326,810.5,703.326z"/>
<path fill="#1BAF63" d="M767.439,705.326h22.759c13.957,5.43,28.981,10.585,44.011,13.317c16.963,4.626,33.926,4.626,50.89,3.084
	c18.505-1.542,37.011-4.626,55.516-6.168c20.047-3.084,40.095-3.084,61.684-1.542c40.095,1.542,81.732,9.253,123.369,10.795
	c38.553,0,77.105-4.626,115.658-3.084c40.095,3.084,80.19,9.253,120.285,12.337c41.637,1.542,83.274-3.084,126.453-6.168
	c37.011-3.084,74.021-4.626,112.574-6.168c38.553,0,78.648-3.084,117.2-3.084c38.553-1.542,77.105,1.542,115.658,3.084
	c38.553,0,78.648-1.542,118.742-1.542c41.637-1.542,83.274,0,124.911,3.084c41.637,3.084,84.816,4.626,126.453,1.542
	c29.3-1.542,58.6-7.711,87.9-9.253s60.142,3.084,87.9,4.626c63.227,6.168,124.911,6.168,188.137,6.168
	c32.384,0,64.769,0,97.153-3.084c33.926-1.542,67.853-6.168,101.779-7.711c33.927-1.542,69.395,0,103.321,1.542
	c41.637,1.542,84.816,1.542,126.453-4.626c14.631-1.219,29.263-4.36,43.894-7.149h48.74
	c-94.597-20.907-188.348-38.881-280.952-54.09c-66.702,0.186-84.47-57.932-170.429-66.275c-80.719-7.835-173.333,15.706-302,13.039
	c-115-9-197.255-59.842-283.255-52.842c-141,8-227.745,54.891-340.745,54.891c-159.688,0-270-32.581-338-31.891
	c-108-0.69-240.698,50.581-328,71.175L767.439,705.326z"/>
<g>
	<path fill="none" d="M3498.567,822.927c-0.59,0.055-1.176,0.118-1.756,0.195C3497.386,823.046,3497.981,822.991,3498.567,822.927z"
		/>
	<path fill="#149754" d="M563,824.375c18.885-2.988,53.924-4.042,70.971,1.473c23.62,7.641,48.068,0.968,72.265,3.771
		c18.623,2.158,32.473,15.614,50.008,20.861c27.236,8.15,49.852-4.182,75.529-10.885c18.175-4.745,32.484-4.199,50.735-0.078
		c25.145,5.678,50.516,8.367,76.305,8.08c23.33-0.26,46.441-4.091,69.75-4.386c27.442-0.347,54.69,6.999,82.008,2.454
		c19.879-3.307,39.746-9.694,59.85-11.221c11.025-0.838,22.126-0.714,32.998,1.548c11.792,2.453,23.958,6.562,36.089,6.358
		c21.649-0.363,43.597-5.992,65.241-3.465c48.329,5.643,94.374-6.075,142.511-6.053c25.144,0.011,49.808,4.921,74.866,6.417
		c23.501,1.403,46.474-1.41,69.875-1.157c24.979,0.27,49.558,6.661,74.506,6.761c22.534,0.09,41.703-8.974,63.494-11.354
		c10.326-1.127,20.145,0.175,29.883,1.914c4.796,0.78,9.586,1.728,14.365,2.645c7.036,1.218,14.138,2.157,21.467,2.07
		c20.769-0.247,40.527-10.18,61.411-8.255c15.75,1.452,29.961,2.223,45.742-0.371c9.51-1.563,18.98-3.521,28.633-4.004
		c23.884-1.194,51.97,9.802,73.501-3.363c15.571-9.521,27.814-20.701,46.972-18.672c21.867,2.316,41.297,11.261,63.87,11.472
		c13.574,0.127,27.214-0.348,40.73,1.127c12.94,1.412,25.492,2.617,38.402,0.002c19.392-3.928,37.372-12.204,56.979-15.003
		c15.081-2.153,33.083-8.93,47.77-1.804c15.39,7.468,24.882,4.815,40.178,1.64c4.377-0.909,10.881-0.919,14.987,1.461
		c13.057,7.569,23.098,15.294,39.241,15.112c8.215-0.093,15.303,1.02,22.963,4.197c10.791,4.475,28.581,12.735,40.362,8.934
		c9.221-2.975,15.917-9.769,25.391-11.779c4.239-0.9,9.462,2.792,12.124,5.654c3.553,3.821,7.352,8.033,11.545,11.579
		c2.55,1.944,5.127,3.787,7.761,5.3c5.524,2.821,11.715,3.871,18.823,1.413c16.082-5.561,33.059-16.295,50.318-17.589
		c8.165-0.612,13.482,1.119,20.251,5.594c13.822,9.136,26.469,5.231,40.912,1.533c17.287-4.426,34.382-5.774,51.428,0.347
		c13.024,4.676,29.329,9.463,42.915,4.458c9.319-3.433,18.727-8.738,28.551-10.694c14.185-2.824,24.25-0.837,35.555,8.105
		c15.136,11.973,28.134,1.059,44.26-0.095c10.174-0.728,20.919-3.75,31.08-3.163c12.652,0.732,24.85,7.589,37.779,3.752
		c8.966-2.661,17.71-5.526,27.141-5.81c21.937-0.661,42.765-6.723,64.075,0.233c13.149,4.292,24.474,2.786,37.813,1.383
		c11.472-1.206,22.335-0.747,33.796,0.003c16.007,1.048,24.25-5.711,38.503-10.251c8.687-2.767,17.966-0.943,26.459-3.977
		c6.768-2.418,15.53-6.87,23.012-6.019c9.237,1.051,17.248,5.2,26.273,7.131c15.859,3.394,28.521,2.442,44.428,1.235
		c9.551-0.725,15.235,2.132,24.25,4.205c20.23,4.651,41.195-8.272,61.904-3.764c8.254,1.797,16.801,4.221,25.06,0.954
		c4.213-1.666,7.791-2.903,12.295-3.529c4.114-0.572,8.91,2.381,12.427,4.202c17.015,8.808,22.55-2.522,36.665-6.367
		c6.442-1.755,13.376,3.81,19.077,5.495c13.527,3.996,24.735-2.536,37.969-3.262c2.758-0.151,6.354,1.725,8.865,2.495
		c6.879,2.107,13.494,2.691,20.65,1.744c0.58-0.077,1.166-0.14,1.756-0.195c8.454-0.93,17.941-0.723,27.269-1.147
		c10.039-1.78-61.008-18.844-91.442-27.783c-56.277-16.529-112.385-31.978-168.265-46.38
		c-59.195-15.256-118.134-29.338-176.748-42.292H767.939c-32.903,13.636-63.535,27.727-92.483,42.292
		c-29.716,14.952-57.669,30.405-84.509,46.38c-13.833,8.233-27.589,16.317-40.923,24.831c-0.455,0.443-0.46,0.478-0.102,0.65
		l0.452-0.275C555.438,816.969,551.739,826.157,563,824.375z"/>
	<path fill="#52B580" d="M3543.575,827.361c-5.524-1.755-11.044-3.478-16.565-5.212l-1.174-0.369
		c-9.328,0.424-18.815,0.217-27.269,1.147c-0.586,0.064-1.181,0.119-1.756,0.195c-7.157,0.946-13.771,0.363-20.65-1.744
		c-2.511-0.769-6.107-2.646-8.865-2.495c-13.233,0.726-24.441,7.258-37.969,3.262c-5.701-1.684-12.635-7.249-19.077-5.495
		c-14.115,3.845-19.65,15.174-36.665,6.367c-3.517-1.82-8.313-4.773-12.427-4.202c-4.504,0.626-8.082,1.862-12.295,3.529
		c-8.259,3.267-16.806,0.843-25.06-0.954c-20.709-4.508-41.674,8.415-61.904,3.764c-9.014-2.072-14.699-4.93-24.25-4.205
		c-15.907,1.208-28.569,2.159-44.428-1.235c-9.025-1.931-17.036-6.081-26.273-7.131c-7.481-0.851-16.243,3.601-23.012,6.019
		c-8.493,3.034-17.772,1.21-26.459,3.977c-14.253,4.54-22.496,11.298-38.503,10.251c-11.461-0.75-22.324-1.21-33.796-0.003
		c-13.34,1.403-24.665,2.909-37.813-1.383c-21.31-6.956-42.138-0.895-64.075-0.233c-9.431,0.284-18.175,3.149-27.141,5.81
		c-12.929,3.837-25.127-3.021-37.779-3.752c-10.161-0.588-20.906,2.434-31.08,3.163c-16.126,1.155-29.124,12.068-44.26,0.095
		c-11.305-8.942-21.371-10.929-35.555-8.105c-9.823,1.955-19.232,7.26-28.551,10.694c-13.586,5.005-29.891,0.218-42.915-4.458
		c-17.046-6.121-34.14-4.772-51.428-0.347c-14.443,3.698-27.09,7.603-40.912-1.533c-6.769-4.474-12.086-6.206-20.251-5.594
		c-17.26,1.295-34.237,12.028-50.318,17.589c-7.108,2.458-13.299,1.408-18.823-1.413c-2.634-1.514-5.211-3.356-7.761-5.3
		c-4.193-3.546-7.992-7.759-11.545-11.579c-2.662-2.862-7.884-6.554-12.124-5.654c-9.474,2.01-16.17,8.803-25.391,11.779
		c-11.78,3.801-29.571-4.458-40.362-8.934c-7.659-3.177-14.748-4.289-22.963-4.197c-16.144,0.182-26.184-7.542-39.241-15.112
		c-4.106-2.381-10.61-2.37-14.987-1.461c-15.297,3.175-24.789,5.828-40.178-1.64c-14.687-7.126-32.689-0.349-47.77,1.804
		c-19.607,2.799-37.587,11.075-56.979,15.003c-12.91,2.615-25.462,1.41-38.402-0.002c-13.517-1.475-27.156-1-40.73-1.127
		c-22.573-0.211-42.003-9.156-63.87-11.472c-19.158-2.03-31.401,9.151-46.972,18.672c-21.532,13.165-49.618,2.169-73.501,3.363
		c-9.653,0.483-19.123,2.441-28.633,4.004c-15.781,2.594-29.992,1.823-45.742,0.371c-20.883-1.926-40.642,8.007-61.411,8.255
		c-7.329,0.087-14.431-0.852-21.467-2.07c-4.778-0.917-9.568-1.865-14.365-2.645c-9.739-1.74-19.558-3.042-29.883-1.914
		c-21.791,2.379-40.96,11.444-63.494,11.354c-24.948-0.1-49.527-6.491-74.506-6.761c-23.401-0.253-46.374,2.56-69.875,1.157
		c-25.057-1.495-49.721-6.405-74.866-6.417c-48.137-0.022-94.183,11.697-142.511,6.053c-21.644-2.527-43.592,3.102-65.241,3.465
		c-12.131,0.203-24.297-3.905-36.089-6.358c-10.871-2.262-21.972-2.385-32.998-1.548c-20.105,1.527-39.972,7.914-59.85,11.221
		c-27.318,4.545-54.567-2.801-82.008-2.454c-23.309,0.295-46.42,4.126-69.75,4.386c-25.789,0.287-51.159-2.402-76.305-8.08
		c-18.251-4.121-32.56-4.667-50.735,0.078c-25.677,6.703-48.293,19.035-75.529,10.885c-17.535-5.247-31.385-18.703-50.008-20.861
		c-24.197-2.804-48.645,3.87-72.265-3.771c-17.047-5.515-52.086-4.461-70.971-1.473c-11.261,1.782-7.563-7.406-12.625-5.172
		l-0.452,0.275l-4.157,2.526c-2.773,1.783-5.552,3.562-8.309,5.358c-27.347,17.815-99.461,53.263-78.636,56.942
		c0.182,0.032,0.632,0.063,1.296,0.094c6.036,3.955,12.024,6.565,19.28,7.835c8.368,1.464,17.077-0.491,25.324,1.613
		c7.678,1.959,12.835,9.614,20.041,12.795c5.946,2.625,12.859-0.038,17.991-3.206c3.276-2.022,6.27-4.38,9.706-6.156
		c5.215-2.696,10.647-2.221,16.18-0.937c3.574,0.829,7.187,2.378,10.851,2.73c4.818,0.463,9.598,0.311,14.421-0.006
		c4.326-0.284,8.612-0.688,12.952-0.508c4.897,0.203,9.759,0.98,14.65,1.285c6.975,0.436,13.652-1.956,19.884-4.885
		c-0.964,2.764-0.019,5.281,3.965,5.591c5.088,0.396,7.222-1.703,7.354-6.265c2.901,0.76,5.757,1.612,8.479,2.908
		c2.891,1.377,5.309,3.719,7.833,5.655c5.268,4.037,10.506,6.534,16.946,8.003c5.001,1.141,9.724,0.023,13.623-3.282
		c2.043-1.732,3.453-3.991,4.952-6.165c2.908-4.216,7.373-5.183,12.138-5.794c11.526,2.409,22.727,5.566,34.154,8.354
		c10.351,2.526,19.549,1.783,28.452-4.243c4.567-3.092,9.201-5.38,14.866-5.239c6.679,0.167,13.417,2.46,19.975,3.629
		c4.819,0.858,9.512,1.004,14.385,1.224c5.646,0.255,11.471,0.495,17.028-0.714c5.255-1.144,10.253-3.636,15.32-5.387
		c7.018-2.426,13.029-2.179,19.662,1.185c3.893,1.975,7.883,4.762,12.316,5.307c5.905,0.727,11.444-0.444,17.056-2.249
		c5.662-1.821,11.102-3.307,17.046-3.917c6.179-0.634,12.426-0.428,18.618-0.128c5.953,0.289,11.426,1.85,17.044,3.684
		c4.778,1.56,9.462,2.434,14.46,1.573c4.175-0.719,8.1-2.994,11.98-4.578c5.246-2.141,10.662-1.994,16.104-1.072
		c0.036,0.265,0.194,0.51,0.525,0.609c4.738,1.406,8.999,2.313,13.974,2.004c5.896-0.366,11.529-2.13,17.486-2.051
		c5.55,0.074,11.222,1.515,16.727,2.232c6.174,0.804,12.495,1.066,18.717,0.958c5.177-0.089,10.281-1.092,15.388-1.845
		c6.454-0.952,13.001-1.421,19.515-1.702c12.446-0.539,24.854-1.712,37.306-2.141c11.626-0.401,23.206,2.03,34.782,0.305
		c5.715-0.852,11.233-2.423,17.029-2.733c6.101-0.326,12.275,0.019,18.372,0.289c6.168,0.273,11.298,2.101,16.776,4.801
		c3.91,1.927,7.766,3.107,12.136,2.309c5.048-0.922,8.71-4.646,14.077-4.985c6.113-0.387,12.181,2.753,18.081,3.922
		c6.563,1.301,13.552,1.586,20.154,0.506c8.474-1.385,16.701-4.142,25.277-4.879c7.464-0.641,14.897,1.054,22.295,1.82
		c7.742,0.802,15.642,0.633,23.353-0.325c0.065-0.008,0.115-0.037,0.172-0.057c0.125,0.042,0.261,0.064,0.418,0.029
		c3.372-0.746,6.468-1.498,9.344,1.041c1.536,1.357,2.939,2.837,4.522,4.149c3.084,2.556,6.536,4.175,10.367,5.237
		c7.054,1.955,15.725,2.018,19.421-5.055c3.89,2.492,7.731,4.921,12.222,6.194c4.471,1.267,10.124-0.07,14.281-1.767
		c5.267-2.15,9.791-5.697,15.044-7.871c6.633-2.746,13.339,2.827,18.745,5.948c4.215,2.434,8.371,3.663,13.211,4.002
		c6.275,0.44,12.71,0.501,19.004,0.614c11.25,0.201,22.458-3.115,32.359-8.257c0.103,0.025,0.217,0.029,0.34,0.007
		c6.252-1.147,12.51-2.151,18.866-2.469c6.781-0.34,13.221,0.782,19.775,2.384c11.472,2.805,22.293,5.616,34.202,4.552
		c12.112-1.083,23.742-5.21,35.803-6.796c12.144-1.598,23.885,0.26,35.931,1.73c12.162,1.484,24.099,1.884,36.313,0.825
		c12.394-1.074,24.574-1.374,37.006-1.352c12.193,0.021,24.382,0.723,36.565,0.03c12.386-0.705,24.705-2.229,37.073-3.16
		c12.041-0.906,23.593-0.763,35.541,1.097c11.524,1.795,22.896,4.344,34.537,5.383c11.802,1.053,22.927-0.217,34.357-3.157
		c12.198-3.138,24.609-4.214,37.186-3.708c12.682,0.51,24.851,3.361,37.212,5.951c11.065,2.319,22.127,2.998,33.334,1.338
		c11.974-1.774,23.629-5.69,35.785-6.147c11.678-0.439,23.425,1.409,34.941,3.255c0.088,0.105,0.2,0.197,0.368,0.244
		c5.167,1.436,10.385,2.471,15.723,3c5.722,0.567,11.642-0.984,17.072-2.614c5.851-1.757,11.657-3.599,17.775-4.141
		c6.243-0.553,12.604,0.299,18.831,0.715c5.673,0.379,11.432,0.647,17.115,0.465c6.362-0.203,12.505-0.783,18.884-0.297
		c11.798,0.897,23.3,2.739,35.143,1.129c5.627-0.765,11.173-1.984,16.778-2.883c6.933-1.112,13.875-0.209,20.751,0.859
		c5.255,0.816,10.541,1.558,15.861,1.723c6.312,0.196,12.566-0.828,18.818-1.512c11.983-1.31,23.66,2.884,35.647,2.56
		c5.753-0.156,11.475-0.963,17.224-1.23c6.166-0.287,12.292,0.526,18.398,1.271c5.698,0.696,11.296,1.173,17.031,0.706
		c5.783-0.471,11.506-1.597,17.2-2.665c6.068-1.137,12.133-2.265,18.314-2.514c6.122-0.246,12.263,0.44,18.324,1.215
		c11.901,1.523,24.075,0.71,36.027,1.866c5.638,0.545,11.348,1.119,17.015,0.768c5.372-0.333,10.592-2.169,15.787-3.432
		c13.306-3.237,25.503,0.065,38.668,2.101c11.429,1.768,21.994,0.866,33.283-1.162c12.255-2.202,23.88-0.4,36.104,0.987
		c11.816,1.34,23.858-0.313,35.709-0.523c3.798-0.068,7.6,0.143,11.398,0.167c12.331-1.199,24.368-1.249,36.245,2.719
		c10.595,3.539,20.101,8.042,31.5,8.191c11.568,0.151,23.632-1.334,35.066-2.99c12.537-1.816,24.524-5.607,37.241-6.501
		c5.887-0.414,11.793-0.304,17.664,0.266c6.53,0.634,12.769,2.519,19.172,3.818c11.193,2.27,23.211,1.243,34.543,0.787
		c11.568-0.465,22.949-2.485,34.045-5.767c12.346-3.652,23.898-6.734,36.867-4.893c11.506,1.633,22.679,4.721,34.274,5.912
		c12.227,1.256,24.407,1.002,36.607-0.35c12.185-1.35,24.212-2.392,36.486-2.151c5.702,0.112,11.414,0.224,17.09,0.8
		c6.29,0.639,12.467,2.559,18.616,3.987c10.99,2.553,22.162,2.526,33.004-0.806c5.881-1.807,11.796-3.512,17.975-3.81
		c6.72-0.324,13.533,1.217,20.102,2.456c11.657,2.199,22.469,3.032,34.284,1.485c12.198-1.598,24.269-3.126,36.578-3.548
		c8.182-0.28,16.43-0.103,24.594-0.727c0.164,0.238,0.446,0.397,0.806,0.323c9.069-1.865,17.295-0.847,26.169,1.333
		c3.694,0.907,7.321,1.976,11.079,2.604c3.577,0.598,7.296,0.331,10.909,0.331c6.789,0,12.471-2.2,18.569-5.015
		c4.37-2.018,8.513-3.812,13.401-3.925c4.188-0.097,8.06,1.153,11.888,2.637c-2.912,2.775-3.047,6.02,1.074,8.511
		c4.222,2.553,7.141,0.073,8.255-3.877c4.396,1.729,10.119,4.733,12.58-0.423c2.777,1.153,5.522,2.84,8.616,2.568
		c0.755-0.067,1.496-0.481,2.167-0.798c2.749-1.298,4.781-1.469,7.749-0.764c3.942,0.937,6.528-0.639,7.614-3.939
		c12.079-0.484,24.105-1.042,36.125-2.352c6.065-0.661,12.136-0.912,18.173,0.129c5.857,1.01,11.442,3.769,17.06,5.635
		c10.544,3.503,20.874,2.456,31.142-1.316c4.842-1.779,9.57-3.762,14.606-4.948c6.71-1.58,13.46-0.525,20.153,0.535
		c5.259,0.833,10.526,1.358,15.857,1.251c6.231-0.124,12.306-1.151,18.568-0.915c11.706,0.441,22.583,5.174,34.243,5.851
		c12.155,0.705,23.81-4.162,35.726-5.629c10.443-1.285,21.119,3.855,30.629-2.425c1.882-1.243,3.506-2.886,5.098-4.48
		c4.991-0.008,7.583-0.012,7.583-0.012C3653.136,863.174,3598.295,844.746,3543.575,827.361z"/>
</g>
<g>
	<path fill="none" d="M2050.447,9.79c-2.233,6.262-30.768,15.064-60.593,15.064c-26.844,0-52.327-7.006-58.763-12.964
		c0.085,0.691,0.197,1.377,0.393,2.034c0.61,2.047,1.919,2.891,3.527,4.045c1.578,1.134,2.513,2.84,3.598,4.392
		c1.427,2.041,2.796,3.158,5.639,1.873c0.771-0.348,1.783-0.896,2.67-0.782c1.514,0.195,2.557,0.84,3.576,1.979
		c1.273,1.424,3.24,4.524,5.547,3.64c1.529-0.586,3.198-2.458,4.959-2.322c3.809,0.293,4.356,4.909,7.364,6.461
		c4.706,2.427,6.384-6.948,11.222-4.892c1.852,0.787,3.021,4.008,4.096,5.513c3.13,4.38,5.672-0.691,8.316-2.013
		c1.706-0.853,3.477-1.016,5.171,0.083c1.524,0.989,3.484,2.517,5.373,1.481c0.667-0.365,1.274-0.787,1.882-1.242
		c2.707-2.024,4.68-2.172,7.3-0.072c2.43,0.768,4.278,0.848,6.435-0.904c0.587-0.477,1.212-1.072,1.907-1.379
		c1.411-0.624,2.731-0.864,4.276-0.643c1.262,0.181,2.819,0.652,4.078,0.529c2.057-0.202,2.828-1.494,3.809-2.993
		c0.888-1.358,1.742-2.509,3.252-3.194c1.558-0.706,3.507,0.015,5.069,0.282c3.499,0.597,5.194-1.255,6.802-4.091
		c1.01-1.779,2.307-3.409,3.3-5.18C2051.618,12.773,2051.297,11.213,2050.447,9.79z"/>
	<path fill="#209947" d="M2050.02,7.542c-0.027-0.031-0.058-0.045-0.087-0.067c-4.508-5.028-31.484-6.486-59.831-6.486
		c-31.066,0-60.582,1.915-60.582,8.198c0,0.442,0.16,0.9,0.44,1.368c0.192,1.73,0.407,3.433,1.057,5.077
		c0.751,1.898,3.229,2.868,4.566,4.231c2.699,2.752,3.729,7.625,8.451,5.592c2.161-0.931,3.59-1.417,5.373,0.286
		c0.681,0.65,1.264,1.414,1.885,2.119c0.845,0.96,1.984,2.09,3.318,2.266c1.862,0.246,3.217-0.834,4.723-1.773
		c3.063-1.911,4.993,1.932,6.57,3.917c2.595,3.264,5.34,2.599,8.094-0.021c1.062-1.01,1.86-2.117,3.086-2.964
		c2.207-1.523,3.914,2.232,4.701,3.508c1.054,1.709,2.109,3.403,4.123,3.972c1.592,0.45,3.344-1.297,4.381-2.225
		c1.928-1.726,3.665-3.008,6.373-1.776c1.021,0.464,1.815,1.369,2.922,1.692c1.695,0.494,2.951,0.162,4.417-0.78
		c2.604-1.673,4.122-3.199,7.019-0.902c0.056,0.089,0.137,0.166,0.262,0.207c0.023,0.007,0.044,0.013,0.067,0.021
		c0.048,0.023,0.096,0.039,0.145,0.045c2.136,0.681,4.051,1.047,6.074-0.176c1.065-0.643,1.935-1.568,3-2.222
		c1.985-1.218,4.687-0.365,6.821-0.035c2.143,0.331,3.537-0.549,4.823-2.147c0.747-0.928,1.297-1.989,2.052-2.917
		c1.728-2.123,4.48-1.082,6.719-0.7c4.954,0.846,6.542-3.818,8.78-7.266c1.204-1.855,2.448-3.338,2.652-5.607
		C2052.564,10.339,2051.02,8.702,2050.02,7.542z"/>
</g>
<path fill="#258E45" d="M2045.736,10.79c0,4.832-25.433,12.895-55.026,12.895s-54.499-8.375-54.499-13.208
	s25.169-5.644,54.762-5.644S2045.736,5.958,2045.736,10.79z"/>
<circle fill="#89C551" cx="1600.51" cy="608.525" r="23.144"/>
<path fill="#739F42" d="M1600.51,587.618c11.547,0,20.907,9.36,20.907,20.907s-9.36,20.907-20.907,20.907"/>
<circle fill="#F1EE86" cx="1544.705" cy="594.195" r="36.156"/>
<path fill="#CDC875" d="M1544.705,561.535c18.038,0,32.661,14.623,32.661,32.661s-14.623,32.661-32.661,32.661"/>
<circle fill="#FDBC16" cx="1299.594" cy="594.206" r="38.5"/>
<path fill="#D79929" d="M1299.594,559.428c19.207,0,34.778,15.57,34.778,34.778c0,19.207-15.571,34.778-34.778,34.778"/>
<circle fill="#BF5555" cx="1380.233" cy="598.499" r="30.125"/>
<path fill="#894243" d="M1380.233,571.287c15.029,0,27.213,12.183,27.213,27.212s-12.183,27.212-27.213,27.212"/>
<g>
	<g>
		<path fill="#473D16" d="M1297.823,670.191c-0.569-2.966-1.746-5.662-1.837-8.693c-0.159-5.298,1.109-10.475,1.99-15.659
			c0.627-3.69,0.887-7.392,0.78-11.133c-0.131-4.595-2.027-9.108-2.322-13.719c-0.271-4.239,2.679-7.651,4.026-11.407
			c1.337-3.728,1.418-7.545,1.407-11.478c-0.025-8.626,1.127-17.809,2.104-26.396c0.002-0.02-0.029-0.02-0.031,0
			c-1.06,8.181-3.195,16.48-3.377,24.736c-0.106,4.828-0.197,9.468-2.251,13.935c-1.37,2.979-3.284,5.718-3.531,9.119
			c-0.252,3.464,0.589,6.822,1.343,10.189c1.357,6.062,1.137,11.44,0.148,17.541c-0.684,4.22-1.383,8.289-1.68,12.548
			c-0.247,3.55,0.175,6.876-0.504,10.417C1293.487,673.317,1298.423,673.317,1297.823,670.191L1297.823,670.191z"/>
	</g>
</g>
<g>
	<g>
		<path fill="#473D16" d="M1297.286,613.639c-3.242-2.379-6.466-4.555-8.732-7.968c-1.736-2.615-2.207-6.523-3.12-9.49
			c-1.835-5.965-4.929-11.237-5.889-17.5c-0.016-0.105-0.19-0.08-0.184,0.025c0.411,7.314,4.607,13.566,6.293,20.583
			c1.725,7.179,5.201,10.788,10.836,15.381C1297.228,615.271,1298.051,614.201,1297.286,613.639L1297.286,613.639z"/>
	</g>
</g>
<g>
	<g>
		<path fill="#473D16" d="M1296.034,617.883c2.477-0.749,5.305-0.444,7.361-2.197c4.027-3.433,7.41-7.507,11.223-11.16
			c3.219-3.084,7.648-4.85,10.417-8.437c3.361-4.354,2.38-8.574,4.541-13.311c0.074-0.163-0.145-0.298-0.243-0.142
			c-1.973,3.146-1.777,7.202-3.471,10.602c-2.2,4.415-7.129,6.585-10.82,9.509c-3.324,2.633-6.007,6.07-8.932,9.116
			c-1.401,1.458-3.053,3.454-4.976,4.229c-1.665,0.671-3.501,0.847-5.175,1.521C1295.796,617.677,1295.856,617.936,1296.034,617.883
			L1296.034,617.883z"/>
	</g>
</g>
<g>
	<g>
		<path fill="#473D16" d="M1381.131,668.706c0.738-5.903,0.48-12.202,0.651-18.172c0.18-6.286,0.391-12.536,0.376-18.828
			c-0.006-2.524-0.888-4.991-1.092-7.5c-0.287-3.515-0.296-6.994-0.225-10.519c0.131-6.489-0.095-12.991-0.151-19.481
			c-0.003-0.302-0.466-0.302-0.469,0c-0.098,11.336-1.827,23.488,0.24,34.677c2.411,13.056-2.314,26.771-0.682,39.823
			C1379.888,669.575,1381.022,669.575,1381.131,668.706L1381.131,668.706z"/>
	</g>
</g>
<g>
	<g>
		<path fill="#473D16" d="M1379.428,617.222c0.305,0.437,0.217,0.336,0.617,0.713c0.25,0.236,0.609-0.125,0.376-0.376
			c-7.309-7.872-12.259-18.153-13.89-28.874c-0.013-0.087-0.162-0.067-0.153,0.021c0.598,6.346,2.946,12.382,5.744,18.065
			c0.99,2.012,2.342,5.565,4.142,7.127c1.234,1.071,1.914,2.033,3.045,3.247c0.433,0.465,0.969,0.241,0.156,0.031
			C1379.438,617.169,1379.412,617.198,1379.428,617.222L1379.428,617.222z"/>
	</g>
</g>
<g>
	<g>
		<path fill="#473D16" d="M1380.26,615.015c1.397-2.025,2.532-3.541,4.701-4.834c0.999-0.595,2.403-1.494,2.953-2.576
			c1.433-2.819,1.669-6.002,1.991-9.106c0.02-0.193-0.301-0.235-0.338-0.046c-0.766,3.956-0.38,8.127-4.022,10.769
			c-2.527,1.833-3.82,2.983-5.339,5.761C1380.186,615.019,1380.237,615.048,1380.26,615.015L1380.26,615.015z"/>
	</g>
</g>
<g>
	<g>
		<path fill="#473D16" d="M1545.205,668.245c0.534-0.013,0.621-19.205,0.72-21.171c0.416-8.267,0.877-15.967-0.176-24.216
			c-0.981-7.684,1.008-15.365,0.605-23.087c-0.219-4.195,1.313-8.001,2.594-11.929c0.485-1.486,1.219-3.469,0.591-4.979
			c-0.17-0.408-0.756-0.264-0.671,0.185c0.454,2.379-1.397,5.958-2.112,8.1c-0.99,2.967-1.811,5.49-1.813,8.622
			c-0.005,7.676-1.743,15.448-0.932,23.087c1.642,15.448-0.678,30.825-0.013,46.348c0.023,0.53,0.417,0.942,0.955,0.955
			c0.083,0.002,0.167,0.004,0.25,0.006C1546.444,670.197,1546.444,668.214,1545.205,668.245L1545.205,668.245z"/>
	</g>
</g>
<g>
	<g>
		<path fill="#473D16" d="M1544.982,614.706c0.279-4.057,0.475-7.711-1.703-11.293c-1.75-2.88-10.884-6.95-9.906-10.509
			c0.18-0.653,0.247-0.658,0.469-1.373c0.3-0.963,0.448-2.53,0.102-3.449c-0.392-1.039-2.024-2.161-2.238-2.947
			c-0.068-0.25-0.437-0.25-0.505,0c-0.021,0.078-0.042,0.155-0.063,0.233c-0.028,0.103-0.005,0.248,0.084,0.319
			c5.224,4.142,0.133,4.699,0.547,7.707c0.382,2.779,2.98,4.71,5.102,6.291c2.257,1.681,4.321,3.212,5.856,5.624
			c1.496,2.35,1.513,6.695,1.699,9.397C1544.452,615.063,1544.958,615.063,1544.982,614.706L1544.982,614.706z"/>
	</g>
</g>
<g>
	<g>
		<path fill="#473D16" d="M1544.52,621.876c5.768,2.338,13.465,2.757,14.167-4.926c0.278-3.038-0.95-6.253,1.886-8.756
			c1.125-0.993,1.706-1.803,2.272-3.191c0.667-1.634-0.023-4.619-0.158-6.298c-0.268-3.319,1.338-6.223,1.197-9.5
			c-0.02-0.467-0.74-0.607-0.844-0.114c-0.679,3.222-1.8,6.3-1.689,9.614c0.1,2.985,0.934,6.128-1.775,8.493
			c-0.788,0.688-1.5,1.236-1.835,2.316c-0.758,2.444-0.487,4.905-0.506,7.436c-0.054,6.877-8.206,5.246-12.346,3.585
			C1544.056,620.201,1543.701,621.544,1544.52,621.876L1544.52,621.876z"/>
	</g>
</g>
<g>
	<g>
		<path fill="#473D16" d="M1605.601,668.539c-0.614-4.682-0.328-9.349-0.607-14.048c-0.32-5.399-0.731-10.338-0.093-15.743
			c0.589-4.989,0.186-9.732-0.302-14.708c-0.45-4.588,1.072-9.556-0.498-13.92c-0.144-0.401-0.685-0.236-0.625,0.172
			c0.753,5.159-0.421,10.437,0.022,15.664c0.421,4.977,0.417,9.585-0.202,14.545c-0.588,4.716-0.274,9.271,0.091,13.99
			c0.369,4.773-0.061,9.501,0.619,14.264C1604.134,669.658,1605.719,669.445,1605.601,668.539L1605.601,668.539z"/>
	</g>
</g>
<g>
	<g>
		<path fill="#473D16" d="M1603.529,626.779c-0.702,0.761-1.353,1.554-2.1,2.275c-2.367,2.284-3.595-4.205-3.825-4.981
			c-1.062-3.576-2.41-8.013-4.426-11.164c-0.166-0.26-0.514-0.082-0.471,0.199c0.454,3.011,1.963,6.057,3.058,8.891
			c0.581,1.503,1.07,3.011,1.542,4.55c0.261,0.852,0.353,2.317,0.953,3.026c2.187,2.581,4.221-0.522,5.789-2.276
			C1604.362,626.948,1603.851,626.43,1603.529,626.779L1603.529,626.779z"/>
	</g>
</g>
<g>
	<g>
		<path fill="#473D16" d="M1604.688,623.806c-0.031-0.025-0.062-0.049-0.093-0.074c-0.11-0.087-0.293-0.071-0.331,0.087
			c-0.013,0.052-0.025,0.104-0.038,0.156c-0.019,0.078-0.003,0.176,0.061,0.231c1.54,1.31,5.789,1.096,5.835-1.621
			c0.047-2.804-1.845-4.675-0.462-7.613c1.088-2.311,2.758-4.229,3.638-6.673c0.136-0.378-0.478-0.637-0.65-0.274
			c-1.154,2.439-3.275,4.835-4.08,7.383c-0.278,0.879-0.52,1.804-0.329,2.735c0.163,0.795,0.419,1.499,0.718,2.253
			c0.095,0.261,0.189,0.522,0.284,0.783c-0.168,2.995-1.686,3.914-4.553,2.759C1604.725,623.909,1604.725,623.836,1604.688,623.806
			L1604.688,623.806z"/>
	</g>
</g>
<circle fill="#89C551" cx="1981.644" cy="733.236" r="23.144"/>
<path fill="#739F42" d="M1981.644,712.329c11.547,0,20.907,9.36,20.907,20.907s-9.36,20.907-20.907,20.907"/>
<circle fill="#F1EE86" cx="1925.839" cy="718.907" r="36.156"/>
<path fill="#CDC875" d="M1925.839,686.246c18.038,0,32.661,14.623,32.661,32.661s-14.623,32.661-32.661,32.661"/>
<circle fill="#FDBC16" cx="1786.011" cy="552.443" r="38.5"/>
<path fill="#D79929" d="M1786.011,517.666c19.207,0,34.778,15.571,34.778,34.778s-15.571,34.778-34.778,34.778"/>
<circle fill="#BF5555" cx="1866.65" cy="556.737" r="30.125"/>
<path fill="#894243" d="M1866.65,529.524c15.029,0,27.213,12.183,27.213,27.212c0,15.029-12.183,27.213-27.213,27.213"/>
<g>
	<g>
		<path fill="#473D16" d="M1784.24,628.428c-0.569-2.966-1.746-5.662-1.837-8.693c-0.159-5.298,1.109-10.475,1.99-15.659
			c0.627-3.69,0.887-7.392,0.78-11.133c-0.131-4.595-2.027-9.108-2.322-13.719c-0.271-4.239,2.679-7.651,4.026-11.407
			c1.337-3.728,1.418-7.545,1.407-11.478c-0.025-8.626,1.127-17.809,2.104-26.396c0.002-0.02-0.029-0.02-0.031,0
			c-1.06,8.181-3.195,16.48-3.377,24.736c-0.106,4.828-0.197,9.468-2.251,13.935c-1.37,2.979-3.284,5.718-3.531,9.119
			c-0.252,3.464,0.589,6.822,1.343,10.189c1.357,6.062,1.137,11.44,0.148,17.541c-0.684,4.22-1.383,8.289-1.68,12.548
			c-0.248,3.55,0.175,6.876-0.504,10.417C1779.905,631.554,1784.84,631.554,1784.24,628.428L1784.24,628.428z"/>
	</g>
</g>
<g>
	<g>
		<path fill="#473D16" d="M1783.703,571.877c-3.242-2.379-6.466-4.555-8.732-7.968c-1.736-2.615-2.207-6.523-3.12-9.49
			c-1.835-5.965-4.929-11.237-5.889-17.5c-0.016-0.105-0.19-0.08-0.184,0.025c0.411,7.314,4.607,13.566,6.293,20.583
			c1.725,7.179,5.201,10.788,10.836,15.381C1783.645,573.508,1784.469,572.438,1783.703,571.877L1783.703,571.877z"/>
	</g>
</g>
<g>
	<g>
		<path fill="#473D16" d="M1782.451,576.12c2.477-0.749,5.305-0.444,7.361-2.197c4.027-3.433,7.41-7.507,11.223-11.16
			c3.219-3.084,7.648-4.85,10.417-8.437c3.361-4.354,2.38-8.574,4.541-13.311c0.074-0.163-0.145-0.298-0.243-0.142
			c-1.973,3.146-1.777,7.202-3.471,10.602c-2.2,4.415-7.13,6.585-10.82,9.509c-3.324,2.633-6.007,6.07-8.932,9.116
			c-1.401,1.458-3.053,3.454-4.976,4.229c-1.665,0.671-3.501,0.847-5.175,1.521C1782.213,575.915,1782.274,576.174,1782.451,576.12
			L1782.451,576.12z"/>
	</g>
</g>
<g>
	<g>
		<path fill="#473D16" d="M1867.548,626.943c0.738-5.903,0.48-12.202,0.651-18.172c0.18-6.286,0.391-12.536,0.376-18.828
			c-0.006-2.524-0.888-4.991-1.092-7.5c-0.287-3.515-0.296-6.994-0.225-10.518c0.131-6.489-0.095-12.991-0.151-19.482
			c-0.003-0.302-0.466-0.302-0.469,0c-0.098,11.336-1.827,23.488,0.24,34.677c2.411,13.056-2.314,26.771-0.682,39.823
			C1866.305,627.813,1867.44,627.813,1867.548,626.943L1867.548,626.943z"/>
	</g>
</g>
<g>
	<g>
		<path fill="#473D16" d="M1865.845,575.459c0.305,0.437,0.217,0.336,0.617,0.713c0.25,0.236,0.609-0.125,0.376-0.376
			c-7.309-7.872-12.259-18.153-13.891-28.874c-0.013-0.087-0.162-0.067-0.153,0.021c0.598,6.346,2.946,12.382,5.744,18.065
			c0.99,2.012,2.342,5.565,4.142,7.127c1.234,1.071,1.914,2.033,3.045,3.247c0.433,0.465,0.969,0.241,0.156,0.031
			C1865.856,575.407,1865.829,575.436,1865.845,575.459L1865.845,575.459z"/>
	</g>
</g>
<g>
	<g>
		<path fill="#473D16" d="M1866.677,573.253c1.397-2.025,2.532-3.541,4.701-4.834c0.999-0.595,2.403-1.494,2.953-2.576
			c1.433-2.819,1.669-6.003,1.991-9.106c0.02-0.193-0.301-0.235-0.338-0.046c-0.767,3.956-0.38,8.127-4.022,10.769
			c-2.527,1.833-3.82,2.983-5.339,5.761C1866.603,573.257,1866.654,573.286,1866.677,573.253L1866.677,573.253z"/>
	</g>
</g>
<g>
	<g>
		<path fill="#473D16" d="M1926.339,792.956c0.534-0.013,0.621-19.205,0.72-21.171c0.416-8.267,0.877-15.967-0.176-24.216
			c-0.981-7.684,1.008-15.365,0.605-23.087c-0.219-4.195,1.313-8.001,2.594-11.929c0.485-1.486,1.219-3.469,0.591-4.979
			c-0.17-0.408-0.756-0.264-0.671,0.185c0.454,2.379-1.397,5.958-2.112,8.1c-0.99,2.967-1.811,5.49-1.813,8.622
			c-0.005,7.676-1.743,15.448-0.932,23.087c1.642,15.448-0.678,30.825-0.013,46.348c0.023,0.53,0.417,0.942,0.955,0.955
			c0.083,0.002,0.167,0.004,0.25,0.006C1927.578,794.909,1927.578,792.926,1926.339,792.956L1926.339,792.956z"/>
	</g>
</g>
<g>
	<g>
		<path fill="#473D16" d="M1926.116,739.417c0.279-4.057,0.475-7.711-1.703-11.293c-1.751-2.88-10.884-6.95-9.906-10.509
			c0.18-0.653,0.247-0.658,0.469-1.373c0.3-0.963,0.448-2.53,0.102-3.449c-0.392-1.039-2.024-2.161-2.238-2.947
			c-0.068-0.25-0.437-0.25-0.505,0c-0.021,0.078-0.042,0.155-0.063,0.233c-0.028,0.103-0.005,0.248,0.084,0.319
			c5.224,4.142,0.133,4.699,0.547,7.707c0.382,2.779,2.98,4.71,5.102,6.291c2.257,1.681,4.321,3.212,5.856,5.624
			c1.496,2.35,1.513,6.695,1.699,9.397C1925.586,739.774,1926.092,739.774,1926.116,739.417L1926.116,739.417z"/>
	</g>
</g>
<g>
	<g>
		<path fill="#473D16" d="M1925.654,746.588c5.768,2.338,13.465,2.757,14.167-4.926c0.278-3.038-0.95-6.253,1.886-8.756
			c1.125-0.993,1.706-1.804,2.272-3.191c0.667-1.634-0.023-4.619-0.158-6.298c-0.268-3.319,1.338-6.223,1.197-9.5
			c-0.02-0.467-0.74-0.607-0.844-0.114c-0.679,3.222-1.8,6.3-1.689,9.614c0.1,2.985,0.934,6.128-1.775,8.493
			c-0.788,0.688-1.5,1.236-1.835,2.316c-0.758,2.444-0.487,4.905-0.506,7.436c-0.054,6.877-8.206,5.246-12.346,3.585
			C1925.19,744.912,1924.835,746.256,1925.654,746.588L1925.654,746.588z"/>
	</g>
</g>
<g>
	<g>
		<path fill="#473D16" d="M1986.735,793.25c-0.614-4.682-0.328-9.349-0.607-14.048c-0.32-5.399-0.731-10.338-0.093-15.743
			c0.589-4.989,0.186-9.732-0.302-14.708c-0.45-4.588,1.072-9.556-0.498-13.919c-0.144-0.401-0.685-0.236-0.625,0.172
			c0.753,5.159-0.421,10.437,0.022,15.664c0.421,4.977,0.417,9.585-0.202,14.545c-0.588,4.716-0.274,9.271,0.091,13.99
			c0.369,4.773-0.061,9.501,0.619,14.264C1985.268,794.37,1986.854,794.156,1986.735,793.25L1986.735,793.25z"/>
	</g>
</g>
<g>
	<g>
		<path fill="#473D16" d="M1984.663,751.491c-0.702,0.761-1.353,1.554-2.1,2.275c-2.367,2.284-3.595-4.205-3.825-4.981
			c-1.062-3.576-2.41-8.013-4.426-11.164c-0.166-0.26-0.514-0.082-0.471,0.199c0.454,3.011,1.963,6.057,3.058,8.891
			c0.581,1.503,1.07,3.011,1.542,4.55c0.261,0.852,0.353,2.317,0.953,3.026c2.187,2.581,4.221-0.522,5.789-2.276
			C1985.496,751.659,1984.985,751.141,1984.663,751.491L1984.663,751.491z"/>
	</g>
</g>
<g>
	<g>
		<path fill="#473D16" d="M1985.822,748.518c-0.031-0.025-0.062-0.049-0.093-0.074c-0.11-0.087-0.293-0.071-0.331,0.087
			c-0.013,0.052-0.025,0.104-0.038,0.156c-0.019,0.078-0.003,0.176,0.061,0.231c1.541,1.31,5.789,1.096,5.835-1.621
			c0.047-2.804-1.844-4.675-0.462-7.613c1.088-2.311,2.757-4.229,3.638-6.673c0.136-0.378-0.478-0.637-0.65-0.274
			c-1.154,2.439-3.275,4.836-4.08,7.383c-0.278,0.879-0.52,1.804-0.329,2.735c0.163,0.795,0.419,1.499,0.718,2.253
			c0.095,0.261,0.189,0.522,0.284,0.783c-0.168,2.995-1.686,3.914-4.553,2.759C1985.859,748.621,1985.859,748.547,1985.822,748.518
			L1985.822,748.518z"/>
	</g>
</g>
<circle fill="#89C551" cx="1353.055" cy="648.819" r="23.144"/>
<path fill="#739F42" d="M1353.055,627.912c11.547,0,20.907,9.36,20.907,20.907s-9.36,20.907-20.907,20.907"/>
<circle fill="#F1EE86" cx="1297.25" cy="634.489" r="36.156"/>
<path fill="#CDC875" d="M1297.25,601.829c18.038,0,32.661,14.623,32.661,32.661s-14.623,32.661-32.661,32.661"/>
<circle fill="#FDBC16" cx="1052.139" cy="634.5" r="38.5"/>
<path fill="#D79929" d="M1052.139,599.722c19.207,0,34.778,15.571,34.778,34.778s-15.571,34.778-34.778,34.778"/>
<circle fill="#BF5555" cx="1132.778" cy="638.794" r="30.125"/>
<path fill="#894243" d="M1132.778,611.581c15.029,0,27.212,12.183,27.212,27.212c0,15.029-12.183,27.213-27.212,27.213"/>
<g>
	<g>
		<path fill="#473D16" d="M1050.368,710.485c-0.569-2.966-1.746-5.662-1.837-8.693c-0.159-5.298,1.109-10.475,1.99-15.659
			c0.627-3.69,0.887-7.392,0.78-11.133c-0.131-4.595-2.027-9.108-2.322-13.719c-0.271-4.239,2.679-7.651,4.026-11.407
			c1.337-3.728,1.418-7.545,1.407-11.478c-0.025-8.626,1.127-17.809,2.104-26.396c0.002-0.02-0.029-0.02-0.031,0
			c-1.059,8.181-3.195,16.48-3.377,24.736c-0.106,4.828-0.197,9.468-2.251,13.935c-1.37,2.979-3.284,5.718-3.531,9.119
			c-0.252,3.464,0.589,6.822,1.343,10.189c1.357,6.062,1.137,11.44,0.148,17.541c-0.684,4.22-1.383,8.289-1.68,12.548
			c-0.248,3.55,0.175,6.876-0.504,10.417C1046.032,713.611,1050.968,713.611,1050.368,710.485L1050.368,710.485z"/>
	</g>
</g>
<g>
	<g>
		<path fill="#473D16" d="M1049.831,653.933c-3.242-2.379-6.466-4.555-8.732-7.968c-1.736-2.615-2.207-6.523-3.12-9.49
			c-1.835-5.965-4.929-11.237-5.889-17.5c-0.016-0.105-0.19-0.08-0.184,0.025c0.411,7.314,4.607,13.566,6.294,20.583
			c1.725,7.179,5.201,10.788,10.836,15.381C1049.773,655.565,1050.596,654.495,1049.831,653.933L1049.831,653.933z"/>
	</g>
</g>
<g>
	<g>
		<path fill="#473D16" d="M1048.579,658.177c2.477-0.749,5.305-0.444,7.361-2.197c4.027-3.433,7.41-7.507,11.223-11.16
			c3.219-3.084,7.648-4.85,10.417-8.437c3.361-4.354,2.38-8.574,4.541-13.311c0.074-0.163-0.145-0.298-0.243-0.142
			c-1.973,3.146-1.776,7.202-3.471,10.602c-2.2,4.415-7.13,6.585-10.82,9.509c-3.324,2.633-6.007,6.07-8.932,9.116
			c-1.401,1.458-3.053,3.454-4.976,4.229c-1.666,0.671-3.501,0.847-5.175,1.522C1048.341,657.971,1048.401,658.23,1048.579,658.177
			L1048.579,658.177z"/>
	</g>
</g>
<g>
	<g>
		<path fill="#473D16" d="M1133.676,709c0.738-5.903,0.48-12.202,0.651-18.172c0.18-6.286,0.391-12.536,0.376-18.828
			c-0.006-2.524-0.888-4.991-1.092-7.5c-0.287-3.515-0.296-6.994-0.225-10.518c0.131-6.489-0.095-12.991-0.151-19.482
			c-0.003-0.302-0.466-0.302-0.469,0c-0.098,11.336-1.827,23.488,0.24,34.677c2.411,13.056-2.314,26.771-0.682,39.823
			C1132.432,709.869,1133.568,709.869,1133.676,709L1133.676,709z"/>
	</g>
</g>
<g>
	<g>
		<path fill="#473D16" d="M1131.973,657.516c0.305,0.437,0.217,0.336,0.617,0.713c0.25,0.236,0.609-0.125,0.376-0.376
			c-7.309-7.872-12.259-18.153-13.891-28.874c-0.013-0.087-0.162-0.067-0.153,0.021c0.598,6.346,2.946,12.382,5.744,18.065
			c0.99,2.012,2.342,5.565,4.142,7.127c1.234,1.071,1.914,2.033,3.045,3.247c0.433,0.465,0.969,0.241,0.155,0.031
			C1131.984,657.463,1131.957,657.492,1131.973,657.516L1131.973,657.516z"/>
	</g>
</g>
<g>
	<g>
		<path fill="#473D16" d="M1132.805,655.309c1.397-2.025,2.532-3.541,4.701-4.834c0.999-0.595,2.403-1.494,2.953-2.576
			c1.433-2.819,1.669-6.003,1.991-9.106c0.02-0.193-0.301-0.235-0.338-0.046c-0.767,3.956-0.38,8.127-4.022,10.769
			c-2.527,1.833-3.82,2.983-5.339,5.761C1132.731,655.314,1132.782,655.342,1132.805,655.309L1132.805,655.309z"/>
	</g>
</g>
<g>
	<g>
		<path fill="#473D16" d="M1297.75,708.539c0.534-0.013,0.621-19.205,0.72-21.171c0.416-8.267,0.877-15.967-0.176-24.216
			c-0.981-7.684,1.008-15.365,0.605-23.087c-0.219-4.195,1.313-8.001,2.594-11.929c0.485-1.486,1.218-3.469,0.591-4.979
			c-0.17-0.408-0.756-0.265-0.67,0.185c0.454,2.379-1.397,5.958-2.112,8.1c-0.99,2.967-1.811,5.49-1.813,8.622
			c-0.005,7.676-1.743,15.448-0.932,23.087c1.642,15.448-0.678,30.825-0.013,46.348c0.023,0.53,0.417,0.942,0.955,0.955
			c0.083,0.002,0.167,0.004,0.25,0.006C1298.99,710.491,1298.99,708.509,1297.75,708.539L1297.75,708.539z"/>
	</g>
</g>
<g>
	<g>
		<path fill="#473D16" d="M1297.527,655c0.28-4.057,0.475-7.711-1.703-11.293c-1.751-2.88-10.884-6.95-9.906-10.509
			c0.179-0.653,0.247-0.658,0.469-1.373c0.299-0.963,0.448-2.53,0.102-3.449c-0.392-1.039-2.024-2.161-2.238-2.947
			c-0.068-0.25-0.437-0.25-0.505,0c-0.021,0.078-0.042,0.155-0.063,0.233c-0.028,0.103-0.005,0.248,0.084,0.319
			c5.224,4.142,0.133,4.699,0.547,7.707c0.382,2.779,2.98,4.71,5.102,6.291c2.257,1.681,4.321,3.212,5.856,5.624
			c1.496,2.35,1.513,6.695,1.699,9.397C1296.997,655.357,1297.503,655.357,1297.527,655L1297.527,655z"/>
	</g>
</g>
<g>
	<g>
		<path fill="#473D16" d="M1297.065,662.17c5.767,2.338,13.465,2.757,14.167-4.926c0.278-3.038-0.95-6.253,1.886-8.756
			c1.125-0.993,1.706-1.804,2.272-3.191c0.667-1.634-0.023-4.619-0.158-6.298c-0.268-3.319,1.338-6.223,1.197-9.5
			c-0.02-0.467-0.74-0.607-0.844-0.114c-0.679,3.222-1.8,6.3-1.689,9.614c0.1,2.985,0.934,6.128-1.775,8.493
			c-0.787,0.688-1.5,1.235-1.835,2.316c-0.758,2.444-0.487,4.905-0.506,7.436c-0.053,6.876-8.206,5.246-12.346,3.585
			C1296.601,660.495,1296.246,661.839,1297.065,662.17L1297.065,662.17z"/>
	</g>
</g>
<g>
	<g>
		<path fill="#473D16" d="M1358.146,708.833c-0.614-4.682-0.328-9.349-0.607-14.048c-0.32-5.399-0.731-10.338-0.093-15.743
			c0.589-4.989,0.187-9.732-0.302-14.708c-0.45-4.588,1.072-9.556-0.498-13.919c-0.144-0.401-0.685-0.236-0.625,0.172
			c0.753,5.159-0.421,10.437,0.022,15.664c0.422,4.977,0.417,9.585-0.202,14.545c-0.588,4.716-0.274,9.271,0.091,13.99
			c0.369,4.773-0.061,9.501,0.619,14.264C1356.679,709.953,1358.265,709.739,1358.146,708.833L1358.146,708.833z"/>
	</g>
</g>
<g>
	<g>
		<path fill="#473D16" d="M1356.074,667.074c-0.702,0.761-1.354,1.554-2.1,2.275c-2.367,2.284-3.595-4.205-3.825-4.981
			c-1.062-3.576-2.41-8.013-4.426-11.164c-0.166-0.26-0.514-0.082-0.471,0.199c0.454,3.011,1.963,6.057,3.058,8.891
			c0.581,1.503,1.07,3.011,1.542,4.55c0.261,0.852,0.353,2.317,0.953,3.026c2.187,2.581,4.221-0.522,5.789-2.276
			C1356.907,667.242,1356.396,666.724,1356.074,667.074L1356.074,667.074z"/>
	</g>
</g>
<g>
	<g>
		<path fill="#473D16" d="M1357.233,664.1c-0.031-0.025-0.062-0.049-0.093-0.074c-0.11-0.087-0.293-0.071-0.331,0.087
			c-0.013,0.052-0.025,0.104-0.038,0.156c-0.019,0.078-0.003,0.176,0.061,0.231c1.541,1.31,5.789,1.096,5.835-1.621
			c0.047-2.804-1.844-4.675-0.462-7.613c1.088-2.311,2.758-4.229,3.638-6.673c0.136-0.378-0.478-0.637-0.65-0.274
			c-1.154,2.439-3.275,4.835-4.08,7.383c-0.278,0.879-0.52,1.804-0.329,2.735c0.163,0.795,0.419,1.499,0.718,2.253
			c0.095,0.261,0.189,0.522,0.284,0.783c-0.168,2.995-1.686,3.914-4.554,2.759C1357.27,664.204,1357.27,664.13,1357.233,664.1
			L1357.233,664.1z"/>
	</g>
</g>
<circle fill="#89C551" cx="1579.067" cy="623.231" r="23.144"/>
<path fill="#739F42" d="M1577.365,603.244c11.547,0,20.907,9.36,20.907,20.907s-9.36,20.907-20.907,20.907"/>
<circle fill="#F1EE86" cx="1634.872" cy="608.902" r="36.156"/>
<path fill="#CDC875" d="M1634.872,577.161c18.038,0,32.661,14.623,32.661,32.66s-14.623,32.661-32.661,32.661"/>
<circle fill="#FDBC16" cx="1879.983" cy="608.912" r="38.5"/>
<path fill="#D79929" d="M1879.386,573.428c19.207,0,34.778,15.571,34.778,34.778c0,19.207-15.571,34.778-34.778,34.778"/>
<circle fill="#BF5555" cx="1799.344" cy="613.206" r="30.125"/>
<path fill="#894243" d="M1798.122,585.993c15.029,0,27.213,12.183,27.213,27.213c0,15.029-12.183,27.212-27.213,27.212"/>
<g>
	<g>
		<path fill="#473D16" d="M1885.49,684.897c-0.574-2.991-0.402-5.692-0.405-8.693c-0.004-4.238-0.731-8.346-1.472-12.502
			c-0.925-5.186-1.837-10.565-0.912-15.821c0.717-4.074,1.981-8.038,2.204-12.187c0.133-2.483-0.859-5.589-2.057-7.706
			c-2.797-4.945-3.671-9.544-3.814-15.179c-0.225-8.873-2.258-17.604-3.397-26.396c-0.002-0.02-0.033-0.02-0.031,0
			c0.455,3.992,0.44,8.01,0.879,12.002c0.467,4.251,1.237,8.445,1.243,12.734c0.005,3.412-0.018,6.809,0.486,10.19
			c0.616,4.134,3.494,7.649,4.608,11.647c1.221,4.379-0.901,10.082-1.706,14.459c-0.681,3.707-0.347,7.613,0.214,11.316
			c0.797,5.258,2.009,10.387,2.215,15.72c0.145,3.753-1.101,6.814-1.792,10.417C1881.154,688.023,1886.089,688.023,1885.49,684.897
			L1885.49,684.897z"/>
	</g>
</g>
<g>
	<g>
		<path fill="#473D16" d="M1883.086,629.376c2.829-2.306,5.498-4.429,7.781-7.304c1.746-2.198,2.266-5.476,3.055-8.078
			c2.057-6.779,5.891-13.427,6.293-20.583c0.006-0.104-0.168-0.13-0.184-0.025c-0.953,6.216-3.812,11.637-5.889,17.5
			c-1.121,3.164-1.654,6.434-3.12,9.49c-1.664,3.471-5.773,5.797-8.732,7.968C1881.525,628.907,1882.349,629.977,1883.086,629.376
			L1883.086,629.376z"/>
	</g>
</g>
<g>
	<g>
		<path fill="#473D16" d="M1883.617,632.318c-3.564-1.436-6.121-1.8-9.036-4.623c-3.444-3.336-6.427-7.081-10.047-10.243
			c-2.979-2.602-6.492-4.31-9.228-7.248c-3.582-3.847-2.518-8.805-5.063-12.862c-0.098-0.156-0.317-0.021-0.243,0.142
			c1.867,4.092,1.18,8.221,3.662,12.173c2.381,3.791,6.755,5.833,10.127,8.54c4.108,3.299,7.409,7.631,11.258,11.228
			c2.608,2.437,5.218,2.174,8.495,3.164C1883.72,632.643,1883.781,632.384,1883.617,632.318L1883.617,632.318z"/>
	</g>
</g>
<g>
	<g>
		<path fill="#473D16" d="M1799.798,683.412c0.744-5.948-0.304-12.191-0.505-18.172c-0.211-6.286-0.452-12.535-0.468-18.828
			c-0.006-2.511,0.764-4.989,0.908-7.5c0.201-3.517,0.134-7-0.003-10.518c-0.254-6.493-0.317-12.985-0.374-19.482
			c-0.003-0.302-0.466-0.302-0.469,0c-0.051,5.885-0.239,11.777-0.188,17.661c0.055,6.292-0.653,12.117-1.159,18.339
			c-0.498,6.127-0.123,12.404,0.178,18.533c0.323,6.586-0.088,13.447,0.727,19.967
			C1798.554,684.281,1799.689,684.281,1799.798,683.412L1799.798,683.412z"/>
	</g>
</g>
<g>
	<g>
		<path fill="#473D16" d="M1800.113,631.882c-1.594,0.412,0.277-0.161-0.213,0.364c0.907-0.973,1.539-2.072,2.586-2.924
			c2.141-1.742,2.734-4.322,4.22-6.521c3.644-5.393,5.892-12.999,6.494-19.389c0.008-0.087-0.14-0.108-0.153-0.021
			c-1.632,10.721-6.581,21.002-13.89,28.874c-0.233,0.251,0.126,0.612,0.376,0.376c0.4-0.377,0.312-0.276,0.617-0.713
			C1800.165,631.904,1800.138,631.876,1800.113,631.882L1800.113,631.882z"/>
	</g>
</g>
<g>
	<g>
		<path fill="#473D16" d="M1799.371,629.69c-1.279-2.34-2.282-3.739-4.521-5.203c-4.305-2.815-3.97-6.836-4.84-11.327
			c-0.037-0.189-0.358-0.147-0.338,0.046c0.322,3.103,0.558,6.287,1.991,9.106c0.434,0.854,1.378,1.479,2.118,2.046
			c1.028,0.79,2.207,1.309,3.234,2.125c0.887,0.704,1.639,2.278,2.302,3.239C1799.34,629.754,1799.39,629.726,1799.371,629.69
			L1799.371,629.69z"/>
	</g>
</g>
<g>
	<g>
		<path fill="#473D16" d="M1634.372,684.873c0.083-0.002,0.167-0.004,0.25-0.006c0.537-0.013,0.932-0.425,0.955-0.955
			c0.664-15.487-1.969-30.962-0.013-46.348c0.91-7.154-1.218-14.236-0.955-21.402c0.117-3.179-0.287-5.544-1.219-8.548
			c-0.824-2.656-3.239-6.945-2.683-9.86c0.086-0.449-0.501-0.593-0.671-0.185c-0.531,1.277-0.03,2.608,0.292,3.903
			c0.941,3.778,2.888,7.417,3.006,11.375c0.1,3.35-0.293,6.626-0.024,10c0.35,4.397,0.904,8.64,0.694,13.065
			c-0.166,3.493-0.917,6.949-1.11,10.45c-0.248,4.494,0.293,9.046,0.632,13.522c0.16,2.121,0.369,23.055,0.846,23.067
			C1633.132,682.921,1633.132,684.904,1634.372,684.873L1634.372,684.873z"/>
	</g>
</g>
<g>
	<g>
		<path fill="#473D16" d="M1635.149,629.412c0.162-2.345,0.469-4.687,0.862-7.006c0.621-3.675,3.9-6,6.694-8.015
			c2.135-1.539,4.723-3.537,5.102-6.291c0.414-3.008-4.677-3.566,0.547-7.707c0.089-0.07,0.112-0.216,0.084-0.319
			c-0.021-0.078-0.042-0.155-0.063-0.233c-0.068-0.25-0.437-0.25-0.505,0c-0.141,0.519-1.563,1.155-1.783,1.741
			c-0.468,1.241-0.921,2.828-0.507,4.16c0.278,0.892,0.601,0.981,0.601,1.701c0,4.232-7.17,7.454-9.767,10.526
			c-2.612,3.089-2.072,7.765-1.819,11.443C1634.619,629.769,1635.124,629.769,1635.149,629.412L1635.149,629.412z"/>
	</g>
</g>
<g>
	<g>
		<path fill="#473D16" d="M1634.687,635.242c-3.429,1.376-8.946,2.912-11.642-0.605c-1.868-2.437-0.297-7.468-1.21-10.416
			c-0.176-0.569-0.512-1.176-0.96-1.562c-2.578-2.222-2.83-4.469-2.75-7.497c0.109-4.076-0.748-7.376-1.589-11.364
			c-0.104-0.493-0.824-0.353-0.844,0.114c-0.096,2.241,0.506,4.151,1.045,6.326c0.719,2.902-0.205,6.299-0.032,9.285
			c0.045,0.781,0.798,2.048,1.375,2.56c3.173,2.814,2.767,5.918,2.808,9.574c0.089,7.852,8.896,7.063,14.167,4.926
			C1635.875,636.251,1635.521,634.907,1634.687,635.242L1634.687,635.242z"/>
	</g>
</g>
<g>
	<g>
		<path fill="#473D16" d="M1575.572,683.461c0.597-4.184,0.537-8.329,0.524-12.549c-0.014-4.688,0.859-9.236,0.395-13.943
			c-0.482-4.894-1.011-9.46-0.589-14.39c0.5-5.834-0.638-11.851,0.199-17.581c0.06-0.409-0.481-0.573-0.625-0.172
			c-1.383,3.843-0.201,7.988-0.357,12.003c-0.219,5.657-1.058,10.944-0.443,16.625c0.52,4.806,0.477,9.213,0.047,14.026
			c-0.47,5.258-0.059,10.52-0.746,15.766C1573.857,684.151,1575.443,684.365,1575.572,683.461L1575.572,683.461z"/>
	</g>
</g>
<g>
	<g>
		<path fill="#473D16" d="M1575.529,642.005c1.567,1.753,3.602,4.856,5.789,2.276c1.194-1.409,1.406-4.656,2.048-6.403
			c1.191-3.245,2.988-6.636,3.505-10.063c0.042-0.281-0.305-0.459-0.471-0.199c-1.884,2.944-2.752,6.74-3.996,9.997
			c-0.662,1.732-1.227,3.551-1.615,5.365c-0.756,3.53-4.219-0.926-4.74-1.491C1575.725,641.136,1575.215,641.654,1575.529,642.005
			L1575.529,642.005z"/>
	</g>
</g>
<g>
	<g>
		<path fill="#473D16" d="M1574.889,638.645c-2.867,1.155-4.385,0.236-4.553-2.759c0.186-0.783,0.592-1.558,0.856-2.32
			c0.3-0.868,0.192-1.782,0.066-2.664c-0.158-1.107-0.938-2.168-1.521-3.072c-1.062-1.644-1.97-3.328-2.807-5.097
			c-0.172-0.363-0.786-0.104-0.65,0.274c0.774,2.149,1.983,4.038,3.217,5.948c2.03,3.142-0.093,5.241-0.041,8.338
			c0.046,2.717,4.294,2.931,5.835,1.621c0.064-0.055,0.08-0.153,0.061-0.231c-0.013-0.052-0.025-0.104-0.038-0.156
			c-0.038-0.158-0.221-0.175-0.331-0.087c-0.031,0.025-0.062,0.049-0.093,0.074C1574.852,638.542,1574.852,638.616,1574.889,638.645
			L1574.889,638.645z"/>
	</g>
</g>
<circle fill="#89C551" cx="2319.454" cy="593.344" r="23.144"/>
<path fill="#739F42" d="M2319.454,572.437c11.546,0,20.907,9.36,20.907,20.907s-9.36,20.907-20.907,20.907"/>
<circle fill="#F1EE86" cx="2263.649" cy="579.014" r="36.156"/>
<path fill="#CDC875" d="M2263.649,546.354c18.038,0,32.66,14.623,32.66,32.66c0,18.038-14.623,32.661-32.66,32.661"/>
<g>
	<g>
		<path fill="#473D16" d="M2264.149,653.064c0.534-0.013,0.621-19.205,0.72-21.171c0.416-8.267,0.877-15.967-0.176-24.216
			c-0.981-7.684,1.008-15.365,0.605-23.087c-0.219-4.195,1.313-8.001,2.594-11.929c0.485-1.486,1.219-3.469,0.591-4.979
			c-0.17-0.408-0.756-0.265-0.67,0.185c0.454,2.379-1.397,5.958-2.112,8.1c-0.99,2.967-1.811,5.49-1.813,8.622
			c-0.005,7.676-1.743,15.448-0.932,23.087c1.642,15.448-0.678,30.825-0.012,46.348c0.023,0.53,0.417,0.942,0.955,0.955
			c0.083,0.002,0.167,0.004,0.25,0.006C2265.388,655.016,2265.388,653.033,2264.149,653.064L2264.149,653.064z"/>
	</g>
</g>
<g>
	<g>
		<path fill="#473D16" d="M2263.926,599.525c0.28-4.057,0.475-7.711-1.703-11.293c-1.75-2.88-10.884-6.95-9.906-10.509
			c0.18-0.653,0.247-0.658,0.469-1.373c0.3-0.963,0.448-2.53,0.102-3.449c-0.392-1.039-2.024-2.161-2.238-2.947
			c-0.068-0.25-0.437-0.25-0.505,0c-0.021,0.078-0.042,0.155-0.063,0.233c-0.028,0.103-0.005,0.248,0.084,0.319
			c5.224,4.142,0.133,4.699,0.547,7.707c0.382,2.779,2.98,4.71,5.102,6.291c2.257,1.681,4.321,3.212,5.856,5.624
			c1.496,2.35,1.513,6.695,1.699,9.396C2263.396,599.882,2263.902,599.882,2263.926,599.525L2263.926,599.525z"/>
	</g>
</g>
<g>
	<g>
		<path fill="#473D16" d="M2263.464,606.695c5.768,2.338,13.465,2.757,14.167-4.926c0.278-3.038-0.95-6.253,1.886-8.756
			c1.125-0.993,1.706-1.804,2.272-3.191c0.667-1.634-0.023-4.619-0.158-6.298c-0.268-3.319,1.338-6.223,1.197-9.5
			c-0.02-0.467-0.74-0.607-0.844-0.114c-0.679,3.222-1.8,6.3-1.689,9.614c0.1,2.985,0.934,6.128-1.775,8.493
			c-0.787,0.688-1.5,1.235-1.835,2.316c-0.758,2.444-0.487,4.905-0.506,7.436c-0.053,6.877-8.206,5.246-12.346,3.585
			C2263,605.02,2262.645,606.363,2263.464,606.695L2263.464,606.695z"/>
	</g>
</g>
<g>
	<g>
		<path fill="#473D16" d="M2324.545,653.358c-0.614-4.682-0.328-9.349-0.607-14.048c-0.32-5.399-0.731-10.338-0.093-15.743
			c0.589-4.989,0.186-9.732-0.302-14.708c-0.45-4.588,1.072-9.556-0.498-13.92c-0.144-0.401-0.685-0.236-0.625,0.172
			c0.753,5.159-0.421,10.437,0.022,15.664c0.421,4.977,0.417,9.585-0.202,14.545c-0.588,4.716-0.274,9.271,0.091,13.99
			c0.368,4.773-0.061,9.501,0.618,14.264C2323.078,654.477,2324.663,654.264,2324.545,653.358L2324.545,653.358z"/>
	</g>
</g>
<g>
	<g>
		<path fill="#473D16" d="M2322.473,611.598c-0.702,0.761-1.354,1.554-2.1,2.275c-2.367,2.284-3.595-4.205-3.825-4.981
			c-1.062-3.576-2.41-8.013-4.426-11.164c-0.167-0.26-0.514-0.082-0.471,0.199c0.454,3.011,1.963,6.057,3.058,8.891
			c0.581,1.503,1.07,3.011,1.542,4.55c0.261,0.852,0.353,2.317,0.953,3.026c2.187,2.581,4.221-0.522,5.789-2.275
			C2323.306,611.766,2322.795,611.249,2322.473,611.598L2322.473,611.598z"/>
	</g>
</g>
<g>
	<g>
		<path fill="#473D16" d="M2323.632,608.625c-0.031-0.025-0.062-0.049-0.093-0.074c-0.11-0.087-0.292-0.071-0.331,0.087
			c-0.013,0.052-0.025,0.104-0.038,0.156c-0.019,0.078-0.003,0.176,0.061,0.231c1.54,1.31,5.789,1.096,5.835-1.621
			c0.047-2.804-1.845-4.675-0.462-7.613c1.088-2.311,2.758-4.229,3.638-6.673c0.136-0.378-0.478-0.637-0.65-0.274
			c-1.154,2.439-3.275,4.835-4.08,7.383c-0.278,0.879-0.52,1.804-0.329,2.735c0.163,0.795,0.419,1.499,0.718,2.253
			c0.094,0.261,0.189,0.522,0.284,0.783c-0.168,2.995-1.686,3.914-4.553,2.759C2323.669,608.728,2323.669,608.654,2323.632,608.625
			L2323.632,608.625z"/>
	</g>
</g>
<circle fill="#89C551" cx="2665.725" cy="600.86" r="23.144"/>
<path fill="#739F42" d="M2665.725,579.953c11.547,0,20.907,9.36,20.907,20.907s-9.36,20.907-20.907,20.907"/>
<circle fill="#F1EE86" cx="2609.92" cy="586.53" r="36.156"/>
<path fill="#CDC875" d="M2609.92,553.87c18.038,0,32.661,14.623,32.661,32.661s-14.623,32.661-32.661,32.661"/>
<circle fill="#FDBC16" cx="2171.377" cy="562.903" r="38.5"/>
<path fill="#D79929" d="M2171.377,528.125c19.207,0,34.778,15.571,34.778,34.778c0,19.207-15.571,34.778-34.778,34.778"/>
<circle fill="#BF5555" cx="2496.29" cy="560.286" r="25.189"/>
<path fill="#894243" d="M2496.29,537.533c12.567,0,22.754,10.187,22.754,22.754s-10.187,22.754-22.754,22.754"/>
<g>
	<g>
		<path fill="#473D16" d="M2169.607,638.887c-0.569-2.966-1.746-5.662-1.837-8.693c-0.159-5.298,1.109-10.475,1.99-15.659
			c0.627-3.69,0.886-7.392,0.78-11.133c-0.131-4.595-2.027-9.108-2.322-13.719c-0.271-4.239,2.679-7.651,4.026-11.407
			c1.337-3.728,1.418-7.545,1.407-11.478c-0.025-8.626,1.126-17.809,2.104-26.396c0.002-0.02-0.029-0.02-0.031,0
			c-1.059,8.181-3.195,16.48-3.377,24.736c-0.106,4.828-0.197,9.468-2.251,13.935c-1.37,2.979-3.284,5.718-3.531,9.119
			c-0.252,3.464,0.589,6.822,1.343,10.189c1.357,6.062,1.137,11.44,0.148,17.541c-0.684,4.22-1.383,8.289-1.68,12.548
			c-0.248,3.55,0.175,6.876-0.504,10.417C2165.271,642.014,2170.206,642.014,2169.607,638.887L2169.607,638.887z"/>
	</g>
</g>
<g>
	<g>
		<path fill="#473D16" d="M2169.07,582.336c-3.242-2.379-6.466-4.555-8.732-7.968c-1.736-2.615-2.207-6.523-3.12-9.49
			c-1.835-5.965-4.93-11.237-5.889-17.5c-0.016-0.105-0.19-0.08-0.184,0.025c0.411,7.314,4.607,13.566,6.294,20.583
			c1.725,7.179,5.201,10.788,10.836,15.381C2169.012,583.967,2169.835,582.897,2169.07,582.336L2169.07,582.336z"/>
	</g>
</g>
<g>
	<g>
		<path fill="#473D16" d="M2167.818,586.579c2.477-0.749,5.305-0.444,7.361-2.197c4.027-3.433,7.41-7.507,11.223-11.16
			c3.219-3.084,7.648-4.85,10.417-8.437c3.361-4.354,2.38-8.574,4.541-13.311c0.074-0.163-0.145-0.298-0.243-0.142
			c-1.973,3.146-1.777,7.202-3.471,10.602c-2.2,4.415-7.129,6.585-10.82,9.509c-3.324,2.633-6.007,6.07-8.932,9.116
			c-1.401,1.458-3.053,3.454-4.976,4.229c-1.665,0.671-3.501,0.847-5.175,1.522C2167.58,586.374,2167.64,586.633,2167.818,586.579
			L2167.818,586.579z"/>
	</g>
</g>
<g>
	<g>
		<path fill="#473D16" d="M2497.128,619.17c0.68-4.531,0.496-9.479,0.542-14.073c0.052-5.161,0.365-10.303,0.35-15.471
			c-0.015-5.146-1.224-10.146-1.164-15.344c0.067-5.863-0.084-11.723-0.145-17.586c-0.003-0.302-0.466-0.302-0.469,0
			c-0.054,5.216-0.128,10.426-0.328,15.638c-0.207,5.392,0.328,10.387,0.696,15.718c0.348,5.056-0.124,10.261-0.38,15.313
			c-0.261,5.157-1.174,10.684-0.405,15.805C2495.921,619.818,2497.031,619.818,2497.128,619.17L2497.128,619.17z"/>
	</g>
</g>
<g>
	<g>
		<path fill="#473D16" d="M2495.613,575.944c0.228,0.385,0.163,0.299,0.489,0.625c0.243,0.244,0.609-0.125,0.376-0.376
			c-6.104-6.576-10.231-15.196-11.633-24.116c-0.014-0.087-0.162-0.067-0.154,0.021c0.571,5.583,2.584,11.035,5.24,15.962
			c1.172,2.175,2.038,4.311,3.947,5.93c-0.136-0.116,1.401,1.697,1.916,2.248c-0.427-0.457,1.13-0.107-0.146-0.34
			C2495.622,575.893,2495.598,575.918,2495.613,575.944L2495.613,575.944z"/>
	</g>
</g>
<g>
	<g>
		<path fill="#473D16" d="M2496.317,574.099c1.182-1.676,2.133-2.941,3.946-4.012c0.843-0.498,2.017-1.258,2.479-2.169
			c1.195-2.358,1.417-5.032,1.664-7.631c0.018-0.193-0.3-0.234-0.338-0.046c-0.668,3.295-0.304,6.775-3.357,8.977
			c-2.12,1.529-3.202,2.513-4.448,4.85C2496.244,574.103,2496.294,574.131,2496.317,574.099L2496.317,574.099z"/>
	</g>
</g>
<g>
	<g>
		<path fill="#473D16" d="M2610.42,660.58c0.534-0.013,0.621-19.205,0.72-21.171c0.416-8.267,0.877-15.967-0.176-24.216
			c-0.981-7.684,1.008-15.365,0.605-23.087c-0.219-4.195,1.313-8.001,2.594-11.929c0.485-1.486,1.218-3.469,0.591-4.979
			c-0.169-0.408-0.756-0.264-0.67,0.185c0.454,2.379-1.397,5.958-2.112,8.1c-0.99,2.967-1.811,5.49-1.813,8.622
			c-0.005,7.676-1.743,15.448-0.931,23.087c1.642,15.448-0.678,30.825-0.012,46.348c0.023,0.53,0.417,0.942,0.955,0.955
			c0.083,0.002,0.167,0.004,0.25,0.006C2611.66,662.532,2611.66,660.549,2610.42,660.58L2610.42,660.58z"/>
	</g>
</g>
<g>
	<g>
		<path fill="#473D16" d="M2610.198,607.041c0.28-4.057,0.475-7.711-1.702-11.293c-1.751-2.88-10.885-6.95-9.906-10.509
			c0.179-0.653,0.247-0.658,0.469-1.373c0.299-0.963,0.448-2.53,0.102-3.449c-0.392-1.039-2.024-2.161-2.238-2.947
			c-0.068-0.25-0.437-0.25-0.505,0c-0.021,0.078-0.042,0.155-0.063,0.232c-0.028,0.103-0.004,0.248,0.084,0.319
			c5.224,4.142,0.133,4.699,0.547,7.707c0.382,2.779,2.98,4.71,5.102,6.291c2.257,1.681,4.321,3.212,5.856,5.624
			c1.496,2.35,1.513,6.695,1.699,9.397C2609.667,607.398,2610.173,607.398,2610.198,607.041L2610.198,607.041z"/>
	</g>
</g>
<g>
	<g>
		<path fill="#473D16" d="M2609.735,614.211c5.768,2.338,13.465,2.757,14.167-4.926c0.278-3.038-0.95-6.253,1.886-8.756
			c1.125-0.993,1.706-1.804,2.272-3.191c0.667-1.634-0.023-4.619-0.158-6.298c-0.268-3.319,1.338-6.223,1.197-9.5
			c-0.02-0.467-0.74-0.607-0.844-0.114c-0.679,3.222-1.8,6.3-1.688,9.614c0.1,2.985,0.934,6.128-1.775,8.493
			c-0.788,0.688-1.5,1.235-1.835,2.316c-0.758,2.444-0.486,4.905-0.506,7.436c-0.053,6.877-8.206,5.246-12.346,3.585
			C2609.271,612.535,2608.917,613.879,2609.735,614.211L2609.735,614.211z"/>
	</g>
</g>
<g>
	<g>
		<path fill="#473D16" d="M2670.816,660.874c-0.614-4.682-0.329-9.349-0.607-14.048c-0.32-5.399-0.731-10.338-0.093-15.743
			c0.589-4.989,0.187-9.732-0.302-14.708c-0.45-4.588,1.072-9.556-0.498-13.92c-0.144-0.401-0.685-0.236-0.625,0.172
			c0.753,5.159-0.42,10.437,0.022,15.664c0.421,4.977,0.417,9.585-0.202,14.545c-0.588,4.716-0.274,9.271,0.091,13.99
			c0.368,4.773-0.061,9.501,0.619,14.264C2669.349,661.993,2670.935,661.78,2670.816,660.874L2670.816,660.874z"/>
	</g>
</g>
<g>
	<g>
		<path fill="#473D16" d="M2668.744,619.114c-0.702,0.761-1.354,1.554-2.1,2.275c-2.367,2.284-3.595-4.205-3.825-4.981
			c-1.062-3.576-2.41-8.013-4.426-11.164c-0.166-0.26-0.513-0.082-0.471,0.199c0.454,3.011,1.963,6.057,3.058,8.891
			c0.581,1.503,1.07,3.011,1.542,4.55c0.261,0.852,0.353,2.317,0.953,3.026c2.187,2.581,4.221-0.522,5.789-2.276
			C2669.577,619.282,2669.066,618.765,2668.744,619.114L2668.744,619.114z"/>
	</g>
</g>
<g>
	<g>
		<path fill="#473D16" d="M2669.903,616.141c-0.031-0.025-0.062-0.049-0.093-0.074c-0.11-0.087-0.293-0.071-0.331,0.087
			c-0.013,0.052-0.025,0.104-0.038,0.156c-0.019,0.078-0.003,0.176,0.061,0.231c1.541,1.31,5.789,1.096,5.835-1.621
			c0.047-2.804-1.844-4.675-0.462-7.613c1.088-2.311,2.758-4.229,3.638-6.673c0.136-0.378-0.478-0.637-0.65-0.274
			c-1.154,2.439-3.275,4.835-4.08,7.383c-0.278,0.879-0.52,1.804-0.329,2.735c0.163,0.795,0.419,1.499,0.718,2.253
			c0.095,0.261,0.189,0.522,0.284,0.783c-0.168,2.995-1.686,3.914-4.553,2.759C2669.94,616.244,2669.94,616.17,2669.903,616.141
			L2669.903,616.141z"/>
	</g>
</g>
<circle fill="#89C551" cx="2298.01" cy="608.05" r="23.144"/>
<path fill="#739F42" d="M2296.309,588.063c11.547,0,20.907,9.36,20.907,20.907s-9.36,20.907-20.907,20.907"/>
<circle fill="#FDBC16" cx="2507.438" cy="603.913" r="32.192"/>
<path fill="#D79929" d="M2506.939,574.243c16.06,0,29.08,13.019,29.08,29.08s-13.02,29.08-29.08,29.08"/>
<circle fill="#BF5555" cx="2201.502" cy="581.903" r="30.125"/>
<path fill="#894243" d="M2200.28,554.69c15.029,0,27.212,12.183,27.212,27.212s-12.183,27.213-27.212,27.213"/>
<g>
	<g>
		<path fill="#473D16" d="M2512.349,667.364c-1.276-5.509-0.657-11.43-1.657-17.079c-0.821-4.64-1.648-9.344-0.793-14.044
			c0.629-3.46,1.711-6.818,1.785-10.356c0.041-1.961-0.794-4.432-1.731-6.092c-2.421-4.292-3.11-8.448-3.211-13.32
			c-0.148-7.179-2.029-14.264-2.936-21.374c-0.002-0.02-0.033-0.02-0.031,0c0.753,6.925,1.716,14.426,1.663,21.374
			c-0.021,2.779,0.014,5.546,0.489,8.286c0.685,3.957,3.542,7.01,4,11.125c0.401,3.61-1.342,8.099-1.892,11.679
			c-0.475,3.098,0.178,6.479,0.639,9.554c0.623,4.156,1.5,8.118,1.647,12.347c0.095,2.733-1.1,5.268-1.709,7.899
			C2507.889,670.488,2513.073,670.488,2512.349,667.364L2512.349,667.364z"/>
	</g>
</g>
<g>
	<g>
		<path fill="#473D16" d="M2510.109,621.1c4.307-3.53,7.115-6.217,8.649-11.638c1.737-6.139,5.234-12.087,5.614-18.509
			c0.006-0.105-0.166-0.129-0.184-0.025c-0.844,4.953-2.956,9.31-4.729,13.966c-0.868,2.279-1.374,4.712-2.142,7.03
			c-1.237,3.737-5.024,5.992-8.003,8.145C2508.544,620.626,2509.373,621.703,2510.109,621.1L2510.109,621.1z"/>
	</g>
</g>
<g>
	<g>
		<path fill="#473D16" d="M2510.483,623.462c-2.803-1.158-4.836-1.387-7.197-3.59c-2.875-2.683-5.307-5.791-8.208-8.454
			c-2.462-2.26-5.472-3.708-7.864-6.083c-3.269-3.247-2.482-7.525-4.625-11.108c-0.079-0.132-0.32-0.042-0.257,0.108
			c1.303,3.095,0.949,6.381,2.517,9.447c1.439,2.813,4.409,4.769,6.974,6.43c4.617,2.991,7.989,7.81,12.066,11.455
			c1.887,1.687,4.207,1.39,6.517,2.066C2510.588,623.785,2510.646,623.529,2510.483,623.462L2510.483,623.462z"/>
	</g>
</g>
<g>
	<g>
		<path fill="#473D16" d="M2201.957,652.109c0.744-5.948-0.304-12.191-0.505-18.172c-0.211-6.286-0.452-12.535-0.468-18.828
			c-0.006-2.511,0.764-4.989,0.908-7.5c0.201-3.517,0.135-7-0.003-10.519c-0.254-6.493-0.317-12.984-0.374-19.481
			c-0.003-0.302-0.466-0.302-0.469,0c-0.051,5.885-0.239,11.777-0.188,17.661c0.055,6.292-0.653,12.117-1.159,18.339
			c-0.499,6.127-0.123,12.404,0.178,18.533c0.323,6.586-0.088,13.447,0.727,19.967
			C2200.713,652.978,2201.848,652.978,2201.957,652.109L2201.957,652.109z"/>
	</g>
</g>
<g>
	<g>
		<path fill="#473D16" d="M2202.272,600.579c-1.594,0.412,0.277-0.161-0.213,0.364c0.907-0.973,1.539-2.072,2.586-2.924
			c2.141-1.742,2.734-4.322,4.22-6.521c3.644-5.393,5.892-12.999,6.494-19.389c0.008-0.087-0.14-0.108-0.153-0.021
			c-1.632,10.721-6.581,21.002-13.891,28.874c-0.233,0.251,0.126,0.612,0.376,0.376c0.399-0.377,0.312-0.276,0.617-0.713
			C2202.324,600.601,2202.297,600.572,2202.272,600.579L2202.272,600.579z"/>
	</g>
</g>
<g>
	<g>
		<path fill="#473D16" d="M2201.53,598.387c-1.279-2.34-2.282-3.739-4.521-5.203c-4.305-2.815-3.97-6.836-4.84-11.327
			c-0.037-0.189-0.358-0.147-0.338,0.046c0.322,3.103,0.559,6.287,1.991,9.106c0.434,0.854,1.378,1.479,2.118,2.046
			c1.028,0.789,2.207,1.309,3.234,2.125c0.887,0.704,1.639,2.278,2.302,3.239C2201.498,598.451,2201.549,598.423,2201.53,598.387
			L2201.53,598.387z"/>
	</g>
</g>
<g>
	<g>
		<path fill="#473D16" d="M2294.516,668.28c0.597-4.184,0.537-8.329,0.524-12.549c-0.014-4.688,0.859-9.236,0.395-13.943
			c-0.482-4.894-1.011-9.46-0.589-14.39c0.5-5.834-0.638-11.851,0.199-17.58c0.06-0.409-0.481-0.573-0.625-0.172
			c-1.383,3.843-0.201,7.988-0.356,12.003c-0.219,5.657-1.058,10.944-0.443,16.625c0.52,4.806,0.477,9.213,0.046,14.026
			c-0.47,5.258-0.059,10.52-0.746,15.766C2292.801,668.97,2294.387,669.184,2294.516,668.28L2294.516,668.28z"/>
	</g>
</g>
<g>
	<g>
		<path fill="#473D16" d="M2294.473,626.824c1.567,1.753,3.602,4.856,5.789,2.276c1.194-1.409,1.406-4.656,2.048-6.403
			c1.191-3.245,2.988-6.636,3.505-10.063c0.042-0.281-0.305-0.459-0.471-0.199c-1.884,2.944-2.752,6.74-3.996,9.997
			c-0.662,1.732-1.227,3.551-1.615,5.365c-0.756,3.53-4.219-0.926-4.74-1.491C2294.669,625.955,2294.159,626.473,2294.473,626.824
			L2294.473,626.824z"/>
	</g>
</g>
<circle fill="#89C551" cx="2361.804" cy="606.614" r="23.144"/>
<path fill="#739F42" d="M2361.804,585.707c11.546,0,20.907,9.36,20.907,20.907s-9.36,20.907-20.907,20.907"/>
<g>
	<g>
		<path fill="#473D16" d="M2366.895,666.629c-0.614-4.682-0.328-9.349-0.607-14.048c-0.32-5.399-0.731-10.338-0.093-15.743
			c0.589-4.989,0.187-9.732-0.302-14.708c-0.45-4.588,1.072-9.556-0.498-13.919c-0.144-0.401-0.685-0.236-0.625,0.172
			c0.753,5.159-0.42,10.437,0.022,15.664c0.421,4.977,0.417,9.585-0.202,14.545c-0.588,4.716-0.274,9.271,0.091,13.99
			c0.369,4.773-0.061,9.501,0.619,14.264C2365.427,667.748,2367.013,667.534,2366.895,666.629L2366.895,666.629z"/>
	</g>
</g>
<g>
	<g>
		<path fill="#473D16" d="M2364.823,624.869c-0.702,0.761-1.353,1.554-2.1,2.275c-2.367,2.284-3.595-4.205-3.825-4.981
			c-1.062-3.576-2.41-8.013-4.426-11.164c-0.166-0.26-0.513-0.082-0.471,0.199c0.454,3.011,1.963,6.057,3.058,8.891
			c0.581,1.503,1.07,3.011,1.542,4.55c0.261,0.852,0.353,2.317,0.953,3.026c2.187,2.581,4.221-0.522,5.789-2.276
			C2365.656,625.037,2365.145,624.519,2364.823,624.869L2364.823,624.869z"/>
	</g>
</g>
<g>
	<g>
		<path fill="#473D16" d="M2365.982,621.896c-0.031-0.025-0.062-0.049-0.093-0.074c-0.11-0.087-0.292-0.071-0.331,0.087
			c-0.012,0.052-0.025,0.104-0.038,0.156c-0.019,0.078-0.003,0.176,0.061,0.231c1.541,1.31,5.789,1.096,5.835-1.621
			c0.047-2.804-1.844-4.675-0.462-7.613c1.088-2.311,2.758-4.229,3.638-6.673c0.136-0.378-0.478-0.637-0.65-0.274
			c-1.154,2.439-3.275,4.836-4.08,7.383c-0.278,0.879-0.52,1.804-0.329,2.736c0.163,0.795,0.419,1.499,0.718,2.253
			c0.095,0.261,0.189,0.522,0.284,0.783c-0.168,2.995-1.686,3.914-4.553,2.759C2366.019,621.999,2366.019,621.925,2365.982,621.896
			L2365.982,621.896z"/>
	</g>
</g>
<circle fill="#89C551" cx="2340.361" cy="621.32" r="23.144"/>
<path fill="#739F42" d="M2338.659,601.333c11.546,0,20.907,9.36,20.907,20.907c0,11.547-9.36,20.907-20.907,20.907"/>
<g>
	<g>
		<path fill="#473D16" d="M2336.866,681.551c0.597-4.184,0.537-8.329,0.524-12.549c-0.014-4.688,0.859-9.236,0.396-13.943
			c-0.482-4.894-1.011-9.46-0.589-14.39c0.5-5.834-0.638-11.851,0.199-17.58c0.06-0.409-0.481-0.573-0.625-0.172
			c-1.383,3.843-0.201,7.988-0.356,12.003c-0.219,5.657-1.059,10.944-0.444,16.625c0.52,4.806,0.477,9.213,0.047,14.026
			c-0.47,5.258-0.059,10.52-0.746,15.766C2335.151,682.241,2336.737,682.454,2336.866,681.551L2336.866,681.551z"/>
	</g>
</g>
<g>
	<g>
		<path fill="#473D16" d="M2336.183,636.734c-2.867,1.155-4.385,0.236-4.553-2.759c0.186-0.783,0.592-1.558,0.856-2.32
			c0.3-0.868,0.192-1.782,0.066-2.664c-0.158-1.107-0.938-2.168-1.521-3.072c-1.062-1.644-1.97-3.328-2.807-5.097
			c-0.172-0.363-0.786-0.104-0.65,0.274c0.774,2.149,1.983,4.038,3.217,5.948c2.03,3.142-0.093,5.241-0.041,8.338
			c0.046,2.717,4.294,2.931,5.835,1.621c0.064-0.055,0.08-0.153,0.061-0.231c-0.012-0.052-0.025-0.104-0.038-0.156
			c-0.038-0.158-0.221-0.175-0.331-0.087c-0.031,0.025-0.062,0.049-0.093,0.074C2336.146,636.631,2336.146,636.705,2336.183,636.734
			L2336.183,636.734z"/>
	</g>
</g>
<g>
	<g>
		<path fill="#473D16" d="M2293.833,623.464c-2.867,1.155-4.385,0.236-4.553-2.759c0.186-0.783,0.593-1.558,0.856-2.32
			c0.3-0.868,0.192-1.782,0.066-2.664c-0.158-1.107-0.938-2.168-1.521-3.072c-1.062-1.644-1.97-3.328-2.807-5.097
			c-0.172-0.363-0.786-0.104-0.65,0.274c0.774,2.149,1.983,4.038,3.217,5.948c2.03,3.142-0.093,5.241-0.041,8.338
			c0.046,2.717,4.294,2.931,5.835,1.621c0.064-0.055,0.08-0.153,0.061-0.231c-0.013-0.052-0.025-0.104-0.038-0.156
			c-0.039-0.158-0.221-0.175-0.331-0.087c-0.031,0.025-0.062,0.049-0.093,0.074C2293.796,623.361,2293.796,623.435,2293.833,623.464
			L2293.833,623.464z"/>
	</g>
</g>
<circle fill="#F1EE86" cx="2397.96" cy="598.505" r="36.156"/>
<path fill="#CDC875" d="M2397.96,566.765c18.038,0,32.66,14.623,32.66,32.661s-14.623,32.66-32.66,32.66"/>
<g>
	<g>
		<path fill="#473D16" d="M2397.46,674.477c0.083-0.002,0.167-0.004,0.25-0.006c0.537-0.013,0.932-0.425,0.955-0.955
			c0.664-15.487-1.969-30.962-0.013-46.348c0.91-7.154-1.218-14.236-0.955-21.402c0.117-3.179-0.287-5.544-1.219-8.548
			c-0.824-2.656-3.239-6.945-2.683-9.86c0.086-0.449-0.501-0.593-0.67-0.185c-0.531,1.277-0.031,2.608,0.292,3.903
			c0.941,3.778,2.888,7.417,3.006,11.375c0.1,3.35-0.293,6.626-0.024,10c0.35,4.397,0.904,8.64,0.694,13.065
			c-0.166,3.493-0.917,6.949-1.11,10.45c-0.249,4.494,0.293,9.046,0.632,13.522c0.16,2.121,0.369,23.055,0.846,23.067
			C2396.22,672.525,2396.22,674.508,2397.46,674.477L2397.46,674.477z"/>
	</g>
</g>
<g>
	<g>
		<path fill="#473D16" d="M2398.237,619.016c0.162-2.345,0.469-4.687,0.862-7.006c0.621-3.675,3.9-6,6.694-8.015
			c2.135-1.539,4.723-3.537,5.102-6.291c0.414-3.008-4.677-3.566,0.547-7.707c0.089-0.07,0.112-0.216,0.084-0.319
			c-0.021-0.077-0.042-0.155-0.063-0.232c-0.068-0.25-0.437-0.25-0.505,0c-0.141,0.519-1.563,1.155-1.783,1.741
			c-0.468,1.241-0.921,2.828-0.507,4.16c0.278,0.893,0.601,0.981,0.601,1.701c0,4.232-7.17,7.454-9.767,10.526
			c-2.612,3.09-2.072,7.765-1.819,11.443C2397.707,619.373,2398.213,619.373,2398.237,619.016L2398.237,619.016z"/>
	</g>
</g>
<g>
	<g>
		<path fill="#473D16" d="M2397.775,624.846c-3.429,1.376-8.946,2.912-11.642-0.605c-1.868-2.437-0.297-7.468-1.21-10.416
			c-0.177-0.569-0.512-1.176-0.96-1.562c-2.578-2.222-2.83-4.469-2.75-7.497c0.109-4.076-0.748-7.376-1.589-11.364
			c-0.104-0.493-0.824-0.353-0.844,0.114c-0.096,2.241,0.506,4.151,1.045,6.326c0.719,2.901-0.205,6.299-0.031,9.285
			c0.045,0.781,0.798,2.048,1.375,2.56c3.173,2.814,2.767,5.918,2.808,9.574c0.089,7.852,8.896,7.063,14.167,4.926
			C2398.964,625.854,2398.609,624.511,2397.775,624.846L2397.775,624.846z"/>
	</g>
</g>
<circle fill="#FDBC16" cx="866.514" cy="697.365" r="38.5"/>
<path fill="#D79929" d="M866.514,662.587c19.207,0,34.778,15.571,34.778,34.778s-15.57,34.778-34.778,34.778"/>
<circle fill="#BF5555" cx="947.153" cy="701.659" r="30.125"/>
<path fill="#894243" d="M947.153,674.446c15.029,0,27.212,12.183,27.212,27.212c0,15.029-12.183,27.213-27.212,27.213"/>
<g>
	<g>
		<path fill="#473D16" d="M864.744,773.35c-0.569-2.966-1.746-5.662-1.837-8.693c-0.159-5.298,1.109-10.475,1.99-15.659
			c0.627-3.69,0.887-7.392,0.78-11.133c-0.131-4.595-2.027-9.108-2.322-13.719c-0.271-4.239,2.679-7.651,4.026-11.407
			c1.337-3.728,1.418-7.545,1.407-11.478c-0.025-8.626,1.127-17.809,2.104-26.396c0.002-0.02-0.029-0.02-0.031,0
			c-1.06,8.181-3.195,16.48-3.377,24.736c-0.106,4.828-0.197,9.468-2.251,13.935c-1.37,2.979-3.284,5.718-3.531,9.119
			c-0.252,3.464,0.589,6.822,1.343,10.189c1.357,6.062,1.137,11.44,0.148,17.541c-0.684,4.22-1.383,8.289-1.68,12.548
			c-0.248,3.55,0.175,6.876-0.504,10.417C860.408,776.476,865.343,776.476,864.744,773.35L864.744,773.35z"/>
	</g>
</g>
<g>
	<g>
		<path fill="#473D16" d="M864.206,716.798c-3.242-2.379-6.466-4.555-8.732-7.968c-1.736-2.615-2.207-6.523-3.12-9.49
			c-1.835-5.965-4.929-11.237-5.889-17.5c-0.016-0.105-0.19-0.08-0.184,0.025c0.411,7.314,4.607,13.566,6.294,20.583
			c1.725,7.179,5.201,10.788,10.836,15.381C864.148,718.43,864.972,717.36,864.206,716.798L864.206,716.798z"/>
	</g>
</g>
<g>
	<g>
		<path fill="#473D16" d="M862.955,721.042c2.477-0.749,5.305-0.444,7.361-2.197c4.027-3.433,7.41-7.507,11.223-11.16
			c3.219-3.084,7.648-4.85,10.417-8.437c3.361-4.354,2.38-8.574,4.541-13.311c0.074-0.163-0.145-0.298-0.243-0.142
			c-1.973,3.146-1.777,7.202-3.471,10.602c-2.2,4.415-7.129,6.585-10.82,9.509c-3.324,2.633-6.007,6.07-8.932,9.116
			c-1.401,1.458-3.053,3.454-4.976,4.229c-1.665,0.671-3.501,0.847-5.175,1.521C862.716,720.836,862.777,721.095,862.955,721.042
			L862.955,721.042z"/>
	</g>
</g>
<g>
	<g>
		<path fill="#473D16" d="M948.051,771.865c0.738-5.903,0.48-12.202,0.651-18.172c0.18-6.286,0.391-12.536,0.376-18.828
			c-0.006-2.524-0.888-4.991-1.092-7.5c-0.287-3.515-0.296-6.994-0.225-10.518c0.131-6.489-0.095-12.991-0.151-19.482
			c-0.003-0.302-0.466-0.302-0.469,0c-0.098,11.336-1.827,23.488,0.24,34.677c2.411,13.056-2.314,26.771-0.682,39.823
			C946.808,772.734,947.943,772.734,948.051,771.865L948.051,771.865z"/>
	</g>
</g>
<g>
	<g>
		<path fill="#473D16" d="M946.348,720.381c0.305,0.437,0.217,0.336,0.617,0.713c0.25,0.236,0.609-0.125,0.376-0.376
			c-7.309-7.872-12.259-18.153-13.89-28.874c-0.013-0.087-0.162-0.067-0.153,0.021c0.598,6.346,2.946,12.382,5.744,18.065
			c0.99,2.012,2.342,5.565,4.142,7.127c1.234,1.071,1.914,2.033,3.045,3.247c0.433,0.465,0.969,0.241,0.155,0.031
			C946.359,720.328,946.332,720.357,946.348,720.381L946.348,720.381z"/>
	</g>
</g>
<g>
	<g>
		<path fill="#473D16" d="M947.18,718.174c1.397-2.025,2.532-3.541,4.701-4.834c0.999-0.595,2.403-1.494,2.953-2.576
			c1.433-2.819,1.669-6.003,1.991-9.106c0.02-0.193-0.301-0.235-0.338-0.046c-0.767,3.956-0.38,8.127-4.022,10.769
			c-2.527,1.833-3.82,2.983-5.339,5.761C947.107,718.179,947.157,718.207,947.18,718.174L947.18,718.174z"/>
	</g>
</g>
<circle fill="#FDBC16" cx="960.486" cy="753.834" r="38.5"/>
<path fill="#D79929" d="M959.889,718.35c19.207,0,34.778,15.571,34.778,34.778c0,19.207-15.57,34.778-34.778,34.778"/>
<circle fill="#BF5555" cx="879.847" cy="758.127" r="30.125"/>
<path fill="#894243" d="M878.625,730.915c15.029,0,27.212,12.183,27.212,27.213c0,15.029-12.183,27.212-27.212,27.212"/>
<g>
	<g>
		<path fill="#473D16" d="M965.993,829.819c-0.574-2.991-0.402-5.692-0.405-8.693c-0.004-4.238-0.731-8.346-1.471-12.502
			c-0.925-5.186-1.837-10.565-0.912-15.821c0.717-4.074,1.981-8.038,2.204-12.187c0.133-2.483-0.859-5.589-2.056-7.706
			c-2.797-4.945-3.671-9.544-3.814-15.179c-0.225-8.873-2.258-17.604-3.397-26.396c-0.003-0.02-0.034-0.02-0.031,0
			c0.455,3.992,0.44,8.01,0.879,12.002c0.467,4.251,1.238,8.445,1.243,12.734c0.004,3.412-0.018,6.809,0.486,10.19
			c0.616,4.134,3.494,7.649,4.608,11.647c1.221,4.379-0.901,10.082-1.706,14.459c-0.681,3.707-0.347,7.613,0.214,11.316
			c0.796,5.258,2.009,10.387,2.215,15.72c0.145,3.753-1.101,6.814-1.792,10.417C961.657,832.945,966.592,832.945,965.993,829.819
			L965.993,829.819z"/>
	</g>
</g>
<g>
	<g>
		<path fill="#473D16" d="M963.589,774.298c2.829-2.306,5.498-4.429,7.781-7.304c1.746-2.198,2.266-5.476,3.055-8.078
			c2.057-6.779,5.891-13.427,6.294-20.583c0.006-0.104-0.168-0.13-0.184-0.025c-0.953,6.216-3.812,11.637-5.889,17.5
			c-1.121,3.164-1.654,6.434-3.12,9.49c-1.664,3.471-5.773,5.797-8.732,7.968C962.028,773.829,962.852,774.899,963.589,774.298
			L963.589,774.298z"/>
	</g>
</g>
<g>
	<g>
		<path fill="#473D16" d="M964.12,777.239c-3.564-1.436-6.121-1.8-9.036-4.623c-3.444-3.336-6.427-7.081-10.047-10.243
			c-2.979-2.602-6.492-4.31-9.228-7.248c-3.582-3.847-2.518-8.805-5.063-12.862c-0.098-0.156-0.317-0.021-0.243,0.142
			c1.867,4.092,1.18,8.221,3.662,12.173c2.381,3.791,6.755,5.833,10.127,8.54c4.108,3.299,7.409,7.631,11.258,11.228
			c2.608,2.437,5.218,2.174,8.495,3.164C964.223,777.564,964.284,777.305,964.12,777.239L964.12,777.239z"/>
	</g>
</g>
<g>
	<g>
		<path fill="#473D16" d="M880.301,828.334c0.744-5.948-0.304-12.191-0.505-18.172c-0.211-6.286-0.452-12.535-0.468-18.828
			c-0.006-2.511,0.764-4.989,0.908-7.5c0.201-3.517,0.134-7-0.003-10.518c-0.254-6.493-0.317-12.985-0.373-19.482
			c-0.003-0.302-0.466-0.302-0.469,0c-0.051,5.885-0.239,11.777-0.188,17.661c0.055,6.292-0.653,12.117-1.159,18.339
			c-0.498,6.127-0.122,12.404,0.178,18.533c0.323,6.586-0.088,13.447,0.727,19.967C879.057,829.203,880.192,829.203,880.301,828.334
			L880.301,828.334z"/>
	</g>
</g>
<g>
	<g>
		<path fill="#473D16" d="M880.616,776.804c-1.594,0.412,0.277-0.161-0.213,0.364c0.907-0.973,1.539-2.072,2.586-2.924
			c2.141-1.742,2.734-4.322,4.22-6.521c3.644-5.393,5.892-12.999,6.494-19.389c0.008-0.087-0.14-0.108-0.153-0.021
			c-1.632,10.721-6.581,21.002-13.891,28.874c-0.233,0.251,0.126,0.612,0.376,0.376c0.4-0.377,0.312-0.276,0.617-0.713
			C880.668,776.826,880.641,776.797,880.616,776.804L880.616,776.804z"/>
	</g>
</g>
<g>
	<g>
		<path fill="#473D16" d="M879.874,774.612c-1.279-2.34-2.282-3.739-4.521-5.203c-4.305-2.815-3.97-6.836-4.84-11.327
			c-0.037-0.189-0.358-0.147-0.338,0.046c0.322,3.103,0.558,6.287,1.991,9.106c0.434,0.854,1.378,1.479,2.118,2.046
			c1.028,0.79,2.207,1.309,3.234,2.125c0.887,0.704,1.639,2.278,2.302,3.239C879.843,774.676,879.893,774.647,879.874,774.612
			L879.874,774.612z"/>
	</g>
</g>
<circle fill="#BF5555" cx="2019.486" cy="696.549" r="25.189"/>
<path fill="#894243" d="M2019.486,673.795c12.567,0,22.754,10.187,22.754,22.754s-10.187,22.754-22.754,22.754"/>
<g>
	<g>
		<path fill="#473D16" d="M2020.324,755.432c0.681-4.531,0.496-9.479,0.542-14.073c0.052-5.161,0.365-10.303,0.35-15.471
			c-0.015-5.146-1.224-10.146-1.164-15.344c0.067-5.863-0.085-11.723-0.145-17.586c-0.003-0.302-0.466-0.302-0.469,0
			c-0.054,5.216-0.128,10.426-0.328,15.638c-0.207,5.392,0.328,10.387,0.696,15.718c0.348,5.056-0.124,10.261-0.38,15.313
			c-0.261,5.157-1.174,10.684-0.405,15.805C2019.118,756.081,2020.227,756.081,2020.324,755.432L2020.324,755.432z"/>
	</g>
</g>
<g>
	<g>
		<path fill="#473D16" d="M2018.809,712.206c0.228,0.385,0.163,0.299,0.489,0.625c0.243,0.244,0.609-0.125,0.376-0.376
			c-6.104-6.576-10.231-15.196-11.633-24.116c-0.014-0.087-0.162-0.067-0.154,0.021c0.571,5.583,2.584,11.035,5.24,15.962
			c1.172,2.175,2.038,4.311,3.947,5.93c-0.136-0.116,1.401,1.697,1.916,2.248c-0.427-0.457,1.13-0.107-0.146-0.34
			C2018.818,712.155,2018.794,712.181,2018.809,712.206L2018.809,712.206z"/>
	</g>
</g>
<g>
	<g>
		<path fill="#473D16" d="M2019.513,710.361c1.182-1.676,2.133-2.941,3.946-4.012c0.843-0.498,2.017-1.258,2.479-2.169
			c1.195-2.358,1.416-5.032,1.663-7.631c0.018-0.193-0.299-0.234-0.338-0.046c-0.668,3.295-0.303,6.775-3.357,8.977
			c-2.12,1.529-3.202,2.513-4.448,4.85C2019.44,710.366,2019.49,710.394,2019.513,710.361L2019.513,710.361z"/>
	</g>
</g>
<circle fill="#FDBC16" cx="2030.635" cy="740.175" r="32.192"/>
<path fill="#D79929" d="M2030.136,710.505c16.06,0,29.08,13.019,29.08,29.08s-13.02,29.08-29.08,29.08"/>
<g>
	<g>
		<path fill="#473D16" d="M2035.546,803.626c-1.276-5.509-0.657-11.43-1.657-17.079c-0.821-4.64-1.648-9.344-0.793-14.044
			c0.629-3.46,1.712-6.818,1.785-10.356c0.041-1.96-0.794-4.432-1.731-6.092c-2.421-4.292-3.11-8.448-3.211-13.32
			c-0.148-7.179-2.029-14.264-2.936-21.374c-0.002-0.02-0.033-0.02-0.031,0c0.753,6.925,1.716,14.426,1.663,21.374
			c-0.021,2.778,0.014,5.546,0.489,8.286c0.685,3.957,3.542,7.01,4,11.125c0.401,3.61-1.342,8.099-1.891,11.679
			c-0.475,3.098,0.178,6.479,0.639,9.554c0.623,4.156,1.5,8.118,1.647,12.347c0.095,2.733-1.1,5.268-1.71,7.899
			C2031.085,806.75,2036.27,806.75,2035.546,803.626L2035.546,803.626z"/>
	</g>
</g>
<g>
	<g>
		<path fill="#473D16" d="M2033.305,757.363c4.307-3.53,7.115-6.217,8.649-11.638c1.737-6.139,5.234-12.087,5.614-18.509
			c0.006-0.105-0.166-0.13-0.184-0.025c-0.845,4.953-2.956,9.31-4.729,13.966c-0.868,2.279-1.374,4.712-2.142,7.03
			c-1.237,3.737-5.024,5.992-8.003,8.145C2031.741,756.888,2032.57,757.966,2033.305,757.363L2033.305,757.363z"/>
	</g>
</g>
<g>
	<g>
		<path fill="#473D16" d="M2033.68,759.724c-2.803-1.158-4.836-1.387-7.197-3.59c-2.875-2.683-5.307-5.791-8.208-8.454
			c-2.462-2.26-5.472-3.708-7.864-6.083c-3.269-3.247-2.482-7.525-4.624-11.108c-0.079-0.132-0.321-0.042-0.257,0.108
			c1.303,3.095,0.949,6.381,2.517,9.447c1.439,2.813,4.409,4.769,6.974,6.43c4.617,2.991,7.989,7.81,12.066,11.455
			c1.887,1.687,4.207,1.39,6.517,2.066C2033.784,760.048,2033.842,759.791,2033.68,759.724L2033.68,759.724z"/>
	</g>
</g>
<circle fill="#89C551" cx="2606.624" cy="726.34" r="23.144"/>
<path fill="#739F42" d="M2606.575,705.114c11.547,0,20.907,9.36,20.907,20.907s-9.36,20.907-20.907,20.907"/>
<circle fill="#F1EE86" cx="2662.429" cy="712.01" r="36.156"/>
<path fill="#CDC875" d="M2661.84,680.399c18.038,0,32.66,14.623,32.66,32.661s-14.623,32.661-32.66,32.661"/>
<g>
	<g>
		<path fill="#473D16" d="M2661.929,787.982c0.083-0.002,0.167-0.004,0.25-0.006c0.537-0.013,0.932-0.425,0.955-0.955
			c0.664-15.487-1.969-30.962-0.013-46.348c0.91-7.154-1.218-14.236-0.955-21.402c0.116-3.179-0.287-5.544-1.219-8.548
			c-0.824-2.656-3.24-6.945-2.683-9.86c0.086-0.449-0.501-0.593-0.67-0.185c-0.531,1.277-0.031,2.608,0.292,3.903
			c0.941,3.778,2.888,7.417,3.006,11.375c0.1,3.35-0.293,6.626-0.024,10c0.35,4.398,0.904,8.64,0.694,13.065
			c-0.166,3.493-0.917,6.949-1.11,10.45c-0.248,4.494,0.293,9.046,0.632,13.522c0.16,2.121,0.369,23.055,0.846,23.067
			C2660.689,786.029,2660.689,788.012,2661.929,787.982L2661.929,787.982z"/>
	</g>
</g>
<g>
	<g>
		<path fill="#473D16" d="M2662.706,732.521c0.162-2.345,0.469-4.687,0.862-7.006c0.621-3.675,3.9-6,6.694-8.015
			c2.135-1.539,4.723-3.537,5.102-6.291c0.414-3.008-4.677-3.566,0.547-7.707c0.089-0.07,0.112-0.216,0.084-0.319
			c-0.021-0.078-0.042-0.155-0.063-0.233c-0.068-0.25-0.437-0.25-0.505,0c-0.141,0.519-1.563,1.155-1.783,1.741
			c-0.468,1.241-0.921,2.828-0.507,4.16c0.278,0.892,0.601,0.981,0.601,1.701c0,4.232-7.17,7.454-9.767,10.526
			c-2.612,3.089-2.072,7.765-1.819,11.443C2662.176,732.878,2662.681,732.878,2662.706,732.521L2662.706,732.521z"/>
	</g>
</g>
<g>
	<g>
		<path fill="#473D16" d="M2662.244,738.35c-3.429,1.376-8.946,2.912-11.642-0.605c-1.868-2.437-0.297-7.468-1.21-10.416
			c-0.177-0.569-0.512-1.176-0.96-1.562c-2.578-2.222-2.83-4.469-2.75-7.497c0.108-4.076-0.748-7.376-1.589-11.364
			c-0.104-0.493-0.824-0.353-0.844,0.114c-0.096,2.241,0.506,4.151,1.045,6.326c0.719,2.901-0.205,6.299-0.031,9.285
			c0.045,0.781,0.798,2.048,1.375,2.56c3.173,2.814,2.767,5.918,2.808,9.574c0.089,7.852,8.896,7.063,14.167,4.926
			C2663.432,739.359,2663.078,738.016,2662.244,738.35L2662.244,738.35z"/>
	</g>
</g>
<g>
	<g>
		<path fill="#473D16" d="M2603.129,786.57c0.596-4.184,0.537-8.329,0.524-12.549c-0.014-4.688,0.859-9.236,0.396-13.943
			c-0.482-4.894-1.011-9.46-0.589-14.39c0.5-5.834-0.638-11.851,0.199-17.581c0.06-0.409-0.481-0.573-0.625-0.172
			c-1.383,3.843-0.201,7.988-0.357,12.003c-0.219,5.657-1.058,10.944-0.443,16.625c0.52,4.806,0.477,9.213,0.046,14.026
			c-0.47,5.258-0.059,10.52-0.746,15.766C2601.414,787.26,2603,787.474,2603.129,786.57L2603.129,786.57z"/>
	</g>
</g>
<g>
	<g>
		<path fill="#473D16" d="M2603.086,745.114c1.567,1.753,3.602,4.856,5.789,2.275c1.194-1.409,1.406-4.656,2.048-6.403
			c1.191-3.245,2.988-6.636,3.505-10.063c0.042-0.281-0.305-0.459-0.471-0.199c-1.884,2.944-2.752,6.74-3.996,9.997
			c-0.662,1.732-1.227,3.551-1.615,5.365c-0.756,3.53-4.219-0.926-4.74-1.491C2603.282,744.245,2602.772,744.763,2603.086,745.114
			L2603.086,745.114z"/>
	</g>
</g>
<g>
	<g>
		<path fill="#473D16" d="M2602.446,741.754c-2.867,1.155-4.385,0.236-4.554-2.759c0.186-0.783,0.593-1.558,0.856-2.32
			c0.3-0.868,0.192-1.782,0.066-2.664c-0.158-1.107-0.938-2.168-1.521-3.072c-1.062-1.644-1.97-3.328-2.807-5.097
			c-0.172-0.363-0.786-0.104-0.65,0.274c0.774,2.149,1.983,4.038,3.217,5.948c2.03,3.142-0.093,5.241-0.041,8.338
			c0.046,2.717,4.294,2.931,5.835,1.621c0.064-0.055,0.08-0.153,0.061-0.231c-0.013-0.052-0.025-0.104-0.038-0.156
			c-0.038-0.158-0.221-0.175-0.331-0.087c-0.031,0.025-0.062,0.049-0.093,0.074C2602.409,741.651,2602.409,741.725,2602.446,741.754
			L2602.446,741.754z"/>
	</g>
</g>
<circle fill="#FDBC16" cx="2754.7" cy="695.899" r="38.5"/>
<path fill="#D79929" d="M2754.7,661.121c19.207,0,34.778,15.571,34.778,34.778c0,19.207-15.571,34.778-34.778,34.778"/>
<g>
	<g>
		<path fill="#473D16" d="M2760.207,771.884c-0.574-2.991-0.403-5.692-0.406-8.693c-0.004-4.238-0.73-8.346-1.471-12.502
			c-0.925-5.186-1.837-10.565-0.912-15.821c0.717-4.074,1.981-8.038,2.204-12.187c0.133-2.483-0.859-5.589-2.056-7.706
			c-2.797-4.945-3.671-9.544-3.814-15.179c-0.225-8.873-2.258-17.604-3.397-26.396c-0.002-0.02-0.033-0.02-0.031,0
			c0.455,3.992,0.44,8.01,0.879,12.002c0.467,4.251,1.238,8.445,1.243,12.734c0.004,3.412-0.018,6.809,0.486,10.19
			c0.616,4.134,3.494,7.649,4.608,11.647c1.221,4.379-0.901,10.082-1.706,14.459c-0.681,3.707-0.347,7.613,0.214,11.316
			c0.796,5.258,2.009,10.387,2.215,15.72c0.145,3.753-1.101,6.814-1.792,10.417C2755.871,775.01,2760.807,775.01,2760.207,771.884
			L2760.207,771.884z"/>
	</g>
</g>
<g>
	<g>
		<path fill="#473D16" d="M2757.803,716.363c2.829-2.306,5.498-4.429,7.781-7.304c1.746-2.198,2.266-5.476,3.055-8.078
			c2.057-6.779,5.891-13.427,6.293-20.583c0.006-0.104-0.168-0.13-0.184-0.025c-0.953,6.216-3.812,11.637-5.889,17.5
			c-1.121,3.164-1.654,6.434-3.12,9.49c-1.665,3.471-5.773,5.797-8.732,7.968C2756.242,715.894,2757.066,716.964,2757.803,716.363
			L2757.803,716.363z"/>
	</g>
</g>
<g>
	<g>
		<path fill="#473D16" d="M2758.334,719.304c-3.564-1.436-6.121-1.8-9.036-4.623c-3.444-3.336-6.427-7.081-10.047-10.243
			c-2.979-2.602-6.492-4.31-9.228-7.248c-3.582-3.847-2.518-8.805-5.063-12.862c-0.098-0.156-0.317-0.021-0.243,0.142
			c1.867,4.093,1.179,8.221,3.662,12.173c2.381,3.791,6.755,5.833,10.127,8.54c4.108,3.299,7.409,7.631,11.258,11.228
			c2.608,2.437,5.218,2.174,8.495,3.164C2758.438,719.629,2758.498,719.37,2758.334,719.304L2758.334,719.304z"/>
	</g>
</g>
<circle fill="#89C551" cx="2628.067" cy="741.046" r="23.144"/>
<path fill="#739F42" d="M2627.482,720.385c11.546,0,20.907,9.36,20.907,20.907s-9.36,20.907-20.907,20.907"/>
<circle fill="#BF5555" cx="2724.575" cy="714.899" r="30.125"/>
<path fill="#894243" d="M2724.575,687.686c15.029,0,27.213,12.183,27.213,27.212s-12.184,27.213-27.213,27.213"/>
<g>
	<g>
		<path fill="#473D16" d="M2725.473,785.105c0.738-5.903,0.48-12.202,0.651-18.172c0.18-6.286,0.391-12.536,0.375-18.828
			c-0.006-2.524-0.887-4.991-1.092-7.5c-0.287-3.515-0.296-6.994-0.225-10.519c0.131-6.489-0.095-12.991-0.151-19.481
			c-0.002-0.302-0.466-0.302-0.469,0c-0.098,11.336-1.827,23.488,0.24,34.677c2.411,13.056-2.314,26.771-0.681,39.823
			C2724.23,785.975,2725.365,785.975,2725.473,785.105L2725.473,785.105z"/>
	</g>
</g>
<g>
	<g>
		<path fill="#473D16" d="M2723.77,733.621c0.305,0.437,0.217,0.336,0.617,0.713c0.25,0.236,0.609-0.125,0.376-0.376
			c-7.309-7.872-12.259-18.153-13.89-28.874c-0.013-0.087-0.162-0.067-0.154,0.021c0.598,6.346,2.947,12.382,5.744,18.065
			c0.99,2.012,2.342,5.565,4.142,7.127c1.234,1.071,1.914,2.033,3.045,3.247c0.433,0.465,0.969,0.241,0.155,0.031
			C2723.781,733.569,2723.754,733.597,2723.77,733.621L2723.77,733.621z"/>
	</g>
</g>
<g>
	<g>
		<path fill="#473D16" d="M2724.602,731.415c1.397-2.025,2.531-3.541,4.701-4.834c0.999-0.595,2.403-1.494,2.953-2.576
			c1.433-2.819,1.669-6.002,1.991-9.106c0.02-0.193-0.301-0.235-0.338-0.046c-0.767,3.956-0.38,8.127-4.022,10.769
			c-2.527,1.833-3.82,2.983-5.339,5.761C2724.529,731.419,2724.579,731.447,2724.602,731.415L2724.602,731.415z"/>
	</g>
</g>
<g>
	<g>
		<path fill="#473D16" d="M2633.158,801.061c-0.614-4.682-0.329-9.349-0.607-14.048c-0.32-5.399-0.731-10.338-0.093-15.743
			c0.589-4.989,0.187-9.732-0.302-14.708c-0.45-4.588,1.072-9.556-0.498-13.919c-0.144-0.401-0.685-0.236-0.625,0.172
			c0.753,5.159-0.421,10.437,0.022,15.664c0.422,4.977,0.417,9.585-0.202,14.545c-0.588,4.716-0.274,9.271,0.091,13.99
			c0.368,4.773-0.061,9.501,0.618,14.264C2631.691,802.18,2633.277,801.966,2633.158,801.061L2633.158,801.061z"/>
	</g>
</g>
<g>
	<g>
		<path fill="#473D16" d="M2631.086,759.301c-0.702,0.761-1.354,1.554-2.1,2.275c-2.367,2.284-3.595-4.205-3.825-4.981
			c-1.062-3.576-2.41-8.013-4.426-11.164c-0.166-0.26-0.513-0.082-0.471,0.199c0.454,3.011,1.963,6.057,3.058,8.891
			c0.581,1.503,1.07,3.011,1.542,4.55c0.261,0.852,0.353,2.317,0.953,3.026c2.187,2.581,4.221-0.522,5.789-2.276
			C2631.919,759.469,2631.408,758.951,2631.086,759.301L2631.086,759.301z"/>
	</g>
</g>
<circle fill="#89C551" cx="2564.274" cy="739.61" r="23.144"/>
<path fill="#739F42" d="M2563.311,718.385c11.546,0,20.907,9.36,20.907,20.907s-9.36,20.907-20.907,20.907"/>
<g>
	<g>
		<path fill="#473D16" d="M2560.779,799.841c0.597-4.184,0.537-8.329,0.524-12.549c-0.014-4.688,0.859-9.236,0.396-13.943
			c-0.482-4.894-1.011-9.46-0.589-14.39c0.5-5.834-0.638-11.851,0.199-17.581c0.06-0.409-0.481-0.573-0.625-0.172
			c-1.383,3.843-0.201,7.988-0.356,12.003c-0.219,5.657-1.059,10.944-0.444,16.625c0.52,4.806,0.477,9.213,0.047,14.026
			c-0.47,5.258-0.059,10.52-0.746,15.766C2559.064,800.531,2560.65,800.744,2560.779,799.841L2560.779,799.841z"/>
	</g>
</g>
<g>
	<g>
		<path fill="#473D16" d="M2560.736,758.384c1.567,1.753,3.602,4.856,5.789,2.276c1.194-1.409,1.406-4.656,2.048-6.403
			c1.191-3.245,2.988-6.636,3.505-10.063c0.042-0.281-0.305-0.459-0.471-0.199c-1.884,2.945-2.752,6.74-3.996,9.997
			c-0.662,1.732-1.227,3.551-1.615,5.365c-0.756,3.53-4.219-0.926-4.74-1.491C2560.932,757.515,2560.422,758.033,2560.736,758.384
			L2560.736,758.384z"/>
	</g>
</g>
<g>
	<g>
		<path fill="#473D16" d="M2560.096,755.024c-2.867,1.155-4.385,0.236-4.553-2.759c0.186-0.783,0.592-1.558,0.856-2.32
			c0.3-0.868,0.192-1.782,0.066-2.664c-0.158-1.107-0.938-2.168-1.521-3.072c-1.062-1.644-1.97-3.328-2.807-5.097
			c-0.172-0.363-0.786-0.104-0.65,0.274c0.774,2.149,1.983,4.038,3.217,5.948c2.03,3.142-0.093,5.241-0.041,8.338
			c0.046,2.717,4.294,2.931,5.835,1.621c0.064-0.055,0.08-0.153,0.061-0.231c-0.012-0.052-0.025-0.104-0.038-0.156
			c-0.038-0.158-0.221-0.175-0.331-0.087c-0.031,0.025-0.062,0.049-0.093,0.074C2560.059,754.921,2560.059,754.995,2560.096,755.024
			L2560.096,755.024z"/>
	</g>
</g>
<circle fill="#89C551" cx="2585.717" cy="754.317" r="23.144"/>
<path fill="#739F42" d="M2585.668,733.41c11.546,0,20.907,9.36,20.907,20.907s-9.36,20.907-20.907,20.907"/>
<g>
	<g>
		<path fill="#473D16" d="M2590.808,814.331c-0.614-4.682-0.328-9.349-0.607-14.048c-0.32-5.399-0.731-10.338-0.093-15.743
			c0.589-4.989,0.187-9.732-0.302-14.708c-0.45-4.588,1.072-9.556-0.498-13.92c-0.144-0.401-0.685-0.236-0.625,0.172
			c0.753,5.159-0.42,10.437,0.022,15.664c0.421,4.977,0.417,9.585-0.202,14.545c-0.588,4.716-0.274,9.271,0.091,13.99
			c0.369,4.773-0.061,9.501,0.619,14.264C2589.341,815.45,2590.927,815.237,2590.808,814.331L2590.808,814.331z"/>
	</g>
</g>
<g>
	<g>
		<path fill="#473D16" d="M2589.895,769.598c-0.031-0.025-0.062-0.049-0.093-0.074c-0.11-0.087-0.292-0.071-0.331,0.087
			c-0.012,0.052-0.025,0.104-0.038,0.156c-0.019,0.078-0.003,0.176,0.061,0.231c1.541,1.31,5.789,1.096,5.835-1.621
			c0.047-2.804-1.844-4.675-0.462-7.613c1.088-2.311,2.758-4.229,3.638-6.673c0.136-0.378-0.478-0.637-0.65-0.274
			c-1.154,2.439-3.275,4.835-4.08,7.383c-0.278,0.879-0.52,1.804-0.329,2.735c0.163,0.795,0.419,1.499,0.718,2.253
			c0.095,0.261,0.189,0.522,0.284,0.783c-0.168,2.995-1.686,3.914-4.553,2.759C2589.932,769.701,2589.932,769.628,2589.895,769.598
			L2589.895,769.598z"/>
	</g>
</g>
<g>
	<g>
		<path fill="#473D16" d="M2632.245,756.328c-0.031-0.025-0.062-0.049-0.093-0.074c-0.11-0.087-0.293-0.071-0.331,0.087
			c-0.013,0.052-0.025,0.104-0.038,0.156c-0.019,0.078-0.003,0.176,0.061,0.231c1.541,1.31,5.789,1.096,5.835-1.621
			c0.047-2.804-1.844-4.675-0.462-7.613c1.088-2.311,2.758-4.229,3.638-6.673c0.136-0.378-0.478-0.637-0.65-0.274
			c-1.154,2.439-3.275,4.836-4.08,7.383c-0.278,0.879-0.52,1.804-0.329,2.735c0.163,0.795,0.419,1.499,0.718,2.253
			c0.095,0.261,0.189,0.522,0.284,0.783c-0.168,2.995-1.686,3.914-4.554,2.759C2632.282,756.431,2632.282,756.357,2632.245,756.328
			L2632.245,756.328z"/>
	</g>
</g>
<circle fill="#F1EE86" cx="2528.118" cy="731.502" r="36.156"/>
<path fill="#CDC875" d="M2524.799,699.761c18.038,0,32.66,14.623,32.66,32.661s-14.623,32.66-32.66,32.66"/>
<g>
	<g>
		<path fill="#473D16" d="M2528.618,805.551c0.534-0.013,0.621-19.205,0.72-21.171c0.416-8.267,0.877-15.967-0.176-24.216
			c-0.981-7.684,1.008-15.365,0.605-23.087c-0.219-4.195,1.313-8.001,2.594-11.929c0.485-1.486,1.219-3.469,0.591-4.979
			c-0.17-0.408-0.756-0.264-0.671,0.185c0.454,2.379-1.397,5.958-2.112,8.1c-0.99,2.967-1.811,5.49-1.813,8.622
			c-0.005,7.676-1.743,15.448-0.932,23.087c1.642,15.448-0.678,30.825-0.012,46.348c0.023,0.53,0.417,0.942,0.955,0.955
			c0.083,0.002,0.167,0.004,0.25,0.006C2529.857,807.504,2529.857,805.521,2528.618,805.551L2528.618,805.551z"/>
	</g>
</g>
<g>
	<g>
		<path fill="#473D16" d="M2528.395,752.012c0.28-4.057,0.475-7.711-1.703-11.293c-1.75-2.88-10.884-6.95-9.906-10.509
			c0.179-0.653,0.247-0.658,0.469-1.373c0.3-0.963,0.448-2.53,0.102-3.449c-0.392-1.039-2.024-2.161-2.238-2.947
			c-0.068-0.25-0.437-0.25-0.505,0c-0.021,0.078-0.042,0.155-0.063,0.232c-0.028,0.103-0.004,0.248,0.084,0.319
			c5.224,4.142,0.133,4.699,0.547,7.707c0.382,2.779,2.98,4.71,5.102,6.291c2.257,1.681,4.321,3.212,5.856,5.624
			c1.496,2.35,1.513,6.695,1.699,9.397C2527.865,752.37,2528.37,752.37,2528.395,752.012L2528.395,752.012z"/>
	</g>
</g>
<g>
	<g>
		<path fill="#473D16" d="M2527.933,759.183c5.768,2.338,13.465,2.757,14.167-4.926c0.278-3.038-0.95-6.253,1.886-8.756
			c1.125-0.993,1.706-1.804,2.272-3.191c0.667-1.634-0.023-4.619-0.158-6.298c-0.268-3.319,1.338-6.223,1.197-9.5
			c-0.02-0.467-0.74-0.607-0.844-0.114c-0.679,3.222-1.8,6.3-1.688,9.614c0.1,2.985,0.934,6.128-1.775,8.493
			c-0.788,0.688-1.5,1.235-1.835,2.316c-0.758,2.444-0.487,4.905-0.506,7.436c-0.053,6.877-8.206,5.246-12.346,3.585
			C2527.469,757.507,2527.114,758.851,2527.933,759.183L2527.933,759.183z"/>
	</g>
</g>
<circle fill="#F1EE86" cx="1412.355" cy="731.347" r="36.156"/>
<path fill="#CDC875" d="M1412.355,698.687c18.038,0,32.661,14.623,32.661,32.661s-14.623,32.661-32.661,32.661"/>
<g>
	<g>
		<path fill="#473D16" d="M1412.855,805.397c0.534-0.013,0.621-19.205,0.72-21.171c0.416-8.267,0.877-15.967-0.176-24.216
			c-0.981-7.684,1.008-15.365,0.605-23.087c-0.219-4.195,1.313-8.001,2.594-11.929c0.485-1.486,1.218-3.469,0.591-4.979
			c-0.17-0.408-0.756-0.265-0.671,0.185c0.454,2.379-1.397,5.958-2.112,8.1c-0.99,2.967-1.811,5.49-1.813,8.622
			c-0.005,7.676-1.743,15.448-0.932,23.087c1.642,15.448-0.678,30.825-0.012,46.348c0.023,0.53,0.417,0.942,0.955,0.955
			c0.083,0.002,0.167,0.004,0.25,0.006C1414.095,807.349,1414.095,805.366,1412.855,805.397L1412.855,805.397z"/>
	</g>
</g>
<g>
	<g>
		<path fill="#473D16" d="M1412.633,751.858c0.28-4.057,0.475-7.711-1.703-11.293c-1.751-2.88-10.884-6.95-9.906-10.509
			c0.18-0.653,0.247-0.658,0.469-1.373c0.299-0.963,0.448-2.53,0.102-3.449c-0.392-1.039-2.024-2.161-2.238-2.947
			c-0.068-0.25-0.437-0.25-0.505,0c-0.021,0.078-0.042,0.155-0.063,0.233c-0.028,0.103-0.005,0.248,0.084,0.319
			c5.224,4.142,0.133,4.699,0.547,7.707c0.382,2.779,2.98,4.71,5.102,6.291c2.257,1.681,4.321,3.212,5.856,5.624
			c1.496,2.35,1.513,6.695,1.699,9.397C1412.103,752.215,1412.608,752.215,1412.633,751.858L1412.633,751.858z"/>
	</g>
</g>
<g>
	<g>
		<path fill="#473D16" d="M1412.171,759.028c5.768,2.338,13.465,2.757,14.167-4.926c0.278-3.038-0.95-6.253,1.886-8.756
			c1.125-0.993,1.706-1.804,2.272-3.191c0.667-1.634-0.023-4.619-0.158-6.298c-0.268-3.319,1.338-6.223,1.197-9.5
			c-0.02-0.467-0.74-0.607-0.844-0.114c-0.679,3.222-1.8,6.3-1.689,9.614c0.1,2.985,0.934,6.128-1.775,8.493
			c-0.788,0.688-1.5,1.235-1.835,2.316c-0.758,2.444-0.487,4.905-0.506,7.436c-0.053,6.876-8.206,5.246-12.346,3.585
			C1411.706,757.353,1411.352,758.696,1412.171,759.028L1412.171,759.028z"/>
	</g>
</g>
<circle fill="#89C551" cx="1446.717" cy="760.383" r="23.144"/>
<path fill="#739F42" d="M1445.016,740.396c11.547,0,20.907,9.36,20.907,20.907s-9.36,20.907-20.907,20.907"/>
<g>
	<g>
		<path fill="#473D16" d="M1443.222,820.613c0.597-4.184,0.537-8.329,0.524-12.549c-0.014-4.688,0.859-9.236,0.395-13.943
			c-0.482-4.894-1.011-9.46-0.589-14.39c0.5-5.834-0.638-11.851,0.199-17.58c0.06-0.409-0.481-0.573-0.625-0.172
			c-1.383,3.843-0.201,7.988-0.357,12.003c-0.219,5.657-1.058,10.944-0.443,16.625c0.52,4.806,0.477,9.213,0.046,14.026
			c-0.47,5.258-0.059,10.52-0.746,15.766C1441.508,821.303,1443.094,821.517,1443.222,820.613L1443.222,820.613z"/>
	</g>
</g>
<g>
	<g>
		<path fill="#473D16" d="M1443.179,779.157c1.567,1.753,3.602,4.856,5.789,2.275c1.194-1.409,1.406-4.656,2.048-6.403
			c1.191-3.245,2.988-6.636,3.505-10.063c0.042-0.281-0.305-0.459-0.471-0.199c-1.884,2.944-2.752,6.74-3.996,9.997
			c-0.662,1.732-1.227,3.551-1.615,5.365c-0.756,3.53-4.219-0.926-4.74-1.491C1443.376,778.288,1442.865,778.806,1443.179,779.157
			L1443.179,779.157z"/>
	</g>
</g>
<g>
	<g>
		<path fill="#473D16" d="M1442.539,775.797c-2.867,1.155-4.385,0.236-4.553-2.759c0.186-0.783,0.592-1.558,0.856-2.32
			c0.3-0.868,0.192-1.782,0.066-2.664c-0.158-1.107-0.938-2.168-1.521-3.072c-1.062-1.644-1.97-3.328-2.807-5.097
			c-0.172-0.363-0.786-0.104-0.65,0.274c0.774,2.149,1.983,4.038,3.217,5.948c2.03,3.142-0.093,5.241-0.041,8.338
			c0.046,2.717,4.294,2.931,5.835,1.621c0.064-0.055,0.08-0.153,0.061-0.231c-0.013-0.052-0.025-0.104-0.038-0.156
			c-0.038-0.158-0.221-0.174-0.331-0.087c-0.031,0.025-0.062,0.049-0.093,0.074C1442.502,775.694,1442.502,775.768,1442.539,775.797
			L1442.539,775.797z"/>
	</g>
</g>
<circle fill="#BF5555" cx="1484.397" cy="744.607" r="30.125"/>
<path fill="#894243" d="M1484.397,717.394c15.029,0,27.213,12.183,27.213,27.212c0,15.029-12.183,27.213-27.213,27.213"/>
<g>
	<g>
		<path fill="#473D16" d="M1485.296,814.813c0.738-5.903,0.48-12.202,0.651-18.172c0.18-6.286,0.391-12.536,0.376-18.828
			c-0.006-2.524-0.888-4.991-1.092-7.5c-0.287-3.515-0.296-6.994-0.225-10.519c0.131-6.489-0.095-12.991-0.151-19.481
			c-0.003-0.302-0.466-0.302-0.469,0c-0.098,11.336-1.827,23.488,0.24,34.677c2.411,13.056-2.314,26.771-0.682,39.823
			C1484.052,815.682,1485.187,815.682,1485.296,814.813L1485.296,814.813z"/>
	</g>
</g>
<g>
	<g>
		<path fill="#473D16" d="M1483.592,763.329c0.305,0.437,0.217,0.336,0.617,0.713c0.25,0.236,0.609-0.125,0.376-0.376
			c-7.309-7.872-12.259-18.153-13.89-28.874c-0.013-0.087-0.162-0.067-0.153,0.021c0.598,6.346,2.946,12.382,5.744,18.065
			c0.99,2.012,2.342,5.565,4.142,7.127c1.234,1.071,1.914,2.033,3.045,3.247c0.433,0.465,0.969,0.241,0.156,0.031
			C1483.603,763.276,1483.576,763.305,1483.592,763.329L1483.592,763.329z"/>
	</g>
</g>
<g>
	<g>
		<path fill="#473D16" d="M1484.424,761.122c1.397-2.025,2.532-3.541,4.701-4.834c0.999-0.595,2.403-1.494,2.953-2.576
			c1.433-2.819,1.669-6.003,1.991-9.106c0.02-0.193-0.301-0.235-0.338-0.046c-0.766,3.956-0.38,8.127-4.022,10.769
			c-2.527,1.833-3.82,2.983-5.339,5.761C1484.351,761.127,1484.401,761.155,1484.424,761.122L1484.424,761.122z"/>
	</g>
</g>
</svg>
