<svg version="1.1" id="Layer_8" xmlns="http://www.w3.org/2000/svg" xmlns:xlink="http://www.w3.org/1999/xlink" x="0px" y="0px"
	 width="112.875px" height="114.5px" viewBox="0 0 112.875 114.5" enable-background="new 0 0 112.875 114.5" xml:space="preserve">
<g>
	<path fill="#565656" d="M81.504,106.17c14.574-7.101,24.586-19.804,28.721-34.253c-23.129,3.546-46.844-8.081-57.632-30.222
		c-6.174-12.671-7.02-26.551-3.426-39.113c-5.331,0.817-10.631,2.44-15.735,4.927C6.188,20.783-5.137,53.63,8.137,80.875
		S54.259,119.445,81.504,106.17z"/>
	<path fill="#282828" d="M57.51,113.727C57.509,113.727,57.509,113.727,57.51,113.727c-21.954,0-41.561-12.253-51.17-31.976
		C-7.397,53.558,4.364,19.447,32.557,5.71c5.178-2.523,10.665-4.241,16.308-5.106c0.672-0.103,1.354,0.144,1.804,0.655
		c0.45,0.511,0.609,1.217,0.422,1.872c-3.594,12.559-2.421,25.943,3.301,37.687c8.934,18.336,27.163,29.728,47.569,29.728
		c0.002,0,0.001,0,0.004,0c2.658,0,5.335-0.204,7.957-0.606c0.674-0.104,1.354,0.144,1.804,0.655
		c0.45,0.511,0.609,1.217,0.422,1.872c-4.438,15.506-15.288,28.446-29.768,35.501C74.538,111.789,66.17,113.727,57.51,113.727z
		 M46.455,5.111c-4.186,0.895-8.259,2.301-12.146,4.195C8.099,22.076-2.835,53.789,9.935,79.999
		c8.934,18.336,27.163,29.727,47.574,29.728c8.048,0,15.827-1.801,23.119-5.354c12.542-6.111,22.155-16.972,26.747-30.086
		c-1.798,0.173-3.608,0.26-5.41,0.26c-0.001,0-0.003,0-0.004,0c-21.951,0-41.556-12.252-51.165-31.976
		C45.105,30.893,43.597,17.709,46.455,5.111z"/>
</g>
<g>
	<circle fill="#727272" cx="79.5" cy="79.625" r="8.375"/>
	<path fill="#282828" d="M79.5,89.5c-5.445,0-9.875-4.43-9.875-9.875s4.43-9.875,9.875-9.875s9.875,4.43,9.875,9.875
		S84.945,89.5,79.5,89.5z M79.5,72.75c-3.791,0-6.875,3.084-6.875,6.875S75.709,86.5,79.5,86.5s6.875-3.084,6.875-6.875
		S83.291,72.75,79.5,72.75z"/>
</g>
<g>
	<circle fill="#2B2B2B" cx="48.25" cy="100.625" r="4.125"/>
	<path fill="#282828" d="M48.25,105.75c-2.826,0-5.125-2.299-5.125-5.125S45.424,95.5,48.25,95.5s5.125,2.299,5.125,5.125
		S51.076,105.75,48.25,105.75z M48.25,97.5c-1.723,0-3.125,1.402-3.125,3.125s1.402,3.125,3.125,3.125s3.125-1.402,3.125-3.125
		S49.973,97.5,48.25,97.5z"/>
</g>
<g>
	<circle fill="#666666" cx="41.375" cy="13.5" r="3.25"/>
	<path fill="#282828" d="M41.375,17.75c-2.343,0-4.25-1.907-4.25-4.25s1.907-4.25,4.25-4.25s4.25,1.907,4.25,4.25
		S43.718,17.75,41.375,17.75z M41.375,11.25c-1.241,0-2.25,1.009-2.25,2.25s1.009,2.25,2.25,2.25s2.25-1.009,2.25-2.25
		S42.616,11.25,41.375,11.25z"/>
</g>
<g>
	<circle fill="#878787" cx="29.625" cy="51.75" r="8.5"/>
	<path fill="#282828" d="M29.625,61.75c-5.514,0-10-4.486-10-10s4.486-10,10-10s10,4.486,10,10S35.139,61.75,29.625,61.75z
		 M29.625,44.75c-3.86,0-7,3.14-7,7s3.14,7,7,7s7-3.14,7-7S33.485,44.75,29.625,44.75z"/>
</g>
<g>
	<circle fill="#5E5E5E" cx="27" cy="87.875" r="5.875"/>
	<path fill="#282828" d="M27,95.25c-4.066,0-7.375-3.309-7.375-7.375S22.934,80.5,27,80.5s7.375,3.309,7.375,7.375
		S31.066,95.25,27,95.25z M27,83.5c-2.413,0-4.375,1.962-4.375,4.375S24.587,92.25,27,92.25s4.375-1.962,4.375-4.375
		S29.413,83.5,27,83.5z"/>
</g>
<g>
	<circle fill="#686868" cx="52.389" cy="71.014" r="4.014"/>
	<path fill="#282828" d="M52.389,76.028c-2.765,0-5.014-2.249-5.014-5.014S49.625,66,52.389,66s5.014,2.25,5.014,5.014
		S55.154,76.028,52.389,76.028z M52.389,68c-1.662,0-3.014,1.352-3.014,3.014c0,1.662,1.352,3.014,3.014,3.014
		c1.662,0,3.014-1.352,3.014-3.014C55.403,69.352,54.051,68,52.389,68z"/>
</g>
</svg>
