<?xml version="1.0" encoding="utf-8"?>
<!-- Generator: Adobe Illustrator 17.0.0, SVG Export Plug-In . SVG Version: 6.00 Build 0)  -->
<!DOCTYPE svg PUBLIC "-//W3C//DTD SVG 1.1//EN" "http://www.w3.org/Graphics/SVG/1.1/DTD/svg11.dtd">
<svg version="1.1" id="Layer_1" xmlns="http://www.w3.org/2000/svg" xmlns:xlink="http://www.w3.org/1999/xlink" x="0px" y="0px"
	 width="10733.016px" height="13660.833px" viewBox="0 0 10733.016 13660.833" enable-background="new 0 0 10733.016 13660.833"
	 xml:space="preserve">
<g>
	
		<radialGradient id="SVGID_1_" cx="5366.54" cy="14422.0449" r="8470.0078" gradientTransform="matrix(1 0 0 0.6 0 6058.5137)" gradientUnits="userSpaceOnUse">
		<stop  offset="0" style="stop-color:#E97B00"/>
		<stop  offset="0.1122" style="stop-color:#E94E00"/>
		<stop  offset="0.2398" style="stop-color:#D87400"/>
		<stop  offset="0.2806" style="stop-color:#D47C00"/>
		<stop  offset="0.3469" style="stop-color:#C77D11"/>
		<stop  offset="0.8112" style="stop-color:#008BE9"/>
		<stop  offset="1" style="stop-color:#0089FF"/>
	</radialGradient>
	<path fill="url(#SVGID_1_)" d="M15.873,13594.594c63.52,34.037,123.519,66.18,246.774,66.18
		c123.255,0,183.253-32.143,246.774-66.181c64.3-34.45,130.788-70.073,261.841-70.073c131.05,0,197.537,35.623,261.835,70.073
		c63.521,34.036,123.519,66.181,246.774,66.181c123.255,0,183.253-32.143,246.774-66.181c64.3-34.45,130.786-70.073,261.838-70.073
		c131.052,0,197.538,35.623,261.838,70.073c63.521,34.036,123.519,66.181,246.774,66.181c123.257,0,183.254-32.143,246.777-66.181
		c64.299-34.45,130.788-70.073,261.84-70.073c131.051,0,197.541,35.623,261.841,70.073c63.521,34.036,123.519,66.181,246.775,66.181
		c123.255,0,183.254-32.143,246.774-66.181c64.299-34.45,130.787-70.073,261.839-70.073c131.051,0,197.54,35.623,261.838,70.073
		c63.522,34.036,123.521,66.181,246.775,66.181c123.256,0,183.255-32.143,246.777-66.181
		c64.298-34.45,130.787-70.073,261.839-70.073c131.052,0,197.539,35.623,261.839,70.073c63.521,34.036,123.52,66.181,246.774,66.181
		s183.252-32.143,246.772-66.181c64.3-34.45,130.789-70.073,261.839-70.073s197.539,35.623,261.836,70.073
		c63.521,34.036,123.521,66.181,246.775,66.181c123.256,0,183.255-32.143,246.775-66.181c64.3-34.45,130.789-70.073,261.841-70.073
		s197.541,35.623,261.841,70.073c63.521,34.036,123.52,66.181,246.775,66.181s183.255-32.143,246.775-66.181
		c64.3-34.45,130.789-70.073,261.841-70.073c131.054,0,197.542,35.623,261.841,70.073c63.522,34.036,123.521,66.181,246.776,66.181
		c123.258,0,183.256-32.143,246.777-66.181c64.301-34.45,130.791-70.073,261.844-70.073c131.051,0,197.541,35.623,261.84,70.073
		c63.52,34.036,123.518,66.181,246.773,66.181c123.258,0,183.258-32.143,246.781-66.181c64.301-34.45,130.789-70.073,261.842-70.073
		c131.057,0,197.545,35.623,261.846,70.073c63.521,34.036,123.521,66.181,246.779,66.181s183.258-32.143,246.781-66.181
		c16.373-8.771,32.889-17.618,50.576-25.935c0.254-0.12,0.514-0.239,0.771-0.359V2.126H0v13584.007
		C5.326,13588.948,10.61,13591.773,15.873,13594.594z"/>
</g>
</svg>
