<svg version="1.1" baseProfile="tiny" xmlns="http://www.w3.org/2000/svg" xmlns:xlink="http://www.w3.org/1999/xlink" x="0px"
	 y="0px" width="598.667px" height="325.667px" viewBox="0 0 598.667 325.667" xml:space="preserve">
<g id="Layer_8">
	<path fill="#427228" d="M292.833,23c22.295,0,37.833-5.271,37.833-10c0-4.73-15.538-10-37.833-10C270.538,3,255,8.27,255,13
		C255,17.729,270.538,23,292.833,23z M292.833,4c24.183,0,36.833,5.859,36.833,9c0,3.141-12.65,9-36.833,9S256,16.141,256,13
		C256,9.859,268.65,4,292.833,4z"/>
	<path fill="#427228" d="M257.295,23.723l0.187,0.766c0.242,1.002,0.492,2.038,0.865,3.029l0.404,1.075l0.511-1.028
		c0.294-0.593,0.616-1.225,0.781-1.549c0.04-0.078,0.074-0.146,0.101-0.207l0.002,0.001c0,0,0-0.001,0-0.001
		c0.151-0.283,0.499-0.467,0.886-0.467c0.14,0,0.612,0.032,0.811,0.449c0.282,0.594,0.528,1.635,0.789,2.737
		c0.347,1.468,0.74,3.132,1.347,4.272l0.594,1.116l0.33-1.222c0.113-0.421,0.169-0.853,0.223-1.27
		c0.174-1.342,0.333-2.114,1.58-2.384c0.483-0.102,0.926,0.068,1.16,0.458c1.395,2.325,3.171,4.692,5.431,7.238l0.494,0.557
		l0.329-0.668c0.207-0.42,0.404-0.835,0.598-1.244c1.309-2.757,2.439-5.138,5.446-6.914c0.448-0.266,1.347-0.08,1.457,0.551
		c0.305,1.765,0.643,3.564,1.002,5.347c0.022,0.112,0.048,0.261,0.078,0.434c0.313,1.813,0.653,3.313,1.655,3.313
		c0.62,0,1.033-0.672,1.169-0.894c1.115-1.813,2.483-3.334,3.931-4.944c0.398-0.443,0.797-0.888,1.193-1.34
		c0.204-0.233,0.494-0.268,0.649-0.268c0.379,0,0.737,0.191,0.89,0.478c0.421,0.785,0.788,1.614,1.176,2.491
		c0.638,1.444,1.299,2.938,2.218,4.208c0.697,0.963,1.299,1.411,1.896,1.411c1.242,0,1.635-1.817,1.982-3.42
		c0.053-0.246,0.104-0.483,0.156-0.701c0.066-0.276,0.129-0.571,0.194-0.878c0.355-1.659,0.796-3.724,2.16-4.589
		c0.677-0.429,1.321-0.637,1.969-0.637c2.988,0,5.529,4.633,7.572,8.356c0.372,0.68,0.732,1.337,1.082,1.943l0.808,1.401
		l0.124-1.613c0.093-1.194,0.138-2.502,0.144-4.117c0.003-0.934,0.242-1.867,0.496-2.854c0.244-0.953,0.497-1.938,0.528-2.946
		c0.025-0.832,0.4-1.897,1.376-2.165c1.288-0.354,2.308,0.538,3.297,1.58c0.558,0.588,0.939,1.313,1.344,2.079
		c0.269,0.51,0.546,1.036,0.882,1.524c1.156,1.682,1.371,1.952,1.763,1.952l0.25-0.015l0.148-0.158
		c0.198-0.212,0.182-0.472,0.153-0.901c-0.018-0.281-0.04-0.632-0.007-0.986c0.017-0.184,0.033-0.45,0.053-0.779
		c0.121-2.011,0.487-8.129,2.766-8.129c0.155,0,0.322,0.027,0.498,0.081c1.066,0.325,1.857,1.131,2.489,2.534
		c0.734,1.629,1.562,3.201,2.273,4.525l0.74,1.376l0.196-1.551c0.464-3.669,0.165-8.223-0.887-13.533l-0.191-0.968l-0.667,0.727
		C326.515,21.461,310.751,25,292.833,25c-14.474,0-31.784-2.503-37.829-8.096l-0.978-0.905l0.142,1.325
		c0.152,1.427,0.414,2.732,0.799,3.986c0.12,0.407,0.252,0.812,0.384,1.215l0.22,0.675l0.461-0.129
		C256.488,22.946,257.131,23.068,257.295,23.723z M255.331,18.47c6.967,5.193,23.558,7.53,37.503,7.53
		c14.793,0,32.066-2.56,38.387-8.255c0.747,4.05,1.032,7.618,0.852,10.645c-0.488-0.939-0.992-1.95-1.457-2.981
		c-0.759-1.686-1.747-2.665-3.108-3.081c-0.271-0.082-0.537-0.124-0.791-0.124c-3.22,0-3.601,6.355-3.764,9.069
		c-0.019,0.314-0.034,0.57-0.051,0.745c-0.01,0.105-0.016,0.21-0.019,0.312c-0.176-0.249-0.347-0.499-0.469-0.676
		c-0.303-0.44-0.555-0.918-0.821-1.424c-0.418-0.793-0.851-1.613-1.503-2.301c-0.949-1.001-1.995-1.978-3.422-1.978
		c-0.284,0-0.575,0.04-0.866,0.12c-1.234,0.34-2.063,1.556-2.11,3.099c-0.027,0.898-0.255,1.787-0.497,2.729
		c-0.258,1.004-0.524,2.042-0.527,3.1c-0.003,0.871-0.017,1.635-0.044,2.341c-0.078-0.143-0.157-0.287-0.237-0.433
		c-2.282-4.16-4.868-8.875-8.448-8.875c-0.832,0-1.675,0.267-2.504,0.793c-1.718,1.089-2.208,3.382-2.603,5.224
		c-0.063,0.299-0.125,0.586-0.189,0.854c-0.054,0.225-0.106,0.469-0.161,0.722c-0.17,0.788-0.569,2.632-1.005,2.632
		c-0.061,0-0.397-0.048-1.084-0.997c-0.858-1.186-1.497-2.63-2.114-4.026c-0.378-0.855-0.77-1.74-1.208-2.56
		c-0.328-0.61-1.023-1.005-1.771-1.005c-0.561,0-1.058,0.216-1.402,0.609c-0.393,0.449-0.789,0.89-1.184,1.329
		c-1.414,1.573-2.876,3.2-4.039,5.09c-0.162,0.263-0.273,0.365-0.287,0.406c-0.217-0.202-0.452-1.034-0.701-2.474
		c-0.032-0.183-0.059-0.341-0.083-0.46c-0.358-1.774-0.694-3.563-0.998-5.32c-0.244-1.408-1.989-1.811-2.951-1.241
		c-3.271,1.933-4.519,4.563-5.84,7.347c-0.087,0.184-0.175,0.369-0.265,0.556c-1.984-2.285-3.567-4.425-4.826-6.523
		c-0.452-0.755-1.329-1.114-2.229-0.921c-1.682,0.362-2.09,1.521-2.273,2.622c-0.233-0.768-0.432-1.607-0.616-2.389
		c-0.273-1.156-0.531-2.247-0.859-2.938c-0.299-0.629-0.956-1.02-1.714-1.02c-0.648,0-1.234,0.274-1.596,0.733l-0.172,0.263
		c-0.001,0.001-0.001,0.002-0.002,0.004h0v0.001l0.298,0.157l-0.303-0.148l-0.106,0.21c-0.062,0.121-0.145,0.285-0.24,0.474
		c-0.17-0.591-0.315-1.192-0.458-1.781l-0.189-0.773c-0.225-0.899-1.056-1.501-2.023-1.448c-0.108-0.334-0.216-0.669-0.317-1.01
		C255.672,20.201,255.476,19.358,255.331,18.47z"/>
	<path fill="#396B22" d="M255.867,26.021l0.054,0.428c0.36,1.335,0.852,2.875,1.771,4.166c0.316,0.444,0.674,0.567,1.214,0.484
		c0.562-0.082,1.014-0.388,1.42-0.963l0.628-0.888l0.265,1.055c0.523,2.08,1.174,4.668,2.915,5.545
		c0.452,0.228,0.867,0.171,1.27-0.17c0.223-0.188,0.721-1.28,1.204-2.931l0.296-1.013l0.596,0.871
		c1.594,2.327,3.492,4.653,5.803,7.111c0.401,0.427,1.266,0.299,1.558-0.21c0.552-0.962,0.985-1.942,1.404-2.891
		c0.778-1.76,1.512-3.422,2.905-4.853l0.731-0.751l0.124,1.041c0.332,2.793,0.95,7.992,3.735,8.759
		c0.94,0.262,1.938-0.414,2.43-1.054l1.085-1.419c1.079-1.415,2.194-2.877,3.351-4.29l0.49-0.599l0.345,0.692
		c1.116,2.241,3.73,7.49,6.21,7.49c0.866,0,1.718-0.681,2.531-2.023c0.225-0.372,0.48-1.344,0.75-2.373
		c0.707-2.695,1.507-5.751,3.327-5.751c0.462,0,0.935,0.212,1.405,0.629c1.762,1.561,2.814,3.729,3.831,5.827
		c1.004,2.07,2.042,4.211,3.758,5.744c0.199,0.179,0.482,0.28,0.775,0.28c0.373,0,0.809-0.176,0.908-0.669
		c0.423-2.079,0.647-4.212,0.705-6.711l0.006-0.376c0.052-4.555,0.485-6.249,1.598-6.249c0.561,0,0.983,0.521,1.252,0.911
		c0.237,0.346,0.506,0.813,0.806,1.338c1.147,2.008,2.787,4.802,4.771,4.257c1.731-0.476,1.842-3.423,1.901-5.007L326,31.313
		c0.01-0.244,0.017-0.528,0.023-0.831c0.072-3.001,0.19-4.223,1.08-4.223c0.505,0,0.888,0.491,1.412,1.812
		c0.62,1.563,1.498,3.066,2.347,4.521c0.438,0.751,0.877,1.502,1.284,2.264c0.208,0.389,0.526,0.471,0.757,0.471
		c0.467,0,0.917-0.319,1.071-0.759c2.153-6.154-0.771-20.646-1.296-22.161l-0.064-0.036l-0.047-0.224
		C331.056,4.906,310.968,1,292.833,1c-18.834,0-39.186,4.086-39.805,11.66l-0.079,0.358c-0.009,1.793,1.996,11.448,2.707,13.031
		L255.867,26.021z M255.351,22.525c-0.132-0.403-0.264-0.808-0.384-1.215c-0.385-1.254-0.646-2.56-0.799-3.986l-0.142-1.325
		l0.978,0.905C261.049,22.497,278.359,25,292.833,25c17.917,0,33.681-3.539,38.334-8.605l0.667-0.727l0.191,0.968
		c1.052,5.311,1.351,9.864,0.887,13.533l-0.196,1.551l-0.74-1.376c-0.712-1.324-1.539-2.896-2.273-4.525
		c-0.632-1.403-1.423-2.209-2.489-2.534c-0.176-0.054-0.343-0.081-0.498-0.081c-2.278,0-2.645,6.118-2.766,8.129
		c-0.02,0.329-0.036,0.596-0.053,0.779c-0.033,0.354-0.011,0.705,0.007,0.986c0.028,0.43,0.045,0.689-0.153,0.901l-0.148,0.158
		l-0.25,0.015c-0.392,0-0.606-0.271-1.763-1.952c-0.336-0.488-0.613-1.015-0.882-1.524c-0.404-0.767-0.786-1.491-1.344-2.079
		c-0.989-1.042-2.009-1.935-3.297-1.58c-0.976,0.268-1.351,1.333-1.376,2.165c-0.031,1.008-0.284,1.993-0.528,2.946
		c-0.254,0.987-0.493,1.921-0.496,2.854c-0.006,1.615-0.051,2.923-0.144,4.117l-0.124,1.613l-0.808-1.401
		c-0.35-0.606-0.71-1.264-1.082-1.943c-2.043-3.724-4.584-8.356-7.572-8.356c-0.648,0-1.292,0.208-1.969,0.637
		c-1.363,0.865-1.805,2.93-2.16,4.589c-0.065,0.307-0.128,0.602-0.194,0.878c-0.052,0.218-0.104,0.455-0.156,0.701
		c-0.347,1.603-0.74,3.42-1.982,3.42c-0.596,0-1.199-0.448-1.896-1.411c-0.919-1.271-1.58-2.764-2.218-4.208
		c-0.388-0.877-0.755-1.706-1.176-2.491c-0.153-0.286-0.511-0.478-0.89-0.478c-0.155,0-0.445,0.034-0.649,0.268
		c-0.396,0.452-0.795,0.896-1.193,1.34c-1.448,1.61-2.815,3.132-3.931,4.944c-0.136,0.222-0.549,0.894-1.169,0.894
		c-1.002,0-1.342-1.501-1.655-3.313c-0.03-0.173-0.056-0.321-0.078-0.434c-0.36-1.782-0.697-3.582-1.002-5.347
		c-0.109-0.631-1.009-0.816-1.457-0.551c-3.007,1.776-4.137,4.157-5.446,6.914c-0.194,0.409-0.391,0.824-0.598,1.244l-0.329,0.668
		l-0.494-0.557c-2.26-2.546-4.037-4.913-5.431-7.238c-0.234-0.39-0.677-0.56-1.16-0.458c-1.247,0.27-1.406,1.042-1.58,2.384
		c-0.054,0.417-0.11,0.849-0.223,1.27l-0.33,1.222l-0.594-1.116c-0.607-1.141-1-2.805-1.347-4.272
		c-0.261-1.103-0.507-2.144-0.789-2.737c-0.198-0.417-0.67-0.449-0.811-0.449c-0.388,0-0.735,0.184-0.886,0.467
		c0,0,0,0.001-0.001,0.001l-0.002-0.001c-0.027,0.062-0.062,0.129-0.101,0.207c-0.165,0.324-0.486,0.956-0.781,1.549l-0.511,1.028
		l-0.404-1.075c-0.373-0.991-0.623-2.027-0.865-3.029l-0.187-0.766c-0.164-0.654-0.807-0.776-1.263-0.651L255.57,23.2
		L255.351,22.525z"/>
	<path fill="#3A3A3A" d="M226.306,185.396c-0.025,0.035-0.048,0.072-0.072,0.107C226.278,185.44,226.297,185.411,226.306,185.396z"
		/>
</g>
<g id="Layer_12">
	<g>
		<g>
			<path fill="none" d="M430.642,212.692c-1.914-2.49-3.575-5.423-4.244-6.453C427.091,207.307,428.744,210.282,430.642,212.692z"/>
			<path fill="#282828" d="M301.354,104.479c7.306,7.13,8.488,18.039,18.229,22.813c0.317,0.155,0.944-0.123,1.111,0.224
				c2.115-3.042,4.567-5.724,5.93-9.224c0.48-1.233,1.56-1.055,2.333,0.083c3.031,4.457,4.034,10.021,6.833,14.708
				c1.737,2.909,3.867,5.563,6.333,7.917c1.49,1.422,3.052,2.119,4.212,3.76c1.085-1.749,2.544-2.9,3.621-4.635
				c0.777-1.253,1.562-0.889,2.375,0.167c4.327,5.621,7,12.403,11.917,17.625c2.6,2.761,7.088,5.605,9.083,9.292
				c0.091-0.056,0.405-0.748,0.498-0.804c1.127-0.686,2.056,1.217,2.127,2.429c0.395,6.733,6.469,11.015,10.583,15.792
				c2.852,3.312,7.318,6.162,9.625,9.958c2.46-3.981,4.675-8.49,4.75-12.574c0.025-1.369,1.13-1.785,2.333-1.093
				c3.473,1.999,5.861,5.463,8.875,8.208c0.495-1.1,1.231-2.519,1.625-3.458c0.435-1.038,1.595-1.206,2.5-0.042
				c3.463,4.455,6.743,8.461,9.708,13.375c1.808,2.996,3.396,6.158,5.5,8.958c1.511,2.012,3.633,3.618,4.625,5.958
				c0.206,0.485,0.903,1.241,0.875,1.875c1.097-1.035,2.232-2.704,3.013-3.977c2.101-3.426,2.548-6.386,4.112-9.856
				c0.245-0.544,0.658-0.435,1.25-0.375c4.555,0.461,7.718,7.835,10.333,11.109c3.712,4.646,8.934,8.98,12.5,13.808
				c2.68-2.834,5.764-5.828,6.5-9.708c0.335-1.766,1.868-2.308,2.625-0.625c1.941,4.317,4.525,7.719,7.042,11.708
				c1.915,3.034,4.927,6.467,5.5,10.083c0.213-0.258,0.549-1.316,0.757-1.555c2.326-2.679,6.003-6.052,7.284-9.403
				c0.613-1.603,1.662-2.098,2.625-0.417c0.543,0.948,1.364,2.213,2.042,3.333c1.484-3.034,3.844-5.216,7.25-2.25
				c2.104,1.831,3.196,5.073,4.583,7.417c0.669,1.131,1.33,2.905,1.667,4c2.799-3.125,5.875-7.582,6.667-10.583
				c0.398-1.51,1.156-0.745,1.917,0.667c2.708,5.02,6.268,8.421,10.375,12.5c0.969,0.963,2.229,2.31,3.625,3.458
				c5.729-3.557,11.244-4.51,16.875-0.417c2.84,2.065,5.368,5.407,8.583,6.917c5.124,2.407,10.159,0.023,15-1.458
				c8.153-2.495,14.009-0.088,21.875,1.958c0.635,0.165,1.407-0.446,2.042-0.276c0-22.127,0-41.493,0-46.207
				c-3.22-0.61-6.54-1.403-9.354-2.922c-2.312-1.248-4.858-2.354-7.069-3.757c-1.899-1.206-3.985-2.91-6.282-3.234
				c-6.031-0.852-11.715,0.039-17.279,2.524c-3.774,1.685-7.975,3.732-12.214,3.627c-9.813-0.244-15.744-5.883-23.615-10.666
				c-4.713-2.864-9.16-6.422-15.017-4.275c-4.767,1.748-7.487,6.278-9.951,10.482c2.68,5.006,5.666,10.018,9.176,14.186
				c1.237,1.469-0.874,3.603-2.121,2.121c-3.682-4.373-6.942-9.603-9.804-14.899c-0.385-0.274-0.651-0.7-0.642-1.191
				c-1.102-2.086-2.146-4.174-3.122-6.214c-2.592-5.419-5.234-10.255-7.078-15.698c-1.06,1.801-2.666,3.127-4.826,3.391
				c2.593,3.812,6.06,7.104,8.827,10.793c1.162,1.549-1.445,3.042-2.59,1.514c-4.354-5.805-9.033-10.137-12-17
				c-1.417-3.279-1.272-7.415-2.313-10.864c-0.74-2.454-1.022-5.079-1.676-7.57c-0.606,1.154-1.198,2.321-1.754,3.433
				c-0.106,0.212-0.285,0.379-0.492,0.505c0.89,1.212,1.86,2.404,2.924,3.677c1.231,1.473-0.879,3.608-2.121,2.121
				c-2.254-2.698-4.376-4.693-5.901-7.97c-0.872-1.875-1.474-4.314-2.667-6c-1.375-1.942-3.035,3.398-3.258,3.975
				c-1.757,4.527-4.829,10.189-9.023,12.896c-0.054,0.035-0.108,0.056-0.162,0.083c0.126,0.206,0.252,0.415,0.379,0.618
				c1.743,2.789,4.263,4.85,5.988,7.58c1.036,1.641-1.561,3.145-2.59,1.514c-1.718-2.72-4.282-4.768-5.988-7.58
				c-2.056-3.389-3.963-7.032-5.637-10.628c-2.397-5.148-4.12-11.144-7.092-16.112c-0.195,2.385-0.57,4.823-1.234,6.801
				c-0.652,1.942-1.111,4.117-1.849,5.995c0.089-0.228-0.899,2.719-0.738,1.435c-0.237,1.893-3.24,1.916-3,0
				c0.112-0.897,0.383-1.829,0.709-2.763c-0.129-0.138-0.241-0.303-0.322-0.505c-0.222-0.555-0.475-1.345-0.862-1.966
				c-0.797,1.128-1.772,3.046-2.063,3.657c-0.831,1.748-1.483,3.676-2.488,5.331c-2.008,3.309-5.518,5.148-7.512,8.335
				c-1.023,1.635-3.62,0.131-2.59-1.514c1.14-1.821,2.839-3.139,4.414-4.562c-1.558-1.902-3.87-6.364-4.747-7.912
				c-1.578-2.784-3.235-5.454-5.029-8.1c-2.069-3.052-3.648-6.418-5.39-9.665c-0.287-0.536-3.434-7.267-4.16-5.013
				c-2.161,6.713-6.204,11.286-9.926,17.182c-3.117,4.937-6.722,9.281-12.109,11.789c-1.742,0.811-3.267-1.774-1.514-2.59
				c3.068-1.429,5.61-3.496,7.736-6.012c-3.851-4.314-7.708-8.13-10.866-13.104c-3.649-5.746-7.179-11.736-10.099-17.889
				c-5.753-12.121-8.539-25.105-12.127-37.968c-0.885-3.172-2.343-6.217-3.032-9.435c-0.663-3.097-1.159-6.316-2.27-9.294
				c-2.345-6.282-4.903-12.359-6.928-18.769c-1.313-4.155-2.649-8.391-3.738-12.671l0,0.001c-0.294,0.841-1.122,1.429-2.015,1.429
				c-0.702,0-1.3-0.364-1.639-1c-0.401-0.75-0.834-1.489-1.266-2.229c-0.868-1.486-1.766-3.023-2.413-4.656
				c-0.157-0.396-0.284-0.666-0.381-0.849c-0.129,0.739-0.163,2.15-0.182,2.914c-0.008,0.309-0.015,0.598-0.023,0.846l-0.006,0.148
				c-0.068,1.839-0.196,5.263-2.635,5.934c-0.265,0.072-0.532,0.109-0.796,0.109c-2.347,0-3.943-2.795-5.109-4.835
				c-0.283-0.496-0.536-0.94-0.762-1.268c-0.296-0.43-0.447-0.479-0.449-0.479c-0.099,0.116-0.526,0.889-0.576,5.263l-0.006,0.388
				c-0.06,2.56-0.29,4.748-0.725,6.887c-0.179,0.879-0.938,1.47-1.889,1.47c-0.536,0-1.062-0.194-1.441-0.534
				c-1.864-1.665-2.945-3.896-3.992-6.054c-1.019-2.102-1.98-4.087-3.593-5.516c-0.282-0.25-0.532-0.377-0.742-0.377
				c-1.048,0-1.869,3.133-2.359,5.005c-0.313,1.196-0.561,2.142-0.861,2.637c-0.414,0.684-1.565,2.133-2.022,2.538l-0.647,60.165
				C298.967,102.398,300.677,103.819,301.354,104.479z"/>
		</g>
	</g>
	<g>
		<path fill="#3F3F3F" d="M8.375,286.958c0.779-2.778,2.898-2.633,4.135-0.74c1.894,2.897,3.796,6.23,5.323,9.365
			c1.568-4.374,4.547-8.714,5.292-13.333c0.148-0.918,1.117-0.39,1.698,0.125c1.264,1.122,1.932,1.885,2.844,3.313
			c0.791,1.239,2.498,3.134,3.667,0.922c1.117-2.115,3.43-4.547,5.625-5.901c0.027-0.018-0.029,0.015,0,0
			c0.117-0.07-0.09,0.712,0.026,0.651c0.551-0.292,1.156-0.673,0.932-0.151c3.67,5.596,7.478,10.905,11.469,16.292
			c0.06-0.051,0.45-0.259,0.531-0.292c2.351-0.936,3.31-7.929,4.542-10.125c0.431-0.769,0.867-1.227,1.302-0.474
			c3.055,5.286,8.285,9.327,12.656,13.484c1.193,1.134,2.464,2.177,3.656,3.313c0.047-0.049,0.605-0.12,0.677-0.156
			c3.598-1.844,6.232-8.044,8.792-11.25c1.438-1.801,2.904-5.828,5.094-7c4.847-2.594,7.712,4.5,11.563,6.188
			c7.045,3.088,9.944-3.927,13.177-8.396c2.427-3.355,4.405-5.549,5.979-7.104c5.729-5.659,11.587-10.517,17.646-15.813
			c0.41-0.358,0.577-0.3,0.604,0.156c0.162,0.045,0.683,0.159,0.813,0.313c0.982,1.164,2.113,1.785,3.188,2.844
			c0.894,0.881,1.943,1.847,2.906,2.656c0.114-0.19,0.627-0.454,0.874-0.531c3.306-1.037,5.713-6.991,7.616-9.604
			c2.026-2.782,3.994-4.268,6.083-6.958c0.953-1.227,2.469-1.267,2.802,0.094c0.768,3.137,3.914,6.977,5.719,9.594
			c1.806,2.618,3.785,5.461,5.781,7.938c1.703,2.112,4.065,3.83,5.469,6.313c1.787-2.167,4.181-4.646,5.646-6.979
			c2.036-3.244,4.008-6.651,5-10.375c0.722-2.711,2.045-5.311,2.292-8.083c0.164-1.839,1.659-2.612,2.656-0.688
			c2.638,5.091,5.928,9.758,8.844,14.688c0.096,0.163,0.492,0.587,0.594,0.75c3.932-2.503,8.177-6.85,10.448-10.833
			c2.103-3.69,4.906-7.705,6.167-11.75c0.409-1.314,1.32-1.695,2.323-0.792c4.274,3.849,7.231,9.83,10.563,14.5
			c0.213,0.298,0.594,0.269,0.813,0.563c7.385-2.395,16.351-6.295,20.469-12.896c2.132-3.418,3.747-7.245,5.208-11
			c0.69-1.773,1.447-4.524,3.292-5.604c4.417-2.588,6.242,7.461,7.688,9.75c1.634,2.588,3.325,4.348,5.188,6.75
			c0.029-0.017,0.531,0.452,0.563,0.438c6.172-2.842,12.921-6.756,16.938-12.375c1.84-2.574,4.176-5.474,5.375-8.417
			c0.41-1.007,0.294-1.492,1.292-1.958c0.208-0.097,1.538-0.06,1.744-0.031l-0.053-112.26c-0.944,2.259-3.547,8.072-4.873,9.573
			c-2.912,3.295-4.993,6.476-7.547,9.99c-1.505,2.07-3.79,4.498-5.188,6.667c3.998,4.473,8.212,8.841,10.984,13.891
			c0.373,0.68-0.084,1.453-0.769,1.068c-6.57-3.697-10.211-10.949-15.24-16.302c-0.522-0.477-0.993-0.997-1.413-1.562
			c-0.57-1.798-2.528-2.812-4.313-2.595c-0.034,1.081,0.001,2.355,0,3.437c-0.005,3.57-0.121,6.499-0.813,10
			c-1.663,8.423-3.812,17.185-5.375,25.625c-2.113,11.41-5.15,14.013-6.813,15.625c-0.32,0.311-1.295,1.259-1.625,1.188
			c1.557,4.44,3.408,8.64,3.938,13.313c0.083,0.728-0.564,1.184-0.897,0.625c-3.721-6.252-4.418-14.363-7.415-20.917
			c-0.002,0.044-0.605,0.007-0.484,0.37c0.2,0.601-0.121,1.501-0.266,2.125c-0.729,3.148-0.955,6.545-1.656,9.734
			c-3.475,15.81-5.781,33.472-15.51,46.938c-0.433,0.6-1.032,0.486-0.625-0.167c3.699-5.927,5.632-12.586,7.583-19.25
			c1.955-6.676,3.513-13.766,4.875-20.583c1.162-5.817,3.087-11.553,3.333-17.5c0.085-2.051-0.852-4.532,1.125-5.833
			c0.425-0.28,0.813-0.708,1.234-0.401c2.466,1.797,3.198,6.514,4.016,9.172c0.102,0.331,0.125,0.875,0.553,0.482
			c0.006-0.007-0.247,1.221-0.241,1.214c2.305-2.427,4.418-7.021,5.521-10.301c-3.504,0.788-9.546-3.308-11.896-5.311
			c-3.352-2.857-5.038-6.201-6.166-9.626c-2.941,4.747-7.131,9.35-9.875,14.25c-1.799,3.212-3.061,6.581-4.958,9.771
			c-0.731,1.229-1.407,2.368-2.704,4.229c0.097-0.162-1.541,2.237-1.483,1.813c-0.001,0.006-0.145,0.119-0.146,0.125
			c-0.111,0.491-0.827,1.109-1.292,1.354c2.088,2.223,4.574,4.56,6.813,6.438c0.346,0.29,0.5,0.398,0.396,0.813
			c-0.026,0.104,0.089,0.292,0.063,0.396c-0.288,1.143-1.671-0.024-1.958-1.167c0.137,0.545-4.594-2.042-5.167-2.542
			c-2.618-2.284-4.643-4.241-6.5-7.167c-1.623-2.558-4.297-6.26-5.896-9.083c-0.615,2.347-1.714,6.11-2.125,8.5
			c-0.918,5.337-2.963,9.978-4.625,15.125c-0.971,3.009-2.299,6.029-3.813,8.854c0.037,0.224-0.003,0.48-0.229,0.583
			c-0.863,1.584-1.825,3.077-2.729,4.604c-1.503,2.54-2.292,5.648-5.167,6.833c-1.089,0.449-1.743-0.574-1.083-1.5
			c2.326-3.267,4.21-6.855,6.042-10.563c-2.802-0.916-4.578-2.877-6.75-6.104c-2.066-3.071-3.746-6.533-4.563-10
			c-0.649,1.35-1.573,3.258-1.646,3.417c-1.199,2.601-2.65,5.133-4.167,7.563c-2.743,4.392-5.607,8.644-8.708,12.792
			c-5.947,7.953-11.957,17.066-20.458,22.438c-0.671,0.424-0.977-0.075-0.458-0.625c5.072-5.376,9.723-11.436,14.208-17.5
			c-1.623-0.922-3.16-3.416-3.76-4.679c-0.48-1.013-0.887-3.35-1.24-4.446c-0.029,0.036-0.671,1.263-0.708,1.292
			c-0.585,1.778-0.653,2.847-2.292,3.417c-0.452,0.157-0.665,0.113-0.583-0.292c0.265-1.316,1.052-2.696,1.625-4.125
			c-0.696-0.642-1.757-1.586-2.375-2.208c-0.693-0.697-1.183-1.314-1.708-2.125c-0.419-0.647-0.851,0.962-1.042,1.542
			c-1.615,4.901-4.141,9.964-8.25,13.167c-0.459,0.358-1.221,0.445-0.896-0.125c1.089-1.911,2.03-3.554,3.223-5.394
			c-2.03-1.218-2.985-2.941-3.681-4.773c0.229-0.75-0.919,0.422-1.063,0.667c-0.816,1.391-1.6,3.068-2.417,4.458
			c-1.381,2.353-2.599,4.321-4.25,6.5c-2.365,3.123-4.023,7.483-7.834,8.831c-0.535,0.189-0.871-0.531-0.524-0.901
			c2.831-3.028,5.911-6.308,8.192-9.847c-2.468-1.069-4.194-4.506-5.417-6.792c-0.578,2.467-1.157,5.832-2,8.208
			c-0.779,2.196-2.235,4.421-3.292,6.5c-2.649,5.213-5.365,9.936-8.125,15.083c-2.846,5.308-5.336,10.843-9.208,15.5
			c-3.875,4.66-7.826,8.434-12.583,12.167c-0.669,0.525-1.508,0.434-0.983-0.236c3.976-5.067,9.417-9.138,12.962-14.473
			c0.279-0.42,0.77-1.014,1.042-1.438c-3.091-1.263-4.673-6.868-5.396-10.854c-4.457,7.488-11.942,14.585-17.406,20.958
			c-7.061,8.236-13.353,16.938-22.125,23.438c-0.549,0.407-1.056,0.223-0.677-0.232c4.899-5.884,9.848-11.741,14.811-17.582
			c-4.667-1.07-6.976-10.88-8.016-14.545c-1.203-4.241-2.745-8.345-3.112-12.782c-0.181-2.188,0.251-5.607,0.233-8.359
			c-2.432,4.854-5.913,9.423-9.026,13.906c-0.005,0.007-0.214,0.181-0.219,0.188c-0.041,0.142-0.049,0.305-0.172,0.422
			c-0.031,0.029-0.141,0.269-0.172,0.297c-3.701,5.396-7.917,11.988-13.526,15.344c-1.062,0.636-2.654,0.543-2.508-0.824
			c0.012-0.111,0.024-0.222,0.036-0.333c0.103-0.966,0.81-1.338,1.498-1.468c4.237-3.341,7.482-8.458,10.595-13.077
			c-4.35-4.059-7.992-17.79-8.988-19.38c-1.803-2.88-4.77-5.39-6.29-1.074c-0.712,2.022-1.906,3.826-2.719,5.813
			c-1.609,3.933-2.551,8.129-4.661,11.828c-3.514,6.16-6.974,12.862-12.745,17.234c-1.141,0.864-2.585-0.105-1.596-1.057
			c2.88-4.093,5.793-8.046,8.49-12.157c-1.647-1.76-2.4-4.594-2.757-6.895c-0.301-1.934-0.223-5.759-0.699-8.11
			c-1.927,3.634-4.246,7.76-6.344,11.313c-2.816,4.768-5.26,10.006-8.115,14.75c-2.909,4.833-5.441,9.743-7.781,14.875
			c-1.965,4.309-5.073,7.856-6.917,12.156c-0.126,0.293,0.056,0.956-0.598,1.344c0.734,7.985,1.314,16.721,1.504,23.094
			c3.307-3.623,6.89-8.164,9.125-12C4.424,297.105,6.803,292.561,8.375,286.958z"/>
		<path fill="#2D2D2D" d="M295.167,225.917c-1.645,2.367-3.457,4.859-5.5,6.917c-4.085,4.113-9.613,6.99-14.917,9.208
			c0.287,0.353,1.291,1.65,1.583,2c1.471,1.763,2.243,2.398,2.292,4.625c0.021,0.955-0.781,0.997-1.625,0.375
			c-5.068-3.736-8.026-8.796-11.083-14.208c-0.88-1.558-1.848-3.056-2.708-4.625c-0.294-0.7-1.037-1.162-1.342-1.857
			c0.105,0.278,0.21,0.555,0.316,0.833c-1.076,2.801-2.788,5.156-4.182,7.816c-2.542,4.851-5.835,9.887-10.917,12.458
			c-4.12,2.085-9.541,5.13-14.292,6.042c2.796,3.418,6.192,6.884,8.833,10.417c0.39,0.521-0.205,0.518-0.75,0.375
			c-5.325-1.394-6.685-6.648-10-10.708c-3.433-4.205-7.632-9.801-11.167-14c-1.506,3.053-3.492,5.479-4.208,7
			c-1.067,2.266-2.041,4.337-3.792,6.167c-2.913,3.044-5.998,7.24-10.083,8.417c1.841,2.657,4.173,4.914,5.083,7.792
			c0.182,0.574,0.188,0.702-0.458,0.625c-4.244-0.507-5.137-4.357-7.083-7.75c-2.269-3.955-5.618-9.295-7.792-13.292
			c-0.65,1.722-2.129,4.954-2.792,6.583c-1.151,2.828-2.147,5.644-3.833,8.208c-2.134,3.245-4.716,6.354-7.542,9.375
			c0.042,0.202-0.277,0.919-0.25,1.125c0.093,0.719,0.137,0.215-0.458,0.083c-0.093-0.021-0.366-0.142-0.458-0.167
			c-0.886,0.875-1.337,1.945-2.25,2.708c-0.857,0.716-1.948,0.669-1.208-0.375c0.581-0.82,1.662-1.91,2.292-2.708
			c-3.37-2.345-6.187-7.643-8.375-10.5c-2.051-2.678-6.929-7.537-9.25-13.417c-1.182,0.982-3.452,2.57-4.458,3.833
			c-1.456,1.829-2.66,3.747-4.083,5.583c-1.454,1.876-2.989,5.128-5.491,5.75c1.365,1.368,2.745,3.006,2.699,4.583
			c-0.009,0.326-0.072,0.22-0.375,0.167c-1.38-0.241-1.426-1.223-2.324-2.25c-0.978-1.118-2.075-2.183-3.051-3.292
			c-1.575-1.788-4.296-3.261-5.75-5.125c-4.813,6.451-11.146,11.966-16.875,17.625c-3.315,3.275-5.626,7.058-8.208,10.833
			c-1.411,2.064-2.732,3.591-5.292,4.25c-2.718,0.701-4.757,1.064-7.208-0.5c-1.646-1.05-8.949-8.093-11-4.875
			c-2.288,3.591-5.008,6.95-7.417,10.458c-1.629,2.373-3.354,4.681-6.125,5.458c3.059,2.932,6.14,5.998,8.958,9.167
			c0.378,0.425,0.302,1.012-0.333,0.75c-5.976-2.462-9.794-7.603-14.375-12c-3.974-3.814-8.943-8.136-11.792-12.875
			c-0.97,3.22-2.546,8.718-5.167,9.125c0.847,1.129,1.924,2.472,2.792,3.583c0.322,0.412-0.069,0.566-0.583,0.25
			c-3.606-2.213-5.298-5.445-7.667-8.875c-2.458-3.56-5.281-7.866-7.292-11.667c-1.288,2.182-3.548,4.06-4.917,6.208
			c-0.625,0.98-0.573,2-1.917,2c-2.304,0-4.511-3.124-6.042-5.5c-1.368,3.966-4.03,8.016-5.625,11.875
			c-0.077,0.186-0.684,0.387-0.833,0.458c0.713,1.521,1.729,3.089,2.375,4.625c0.276,0.657-0.22,0.795-0.667,0.292
			c-3.719-4.189-5.751-9.649-9-13.875c-0.654-0.85-0.971,1.385-1.25,2.333c-0.358,1.216-0.702,2.097-1.125,3.292
			c-0.642,1.814-2.1,3.75-3.125,5.375c-2.981,4.728-5.675,9.066-9.167,13.417c-1.19,1.483-2.22,2.845-3.625,4.125
			c0.047,6.92-0.251,12.274-2.112,13.458c88.283,0,189.787,0,278.07,0c10.393,0,21.675,0,31.875,0l0.149-109.5
			c-0.143-0.484-0.739-1.132-1.071-0.578C298.048,220.723,296.033,224.671,295.167,225.917z"/>
	</g>
	<g>
		<path fill="#111111" d="M302.357,222c-0.024-0.578-0.31-1.089-0.333-1.667c-0.001-0.03-0.048-0.03-0.047,0
			c0.024,0.578,0.31,1.089,0.333,1.667C302.311,222.03,302.358,222.03,302.357,222L302.357,222z"/>
	</g>
	<g>
		<path fill="#161616" d="M583.754,291.954c-4.56-5.831-9.242-12.068-10.223-19.642c-0.168-1.297,0.052-5.479-1.406-4.625
			c-2.047,1.198-4.347,2.987-6.219,4.438c-1.32,1.023-2.877,2.37-4.25,2.813c0.95,1.538,1.709,3.069,2.375,4.688
			c0.271,0.66,0.08,0.945-0.469,0.594c-3.143-2.011-4.382-5.39-6.031-8.656c-1.327-2.628-4.271-9.907-7.938-6
			c-3.393,3.615-6.762,9.587-11.844,10.781c1.521,2.288,2.89,4.2,3.875,6.844c0.376,1.01,0.04,1.083-0.625,0.563
			c-2.194-1.717-3.479-3.665-4.906-6.094c-0.914-1.555-2.643-3.858-3.844-5.344c-1.798,4.512-3.478,10.575-7.031,13.625
			c-1.668,1.432-4.913,3.737-7.125,2.875c3.076,2.832,7.098,5.919,10.781,7.938c7.158,3.922,14.438,6.209,21.688,9.969
			c0.643,0.333,0.46,0.539-0.188,0.406c-14.838-3.051-26.067-8.597-36.563-19.781c-2.293-2.444-3.76-5.356-5.656-8.125
			c-2.108-3.079-6.106-5.446-9.719-2.219c-0.934,0.834-1.856,1.611-2.875,2.344c-6.176,4.444-14.327,5.293-21.656,6.313
			c0.456,0.671,2.503,2.523,2.969,3.188c2.701,3.855,5.645,6.396,8.25,10.281c0.379,0.565,0.163,0.829-0.406,0.406
			c-3.641-2.705-6.19-4.554-9.063-8.281c-3.323-4.311-5.804-8.879-8.719-13.469c-3.096-4.874-5.562-10.093-8.219-15.219
			c-2.016-3.889-4.861-8.711-7.344-12.375c-3.386,2.291-7.136,5.076-10.75,6.969c-2.672,1.4-5.055,3.497-7.75,4.169
			c4.027,1.586,7.896,2.741,12.563,3.331c0.717,0.091-0.957,0.35-1.688,0.427c-10.237,1.074-15.195-2.449-23.313-8.49
			c-4.205-3.129-8.535-6.931-11.875-10.969c-2.445-2.955-4.774-6.794-7.438-9.625c-1.739,1.76-4.696,3.471-6.531,4.906
			c-2.688,2.103-5.633,4.281-9.031,4.5c1.956,2.856,4.321,5.817,5.063,8.969c0.117,0.496,0.433,0.624-0.063,0.656
			c-2.451,0.16-2.885-1.853-4.156-3.75c-2.608-3.893-4.079-7.786-6.563-11.75c-1.263-2.015-2.434-4.372-3.656-6.406
			c-1.566-2.607-3.226-3.587-5.688-1.063c-1.801,1.847-3.563,2.555-6.031,3.219c-0.206,0.055-0.824,0.167-1.063,0.063
			c0.24,1.123,0.05,1.997,0.156,3.188c0.035,0.387,0.141,0.537-0.188,0.469c-1.773-0.366-1.768-2.561-2.188-4.281
			c-0.787,0.823-1.837,2.088-2.844,2.656c-0.932,0.526-2.909,1.405-4.156,1.563c1.422,2.866,3.355,6.338,5.125,9.125
			c3.557,5.602,7.913,10.307,10.813,16.281c0.314,0.646-0.234,0.806-0.781,0.313c-9.522-8.587-15.24-20.123-20-31.75
			c-3.023,4.206-6.989,9.538-11.406,12.438c1.759,2.35,4.094,4.663,4.969,7.308c0.23,0.697-0.151,0.794-0.75,0.442
			c-5.283-3.108-8.252-9.726-11.344-14.813c-0.27-0.445-3.635-6.102-3.969-5.375c-0.307,0.67-1.352,1.322-1.813,1.906
			c-1.921,2.435-3.854,5.539-5.438,8.188c-0.173,0.289-0.592,0.267-0.906,0.281c-0.197,0.922-0.993,1.008-2.031,0.688
			c-4.016-1.238-6.503-6.033-8.188-9.719c-2.193-4.796-6.801-8.392-8.719-13.355V329.5c103.371,0,197.866,0,303.25,0
			c0-2.741-0.156-11.315-0.156-21.625C596.322,302.457,589.021,298.689,583.754,291.954z"/>
		<path fill="#1E1E1E" d="M301.219,219.209c1.933,4.786,5.633,9.405,7.906,14.01c2.113,4.28,5.699,6.022,9.125,9.031
			c1.737-2.767,4.739-5.303,5.906-8.281c0.82-2.091,1.475-3.133,3.938-2.156c3.094,1.226,4.987,5.378,6.594,7.969
			c0.977,1.575,2.409,3.226,3.594,4.781c4.075-4.038,7.379-9.103,10.75-13.688c0.766-1.042,1.043-0.752,1.531,0.406
			c1.001,2.376,2.415,4.479,3.5,6.75c0.043-0.021,0.153-0.495,0.198-0.512c0.528-0.194,2.414-0.524,2.802-0.926
			c0.466-0.482,1.272-0.879,1.75-1.375c0.864-0.896,1.401-1.604,2.438-2.313c0.556-0.38,0.611-0.192,0.938,0.344
			c0.365,0.598,1.147,1.225,1.344,1.844c1.104-0.803,3.045-1.71,4.156-2.438c2.014-1.319,3.48-2.27,5.563-3.531
			c1.876-1.136,2.905,1.118,3.656,2.219c3.035,4.451,5.557,9.089,8.313,13.719c4.133-0.457,8.179-4,11-6.531
			c0.795-0.713,3.754-2.652,4.188-3.656c0.353-0.816,0.876-0.615,1.438-0.125c2.802,2.447,4.292,5.921,6.75,8.75
			c3.007,3.46,6.339,7.074,9.906,9.969c4.041,3.279,8.567,5.624,12.938,7.563c4.599-0.74,9.319-5.151,12.969-7.688
			c2.383-1.656,4.837-2.286,7.156-4c0.495-0.365,0.552-0.887,0.938-0.406c6.325,7.893,9.755,17.916,15.188,26.469
			c2.114,3.329,4.536,6.564,6.719,9.844c0.12-0.116,0.845-0.329,1.063-0.375c5.173-1.104,10.301-1.636,15.063-4.094
			c3.555-1.835,6.384-3.999,9.688-6.031c5.348-3.29,6.948,2.005,9.813,5.719c2.1,2.723,4.889,5.071,7.344,7.5
			c0.119-0.292,0.759-0.669,1.125-0.688c8.106-0.412,9.817-11.041,12.594-16.906c0.387-0.818,0.452-1.141,1.188-0.656
			c2.403,1.586,2.814,3.411,4.219,5.844c0.077,0.133,0.384,0.73,0.463,0.861c4.874-1.031,8.945-7.478,12.037-10.924
			c1.063-1.184,1.99-2.79,3.875-1.844c2.38,1.194,3.414,3.18,4.75,5.375c0.943,1.55,2.379,3.183,3.406,4.75
			c3.654-2.698,10.46-9.811,12.906-7.344c2.018,2.035,0.953,4.923,1.844,7.563c1.411,4.182,4.093,7.835,6.75,11.313
			c5.709,7.473,12.755,13.021,20.25,18.469c0-13.6,0.219-31.242,0.219-47.144c-8.337-2.451-16.073-6.154-24.75-3.262
			c-5.971,1.99-11.898,3.789-17.292-0.723c-2.385-1.995-4.013-4.611-6.417-6.568c-2.735-2.228-6.89-3.272-10.458-2.375
			c-0.25,0.063-3.455,1.186-4.625,1.458c1.8,1.576,3.266,3.5,3.75,5.292c0.613,2.266-1.498,2.212-2.75,0.458
			c-3.185-4.462-7.348-7.474-10.875-11.708c-1.848-2.219-4.144-5.775-5.5-8.25c-3.062,6.31-8.466,13.838-15.125,13.458
			c-1.48-0.084-1.897-1.374-0.417-1.458c1.819-0.104,3.637-1.17,5.333-2.458c-1.476-1.359-2.486-3.269-3.375-5.083
			c-0.649-1.326-1.186-3.324-1.958-4.583c-1.423-2.322-3.026,1.476-3.292,2.792c-0.261,1.293-1.234,1.347-2.333,0.542
			c-1.465-1.074-3.104-2.562-4-4.083c-3.797,6.091-9.556,10.727-13.875,16.5c-1.673,2.236-3.946,0.096-1.708-1.5
			c2.16-1.541,4.561-4.418,6.417-6.75c-0.087-0.018-0.867-0.449-0.958-0.5c-3.396-1.887-5.298-5.567-7.333-8.75
			c-1.824-2.852-4.211-6.582-5.833-9.542c-0.345,0.841-1.262,2.545-1.708,3.208c-1.303,1.937-2.015,3.895-3.72,5.503
			c-0.089,0.083-0.442-0.67-0.53-0.586c0.118,0.323-0.055,0.73-0.417,0.583c-0.017-0.007-0.358,0.299-0.375,0.292
			c-2.88,2.811-5.017,5.815-8.542,7.875c-0.835,0.488-1.549-0.008-0.792-0.667c2.689-2.341,4.901-5.537,7.208-8.25
			c-8.259-5.021-14.135-16.203-20.708-23.12c-0.057,0.212-0.504,1.549-0.583,1.859c-0.37,1.454-0.881,2.668-1.458,4.053
			c-0.688,1.649-1.602,2.85-2.833,4.167c-3.819,4.084-8.279,6.203-12.647,9.583c-1.637,1.267-2.582-0.139-0.895-1.333
			c2.748-1.945,5.858-4.034,8.625-6.25c-1.518-0.104-3.49-2.094-5.083-4.167c-1.898-2.41-3.431-5.432-4.125-6.5
			c-3.703-5.701-8.005-11.692-11.833-17.25c-1.867,3.829-3.738,8.029-8.208,7.917c-0.908-0.023-1.051-0.536-0.25-0.833
			c1.506-0.558,2.95-2.348,3.958-3.833c-2.131-1.198-5.608-5.014-7.542-7.333c-0.871,5.216-3.144,9.514-7.083,13.833
			c-2.608,2.859-6.617,8.688-11.167,7.375c-0.728-0.21-0.405-0.718,0.25-0.958c3.828-1.403,7.225-4.746,9.958-8.292
			c-5.681-2.712-9.749-9.043-13.708-13.667c-3.279-3.83-6.897-8.063-7.875-12.875c-2.357,1.929-4.133,4.302-6.625,6.208
			c-1.473,1.127-2.592-0.77-0.667-1.167c1.237-0.255,2.086-3.225,2.833-4.125c0.563-0.678,1.304-1.451,1.917-1.958
			c-1.008-0.832-2.719-1.853-3.485-2.682c-2.375-2.569-4.405-5.66-6.682-8.318c-3.816-4.456-6.62-10.028-9.75-14.917
			c-2.086,3.721-4.498,8.647-8.625,8.5c-1.151-0.041-1.425-0.67-0.5-1.292c1.389-0.934,2.919-2.313,3.875-3.583
			c-10.198-3.923-13.251-17.365-17.958-26.208c-1.231,2.374-3.303,5.465-4.875,7.708c-0.969,1.383-1.618,3.175-2.799,4.383
			c-0.075,0.076-2.466,1.312-2.534,1.492c-0.244,0.645-0.507,1.103-0.75,0.458c-0.56-1.485,1.769-3.267,2.75-4.417
			c-10.484-0.964-14.234-18.122-20.01-24.583l0.094,112.607C300.339,217.725,300.904,218.431,301.219,219.209z"/>
	</g>
	<g>
		<path fill="#545454" d="M2.428,262.664c3.113-5.27,6.595-10.437,9.389-15.884c2.401-4.681,4.443-9.592,7.302-14.018
			c0.562-0.869,2.071-1.324,2.815-0.363c3.616,4.67,1.043,11.782,3.306,17.094c1.617-2.588,3.138-5.253,4.485-8.084
			c2.08-4.374,3.523-8.976,5.297-13.467c0.703-1.781,1.499-3.9,3.571-4.471c5.423-1.492,8.946,7.81,10.078,11.469
			c0.437,1.413,2.768,10.271,5.243,13.222c0.28-0.407,0.559-0.81,0.838-1.204c3.985-5.64,7.745-11.101,9.642-17.826
			c0.467-1.654,2.807-2.01,3.674-0.48c1.499,2.648,1.249,5.026,1.225,8.014c-0.04,4.858-0.016,9.624,1.357,14.34
			c1.94,6.665,3.952,13.454,6.901,19.734c1.828-2.15,3.652-4.305,5.485-6.447c3.416-3.991,7.014-7.855,10.32-11.937
			c2.788-3.442,6.342-7.659,8.068-11.791c0.562-1.345,2.762-1.754,3.151,0c0.864,3.894,0.737,10.332,3.84,13.566
			c2.543-4.131,4.842-8.375,7.314-12.565c2.902-4.92,5.952-9.871,8.341-15.072c2.216-4.824,2.301-10.12,4.384-14.87
			c0.341-0.778,1.677-0.949,2.204-0.284c2.055,2.591,2.734,6.08,5.081,8.454c0.284-0.475,0.566-0.952,0.834-1.434
			c2.01-3.615,3.361-7.62,5.465-11.118c0.696-1.157,2.329-0.854,2.741,0.358c0.879,2.586,1.231,4.982,3.056,7.133
			c0.446-0.737,0.879-1.482,1.275-2.254c1.213-2.362,1.663-4.817,2.697-7.169c1.04-2.367,4.061,1.873,6.079,4.587
			c0.474-1.499,0.713-3.009,0.253-4.478c-0.269-0.86,0.312-1.676,1.105-1.947c0.1-0.043,0.203-0.069,0.311-0.08
			c1.13-0.2,2.003,0.462,2.108,1.606c0.23,2.511,0.637,5.193,1.462,7.572c0.502,1.447,1.405,4.434,2.725,6.042
			c2.394-3.287,4.724-6.601,6.986-9.883c3.257-4.725,6.01-9.593,8.752-14.614c1.243-2.277,2.11-6.371,4.942-7.149
			c1.183-0.325,2.124,0.575,2.229,1.698c0.51,5.443,3.712,14.585,9.026,18.215c1.795-3.797,3.36-7.696,4.703-11.511
			c1.58-4.486,3.119-8.625,3.881-13.343c0.629-3.9,2.403-8.116,2.183-12.028c-0.132-2.357,3.771-2.924,4.15-0.562
			c0.804,5.005,4.874,9.576,7.354,13.884c0.384,0.666,0.819,1.309,1.276,1.942c0.103-0.094,0.224-0.173,0.362-0.236
			c0.11-0.11,0.234-0.206,0.372-0.287c1.103-0.834,1.677-2.149,2.454-3.234c2.345-3.278,4.217-6.422,5.663-10.2
			c1.283-3.353,3.909-6.481,6.067-9.305c1.907-2.495,5.809-6.584,6.137-10.001c0.168-1.749,2.677-2.873,3.622-0.981
			c1.022,2.048,0.743,4.206,1.858,6.221c1.322,2.389,2.825,4.517,4.924,6.299c2.896,2.458,6.465,4.249,9.166,6.93
			c1.736-6.036,2.232-12.768,3.338-18.386c0.91-4.618,1.9-9.242,2.668-13.886c0.661-3.994,0.312-7.997,0.803-11.986
			c0.762-6.181,6.089-3.093,8.557,0.076c1.216,1.561,2.534,3.098,3.89,4.633c0.69-1.313,1.828-2.532,2.714-3.559
			c2.389-2.772,3.876-6.124,6.004-9.08c1.795-2.492,4.125-4.564,5.703-7.235c1.474-2.495,1.755-5.521,2.752-8.216
			c0.069-0.187,1.205,0.274,1.36,0.202V41.755c-0.35,0.149-1.709,0.88-2.078,0.88c-2.573,0-4.846-3.608-6.757-7.352
			c-0.974,1.213-1.922,2.456-2.843,3.664l-1.087,1.422c-0.9,1.172-2.282,1.74-3.489,1.409c-2.886-0.795-3.804-4.637-4.321-8.481
			c-0.843,1.12-1.405,2.393-1.994,3.724c-0.43,0.973-0.874,1.978-1.452,2.985c-0.35,0.61-1.022,0.989-1.754,0.989
			c-0.544,0-1.041-0.21-1.4-0.592c-2.07-2.202-3.816-4.304-5.314-6.396c-0.328,0.972-0.771,2.063-1.21,2.435
			c-0.708,0.601-1.557,0.708-2.366,0.299c-1.873-0.943-2.655-3.218-3.204-5.294c-0.42,0.352-0.893,0.563-1.429,0.643
			c-0.947,0.134-1.644-0.15-2.173-0.895c-1.011-1.42-1.54-3.064-1.923-4.486l0.077-0.021c-0.67-1.032-1.386-3.963-1.94-6.677
			c-0.122,0.494-0.263,0.974-0.463,1.412c-1.204,2.643-1.672,5.569-2.142,8.42c-1.012,6.142-1.53,12.536-3.014,18.586
			c-0.854,3.483-2.064,6.806-3.141,10.219c-0.793,2.513-1.097,5.217-2.024,7.681c-2.277,6.05-2.879,12.531-4.693,18.71
			c-1.012,3.448-2.019,6.939-2.555,10.5c-0.26,1.726-0.238,4.255-1.098,5.884c-2.839,5.379-3.941,11.585-5.849,17.308
			c-1.968,5.905-3.823,11.8-5.792,17.708c-1.482,4.448-3.395,8.568-4.284,13.148c0.786,0.825,0.443,2.579-1.038,2.579
			c-0.222,0-0.444,0-0.667,0c-1.071,0-1.578-0.952-1.446-1.899c0.627-4.517,2.176-8.757,3.838-12.97
			c-1.253,1.34-1.917,3.138-3.153,4.513c-1.805,2.008-3.453,4.219-5.89,5.38c1.285,1.497,2.463,2.844,3.097,4.745
			c0.614,1.841-2.284,2.623-2.893,0.798c-1.084-3.253-4.748-6.23-6.64-9.142c-1.815-2.793-3.753-5.496-5.208-8.5
			c-1.454-3.002-2.111-6.473-3.24-9.686c-1.886,3.862-2.884,8.288-4.315,12.261c-1.571,4.364-2.788,8.854-3.702,13.402
			c-1.651,8.21-6.736,15.202-9.335,22.998c-0.609,1.826-3.506,1.043-2.893-0.798c1.199-3.598,3.274-6.793,4.763-10.272
			c-0.813-1.576-2.056-2.873-2.91-4.441c-1.188-2.181-2.03-4.369-3.035-6.631c-0.913-2.055-1.331-4.388-1.873-6.65
			c-0.094,0.577-0.213,1.168-0.386,1.791c-0.289,1.043-0.7,2.053-1.102,3.064c0.238,0.733-0.133,1.497-0.699,1.872
			c-0.227,0.676-0.42,1.36-0.532,2.064c-0.304,1.906-3.195,1.094-2.893-0.798c0.148-0.929,0.409-1.842,0.713-2.748
			c-0.682-0.805-1.336-1.566-1.933-2.333c-0.341,6.187-1.402,12.719-4.752,17.351c-2.453,3.393-4.41,7.736-7.188,10.856
			c-2.196,2.467-5.479,6.464-6.281,9.671c-0.469,1.876-3.362,1.08-2.893-0.798c0.461-1.844,1.425-3.347,2.515-4.803
			c-0.132-0.099-0.257-0.218-0.364-0.375c-1.95-2.85-5.552-4.765-7.333-7.667c-0.981-1.597-2.206-3.357-3.64-4.613
			c0.422,0.37-1.058,3.103-1.321,3.551c-1.302,2.21-3.169,0.596-4.457-1.389c-0.471,1.171-0.865,2.402-1.324,3.452
			c-0.277,0.634-1.091,0.813-1.694,0.689c-0.524-0.107-0.987-0.386-1.401-0.767c-0.725,5.662-2.788,12.426-7.11,14.283
			c-1.757,0.755-3.287-1.829-1.514-2.59c2.318-0.996,3.834-4.196,4.755-7.697c-0.03-0.017-0.059-0.026-0.089-0.046
			c-1.635-1.058-3.039-2.782-4.304-4.235c-0.579-0.664-1.041-1.478-1.486-2.306c-0.143,2.164-0.319,4.31-0.976,6.561
			c-1.041,3.569-1.998,7.182-3.849,10.442c-0.955,1.682-3.547,0.171-2.59-1.514c0.774-1.363,1.414-2.835,1.961-4.347
			c-0.222-0.177-0.388-0.446-0.446-0.831c-0.25-1.672-1.004-2.935-1.853-4.271c-0.271,2.572-0.722,5.101-1.736,7.77
			c-0.726,1.913-1.491,3.861-2.67,5.551c-0.275,0.395-2.462,2.877-2.462,2.885c0,1.935-3,1.935-3,0c0-0.531,0.059-0.985,0.439-1.394
			c0.698-0.751,1.353-1.545,1.959-2.375c-0.198-0.115-0.384-0.26-0.526-0.474c-1.527-2.291-2.232-2.933-3.151-5.692
			c-0.372-1.115-0.25-2.465-0.064-3.782c-2.078,1.197-3.561,2.609-4.71,5.449c-0.985,2.436-2.542,5.113-4.102,7.235
			c-2.551,3.472-6.954,8.211-11.279,9.146c-1.886,0.408-2.688-2.484-0.798-2.893c1.215-0.263,2.779-1.224,4.307-2.43
			c-0.006-0.021-0.016-0.037-0.022-0.058c-1.024-3.917-4.183-7.245-5.977-10.826c-0.869-1.734-1.673-3.481-2.664-5.149
			c-0.102-0.171-0.189-0.356-0.271-0.547c-1.533,6.551-6.266,11.215-11.24,16.177c-0.14,0.6-0.603,1.112-1.401,1.112
			c-0.111,0-0.222,0-0.333,0c-1.309,0-1.985-1.635-1.061-2.561c1.084-1.086,2.183-2.16,3.252-3.247
			c-2.062-4.536-2.194-11.111-5.82-14.673c-1.361-1.337-4.922,9.884-5.811,11.623c-2.41,4.713-5.3,9.162-8.631,13.279
			c-7.246,8.955-40.691,32.145-49.458,39.579c-3.828,3.246-1.622,24.928,0.376,46.109c1.553-3.21,3.768-6.566,4.784-8.844
			C-2.739,272.624-0.439,267.517,2.428,262.664z"/>
	</g>
	<path fill="#649147" d="M258.265,23.48l0.189,0.773c0.143,0.589,0.288,1.19,0.458,1.781c0.095-0.188,0.179-0.353,0.24-0.474
		l0.106-0.21l0.303,0.148l-0.298-0.157v-0.001h0c0-0.002,0.001-0.003,0.002-0.004l0.172-0.263c0.362-0.459,0.948-0.733,1.596-0.733
		c0.758,0,1.415,0.391,1.714,1.02c0.328,0.69,0.586,1.781,0.859,2.938c0.185,0.781,0.383,1.621,0.616,2.389
		c0.184-1.102,0.592-2.26,2.273-2.622c0.9-0.193,1.776,0.166,2.229,0.921c1.259,2.099,2.842,4.238,4.826,6.523
		c0.089-0.187,0.177-0.372,0.265-0.556c1.322-2.784,2.57-5.414,5.84-7.347c0.962-0.569,2.707-0.167,2.951,1.241
		c0.304,1.757,0.64,3.546,0.998,5.32c0.024,0.119,0.051,0.277,0.083,0.46c0.249,1.439,0.484,2.271,0.701,2.474
		c0.014-0.041,0.125-0.144,0.287-0.406c1.163-1.89,2.625-3.517,4.039-5.09c0.395-0.439,0.791-0.88,1.184-1.329
		c0.344-0.394,0.841-0.609,1.402-0.609c0.749,0,1.444,0.395,1.771,1.005c0.438,0.819,0.83,1.704,1.208,2.56
		c0.617,1.396,1.256,2.841,2.114,4.026c0.687,0.949,1.024,0.997,1.084,0.997c0.436,0,0.834-1.844,1.005-2.632
		c0.055-0.253,0.107-0.497,0.161-0.722c0.064-0.269,0.125-0.556,0.189-0.854c0.394-1.842,0.884-4.135,2.603-5.224
		c0.83-0.526,1.672-0.793,2.504-0.793c3.58,0,6.166,4.715,8.448,8.875c0.08,0.146,0.159,0.29,0.237,0.433
		c0.027-0.706,0.041-1.47,0.044-2.341c0.003-1.058,0.27-2.096,0.527-3.1c0.242-0.941,0.47-1.83,0.497-2.729
		c0.047-1.543,0.876-2.759,2.11-3.099c0.291-0.08,0.582-0.12,0.866-0.12c1.427,0,2.473,0.977,3.422,1.978
		c0.652,0.688,1.085,1.508,1.503,2.301c0.267,0.506,0.519,0.983,0.821,1.424c0.122,0.177,0.293,0.427,0.469,0.676
		c0.003-0.102,0.009-0.206,0.019-0.312c0.017-0.175,0.032-0.431,0.051-0.745c0.163-2.714,0.544-9.069,3.764-9.069
		c0.254,0,0.521,0.042,0.791,0.124c1.361,0.416,2.35,1.396,3.108,3.081c0.465,1.031,0.969,2.042,1.457,2.981
		c0.181-3.026-0.104-6.595-0.852-10.645C324.899,23.44,307.627,26,292.833,26c-13.945,0-30.536-2.337-37.503-7.53
		c0.146,0.889,0.342,1.731,0.594,2.553c0.101,0.341,0.208,0.676,0.317,1.01C257.208,21.979,258.04,22.581,258.265,23.48z"/>
	<path fill="#427228" d="M292.833,4c24.183,0,36.833,5.859,36.833,9c0,3.141-12.65,9-36.833,9S256,16.141,256,13
		C256,9.859,268.65,4,292.833,4z"/>
</g>
<g id="Lineart">
	<g>
		<path fill="#1C1C1C" d="M628.174,260.034c-8.184-3.223-16.657-5.907-25.174-8.185c-0.634-0.17-1.268-0.343-1.903-0.508
			c-7.866-2.047-13.996-4.914-22.149-2.42c-4.841,1.481-9.507,4.426-14.631,2.019c-3.216-1.51-5.423-4.878-8.263-6.943
			c-5.631-4.093-11.572-3.381-17.301,0.176c-1.396-1.148-2.78-2.214-3.75-3.177c-4.107-4.079-6.873-8.74-9.58-13.759
			c-0.761-1.411-2.967-1.07-3.365,0.44c-0.791,3.001-2.959,7.01-5.758,10.135c-0.337-1.095-0.986-2.115-1.656-3.245
			c-1.388-2.344-2.287-5.904-4.391-7.736c-3.406-2.966-6.018-0.952-7.502,2.081c-0.677-1.12-1.247-2.347-1.79-3.295
			c-0.963-1.681-3.187-1.106-3.8,0.497c-1.281,3.351-4.245,7.61-6.571,10.289c-0.208,0.24-0.422,0.499-0.635,0.758
			c-0.573-3.616-3.12-7.108-5.035-10.142c-2.517-3.989-5.278-7.794-7.219-12.111c-0.757-1.683-3.621-1.249-3.956,0.517
			c-0.736,3.881-3.101,7.37-5.781,10.205c-3.566-4.828-8.003-9.231-11.716-13.877c-2.616-3.274-6.529-10.845-11.084-11.306
			c-0.592-0.06-1.384,0.39-1.629,0.935c-1.565,3.47-1.466,7.008-3.566,10.433c-0.781,1.273-1.76,2.402-2.857,3.437
			c0.028-0.634-0.163-1.356-0.369-1.841c-0.992-2.34-3.386-4.332-4.898-6.344c-2.104-2.801-3.958-5.804-5.766-8.801
			c-2.966-4.914-6.39-9.207-9.852-13.662c-0.905-1.164-2.47-0.271-2.905,0.767c-0.394,0.94-0.828,2.02-1.324,3.12
			c-3.014-2.745-5.448-6.553-8.921-8.552c-1.203-0.693-2.695,0.192-2.72,1.561c-0.075,4.084-1.601,8.575-4.061,12.556
			c-2.307-3.796-6.839-6.799-9.692-10.111c-4.114-4.777-9.89-9.379-10.284-16.112c-0.071-1.213-1.364-2.115-2.491-1.429
			c-0.093,0.057-0.181,0.111-0.273,0.166c-1.995-3.687-6.521-6.913-9.122-9.674c-4.917-5.222-7.554-11.851-11.881-17.472
			c-0.813-1.056-2.334-1.253-3.111,0c-1.077,1.736-2.023,3.587-3.107,5.336c-1.16-1.642-2.637-2.882-4.127-4.304
			c-2.466-2.353-4.224-5.13-5.961-8.039c-2.799-4.687-4.248-10.389-7.279-14.847c-0.774-1.138-2.279-0.872-2.759,0.361
			c-1.363,3.5-3.401,6.542-5.517,9.584c-0.168-0.348-0.426-0.657-0.742-0.812c-9.742-4.773-10.82-16.401-18.126-23.531
			c-0.677-0.661-1.5-0.573-2.077-0.139c-0.716,0.538-1.052,1.611-0.244,2.459c0.083,0.087,0.162,0.184,0.244,0.275
			c5.777,6.461,8.555,23.449,19.039,24.413c-0.981,1.15-2.671,2.848-2.111,4.333c0.243,0.645,1.067,0.645,1.311,0
			c0.068-0.18,2.137-2.013,2.212-2.09c1.181-1.208,2.382-2.663,3.351-4.046c1.572-2.243,3.02-4.453,4.251-6.827
			c4.707,8.843,7.045,21.191,17.242,25.114c-0.956,1.27-2.057,2.429-3.446,3.363c-0.925,0.622-0.583,2.055,0.568,2.096
			c4.127,0.147,6.866-4.705,8.953-8.426c3.13,4.889,5.486,10.257,9.302,14.713c2.277,2.658,4.719,5.17,7.094,7.74
			c0.766,0.829,1.672,1.87,2.68,2.701c-0.612,0.507-1.197,1.072-1.759,1.75c-0.747,0.9-1.375,3.733-2.612,3.988
			c-1.925,0.397-0.48,3.483,0.993,2.356c2.492-1.906,4.168-4.249,6.525-6.178c0.978,4.812,4.017,8.607,7.296,12.437
			c3.959,4.624,8.212,10.717,13.893,13.429c-2.733,3.546-6.23,6.429-10.058,7.833c-0.655,0.24-0.728,1.191,0,1.401
			c4.549,1.313,9.316-4.208,11.923-7.068c3.939-4.319,6.347-8.188,7.218-13.404c1.934,2.32,4.275,5.556,6.406,6.754
			c-1.008,1.485-2.22,2.713-3.726,3.271c-0.801,0.297-0.703,1.496,0.206,1.519c4.47,0.112,6.917-3.817,8.784-7.646
			c3.828,5.558,7.411,11.244,11.114,16.944c0.669,1.03,2.33,3.963,4.244,6.453c1.593,2.073,3.361,3.838,4.879,3.941
			c-2.767,2.216-5.994,4.021-8.742,5.966c-1.688,1.194,0.095,3.513,1.733,2.245c4.368-3.38,9.391-5.57,13.21-9.654
			c1.231-1.317,2.35-3.054,3.038-4.703c0.578-1.385,1.005-2.73,1.376-4.185c0.079-0.31,0.143-0.553,0.2-0.765
			c6.573,6.918,11.674,16.965,19.933,21.986c-2.308,2.713-4.357,5.689-7.047,8.03c-0.757,0.659,0.216,1.85,1.051,1.362
			c3.525-2.06,6.173-5.009,9.054-7.82c0.017,0.007,0.033,0.017,0.051,0.024c0.361,0.147,0.678-0.29,0.56-0.613
			c0.088-0.084,0.173-0.169,0.262-0.253c1.704-1.608,3.057-3.318,4.359-5.255c0.446-0.663,0.793-1.494,1.138-2.334
			c1.622,2.96,3.562,5.748,5.386,8.601c2.035,3.183,4.265,7.077,7.661,8.965c0.091,0.051,0.181,0.083,0.268,0.101
			c-1.855,2.332-3.879,4.986-6.039,6.527c-2.238,1.596,0.668,4.577,2.341,2.341c4.319-5.773,10.069-10.065,13.866-16.156
			c0.896,1.521,1.926,2.933,3.391,4.007c1.099,0.806,2.939-0.009,3.2-1.302c0.266-1.315,0.947-4.646,2.371-2.324
			c0.772,1.259,1.344,2.703,1.993,4.028c0.889,1.815,1.889,3.622,3.365,4.981c-1.697,1.288-3.51,2.15-5.329,2.254
			c-1.48,0.084-1.48,2.213,0,2.297c6.659,0.38,12.881-6.09,15.943-12.4c1.356,2.475,2.799,4.88,4.648,7.098
			c3.527,4.235,8.358,7.685,11.542,12.147c1.252,1.754,4.211,0.749,3.598-1.517c-0.484-1.792-2.091-3.499-3.89-5.075
			c1.17-0.272,4.038-0.927,4.288-0.99c3.569-0.897,6.905,0.27,9.64,2.498c2.404,1.958,4.284,4.492,6.668,6.487
			c5.394,4.512,11.82,2.525,17.791,0.535c8.677-2.892,16.268,0.422,24.605,2.873c0.127,0.037,0.252,0.076,0.379,0.113
			c8.049,2.333,16.285,3.898,24.621,4.573C628.796,261.387,628.81,260.284,628.174,260.034z"/>
	</g>
	<path fill="#262626" d="M298.75,217.658c-0.205-0.029-0.419-0.02-0.628,0.078c-0.997,0.467-1.599,1.371-2.009,2.378
		c-1.199,2.943-3.494,5.599-5.334,8.173c-4.017,5.619-9.924,9.092-16.096,11.934c-0.032,0.015-0.056,0.035-0.085,0.051
		c-1.862-2.402-3.619-4.869-5.253-7.457c-1.445-2.289-4.501-11.576-8.918-8.988c-1.844,1.08-2.412,4.016-3.102,5.789
		c-1.462,3.755-3.242,7.389-5.374,10.807c-4.118,6.601-12.62,10.655-20.004,13.05c-0.219-0.293-0.443-0.581-0.655-0.879
		c-3.332-4.67-6.429-10.666-10.702-14.514c-1.003-0.903-2.556-0.531-2.965,0.783c-1.261,4.045-3.754,8.502-5.857,12.192
		c-2.271,3.983-6.253,7.78-10.186,10.283c-0.101-0.163-0.211-0.326-0.307-0.489c-2.916-4.93-5.897-9.772-8.535-14.863
		c-0.998-1.925-3.585-0.824-3.748,1.015c-0.247,2.772-1.69,5.483-2.412,8.194c-0.992,3.724-2.795,7.135-4.831,10.379
		c-1.464,2.333-3.233,4.516-5.02,6.683c-1.404-2.483-3.598-4.687-5.3-6.798c-1.997-2.476-3.88-5.014-5.686-7.633
		c-1.805-2.616-5.012-6.228-5.78-9.366c-0.333-1.361-2.443-2.124-3.396-0.897c-2.089,2.69-4.448,5.069-6.474,7.851
		c-1.903,2.613-4.045,8.6-7.351,9.636c-0.247,0.077-0.422,0.235-0.536,0.425c-0.964-0.809-1.792-1.777-2.686-2.659
		c-1.075-1.059-2.438-1.749-3.42-2.914c-0.13-0.154-0.286-0.23-0.448-0.275c-0.027-0.456-0.686-0.768-1.095-0.409
		c-6.058,5.296-11.957,10.674-17.686,16.333c-2.244,2.216-4.381,4.424-6.232,6.983c-3.233,4.469-5.549,11.327-12.594,8.239
		c-3.851-1.688-6.888-8.558-11.735-5.964c-2.189,1.172-3.88,5.141-5.318,6.942c-2.56,3.206-5.332,9.45-8.931,11.294
		c-0.072,0.037-0.123,0.084-0.171,0.133c-1.192-1.136-2.388-2.267-3.58-3.401c-4.372-4.157-9.571-8.084-12.627-13.37
		c-0.435-0.753-1.593-0.769-2.024,0c-1.232,2.196-1.812,9.689-4.163,10.625c-0.082,0.033-0.152,0.076-0.211,0.127
		c-3.991-5.386-7.77-10.943-11.44-16.539c0.224-0.522-0.253-1.087-0.804-0.795c-0.116,0.061-0.234,0.147-0.352,0.217
		c-0.029,0.015-0.054,0.032-0.081,0.05c-2.195,1.354-4.544,4.173-5.661,6.289c-1.169,2.212-2.45,0.25-3.241-0.989
		c-0.912-1.428-1.958-2.753-3.222-3.875c-0.58-0.515-1.776-0.41-1.924,0.508c-0.745,4.619-3.39,8.719-4.958,13.093
		c-1.527-3.135-3.196-6.207-5.09-9.104c-1.238-1.893-4.409-2.611-5.189,0.167c-1.572,5.603-3.88,10.397-6.804,15.417
		c-2.235,3.836-5.013,8.35-8.32,11.973c-1.614,1.768-3.352,3.328-5.217,4.487c-0.665,0.413-0.24,1.523,0.542,1.285
		c1.828-0.557,3.362-1.585,4.732-2.833c1.405-1.28,2.637-2.792,3.827-4.275c3.492-4.35,6.555-8.759,9.535-13.487
		c1.025-1.625,2.094-3.495,2.735-5.309c0.423-1.195,0.805-2.387,1.163-3.603c0.279-0.948,0.143-2.231,0.697-1.313
		c2.821,4.681,5.276,9.157,8.96,13.307c0.446,0.503,1.451-0.027,1.175-0.684c-0.646-1.536-1.335-3.065-2.048-4.586
		c0.15-0.072,0.281-0.193,0.358-0.379c1.595-3.859,4.124-7.37,5.492-11.336c1.531,2.376,3.368,5.913,5.673,5.913
		c1.344,0,2.182-1.33,2.807-2.31c1.369-2.148,3.091-4.046,4.379-6.228c2.011,3.801,4.244,7.408,6.701,10.967
		c2.369,3.43,4.771,7.027,8.377,9.24c0.514,0.316,0.918-0.361,0.596-0.773c-0.868-1.111-1.708-2.246-2.555-3.375
		c2.62-0.407,3.745-5.22,4.716-8.44c2.849,4.739,7.268,8.349,11.242,12.162c4.581,4.397,9.106,9.815,15.082,12.277
		c0.635,0.262,0.993-0.633,0.616-1.058c-2.818-3.168-5.835-6.143-8.895-9.075c2.771-0.778,4.38-3.074,6.01-5.448
		c2.409-3.509,5.359-6.547,7.647-10.138c2.051-3.218,8.271,3.868,9.917,4.918c2.451,1.564,5.086,1.67,7.804,0.969
		c2.559-0.659,4.376-2.905,5.788-4.968c2.582-3.775,4.689-7.405,8.004-10.68c5.729-5.659,11.658-10.989,16.471-17.44
		c1.454,1.864,3.442,3.338,5.016,5.125c0.976,1.109,2.05,2.097,3.028,3.215c0.898,1.027,1.923,2.18,3.303,2.421
		c0.303,0.053,0.584-0.126,0.593-0.452c0.045-1.577-1.359-3.434-2.724-4.803c2.502-0.622,4.358-3.559,5.812-5.435
		c1.423-1.837,2.577-3.802,4.033-5.631c1.006-1.264,2.151-2.276,3.333-3.257c1.869,4.733,5.848,9.642,8.652,13.302
		c2.188,2.857,4.974,7.524,8.344,9.869c-0.63,0.799-1.248,1.603-1.829,2.423c-0.739,1.044,0.8,1.994,1.656,1.278
		c0.913-0.763,1.812-1.602,2.698-2.477c0.092,0.025,0.183,0.061,0.276,0.082c0.596,0.132,1.428-0.298,1.335-1.017
		c-0.027-0.206-0.066-0.408-0.108-0.61c2.825-3.021,5.432-6.437,7.566-9.683c1.686-2.564,2.844-5.385,3.995-8.213
		c0.663-1.629,1.425-3.321,2.075-5.043c2.173,3.997,4.497,7.899,6.766,11.854c1.947,3.393,4.074,7.862,8.318,8.369
		c0.647,0.077,1.153-0.702,0.972-1.276c-0.911-2.878-3.025-5.595-4.866-8.251c4.085-1.176,6.804-4.825,9.716-7.868
		c1.751-1.829,2.955-4.127,4.021-6.393c1.032-2.192,2.318-4.205,3.378-6.352c3.534,4.199,5.993,9.614,9.426,13.82
		c3.315,4.06,6.841,9.265,12.166,10.659c0.545,0.143,1.184-0.512,0.794-1.033c-2.642-3.532-5.693-6.73-8.489-10.148
		c4.75-0.911,9.666-3.434,13.786-5.519c5.082-2.571,8.444-8.063,10.985-12.914c1.394-2.66,2.549-5.413,3.625-8.214
		c-0.105-0.277-0.21-0.555-0.316-0.833c0.305,0.696,0.605,1.394,0.899,2.094c0.86,1.569,1.727,3.133,2.607,4.691
		c3.058,5.412,6.874,11.302,11.942,15.037c0.844,0.622,2.066-0.219,2.045-1.174c-0.048-2.227-0.787-3.842-2.258-5.605
		c-0.292-0.35-0.572-0.707-0.859-1.06c5.303-2.219,10.143-5.016,14.228-9.129c2.043-2.057,3.602-4.669,5.247-7.036
		c0.866-1.246,1.68-2.514,2.461-3.814c0.333-0.554,0.386-1.203,0.572-1.809c0.125-0.406,0.307-0.793,0.679-1.118
		C300.216,218.742,299.571,217.775,298.75,217.658z"/>
	<path fill="#0C0C0C" d="M624.762,316.238c-2.562-2.127-5.881-3.02-8.902-4.364c-4.349-1.935-7.598-5.074-11.391-7.817
		c-0.492-0.356-0.982-0.711-1.469-1.065c-7.495-5.448-14.389-10.77-20.097-18.243c-2.657-3.478-5.252-6.996-6.663-11.178
		c-0.891-2.64,0.071-6.161-1.947-8.196c-2.447-2.468-9.605,5.043-13.259,7.741c-1.027-1.567-2.08-3.115-3.023-4.665
		c-1.336-2.195-2.573-4.569-4.953-5.763c-1.885-0.946-3.462,1.056-4.525,2.241c-3.092,3.446-5.975,9.373-10.849,10.404
		c-0.079-0.131-0.163-0.258-0.239-0.391c-1.404-2.432-2.504-4.843-4.907-6.429c-0.735-0.485-1.972-0.199-2.359,0.618
		c-2.777,5.865-3.738,17.228-11.845,17.641c-0.366,0.019-0.892,0.295-1.011,0.587c-2.454-2.429-4.731-5.042-6.831-7.766
		c-2.865-3.714-5.72-9.843-11.069-6.553c-3.304,2.032-5.603,5.202-9.158,7.036c-4.762,2.458-10.033,3.16-15.205,4.264
		c-0.217,0.046-0.366,0.145-0.486,0.261c-2.183-3.28-4.282-6.612-6.397-9.941c-5.432-8.553-9.122-18.829-15.447-26.721
		c-0.385-0.481-1.327-0.601-1.822-0.235c-2.319,1.714-4.633,3.428-7.016,5.084c-3.649,2.537-7.838,6.862-12.438,7.603
		c-4.371-1.938-8.476-4.514-12.517-7.794c-3.567-2.895-6.746-6.372-9.752-9.832c-2.458-2.829-4.468-6.563-7.271-9.01
		c-0.561-0.49-1.679-0.554-2.031,0.262c-0.434,1.004-3.082,2.859-3.877,3.573c-2.821,2.531-6.421,6.448-10.554,6.906
		c-2.755-4.63-5.255-9.468-8.29-13.919c-0.751-1.101-2.622-4.068-4.498-2.932c-2.082,1.261-3.302,3.392-5.316,4.712
		c-1.111,0.728-2.708,1.39-3.812,2.193c-0.197-0.619-0.452-1.229-0.817-1.827c-0.327-0.536-1.111-0.817-1.667-0.437
		c-1.037,0.709-1.731,1.744-2.595,2.64c-0.478,0.496-1.102,0.819-1.569,1.301c-0.389,0.401-2.1,1.104-2.628,1.298
		c-0.044,0.016-0.085,0.043-0.128,0.064c-1.085-2.271-2.108-4.582-3.109-6.958c-0.488-1.158-1.805-1.378-2.571-0.336
		c-3.371,4.584-6.127,9.828-10.202,13.866c-1.184-1.556-2.365-3.096-3.341-4.672c-1.606-2.59-3.68-7.612-6.774-8.839
		c-2.463-0.976-3.591,0.736-4.41,2.826c-1.168,2.978-3.743,5.593-5.48,8.36c-3.426-3.01-6.511-5.314-8.624-9.594
		c-2.273-4.605-6.202-8.77-8.135-13.556c-0.314-0.778-1.147-0.957-1.736-0.7c-0.463,0.202-0.776,0.673-0.569,1.336
		c0.166,0.532,0.367,1.055,0.569,1.578c1.918,4.963,5.308,9.525,7.5,14.321c1.685,3.685,5.606,8.551,9.622,9.789
		c1.038,0.32,1.97-0.482,2.167-1.404c0.315-0.015,0.604-0.169,0.777-0.458c1.583-2.649,3.856-5.116,5.777-7.551
		c0.46-0.584,0.711-1.394,1.019-2.064c0.333-0.727,3.511,4.344,3.781,4.789c3.092,5.086,6.577,12.282,11.86,15.39
		c0.599,0.352,1.435-0.229,1.205-0.926c-0.875-2.645-2.528-5.058-4.287-7.408c4.418-2.899,7.104-7.336,10.127-11.542
		c4.76,11.627,10.733,22.695,20.255,31.282c0.547,0.493,1.307-0.121,0.994-0.767c-2.9-5.974-7.364-11.145-10.92-16.746
		c-1.77-2.787-3.315-5.593-4.737-8.459c1.247-0.157,2.806-0.894,3.739-1.42c1.007-0.568,1.701-1.52,2.487-2.342
		c0.419,1.72,0.63,3.797,2.402,4.163c0.329,0.068,0.747-0.156,0.712-0.542c-0.107-1.19-0.193-2.346-0.432-3.469
		c0.239,0.105,0.506,0.157,0.711,0.102c2.468-0.664,4.554-1.355,6.355-3.202c2.462-2.524,3.191-1.635,4.757,0.972
		c1.222,2.035,2.04,4.252,3.302,6.267c2.484,3.964,4.471,8.209,7.079,12.102c1.271,1.897,2.548,4.138,4.999,3.978
		c0.496-0.032,0.84-0.453,0.723-0.949c-0.742-3.151-3.533-6.238-5.489-9.094c3.398-0.219,6.111-2.336,8.8-4.439
		c1.835-1.435,4.277-2.96,6.016-4.72c2.664,2.831,4.775,6.633,7.22,9.588c3.34,4.037,7.152,7.738,11.357,10.867
		c8.118,6.04,16.469,9.633,26.706,8.56c0.73-0.077,0.717-1.034,0-1.125c-4.666-0.589-8.936-1.658-12.964-3.244
		c2.695-0.672,4.823-2.216,7.496-3.616c3.614-1.893,7.044-4.225,10.43-6.516c2.483,3.664,4.282,7.997,6.297,11.886
		c2.657,5.126,5.433,10.155,8.529,15.029c2.915,4.589,5.744,9.244,9.066,13.555c2.873,3.727,6.15,6.038,9.79,8.743
		c0.569,0.423,1.341-0.397,0.962-0.962c-2.605-3.885-6.134-7.138-8.835-10.993c-0.466-0.665-0.917-1.338-1.373-2.009
		c7.329-1.019,14.096-1.867,20.272-6.31c1.019-0.733,1.943-1.594,2.877-2.428c3.613-3.228,5.772-0.625,7.88,2.454
		c1.896,2.769,3.936,5.397,6.229,7.841c10.496,11.184,23.009,16.67,37.847,19.721c0.648,0.133,1.112-0.78,0.47-1.114
		c-7.249-3.759-15.067-6.243-22.225-10.165c-3.684-2.018-7.042-4.531-10.118-7.363c2.212,0.862,5.047-1.169,6.715-2.6
		c3.553-3.05,4.779-8.956,6.577-13.468c1.201,1.486,2.026,3.427,2.94,4.982c1.428,2.428,3.596,4.77,5.791,6.487
		c0.665,0.521,1.982,0.075,1.606-0.935c-0.985-2.644-2.707-4.715-4.228-7.003c5.082-1.194,7.908-6.732,11.3-10.347
		c3.666-3.907,6.103,3.188,7.43,5.817c1.649,3.267,3.359,6.8,6.502,8.811c0.549,0.351,1.442-0.24,1.171-0.9
		c-0.666-1.619-1.54-3.185-2.49-4.722c1.373-0.443,2.561-1.317,3.88-2.339c1.872-1.451,3.669-3.175,5.716-4.374
		c1.459-0.854,1.033,2.671,1.201,3.968c0.981,7.574,6.119,13.802,10.679,19.633c5.266,6.735,12.724,11.372,19.246,16.79
		c0.47,0.39,0.935,0.784,1.394,1.183c5.001,4.353,12.914,9.649,19.893,8.113C625.038,317.874,625.38,316.75,624.762,316.238z"/>
	<path fill="#1E1E1E" d="M606.399,203.22c-5.578-0.983-10.363-2.679-15.35-5.349c-3.665-1.962-7.441-5.073-11.757-5.288
		c-5.016-0.25-9.355-0.031-14.152,1.599c-6.669,2.267-11.749,5.597-19.096,4.182c-6.163-1.187-9.672-5.137-14.707-8.227
		c-3.853-2.365-7.708-4.949-11.939-6.583c-3.431-1.325-8.096,0.33-11.156,1.818c-3.181,1.547-5.698,5.496-7.68,8.901
		c-0.531-1.032-1.055-2.058-1.565-3.066c-3.559-7.036-7.195-13.547-8.885-21.272c-0.378-1.726-2.856-1.225-2.946,0.399
		c-0.113,2.027-1.716,5.833-4.167,5.833c-0.329,0-0.598,0.092-0.815,0.236c-0.787-1.529-1.409-3.155-1.771-4.935
		c-1.306-6.435-1.993-13.916-4.786-19.892c-0.486-1.04-2.068-0.914-2.59,0c-0.62,1.085-1.042,2.267-1.667,3.333
		c-0.333,0.835-0.777,1.612-1.333,2.333c-0.007,0.01-0.01,0.016-0.017,0.025c-0.746-1.231-1.431-2.542-2.059-4.025
		c-1.128-2.663-2.119-5.51-5.3-5.665c-2.429-0.118-3.615,4.39-4.269,6.054c-1.611,4.097-4.321,9.934-8.149,12.406
		c-0.059,0.038-0.106,0.083-0.157,0.125c-1.559-2.736-3.01-5.624-4.135-8.452c-2.596-6.529-4.992-13.694-9.558-19.105
		c-0.872-1.034-2.561-0.167-2.561,1.061c0,3.538-0.714,8.675-1.821,11.976c-0.027,0.08-0.058,0.162-0.086,0.242
		c-1.319-2.131-3.174-3.572-4.888-0.309c-1.593,3.035-3.307,5.899-4.821,8.998c-0.285,0.583-0.644,1.102-1.029,1.597
		c-1.941-2.354-4.714-8.121-5.893-10.163c-1.792-3.103-4.08-5.882-5.667-9.099c-1.898-3.849-4.521-11.883-9.149-13.292
		c-1.397-0.425-2.368,0.848-3.009,1.81c-1.818,2.727-2.073,6.343-3.955,9.209c-2.282,3.476-4.95,6.644-7.176,10.171
		c-0.168,0.266-0.348,0.518-0.522,0.777c-3.567-3.987-7.092-7.617-10.114-12.177c-3.431-5.177-6.459-10.745-9.297-16.264
		c-6.284-12.221-8.977-25.731-12.627-38.876c-1.587-5.716-3.315-11.292-4.767-17.055c-1.602-6.358-4.905-12.378-6.9-18.654
		c-2.024-6.369-3.815-12.728-5.288-19.25c-0.617-2.731-1.027-5.492-1.554-8.239c0.551,5.03,0.711,10.783-0.353,13.825
		c1.089,4.28,2.425,8.516,3.738,12.671c2.025,6.41,4.584,12.487,6.928,18.769c1.112,2.978,1.607,6.197,2.27,9.294
		c0.689,3.217,2.147,6.263,3.032,9.435c3.588,12.863,6.374,25.847,12.127,37.968c2.92,6.153,6.451,12.143,10.099,17.889
		c3.158,4.973,7.015,8.79,10.866,13.104c-2.126,2.516-4.668,4.583-7.736,6.012c-1.753,0.816-0.228,3.402,1.514,2.59
		c5.387-2.508,8.992-6.852,12.109-11.789c3.722-5.895,7.766-10.468,9.926-17.182c0.725-2.254,3.872,4.477,4.16,5.013
		c1.742,3.247,3.321,6.613,5.39,9.665c1.794,2.646,3.452,5.316,5.029,8.1c0.877,1.548,3.188,6.01,4.747,7.912
		c-1.574,1.423-3.274,2.74-4.414,4.562c-1.029,1.645,1.567,3.15,2.59,1.514c1.995-3.188,5.504-5.026,7.512-8.335
		c1.005-1.656,1.657-3.584,2.488-5.331c0.291-0.612,1.266-2.529,2.063-3.657c0.387,0.621,0.641,1.411,0.862,1.966
		c0.081,0.202,0.193,0.367,0.322,0.505c-0.326,0.933-0.597,1.866-0.709,2.763c-0.24,1.916,2.763,1.893,3,0
		c-0.16,1.284,0.828-1.662,0.738-1.435c0.738-1.877,1.197-4.053,1.849-5.995c0.664-1.978,1.039-4.416,1.234-6.801
		c2.972,4.968,4.695,10.964,7.092,16.112c1.674,3.596,3.582,7.239,5.637,10.628c1.706,2.813,4.27,4.86,5.988,7.58
		c1.03,1.631,3.627,0.127,2.59-1.514c-1.724-2.73-4.245-4.792-5.988-7.58c-0.127-0.203-0.252-0.412-0.379-0.618
		c0.054-0.027,0.107-0.048,0.162-0.083c4.194-2.707,7.266-8.369,9.023-12.896c0.224-0.577,1.884-5.917,3.258-3.975
		c1.193,1.686,1.794,4.125,2.667,6c1.525,3.277,3.647,5.273,5.901,7.97c1.242,1.486,3.353-0.648,2.121-2.121
		c-1.064-1.273-2.034-2.465-2.924-3.677c0.207-0.126,0.386-0.293,0.492-0.505c0.556-1.112,1.148-2.279,1.754-3.433
		c0.654,2.491,0.936,5.116,1.676,7.57c1.04,3.449,0.895,7.585,2.313,10.864c2.967,6.863,7.646,11.195,12,17
		c1.146,1.528,3.752,0.035,2.59-1.514c-2.766-3.689-6.234-6.98-8.827-10.793c2.16-0.264,3.765-1.59,4.826-3.391
		c1.844,5.443,4.486,10.279,7.078,15.698c0.976,2.041,2.02,4.128,3.122,6.214c-0.009,0.49,0.256,0.917,0.642,1.191
		c2.862,5.296,6.122,10.526,9.804,14.899c1.248,1.482,3.359-0.652,2.121-2.121c-3.51-4.169-6.496-9.181-9.176-14.186
		c2.464-4.205,5.183-8.734,9.951-10.482c5.857-2.147,10.304,1.411,15.017,4.275c7.872,4.783,13.802,10.423,23.615,10.666
		c4.239,0.105,8.439-1.941,12.214-3.627c5.564-2.485,11.249-3.376,17.279-2.524c2.297,0.325,4.383,2.029,6.282,3.234
		c2.211,1.404,4.757,2.509,7.069,3.757c2.814,1.519,6.134,2.312,9.354,2.922c0-0.38,0-0.761,0-1.141c0-1.935,3-1.935,3,0
		c0,0.544,0,1.088,0,1.632C607.595,206.028,608.161,203.531,606.399,203.22z"/>
	<path fill="#3F3F3F" stroke="#3A3A3A" stroke-miterlimit="10" d="M39.263,200.921c3.331-4.117,6.221-8.565,8.631-13.279
		c0.889-1.739,4.451-12.96,5.811-11.623c3.625,3.562,3.757,10.137,5.82,14.673c-1.069,1.087-2.168,2.162-3.252,3.247
		c-0.925,0.926-0.248,2.561,1.061,2.561c0.111,0,0.222,0,0.333,0c0.798,0,1.262-0.512,1.401-1.112
		c4.974-4.962,9.708-9.626,11.24-16.177c0.082,0.19,0.17,0.375,0.271,0.547c0.991,1.669,1.795,3.415,2.664,5.149
		c1.794,3.581,4.953,6.909,5.977,10.826c0.006,0.021,0.015,0.038,0.022,0.058c-1.528,1.206-3.092,2.167-4.307,2.43
		c-1.891,0.409-1.089,3.301,0.798,2.893c4.326-0.935,8.728-5.674,11.279-9.146c1.559-2.122,3.116-4.799,4.102-7.235
		c1.149-2.841,2.632-4.252,4.71-5.449c-0.187,1.317-0.308,2.668,0.064,3.782c0.92,2.759,1.624,3.401,3.151,5.692
		c0.142,0.213,0.328,0.359,0.526,0.474c-0.606,0.83-1.261,1.625-1.959,2.375c-0.38,0.409-0.439,0.863-0.439,1.394
		c0,1.935,3,1.935,3,0c0-0.008,2.187-2.49,2.462-2.885c1.179-1.689,1.943-3.638,2.67-5.551c1.014-2.669,1.465-5.197,1.736-7.77
		c0.849,1.336,1.603,2.599,1.853,4.271c0.057,0.385,0.224,0.654,0.446,0.831c-0.547,1.511-1.187,2.984-1.961,4.347
		c-0.957,1.685,1.635,3.196,2.59,1.514c1.851-3.26,2.808-6.872,3.849-10.442c0.656-2.251,0.832-4.397,0.976-6.561
		c0.445,0.828,0.908,1.642,1.486,2.306c1.265,1.452,2.669,3.177,4.304,4.235c0.03,0.019,0.059,0.029,0.089,0.046
		c-0.921,3.501-2.437,6.701-4.755,7.697c-1.773,0.762-0.243,3.345,1.514,2.59c4.322-1.857,6.385-8.621,7.11-14.283
		c0.414,0.381,0.877,0.66,1.401,0.767c0.603,0.124,1.417-0.055,1.694-0.689c0.459-1.05,0.853-2.281,1.324-3.452
		c1.288,1.985,3.156,3.6,4.457,1.389c0.264-0.448,1.743-3.181,1.321-3.551c1.434,1.256,2.66,3.016,3.64,4.613
		c1.781,2.902,5.383,4.816,7.333,7.667c0.107,0.157,0.232,0.275,0.364,0.375c-1.09,1.456-2.054,2.959-2.515,4.803
		c-0.469,1.877,2.424,2.674,2.893,0.798c0.802-3.207,4.084-7.204,6.281-9.671c2.778-3.12,4.734-7.463,7.188-10.856
		c3.35-4.633,4.411-11.165,4.752-17.351c0.596,0.766,1.251,1.528,1.933,2.333c-0.304,0.907-0.564,1.82-0.713,2.748
		c-0.302,1.892,2.589,2.704,2.893,0.798c0.112-0.704,0.305-1.388,0.532-2.064c0.566-0.375,0.937-1.139,0.699-1.872
		c0.403-1.011,0.813-2.021,1.102-3.064c0.173-0.623,0.292-1.214,0.386-1.791c0.542,2.261,0.959,4.595,1.873,6.65
		c1.005,2.261,1.846,4.45,3.035,6.631c0.854,1.568,2.097,2.865,2.91,4.441c-1.489,3.48-3.563,6.674-4.763,10.272
		c-0.614,1.841,2.284,2.623,2.893,0.798c2.599-7.796,7.684-14.789,9.335-22.998c0.915-4.548,2.131-9.037,3.702-13.402
		c1.43-3.973,2.428-8.399,4.315-12.261c1.129,3.213,1.786,6.684,3.24,9.686c1.455,3.004,3.393,5.707,5.208,8.5
		c1.893,2.912,5.556,5.889,6.64,9.142c0.609,1.826,3.506,1.043,2.893-0.798c-0.634-1.901-1.812-3.248-3.097-4.745
		c2.437-1.16,4.085-3.372,5.89-5.38c1.235-1.374,1.9-3.173,3.153-4.513c-1.662,4.213-3.211,8.453-3.838,12.97
		c-0.132,0.947,0.375,1.899,1.446,1.899c0.222,0,0.444,0,0.667,0c1.481,0,1.824-1.754,1.038-2.579
		c0.889-4.58,2.802-8.7,4.284-13.148c1.968-5.907,3.823-11.802,5.792-17.708c1.908-5.724,3.01-11.929,5.849-17.308
		c0.86-1.63,0.838-4.159,1.098-5.884c0.536-3.561,1.542-7.052,2.555-10.5c1.814-6.179,2.416-12.66,4.693-18.71
		c0.928-2.464,1.231-5.167,2.024-7.681c1.077-3.412,2.286-6.735,3.141-10.219c1.484-6.05,2.002-12.444,3.014-18.586
		c0.47-2.852,0.938-5.777,2.142-8.42c0.2-0.439,0.34-0.919,0.463-1.412c-0.567-2.777-0.966-5.326-0.974-5.383
		c-0.078-0.553-0.127-0.973-0.148-1.314c-1.61,2.756-2.036,6.482-3.07,9.372c-2.041,5.702-2.047,12.384-3.403,18.278
		c-0.628,2.73-0.646,5.561-1.318,8.302c-0.862,3.516-2.205,6.888-3.292,10.333c-2.003,6.349-3.514,12.924-4.858,19.448
		c-1.235,5.995-3.708,11.802-4.195,17.951c-0.245,3.099-1.98,6.165-3.008,9.089c-1.013,2.883-1.877,5.863-2.784,8.784
		c-1.811,5.829-3.179,11.807-5.373,17.502c-0.025,0.064-0.05,0.128-0.075,0.191c-0.772-0.613-2.097-0.531-2.373,0.701
		c-0.23,1.028-1.647,1.865-2.281,2.671c-0.929,1.182-1.539,2.576-2.488,3.749c-1.531,1.892-3.323,4.259-5.739,5.05
		c-1.954-2.58-3.7-5.349-5.405-8.076c-2.888-4.621-3.573-10.541-6.012-15.42c-0.538-1.075-2.004-0.867-2.59,0
		c-2.139,3.158-3.226,6.941-4.458,10.525c-1.718,4.997-3.402,10.061-4.651,15.208c-1.051,4.333-2.523,8.341-3.976,12.507
		c-0.575-0.788-1.163-1.568-1.622-2.443c-1.139-2.168-2.041-4.396-3.035-6.631c-1.75-3.937-1.577-8.556-4-12.167
		c-0.642-0.957-2.525-1.037-2.742,0.358c-0.339,2.182-0.05,4.25-0.667,6.42c-0.219,0.772-0.492,1.539-0.778,2.305
		c-1.603-1.882-2.942-3.774-2.942-6.659c0-1.935-2.997-1.935-3,0c-0.008,4.977-0.454,9.85-1.222,14.768
		c-0.769,4.919-3.787,8.676-6.239,12.808c-1.97,3.319-4.13,6.71-6.465,9.808c-1.395-1.934-3.15-3.852-4.932-5.371
		c-2.308-1.967-4.123-4.688-6.122-6.991c-0.727-0.837-2.186-1.623-3.276-0.985c-1.316,0.771-2.59,6.484-3.076,1.962
		c-0.165-1.537-1.875-1.978-2.795-0.757c-0.853,1.132-1.358,2.486-1.841,3.833c-0.519-1.096-1.065-2.41-1.084-2.474
		c-0.472-1.589-3.022-1.334-2.946,0.399c0.067,1.539-0.076,3.943-0.496,6.486c-1.541-1.242-2.947-3.088-4.042-4.589
		c-1.06-1.452-1.242-3.02-2.568-4.291c-1.034-0.991-2.394-0.185-2.561,1.061c-0.461,3.448-0.415,6.736-1.249,10.185
		c-0.051,0.21-0.106,0.423-0.159,0.634c-0.315-0.609-0.675-1.208-1.118-1.835c-1.118-1.582-1.446-3.687-2.346-5.407
		c-0.74-1.415-2.695-0.633-2.795,0.757c-0.158,2.191,0.211,4.184-0.248,6.377c-0.47,2.247-1.152,4.536-1.846,6.723
		c-0.301,0.949-0.694,1.859-1.148,2.737c-0.099-0.07-0.205-0.129-0.319-0.173c-0.65-0.789-1.299-1.482-1.659-2.563
		c-0.823-2.469-0.277-4.612-0.113-7.101c0.081-1.231-1.311-1.741-2.257-1.295c-3.734,1.757-6.56,3.299-8.245,7.464
		c-1.071,2.648-2.69,5.225-4.244,7.617c-0.568,0.875-1.561,2.025-2.732,3.175c-1.331-3.619-4.034-6.891-5.855-10.235
		c-1.725-3.167-2.769-7.79-5.743-10.021c-0.942-0.707-2.257,0.257-2.257,1.295c0,5.622-2.668,9.834-6.096,13.673
		c-2.02-4.811-2.51-10.235-5.911-14.442c-5.461-6.754-9.484,10.037-10.523,12.231c-5.919,12.504-16.352,22.023-26.507,31.049
		c-5.056,4.494-10.01,8.859-15.81,12.387c-5.769,3.509-11.845,6.276-17.41,10.14c-1.25,0.867-0.567,2.674,0.562,2.84
		c-0.298-0.878,0.155-2.045,1.362-2.045c0.768,0,1.537,0,2.305,0c8.221-5.232,17.162-9.131,24.676-15.503
		C23.248,217.563,32.017,209.876,39.263,200.921z"/>
	<path fill="#333333" d="M-7.999,290.39c1.844-4.301,4.515-8.41,6.48-12.719c2.341-5.132,4.849-10.082,7.757-14.915
		c2.855-4.744,5.795-9.435,8.611-14.203c2.098-3.552,3.734-7.33,5.661-10.964c0.476,2.351,0.282,5.244,0.583,7.178
		c0.357,2.3,1.11,5.135,2.757,6.895c-2.697,4.111-5.61,8.064-8.49,12.157c-0.989,0.952,0.483,2.825,1.624,1.961
		c5.771-4.373,9.555-11.792,13.069-17.952c2.11-3.699,3.844-7.526,5.453-11.458c0.813-1.986,1.742-3.962,2.454-5.983
		c1.52-4.316,3.608-2.191,5.411,0.689c0.995,1.589,4.637,15.321,8.988,19.38c-3.114,4.619-6.446,9.563-10.682,12.904
		c-0.688,0.13-1.308,0.676-1.411,1.642c-0.012,0.111-0.024,0.222-0.036,0.333c-0.146,1.367,1.601,2.164,2.663,1.528
		c5.609-3.356,9.992-10.712,13.693-16.108c0.031-0.028,0.062-0.045,0.093-0.074c0.123-0.116,0.188-0.254,0.229-0.396
		c0.005-0.007,0.01-0.014,0.014-0.021c3.113-4.483,6.402-8.895,8.834-13.749c0.018,2.751-0.318,5.658-0.138,7.846
		c0.367,4.437,1.908,8.541,3.112,12.782c1.04,3.665,3.349,13.475,8.016,14.545c-4.964,5.841-9.912,11.698-14.811,17.582
		c-0.379,0.455,0.133,1.29,0.682,0.883c8.772-6.499,15.544-15.437,22.605-23.673c5.464-6.373,12.55-12.923,17.006-20.411
		c0.723,3.986,1.944,8.619,5.035,9.882c-0.272,0.423-0.527,0.854-0.807,1.275c-3.546,5.335-8.945,9.577-12.921,14.644
		c-0.525,0.669,0.259,1.453,0.928,0.928c4.757-3.733,9.533-7.735,13.408-12.395c3.872-4.657,6.702-10.322,9.549-15.63
		c2.76-5.148,5.747-10.149,8.396-15.362c1.057-2.079,1.923-4.231,2.701-6.427c0.843-2.376,0.986-4.998,1.564-7.465
		c1.223,2.286,2.204,4.791,4.672,5.86c-2.281,3.54-4.971,6.878-7.802,9.907c-0.346,0.37-0.011,1.09,0.524,0.901
		c3.811-1.348,6.139-5.326,8.504-8.448c1.651-2.179,3.03-4.527,4.411-6.88c0.816-1.391,1.632-2.781,2.449-4.172
		c0.144-0.245,0.233-0.465,0.305-0.678c0.696,1.832,1.544,3.277,3.575,4.495c-1.192,1.84-2.43,3.647-3.52,5.558
		c-0.325,0.57,0.388,1.011,0.847,0.653c4.109-3.203,7.345-8.869,8.96-13.77c0.191-0.579,0.076-2.018,0.495-1.371
		c0.525,0.811,1.108,1.384,1.8,2.081c0.618,0.623,1.23,1.404,1.926,2.046c-0.573,1.429-1.196,2.827-1.461,4.143
		c-0.082,0.405,0.268,0.878,0.721,0.721c1.638-0.57,2.549-2.068,3.134-3.846c0.037-0.029,0.072-0.059,0.101-0.095
		c0.353,1.096,0.763,2.165,1.244,3.177c0.599,1.263,1.889,3.767,3.512,4.688c-4.486,6.064-9.222,11.988-14.294,17.363
		c-0.519,0.55,0.153,1.491,0.824,1.068c8.501-5.372,14.76-14.687,20.706-22.64c3.102-4.148,6.012-8.485,8.754-12.877
		c1.517-2.429,2.938-4.92,4.137-7.521c0.073-0.159,0.685-1.559,1.334-2.909c0.817,3.467,2.232,6.687,4.298,9.758
		c2.172,3.227,3.997,4.774,6.799,5.691c-1.832,3.707-3.888,7.292-6.213,10.559c-0.659,0.926,0.446,2.446,1.535,1.997
		c2.875-1.186,3.983-4.651,5.486-7.191c0.904-1.527,1.806-3.085,2.67-4.669c0.226-0.103,0.348-0.347,0.311-0.572
		c1.514-2.825,2.88-5.74,3.852-8.749c1.662-5.147,3.941-9.99,4.859-15.326c0.411-2.39,1.046-4.74,1.661-7.087
		c1.599,2.823,3.616,5.497,5.24,8.055c1.857,2.925,4.018,5.357,6.636,7.641c0.573,0.5,5.576,3.45,5.439,2.906
		c0.288,1.143,2.018,1.143,2.305,0c0.026-0.104,0.052-0.208,0.078-0.312c0.104-0.414,0.017-0.952-0.328-1.242
		c-2.238-1.877-4.61-3.897-6.698-6.119c0.464-0.246,0.751-0.685,0.862-1.177c0.001-0.006,0.006-0.013,0.007-0.019
		c-0.058,0.424,1.663-1.882,1.566-1.72c1.019-1.462,1.996-2.959,2.908-4.492c1.897-3.189,3.137-6.492,4.936-9.704
		c2.744-4.9,6.604-9.07,9.546-13.816c1.128,3.426,2.826,6.22,6.178,9.077c2.351,2.003,8.068,6.441,11.573,5.653
		c-1.103,3.28-2.635,6.297-4.941,8.725c-0.006,0.007-0.01,0.014-0.016,0.02c-0.108-0.33-0.221-0.659-0.322-0.99
		c-0.817-2.658-1.579-7.419-4.045-9.216c-0.422-0.307-1.15-0.28-1.575,0c-1.977,1.301-1.532,4.562-1.617,6.613
		c-0.247,5.947-2.091,11.714-3.253,17.531c-1.362,6.817-2.737,13.632-4.692,20.308c-1.951,6.664-3.791,13.672-7.49,19.6
		c-0.407,0.653,0.578,1.191,1.012,0.591c9.729-13.466,12.136-31.419,15.612-47.229c0.701-3.19,1.068-6.567,1.796-9.715
		c0.144-0.624,0.126-1.324,0.158-1.957c0.002-0.044,0.005-0.087,0.007-0.131c2.997,6.554,3.926,14.172,7.647,20.424
		c0.333,0.559,1.393,0.373,1.31-0.355c-0.53-4.673-2.332-9.084-3.889-13.524c0.33,0.071,0.695-0.003,1.015-0.314
		c4.727-4.585,6.539-10.058,7.714-16.403c1.563-8.44,3.519-16.821,5.182-25.243c0.691-3.501,1.02-6.945,1.025-10.515
		c0.001-1.083-0.027-2.153,0.007-3.234c1.785-0.217,2.963,0.574,3.534,2.372c0.419,0.564,0.891,1.085,1.413,1.562
		c5.028,5.353,8.67,12.605,15.24,16.302c0.685,0.385,1.432-0.378,1.058-1.058c-2.772-5.05-6.939-9.552-10.937-14.025
		c1.398-2.168,3.654-3.951,5.159-6.021c2.554-3.513,4.622-7.091,7.534-10.386c1.326-1.501,2.715-3.62,3.659-5.879
		c1.007-2.41,1.505-4.98,0.86-7.133c-0.128-0.426-0.539-0.531-0.86-0.384c-0.155,0.071-0.291,0.197-0.36,0.384
		c-0.997,2.695-1.278,5.721-2.752,8.216c-1.578,2.671-3.909,4.743-5.703,7.235c-2.128,2.955-3.615,6.308-6.004,9.08
		c-0.885,1.027-2.024,2.246-2.714,3.559c-1.355-1.535-2.674-3.072-3.89-4.633c-2.468-3.169-7.796-6.257-8.557-0.076
		c-0.492,3.989-0.142,7.992-0.803,11.986c-0.769,4.644-1.759,9.268-2.668,13.886c-1.106,5.617-1.602,12.35-3.338,18.386
		c-2.701-2.682-6.27-4.473-9.166-6.93c-2.099-1.782-3.602-3.91-4.924-6.299c-1.115-2.016-0.836-4.173-1.858-6.221
		c-0.944-1.892-3.454-0.768-3.622,0.981c-0.328,3.418-4.231,7.507-6.137,10.001c-2.158,2.823-4.784,5.952-6.067,9.305
		c-1.446,3.778-3.318,6.922-5.663,10.2c-0.777,1.086-1.351,2.4-2.454,3.234c-0.138,0.082-0.262,0.177-0.372,0.287
		c-0.138,0.063-0.259,0.142-0.362,0.236c-0.457-0.632-0.892-1.275-1.276-1.942c-2.481-4.308-6.55-8.878-7.354-13.884
		c-0.379-2.362-4.283-1.795-4.15,0.562c0.22,3.912-1.554,8.128-2.183,12.028c-0.761,4.718-2.301,8.857-3.881,13.343
		c-1.343,3.815-2.908,7.714-4.703,11.511c-5.314-3.63-8.516-12.773-9.026-18.215c-0.105-1.123-1.046-2.023-2.229-1.698
		c-2.833,0.778-3.699,4.872-4.942,7.149c-2.742,5.021-5.495,9.888-8.752,14.614c-2.263,3.282-4.592,6.596-6.986,9.883
		c-1.32-1.608-2.223-4.595-2.725-6.042c-0.825-2.379-1.231-5.061-1.462-7.572c-0.105-1.144-0.978-1.805-2.108-1.606
		c-0.108,0.011-0.212,0.037-0.311,0.08c-0.794,0.27-1.374,1.087-1.105,1.947c0.459,1.469,0.221,2.979-0.253,4.478
		c-2.018-2.715-5.039-6.954-6.079-4.587c-1.034,2.352-1.485,4.807-2.697,7.169c-0.396,0.772-0.829,1.517-1.275,2.254
		c-1.826-2.151-2.177-4.547-3.056-7.133c-0.412-1.212-2.045-1.516-2.741-0.358c-2.104,3.498-3.454,7.503-5.465,11.118
		c-0.268,0.482-0.549,0.958-0.834,1.434c-2.347-2.374-3.026-5.863-5.081-8.454c-0.527-0.665-1.863-0.494-2.204,0.284
		c-2.083,4.75-2.168,10.045-4.384,14.87c-2.389,5.2-5.439,10.152-8.341,15.072c-2.472,4.191-4.772,8.434-7.314,12.565
		c-3.102-3.234-2.976-9.671-3.84-13.566c-0.389-1.754-2.589-1.345-3.151,0c-1.726,4.132-5.28,8.349-8.068,11.791
		c-3.306,4.082-6.904,7.946-10.32,11.937c-1.834,2.142-3.657,4.298-5.485,6.447c-2.949-6.281-4.961-13.069-6.901-19.734
		c-1.373-4.716-1.397-9.482-1.357-14.34c0.025-2.988,0.275-5.367-1.225-8.014c-0.866-1.53-3.207-1.174-3.674,0.48
		c-1.897,6.725-5.657,12.186-9.642,17.826c-0.279,0.395-0.558,0.797-0.838,1.204c-2.475-2.951-4.806-11.809-5.243-13.222
		c-1.133-3.659-4.655-12.961-10.078-11.469c-2.073,0.57-2.868,2.69-3.571,4.471c-1.774,4.491-3.217,9.094-5.297,13.467
		c-1.346,2.831-2.868,5.496-4.485,8.084c-2.262-5.312,0.31-12.424-3.306-17.094c-0.744-0.961-2.254-0.507-2.815,0.363
		c-2.859,4.426-4.901,9.338-7.302,14.018c-2.794,5.447-6.276,10.614-9.389,15.884c-2.867,4.853-5.167,9.96-7.462,15.101
		c-1.017,2.278-3.231,5.634-4.784,8.844c-0.964,1.993-1.675,3.929-1.682,5.516c-0.002,0.432,1.151-0.019,2.14-0.606
		C-8.707,291.131-8.125,290.684-7.999,290.39z"/>
	<path fill="#2A5414" d="M253.091,20.011c0.554,2.714,1.27,5.645,1.94,6.677l-0.077,0.021c0.383,1.422,0.912,3.066,1.923,4.486
		c0.529,0.744,1.226,1.028,2.173,0.895c0.537-0.079,1.009-0.291,1.429-0.643c0.549,2.076,1.331,4.351,3.204,5.294
		c0.81,0.409,1.658,0.302,2.366-0.299c0.439-0.372,0.883-1.463,1.21-2.435c1.498,2.092,3.244,4.193,5.314,6.396
		c0.359,0.382,0.856,0.592,1.4,0.592c0.731,0,1.404-0.379,1.754-0.989c0.578-1.008,1.022-2.013,1.452-2.985
		c0.588-1.331,1.15-2.604,1.994-3.724c0.517,3.845,1.435,7.687,4.321,8.481c1.207,0.331,2.589-0.237,3.489-1.409l1.087-1.422
		c0.921-1.208,1.869-2.451,2.843-3.664c1.911,3.743,4.184,7.352,6.757,7.352c1.24,0,2.38-0.843,3.387-2.506
		c0.3-0.495,0.548-1.44,0.861-2.637c0.491-1.872,1.312-5.005,2.359-5.005c0.21,0,0.459,0.127,0.742,0.377
		c1.613,1.429,2.575,3.414,3.593,5.516c1.047,2.157,2.128,4.389,3.992,6.054c0.38,0.34,0.905,0.534,1.441,0.534
		c0.951,0,1.71-0.591,1.889-1.47c0.435-2.139,0.665-4.327,0.725-6.887l0.006-0.388c0.05-4.374,0.478-5.146,0.576-5.263
		c0.002,0.001,0.153,0.05,0.449,0.479c0.226,0.327,0.479,0.771,0.762,1.268c1.166,2.04,2.763,4.835,5.109,4.835
		c0.264,0,0.531-0.037,0.796-0.109c2.438-0.671,2.566-4.095,2.635-5.934L327,31.352c0.009-0.248,0.016-0.537,0.023-0.846
		c0.019-0.764,0.053-2.175,0.182-2.914c0.097,0.183,0.224,0.452,0.381,0.849c0.647,1.633,1.545,3.17,2.413,4.656
		c0.432,0.74,0.864,1.479,1.266,2.229c0.339,0.636,0.937,1,1.639,1c0.893,0,1.721-0.588,2.015-1.429l0-0.001
		c1.064-3.042,0.904-8.796,0.353-13.825c-0.466-4.254-1.213-7.991-1.738-9.126l0.013-0.003C331.91,4.102,311.826,0,292.833,0
		c-19.636,0-39.861,4.265-40.786,12.418c-0.087,0.182-0.105,0.475-0.078,0.897c0.021,0.341,0.07,0.76,0.148,1.314
		C252.126,14.685,252.524,17.235,253.091,20.011z M253.029,12.66C253.647,5.086,273.999,1,292.833,1
		c18.134,0,38.222,3.906,39.734,11.146l0.047,0.224l0.064,0.036c0.524,1.516,3.449,16.007,1.296,22.161
		c-0.154,0.439-0.604,0.759-1.071,0.759c-0.23,0-0.549-0.082-0.757-0.471c-0.407-0.762-0.846-1.513-1.284-2.264
		c-0.849-1.454-1.727-2.958-2.347-4.521c-0.524-1.32-0.907-1.812-1.412-1.812c-0.89,0-1.008,1.222-1.08,4.223
		c-0.007,0.303-0.014,0.587-0.023,0.831l-0.005,0.148c-0.06,1.584-0.17,4.531-1.901,5.007c-1.984,0.545-3.624-2.249-4.771-4.257
		c-0.3-0.524-0.568-0.992-0.806-1.338c-0.269-0.391-0.691-0.911-1.252-0.911c-1.112,0-1.546,1.694-1.598,6.249l-0.006,0.376
		c-0.058,2.499-0.282,4.632-0.705,6.711c-0.1,0.493-0.535,0.669-0.908,0.669c-0.293,0-0.576-0.102-0.775-0.28
		c-1.716-1.533-2.754-3.674-3.758-5.744c-1.017-2.098-2.068-4.267-3.831-5.827c-0.47-0.417-0.943-0.629-1.405-0.629
		c-1.819,0-2.62,3.056-3.327,5.751c-0.27,1.029-0.524,2.001-0.75,2.373c-0.813,1.343-1.665,2.023-2.531,2.023
		c-2.48,0-5.094-5.249-6.21-7.49l-0.345-0.692l-0.49,0.599c-1.157,1.413-2.272,2.875-3.351,4.29l-1.085,1.419
		c-0.493,0.64-1.49,1.315-2.43,1.054c-2.786-0.767-3.403-5.966-3.735-8.759l-0.124-1.041l-0.731,0.751
		c-1.394,1.431-2.127,3.093-2.905,4.853c-0.419,0.948-0.852,1.929-1.404,2.891c-0.292,0.509-1.157,0.637-1.558,0.21
		c-2.311-2.458-4.209-4.784-5.803-7.111l-0.596-0.871l-0.296,1.013c-0.483,1.65-0.981,2.742-1.204,2.931
		c-0.403,0.341-0.818,0.397-1.27,0.17c-1.741-0.877-2.392-3.465-2.915-5.545l-0.265-1.055l-0.628,0.888
		c-0.406,0.575-0.858,0.881-1.42,0.963c-0.54,0.083-0.898-0.04-1.214-0.484c-0.919-1.291-1.412-2.831-1.771-4.166l-0.054-0.428
		l-0.21,0.028c-0.711-1.583-2.716-11.238-2.707-13.031L253.029,12.66z"/>
	<path fill="#427228" d="M257.295,23.723l0.187,0.766c0.242,1.002,0.492,2.038,0.865,3.029l0.404,1.075l0.511-1.028
		c0.294-0.593,0.616-1.225,0.781-1.549c0.04-0.078,0.074-0.146,0.101-0.207l0.002,0.001c0,0,0-0.001,0-0.001
		c0.151-0.283,0.499-0.467,0.886-0.467c0.14,0,0.612,0.032,0.811,0.449c0.282,0.594,0.528,1.635,0.789,2.737
		c0.347,1.468,0.74,3.132,1.347,4.272l0.594,1.116l0.33-1.222c0.113-0.421,0.169-0.853,0.223-1.27
		c0.174-1.342,0.333-2.114,1.58-2.384c0.483-0.102,0.926,0.068,1.16,0.458c1.395,2.325,3.171,4.692,5.431,7.238l0.494,0.557
		l0.329-0.668c0.207-0.42,0.404-0.835,0.598-1.244c1.309-2.757,2.439-5.138,5.446-6.914c0.448-0.266,1.347-0.08,1.457,0.551
		c0.305,1.765,0.643,3.564,1.002,5.347c0.022,0.112,0.048,0.261,0.078,0.434c0.313,1.813,0.653,3.313,1.655,3.313
		c0.62,0,1.033-0.672,1.169-0.894c1.115-1.813,2.483-3.334,3.931-4.944c0.398-0.443,0.797-0.888,1.193-1.34
		c0.204-0.233,0.494-0.268,0.649-0.268c0.379,0,0.737,0.191,0.89,0.478c0.421,0.785,0.788,1.614,1.176,2.491
		c0.638,1.444,1.299,2.938,2.218,4.208c0.697,0.963,1.299,1.411,1.896,1.411c1.242,0,1.635-1.817,1.982-3.42
		c0.053-0.246,0.104-0.483,0.156-0.701c0.066-0.276,0.129-0.571,0.194-0.878c0.355-1.659,0.796-3.724,2.16-4.589
		c0.677-0.429,1.321-0.637,1.969-0.637c2.988,0,5.529,4.633,7.572,8.356c0.372,0.68,0.732,1.337,1.082,1.943l0.808,1.401
		l0.124-1.613c0.093-1.194,0.138-2.502,0.144-4.117c0.003-0.934,0.242-1.867,0.496-2.854c0.244-0.953,0.497-1.938,0.528-2.946
		c0.025-0.832,0.4-1.897,1.376-2.165c1.288-0.354,2.308,0.538,3.297,1.58c0.558,0.588,0.939,1.313,1.344,2.079
		c0.269,0.51,0.546,1.036,0.882,1.524c1.156,1.682,1.371,1.952,1.763,1.952l0.25-0.015l0.148-0.158
		c0.198-0.212,0.182-0.472,0.153-0.901c-0.018-0.281-0.04-0.632-0.007-0.986c0.017-0.184,0.033-0.45,0.053-0.779
		c0.121-2.011,0.487-8.129,2.766-8.129c0.155,0,0.322,0.027,0.498,0.081c1.066,0.325,1.857,1.131,2.489,2.534
		c0.734,1.629,1.562,3.201,2.273,4.525l0.74,1.376l0.196-1.551c0.464-3.669,0.165-8.223-0.887-13.533l-0.191-0.968l-0.667,0.727
		C326.515,21.461,310.751,25,292.833,25c-14.474,0-31.784-2.503-37.829-8.096l-0.978-0.905l0.142,1.325
		c0.152,1.427,0.414,2.732,0.799,3.986c0.12,0.407,0.252,0.812,0.384,1.215l0.22,0.675l0.461-0.129
		C256.488,22.946,257.131,23.068,257.295,23.723z M255.331,18.47c6.967,5.193,23.558,7.53,37.503,7.53
		c14.793,0,32.066-2.56,38.387-8.255c0.747,4.05,1.032,7.618,0.852,10.645c-0.488-0.939-0.992-1.95-1.457-2.981
		c-0.759-1.686-1.747-2.665-3.108-3.081c-0.271-0.082-0.537-0.124-0.791-0.124c-3.22,0-3.601,6.355-3.764,9.069
		c-0.019,0.314-0.034,0.57-0.051,0.745c-0.01,0.105-0.016,0.21-0.019,0.312c-0.176-0.249-0.347-0.499-0.469-0.676
		c-0.303-0.44-0.555-0.918-0.821-1.424c-0.418-0.793-0.851-1.613-1.503-2.301c-0.949-1.001-1.995-1.978-3.422-1.978
		c-0.284,0-0.575,0.04-0.866,0.12c-1.234,0.34-2.063,1.556-2.11,3.099c-0.027,0.898-0.255,1.787-0.497,2.729
		c-0.258,1.004-0.524,2.042-0.527,3.1c-0.003,0.871-0.017,1.635-0.044,2.341c-0.078-0.143-0.157-0.287-0.237-0.433
		c-2.282-4.16-4.868-8.875-8.448-8.875c-0.832,0-1.675,0.267-2.504,0.793c-1.718,1.089-2.208,3.382-2.603,5.224
		c-0.063,0.299-0.125,0.586-0.189,0.854c-0.054,0.225-0.106,0.469-0.161,0.722c-0.17,0.788-0.569,2.632-1.005,2.632
		c-0.061,0-0.397-0.048-1.084-0.997c-0.858-1.186-1.497-2.63-2.114-4.026c-0.378-0.855-0.77-1.74-1.208-2.56
		c-0.328-0.61-1.023-1.005-1.771-1.005c-0.561,0-1.058,0.216-1.402,0.609c-0.393,0.449-0.789,0.89-1.184,1.329
		c-1.414,1.573-2.876,3.2-4.039,5.09c-0.162,0.263-0.273,0.365-0.287,0.406c-0.217-0.202-0.452-1.034-0.701-2.474
		c-0.032-0.183-0.059-0.341-0.083-0.46c-0.358-1.774-0.694-3.563-0.998-5.32c-0.244-1.408-1.989-1.811-2.951-1.241
		c-3.271,1.933-4.519,4.563-5.84,7.347c-0.087,0.184-0.175,0.369-0.265,0.556c-1.984-2.285-3.567-4.425-4.826-6.523
		c-0.452-0.755-1.329-1.114-2.229-0.921c-1.682,0.362-2.09,1.521-2.273,2.622c-0.233-0.768-0.432-1.607-0.616-2.389
		c-0.273-1.156-0.531-2.247-0.859-2.938c-0.299-0.629-0.956-1.02-1.714-1.02c-0.648,0-1.234,0.274-1.596,0.733l-0.172,0.263
		c-0.001,0.001-0.001,0.002-0.002,0.004h0v0.001l0.298,0.157l-0.303-0.148l-0.106,0.21c-0.062,0.121-0.145,0.285-0.24,0.474
		c-0.17-0.591-0.315-1.192-0.458-1.781l-0.189-0.773c-0.225-0.899-1.056-1.501-2.023-1.448c-0.108-0.334-0.216-0.669-0.317-1.01
		C255.672,20.201,255.476,19.358,255.331,18.47z"/>
</g>
</svg>
