<?xml version="1.0" encoding="utf-8"?>
<!-- Generator: Adobe Illustrator 17.0.0, SVG Export Plug-In . SVG Version: 6.00 Build 0)  -->
<!DOCTYPE svg PUBLIC "-//W3C//DTD SVG 1.1//EN" "http://www.w3.org/Graphics/SVG/1.1/DTD/svg11.dtd">
<svg version="1.1" id="Layer_1" xmlns="http://www.w3.org/2000/svg" xmlns:xlink="http://www.w3.org/1999/xlink" x="0px" y="0px"
	 width="13.741px" height="30.751px" viewBox="0 0 13.741 30.751" enable-background="new 0 0 13.741 30.751" xml:space="preserve">
<g>
	<path fill="#9CA2A4" d="M11.773,23.01C11.773,23.01,11.773,23.01,11.773,23.01c-0.002-0.003-0.002-0.003-0.002-0.005
		c-0.106-0.413-0.168-0.832-0.166-1.253c-0.199,0.106-0.397,0.188-0.598,0.274c-0.003,0.001-0.006,0.003-0.009,0.004
		c0.027,0.26,0.1,0.518,0.213,0.712C11.33,22.948,11.551,23.011,11.773,23.01z"/>
	<path fill="#B3A5B7" d="M7.861,9.913C7.842,9.845,7.825,9.777,7.808,9.708C7.79,9.621,7.772,9.532,7.756,9.44
		C7.698,9.065,7.679,8.663,7.691,8.234c0.002-0.137,0.01-0.275,0.019-0.416c0.037-0.621,0.122-1.295,0.215-2.028
		c0.032-0.246,0.063-0.497,0.093-0.754C8.027,4.958,8.037,4.879,8.045,4.8C8.05,4.761,8.055,4.722,8.058,4.684
		c0.008-0.051-0.036,0.094-0.052,0.139C7.972,4.917,7.94,5.012,7.908,5.105l0,0.002C7.901,5.128,7.894,5.149,7.888,5.17
		C7.863,5.249,7.838,5.329,7.81,5.409C7.435,6.627,7.307,7.727,7.304,8.576C7.303,8.7,7.305,8.82,7.309,8.932
		c0.017,0.443,0.07,0.8,0.136,1.041c0.012,0.046,0.025,0.087,0.038,0.125c0.026-0.004,0.052-0.008,0.079-0.012
		c0.064-0.011,0.129-0.018,0.195-0.023c0.048-0.005,0.098-0.008,0.147-0.011C7.889,10.006,7.874,9.96,7.861,9.913L7.861,9.913z"/>
	<path fill="#AFBABE" d="M0.805,17.853c-0.131-0.097-0.174-0.089-0.174-0.089c-0.2,0.528,0.206,1.972,0.283,2.226
		c0.888,0.41,2.142,1.328,2.858,2.2c-0.469-1.085-1.292-2.377-2.001-3.29C1.392,18.41,1.045,18.028,0.805,17.853z"/>
	<path fill="#736E61" d="M4.437,2.371c0.429-0.305,0.872-0.458,1.281-0.455C5.203,1.566,4.501,1.64,3.827,2.119
		C2.661,2.947,1.802,4.76,2.057,6.898c0,0.002,0.002,0.004,0.002,0.004C2.191,7.447,2.433,7.949,2.8,8.361
		C2.063,5.715,3.035,3.367,4.437,2.371z"/>
	<path fill="#E4F1FB" d="M4.154,23.451L4.154,23.451c-0.002,0-0.002,0-0.002-0.002v-0.002C4.15,23.444,4.15,23.442,4.15,23.439
		c-0.002-0.005-0.004-0.013-0.004-0.02c0-0.004,0-0.007,0-0.011c0.02-0.149-0.021-0.32-0.109-0.505
		c-0.46-0.965-2.194-2.294-3.252-2.772c-0.166-0.077-0.317-0.131-0.442-0.159c-0.106-0.025-0.286-0.052-0.319,0.043
		c-0.122,0.37,0.19,1.899,1.165,3.028c0.557,0.643,1.512,1.355,2.933,1.135C4.095,23.927,4.107,23.684,4.154,23.451z"/>
	<polygon fill="#008AC1" points="4.177,23.485 4.177,23.485 4.168,23.475 	"/>
	<path fill="#9CA2A4" d="M7.923,29.723c0.052-0.286-0.29-0.723-0.424-0.954c-0.472-0.814-0.75-1.593-0.959-2.509
		c-0.15,0.045-0.304,0.079-0.464,0.1c0.183,0.791,0.417,1.559,0.687,2.327c0.14,0.397,0.297,0.784,0.501,1.153
		c0.018,0.032,0.039,0.068,0.063,0.104C7.497,29.907,7.902,29.843,7.923,29.723z"/>
	<polygon fill="#008AC1" points="9.568,20.561 9.561,20.57 9.568,20.561 	"/>
	<path fill="#969FA5" d="M2.817,18.862c-0.347-0.521-0.549-0.694-0.621-0.732c-0.17,0.315-0.231,0.639-0.242,0.696
		c0.884,1.144,1.904,2.839,2.255,4.027c0,0.002,0.002,0.005,0.002,0.009c0.004,0.009,0.009,0.016,0.011,0.025
		C4.276,21.654,3.578,20.004,2.817,18.862z"/>
	<path fill="#008AC1" d="M4.267,24.18L4.267,24.18c-0.009-0.006-0.019-0.011-0.029-0.013C4.248,24.169,4.258,24.174,4.267,24.18z"/>
	<polygon fill="#008AC1" points="4.208,23.503 4.213,23.507 4.208,23.503 	"/>
	<path fill="#008AC1" d="M4.159,23.464c0.002,0.005,0.005,0.009,0.009,0.014C4.165,23.473,4.163,23.469,4.159,23.464L4.159,23.464z"
		/>
	<path fill="#9CA2A4" d="M11.007,20.001c0.125-0.107,0.27-0.227,0.43-0.317c-0.229-0.149-0.483-0.113-0.728,0.011
		c-0.002-0.002-0.002-0.002-0.002,0c-0.367,0.245-0.653,0.573-0.934,0.907c0.082,0.177,0.157,0.354,0.218,0.535
		C10.321,20.752,10.622,20.335,11.007,20.001z"/>
	<path fill="#777D7F" d="M7.861,10.234c-0.068,0.004-0.136,0.009-0.202,0.018c-0.032,0.004-0.064,0.009-0.095,0.014
		c-0.064,0.009-0.127,0.019-0.19,0.031c-0.018-0.037-0.036-0.077-0.052-0.123c-0.005-0.014-0.009-0.031-0.014-0.046
		C7.232,9.909,7.174,9.603,7.143,9.221C7.136,9.116,7.13,9.007,7.127,8.891c-0.02-0.615,0.028-1.372,0.183-2.203
		c0.078-0.43,0.187-0.879,0.326-1.34c0-0.002,0-0.002,0-0.002c0.007-0.021,0.013-0.042,0.02-0.064
		c0.008-0.019,0.014-0.038,0.018-0.058C7.689,5.189,7.7,5.151,7.711,5.116C7.717,5.1,7.722,5.084,7.725,5.068
		c0.01-0.028,0.018-0.056,0.028-0.084c0.066-0.195,0.139-0.392,0.217-0.589C7.955,4.399,7.936,4.404,7.918,4.41
		c-0.209,0.069-0.45,0.195-0.708,0.37c-0.084,0.057-0.17,0.119-0.258,0.184C6.38,5.406,5.749,6.07,5.207,6.898
		c-0.471,0.724-1.102,1.923-1.231,3.327c-0.061,0.654-0.006,1.357,0.217,2.072c0.025,0.07,0.052,0.142,0.08,0.212
		c-0.039,0.066-0.075,0.132-0.107,0.2c-0.079,0.152-0.147,0.31-0.206,0.471c-0.177,0.483-0.274,1.004-0.274,1.548
		c0,2.486,2.102,3.824,4.588,3.824c1.987,0,3.654-1.883,3.658-1.89c0.122-0.261,0.497-0.552,1.073-2.465
		c0.314-1.044,0.07-2.781-1.253-2.518c-0.013,0.003-0.11,0.055-0.168,0.084c-0.02,0.01-0.036,0.018-0.041,0.019
		c-0.051,0.012-0.051-0.038-0.029-0.098c-0.824-0.899-2.008-1.464-3.32-1.464c-0.031,0-0.061,0.001-0.092,0.002
		c-0.046,0.001-0.092,0.003-0.138,0.005C7.931,10.229,7.895,10.231,7.861,10.234z"/>
	<path fill="#C5D1D7" d="M9.573,22.752c0.285-0.433,0.786-0.657,1.281-0.863c0.047-0.02,0.093-0.039,0.14-0.057
		c0.217-0.089,0.43-0.179,0.617-0.286c0.013-0.226,0.045-0.451,0.1-0.675c0.027-0.111,0.199-0.064,0.172,0.048
		c-0.055,0.226-0.088,0.456-0.097,0.689c-0.023,0.406,0.02,0.816,0.12,1.208c0.018,0.068,0.039,0.125,0.066,0.177
		c0.03,0.064,0.068,0.116,0.113,0.159c0.251,0.249,0.675,0.186,1.06,0.086c0.209-0.055,0.625-0.138,0.594-0.433
		c-0.02-0.193-0.093-0.379-0.177-0.555c-0.143-0.299-0.319-0.583-0.455-0.884c-0.215-0.476-0.566-1.817-1.31-1.639
		c-0.027,0.004-0.054,0.013-0.082,0.023c-0.007,0.002-0.012,0.005-0.02,0.009c-0.029,0.009-0.055,0.021-0.082,0.032
		c-0.007,0.004-0.014,0.007-0.021,0.011c-0.349,0.161-0.634,0.431-0.897,0.734c-0.378,0.435-0.711,0.936-1.124,1.28
		c-0.088,0.073-0.215-0.054-0.127-0.127c0.147-0.122,0.281-0.256,0.408-0.396c-0.055-0.183-0.125-0.362-0.206-0.539
		c-0.027-0.061-0.055-0.122-0.086-0.184c-0.292-0.607-0.657-1.199-0.768-1.849c-0.004-0.023,0-0.045,0.011-0.063
		C8.605,18.687,8.401,18.7,8.195,18.7c-0.165,0-0.326-0.009-0.485-0.027c0,0.007,0.002,0.014,0.002,0.023
		c0,0.571-0.059,1.158-0.363,1.657c-0.294,0.48-0.641,0.662-1.126,0.9c-0.85,0.419-1.647,1.194-1.876,2.123
		c-0.066,0.272-0.084,0.557-0.041,0.85c0,0.002,0,0.002,0,0.004c0.002,0.002,0.002,0.005,0.002,0.009
		c0.002,0.004,0.002,0.007,0.002,0.013c0,0.013-0.002,0.023-0.005,0.034c-0.1,0.356-0.095,0.753-0.102,1.122
		c-0.011,0.571-0.004,1.144,0.018,1.715c0.036,0.979,0.041,2.019,0.256,2.98c0.107,0.481,0.644,0.481,1.038,0.557
		c0.354,0.066,0.791,0.149,1.145,0.039c0.175-0.055,0.503-0.224,0.594-0.406c0.025-0.052-0.002-0.125-0.041-0.195
		c-0.036-0.064-0.081-0.127-0.102-0.166c-0.607-1.113-0.954-2.398-1.231-3.628c-0.016-0.075,0.054-0.12,0.111-0.109c0,0,0,0,0.002,0
		c0.005-0.002,0.013-0.004,0.02-0.004c0.95-0.107,1.813-0.728,2.459-1.403c0.548-0.571,1.054-1.244,1.299-2.006
		c-0.016,0.02-0.029,0.039-0.043,0.061C9.665,22.938,9.509,22.848,9.573,22.752z"/>
	<path fill="#9D9682" d="M8.191,4.166c0,0,0.001,0,0.001,0C8.213,3.147,8.105,2.2,7.788,1.471C7.618,1.084,7.396,0.773,7.121,0.54
		c-0.002,0-0.002-0.002-0.002-0.002C6.99,0.426,6.847,0.333,6.694,0.259C6.524,0.173,6.338,0.11,6.141,0.071
		C4.432-0.275,2.843,0.66,1.891,2.573c-0.848,1.703-1.019,4.03,0.196,5.392C1.988,7.61,1.921,7.26,1.88,6.917
		C1.769,5.974,1.867,5.092,2.111,4.323C2.44,3.291,3.028,2.466,3.723,1.972c0.574-0.408,1.172-0.544,1.683-0.397
		c0.004,0,0.007,0,0.011,0.002c0.182,0.04,0.335,0.119,0.462,0.235C5.882,1.813,5.887,1.817,5.891,1.82
		C5.898,1.826,5.904,1.833,5.909,1.84c0.033,0.033,0.066,0.069,0.095,0.106C6.017,1.963,6.032,1.981,6.045,2
		c0.037,0.051,0.07,0.104,0.101,0.163C6.148,2.167,6.148,2.168,6.15,2.172c0.349,0.664,0.367,1.785,0.301,2.976
		c0.203-0.185,0.407-0.351,0.605-0.49C7.139,4.601,7.22,4.547,7.299,4.501c0.239-0.145,0.468-0.247,0.675-0.298
		c0.032-0.009,0.099-0.019,0.151-0.027c-0.003,0-0.007-0.002-0.01-0.001C8.131,4.172,8.146,4.171,8.16,4.171
		C8.164,4.17,8.168,4.169,8.171,4.169l0-0.001C8.177,4.167,8.185,4.167,8.191,4.166z"/>
	<path fill="#008AC1" d="M7.833,8.95C7.826,8.964,7.817,8.979,7.808,8.992C7.817,8.979,7.826,8.964,7.833,8.95L7.833,8.95z"/>
	<path fill="#727273" d="M5.878,1.096C5.889,1.104,5.9,1.115,5.909,1.124C5.904,1.117,5.898,1.11,5.891,1.104
		C5.887,1.101,5.882,1.097,5.878,1.096z"/>
	<path fill="#727273" d="M4.222,22.9c0-0.004,0-0.009,0-0.012v0c-0.002-0.009-0.007-0.016-0.011-0.025
		C4.217,22.875,4.22,22.888,4.222,22.9z"/>
	<path fill="#A8A8A8" d="M4.159,23.464L4.159,23.464c0.004,0.005,0.005,0.009,0.009,0.014C4.165,23.473,4.161,23.469,4.159,23.464z
		 M4.177,23.485c-0.004-0.003-0.006-0.007-0.009-0.011C4.171,23.478,4.174,23.483,4.177,23.485L4.177,23.485z M4.208,23.503
		L4.208,23.503c0.002,0.002,0.004,0.004,0.005,0.004C4.211,23.507,4.209,23.505,4.208,23.503z M4.267,24.18
		c-0.009-0.006-0.019-0.011-0.029-0.013C4.248,24.169,4.258,24.174,4.267,24.18L4.267,24.18z"/>
</g>
<path fill="none" stroke="#515659" stroke-width="0.1" stroke-linecap="round" stroke-miterlimit="10" d="M10.941,14.863
	c0.257,0.583,0.945,0.843,1.539,0.581"/>
<path fill="none" stroke="#515659" stroke-width="0.1" stroke-linecap="round" stroke-miterlimit="10" d="M11.899,12.053
	c-0.045,0.134,0.145-0.369,0.38,0"/>
<g>
	<path fill="#FFFFFF" d="M9.603,13.604c0.101-0.117,0.214-0.228,0.327-0.346c0.116-0.116,0.245-0.219,0.374-0.302
		c0.079-0.05,0.158-0.089,0.234-0.123c-0.007-0.501-0.277-1.067-0.769-1.502c-0.779-0.69-1.819-0.789-2.322-0.221
		c-0.503,0.568-0.279,1.588,0.501,2.278c0.429,0.38,0.936,0.579,1.39,0.588c0.007-0.012,0.011-0.023,0.018-0.035
		C9.419,13.836,9.501,13.718,9.603,13.604z"/>
	<path fill="#868686" d="M10.978,12.695c-0.07,0.012-0.17,0.031-0.286,0.071c-0.045,0.016-0.094,0.037-0.143,0.059
		c-0.076,0.034-0.154,0.073-0.234,0.123c-0.129,0.083-0.258,0.186-0.374,0.302c-0.113,0.118-0.226,0.229-0.327,0.346
		c-0.102,0.114-0.184,0.232-0.246,0.338C9.36,13.947,9.356,13.957,9.35,13.97c-0.051,0.091-0.086,0.174-0.104,0.235
		c-0.021,0.068-0.027,0.108-0.027,0.108s0.012-0.039,0.04-0.104c0.025-0.062,0.076-0.144,0.138-0.238
		c0.003-0.004,0.005-0.008,0.008-0.012c-0.095,0.14,0.044-0.08,0.258-0.318c0.098-0.112,0.223-0.22,0.329-0.34
		c0.171-0.177,0.372-0.322,0.556-0.421c0.055-0.029,0.108-0.056,0.159-0.077c0.11-0.048,0.206-0.078,0.274-0.096
		c0.069-0.016,0.108-0.026,0.108-0.026S11.048,12.686,10.978,12.695z"/>
</g>
<ellipse transform="matrix(0.6628 -0.7488 0.7488 0.6628 -5.8233 10.9908)" fill="#4169B1" cx="9.291" cy="11.961" rx="0.798" ry="1.095"/>
<path fill="#FFFFFF" d="M9.43,11.09c-0.053,0.175-0.292,0.258-0.532,0.185S8.506,11,8.559,10.825"/>
<ellipse transform="matrix(0.6628 -0.7488 0.7488 0.6628 -6.2422 11.4123)" fill="#FFFFFF" cx="9.55" cy="12.637" rx="0.128" ry="0.175"/>
<path fill="#727273" d="M5.878,1.096C5.889,1.104,5.9,1.115,5.909,1.124C5.904,1.117,5.898,1.11,5.891,1.104
	C5.887,1.101,5.882,1.097,5.878,1.096z"/>
<path fill="#9D9682" d="M1.236,5.82c0.069,0.808,0.333,1.564,0.851,2.145C1.988,7.61,1.921,7.26,1.88,6.917
	c-0.039-0.332-0.051-0.655-0.041-0.97C1.786,5.945,1.734,5.944,1.678,5.935C1.53,5.913,1.38,5.871,1.236,5.82z"/>
<path fill="#B7B09E" d="M4.911,1.057c0.027-0.378,0.171-0.784,0.328-1.048C5.092,0.017,4.946,0.037,4.803,0.066
	C4.664,0.293,4.516,0.678,4.49,1.054C4.479,1.207,4.487,1.4,4.555,1.575c0.133-0.033,0.263-0.051,0.391-0.054
	C4.912,1.382,4.899,1.227,4.911,1.057z"/>
<path fill="#B7B09E" d="M1.222,5.193c-0.005,0.144-0.004,0.288,0.002,0.43c0.151,0.06,0.315,0.11,0.48,0.134
	C1.748,5.765,1.797,5.77,1.848,5.773c0.009-0.143,0.022-0.284,0.04-0.423C1.838,5.346,1.791,5.346,1.74,5.338
	C1.566,5.312,1.388,5.259,1.222,5.193z"/>
<path fill="#B7B09E" d="M1.978,2.412C1.949,2.466,1.919,2.517,1.891,2.573c-0.031,0.062-0.059,0.127-0.088,0.19
	c0.181,0.162,0.424,0.33,0.684,0.432c0.034,0.013,0.071,0.026,0.109,0.038c0.077-0.13,0.159-0.252,0.244-0.369
	c-0.073-0.018-0.148-0.04-0.224-0.07C2.388,2.704,2.164,2.562,1.978,2.412z"/>
<path fill="#9D9682" d="M4.311,1.041c0.023-0.322,0.13-0.664,0.259-0.922C3.581,0.391,2.704,1.127,2.063,2.252
	c0.172,0.143,0.389,0.285,0.619,0.376c0.081,0.032,0.176,0.062,0.277,0.08c0.232-0.291,0.489-0.54,0.763-0.735
	c0.219-0.155,0.441-0.271,0.66-0.346C4.32,1.459,4.295,1.262,4.311,1.041z"/>
<path fill="#9D9682" d="M1.727,2.935c-0.273,0.648-0.45,1.363-0.497,2.07c0.166,0.07,0.352,0.129,0.537,0.156
	c0.045,0.007,0.094,0.011,0.145,0.014c0.047-0.296,0.114-0.582,0.2-0.853c0.106-0.334,0.243-0.644,0.398-0.931
	C2.48,3.382,2.451,3.373,2.422,3.362C2.17,3.262,1.923,3.102,1.727,2.935z"/>
<path fill="#B7B09E" d="M8.156,3.05C8.138,2.856,8.111,2.669,8.079,2.487c-0.37-0.031-0.944,0.029-1.44,0.24
	c-0.083,0.035-0.173,0.08-0.263,0.134c0.043,0.22,0.071,0.46,0.087,0.715c0.132-0.101,0.287-0.19,0.464-0.265
	C7.315,3.145,7.773,3.062,8.156,3.05z"/>
<path fill="#9D9682" d="M6.475,3.802C6.49,4.224,6.477,4.68,6.451,5.148c0.203-0.185,0.407-0.351,0.605-0.49
	C7.139,4.601,7.22,4.547,7.299,4.501c0.239-0.145,0.468-0.247,0.675-0.298c0.032-0.009,0.099-0.019,0.151-0.027
	c-0.003,0-0.007-0.002-0.01-0.001C8.131,4.172,8.146,4.171,8.16,4.171C8.164,4.17,8.168,4.169,8.171,4.169l0-0.001
	c0.006-0.001,0.013-0.001,0.019-0.001c0,0,0.001,0,0.001,0C8.198,3.845,8.19,3.531,8.169,3.229C7.82,3.238,7.385,3.31,6.997,3.475
	C6.831,3.546,6.637,3.653,6.475,3.802z"/>
<path fill="#9D9682" d="M8.045,2.306c-0.063-0.3-0.147-0.581-0.257-0.835C7.618,1.084,7.396,0.773,7.121,0.54
	c-0.002,0-0.002-0.002-0.002-0.002C6.99,0.426,6.847,0.333,6.694,0.259C6.524,0.173,6.338,0.11,6.141,0.071
	C5.91,0.024,5.682,0.003,5.457,0.002C5.306,0.207,5.12,0.643,5.09,1.069C5.08,1.204,5.085,1.37,5.133,1.527
	C5.226,1.536,5.317,1.55,5.405,1.575c0.004,0,0.007,0,0.011,0.002c0.182,0.04,0.335,0.119,0.462,0.235
	C5.882,1.813,5.887,1.817,5.891,1.82C5.898,1.826,5.904,1.833,5.909,1.84c0.033,0.033,0.066,0.069,0.095,0.106
	C6.017,1.963,6.032,1.981,6.045,2c0.037,0.051,0.07,0.104,0.101,0.163C6.148,2.167,6.148,2.168,6.15,2.172
	C6.227,2.319,6.288,2.49,6.335,2.679c0.073-0.041,0.15-0.081,0.233-0.116C7.044,2.36,7.627,2.28,8.045,2.306z"/>
<path fill="#B7B09E" d="M1.224,5.624C1.227,5.689,1.231,5.755,1.236,5.82C1.38,5.871,1.53,5.913,1.678,5.935
	c0.056,0.008,0.108,0.01,0.161,0.013c0.002-0.059,0.005-0.117,0.009-0.175C1.797,5.77,1.748,5.765,1.704,5.758
	C1.539,5.734,1.376,5.684,1.224,5.624z"/>
<path fill="#B7B09E" d="M1.229,5.005C1.225,5.068,1.224,5.131,1.222,5.193C1.388,5.259,1.566,5.312,1.74,5.338
	C1.791,5.346,1.838,5.346,1.887,5.35c0.008-0.058,0.015-0.117,0.024-0.174c-0.051-0.003-0.1-0.008-0.145-0.014
	C1.581,5.133,1.395,5.075,1.229,5.005z"/>
<path fill="#B7B09E" d="M1.804,2.763C1.777,2.82,1.751,2.876,1.727,2.935C1.923,3.102,2.17,3.262,2.422,3.362
	c0.03,0.012,0.059,0.021,0.088,0.031c0.029-0.053,0.057-0.108,0.087-0.159C2.558,3.221,2.521,3.209,2.487,3.195
	C2.227,3.093,1.984,2.925,1.804,2.763z"/>
<path fill="#B7B09E" d="M2.063,2.252c-0.03,0.052-0.057,0.107-0.086,0.16c0.187,0.15,0.411,0.292,0.639,0.382
	c0.076,0.03,0.151,0.053,0.224,0.07C2.88,2.811,2.919,2.758,2.959,2.708c-0.101-0.018-0.196-0.048-0.277-0.08
	C2.453,2.537,2.236,2.395,2.063,2.252z"/>
<path fill="#B7B09E" d="M4.49,1.054c0.026-0.376,0.175-0.761,0.313-0.988C4.725,0.082,4.647,0.098,4.57,0.119
	c-0.128,0.258-0.236,0.6-0.259,0.922C4.295,1.262,4.32,1.459,4.382,1.626C4.44,1.606,4.498,1.59,4.555,1.575
	C4.487,1.4,4.479,1.207,4.49,1.054z"/>
<path fill="#B7B09E" d="M5.09,1.069c0.03-0.426,0.216-0.862,0.367-1.067c-0.073,0-0.146,0.002-0.218,0.006
	c-0.158,0.265-0.302,0.67-0.328,1.048c-0.012,0.17,0.001,0.325,0.035,0.465c0.063-0.002,0.125,0.001,0.187,0.006
	C5.085,1.37,5.08,1.204,5.09,1.069z"/>
<path fill="#B7B09E" d="M8.079,2.487C8.068,2.426,8.057,2.365,8.045,2.306c-0.418-0.026-1,0.054-1.476,0.256
	c-0.083,0.035-0.16,0.075-0.233,0.116c0.015,0.059,0.029,0.12,0.041,0.182c0.09-0.054,0.179-0.099,0.263-0.134
	C7.135,2.516,7.709,2.456,8.079,2.487z"/>
<path fill="#B7B09E" d="M6.927,3.311C6.75,3.386,6.595,3.475,6.463,3.576c0.005,0.074,0.008,0.15,0.011,0.226
	c0.163-0.149,0.356-0.256,0.523-0.327C7.385,3.31,7.82,3.238,8.169,3.229C8.165,3.169,8.161,3.109,8.156,3.05
	C7.773,3.062,7.315,3.145,6.927,3.311z"/>
<g>
	<path fill="#736E61" d="M8.364,4.12c-0.013,0.663-0.079,1.357-0.18,2.043c-0.03,0.221-0.067,0.442-0.106,0.659
		C8.021,7.143,7.958,7.54,7.891,7.864C7.864,8.333,7.863,8.767,7.908,9.172C7.918,9.27,7.931,9.365,7.95,9.46
		c0.001,0.008,0.003,0.016,0.005,0.025c0.315-1.43,0.767-3.64,0.831-5.419C8.651,4.075,8.51,4.091,8.364,4.12z"/>
	<path fill="#736E61" d="M8.778,3.132c-0.031-0.497-0.109-0.93-0.253-1.259C8.305,1.368,7.98,1.006,7.581,0.764
		c0.142,0.184,0.265,0.395,0.37,0.634c0.217,0.497,0.337,1.095,0.387,1.746C8.495,3.13,8.644,3.126,8.778,3.132z"/>
	<path fill="#736E61" d="M2.036,6.658c0.007,0.08,0.012,0.159,0.021,0.24c0,0.002,0.002,0.004,0.002,0.004
		C2.191,7.447,2.433,7.949,2.8,8.361C2.648,7.815,2.572,7.284,2.554,6.772C2.517,6.77,2.48,6.768,2.441,6.762
		C2.306,6.742,2.169,6.704,2.036,6.658z"/>
	<path fill="#736E61" d="M5.074,1.868c0.004-0.054,0.013-0.109,0.022-0.164c-0.397-0.03-0.839,0.109-1.269,0.415
		c-0.352,0.25-0.674,0.59-0.948,1.001c0.159,0.125,0.348,0.245,0.549,0.327c0.29-0.441,0.633-0.808,1.009-1.075
		C4.647,2.222,4.86,2.11,5.071,2.034C5.069,1.98,5.07,1.925,5.074,1.868z"/>
	<path fill="#736E61" d="M2.022,5.843C2.181,5.908,2.355,5.962,2.53,5.988C2.543,5.99,2.558,5.991,2.572,5.992
		c0.061-0.683,0.234-1.311,0.483-1.863C2.858,4.036,2.67,3.911,2.513,3.78C2.237,4.381,2.06,5.08,2.022,5.843z"/>
	<path fill="#8B8477" d="M5.253,1.881C5.251,1.911,5.25,1.944,5.25,1.978C5.394,1.94,5.536,1.921,5.675,1.918
		c0-0.009-0.001-0.017,0-0.025C5.549,1.814,5.414,1.759,5.27,1.729C5.263,1.779,5.256,1.83,5.253,1.881z"/>
	<path fill="#8B8477" d="M2.021,6.463c0.142,0.054,0.293,0.1,0.446,0.123c0.026,0.004,0.055,0.006,0.083,0.008
		C2.55,6.451,2.553,6.31,2.562,6.171C2.543,6.17,2.523,6.168,2.503,6.165c-0.164-0.025-0.33-0.074-0.488-0.134
		C2.013,6.173,2.014,6.317,2.021,6.463z"/>
	<path fill="#8B8477" d="M3.13,3.966C3.193,3.839,3.26,3.717,3.332,3.599c-0.195-0.083-0.384-0.2-0.548-0.328
		c-0.067,0.109-0.13,0.223-0.19,0.341C2.742,3.741,2.928,3.87,3.13,3.966z"/>
	<path fill="#8B8477" d="M8.787,3.311c-0.129-0.007-0.276-0.006-0.436,0.01C8.362,3.523,8.367,3.73,8.366,3.94
		c0.145-0.027,0.287-0.044,0.425-0.053C8.795,3.688,8.794,3.496,8.787,3.311z"/>
	<path fill="#8B8477" d="M2.467,6.585C2.314,6.562,2.163,6.517,2.021,6.463c0.003,0.065,0.01,0.13,0.015,0.196
		c0.133,0.046,0.27,0.084,0.405,0.104C2.48,6.768,2.517,6.77,2.554,6.772c-0.002-0.06-0.003-0.119-0.004-0.179
		C2.522,6.591,2.493,6.589,2.467,6.585z"/>
	<path fill="#8B8477" d="M2.022,5.843C2.019,5.906,2.016,5.968,2.015,6.031c0.158,0.06,0.324,0.11,0.488,0.134
		c0.02,0.003,0.039,0.004,0.059,0.006c0.004-0.059,0.005-0.12,0.01-0.179C2.558,5.991,2.543,5.99,2.53,5.988
		C2.355,5.962,2.181,5.908,2.022,5.843z"/>
	<path fill="#8B8477" d="M2.513,3.78c0.158,0.132,0.346,0.256,0.542,0.35C3.079,4.075,3.103,4.02,3.13,3.966
		C2.928,3.87,2.742,3.741,2.594,3.612"/>
	<path fill="#8B8477" d="M2.784,3.271c0.164,0.127,0.353,0.245,0.548,0.328c0.031-0.052,0.064-0.103,0.097-0.153
		C3.227,3.365,3.038,3.245,2.879,3.12C2.846,3.169,2.815,3.22,2.784,3.271z"/>
	<path fill="#8B8477" d="M5.253,1.881C5.256,1.83,5.263,1.779,5.27,1.729c-0.057-0.012-0.115-0.02-0.174-0.025
		c-0.008,0.055-0.018,0.11-0.022,0.164C5.07,1.925,5.069,1.98,5.071,2.034c0.06-0.022,0.12-0.041,0.179-0.056
		C5.25,1.944,5.251,1.911,5.253,1.881z"/>
	<path fill="#8B8477" d="M5.717,1.917C5.704,1.907,5.688,1.901,5.674,1.893c-0.001,0.009,0,0.017,0,0.025
		C5.689,1.918,5.703,1.916,5.717,1.917z"/>
	<path fill="#8B8477" d="M8.787,3.311c-0.002-0.061-0.005-0.12-0.009-0.179C8.644,3.126,8.495,3.13,8.338,3.145
		c0.005,0.058,0.009,0.117,0.012,0.176C8.511,3.306,8.658,3.304,8.787,3.311z"/>
	<path fill="#8B8477" d="M8.791,3.887C8.654,3.896,8.512,3.913,8.366,3.94C8.366,4,8.365,4.06,8.364,4.12
		C8.51,4.091,8.651,4.075,8.786,4.066C8.788,4.006,8.79,3.946,8.791,3.887z"/>
</g>
<g>
	<path fill="#AFBABE" d="M0.805,17.853c-0.131-0.097-0.174-0.089-0.174-0.089c-0.2,0.528,0.206,1.972,0.283,2.226
		c0.888,0.41,2.142,1.328,2.858,2.2c-0.469-1.085-1.292-2.377-2.001-3.29C1.392,18.41,1.045,18.028,0.805,17.853z"/>
	<path fill="#C5D1D7" d="M4.154,23.451L4.154,23.451c-0.002,0-0.002,0-0.002-0.002v-0.002C4.15,23.444,4.15,23.442,4.15,23.439
		c-0.002-0.005-0.004-0.013-0.004-0.02c0-0.004,0-0.007,0-0.011c0.02-0.149-0.021-0.32-0.109-0.505
		c-0.46-0.965-2.194-2.294-3.252-2.772c-0.166-0.077-0.317-0.131-0.442-0.159c-0.106-0.025-0.286-0.052-0.319,0.043
		c-0.122,0.37,0.19,1.899,1.165,3.028c0.557,0.643,1.512,1.355,2.933,1.135C4.095,23.927,4.107,23.684,4.154,23.451z"/>
	<polygon fill="#008AC1" points="4.177,23.485 4.177,23.485 4.168,23.475 	"/>
	<path fill="#969FA5" d="M2.817,18.862c-0.347-0.521-0.549-0.694-0.621-0.732c-0.17,0.315-0.231,0.639-0.242,0.696
		c0.884,1.144,1.904,2.839,2.255,4.027c0,0.002,0.002,0.005,0.002,0.009c0.004,0.009,0.009,0.016,0.011,0.025
		C4.276,21.654,3.578,20.004,2.817,18.862z"/>
	<path fill="#008AC1" d="M4.267,24.18L4.267,24.18c-0.009-0.006-0.019-0.011-0.029-0.013C4.248,24.169,4.258,24.174,4.267,24.18z"/>
	<polygon fill="#008AC1" points="4.208,23.503 4.213,23.507 4.208,23.503 	"/>
	<path fill="#008AC1" d="M4.159,23.464c0.002,0.005,0.005,0.009,0.009,0.014C4.165,23.473,4.163,23.469,4.159,23.464L4.159,23.464z"
		/>
	<path fill="#777D7F" d="M8.804,18.658c0,0-0.403,0.041-0.609,0.041c-0.165,0-0.326-0.009-0.485-0.027
		c0,0.007,0.002,0.014,0.002,0.023c0,0.571-0.059,1.158-0.363,1.657c-0.294,0.48-0.641,0.662-1.126,0.9
		c-0.85,0.419-1.647,1.194-1.876,2.123c-0.066,0.272-0.149,0.787-0.041,0.85C4.961,24.612,10.938,23.658,8.804,18.658z"/>
	<path fill="#736E61" d="M7.581,0.764"/>
	<path fill="#727273" d="M4.222,22.9c0-0.004,0-0.009,0-0.012v0c-0.002-0.009-0.007-0.016-0.011-0.025
		C4.217,22.875,4.22,22.888,4.222,22.9z"/>
	<path fill="#A8A8A8" d="M4.159,23.464L4.159,23.464c0.004,0.005,0.005,0.009,0.009,0.014C4.165,23.473,4.161,23.469,4.159,23.464z
		 M4.177,23.485c-0.004-0.003-0.006-0.007-0.009-0.011C4.171,23.478,4.174,23.483,4.177,23.485L4.177,23.485z M4.208,23.503
		L4.208,23.503c0.002,0.002,0.004,0.004,0.005,0.004C4.211,23.507,4.209,23.505,4.208,23.503z M4.267,24.18
		c-0.009-0.006-0.019-0.011-0.029-0.013C4.248,24.169,4.258,24.174,4.267,24.18L4.267,24.18z"/>
</g>
<path fill="#969FA5" d="M7.211,4.779c-0.084,0.057-0.17,0.119-0.258,0.184C6.38,5.406,5.749,6.07,5.207,6.898
	c-0.463,0.711-1.08,1.881-1.224,3.253c-0.003,0.025-0.057,0.537-0.029,0.685C4.732,10.909,7.211,4.779,7.211,4.779z M7.637,5.349"/>
</svg>
