<?xml version="1.0" encoding="utf-8"?>
<!-- Generator: Adobe Illustrator 17.0.0, SVG Export Plug-In . SVG Version: 6.00 Build 0)  -->
<!DOCTYPE svg PUBLIC "-//W3C//DTD SVG 1.1//EN" "http://www.w3.org/Graphics/SVG/1.1/DTD/svg11.dtd">
<svg version="1.1" xmlns="http://www.w3.org/2000/svg" xmlns:xlink="http://www.w3.org/1999/xlink" x="0px" y="0px"
	 width="13.741px" height="30.751px" viewBox="0 0 13.741 30.751" enable-background="new 0 0 13.741 30.751" xml:space="preserve">
<g id="Layer_1">
	<g>
		<path fill="#9CA2A4" d="M11.773,23.01L11.773,23.01c-0.002-0.003-0.002-0.003-0.002-0.005c-0.106-0.413-0.168-0.832-0.166-1.253
			c-0.199,0.106-0.397,0.188-0.598,0.274c-0.003,0.001-0.006,0.003-0.009,0.004c0.027,0.26,0.1,0.518,0.213,0.712
			C11.33,22.948,11.551,23.011,11.773,23.01z"/>
		<path fill="#B3A5B7" d="M7.861,9.913C7.842,9.845,7.825,9.777,7.808,9.708C7.79,9.621,7.772,9.532,7.756,9.44
			C7.698,9.065,7.679,8.663,7.691,8.234c0.002-0.137,0.01-0.275,0.019-0.416C7.747,7.197,7.832,6.523,7.925,5.79
			c0.032-0.246,0.063-0.497,0.093-0.754C8.027,4.958,8.037,4.879,8.045,4.8c0.005-0.039,0.01-0.078,0.013-0.116
			c0.008-0.051-0.036,0.094-0.052,0.139C7.972,4.917,7.94,5.012,7.908,5.105v0.002C7.901,5.128,7.894,5.149,7.888,5.17
			C7.863,5.249,7.838,5.329,7.81,5.409C7.435,6.627,7.307,7.727,7.304,8.576C7.303,8.7,7.305,8.82,7.309,8.932
			c0.017,0.443,0.07,0.8,0.136,1.041c0.012,0.046,0.025,0.087,0.038,0.125c0.026-0.004,0.052-0.008,0.079-0.012
			c0.064-0.011,0.129-0.018,0.195-0.023c0.048-0.005,0.098-0.008,0.147-0.011C7.889,10.006,7.874,9.96,7.861,9.913L7.861,9.913z"/>
		<path fill="#AFBABE" d="M0.805,17.853c-0.131-0.097-0.174-0.089-0.174-0.089c-0.2,0.528,0.206,1.972,0.283,2.226
			c0.888,0.41,2.142,1.328,2.858,2.2c-0.469-1.085-1.292-2.377-2.001-3.29C1.392,18.41,1.045,18.028,0.805,17.853z"/>
		<path fill="#736E61" d="M4.437,2.371c0.429-0.305,0.872-0.458,1.281-0.455C5.203,1.566,4.501,1.64,3.827,2.119
			C2.661,2.947,1.802,4.76,2.057,6.898c0,0.002,0.002,0.004,0.002,0.004C2.191,7.447,2.433,7.949,2.8,8.361
			C2.063,5.715,3.035,3.367,4.437,2.371z"/>
		<path fill="#E4F1FB" d="M4.154,23.451L4.154,23.451c-0.002,0-0.002,0-0.002-0.002v-0.002C4.15,23.444,4.15,23.442,4.15,23.439
			c-0.002-0.005-0.004-0.013-0.004-0.02c0-0.004,0-0.007,0-0.011c0.02-0.149-0.021-0.32-0.109-0.505
			c-0.46-0.965-2.194-2.294-3.252-2.772C0.619,20.054,0.468,20,0.343,19.972c-0.106-0.025-0.286-0.052-0.319,0.043
			c-0.122,0.37,0.19,1.899,1.165,3.028c0.557,0.643,1.512,1.355,2.933,1.135C4.095,23.927,4.107,23.684,4.154,23.451z"/>
		<polygon fill="#008AC1" points="4.177,23.485 4.177,23.485 4.168,23.475 		"/>
		<path fill="#9CA2A4" d="M7.923,29.723c0.052-0.286-0.29-0.723-0.424-0.954c-0.472-0.814-0.75-1.593-0.959-2.509
			c-0.15,0.045-0.304,0.079-0.464,0.1c0.183,0.791,0.417,1.559,0.687,2.327c0.14,0.397,0.297,0.784,0.501,1.153
			c0.018,0.032,0.039,0.068,0.063,0.104C7.497,29.907,7.902,29.843,7.923,29.723z"/>
		<path fill="#008AC1" d="M9.568,20.561L9.561,20.57L9.568,20.561z"/>
		<path fill="#969FA5" d="M2.817,18.862c-0.347-0.521-0.549-0.694-0.621-0.732c-0.17,0.315-0.231,0.639-0.242,0.696
			c0.884,1.144,1.904,2.839,2.255,4.027c0,0.002,0.002,0.005,0.002,0.009c0.004,0.009,0.009,0.016,0.011,0.025
			C4.276,21.654,3.578,20.004,2.817,18.862z"/>
		<path fill="#008AC1" d="M4.267,24.18L4.267,24.18c-0.009-0.006-0.019-0.011-0.029-0.013C4.248,24.169,4.258,24.174,4.267,24.18z"
			/>
		<path fill="#008AC1" d="M4.208,23.503l0.005,0.004L4.208,23.503z"/>
		<path fill="#008AC1" d="M4.159,23.464c0.002,0.005,0.005,0.009,0.009,0.014C4.165,23.473,4.163,23.469,4.159,23.464L4.159,23.464z
			"/>
		<path fill="#9CA2A4" d="M11.007,20.001c0.125-0.107,0.27-0.227,0.43-0.317c-0.229-0.149-0.483-0.113-0.728,0.011
			c-0.002-0.002-0.002-0.002-0.002,0c-0.367,0.245-0.653,0.573-0.934,0.907c0.082,0.177,0.157,0.354,0.218,0.535
			C10.321,20.752,10.622,20.335,11.007,20.001z"/>
		<path fill="#777D7F" d="M7.861,10.234c-0.068,0.004-0.136,0.009-0.202,0.018c-0.032,0.004-0.064,0.009-0.095,0.014
			c-0.064,0.009-0.127,0.019-0.19,0.031c-0.018-0.037-0.036-0.077-0.052-0.123c-0.005-0.014-0.009-0.031-0.014-0.046
			C7.232,9.909,7.174,9.603,7.143,9.221C7.136,9.116,7.13,9.007,7.127,8.891C7.107,8.276,7.155,7.519,7.31,6.688
			c0.078-0.43,0.187-0.879,0.326-1.34c0-0.002,0-0.002,0-0.002c0.007-0.021,0.013-0.042,0.02-0.064
			C7.664,5.263,7.67,5.244,7.674,5.224C7.689,5.189,7.7,5.151,7.711,5.116C7.717,5.1,7.722,5.084,7.725,5.068
			c0.01-0.028,0.018-0.056,0.028-0.084C7.819,4.789,7.892,4.592,7.97,4.395C7.955,4.399,7.936,4.404,7.918,4.41
			C7.709,4.479,7.468,4.605,7.21,4.78C7.126,4.837,7.04,4.899,6.952,4.964C6.38,5.406,5.749,6.07,5.207,6.898
			c-0.471,0.724-1.102,1.923-1.231,3.327c-0.061,0.654-0.006,1.357,0.217,2.072c0.025,0.07,0.052,0.142,0.08,0.212
			c-0.039,0.066-0.075,0.132-0.107,0.2c-0.079,0.152-0.147,0.31-0.206,0.471c-0.177,0.483-0.274,1.004-0.274,1.548
			c0,2.486,2.102,3.824,4.588,3.824c1.987,0,3.654-1.883,3.658-1.89c0.122-0.261,0.497-0.552,1.073-2.465
			c0.314-1.044,0.07-2.781-1.253-2.518c-0.013,0.003-0.11,0.055-0.168,0.084c-0.02,0.01-0.036,0.018-0.041,0.019
			c-0.051,0.012-0.051-0.038-0.029-0.098c-0.824-0.899-2.008-1.464-3.32-1.464c-0.031,0-0.061,0.001-0.092,0.002
			c-0.046,0.001-0.092,0.003-0.138,0.005C7.931,10.229,7.895,10.231,7.861,10.234z"/>
		<path fill="#C5D1D7" d="M9.573,22.752c0.285-0.433,0.786-0.657,1.281-0.863c0.047-0.02,0.093-0.039,0.14-0.057
			c0.217-0.089,0.43-0.179,0.617-0.286c0.013-0.226,0.045-0.451,0.1-0.675c0.027-0.111,0.199-0.064,0.172,0.048
			c-0.055,0.226-0.088,0.456-0.097,0.689c-0.023,0.406,0.02,0.816,0.12,1.208c0.018,0.068,0.039,0.125,0.066,0.177
			c0.03,0.064,0.068,0.116,0.113,0.159c0.251,0.249,0.675,0.186,1.06,0.086c0.209-0.055,0.625-0.138,0.594-0.433
			c-0.02-0.193-0.093-0.379-0.177-0.555c-0.143-0.299-0.319-0.583-0.455-0.884c-0.215-0.476-0.566-1.817-1.31-1.639
			c-0.027,0.004-0.054,0.013-0.082,0.023c-0.007,0.002-0.012,0.005-0.02,0.009c-0.029,0.009-0.055,0.021-0.082,0.032
			c-0.007,0.004-0.014,0.007-0.021,0.011c-0.349,0.161-0.634,0.431-0.897,0.734c-0.378,0.435-0.711,0.936-1.124,1.28
			c-0.088,0.073-0.215-0.054-0.127-0.127c0.147-0.122,0.281-0.256,0.408-0.396c-0.055-0.183-0.125-0.362-0.206-0.539
			c-0.027-0.061-0.055-0.122-0.086-0.184c-0.292-0.607-0.657-1.199-0.768-1.849c-0.004-0.023,0-0.045,0.011-0.063
			C8.605,18.687,8.401,18.7,8.195,18.7c-0.165,0-0.326-0.009-0.485-0.027c0,0.007,0.002,0.014,0.002,0.023
			c0,0.571-0.059,1.158-0.363,1.657c-0.294,0.48-0.641,0.662-1.126,0.9c-0.85,0.419-1.647,1.194-1.876,2.123
			c-0.066,0.272-0.084,0.557-0.041,0.85c0,0.002,0,0.002,0,0.004c0.002,0.002,0.002,0.005,0.002,0.009
			c0.002,0.004,0.002,0.007,0.002,0.013c0,0.013-0.002,0.023-0.005,0.034c-0.1,0.356-0.095,0.753-0.102,1.122
			c-0.011,0.571-0.004,1.144,0.018,1.715c0.036,0.979,0.041,2.019,0.256,2.98c0.107,0.481,0.644,0.481,1.038,0.557
			c0.354,0.066,0.791,0.149,1.145,0.039c0.175-0.055,0.503-0.224,0.594-0.406c0.025-0.052-0.002-0.125-0.041-0.195
			c-0.036-0.064-0.081-0.127-0.102-0.166c-0.607-1.113-0.954-2.398-1.231-3.628c-0.016-0.075,0.054-0.12,0.111-0.109
			c0,0,0,0,0.002,0c0.005-0.002,0.013-0.004,0.02-0.004c0.95-0.107,1.813-0.728,2.459-1.403c0.548-0.571,1.054-1.244,1.299-2.006
			c-0.016,0.02-0.029,0.039-0.043,0.061C9.665,22.938,9.509,22.848,9.573,22.752z"/>
		<path fill="#9D9682" d="M8.191,4.166h0.001C8.213,3.147,8.105,2.2,7.788,1.471C7.618,1.084,7.396,0.773,7.121,0.54
			c-0.002,0-0.002-0.002-0.002-0.002C6.99,0.426,6.847,0.333,6.694,0.259C6.524,0.173,6.338,0.11,6.141,0.071
			C4.432-0.275,2.843,0.66,1.891,2.573c-0.848,1.703-1.019,4.03,0.196,5.392C1.988,7.61,1.921,7.26,1.88,6.917
			C1.769,5.974,1.867,5.092,2.111,4.323C2.44,3.291,3.028,2.466,3.723,1.972c0.574-0.408,1.172-0.544,1.683-0.397
			c0.004,0,0.007,0,0.011,0.002c0.182,0.04,0.335,0.119,0.462,0.235C5.882,1.813,5.887,1.817,5.891,1.82
			c0.007,0.006,0.013,0.013,0.018,0.02c0.033,0.033,0.066,0.069,0.095,0.106C6.017,1.963,6.032,1.981,6.045,2
			c0.037,0.051,0.07,0.104,0.101,0.163C6.148,2.167,6.148,2.168,6.15,2.172c0.349,0.664,0.367,1.785,0.301,2.976
			c0.203-0.185,0.407-0.351,0.605-0.49C7.139,4.601,7.22,4.547,7.299,4.501c0.239-0.145,0.468-0.247,0.675-0.298
			c0.032-0.009,0.099-0.019,0.151-0.027c-0.003,0-0.007-0.002-0.01-0.001C8.131,4.172,8.146,4.171,8.16,4.171
			C8.164,4.17,8.168,4.169,8.171,4.169V4.168C8.177,4.167,8.185,4.167,8.191,4.166z"/>
		<path fill="#008AC1" d="M7.833,8.95C7.826,8.964,7.817,8.979,7.808,8.992C7.817,8.979,7.826,8.964,7.833,8.95L7.833,8.95z"/>
		<path fill="#727273" d="M5.878,1.096C5.889,1.104,5.9,1.115,5.909,1.124C5.904,1.117,5.898,1.11,5.891,1.104
			C5.887,1.101,5.882,1.097,5.878,1.096z"/>
		<path fill="#727273" d="M4.222,22.9c0-0.004,0-0.009,0-0.012l0,0c-0.002-0.009-0.007-0.016-0.011-0.025
			C4.217,22.875,4.22,22.888,4.222,22.9z"/>
		<path fill="#A8A8A8" d="M4.159,23.464L4.159,23.464c0.004,0.005,0.005,0.009,0.009,0.014C4.165,23.473,4.161,23.469,4.159,23.464z
			 M4.177,23.485c-0.004-0.003-0.006-0.007-0.009-0.011C4.171,23.478,4.174,23.483,4.177,23.485L4.177,23.485z M4.208,23.503
			L4.208,23.503c0.002,0.002,0.004,0.004,0.005,0.004C4.211,23.507,4.209,23.505,4.208,23.503z M4.267,24.18
			c-0.009-0.006-0.019-0.011-0.029-0.013C4.248,24.169,4.258,24.174,4.267,24.18L4.267,24.18z"/>
	</g>
	<path fill="none" stroke="#515659" stroke-width="0.1" stroke-linecap="round" stroke-miterlimit="10" d="M10.941,14.863
		c0.257,0.583,0.945,0.843,1.539,0.581"/>
	<path fill="none" stroke="#515659" stroke-width="0.1" stroke-linecap="round" stroke-miterlimit="10" d="M11.899,12.053
		c-0.045,0.134,0.145-0.369,0.38,0"/>
	<g>
		<path fill="#FFFFFF" d="M9.603,13.604c0.101-0.117,0.214-0.228,0.327-0.346c0.116-0.116,0.245-0.219,0.374-0.302
			c0.079-0.05,0.158-0.089,0.234-0.123c-0.007-0.501-0.277-1.067-0.769-1.502c-0.779-0.69-1.819-0.789-2.322-0.221
			s-0.279,1.588,0.501,2.278c0.429,0.38,0.936,0.579,1.39,0.588c0.007-0.012,0.011-0.023,0.018-0.035
			C9.419,13.836,9.501,13.718,9.603,13.604z"/>
		<path fill="#868686" d="M10.978,12.695c-0.07,0.012-0.17,0.031-0.286,0.071c-0.045,0.016-0.094,0.037-0.143,0.059
			c-0.076,0.034-0.154,0.073-0.234,0.123c-0.129,0.083-0.258,0.186-0.374,0.302c-0.113,0.118-0.226,0.229-0.327,0.346
			c-0.102,0.114-0.184,0.232-0.246,0.338C9.36,13.947,9.356,13.957,9.35,13.97c-0.051,0.091-0.086,0.174-0.104,0.235
			c-0.021,0.068-0.027,0.108-0.027,0.108s0.012-0.039,0.04-0.104c0.025-0.062,0.076-0.144,0.138-0.238
			c0.003-0.004,0.005-0.008,0.008-0.012c-0.095,0.14,0.044-0.08,0.258-0.318c0.098-0.112,0.223-0.22,0.329-0.34
			c0.171-0.177,0.372-0.322,0.556-0.421c0.055-0.029,0.108-0.056,0.159-0.077c0.11-0.048,0.206-0.078,0.274-0.096
			c0.069-0.016,0.108-0.026,0.108-0.026S11.048,12.686,10.978,12.695z"/>
	</g>
	
		<ellipse transform="matrix(-0.7488 -0.6628 0.6628 -0.7488 8.3204 27.0763)" fill="#4169B1" cx="9.291" cy="11.961" rx="1.095" ry="0.798"/>
	<path fill="#FFFFFF" d="M9.43,11.09c-0.053,0.175-0.292,0.258-0.532,0.185S8.506,11,8.559,10.825"/>
	
		<ellipse transform="matrix(-0.7488 -0.6628 0.6628 -0.7488 8.3256 28.4293)" fill="#FFFFFF" cx="9.55" cy="12.637" rx="0.175" ry="0.128"/>
	<path fill="#727273" d="M5.878,1.096C5.889,1.104,5.9,1.115,5.909,1.124C5.904,1.117,5.898,1.11,5.891,1.104
		C5.887,1.101,5.882,1.097,5.878,1.096z"/>
	<path fill="#9D9682" d="M1.236,5.82c0.069,0.808,0.333,1.564,0.851,2.145C1.988,7.61,1.921,7.26,1.88,6.917
		c-0.039-0.332-0.051-0.655-0.041-0.97C1.786,5.945,1.734,5.944,1.678,5.935C1.53,5.913,1.38,5.871,1.236,5.82z"/>
	<path fill="#B7B09E" d="M4.911,1.057c0.027-0.378,0.171-0.784,0.328-1.048C5.092,0.017,4.946,0.037,4.803,0.066
		C4.664,0.293,4.516,0.678,4.49,1.054C4.479,1.207,4.487,1.4,4.555,1.575c0.133-0.033,0.263-0.051,0.391-0.054
		C4.912,1.382,4.899,1.227,4.911,1.057z"/>
	<path fill="#B7B09E" d="M1.222,5.193c-0.005,0.144-0.004,0.288,0.002,0.43c0.151,0.06,0.315,0.11,0.48,0.134
		C1.748,5.765,1.797,5.77,1.848,5.773C1.857,5.63,1.87,5.489,1.888,5.35C1.838,5.346,1.791,5.346,1.74,5.338
		C1.566,5.312,1.388,5.259,1.222,5.193z"/>
	<path fill="#B7B09E" d="M1.978,2.412C1.949,2.466,1.919,2.517,1.891,2.573C1.86,2.635,1.832,2.7,1.803,2.763
		c0.181,0.162,0.424,0.33,0.684,0.432c0.034,0.013,0.071,0.026,0.109,0.038c0.077-0.13,0.159-0.252,0.244-0.369
		c-0.073-0.018-0.148-0.04-0.224-0.07C2.388,2.704,2.164,2.562,1.978,2.412z"/>
	<path fill="#9D9682" d="M4.311,1.041c0.023-0.322,0.13-0.664,0.259-0.922C3.581,0.391,2.704,1.127,2.063,2.252
		c0.172,0.143,0.389,0.285,0.619,0.376C2.763,2.66,2.858,2.69,2.959,2.708c0.232-0.291,0.489-0.54,0.763-0.735
		c0.219-0.155,0.441-0.271,0.66-0.346C4.32,1.459,4.295,1.262,4.311,1.041z"/>
	<path fill="#9D9682" d="M1.727,2.935c-0.273,0.648-0.45,1.363-0.497,2.07c0.166,0.07,0.352,0.129,0.537,0.156
		c0.045,0.007,0.094,0.011,0.145,0.014c0.047-0.296,0.114-0.582,0.2-0.853C2.218,3.988,2.355,3.678,2.51,3.391
		C2.48,3.382,2.451,3.373,2.422,3.362C2.17,3.262,1.923,3.102,1.727,2.935z"/>
	<path fill="#B7B09E" d="M8.156,3.05C8.138,2.856,8.111,2.669,8.079,2.487c-0.37-0.031-0.944,0.029-1.44,0.24
		c-0.083,0.035-0.173,0.08-0.263,0.134c0.043,0.22,0.071,0.46,0.087,0.715c0.132-0.101,0.287-0.19,0.464-0.265
		C7.315,3.145,7.773,3.062,8.156,3.05z"/>
	<path fill="#9D9682" d="M6.475,3.802C6.49,4.224,6.477,4.68,6.451,5.148c0.203-0.185,0.407-0.351,0.605-0.49
		C7.139,4.601,7.22,4.547,7.299,4.501c0.239-0.145,0.468-0.247,0.675-0.298c0.032-0.009,0.099-0.019,0.151-0.027
		c-0.003,0-0.007-0.002-0.01-0.001C8.131,4.172,8.146,4.171,8.16,4.171C8.164,4.17,8.168,4.169,8.171,4.169V4.168
		C8.177,4.167,8.184,4.167,8.19,4.167h0.001C8.198,3.845,8.19,3.531,8.169,3.229C7.82,3.238,7.385,3.31,6.997,3.475
		C6.831,3.546,6.637,3.653,6.475,3.802z"/>
	<path fill="#9D9682" d="M8.045,2.306c-0.063-0.3-0.147-0.581-0.257-0.835C7.618,1.084,7.396,0.773,7.121,0.54
		c-0.002,0-0.002-0.002-0.002-0.002C6.99,0.426,6.847,0.333,6.694,0.259C6.524,0.173,6.338,0.11,6.141,0.071
		C5.91,0.024,5.682,0.003,5.457,0.002C5.306,0.207,5.12,0.643,5.09,1.069C5.08,1.204,5.085,1.37,5.133,1.527
		C5.226,1.536,5.317,1.55,5.405,1.575c0.004,0,0.007,0,0.011,0.002c0.182,0.04,0.335,0.119,0.462,0.235
		C5.882,1.813,5.887,1.817,5.891,1.82c0.007,0.006,0.013,0.013,0.018,0.02c0.033,0.033,0.066,0.069,0.095,0.106
		C6.017,1.963,6.032,1.981,6.045,2c0.037,0.051,0.07,0.104,0.101,0.163C6.148,2.167,6.148,2.168,6.15,2.172
		C6.227,2.319,6.288,2.49,6.335,2.679c0.073-0.041,0.15-0.081,0.233-0.116C7.044,2.36,7.627,2.28,8.045,2.306z"/>
	<path fill="#B7B09E" d="M1.224,5.624C1.227,5.689,1.231,5.755,1.236,5.82C1.38,5.871,1.53,5.913,1.678,5.935
		c0.056,0.008,0.108,0.01,0.161,0.013c0.002-0.059,0.005-0.117,0.009-0.175c-0.051-0.003-0.1-0.008-0.144-0.015
		C1.539,5.734,1.376,5.684,1.224,5.624z"/>
	<path fill="#B7B09E" d="M1.229,5.005C1.225,5.068,1.224,5.131,1.222,5.193C1.388,5.259,1.566,5.312,1.74,5.338
		C1.791,5.346,1.838,5.346,1.887,5.35c0.008-0.058,0.015-0.117,0.024-0.174c-0.051-0.003-0.1-0.008-0.145-0.014
		C1.581,5.133,1.395,5.075,1.229,5.005z"/>
	<path fill="#B7B09E" d="M1.804,2.763C1.777,2.82,1.751,2.876,1.727,2.935C1.923,3.102,2.17,3.262,2.422,3.362
		c0.03,0.012,0.059,0.021,0.088,0.031C2.539,3.34,2.567,3.285,2.597,3.234c-0.039-0.013-0.076-0.025-0.11-0.039
		C2.227,3.093,1.984,2.925,1.804,2.763z"/>
	<path fill="#B7B09E" d="M2.063,2.252c-0.03,0.052-0.057,0.107-0.086,0.16c0.187,0.15,0.411,0.292,0.639,0.382
		c0.076,0.03,0.151,0.053,0.224,0.07c0.04-0.053,0.079-0.106,0.119-0.156C2.858,2.69,2.763,2.66,2.682,2.628
		C2.453,2.537,2.236,2.395,2.063,2.252z"/>
	<path fill="#B7B09E" d="M4.49,1.054c0.026-0.376,0.175-0.761,0.313-0.988C4.725,0.082,4.647,0.098,4.57,0.119
		c-0.128,0.258-0.236,0.6-0.259,0.922C4.295,1.262,4.32,1.459,4.382,1.626C4.44,1.606,4.498,1.59,4.555,1.575
		C4.487,1.4,4.479,1.207,4.49,1.054z"/>
	<path fill="#B7B09E" d="M5.09,1.069c0.03-0.426,0.216-0.862,0.367-1.067c-0.073,0-0.146,0.002-0.218,0.006
		c-0.158,0.265-0.302,0.67-0.328,1.048c-0.012,0.17,0.001,0.325,0.035,0.465c0.063-0.002,0.125,0.001,0.187,0.006
		C5.085,1.37,5.08,1.204,5.09,1.069z"/>
	<path fill="#B7B09E" d="M8.079,2.487C8.068,2.426,8.057,2.365,8.045,2.306c-0.418-0.026-1,0.054-1.476,0.256
		c-0.083,0.035-0.16,0.075-0.233,0.116c0.015,0.059,0.029,0.12,0.041,0.182c0.09-0.054,0.179-0.099,0.263-0.134
		C7.135,2.516,7.709,2.456,8.079,2.487z"/>
	<path fill="#B7B09E" d="M6.927,3.311C6.75,3.386,6.595,3.475,6.463,3.576c0.005,0.074,0.008,0.15,0.011,0.226
		C6.637,3.653,6.83,3.546,6.997,3.475C7.385,3.31,7.82,3.238,8.169,3.229c-0.004-0.06-0.008-0.12-0.013-0.179
		C7.773,3.062,7.315,3.145,6.927,3.311z"/>
	<g>
		<path fill="#736E61" d="M8.364,4.12c-0.013,0.663-0.079,1.357-0.18,2.043c-0.03,0.221-0.067,0.442-0.106,0.659
			C8.021,7.143,7.958,7.54,7.891,7.864C7.864,8.333,7.863,8.767,7.908,9.172C7.918,9.27,7.931,9.365,7.95,9.46
			c0.001,0.008,0.003,0.016,0.005,0.025c0.315-1.43,0.767-3.64,0.831-5.419C8.651,4.075,8.51,4.091,8.364,4.12z"/>
		<path fill="#736E61" d="M8.778,3.132c-0.031-0.497-0.109-0.93-0.253-1.259C8.305,1.368,7.98,1.006,7.581,0.764
			c0.142,0.184,0.265,0.395,0.37,0.634c0.217,0.497,0.337,1.095,0.387,1.746C8.495,3.13,8.644,3.126,8.778,3.132z"/>
		<path fill="#736E61" d="M2.036,6.658c0.007,0.08,0.012,0.159,0.021,0.24c0,0.002,0.002,0.004,0.002,0.004
			C2.191,7.447,2.433,7.949,2.8,8.361C2.648,7.815,2.572,7.284,2.554,6.772C2.517,6.77,2.48,6.768,2.441,6.762
			C2.306,6.742,2.169,6.704,2.036,6.658z"/>
		<path fill="#736E61" d="M5.074,1.868c0.004-0.054,0.013-0.109,0.022-0.164c-0.397-0.03-0.839,0.109-1.269,0.415
			c-0.352,0.25-0.674,0.59-0.948,1.001c0.159,0.125,0.348,0.245,0.549,0.327c0.29-0.441,0.633-0.808,1.009-1.075
			c0.21-0.15,0.423-0.262,0.634-0.338C5.069,1.98,5.07,1.925,5.074,1.868z"/>
		<path fill="#736E61" d="M2.022,5.843C2.181,5.908,2.355,5.962,2.53,5.988C2.543,5.99,2.558,5.991,2.572,5.992
			c0.061-0.683,0.234-1.311,0.483-1.863C2.858,4.036,2.67,3.911,2.513,3.78C2.237,4.381,2.06,5.08,2.022,5.843z"/>
		<path fill="#8B8477" d="M5.253,1.881C5.251,1.911,5.25,1.944,5.25,1.978c0.144-0.038,0.286-0.057,0.425-0.06
			c0-0.009-0.001-0.017,0-0.025C5.549,1.814,5.414,1.759,5.27,1.729C5.263,1.779,5.256,1.83,5.253,1.881z"/>
		<path fill="#8B8477" d="M2.021,6.463c0.142,0.054,0.293,0.1,0.446,0.123C2.493,6.59,2.522,6.592,2.55,6.594
			c0-0.143,0.003-0.284,0.012-0.423C2.543,6.17,2.523,6.168,2.503,6.165C2.339,6.14,2.173,6.091,2.015,6.031
			C2.013,6.173,2.014,6.317,2.021,6.463z"/>
		<path fill="#8B8477" d="M3.13,3.966c0.063-0.127,0.13-0.249,0.202-0.367c-0.195-0.083-0.384-0.2-0.548-0.328
			c-0.067,0.109-0.13,0.223-0.19,0.341C2.742,3.741,2.928,3.87,3.13,3.966z"/>
		<path fill="#8B8477" d="M8.787,3.311c-0.129-0.007-0.276-0.006-0.436,0.01C8.362,3.523,8.367,3.73,8.366,3.94
			c0.145-0.027,0.287-0.044,0.425-0.053C8.795,3.688,8.794,3.496,8.787,3.311z"/>
		<path fill="#8B8477" d="M2.467,6.585C2.314,6.562,2.163,6.517,2.021,6.463c0.003,0.065,0.01,0.13,0.015,0.196
			c0.133,0.046,0.27,0.084,0.405,0.104C2.48,6.768,2.517,6.77,2.554,6.772C2.552,6.712,2.551,6.653,2.55,6.593
			C2.522,6.591,2.493,6.589,2.467,6.585z"/>
		<path fill="#8B8477" d="M2.022,5.843C2.019,5.906,2.016,5.968,2.015,6.031c0.158,0.06,0.324,0.11,0.488,0.134
			c0.02,0.003,0.039,0.004,0.059,0.006c0.004-0.059,0.005-0.12,0.01-0.179C2.558,5.991,2.543,5.99,2.53,5.988
			C2.355,5.962,2.181,5.908,2.022,5.843z"/>
		<path fill="#8B8477" d="M2.513,3.78c0.158,0.132,0.346,0.256,0.542,0.35C3.079,4.075,3.103,4.02,3.13,3.966
			C2.928,3.87,2.742,3.741,2.594,3.612"/>
		<path fill="#8B8477" d="M2.784,3.271c0.164,0.127,0.353,0.245,0.548,0.328c0.031-0.052,0.064-0.103,0.097-0.153
			C3.227,3.365,3.038,3.245,2.879,3.12C2.846,3.169,2.815,3.22,2.784,3.271z"/>
		<path fill="#8B8477" d="M5.253,1.881C5.256,1.83,5.263,1.779,5.27,1.729c-0.057-0.012-0.115-0.02-0.174-0.025
			c-0.008,0.055-0.018,0.11-0.022,0.164C5.07,1.925,5.069,1.98,5.071,2.034c0.06-0.022,0.12-0.041,0.179-0.056
			C5.25,1.944,5.251,1.911,5.253,1.881z"/>
		<path fill="#8B8477" d="M5.717,1.917c-0.013-0.01-0.029-0.016-0.043-0.024c-0.001,0.009,0,0.017,0,0.025
			C5.689,1.918,5.703,1.916,5.717,1.917z"/>
		<path fill="#8B8477" d="M8.787,3.311C8.785,3.25,8.782,3.191,8.778,3.132C8.644,3.126,8.495,3.13,8.338,3.145
			C8.343,3.203,8.347,3.262,8.35,3.321C8.511,3.306,8.658,3.304,8.787,3.311z"/>
		<path fill="#8B8477" d="M8.791,3.887C8.654,3.896,8.512,3.913,8.366,3.94c0,0.06-0.001,0.12-0.002,0.18
			C8.51,4.091,8.651,4.075,8.786,4.066C8.788,4.006,8.79,3.946,8.791,3.887z"/>
	</g>
	<g>
		<path fill="#AFBABE" d="M0.805,17.853c-0.131-0.097-0.174-0.089-0.174-0.089c-0.2,0.528,0.206,1.972,0.283,2.226
			c0.888,0.41,2.142,1.328,2.858,2.2c-0.469-1.085-1.292-2.377-2.001-3.29C1.392,18.41,1.045,18.028,0.805,17.853z"/>
		<path fill="#C5D1D7" d="M4.154,23.451L4.154,23.451c-0.002,0-0.002,0-0.002-0.002v-0.002C4.15,23.444,4.15,23.442,4.15,23.439
			c-0.002-0.005-0.004-0.013-0.004-0.02c0-0.004,0-0.007,0-0.011c0.02-0.149-0.021-0.32-0.109-0.505
			c-0.46-0.965-2.194-2.294-3.252-2.772C0.619,20.054,0.468,20,0.343,19.972c-0.106-0.025-0.286-0.052-0.319,0.043
			c-0.122,0.37,0.19,1.899,1.165,3.028c0.557,0.643,1.512,1.355,2.933,1.135C4.095,23.927,4.107,23.684,4.154,23.451z"/>
		<polygon fill="#008AC1" points="4.177,23.485 4.177,23.485 4.168,23.475 		"/>
		<path fill="#969FA5" d="M2.817,18.862c-0.347-0.521-0.549-0.694-0.621-0.732c-0.17,0.315-0.231,0.639-0.242,0.696
			c0.884,1.144,1.904,2.839,2.255,4.027c0,0.002,0.002,0.005,0.002,0.009c0.004,0.009,0.009,0.016,0.011,0.025
			C4.276,21.654,3.578,20.004,2.817,18.862z"/>
		<path fill="#008AC1" d="M4.267,24.18L4.267,24.18c-0.009-0.006-0.019-0.011-0.029-0.013C4.248,24.169,4.258,24.174,4.267,24.18z"
			/>
		<path fill="#008AC1" d="M4.208,23.503l0.005,0.004L4.208,23.503z"/>
		<path fill="#008AC1" d="M4.159,23.464c0.002,0.005,0.005,0.009,0.009,0.014C4.165,23.473,4.163,23.469,4.159,23.464L4.159,23.464z
			"/>
		<path fill="#777D7F" d="M8.804,18.658c0,0-0.403,0.041-0.609,0.041c-0.165,0-0.326-0.009-0.485-0.027
			c0,0.007,0.002,0.014,0.002,0.023c0,0.571-0.059,1.158-0.363,1.657c-0.294,0.48-0.641,0.662-1.126,0.9
			c-0.85,0.419-1.647,1.194-1.876,2.123c-0.066,0.272-0.149,0.787-0.041,0.85C4.961,24.612,10.938,23.658,8.804,18.658z"/>
		<path fill="#736E61" d="M7.581,0.764"/>
		<path fill="#727273" d="M4.222,22.9c0-0.004,0-0.009,0-0.012l0,0c-0.002-0.009-0.007-0.016-0.011-0.025
			C4.217,22.875,4.22,22.888,4.222,22.9z"/>
		<path fill="#A8A8A8" d="M4.159,23.464L4.159,23.464c0.004,0.005,0.005,0.009,0.009,0.014C4.165,23.473,4.161,23.469,4.159,23.464z
			 M4.177,23.485c-0.004-0.003-0.006-0.007-0.009-0.011C4.171,23.478,4.174,23.483,4.177,23.485L4.177,23.485z M4.208,23.503
			L4.208,23.503c0.002,0.002,0.004,0.004,0.005,0.004C4.211,23.507,4.209,23.505,4.208,23.503z M4.267,24.18
			c-0.009-0.006-0.019-0.011-0.029-0.013C4.248,24.169,4.258,24.174,4.267,24.18L4.267,24.18z"/>
	</g>
	<path fill="#969FA5" d="M7.211,4.779c-0.084,0.057-0.17,0.119-0.258,0.184C6.38,5.406,5.749,6.07,5.207,6.898
		c-0.463,0.711-1.08,1.881-1.224,3.253c-0.003,0.025-0.057,0.537-0.029,0.685C4.732,10.909,7.211,4.779,7.211,4.779z"/>
</g>
<g id="Layer_2">
	<g opacity="0.8">
		<path fill="#0D002A" d="M11.605,21.752c-0.199,0.106-0.397,0.188-0.598,0.274c-0.003,0.001-0.006,0.003-0.009,0.004
			c0.027,0.26,0.1,0.518,0.213,0.712c0.119,0.206,0.34,0.269,0.562,0.268c-0.002-0.003-0.002-0.003-0.002-0.005
			C11.665,22.592,11.603,22.173,11.605,21.752z"/>
		<path fill="#0D002A" d="M7.925,5.79c0.032-0.246,0.063-0.497,0.093-0.754C8.027,4.958,8.037,4.879,8.045,4.8
			c0.005-0.039,0.01-0.078,0.013-0.116c0.008-0.051-0.036,0.094-0.052,0.139C7.972,4.917,7.94,5.012,7.908,5.105v0.002
			C7.901,5.128,7.894,5.149,7.888,5.17C7.863,5.249,7.838,5.329,7.81,5.409C7.435,6.627,7.307,7.727,7.304,8.576
			C7.303,8.7,7.305,8.82,7.309,8.932c0.017,0.443,0.07,0.8,0.136,1.041c0.012,0.046,0.025,0.087,0.038,0.125
			c0.026-0.004,0.052-0.008,0.079-0.012c0.064-0.011,0.129-0.018,0.195-0.023c0.048-0.005,0.098-0.008,0.147-0.011
			c-0.015-0.046-0.03-0.092-0.043-0.139C7.842,9.845,7.825,9.777,7.808,9.708C7.79,9.621,7.772,9.532,7.756,9.44
			C7.698,9.065,7.679,8.663,7.691,8.234c0.002-0.137,0.01-0.275,0.019-0.416C7.747,7.197,7.832,6.523,7.925,5.79z"/>
		<path fill="#0D002A" d="M6.54,26.26c-0.15,0.045-0.304,0.079-0.464,0.1c0.183,0.791,0.417,1.559,0.687,2.327
			c0.14,0.397,0.297,0.784,0.501,1.153c0.018,0.032,0.039,0.068,0.063,0.104c0.17-0.037,0.575-0.101,0.596-0.221
			c0.052-0.286-0.29-0.723-0.424-0.954C7.027,27.955,6.749,27.176,6.54,26.26z"/>
		<path fill="#0D002A" d="M10.707,19.695c-0.367,0.245-0.653,0.573-0.934,0.907c0.082,0.177,0.157,0.354,0.218,0.535
			c0.33-0.385,0.631-0.802,1.016-1.136c0.125-0.107,0.27-0.227,0.43-0.317c-0.229-0.149-0.483-0.113-0.728,0.011
			C10.707,19.693,10.707,19.693,10.707,19.695z"/>
		<path fill="#0D002A" d="M8.194,10.22c-0.031,0-0.061,0.001-0.092,0.002c-0.046,0.001-0.092,0.003-0.138,0.005
			c-0.033,0.002-0.069,0.004-0.103,0.007c-0.068,0.004-0.136,0.009-0.202,0.018c-0.032,0.004-0.064,0.009-0.095,0.014
			c-0.064,0.009-0.127,0.019-0.19,0.031c-0.018-0.037-0.036-0.077-0.052-0.123c-0.005-0.014-0.009-0.031-0.014-0.046
			C7.232,9.909,7.174,9.603,7.143,9.221C7.136,9.116,7.13,9.007,7.127,8.891C7.107,8.276,7.155,7.519,7.31,6.688
			c0.078-0.43,0.187-0.879,0.326-1.34c0-0.002,0-0.002,0-0.002c0.007-0.021,0.013-0.042,0.02-0.064
			C7.664,5.263,7.67,5.244,7.674,5.224C7.689,5.189,7.7,5.151,7.711,5.116C7.717,5.1,7.722,5.084,7.725,5.068
			c0.01-0.028,0.018-0.056,0.028-0.084C7.819,4.789,7.892,4.592,7.97,4.395C7.955,4.399,7.936,4.404,7.918,4.41
			c-0.209,0.069-0.45,0.195-0.707,0.37l0,0c-0.084,0.057-0.17,0.119-0.258,0.184C6.81,5.074,6.663,5.199,6.514,5.336
			C6.218,5.611,5.916,5.938,5.628,6.309C5.484,6.494,5.343,6.691,5.207,6.898c-0.117,0.18-0.244,0.389-0.37,0.623
			C4.809,7.572,4.784,7.636,4.756,7.689C4.658,7.88,4.56,8.074,4.47,8.292C4.432,8.385,4.404,8.491,4.368,8.588
			C4.296,8.784,4.222,8.977,4.165,9.189C4.133,9.31,4.119,9.442,4.093,9.568c-0.04,0.193-0.089,0.381-0.11,0.583
			c-0.003,0.025-0.057,0.537-0.029,0.685c0.001,0,0.003-0.001,0.004-0.001c0.01,0.474,0.08,0.965,0.235,1.462
			c0.025,0.07,0.052,0.142,0.08,0.212c-0.039,0.066-0.075,0.132-0.107,0.2c-0.079,0.152-0.147,0.31-0.206,0.471
			c-0.177,0.483-0.274,1.004-0.274,1.548c0,2.486,2.102,3.824,4.588,3.824c1.987,0,3.654-1.883,3.658-1.89
			c0.122-0.261,0.497-0.552,1.073-2.465c0.314-1.044,0.07-2.781-1.253-2.518c-0.013,0.003-0.11,0.055-0.168,0.084
			c-0.02,0.01-0.036,0.018-0.041,0.019c-0.051,0.012-0.051-0.038-0.029-0.098C10.69,10.785,9.506,10.22,8.194,10.22z"/>
		<path fill="#0D002A" d="M13.562,22.25c-0.143-0.299-0.319-0.583-0.455-0.884c-0.215-0.476-0.566-1.817-1.31-1.639
			c-0.027,0.004-0.054,0.013-0.082,0.023c-0.007,0.002-0.012,0.005-0.02,0.009c-0.029,0.009-0.055,0.021-0.082,0.032
			c-0.007,0.004-0.014,0.007-0.021,0.011c-0.349,0.161-0.634,0.431-0.897,0.734c-0.378,0.435-0.711,0.936-1.124,1.28
			c-0.088,0.073-0.215-0.054-0.127-0.127c0.147-0.122,0.281-0.256,0.408-0.396c-0.055-0.183-0.125-0.362-0.206-0.539
			c-0.027-0.061-0.055-0.122-0.086-0.184c-0.134-0.279-0.282-0.555-0.416-0.835c-0.074-0.338-0.176-0.692-0.341-1.077l-0.001,0v0
			c-0.188,0.028-0.382,0.039-0.577,0.04c-0.009,0-0.022,0.001-0.031,0.001c-0.165,0-0.326-0.009-0.485-0.027c0,0,0,0.001,0,0.001h0
			c0,0.007,0.002,0.014,0.002,0.023c0,0.571-0.059,1.157-0.363,1.656c-0.294,0.48-0.641,0.662-1.126,0.9
			c-0.85,0.419-1.647,1.194-1.876,2.123c-0.066,0.272-0.149,0.787-0.041,0.85c0,0,0,0.001,0,0.001c0,0.002,0,0.002,0,0.004
			c0.002,0.002,0.002,0.005,0.002,0.009c0.002,0.004,0.002,0.007,0.002,0.013c0,0.013-0.002,0.023-0.005,0.034
			c-0.1,0.356-0.095,0.753-0.102,1.122c-0.011,0.571-0.004,1.144,0.018,1.715c0.036,0.979,0.041,2.019,0.256,2.98
			c0.107,0.481,0.644,0.481,1.038,0.557c0.354,0.066,0.791,0.149,1.145,0.039c0.175-0.055,0.503-0.224,0.594-0.406
			c0.025-0.052-0.002-0.125-0.041-0.195c-0.036-0.064-0.081-0.127-0.102-0.166c-0.607-1.113-0.954-2.398-1.231-3.628
			c-0.016-0.075,0.054-0.12,0.111-0.109c0,0,0,0,0.002,0c0.005-0.002,0.013-0.004,0.02-0.004c0.95-0.107,1.813-0.728,2.459-1.403
			c0.548-0.571,1.054-1.244,1.299-2.006c-0.016,0.02-0.029,0.039-0.043,0.061c-0.063,0.095-0.219,0.005-0.155-0.091
			c0.285-0.433,0.786-0.657,1.281-0.863c0.047-0.02,0.093-0.039,0.14-0.057c0.217-0.089,0.43-0.179,0.617-0.286
			c0.013-0.226,0.045-0.451,0.1-0.675c0.027-0.111,0.199-0.064,0.172,0.048c-0.055,0.226-0.088,0.456-0.097,0.689
			c-0.023,0.406,0.02,0.816,0.12,1.208c0.018,0.068,0.039,0.125,0.066,0.177c0.03,0.064,0.068,0.116,0.113,0.159
			c0.251,0.249,0.675,0.186,1.06,0.086c0.209-0.055,0.625-0.138,0.594-0.433C13.719,22.612,13.646,22.426,13.562,22.25z"/>
		<path fill="#0D002A" d="M1.224,5.508c0.001,0.038-0.001,0.077,0.001,0.115C1.227,5.624,1.23,5.624,1.232,5.625
			c0,0,0,0.001,0,0.001C1.23,5.625,1.227,5.625,1.224,5.624C1.227,5.689,1.231,5.755,1.236,5.82c0.004,0.045,0.015,0.088,0.02,0.133
			c0.012,0.103,0.027,0.203,0.046,0.303c0.022,0.119,0.05,0.236,0.081,0.351c0.025,0.09,0.049,0.18,0.08,0.268
			c0.045,0.128,0.101,0.249,0.16,0.37C1.656,7.314,1.684,7.385,1.722,7.45c0.105,0.182,0.224,0.356,0.365,0.515
			C1.988,7.61,1.921,7.26,1.88,6.917C1.844,6.615,1.837,6.322,1.843,6.034C1.845,5.912,1.849,5.79,1.858,5.671
			C1.864,5.593,1.871,5.516,1.88,5.438c0.013-0.115,0.031-0.228,0.05-0.34c0.046-0.268,0.104-0.53,0.182-0.777
			c0.099-0.311,0.229-0.597,0.371-0.867c0.079-0.149,0.161-0.294,0.25-0.429c0.026-0.04,0.052-0.081,0.079-0.119
			c0.095-0.134,0.199-0.254,0.304-0.371c0.054-0.06,0.106-0.123,0.162-0.179c0.14-0.139,0.285-0.269,0.437-0.378
			C3.718,1.977,3.72,1.975,3.722,1.973c0.006-0.004,0.011-0.007,0.017-0.011c0.122-0.085,0.245-0.155,0.367-0.216
			C4.155,1.723,4.202,1.704,4.25,1.684c0.105-0.044,0.21-0.085,0.314-0.11c0.078-0.019,0.154-0.023,0.231-0.032
			c0.059-0.007,0.119-0.02,0.176-0.02c0.028,0,0.056,0.001,0.084,0.003C5.174,1.53,5.29,1.543,5.401,1.574
			c0.001,0,0.003,0,0.004,0.001c0.004,0,0.007,0,0.011,0.002c0.182,0.04,0.335,0.119,0.462,0.235
			C5.882,1.813,5.887,1.817,5.891,1.82c0.007,0.006,0.013,0.013,0.018,0.02c0.033,0.033,0.066,0.069,0.095,0.106
			C6.017,1.963,6.032,1.981,6.045,2c0.037,0.051,0.07,0.104,0.101,0.163C6.148,2.167,6.148,2.168,6.15,2.172
			c0.086,0.163,0.15,0.355,0.2,0.567c0.002,0.009,0.004,0.019,0.006,0.028C6.382,2.884,6.394,3.02,6.411,3.149
			c0.017,0.128,0.038,0.252,0.047,0.39c0.009,0.14,0.011,0.29,0.013,0.438c0.007,0.374,0.002,0.763-0.021,1.17
			c0.203-0.185,0.407-0.351,0.605-0.49C7.139,4.601,7.22,4.547,7.299,4.501c0.239-0.145,0.468-0.247,0.675-0.298
			c0.032-0.009,0.099-0.019,0.151-0.027c-0.003,0-0.007-0.002-0.01-0.001C8.131,4.172,8.146,4.171,8.16,4.171
			C8.164,4.17,8.168,4.169,8.171,4.169V4.168C8.177,4.167,8.184,4.167,8.19,4.167h0.001c0,0,0-0.001,0-0.001h0.001
			C8.198,3.865,8.189,3.574,8.17,3.289c-0.001-0.02,0-0.041-0.001-0.06c-0.004-0.06-0.008-0.12-0.013-0.179
			C8.15,2.99,8.139,2.934,8.132,2.875C8.12,2.779,8.108,2.683,8.093,2.59C8.088,2.556,8.085,2.52,8.079,2.487
			C8.068,2.426,8.057,2.365,8.045,2.306C8.04,2.28,8.029,2.26,8.023,2.234C7.962,1.963,7.889,1.703,7.788,1.471
			C7.618,1.084,7.396,0.773,7.121,0.54c-0.002,0-0.002-0.002-0.002-0.002C6.99,0.426,6.847,0.333,6.694,0.259
			C6.524,0.173,6.338,0.11,6.141,0.071c-0.226-0.046-0.45-0.066-0.67-0.068c-0.004,0-0.009-0.001-0.014-0.001
			c-0.073,0-0.146,0.002-0.218,0.006c0,0,0,0.001,0,0.001c-0.071,0.004-0.14,0.018-0.211,0.028C4.963,0.045,4.898,0.05,4.834,0.062
			c-0.01,0.002-0.021,0.002-0.031,0.004C4.725,0.082,4.647,0.098,4.57,0.119c-0.035,0.01-0.067,0.03-0.102,0.041
			c-0.167,0.052-0.33,0.119-0.489,0.197C3.922,0.385,3.863,0.408,3.807,0.439C3.593,0.559,3.386,0.697,3.189,0.864
			C3.182,0.87,3.175,0.878,3.167,0.885c-0.186,0.16-0.362,0.344-0.529,0.544C2.589,1.488,2.543,1.553,2.496,1.616
			c-0.123,0.161-0.24,0.332-0.351,0.516C2.119,2.174,2.088,2.208,2.063,2.252c-0.03,0.052-0.057,0.107-0.086,0.16c0,0,0,0,0.001,0
			c-0.029,0.054-0.059,0.104-0.087,0.16C1.86,2.635,1.832,2.7,1.803,2.763c0,0,0.001,0,0.001,0.001
			C1.777,2.82,1.751,2.876,1.727,2.935c-0.012,0.028-0.018,0.06-0.029,0.089C1.457,3.619,1.299,4.261,1.245,4.905
			c-0.003,0.033-0.013,0.066-0.015,0.1c0.003,0.001,0.006,0.001,0.009,0.003c0,0,0,0,0,0c-0.003-0.001-0.007-0.002-0.01-0.003
			C1.225,5.068,1.224,5.131,1.222,5.193c-0.001,0.03,0.001,0.059,0,0.089C1.221,5.357,1.222,5.433,1.224,5.508z"/>
		<path fill="#0D002A" d="M8.338,3.144c0.157-0.014,0.306-0.018,0.44-0.012c-0.031-0.497-0.109-0.93-0.253-1.259
			C8.305,1.368,7.98,1.006,7.581,0.764c0.142,0.184,0.265,0.395,0.37,0.634C8.168,1.895,8.288,2.493,8.338,3.144z"/>
		<path fill="#0D002A" d="M8.366,3.94c0,0.06-0.001,0.12-0.002,0.18c-0.013,0.663-0.079,1.357-0.18,2.043
			c-0.03,0.221-0.067,0.442-0.106,0.659C8.021,7.143,7.958,7.54,7.891,7.864C7.864,8.333,7.863,8.767,7.908,9.172
			C7.918,9.27,7.931,9.365,7.95,9.46c0.001,0.008,0.003,0.016,0.005,0.025c0.315-1.43,0.767-3.64,0.831-5.419
			c0.002-0.06,0.004-0.12,0.005-0.179c0.004-0.199,0.003-0.391-0.004-0.576c-0.129-0.007-0.276-0.006-0.436,0.01
			C8.362,3.523,8.367,3.73,8.366,3.94z"/>
		<path fill="#0D002A" d="M5.551,1.843C5.462,1.799,5.374,1.752,5.276,1.731c-0.002,0-0.004-0.002-0.006-0.002
			c-0.057-0.012-0.115-0.02-0.174-0.025C5.03,1.699,4.962,1.706,4.894,1.71C4.865,1.712,4.838,1.709,4.809,1.713
			C4.67,1.729,4.528,1.769,4.384,1.823C4.349,1.836,4.313,1.852,4.277,1.868c-0.15,0.066-0.301,0.145-0.45,0.251
			c-0.164,0.116-0.319,0.256-0.469,0.41C3.317,2.571,3.28,2.62,3.24,2.665c-0.107,0.12-0.209,0.246-0.305,0.384
			C2.918,3.074,2.896,3.094,2.879,3.12c-0.033,0.049-0.064,0.1-0.095,0.151C2.768,3.296,2.755,3.324,2.74,3.35
			C2.707,3.406,2.675,3.463,2.644,3.521C2.628,3.552,2.61,3.581,2.594,3.612L2.513,3.78C2.503,3.801,2.499,3.826,2.49,3.847
			C2.367,4.125,2.262,4.418,2.184,4.733C2.179,4.756,2.176,4.78,2.171,4.803c-0.069,0.297-0.112,0.61-0.134,0.934
			C2.035,5.774,2.024,5.806,2.022,5.843C2.019,5.906,2.016,5.968,2.015,6.031c0,0.01,0.001,0.021,0,0.031
			C2.015,6.11,2.017,6.159,2.018,6.208c0.001,0.085-0.001,0.169,0.004,0.255c0.003,0.065,0.01,0.13,0.015,0.196h0
			c0.007,0.08,0.012,0.158,0.021,0.239c0,0.002,0.002,0.004,0.002,0.004C2.191,7.447,2.433,7.949,2.8,8.361
			C2.716,8.06,2.661,7.765,2.619,7.473C2.602,7.351,2.596,7.232,2.586,7.112C2.568,6.914,2.551,6.716,2.552,6.524
			c0-0.062,0.003-0.123,0.005-0.185c0.006-0.178,0.025-0.351,0.045-0.523C2.628,5.605,2.664,5.4,2.71,5.201
			c0.022-0.095,0.041-0.192,0.067-0.285c0.065-0.23,0.144-0.449,0.233-0.66C3.038,4.19,3.06,4.117,3.09,4.053
			C3.101,4.03,3.111,4.006,3.123,3.982C3.22,3.784,3.33,3.599,3.446,3.424c0.123-0.185,0.257-0.351,0.398-0.508
			c0.022-0.025,0.042-0.055,0.064-0.079C4.075,2.66,4.252,2.503,4.437,2.372c0.199-0.142,0.4-0.247,0.6-0.323
			c0.012-0.004,0.024-0.011,0.036-0.016c0.016-0.006,0.031-0.009,0.047-0.015C5.18,1.999,5.24,1.985,5.3,1.971
			c0.116-0.027,0.231-0.044,0.344-0.049c0.019-0.001,0.039-0.005,0.058-0.005c0.005,0,0.01-0.001,0.014,0c0,0-0.001,0-0.001-0.001
			c0.001,0,0.002,0,0.002,0C5.714,1.913,5.709,1.913,5.705,1.91c-0.01-0.006-0.02-0.011-0.03-0.017c0,0,0,0,0,0
			C5.636,1.869,5.591,1.862,5.551,1.843z"/>
		<path fill="#0D002A" d="M8.35,3.321c0.161-0.015,0.308-0.017,0.437-0.01C8.785,3.25,8.782,3.191,8.778,3.132
			C8.644,3.126,8.495,3.13,8.338,3.145C8.343,3.203,8.347,3.262,8.35,3.321z"/>
		<path fill="#0D002A" d="M3.772,22.19c-0.469-1.085-1.292-2.377-2.001-3.29c-0.379-0.49-0.726-0.872-0.966-1.047
			c-0.131-0.097-0.174-0.089-0.174-0.089c-0.2,0.528,0.206,1.972,0.283,2.226C1.802,20.4,3.056,21.318,3.772,22.19z"/>
		<path fill="#0D002A" d="M4.152,23.449v-0.002C4.15,23.444,4.15,23.442,4.15,23.439c-0.002-0.005-0.004-0.013-0.004-0.02
			c0-0.004,0-0.007,0-0.011c0.02-0.149-0.021-0.32-0.109-0.505c-0.46-0.965-2.194-2.294-3.252-2.772
			C0.619,20.054,0.468,20,0.343,19.972c-0.106-0.025-0.286-0.052-0.319,0.043c-0.122,0.37,0.19,1.899,1.165,3.028
			c0.557,0.643,1.512,1.355,2.933,1.135c-0.027-0.251-0.015-0.494,0.032-0.727C4.152,23.451,4.152,23.451,4.152,23.449z"/>
		<path fill="#0D002A" d="M2.817,18.862c-0.347-0.521-0.549-0.694-0.621-0.732c-0.17,0.315-0.231,0.639-0.242,0.696
			c0.884,1.144,1.904,2.839,2.255,4.027c0,0.002,0.002,0.005,0.002,0.009c0.004,0.009,0.009,0.016,0.011,0.025
			C4.276,21.654,3.578,20.004,2.817,18.862z"/>
		<path fill="#0D002A" d="M4.222,22.9c0-0.004,0-0.009,0-0.012c-0.002-0.009-0.007-0.016-0.011-0.025
			C4.217,22.875,4.22,22.888,4.222,22.9z"/>
		<rect x="-14.671" y="-4.875" fill="#777D7F" width="0.083" height="0.125"/>
	</g>
</g>
</svg>
