<?xml version="1.0" encoding="utf-8"?>
<!-- Generator: Adobe Illustrator 17.0.0, SVG Export Plug-In . SVG Version: 6.00 Build 0)  -->
<!DOCTYPE svg PUBLIC "-//W3C//DTD SVG 1.1//EN" "http://www.w3.org/Graphics/SVG/1.1/DTD/svg11.dtd">
<svg version="1.1" id="Layer_1" xmlns="http://www.w3.org/2000/svg" xmlns:xlink="http://www.w3.org/1999/xlink" x="0px" y="0px"
	 width="795.5px" height="216.691px" viewBox="0 0 795.5 216.691" enable-background="new 0 0 795.5 216.691" xml:space="preserve">
<g opacity="0.5">
	<g>
		<path fill="#C0C7C9" d="M435.144,33.112c-0.716,0-3.812,5.374-3.812,5.374l43.252,61.631
			C474.584,100.117,435.86,33.112,435.144,33.112z"/>
		<polygon fill="#0F1D22" points="343.328,89.553 330.134,89.553 338.398,97.034 		"/>
		<polygon fill="#0F1D22" points="343.498,101.651 344.496,102.553 364.123,102.553 361.703,106.133 373.654,107.165 
			377.617,101.15 		"/>
		<path fill="#C0C7C9" d="M372.728,40.929c0,0-45.802-24.82-46.995-24.641s-10.675,15.396-10.675,15.396l38.929,41.692
			L372.728,40.929z"/>
		<path fill="#C0C7C9" d="M283.911,51.188c1.253-0.805,4.364,0.861,4.912,0.968s2.537,2.81,3.242,2.935s15.416-19.641,15.416-19.641
			s-20.757-24.873-21.805-25.552c-1.048-0.679-14.21,1.396-15.638,2.103c-1.428,0.708-7.114,18.289-8.14,19.321
			c-1.026,1.032-4.441,4.468-4.441,4.468l17.017,26.113C274.474,61.903,282.659,51.994,283.911,51.188z"/>
		<polygon fill="#0F1D22" points="483.947,116.023 477.364,116.119 484.359,116.723 		"/>
		<path fill="#C0C7C9" d="M421.76,34.154l0.466-0.419c0,0-4.144-5.933-4.621-6.172s-6.383,1.074-7.159,1.432
			c-0.776,0.358-1.741,3.233-1.741,3.233l6.437,11.97L421.76,34.154z"/>
		<path fill="#72787A" d="M485.729,115.997l-11.145-15.88l-43.252-61.631c0,0-4.568-7.751-5.568-7.934
			c-1-0.184-3.538,3.184-3.538,3.184l-0.466,0.419l-6.618,10.044l-6.437-11.97c0,0-8.52-17.431-9.534-17.729
			c-1.014-0.298-12.469,3.341-13.244,3.579s-13.199,22.851-13.199,22.851l-18.741,32.447c0,0-40.455-44.738-41.439-44.38
			c-0.984,0.358-19.98,26.105-20.482,26.095c-0.503-0.01-2.326-3.395-2.844-3.515s-5.101-1.193-5.518-1.014
			s-9.229,11.342-9.229,11.342L257.457,35.79c0,0-9.967-17.444-11.309-17.354s-7.89,5.101-8.733,6.347
			c-0.842,1.246-60.516,89.53-60.516,89.53h133l-2.419-3.579h46.053l-9.037-8.18l-0.997-0.903l34.119-0.5l-3.963,6.015l-6.97,10.578
			l110.68-1.623l6.583-0.097L485.729,115.997z M343.328,89.553l-4.929,7.481l-8.264-7.481H343.328z"/>
	</g>
	<polygon fill="#0F1D22" points="338.398,97.034 343.328,89.553 330.134,89.553 	"/>
</g>
<path fill="#F5E480" d="M689.757,167.275c-8.81-3.435-17.616-6.712-26.413-9.835H81.472c-4.438,3.178-8.883,6.455-13.448,9.835
	c-3.579,2.65-7.232,5.363-11.015,8.142h652.925C703.209,172.609,696.482,169.897,689.757,167.275z"/>
<path fill="#D0A174" d="M725.818,187.008c10.787,8.216,21.55,17.127,32.255,26.772h21.476"/>
<path fill="#D0A174" d="M41.808,185.286c-17.298,8.216-48.192,25.368-40.64,28.22c11.479,4.666,191.356,3.161,377.189,1.967
	c197.239,0.629,402.453,0.695,412.085-1.693c22.423-6.026-35.903-18.556-53.944-26.772c-8.847-4.029-17.704-7.893-26.563-11.592
	H57.009c-0.046,0.034-0.092,0.068-0.139,0.102"/>
<path fill="#108042" d="M497.364,118.862c0,0-50.682-89.449-51.678-89.509c-0.996-0.06-9.747,7.349-10.204,8.177
	c-0.457,0.828-22.337,40.572-23.508,40.717c-1.171,0.145-43.01-75.906-45.29-77.232s-17.865-1.313-20.968,0
	s-48.219,75.701-49.792,75.853s-22.933-26.234-23.856-26.673c-0.924-0.439-10.18,2.069-10.593,2.693
	c-0.412,0.625-6.529,9.984-7.617,9.988c-1.088,0.004-12.145-16.001-12.851-16.678c-0.706-0.678-8.64-2.945-10.311-2.945
	s-9.113,2.386-10.164,2.983c-1.051,0.597-41.132,61.262-41.132,61.262h34.547l-4.655,5.204h118.682l-9.777-10.931h80.195
	l-9.868,17.091H497.364z"/>
<path fill="#14592F" d="M203.716,71.282c0,0,5.384,7.647,6.368,7.826c0.984,0.179,4.325-3.699,5.369-3.848
	c1.044-0.149,7.62,1.23,8.27,1.913c0.649,0.682,0.172,2.413,1.216,2.741c1.044,0.328,9.635-7.308,10.768-7.069
	s9.903,9.247,11.246,9.128s7.922-9.098,8.987-9.262c1.065-0.164,7.867-1.775,9-1.387c1.133,0.388,15.153,15.481,17.42,15.481
	s5.25-8.71,7.159-8.829s7.636,9.844,9.307,9.665c1.67-0.179,18.017-24.042,19.18-24.907s5.009-1.926,6.264-0.895
	c1.255,1.031,9.814,9.277,11.007,9.038c1.193-0.239,10.442-16.199,12.529-17.198s5.309-1.296,7.248,0.016
	c1.939,1.312,9.217,14.676,10.709,14.616c1.491-0.06,12.349-7.517,13.9-7.368c1.551,0.149,15.988,23.833,17.599,23.714
	c1.611-0.119,3.233-6.207,4.008-6.652c0.775-0.445,2.164-2.086,2.697-1.546s8.508,10.942,10.357,10.465s7.994-15.392,9.187-16.316
	c1.193-0.925,7.815-4.922,8.949-4.027c1.134,0.895,3.758,13.97,5.727,14.054c1.969,0.085,6.92-10.773,7.875-11.101
	c0.955-0.328,6.628,0.959,7.069,1.521c0.442,0.563,11.424,16.525,12.737,16.227c1.312-0.298,2.088-5.846,3.371-7.278
	c1.283-1.432,4.827-1.494,4.827-1.494l5.617,9.728l17.035,29.505l-317.088-10.491L203.716,71.282z"/>
<path fill="#146735" d="M145.028,125.7c0,0,29.673-23.581,50.673-24.655c21-1.074,15.419,2.377,46.441,1.542
	s32.868-10.251,62.817-10.132s28.991,6.353,57.985,6.711c28.994,0.358,27.32-4.415,62.28-3.221
	c34.96,1.193,51.332,23.892,79.729,24.966C533.349,121.984,145.028,125.7,145.028,125.7z"/>
<path fill="#1BAF63" d="M137.321,126.058h4.073c2.498,0.972,5.187,1.894,7.877,2.383c3.036,0.828,6.072,0.828,9.108,0.552
	c3.312-0.276,6.624-0.828,9.936-1.104c3.588-0.552,7.176-0.552,11.04-0.276c7.176,0.276,14.628,1.656,22.08,1.932
	c6.9,0,13.8-0.828,20.7-0.552c7.176,0.552,14.352,1.656,21.528,2.208c7.452,0.276,14.904-0.552,22.632-1.104
	c6.624-0.552,13.248-0.828,20.148-1.104c6.9,0,14.076-0.552,20.976-0.552c6.9-0.276,13.8,0.276,20.7,0.552
	c6.9,0,14.076-0.276,21.252-0.276c7.452-0.276,14.904,0,22.356,0.552c7.452,0.552,15.18,0.828,22.632,0.276
	c5.244-0.276,10.488-1.38,15.732-1.656c5.244-0.276,10.764,0.552,15.732,0.828c11.316,1.104,22.356,1.104,33.672,1.104
	c5.796,0,11.592,0,17.388-0.552c6.072-0.276,12.144-1.104,18.216-1.38c6.072-0.276,12.42,0,18.492,0.276
	c7.452,0.276,15.18,0.276,22.632-0.828c2.619-0.218,5.237-0.78,7.856-1.279h8.723c-16.93-3.742-33.709-6.959-50.283-9.681
	c-11.938,0.033-15.118-10.368-30.502-11.861c-14.447-1.402-31.022,2.811-54.05,2.334c-20.582-1.611-35.304-10.71-50.695-9.457
	c-25.235,1.432-40.76,9.824-60.984,9.824c-28.58,0-48.323-5.831-60.493-5.708c-19.329-0.123-43.079,9.053-58.703,12.739
	L137.321,126.058z"/>
<g>
	<path fill="none" d="M626.121,147.105c-0.106,0.01-0.21,0.021-0.314,0.035C625.91,147.126,626.016,147.117,626.121,147.105z"/>
	<path fill="#149754" d="M100.732,147.364c3.38-0.535,9.651-0.723,12.702,0.264c4.227,1.368,8.603,0.173,12.934,0.675
		c3.333,0.386,5.812,2.794,8.95,3.734c4.875,1.459,8.922-0.748,13.518-1.948c3.253-0.849,5.814-0.752,9.08-0.014
		c4.5,1.016,9.041,1.497,13.657,1.446c4.175-0.046,8.312-0.732,12.483-0.785c4.911-0.062,9.788,1.253,14.677,0.439
		c3.558-0.592,7.113-1.735,10.712-2.008c1.973-0.15,3.96-0.128,5.906,0.277c2.11,0.439,4.288,1.174,6.459,1.138
		c3.875-0.065,7.803-1.072,11.676-0.62c8.65,1.01,16.891-1.087,25.506-1.083c4.5,0.002,8.914,0.881,13.399,1.148
		c4.206,0.251,8.318-0.252,12.506-0.207c4.471,0.048,8.87,1.192,13.335,1.21c4.033,0.016,7.464-1.606,11.364-2.032
		c1.848-0.202,3.605,0.031,5.348,0.343c0.858,0.14,1.716,0.309,2.571,0.473c1.259,0.218,2.53,0.386,3.842,0.37
		c3.717-0.044,7.253-1.822,10.991-1.477c2.819,0.26,5.362,0.398,8.187-0.066c1.702-0.28,3.397-0.63,5.125-0.717
		c4.275-0.214,9.301,1.754,13.155-0.602c2.787-1.704,4.978-3.705,8.407-3.342c3.914,0.415,7.391,2.015,11.431,2.053
		c2.429,0.023,4.871-0.062,7.29,0.202c2.316,0.253,4.562,0.468,6.873,0c3.471-0.703,6.689-2.184,10.198-2.685
		c2.699-0.385,5.921-1.598,8.55-0.323c2.754,1.337,4.453,0.862,7.191,0.294c0.783-0.163,1.947-0.165,2.682,0.262
		c2.337,1.355,4.134,2.737,7.023,2.705c1.47-0.017,2.739,0.183,4.11,0.751c1.931,0.801,5.115,2.279,7.224,1.599
		c1.65-0.533,2.849-1.748,4.544-2.108c0.759-0.161,1.693,0.5,2.17,1.012c0.636,0.684,1.316,1.438,2.066,2.072
		c0.456,0.348,0.918,0.678,1.389,0.949c0.989,0.505,2.097,0.693,3.369,0.253c2.878-0.995,5.917-2.916,9.006-3.148
		c1.461-0.11,2.413,0.2,3.624,1.001c2.474,1.635,4.737,0.936,7.322,0.274c3.094-0.792,6.153-1.033,9.204,0.062
		c2.331,0.837,5.249,1.694,7.681,0.798c1.668-0.614,3.352-1.564,5.11-1.914c2.539-0.505,4.34-0.15,6.363,1.451
		c2.709,2.143,5.035,0.19,7.921-0.017c1.821-0.13,3.744-0.671,5.562-0.566c2.264,0.131,4.448,1.358,6.761,0.672
		c1.605-0.476,3.17-0.989,4.858-1.04c3.926-0.118,7.654-1.203,11.468,0.042c2.353,0.768,4.38,0.499,6.768,0.248
		c2.053-0.216,3.997-0.134,6.049,0.001c2.865,0.188,4.34-1.022,6.891-1.835c1.555-0.495,3.215-0.169,4.736-0.712
		c1.211-0.433,2.779-1.23,4.118-1.077c1.653,0.188,3.087,0.931,4.702,1.276c2.838,0.607,5.104,0.437,7.951,0.221
		c1.709-0.13,2.727,0.382,4.34,0.753c3.621,0.832,7.373-1.48,11.079-0.674c1.477,0.322,3.007,0.755,4.485,0.171
		c0.754-0.298,1.394-0.52,2.201-0.632c0.736-0.102,1.595,0.426,2.224,0.752c3.045,1.576,4.036-0.451,6.562-1.139
		c1.153-0.314,2.394,0.682,3.414,0.983c2.421,0.715,4.427-0.454,6.795-0.584c0.494-0.027,1.137,0.309,1.587,0.446
		c1.231,0.377,2.415,0.482,3.696,0.312c0.104-0.014,0.209-0.025,0.314-0.035c1.513-0.166,3.211-0.129,4.88-0.205
		c1.797-0.319-10.919-3.373-16.366-4.972c-10.072-2.958-20.114-5.723-30.115-8.301c-10.594-2.73-21.143-5.251-31.633-7.569H137.41
		c-5.889,2.441-11.371,4.962-16.552,7.569c-5.318,2.676-10.321,5.442-15.125,8.301c-2.476,1.473-4.938,2.92-7.324,4.444
		c-0.081,0.079-0.082,0.085-0.018,0.116l0.081-0.049C99.378,146.039,98.716,147.683,100.732,147.364z"/>
	<path fill="#52B580" d="M634.177,147.899c-0.989-0.314-1.977-0.623-2.965-0.933l-0.21-0.066c-1.67,0.076-3.367,0.039-4.88,0.205
		c-0.105,0.012-0.211,0.021-0.314,0.035c-1.281,0.169-2.465,0.065-3.696-0.312c-0.449-0.138-1.093-0.474-1.587-0.446
		c-2.368,0.13-4.374,1.299-6.795,0.584c-1.02-0.301-2.261-1.297-3.414-0.983c-2.526,0.688-3.517,2.716-6.562,1.139
		c-0.629-0.326-1.488-0.854-2.224-0.752c-0.806,0.112-1.446,0.333-2.201,0.632c-1.478,0.585-3.008,0.151-4.485-0.171
		c-3.706-0.807-7.458,1.506-11.079,0.674c-1.613-0.371-2.631-0.882-4.34-0.753c-2.847,0.216-5.113,0.386-7.951-0.221
		c-1.615-0.346-3.049-1.088-4.702-1.276c-1.339-0.152-2.907,0.644-4.118,1.077c-1.52,0.543-3.181,0.217-4.736,0.712
		c-2.551,0.813-4.026,2.022-6.891,1.835c-2.051-0.134-3.995-0.216-6.049-0.001c-2.387,0.251-4.414,0.521-6.768-0.248
		c-3.814-1.245-7.542-0.16-11.468-0.042c-1.688,0.051-3.253,0.564-4.858,1.04c-2.314,0.687-4.497-0.541-6.761-0.672
		c-1.818-0.105-3.742,0.436-5.562,0.566c-2.886,0.207-5.212,2.16-7.921,0.017c-2.023-1.6-3.825-1.956-6.363-1.451
		c-1.758,0.35-3.442,1.299-5.11,1.914c-2.431,0.896-5.35,0.039-7.681-0.798c-3.051-1.095-6.11-0.854-9.204-0.062
		c-2.585,0.662-4.848,1.361-7.322-0.274c-1.211-0.801-2.163-1.111-3.624-1.001c-3.089,0.232-6.127,2.153-9.006,3.148
		c-1.272,0.44-2.38,0.252-3.369-0.253c-0.471-0.271-0.933-0.601-1.389-0.949c-0.75-0.635-1.43-1.389-2.066-2.072
		c-0.476-0.512-1.411-1.173-2.17-1.012c-1.696,0.36-2.894,1.576-4.544,2.108c-2.108,0.68-5.292-0.798-7.224-1.599
		c-1.371-0.569-2.639-0.768-4.11-0.751c-2.889,0.033-4.686-1.35-7.023-2.705c-0.735-0.426-1.899-0.424-2.682-0.262
		c-2.738,0.568-4.436,1.043-7.191-0.294c-2.629-1.275-5.851-0.062-8.55,0.323c-3.509,0.501-6.727,1.982-10.198,2.685
		c-2.311,0.468-4.557,0.252-6.873,0c-2.419-0.264-4.86-0.179-7.29-0.202c-4.04-0.038-7.518-1.639-11.431-2.053
		c-3.429-0.363-5.62,1.638-8.407,3.342c-3.854,2.356-8.88,0.388-13.155,0.602c-1.728,0.086-3.423,0.437-5.125,0.717
		c-2.824,0.464-5.368,0.326-8.187,0.066c-3.738-0.345-7.274,1.433-10.991,1.477c-1.312,0.016-2.583-0.153-3.842-0.37
		c-0.855-0.164-1.712-0.334-2.571-0.473c-1.743-0.311-3.5-0.544-5.348-0.343c-3.9,0.426-7.331,2.048-11.364,2.032
		c-4.465-0.018-8.864-1.162-13.335-1.21c-4.188-0.045-8.3,0.458-12.506,0.207c-4.485-0.268-8.899-1.146-13.399-1.148
		c-8.615-0.004-16.856,2.093-25.506,1.083c-3.874-0.452-7.802,0.555-11.676,0.62c-2.171,0.036-4.348-0.699-6.459-1.138
		c-1.946-0.405-3.932-0.427-5.906-0.277c-3.598,0.273-7.154,1.416-10.712,2.008c-4.889,0.813-9.766-0.501-14.677-0.439
		c-4.172,0.053-8.308,0.738-12.483,0.785c-4.615,0.051-9.156-0.43-13.657-1.446c-3.266-0.738-5.827-0.835-9.08,0.014
		c-4.596,1.2-8.643,3.407-13.518,1.948c-3.138-0.939-5.617-3.347-8.95-3.734c-4.331-0.502-8.706,0.693-12.934-0.675
		c-3.051-0.987-9.322-0.798-12.702-0.264c-2.015,0.319-1.353-1.326-2.26-0.926l-0.081,0.049l-0.744,0.452
		c-0.496,0.319-0.994,0.638-1.487,0.959c-4.894,3.188-17.801,9.533-14.074,10.191c0.032,0.006,0.113,0.011,0.232,0.017
		c1.08,0.708,2.152,1.175,3.451,1.402c1.498,0.262,3.056-0.088,4.532,0.289c1.374,0.351,2.297,1.721,3.587,2.29
		c1.064,0.47,2.301-0.007,3.22-0.574c0.586-0.362,1.122-0.784,1.737-1.102c0.933-0.483,1.906-0.398,2.896-0.168
		c0.64,0.148,1.286,0.426,1.942,0.489c0.862,0.083,1.718,0.056,2.581-0.001c0.774-0.051,1.541-0.123,2.318-0.091
		c0.876,0.036,1.747,0.175,2.622,0.23c1.248,0.078,2.443-0.35,3.559-0.874c-0.172,0.495-0.003,0.945,0.71,1.001
		c0.911,0.071,1.293-0.305,1.316-1.121c0.519,0.136,1.03,0.289,1.517,0.52c0.517,0.246,0.95,0.666,1.402,1.012
		c0.943,0.723,1.88,1.169,3.033,1.432c0.895,0.204,1.74,0.004,2.438-0.587c0.366-0.31,0.618-0.714,0.886-1.103
		c0.52-0.755,1.32-0.928,2.172-1.037c2.063,0.431,4.068,0.996,6.113,1.495c1.852,0.452,3.499,0.319,5.092-0.759
		c0.817-0.553,1.647-0.963,2.661-0.938c1.195,0.03,2.401,0.44,3.575,0.649c0.863,0.154,1.702,0.18,2.574,0.219
		c1.01,0.046,2.053,0.089,3.048-0.128c0.94-0.205,1.835-0.651,2.742-0.964c1.256-0.434,2.332-0.39,3.519,0.212
		c0.697,0.353,1.411,0.852,2.204,0.95c1.057,0.13,2.048-0.079,3.053-0.402c1.013-0.326,1.987-0.592,3.051-0.701
		c1.106-0.113,2.224-0.077,3.332-0.023c1.065,0.052,2.045,0.331,3.05,0.659c0.855,0.279,1.693,0.436,2.588,0.281
		c0.747-0.129,1.45-0.536,2.144-0.819c0.939-0.383,1.908-0.357,2.882-0.192c0.007,0.047,0.035,0.091,0.094,0.109
		c0.848,0.252,1.611,0.414,2.501,0.359c1.055-0.065,2.063-0.381,3.13-0.367c0.993,0.013,2.008,0.271,2.994,0.399
		c1.105,0.144,2.236,0.191,3.35,0.171c0.927-0.016,1.84-0.195,2.754-0.33c1.155-0.17,2.327-0.254,3.493-0.305
		c2.227-0.096,4.448-0.306,6.677-0.383c2.081-0.072,4.153,0.363,6.225,0.055c1.023-0.152,2.01-0.434,3.048-0.489
		c1.092-0.058,2.197,0.003,3.288,0.052c1.104,0.049,2.022,0.376,3.002,0.859c0.7,0.345,1.39,0.556,2.172,0.413
		c0.903-0.165,1.559-0.831,2.519-0.892c1.094-0.069,2.18,0.493,3.236,0.702c1.175,0.233,2.425,0.284,3.607,0.091
		c1.517-0.248,2.989-0.741,4.524-0.873c1.336-0.115,2.666,0.189,3.99,0.326c1.386,0.144,2.799,0.113,4.18-0.058
		c0.012-0.001,0.021-0.007,0.031-0.01c0.022,0.008,0.047,0.011,0.075,0.005c0.604-0.133,1.158-0.268,1.672,0.186
		c0.275,0.243,0.526,0.508,0.809,0.742c0.552,0.457,1.17,0.747,1.855,0.937c1.262,0.35,2.814,0.361,3.476-0.905
		c0.696,0.446,1.384,0.881,2.187,1.109c0.8,0.227,1.812-0.013,2.556-0.316c0.943-0.385,1.752-1.02,2.692-1.409
		c1.187-0.491,2.387,0.506,3.355,1.065c0.754,0.436,1.498,0.656,2.364,0.716c1.123,0.079,2.275,0.09,3.401,0.11
		c2.013,0.036,4.02-0.558,5.792-1.478c0.018,0.004,0.039,0.005,0.061,0.001c1.119-0.205,2.239-0.385,3.377-0.442
		c1.214-0.061,2.366,0.14,3.539,0.427c2.053,0.502,3.99,1.005,6.121,0.815c2.168-0.194,4.249-0.932,6.408-1.216
		c2.173-0.286,4.275,0.047,6.431,0.31c2.177,0.266,4.313,0.337,6.499,0.148c2.218-0.192,4.398-0.246,6.623-0.242
		c2.182,0.004,4.364,0.129,6.544,0.005c2.217-0.126,4.422-0.399,6.635-0.566c2.155-0.162,4.223-0.137,6.361,0.196
		c2.063,0.321,4.098,0.777,6.181,0.963c2.112,0.188,4.103-0.039,6.149-0.565c2.183-0.562,4.404-0.754,6.655-0.664
		c2.27,0.091,4.448,0.602,6.66,1.065c1.98,0.415,3.96,0.537,5.966,0.239c2.143-0.318,4.229-1.018,6.405-1.1
		c2.09-0.079,4.192,0.252,6.254,0.583c0.016,0.019,0.036,0.035,0.066,0.044c0.925,0.257,1.859,0.442,2.814,0.537
		c1.024,0.101,2.084-0.176,3.055-0.468c1.047-0.314,2.086-0.644,3.181-0.741c1.117-0.099,2.256,0.053,3.37,0.128
		c1.015,0.068,2.046,0.116,3.063,0.083c1.139-0.036,2.238-0.14,3.38-0.053c2.112,0.161,4.17,0.49,6.29,0.202
		c1.007-0.137,2-0.355,3.003-0.516c1.241-0.199,2.483-0.037,3.714,0.154c0.94,0.146,1.887,0.279,2.839,0.308
		c1.13,0.035,2.249-0.148,3.368-0.271c2.145-0.234,4.234,0.516,6.38,0.458c1.03-0.028,2.054-0.172,3.083-0.22
		c1.104-0.051,2.2,0.094,3.293,0.227c1.02,0.124,2.022,0.21,3.048,0.126c1.035-0.084,2.059-0.286,3.078-0.477
		c1.086-0.204,2.172-0.405,3.278-0.45c1.096-0.044,2.195,0.079,3.28,0.218c2.13,0.273,4.309,0.127,6.448,0.334
		c1.009,0.098,2.031,0.2,3.045,0.137c0.961-0.06,1.896-0.388,2.825-0.614c2.381-0.579,4.564,0.012,6.921,0.376
		c2.046,0.316,3.936,0.155,5.957-0.208c2.193-0.394,4.274-0.072,6.462,0.177c2.115,0.24,4.27-0.056,6.391-0.094
		c0.68-0.012,1.36,0.026,2.04,0.03c2.207-0.215,4.361-0.223,6.487,0.487c1.896,0.633,3.598,1.439,5.638,1.466
		c2.07,0.027,4.229-0.239,6.276-0.535c2.244-0.325,4.389-1.003,6.665-1.163c1.054-0.074,2.111-0.054,3.161,0.048
		c1.169,0.113,2.285,0.451,3.431,0.683c2.003,0.406,4.154,0.222,6.182,0.141c2.07-0.083,4.107-0.445,6.093-1.032
		c2.21-0.654,4.277-1.205,6.598-0.876c2.059,0.292,4.059,0.845,6.134,1.058c2.188,0.225,4.368,0.179,6.552-0.063
		c2.181-0.242,4.333-0.428,6.53-0.385c1.02,0.02,2.043,0.04,3.059,0.143c1.126,0.114,2.231,0.458,3.332,0.714
		c1.967,0.457,3.966,0.452,5.907-0.144c1.053-0.323,2.111-0.629,3.217-0.682c1.203-0.058,2.422,0.218,3.598,0.439
		c2.086,0.394,4.021,0.543,6.136,0.266c2.183-0.286,4.343-0.559,6.547-0.635c1.464-0.05,2.94-0.018,4.402-0.13
		c0.029,0.043,0.08,0.071,0.144,0.058c1.623-0.334,3.095-0.152,4.684,0.239c0.661,0.162,1.31,0.354,1.983,0.466
		c0.64,0.107,1.306,0.059,1.952,0.059c1.215,0,2.232-0.394,3.323-0.898c0.782-0.361,1.524-0.682,2.398-0.702
		c0.75-0.017,1.442,0.206,2.128,0.472c-0.521,0.497-0.545,1.077,0.192,1.523c0.756,0.457,1.278,0.013,1.477-0.694
		c0.787,0.309,1.811,0.847,2.251-0.076c0.497,0.206,0.988,0.508,1.542,0.46c0.135-0.012,0.268-0.086,0.388-0.143
		c0.492-0.232,0.856-0.263,1.387-0.137c0.705,0.168,1.168-0.114,1.363-0.705c2.162-0.087,4.314-0.186,6.466-0.421
		c1.085-0.118,2.172-0.163,3.253,0.023c1.048,0.181,2.048,0.675,3.053,1.009c1.887,0.627,3.736,0.439,5.574-0.236
		c0.867-0.318,1.713-0.673,2.614-0.886c1.201-0.283,2.409-0.094,3.607,0.096c0.941,0.149,1.884,0.243,2.838,0.224
		c1.115-0.022,2.202-0.206,3.323-0.164c2.095,0.079,4.042,0.926,6.129,1.047c2.175,0.126,4.261-0.745,6.394-1.007
		c1.869-0.23,3.78,0.69,5.482-0.434c0.337-0.222,0.628-0.516,0.912-0.802c0.893-0.001,1.357-0.002,1.357-0.002
		C653.785,154.308,643.97,151.01,634.177,147.899z"/>
</g>
<g>
	<path fill="none" d="M366.946,1.575c-0.4,1.121-5.507,2.696-10.845,2.696c-4.804,0-9.365-1.254-10.517-2.32
		c0.015,0.124,0.035,0.246,0.07,0.364c0.109,0.366,0.344,0.517,0.631,0.724c0.282,0.203,0.45,0.508,0.644,0.786
		c0.255,0.365,0.5,0.565,1.009,0.335c0.138-0.062,0.319-0.16,0.478-0.14c0.271,0.035,0.458,0.15,0.64,0.354
		c0.228,0.255,0.58,0.81,0.993,0.651c0.274-0.105,0.572-0.44,0.888-0.416c0.682,0.052,0.78,0.879,1.318,1.156
		c0.842,0.434,1.143-1.243,2.008-0.876c0.331,0.141,0.541,0.717,0.733,0.987c0.56,0.784,1.015-0.124,1.488-0.36
		c0.305-0.153,0.622-0.182,0.926,0.015c0.273,0.177,0.624,0.451,0.962,0.265c0.119-0.065,0.228-0.141,0.337-0.222
		c0.484-0.362,0.838-0.389,1.306-0.013c0.435,0.137,0.766,0.152,1.152-0.162c0.105-0.085,0.217-0.192,0.341-0.247
		c0.253-0.112,0.489-0.155,0.765-0.115c0.226,0.032,0.505,0.117,0.73,0.095c0.368-0.036,0.506-0.267,0.682-0.536
		c0.159-0.243,0.312-0.449,0.582-0.572c0.279-0.126,0.628,0.003,0.907,0.05c0.626,0.107,0.93-0.225,1.217-0.732
		c0.181-0.318,0.413-0.61,0.591-0.927C367.155,2.109,367.098,1.83,366.946,1.575z"/>
	<path fill="#209947" d="M366.869,1.173c-0.005-0.006-0.01-0.008-0.016-0.012C366.047,0.261,361.219,0,356.146,0
		c-5.56,0-10.843,0.343-10.843,1.467c0,0.079,0.029,0.161,0.079,0.245c0.034,0.31,0.073,0.614,0.189,0.909
		c0.134,0.34,0.578,0.513,0.817,0.757c0.483,0.493,0.667,1.365,1.512,1.001c0.387-0.167,0.643-0.254,0.962,0.051
		c0.122,0.116,0.226,0.253,0.337,0.379c0.151,0.172,0.355,0.374,0.594,0.406c0.333,0.044,0.576-0.149,0.845-0.317
		c0.548-0.342,0.894,0.346,1.176,0.701c0.464,0.584,0.956,0.465,1.449-0.004c0.19-0.181,0.333-0.379,0.552-0.53
		c0.395-0.273,0.7,0.399,0.841,0.628c0.189,0.306,0.377,0.609,0.738,0.711c0.285,0.081,0.599-0.232,0.784-0.398
		c0.345-0.309,0.656-0.538,1.141-0.318c0.183,0.083,0.325,0.245,0.523,0.303c0.303,0.088,0.528,0.029,0.791-0.14
		c0.466-0.299,0.738-0.572,1.256-0.161c0.01,0.016,0.024,0.03,0.047,0.037c0.004,0.001,0.008,0.002,0.012,0.004
		c0.009,0.004,0.017,0.007,0.026,0.008c0.382,0.122,0.725,0.187,1.087-0.032c0.191-0.115,0.346-0.281,0.537-0.398
		c0.355-0.218,0.839-0.065,1.221-0.006c0.384,0.059,0.633-0.098,0.863-0.384c0.134-0.166,0.232-0.356,0.367-0.522
		c0.309-0.38,0.802-0.194,1.203-0.125c0.887,0.151,1.171-0.683,1.571-1.3c0.215-0.332,0.438-0.597,0.475-1.003
		C367.325,1.673,367.048,1.38,366.869,1.173z"/>
</g>
<path fill="#258E45" d="M366.103,1.754c0,0.865-4.552,2.308-9.848,2.308S346.5,2.563,346.5,1.698s4.505-1.01,9.801-1.01
	S366.103,0.889,366.103,1.754z"/>
<circle fill="#89C551" cx="286.419" cy="108.733" r="4.142"/>
<path fill="#739F42" d="M286.419,104.991c2.067,0,3.742,1.675,3.742,3.742s-1.675,3.742-3.742,3.742"/>
<circle fill="#F1EE86" cx="276.431" cy="106.168" r="6.471"/>
<path fill="#CDC875" d="M276.431,100.323c3.228,0,5.845,2.617,5.845,5.845s-2.617,5.845-5.845,5.845"/>
<circle fill="#FDBC16" cx="232.563" cy="106.17" r="6.89"/>
<path fill="#D79929" d="M232.563,99.946c3.438,0,6.224,2.787,6.224,6.224s-2.787,6.224-6.224,6.224"/>
<circle fill="#BF5555" cx="246.995" cy="106.939" r="5.392"/>
<path fill="#894243" d="M246.995,102.068c2.69,0,4.87,2.181,4.87,4.87s-2.181,4.87-4.87,4.87"/>
<g>
	<g>
		<path fill="#473D16" d="M232.008,119.862c-0.31-5.869,0.799-11.839,1.336-17.718c0-0.001-0.001-0.001-0.002,0
			c-0.118,1.191-0.419,2.389-0.476,3.579c-0.077,1.618-1.082,3.32-1.032,4.843c0.102,3.092,0.144,6.197-0.02,9.295
			C231.808,119.987,232.015,119.987,232.008,119.862L232.008,119.862z"/>
	</g>
</g>
<g>
	<g>
		<path fill="#473D16" d="M232.107,109.721c-1.129-0.852-1.712-1.663-2.066-3.031c-0.295-1.142-0.92-2.101-1.078-3.294
			c-0.001-0.006-0.01-0.006-0.009,0c0.139,1.302,0.832,2.418,1.153,3.673c0.327,1.279,0.926,1.9,1.961,2.704
			C232.105,109.802,232.145,109.75,232.107,109.721L232.107,109.721z"/>
	</g>
</g>
<g>
	<g>
		<path fill="#473D16" d="M231.921,110.39c0.49-0.158,0.928-0.153,1.344-0.469c0.733-0.555,1.305-1.345,1.968-1.98
			c0.661-0.633,1.43-0.964,2.004-1.695c0.49-0.624,0.345-1.448,0.676-2.131c0.004-0.008-0.008-0.015-0.012-0.007
			c-0.237,0.45-0.232,0.946-0.374,1.429c-0.326,1.112-1.24,1.439-2.027,2.107c-0.625,0.53-1.159,1.141-1.727,1.729
			c-0.593,0.614-1.098,0.737-1.856,1.002C231.909,110.38,231.912,110.393,231.921,110.39L231.921,110.39z"/>
	</g>
</g>
<g>
	<g>
		<path fill="#473D16" d="M247.039,119.594c0.553-1.609,0.211-4.322,0.21-6.03c-0.002-2.458-0.197-4.923-0.203-7.394
			c0-0.015-0.023-0.015-0.023,0c-0.006,2.47,0.157,4.94,0.155,7.394c-0.001,1.707-0.7,4.425-0.148,6.03
			C247.032,119.599,247.038,119.599,247.039,119.594L247.039,119.594z"/>
	</g>
</g>
<g>
	<g>
		<path fill="#473D16" d="M246.855,110.288c0.076,0.065,0.053,0.046,0.134,0.107c0.012,0.009,0.026-0.01,0.016-0.021
			c-1.305-1.403-2.211-3.274-2.471-5.189c-0.001-0.004-0.008-0.003-0.008,0.001c0.136,1.101,0.516,2.098,0.987,3.094
			c0.266,0.562,1.011,1.818,1.344,2.005C246.855,110.284,246.853,110.286,246.855,110.288L246.855,110.288z"/>
	</g>
</g>
<g>
	<g>
		<path fill="#473D16" d="M246.996,109.892c0.239-0.376,0.441-0.649,0.83-0.889c0.205-0.126,0.368-0.26,0.519-0.447
			c0.316-0.392,0.295-1.148,0.359-1.616c0.001-0.011-0.015-0.016-0.017-0.005c-0.115,0.717-0.079,1.471-0.725,1.949
			c-0.191,0.141-0.396,0.249-0.578,0.402c-0.176,0.147-0.277,0.413-0.39,0.604C246.993,109.893,246.995,109.894,246.996,109.892
			L246.996,109.892z"/>
	</g>
</g>
<g>
	<g>
		<path fill="#473D16" d="M276.521,119.402c0.306-0.008,0.181-7.592,0.083-8.399c-0.275-2.282,0.919-4.676,0.702-6.846
			c-0.009-0.089-0.13-0.089-0.139,0c-0.082,0.82-0.646,1.616-0.673,2.416c-0.04,1.197-0.091,2.366-0.229,3.557
			c-0.133,1.147,0.173,2.402,0.187,3.555c0.025,1.968-0.222,3.93-0.166,5.908c0.003,0.106,0.084,0.187,0.19,0.19
			c0.015,0,0.03,0.001,0.045,0.001C276.768,119.791,276.768,119.395,276.521,119.402L276.521,119.402z"/>
	</g>
</g>
<g>
	<g>
		<path fill="#473D16" d="M276.487,109.839c0.055-0.716,0.082-1.326-0.263-1.978c-0.228-0.43-2.033-1.429-1.822-1.891
			c0.039-0.086,0.119-0.284,0.121-0.382c0.005-0.28,0.004-0.474-0.093-0.732c-0.045-0.119-0.287-0.206-0.32-0.311
			c-0.015-0.05-0.086-0.05-0.101,0c-0.004,0.014-0.008,0.027-0.013,0.041c-0.006,0.02,0,0.05,0.017,0.064
			c0.922,0.733-0.065,0.913,0.114,1.561c0.086,0.312,0.489,0.654,0.728,0.829c1.05,0.769,1.423,1.522,1.521,2.798
			C276.381,109.91,276.481,109.91,276.487,109.839L276.487,109.839z"/>
	</g>
</g>
<g>
	<g>
		<path fill="#473D16" d="M276.394,111.136c0.779,0.306,2.413,0.599,2.53-0.653c0.034-0.365,0.016-0.726,0.025-1.091
			c0.01-0.405,0.618-0.943,0.755-1.4c0.082-0.274-0.018-0.732-0.041-1.016c-0.048-0.588,0.217-1.117,0.21-1.7
			c-0.001-0.095-0.148-0.12-0.169-0.023c-0.094,0.435-0.332,0.964-0.317,1.41c0.01,0.313,0.028,0.626,0.036,0.94
			c0.034,1.351-0.195,0.45-0.518,1.047c-0.24,0.443-0.259,0.78-0.245,1.28c0.042,1.471-1.276,1.295-2.191,0.94
			C276.301,110.804,276.231,111.071,276.394,111.136L276.394,111.136z"/>
	</g>
</g>
<g>
	<g>
		<path fill="#473D16" d="M287.346,119.474c-0.385-3.438,0.416-7.093-0.278-10.457c-0.015-0.071-0.133-0.056-0.127,0.017
			c0.279,3.465-0.351,6.968,0.082,10.44C287.048,119.677,287.37,119.682,287.346,119.474L287.346,119.474z"/>
	</g>
</g>
<g>
	<g>
		<path fill="#473D16" d="M286.954,111.994c-0.126,0.136-0.242,0.278-0.376,0.407c-0.41,0.395-0.629-0.755-0.669-0.888
			c-0.188-0.634-0.426-1.448-0.797-1.998c-0.026-0.038-0.103-0.029-0.096,0.026c0.06,0.476,0.292,0.948,0.463,1.395
			c0.182,0.475,0.262,1.119,0.516,1.552c0.329,0.561,0.829-0.126,1.064-0.389C287.12,112.028,287.018,111.925,286.954,111.994
			L286.954,111.994z"/>
	</g>
</g>
<g>
	<g>
		<path fill="#473D16" d="M287.168,111.466c-0.005-0.005-0.01-0.01-0.015-0.015c-0.021-0.021-0.058-0.012-0.066,0.017
			c-0.003,0.009-0.005,0.018-0.008,0.028c-0.004,0.015,0,0.035,0.012,0.046c0.28,0.239,1.046,0.199,1.055-0.294
			c0.009-0.5-0.329-0.836-0.083-1.358c0.195-0.415,0.495-0.757,0.651-1.197c0.027-0.076-0.095-0.127-0.13-0.055
			c-0.209,0.435-0.588,0.867-0.732,1.323c-0.05,0.159-0.093,0.326-0.059,0.494c0.029,0.142,0.075,0.268,0.129,0.403
			c0.017,0.047,0.034,0.093,0.051,0.14c-0.029,0.527-0.298,0.691-0.806,0.493C287.175,111.486,287.175,111.473,287.168,111.466
			L287.168,111.466z"/>
	</g>
</g>
<circle fill="#89C551" cx="354.632" cy="131.053" r="4.142"/>
<path fill="#739F42" d="M354.632,127.311c2.067,0,3.742,1.675,3.742,3.742c0,2.067-1.675,3.742-3.742,3.742"/>
<circle fill="#F1EE86" cx="344.644" cy="128.488" r="6.471"/>
<path fill="#CDC875" d="M344.644,122.643c3.228,0,5.845,2.617,5.845,5.845c0,3.228-2.617,5.845-5.845,5.845"/>
<circle fill="#FDBC16" cx="319.619" cy="98.696" r="6.89"/>
<path fill="#D79929" d="M319.619,92.471c3.438,0,6.224,2.787,6.224,6.224s-2.787,6.224-6.224,6.224"/>
<circle fill="#BF5555" cx="334.051" cy="99.464" r="5.392"/>
<path fill="#894243" d="M334.051,94.594c2.69,0,4.87,2.181,4.87,4.87s-2.181,4.87-4.87,4.87"/>
<g>
	<g>
		<path fill="#473D16" d="M319.064,112.387c-0.31-5.869,0.799-11.839,1.336-17.718c0-0.001-0.001-0.001-0.002,0
			c-0.118,1.191-0.419,2.389-0.476,3.579c-0.077,1.618-1.082,3.32-1.032,4.843c0.102,3.092,0.144,6.197-0.02,9.295
			C318.864,112.512,319.071,112.512,319.064,112.387L319.064,112.387z"/>
	</g>
</g>
<g>
	<g>
		<path fill="#473D16" d="M319.163,102.247c-1.129-0.852-1.712-1.663-2.066-3.031c-0.295-1.142-0.92-2.101-1.078-3.294
			c-0.001-0.006-0.01-0.006-0.009,0c0.139,1.302,0.832,2.418,1.153,3.673c0.327,1.279,0.926,1.9,1.961,2.704
			C319.161,102.328,319.201,102.275,319.163,102.247L319.163,102.247z"/>
	</g>
</g>
<g>
	<g>
		<path fill="#473D16" d="M318.977,102.916c0.49-0.158,0.928-0.153,1.344-0.469c0.733-0.555,1.305-1.345,1.968-1.98
			c0.661-0.633,1.43-0.964,2.004-1.695c0.49-0.624,0.345-1.448,0.676-2.131c0.004-0.008-0.008-0.015-0.012-0.007
			c-0.237,0.45-0.232,0.946-0.374,1.429c-0.326,1.112-1.24,1.439-2.027,2.107c-0.625,0.53-1.159,1.141-1.727,1.729
			c-0.593,0.614-1.098,0.737-1.856,1.002C318.965,102.905,318.968,102.919,318.977,102.916L318.977,102.916z"/>
	</g>
</g>
<g>
	<g>
		<path fill="#473D16" d="M334.095,112.12c0.496-1.443,0.171-3.756,0.211-5.281c0.07-2.705-0.197-5.426-0.203-8.143
			c0-0.015-0.023-0.015-0.023,0c-0.006,2.47,0.157,4.94,0.155,7.394c-0.001,1.726-0.71,4.394-0.148,6.03
			C334.088,112.124,334.094,112.124,334.095,112.12L334.095,112.12z"/>
	</g>
</g>
<g>
	<g>
		<path fill="#473D16" d="M333.911,102.813c0.076,0.065,0.053,0.046,0.134,0.107c0.012,0.009,0.026-0.01,0.016-0.021
			c-1.305-1.403-2.211-3.274-2.471-5.189c-0.001-0.004-0.008-0.003-0.008,0.001c0.136,1.101,0.516,2.098,0.987,3.094
			c0.266,0.562,1.011,1.818,1.344,2.005C333.911,102.81,333.909,102.812,333.911,102.813L333.911,102.813z"/>
	</g>
</g>
<g>
	<g>
		<path fill="#473D16" d="M334.052,102.418c0.239-0.376,0.441-0.649,0.83-0.889c0.205-0.126,0.368-0.26,0.519-0.447
			c0.316-0.392,0.295-1.148,0.359-1.616c0.001-0.011-0.015-0.016-0.017-0.005c-0.115,0.717-0.079,1.471-0.725,1.949
			c-0.191,0.141-0.396,0.249-0.578,0.402c-0.176,0.147-0.277,0.413-0.39,0.604C334.048,102.418,334.051,102.42,334.052,102.418
			L334.052,102.418z"/>
	</g>
</g>
<g>
	<g>
		<path fill="#473D16" d="M344.734,141.722c0.307-0.008,0.181-7.592,0.083-8.399c-0.275-2.282,0.919-4.676,0.702-6.846
			c-0.009-0.089-0.13-0.089-0.139,0c-0.082,0.82-0.646,1.616-0.673,2.416c-0.04,1.197-0.091,2.367-0.229,3.557
			c-0.133,1.147,0.173,2.402,0.187,3.555c0.025,1.968-0.222,3.93-0.166,5.908c0.003,0.106,0.084,0.187,0.19,0.19
			c0.015,0,0.03,0.001,0.045,0.001C344.981,142.111,344.981,141.715,344.734,141.722L344.734,141.722z"/>
	</g>
</g>
<g>
	<g>
		<path fill="#473D16" d="M344.7,132.159c0.055-0.716,0.082-1.326-0.263-1.978c-0.228-0.43-2.033-1.429-1.822-1.891
			c0.039-0.086,0.119-0.284,0.121-0.382c0.005-0.28,0.004-0.474-0.093-0.732c-0.045-0.119-0.287-0.206-0.32-0.311
			c-0.015-0.05-0.086-0.05-0.101,0c-0.004,0.014-0.008,0.027-0.013,0.041c-0.006,0.02,0,0.05,0.017,0.064
			c0.922,0.733-0.065,0.913,0.114,1.561c0.086,0.312,0.489,0.654,0.728,0.829c1.05,0.769,1.423,1.522,1.521,2.798
			C344.594,132.231,344.694,132.231,344.7,132.159L344.7,132.159z"/>
	</g>
</g>
<g>
	<g>
		<path fill="#473D16" d="M344.607,133.456c0.779,0.306,2.413,0.599,2.53-0.653c0.034-0.365,0.015-0.726,0.025-1.091
			c0.01-0.405,0.618-0.943,0.755-1.4c0.082-0.274-0.018-0.732-0.041-1.016c-0.048-0.588,0.217-1.117,0.21-1.7
			c-0.001-0.095-0.148-0.12-0.169-0.023c-0.094,0.435-0.332,0.964-0.317,1.41c0.01,0.313,0.028,0.626,0.036,0.94
			c0.034,1.351-0.195,0.45-0.519,1.047c-0.24,0.443-0.259,0.78-0.245,1.28c0.042,1.471-1.276,1.295-2.191,0.94
			C344.514,133.124,344.444,133.391,344.607,133.456L344.607,133.456z"/>
	</g>
</g>
<g>
	<g>
		<path fill="#473D16" d="M355.559,141.794c-0.385-3.438,0.416-7.093-0.278-10.457c-0.015-0.071-0.133-0.056-0.127,0.017
			c0.279,3.465-0.351,6.968,0.082,10.44C355.261,141.997,355.583,142.002,355.559,141.794L355.559,141.794z"/>
	</g>
</g>
<g>
	<g>
		<path fill="#473D16" d="M355.167,134.315c-0.126,0.136-0.242,0.278-0.376,0.407c-0.41,0.395-0.629-0.755-0.669-0.888
			c-0.188-0.634-0.426-1.448-0.797-1.998c-0.026-0.038-0.103-0.029-0.096,0.026c0.06,0.476,0.292,0.948,0.463,1.395
			c0.182,0.475,0.262,1.119,0.516,1.552c0.329,0.561,0.829-0.126,1.064-0.389C355.333,134.348,355.231,134.245,355.167,134.315
			L355.167,134.315z"/>
	</g>
</g>
<g>
	<g>
		<path fill="#473D16" d="M355.381,133.786c-0.005-0.005-0.01-0.01-0.015-0.015c-0.021-0.021-0.058-0.012-0.066,0.017
			c-0.003,0.009-0.005,0.018-0.008,0.028c-0.004,0.015,0,0.035,0.012,0.046c0.279,0.239,1.046,0.199,1.055-0.294
			c0.009-0.5-0.329-0.836-0.083-1.358c0.195-0.415,0.495-0.757,0.651-1.197c0.027-0.076-0.095-0.127-0.13-0.055
			c-0.209,0.435-0.588,0.867-0.732,1.323c-0.05,0.159-0.093,0.326-0.059,0.494c0.029,0.142,0.075,0.268,0.129,0.403
			c0.017,0.047,0.034,0.093,0.051,0.14c-0.029,0.527-0.298,0.691-0.806,0.493C355.388,133.806,355.388,133.794,355.381,133.786
			L355.381,133.786z"/>
	</g>
</g>
<circle fill="#89C551" cx="242.131" cy="115.944" r="4.142"/>
<path fill="#739F42" d="M242.131,112.203c2.067,0,3.742,1.675,3.742,3.742c0,2.067-1.675,3.742-3.742,3.742"/>
<circle fill="#F1EE86" cx="232.143" cy="113.38" r="6.471"/>
<path fill="#CDC875" d="M232.143,107.534c3.228,0,5.845,2.617,5.845,5.845c0,3.228-2.617,5.845-5.845,5.845"/>
<circle fill="#FDBC16" cx="188.275" cy="113.382" r="6.89"/>
<path fill="#D79929" d="M188.275,107.157c3.438,0,6.224,2.787,6.224,6.224s-2.787,6.224-6.224,6.224"/>
<circle fill="#BF5555" cx="202.707" cy="114.15" r="5.392"/>
<path fill="#894243" d="M202.707,109.28c2.69,0,4.87,2.181,4.87,4.87s-2.181,4.87-4.87,4.87"/>
<g>
	<g>
		<path fill="#473D16" d="M187.72,127.073c-0.31-5.869,0.799-11.839,1.336-17.718c0-0.001-0.001-0.001-0.002,0
			c-0.118,1.191-0.419,2.389-0.476,3.579c-0.077,1.618-1.082,3.32-1.032,4.843c0.102,3.092,0.144,6.197-0.02,9.295
			C187.52,127.198,187.727,127.198,187.72,127.073L187.72,127.073z"/>
	</g>
</g>
<g>
	<g>
		<path fill="#473D16" d="M187.819,116.933c-1.129-0.852-1.712-1.663-2.066-3.031c-0.295-1.142-0.92-2.101-1.078-3.294
			c-0.001-0.006-0.01-0.006-0.009,0c0.139,1.302,0.832,2.418,1.153,3.673c0.327,1.279,0.926,1.9,1.961,2.704
			C187.817,117.014,187.857,116.961,187.819,116.933L187.819,116.933z"/>
	</g>
</g>
<g>
	<g>
		<path fill="#473D16" d="M187.633,117.602c0.49-0.158,0.928-0.153,1.344-0.469c0.733-0.555,1.305-1.345,1.968-1.98
			c0.661-0.633,1.43-0.964,2.004-1.695c0.49-0.624,0.345-1.448,0.676-2.131c0.004-0.008-0.008-0.015-0.012-0.007
			c-0.237,0.45-0.232,0.946-0.374,1.429c-0.326,1.112-1.24,1.439-2.027,2.107c-0.625,0.53-1.159,1.141-1.727,1.729
			c-0.593,0.614-1.098,0.737-1.856,1.002C187.621,117.591,187.624,117.605,187.633,117.602L187.633,117.602z"/>
	</g>
</g>
<g>
	<g>
		<path fill="#473D16" d="M202.751,126.806c0.496-1.443,0.171-3.756,0.211-5.281c0.07-2.705-0.197-5.426-0.203-8.143
			c0-0.015-0.023-0.015-0.023,0c-0.006,2.47,0.157,4.94,0.155,7.394c-0.001,1.726-0.71,4.394-0.148,6.03
			C202.744,126.81,202.75,126.81,202.751,126.806L202.751,126.806z"/>
	</g>
</g>
<g>
	<g>
		<path fill="#473D16" d="M202.567,117.499c0.076,0.065,0.053,0.046,0.134,0.107c0.012,0.009,0.026-0.01,0.016-0.021
			c-1.305-1.403-2.211-3.274-2.471-5.189c-0.001-0.004-0.008-0.003-0.008,0.001c0.136,1.101,0.516,2.098,0.987,3.094
			c0.266,0.562,1.011,1.818,1.344,2.005C202.567,117.496,202.565,117.498,202.567,117.499L202.567,117.499z"/>
	</g>
</g>
<g>
	<g>
		<path fill="#473D16" d="M202.708,117.104c0.239-0.376,0.441-0.649,0.83-0.889c0.205-0.126,0.368-0.26,0.519-0.447
			c0.316-0.392,0.295-1.148,0.359-1.616c0.001-0.011-0.015-0.016-0.017-0.005c-0.115,0.717-0.079,1.471-0.725,1.949
			c-0.191,0.141-0.396,0.249-0.578,0.402c-0.176,0.147-0.277,0.413-0.39,0.604C202.705,117.104,202.707,117.106,202.708,117.104
			L202.708,117.104z"/>
	</g>
</g>
<g>
	<g>
		<path fill="#473D16" d="M232.233,126.613c0.306-0.008,0.181-7.592,0.083-8.399c-0.275-2.282,0.919-4.676,0.702-6.846
			c-0.009-0.089-0.13-0.089-0.139,0c-0.082,0.82-0.646,1.616-0.673,2.416c-0.04,1.197-0.091,2.367-0.229,3.557
			c-0.133,1.147,0.173,2.402,0.187,3.555c0.025,1.968-0.222,3.93-0.166,5.908c0.003,0.106,0.084,0.187,0.19,0.19
			c0.015,0,0.03,0.001,0.045,0.001C232.48,127.003,232.48,126.607,232.233,126.613L232.233,126.613z"/>
	</g>
</g>
<g>
	<g>
		<path fill="#473D16" d="M232.199,117.051c0.055-0.716,0.082-1.326-0.263-1.978c-0.228-0.43-2.033-1.429-1.822-1.891
			c0.039-0.086,0.119-0.284,0.121-0.382c0.005-0.28,0.004-0.474-0.093-0.732c-0.045-0.119-0.287-0.206-0.32-0.311
			c-0.015-0.05-0.086-0.05-0.101,0c-0.004,0.014-0.008,0.027-0.013,0.041c-0.006,0.02,0,0.05,0.017,0.064
			c0.922,0.733-0.065,0.913,0.114,1.561c0.086,0.312,0.489,0.654,0.728,0.829c1.05,0.769,1.423,1.522,1.521,2.798
			C232.093,117.122,232.193,117.122,232.199,117.051L232.199,117.051z"/>
	</g>
</g>
<g>
	<g>
		<path fill="#473D16" d="M232.106,118.347c0.779,0.306,2.413,0.599,2.53-0.653c0.034-0.365,0.016-0.726,0.025-1.091
			c0.01-0.405,0.618-0.943,0.755-1.4c0.082-0.274-0.018-0.732-0.041-1.016c-0.048-0.588,0.217-1.117,0.21-1.7
			c-0.001-0.095-0.148-0.12-0.169-0.023c-0.094,0.435-0.332,0.964-0.317,1.41c0.01,0.313,0.028,0.626,0.036,0.94
			c0.034,1.351-0.195,0.45-0.519,1.047c-0.24,0.443-0.259,0.78-0.245,1.28c0.042,1.471-1.276,1.295-2.191,0.94
			C232.013,118.016,231.943,118.283,232.106,118.347L232.106,118.347z"/>
	</g>
</g>
<g>
	<g>
		<path fill="#473D16" d="M243.058,126.685c-0.385-3.438,0.416-7.093-0.278-10.457c-0.015-0.071-0.133-0.056-0.127,0.017
			c0.279,3.465-0.351,6.968,0.082,10.44C242.76,126.889,243.082,126.893,243.058,126.685L243.058,126.685z"/>
	</g>
</g>
<g>
	<g>
		<path fill="#473D16" d="M242.666,119.206c-0.126,0.136-0.242,0.278-0.376,0.407c-0.41,0.395-0.629-0.755-0.669-0.888
			c-0.188-0.634-0.426-1.448-0.798-1.998c-0.026-0.038-0.103-0.029-0.096,0.026c0.06,0.476,0.292,0.948,0.463,1.395
			c0.182,0.475,0.262,1.119,0.516,1.552c0.329,0.561,0.829-0.126,1.064-0.389C242.832,119.24,242.73,119.136,242.666,119.206
			L242.666,119.206z"/>
	</g>
</g>
<g>
	<g>
		<path fill="#473D16" d="M242.88,118.678c-0.005-0.005-0.01-0.01-0.015-0.015c-0.021-0.021-0.058-0.012-0.066,0.017
			c-0.003,0.009-0.005,0.018-0.008,0.028c-0.004,0.015,0,0.035,0.012,0.046c0.279,0.239,1.046,0.199,1.055-0.294
			c0.009-0.5-0.329-0.836-0.083-1.358c0.195-0.415,0.495-0.757,0.651-1.197c0.027-0.076-0.095-0.127-0.13-0.055
			c-0.209,0.435-0.588,0.867-0.732,1.323c-0.05,0.159-0.093,0.326-0.059,0.494c0.029,0.142,0.075,0.268,0.129,0.403
			c0.017,0.047,0.034,0.093,0.051,0.14c-0.029,0.527-0.298,0.691-0.806,0.493C242.887,118.697,242.887,118.685,242.88,118.678
			L242.88,118.678z"/>
	</g>
</g>
<circle fill="#89C551" cx="282.581" cy="111.365" r="4.142"/>
<path fill="#739F42" d="M282.277,107.788c2.066,0,3.742,1.675,3.742,3.742s-1.675,3.742-3.742,3.742"/>
<circle fill="#F1EE86" cx="292.569" cy="108.8" r="6.471"/>
<path fill="#CDC875" d="M292.569,103.119c3.228,0,5.845,2.617,5.845,5.845s-2.617,5.845-5.845,5.845"/>
<circle fill="#FDBC16" cx="336.437" cy="108.802" r="6.89"/>
<path fill="#D79929" d="M336.33,102.451c3.438,0,6.224,2.787,6.224,6.224s-2.787,6.224-6.224,6.224"/>
<circle fill="#BF5555" cx="322.005" cy="109.571" r="5.392"/>
<path fill="#894243" d="M321.786,104.7c2.69,0,4.87,2.181,4.87,4.87s-2.181,4.87-4.87,4.87"/>
<g>
	<g>
		<path fill="#473D16" d="M337.185,122.494c-0.146-2.754-0.142-5.6-0.052-8.322c0.1-3.028-1.169-6.306-1.476-9.396
			c0-0.001-0.002-0.001-0.002,0c0.537,5.879,1.646,11.85,1.336,17.718C336.985,122.619,337.192,122.619,337.185,122.494
			L337.185,122.494z"/>
	</g>
</g>
<g>
	<g>
		<path fill="#473D16" d="M336.933,112.405c1.067-0.829,1.574-1.423,1.961-2.704c0.37-1.229,1.016-2.386,1.153-3.673
			c0.001-0.006-0.009-0.006-0.009,0c-0.139,1.051-0.581,1.955-0.957,2.931c-0.174,0.452-0.28,0.939-0.418,1.403
			c-0.279,0.938-1.041,1.441-1.769,1.991C336.855,112.382,336.895,112.434,336.933,112.405L336.933,112.405z"/>
	</g>
</g>
<g>
	<g>
		<path fill="#473D16" d="M337.083,113.009c-0.62-0.216-1.073-0.263-1.589-0.736c-0.595-0.546-1.105-1.179-1.689-1.736
			c-0.551-0.525-1.238-0.861-1.78-1.403c-0.745-0.745-0.498-1.58-0.926-2.393c-0.004-0.008-0.016-0.001-0.012,0.007
			c0.337,0.693,0.276,1.443,0.672,2.126c0.43,0.741,1.385,1.169,2.008,1.7c0.705,0.6,1.277,1.353,1.963,1.976
			c0.383,0.348,0.876,0.32,1.349,0.472C337.088,113.025,337.091,113.012,337.083,113.009L337.083,113.009z"/>
	</g>
</g>
<g>
	<g>
		<path fill="#473D16" d="M321.97,122.226c0.491-1.429-0.107-3.786-0.147-5.281c-0.074-2.696,0.161-5.431,0.155-8.143
			c0-0.015-0.023-0.015-0.023,0c-0.006,2.471-0.201,4.936-0.203,7.394c-0.001,1.726-0.352,4.394,0.21,6.03
			C321.962,122.231,321.968,122.231,321.97,122.226L321.97,122.226z"/>
	</g>
</g>
<g>
	<g>
		<path fill="#473D16" d="M322.143,112.917c0.269-0.151,0.876-1.24,1.183-1.706c0.643-0.977,1.007-2.249,1.148-3.394
			c0.001-0.004-0.007-0.005-0.008-0.001c-0.261,1.915-1.167,3.786-2.471,5.189c-0.01,0.011,0.004,0.03,0.016,0.021
			c0.08-0.061,0.057-0.042,0.134-0.107C322.147,112.918,322.145,112.916,322.143,112.917L322.143,112.917z"/>
	</g>
</g>
<g>
	<g>
		<path fill="#473D16" d="M322.006,112.523c-0.241-0.405-0.42-0.654-0.821-0.907c-0.769-0.487-0.743-1.245-0.873-2.047
			c-0.002-0.011-0.018-0.006-0.017,0.005c0.075,0.551,0.099,1.111,0.357,1.614c0.076,0.147,0.243,0.255,0.372,0.352
			c0.188,0.142,0.394,0.241,0.578,0.392c0.16,0.131,0.286,0.414,0.4,0.593C322.005,112.526,322.007,112.525,322.006,112.523
			L322.006,112.523z"/>
	</g>
</g>
<g>
	<g>
		<path fill="#473D16" d="M292.479,122.417c0.015,0,0.03-0.001,0.045-0.001c0.106-0.003,0.187-0.084,0.19-0.19
			c0.082-2.876-0.316-5.73,0.027-8.591c0.288-2.401-0.68-4.557-0.909-6.846c-0.009-0.089-0.13-0.089-0.139,0
			c-0.058,0.58,0.189,1.137,0.364,1.678c0.405,1.256,0.22,2.966,0.355,4.295c0.097,0.95-0.445,9.258,0.066,9.272
			C292.232,122.027,292.232,122.423,292.479,122.417L292.479,122.417z"/>
	</g>
</g>
<g>
	<g>
		<path fill="#473D16" d="M292.624,112.471c0.086-1.108,0.331-1.928,1.271-2.615c0.333-0.243,0.86-0.585,0.978-1.012
			c0.178-0.648-0.808-0.829,0.114-1.561c0.017-0.014,0.023-0.044,0.017-0.064c-0.004-0.014-0.008-0.027-0.013-0.041
			c-0.015-0.05-0.086-0.05-0.101,0c0.007-0.023-0.319,0.306-0.314,0.297c-0.135,0.23-0.104,0.492-0.099,0.746
			c0.002,0.097,0.082,0.296,0.121,0.382c0.211,0.462-1.594,1.461-1.822,1.891c-0.345,0.652-0.318,1.262-0.263,1.978
			C292.519,112.543,292.619,112.543,292.624,112.471L292.624,112.471z"/>
	</g>
</g>
<g>
	<g>
		<path fill="#473D16" d="M292.532,113.501c-0.747,0.29-2.077,0.646-2.193-0.659c-0.031-0.354,0.118-0.892-0.063-1.227
			c-0.223-0.411-0.115-0.288-0.445-0.568c-0.354-0.301-0.252-1.023-0.229-1.439c0.033-0.592-0.183-1.15-0.307-1.723
			c-0.021-0.097-0.168-0.072-0.169,0.023c-0.011,0.893,0.177,1.767,0.164,2.679c-0.002,0.137,0.044,0.31,0.136,0.417
			c0.541,0.628,0.624,1.082,0.623,1.838c-0.002,1.447,1.583,1.307,2.555,0.926C292.769,113.703,292.699,113.436,292.532,113.501
			L292.532,113.501z"/>
	</g>
</g>
<g>
	<g>
		<path fill="#473D16" d="M281.977,122.106c0.433-3.472-0.197-6.975,0.082-10.44c0.006-0.073-0.113-0.089-0.127-0.017
			c-0.695,3.364,0.107,7.02-0.278,10.457C281.63,122.314,281.952,122.309,281.977,122.106L281.977,122.106z"/>
	</g>
</g>
<g>
	<g>
		<path fill="#473D16" d="M281.942,114.73c0.284,0.318,0.652,0.875,1.049,0.409c0.076-0.089,0.091-0.237,0.114-0.345
			c0.074-0.345,0.21-0.687,0.336-1.015c0.196-0.513,0.475-1.059,0.544-1.606c0.007-0.055-0.07-0.064-0.096-0.026
			c-0.348,0.516-0.499,1.21-0.721,1.789c-0.118,0.31-0.22,0.636-0.289,0.96c-0.132,0.614-0.742-0.172-0.833-0.27
			C281.982,114.557,281.88,114.66,281.942,114.73L281.942,114.73z"/>
	</g>
</g>
<g>
	<g>
		<path fill="#473D16" d="M281.832,114.125c-0.508,0.198-0.777,0.034-0.806-0.493c0.033-0.14,0.106-0.279,0.154-0.415
			c0.054-0.157,0.035-0.322,0.012-0.481c-0.028-0.199-0.168-0.39-0.273-0.552c-0.19-0.294-0.352-0.596-0.503-0.912
			c-0.035-0.073-0.157-0.021-0.13,0.055c0.137,0.386,0.354,0.725,0.576,1.067c0.362,0.56-0.018,0.935-0.007,1.488
			c0.009,0.492,0.776,0.533,1.055,0.294c0.013-0.011,0.016-0.031,0.012-0.046c-0.003-0.009-0.005-0.018-0.008-0.028
			c-0.008-0.029-0.045-0.038-0.066-0.017c-0.005,0.005-0.01,0.01-0.015,0.015C281.825,114.106,281.825,114.118,281.832,114.125
			L281.832,114.125z"/>
	</g>
</g>
<circle fill="#89C551" cx="415.091" cy="106.016" r="4.142"/>
<path fill="#739F42" d="M415.091,102.274c2.067,0,3.742,1.675,3.742,3.742c0,2.067-1.675,3.742-3.742,3.742"/>
<circle fill="#F1EE86" cx="405.103" cy="103.451" r="6.471"/>
<path fill="#CDC875" d="M405.103,97.606c3.228,0,5.845,2.617,5.845,5.845c0,3.228-2.617,5.845-5.845,5.845"/>
<g>
	<g>
		<path fill="#473D16" d="M405.193,116.685c0.306-0.008,0.181-7.592,0.083-8.399c-0.275-2.282,0.919-4.676,0.702-6.846
			c-0.009-0.089-0.13-0.089-0.139,0c-0.082,0.82-0.646,1.616-0.673,2.416c-0.04,1.197-0.091,2.367-0.229,3.557
			c-0.133,1.147,0.173,2.402,0.187,3.555c0.025,1.968-0.222,3.93-0.166,5.908c0.003,0.106,0.084,0.187,0.19,0.19
			c0.015,0,0.03,0.001,0.045,0.001C405.44,117.074,405.44,116.678,405.193,116.685L405.193,116.685z"/>
	</g>
</g>
<g>
	<g>
		<path fill="#473D16" d="M405.159,107.122c0.055-0.716,0.082-1.326-0.263-1.978c-0.228-0.43-2.033-1.429-1.822-1.891
			c0.039-0.086,0.119-0.284,0.121-0.382c0.005-0.28,0.004-0.474-0.093-0.732c-0.045-0.119-0.287-0.206-0.32-0.311
			c-0.015-0.05-0.086-0.05-0.101,0c-0.004,0.014-0.008,0.027-0.013,0.041c-0.006,0.02,0,0.05,0.017,0.064
			c0.922,0.733-0.065,0.913,0.114,1.561c0.086,0.312,0.489,0.654,0.728,0.829c1.05,0.769,1.423,1.522,1.521,2.798
			C405.053,107.193,405.153,107.193,405.159,107.122L405.159,107.122z"/>
	</g>
</g>
<g>
	<g>
		<path fill="#473D16" d="M405.066,108.419c0.779,0.306,2.413,0.599,2.53-0.653c0.034-0.365,0.016-0.726,0.025-1.091
			c0.01-0.405,0.618-0.943,0.755-1.4c0.082-0.274-0.018-0.732-0.041-1.016c-0.048-0.588,0.217-1.117,0.21-1.7
			c-0.001-0.095-0.148-0.12-0.169-0.023c-0.094,0.435-0.332,0.964-0.317,1.41c0.01,0.313,0.028,0.626,0.036,0.94
			c0.034,1.351-0.195,0.45-0.519,1.047c-0.24,0.443-0.259,0.78-0.245,1.28c0.042,1.471-1.276,1.295-2.191,0.94
			C404.973,108.087,404.903,108.354,405.066,108.419L405.066,108.419z"/>
	</g>
</g>
<g>
	<g>
		<path fill="#473D16" d="M416.018,116.757c-0.385-3.438,0.416-7.093-0.278-10.457c-0.015-0.071-0.133-0.056-0.127,0.017
			c0.279,3.465-0.351,6.968,0.082,10.44C415.72,116.96,416.042,116.965,416.018,116.757L416.018,116.757z"/>
	</g>
</g>
<g>
	<g>
		<path fill="#473D16" d="M415.626,109.277c-0.126,0.136-0.242,0.278-0.376,0.407c-0.41,0.395-0.629-0.755-0.669-0.888
			c-0.188-0.634-0.426-1.448-0.798-1.998c-0.026-0.038-0.103-0.029-0.096,0.026c0.06,0.476,0.292,0.948,0.463,1.395
			c0.182,0.475,0.262,1.119,0.516,1.552c0.329,0.561,0.829-0.126,1.064-0.389C415.792,109.311,415.69,109.208,415.626,109.277
			L415.626,109.277z"/>
	</g>
</g>
<g>
	<g>
		<path fill="#473D16" d="M415.84,108.749c-0.005-0.005-0.01-0.01-0.015-0.015c-0.021-0.021-0.058-0.012-0.066,0.017
			c-0.003,0.009-0.005,0.018-0.008,0.028c-0.004,0.015,0,0.035,0.012,0.046c0.279,0.239,1.046,0.199,1.055-0.294
			c0.009-0.5-0.329-0.836-0.083-1.358c0.195-0.415,0.495-0.757,0.651-1.197c0.027-0.076-0.095-0.127-0.13-0.055
			c-0.209,0.435-0.588,0.867-0.732,1.323c-0.05,0.159-0.093,0.326-0.059,0.494c0.029,0.142,0.075,0.268,0.129,0.403
			c0.017,0.047,0.034,0.093,0.051,0.14c-0.029,0.527-0.298,0.691-0.806,0.493C415.847,108.769,415.847,108.756,415.84,108.749
			L415.84,108.749z"/>
	</g>
</g>
<circle fill="#89C551" cx="477.064" cy="107.361" r="4.142"/>
<path fill="#739F42" d="M477.064,103.619c2.066,0,3.742,1.675,3.742,3.742s-1.675,3.742-3.742,3.742"/>
<circle fill="#F1EE86" cx="467.077" cy="104.796" r="6.471"/>
<path fill="#CDC875" d="M467.077,98.951c3.228,0,5.845,2.617,5.845,5.845s-2.617,5.845-5.845,5.845"/>
<circle fill="#FDBC16" cx="388.589" cy="100.568" r="6.89"/>
<path fill="#D79929" d="M388.589,94.343c3.438,0,6.224,2.787,6.224,6.224s-2.787,6.224-6.224,6.224"/>
<circle fill="#BF5555" cx="446.74" cy="100.099" r="4.508"/>
<path fill="#894243" d="M446.74,96.027c2.249,0,4.072,1.823,4.072,4.072c0,2.249-1.823,4.072-4.072,4.072"/>
<g>
	<g>
		<path fill="#473D16" d="M388.035,114.259c-0.31-5.869,0.799-11.839,1.336-17.718c0-0.001-0.001-0.001-0.002,0
			c-0.118,1.191-0.419,2.389-0.476,3.579c-0.077,1.618-1.082,3.32-1.032,4.843c0.102,3.092,0.144,6.197-0.02,9.295
			C387.834,114.384,388.041,114.384,388.035,114.259L388.035,114.259z"/>
	</g>
</g>
<g>
	<g>
		<path fill="#473D16" d="M388.133,104.119c-1.129-0.852-1.712-1.663-2.066-3.031c-0.295-1.142-0.92-2.101-1.078-3.294
			c-0.001-0.006-0.01-0.006-0.009,0c0.139,1.302,0.832,2.418,1.153,3.673c0.327,1.279,0.926,1.9,1.961,2.704
			C388.131,104.199,388.171,104.147,388.133,104.119L388.133,104.119z"/>
	</g>
</g>
<g>
	<g>
		<path fill="#473D16" d="M387.947,104.788c0.49-0.158,0.928-0.153,1.344-0.469c0.733-0.555,1.305-1.345,1.968-1.98
			c0.661-0.633,1.43-0.964,2.004-1.695c0.49-0.624,0.345-1.448,0.676-2.131c0.004-0.008-0.008-0.015-0.012-0.007
			c-0.237,0.45-0.232,0.946-0.374,1.429c-0.326,1.112-1.24,1.439-2.027,2.107c-0.625,0.53-1.159,1.141-1.727,1.729
			c-0.593,0.614-1.098,0.737-1.856,1.002C387.935,104.777,387.939,104.79,387.947,104.788L387.947,104.788z"/>
	</g>
</g>
<g>
	<g>
		<path fill="#473D16" d="M446.778,110.682c0.465-1.11,0.15-3.215,0.181-4.416c0.058-2.262-0.168-4.537-0.174-6.809
			c0-0.015-0.023-0.015-0.023,0c-0.006,2.066,0.127,4.13,0.126,6.182c-0.001,1.359-0.645,3.785-0.119,5.043
			C446.771,110.686,446.776,110.686,446.778,110.682L446.778,110.682z"/>
	</g>
</g>
<g>
	<g>
		<path fill="#473D16" d="M446.622,102.9c0.063,0.056,0.044,0.04,0.111,0.091c0.012,0.01,0.026-0.01,0.016-0.021
			c-1.091-1.173-1.848-2.736-2.067-4.338c-0.001-0.004-0.008-0.003-0.008,0.001c0.112,0.921,0.431,1.755,0.824,2.589
			c0.221,0.468,0.848,1.526,1.126,1.675C446.623,102.897,446.621,102.899,446.622,102.9L446.622,102.9z"/>
	</g>
</g>
<g>
	<g>
		<path fill="#473D16" d="M446.741,102.569c0.201-0.314,0.369-0.542,0.695-0.742c0.144-0.089,0.355-0.218,0.436-0.376
			c0.216-0.421,0.237-0.891,0.299-1.352c0.001-0.01-0.015-0.012-0.017-0.002c-0.098,0.599-0.066,1.229-0.606,1.628
			c-0.373,0.276-0.568,0.436-0.809,0.842C446.738,102.57,446.74,102.571,446.741,102.569L446.741,102.569z"/>
	</g>
</g>
<g>
	<g>
		<path fill="#473D16" d="M467.166,118.03c0.306-0.008,0.181-7.592,0.083-8.399c-0.275-2.282,0.919-4.676,0.702-6.846
			c-0.009-0.089-0.13-0.089-0.139,0c-0.082,0.82-0.646,1.616-0.673,2.416c-0.04,1.197-0.091,2.366-0.229,3.557
			c-0.133,1.147,0.173,2.402,0.187,3.555c0.025,1.968-0.222,3.93-0.166,5.908c0.003,0.106,0.084,0.187,0.19,0.19
			c0.015,0,0.03,0.001,0.045,0.001C467.413,118.419,467.413,118.023,467.166,118.03L467.166,118.03z"/>
	</g>
</g>
<g>
	<g>
		<path fill="#473D16" d="M467.132,108.467c0.055-0.716,0.082-1.326-0.263-1.978c-0.228-0.43-2.033-1.429-1.822-1.891
			c0.039-0.086,0.119-0.284,0.121-0.382c0.005-0.28,0.004-0.474-0.093-0.732c-0.045-0.119-0.287-0.206-0.32-0.311
			c-0.015-0.05-0.086-0.05-0.101,0c-0.004,0.014-0.008,0.027-0.013,0.041c-0.006,0.02,0,0.05,0.017,0.064
			c0.922,0.733-0.065,0.913,0.114,1.561c0.086,0.312,0.489,0.654,0.728,0.829c1.05,0.769,1.423,1.522,1.521,2.798
			C467.027,108.539,467.127,108.539,467.132,108.467L467.132,108.467z"/>
	</g>
</g>
<g>
	<g>
		<path fill="#473D16" d="M467.04,109.764c0.779,0.306,2.413,0.599,2.53-0.653c0.034-0.365,0.016-0.726,0.025-1.091
			c0.01-0.405,0.618-0.943,0.755-1.4c0.082-0.274-0.018-0.732-0.041-1.016c-0.048-0.588,0.217-1.117,0.21-1.7
			c-0.001-0.095-0.148-0.12-0.169-0.023c-0.094,0.435-0.332,0.964-0.317,1.41c0.01,0.313,0.028,0.626,0.036,0.94
			c0.034,1.351-0.195,0.45-0.518,1.047c-0.24,0.443-0.259,0.78-0.245,1.28c0.042,1.471-1.276,1.295-2.191,0.94
			C466.947,109.433,466.876,109.7,467.04,109.764L467.04,109.764z"/>
	</g>
</g>
<g>
	<g>
		<path fill="#473D16" d="M477.992,118.102c-0.385-3.438,0.416-7.093-0.278-10.457c-0.015-0.071-0.133-0.056-0.127,0.017
			c0.279,3.465-0.351,6.968,0.082,10.44C477.694,118.305,478.015,118.31,477.992,118.102L477.992,118.102z"/>
	</g>
</g>
<g>
	<g>
		<path fill="#473D16" d="M477.599,110.623c-0.126,0.136-0.242,0.278-0.376,0.407c-0.41,0.395-0.629-0.755-0.669-0.888
			c-0.188-0.634-0.426-1.448-0.797-1.998c-0.026-0.038-0.103-0.029-0.096,0.026c0.06,0.476,0.292,0.948,0.463,1.395
			c0.182,0.475,0.262,1.119,0.516,1.552c0.329,0.561,0.829-0.126,1.064-0.389C477.766,110.656,477.664,110.553,477.599,110.623
			L477.599,110.623z"/>
	</g>
</g>
<g>
	<g>
		<path fill="#473D16" d="M477.814,110.095c-0.005-0.005-0.01-0.01-0.015-0.015c-0.021-0.021-0.058-0.012-0.066,0.017
			c-0.003,0.009-0.005,0.018-0.008,0.028c-0.004,0.015,0,0.035,0.012,0.046c0.279,0.239,1.046,0.199,1.055-0.294
			c0.009-0.5-0.329-0.836-0.083-1.358c0.195-0.415,0.495-0.757,0.651-1.197c0.027-0.076-0.095-0.127-0.13-0.055
			c-0.209,0.435-0.588,0.867-0.732,1.323c-0.05,0.159-0.093,0.326-0.059,0.494c0.029,0.142,0.075,0.268,0.129,0.403
			c0.017,0.047,0.034,0.093,0.051,0.14c-0.029,0.527-0.298,0.691-0.806,0.493C477.821,110.114,477.821,110.102,477.814,110.095
			L477.814,110.095z"/>
	</g>
</g>
<circle fill="#89C551" cx="411.253" cy="108.648" r="4.142"/>
<path fill="#739F42" d="M410.949,105.071c2.067,0,3.742,1.675,3.742,3.742c0,2.067-1.675,3.742-3.742,3.742"/>
<circle fill="#FDBC16" cx="448.735" cy="107.908" r="5.762"/>
<path fill="#D79929" d="M448.646,102.597c2.874,0,5.204,2.33,5.204,5.205c0,2.874-2.33,5.205-5.204,5.205"/>
<circle fill="#BF5555" cx="393.981" cy="103.968" r="5.392"/>
<path fill="#894243" d="M393.762,99.098c2.69,0,4.87,2.181,4.87,4.87s-2.181,4.87-4.87,4.87"/>
<g>
	<g>
		<path fill="#473D16" d="M449.377,119.356c-0.145-2.298-0.126-4.689-0.052-6.959c0.083-2.533-0.983-5.272-1.241-7.857
			c0-0.001-0.002-0.001-0.002,0c0.444,4.904,1.41,9.924,1.101,14.815C449.175,119.481,449.385,119.481,449.377,119.356
			L449.377,119.356z"/>
	</g>
</g>
<g>
	<g>
		<path fill="#473D16" d="M449.153,110.924c0.892-0.695,1.315-1.193,1.638-2.264c0.309-1.027,0.851-1.995,0.962-3.072
			c0.001-0.005-0.008-0.006-0.009-0.001c-0.117,0.872-0.488,1.639-0.802,2.452c-0.146,0.378-0.234,0.785-0.35,1.173
			c-0.233,0.783-0.871,1.203-1.479,1.661C449.076,110.901,449.116,110.953,449.153,110.924L449.153,110.924z"/>
	</g>
</g>
<g>
	<g>
		<path fill="#473D16" d="M449.275,111.424c-0.517-0.182-0.896-0.222-1.326-0.617c-0.497-0.457-0.924-0.986-1.412-1.452
			c-0.461-0.439-1.036-0.72-1.489-1.173c-0.622-0.622-0.416-1.321-0.776-1.998c-0.004-0.008-0.016-0.001-0.012,0.007
			c0.28,0.581,0.228,1.207,0.56,1.779c0.36,0.62,1.158,0.978,1.679,1.423c0.589,0.502,1.068,1.131,1.642,1.652
			c0.321,0.292,0.734,0.267,1.13,0.393C449.28,111.44,449.284,111.427,449.275,111.424L449.275,111.424z"/>
	</g>
</g>
<g>
	<g>
		<path fill="#473D16" d="M393.945,116.624c0.491-1.429-0.107-3.786-0.147-5.281c-0.074-2.696,0.161-5.431,0.155-8.143
			c0-0.015-0.023-0.015-0.023,0c-0.006,2.471-0.201,4.936-0.203,7.394c-0.001,1.726-0.352,4.394,0.21,6.03
			C393.938,116.628,393.944,116.628,393.945,116.624L393.945,116.624z"/>
	</g>
</g>
<g>
	<g>
		<path fill="#473D16" d="M394.119,107.315c0.269-0.151,0.876-1.24,1.183-1.706c0.643-0.977,1.007-2.249,1.148-3.394
			c0.001-0.004-0.007-0.005-0.008-0.001c-0.261,1.915-1.167,3.786-2.471,5.189c-0.01,0.011,0.004,0.03,0.016,0.021
			c0.081-0.061,0.057-0.042,0.134-0.107C394.122,107.316,394.121,107.314,394.119,107.315L394.119,107.315z"/>
	</g>
</g>
<g>
	<g>
		<path fill="#473D16" d="M393.982,106.92c-0.241-0.405-0.42-0.654-0.821-0.907c-0.769-0.487-0.743-1.245-0.873-2.047
			c-0.002-0.011-0.018-0.006-0.017,0.005c0.075,0.551,0.099,1.111,0.357,1.614c0.076,0.147,0.243,0.255,0.372,0.352
			c0.188,0.142,0.394,0.241,0.578,0.392c0.16,0.131,0.286,0.414,0.4,0.593C393.98,106.924,393.983,106.922,393.982,106.92
			L393.982,106.92z"/>
	</g>
</g>
<g>
	<g>
		<path fill="#473D16" d="M410.649,119.389c0.434-3.472-0.197-6.975,0.082-10.44c0.006-0.073-0.113-0.089-0.127-0.017
			c-0.695,3.364,0.107,7.02-0.278,10.457C410.302,119.597,410.624,119.592,410.649,119.389L410.649,119.389z"/>
	</g>
</g>
<g>
	<g>
		<path fill="#473D16" d="M410.614,112.013c0.284,0.318,0.652,0.875,1.049,0.409c0.076-0.089,0.091-0.236,0.114-0.345
			c0.074-0.345,0.21-0.687,0.336-1.015c0.196-0.513,0.475-1.059,0.544-1.606c0.007-0.055-0.07-0.064-0.096-0.026
			c-0.348,0.516-0.499,1.21-0.721,1.789c-0.118,0.31-0.22,0.636-0.289,0.96c-0.132,0.614-0.742-0.172-0.833-0.27
			C410.654,111.84,410.552,111.943,410.614,112.013L410.614,112.013z"/>
	</g>
</g>
<circle fill="#89C551" cx="422.67" cy="108.391" r="4.142"/>
<path fill="#739F42" d="M422.67,104.649c2.066,0,3.742,1.675,3.742,3.742s-1.675,3.742-3.742,3.742"/>
<g>
	<g>
		<path fill="#473D16" d="M423.598,119.132c-0.385-3.438,0.416-7.093-0.278-10.457c-0.015-0.071-0.133-0.056-0.127,0.017
			c0.279,3.465-0.351,6.968,0.082,10.44C423.3,119.335,423.621,119.34,423.598,119.132L423.598,119.132z"/>
	</g>
</g>
<g>
	<g>
		<path fill="#473D16" d="M423.205,111.653c-0.126,0.136-0.242,0.278-0.376,0.407c-0.41,0.395-0.629-0.755-0.669-0.888
			c-0.188-0.634-0.426-1.448-0.797-1.998c-0.026-0.038-0.103-0.029-0.096,0.026c0.06,0.476,0.292,0.948,0.463,1.395
			c0.182,0.475,0.262,1.119,0.516,1.552c0.329,0.561,0.829-0.126,1.064-0.389C423.372,111.686,423.27,111.583,423.205,111.653
			L423.205,111.653z"/>
	</g>
</g>
<g>
	<g>
		<path fill="#473D16" d="M423.42,111.124c-0.005-0.005-0.01-0.01-0.015-0.015c-0.021-0.021-0.058-0.012-0.066,0.017
			c-0.003,0.009-0.005,0.018-0.008,0.028c-0.004,0.015,0,0.035,0.012,0.046c0.279,0.239,1.046,0.199,1.055-0.294
			c0.009-0.5-0.329-0.836-0.083-1.358c0.195-0.415,0.495-0.757,0.651-1.197c0.027-0.076-0.095-0.127-0.13-0.055
			c-0.209,0.435-0.588,0.867-0.732,1.323c-0.05,0.159-0.093,0.326-0.059,0.494c0.029,0.142,0.075,0.268,0.129,0.403
			c0.017,0.047,0.034,0.093,0.051,0.14c-0.029,0.527-0.298,0.691-0.806,0.493C423.427,111.144,423.427,111.132,423.42,111.124
			L423.42,111.124z"/>
	</g>
</g>
<circle fill="#89C551" cx="418.833" cy="111.023" r="4.142"/>
<path fill="#739F42" d="M418.528,107.446c2.067,0,3.742,1.675,3.742,3.742s-1.675,3.742-3.742,3.742"/>
<g>
	<g>
		<path fill="#473D16" d="M418.229,121.764c0.434-3.472-0.197-6.975,0.082-10.44c0.006-0.073-0.113-0.089-0.127-0.017
			c-0.695,3.364,0.107,7.02-0.278,10.457C417.882,121.972,418.203,121.967,418.229,121.764L418.229,121.764z"/>
	</g>
</g>
<g>
	<g>
		<path fill="#473D16" d="M418.083,113.783c-0.508,0.198-0.777,0.034-0.806-0.493c0.033-0.14,0.106-0.279,0.154-0.415
			c0.054-0.157,0.035-0.322,0.012-0.481c-0.028-0.199-0.168-0.39-0.273-0.552c-0.19-0.294-0.352-0.596-0.503-0.912
			c-0.035-0.073-0.157-0.021-0.13,0.055c0.137,0.386,0.354,0.725,0.576,1.067c0.362,0.56-0.018,0.935-0.007,1.488
			c0.009,0.492,0.776,0.533,1.055,0.294c0.013-0.011,0.016-0.031,0.012-0.046c-0.003-0.009-0.005-0.018-0.008-0.028
			c-0.008-0.029-0.045-0.038-0.066-0.017c-0.005,0.005-0.01,0.01-0.015,0.015C418.076,113.764,418.076,113.776,418.083,113.783
			L418.083,113.783z"/>
	</g>
</g>
<g>
	<g>
		<path fill="#473D16" d="M410.504,111.408c-0.508,0.198-0.777,0.034-0.806-0.493c0.033-0.14,0.106-0.279,0.154-0.415
			c0.054-0.157,0.035-0.322,0.012-0.481c-0.028-0.199-0.168-0.39-0.273-0.552c-0.19-0.294-0.352-0.596-0.503-0.912
			c-0.035-0.073-0.157-0.021-0.13,0.055c0.137,0.386,0.354,0.725,0.576,1.067c0.362,0.56-0.018,0.935-0.007,1.488
			c0.009,0.492,0.776,0.533,1.055,0.294c0.013-0.011,0.016-0.031,0.012-0.046c-0.003-0.009-0.005-0.018-0.008-0.028
			c-0.008-0.029-0.045-0.038-0.066-0.017c-0.005,0.005-0.01,0.01-0.015,0.015C410.497,111.388,410.497,111.401,410.504,111.408
			L410.504,111.408z"/>
	</g>
</g>
<circle fill="#F1EE86" cx="429.141" cy="106.94" r="6.471"/>
<path fill="#CDC875" d="M429.141,101.259c3.228,0,5.845,2.617,5.845,5.845c0,3.228-2.617,5.845-5.845,5.845"/>
<g>
	<g>
		<path fill="#473D16" d="M429.052,120.556c0.015,0,0.03-0.001,0.045-0.001c0.106-0.003,0.187-0.084,0.19-0.19
			c0.082-2.876-0.316-5.73,0.027-8.591c0.288-2.401-0.68-4.558-0.909-6.846c-0.009-0.089-0.13-0.089-0.139,0
			c-0.058,0.58,0.189,1.137,0.364,1.678c0.405,1.256,0.22,2.966,0.355,4.295c0.097,0.95-0.445,9.258,0.066,9.272
			C428.805,120.166,428.805,120.563,429.052,120.556L429.052,120.556z"/>
	</g>
</g>
<g>
	<g>
		<path fill="#473D16" d="M429.197,110.61c0.085-1.108,0.331-1.928,1.271-2.615c0.333-0.243,0.86-0.585,0.978-1.012
			c0.178-0.648-0.808-0.829,0.114-1.561c0.017-0.014,0.023-0.044,0.017-0.064c-0.004-0.014-0.008-0.027-0.013-0.041
			c-0.015-0.05-0.086-0.05-0.101,0c0.007-0.023-0.319,0.306-0.314,0.297c-0.135,0.23-0.104,0.492-0.099,0.746
			c0.002,0.097,0.082,0.296,0.121,0.382c0.211,0.462-1.594,1.461-1.822,1.891c-0.345,0.652-0.318,1.262-0.263,1.978
			C429.091,110.682,429.191,110.682,429.197,110.61L429.197,110.61z"/>
	</g>
</g>
<g>
	<g>
		<path fill="#473D16" d="M429.105,111.64c-0.747,0.29-2.077,0.646-2.193-0.659c-0.031-0.354,0.118-0.892-0.063-1.227
			c-0.223-0.411-0.115-0.288-0.445-0.568c-0.354-0.301-0.252-1.023-0.229-1.439c0.033-0.592-0.183-1.15-0.307-1.723
			c-0.021-0.097-0.168-0.072-0.169,0.023c-0.011,0.893,0.177,1.767,0.164,2.679c-0.002,0.137,0.044,0.31,0.136,0.417
			c0.541,0.628,0.624,1.082,0.623,1.838c-0.002,1.447,1.583,1.307,2.555,0.926C429.342,111.843,429.271,111.576,429.105,111.64
			L429.105,111.64z"/>
	</g>
</g>
<circle fill="#FDBC16" cx="155.053" cy="124.633" r="6.89"/>
<path fill="#D79929" d="M155.053,118.409c3.438,0,6.224,2.787,6.224,6.224s-2.787,6.224-6.224,6.224"/>
<circle fill="#BF5555" cx="169.485" cy="125.401" r="5.392"/>
<path fill="#894243" d="M169.485,120.531c2.69,0,4.87,2.181,4.87,4.87c0,2.69-2.181,4.87-4.87,4.87"/>
<g>
	<g>
		<path fill="#473D16" d="M154.498,138.324c-0.31-5.869,0.799-11.839,1.336-17.718c0-0.001-0.001-0.001-0.002,0
			c-0.118,1.191-0.419,2.389-0.476,3.579c-0.077,1.618-1.082,3.32-1.032,4.843c0.102,3.092,0.144,6.197-0.02,9.295
			C154.298,138.449,154.505,138.449,154.498,138.324L154.498,138.324z"/>
	</g>
</g>
<g>
	<g>
		<path fill="#473D16" d="M154.597,128.184c-1.129-0.852-1.712-1.663-2.066-3.031c-0.295-1.142-0.92-2.101-1.078-3.294
			c-0.001-0.006-0.01-0.006-0.009,0c0.139,1.302,0.832,2.418,1.153,3.673c0.327,1.279,0.926,1.9,1.961,2.704
			C154.595,128.265,154.635,128.213,154.597,128.184L154.597,128.184z"/>
	</g>
</g>
<g>
	<g>
		<path fill="#473D16" d="M154.411,128.853c0.49-0.158,0.928-0.153,1.344-0.469c0.733-0.555,1.305-1.345,1.968-1.98
			c0.661-0.633,1.43-0.964,2.004-1.695c0.49-0.624,0.345-1.448,0.676-2.131c0.004-0.008-0.008-0.015-0.012-0.007
			c-0.237,0.45-0.232,0.946-0.374,1.429c-0.326,1.112-1.24,1.439-2.027,2.107c-0.625,0.53-1.159,1.141-1.727,1.729
			c-0.593,0.614-1.098,0.737-1.856,1.002C154.399,128.842,154.402,128.856,154.411,128.853L154.411,128.853z"/>
	</g>
</g>
<g>
	<g>
		<path fill="#473D16" d="M169.529,138.057c0.496-1.443,0.171-3.756,0.211-5.281c0.07-2.705-0.197-5.426-0.203-8.143
			c0-0.015-0.023-0.015-0.023,0c-0.006,2.47,0.157,4.94,0.155,7.394c-0.001,1.726-0.71,4.394-0.148,6.03
			C169.522,138.062,169.528,138.062,169.529,138.057L169.529,138.057z"/>
	</g>
</g>
<g>
	<g>
		<path fill="#473D16" d="M169.345,128.75c0.076,0.065,0.053,0.046,0.134,0.107c0.012,0.009,0.026-0.01,0.016-0.021
			c-1.305-1.403-2.211-3.274-2.471-5.189c-0.001-0.004-0.008-0.003-0.008,0.001c0.136,1.101,0.516,2.098,0.987,3.094
			c0.266,0.562,1.011,1.818,1.344,2.005C169.345,128.747,169.343,128.749,169.345,128.75L169.345,128.75z"/>
	</g>
</g>
<g>
	<g>
		<path fill="#473D16" d="M169.486,128.355c0.239-0.376,0.441-0.649,0.83-0.889c0.205-0.126,0.368-0.26,0.519-0.447
			c0.316-0.392,0.295-1.148,0.359-1.616c0.001-0.011-0.015-0.016-0.017-0.005c-0.115,0.717-0.079,1.471-0.725,1.949
			c-0.191,0.141-0.396,0.249-0.578,0.402c-0.176,0.147-0.277,0.413-0.39,0.604C169.483,128.355,169.485,128.357,169.486,128.355
			L169.486,128.355z"/>
	</g>
</g>
<circle fill="#FDBC16" cx="171.871" cy="134.739" r="6.89"/>
<path fill="#D79929" d="M171.764,128.389c3.438,0,6.224,2.787,6.224,6.224s-2.787,6.224-6.224,6.224"/>
<circle fill="#BF5555" cx="157.439" cy="135.508" r="5.392"/>
<path fill="#894243" d="M157.22,130.637c2.69,0,4.87,2.181,4.87,4.87s-2.181,4.87-4.87,4.87"/>
<g>
	<g>
		<path fill="#473D16" d="M172.619,148.431c-0.145-2.754-0.142-5.6-0.052-8.322c0.1-3.028-1.169-6.306-1.476-9.396
			c0-0.001-0.002-0.001-0.002,0c0.537,5.879,1.646,11.85,1.336,17.718C172.419,148.556,172.626,148.556,172.619,148.431
			L172.619,148.431z"/>
	</g>
</g>
<g>
	<g>
		<path fill="#473D16" d="M172.367,138.342c1.067-0.829,1.574-1.423,1.961-2.704c0.37-1.229,1.016-2.386,1.153-3.673
			c0.001-0.006-0.009-0.006-0.009,0c-0.139,1.051-0.581,1.955-0.957,2.931c-0.174,0.452-0.28,0.939-0.418,1.403
			c-0.279,0.938-1.041,1.441-1.769,1.991C172.289,138.319,172.329,138.371,172.367,138.342L172.367,138.342z"/>
	</g>
</g>
<g>
	<g>
		<path fill="#473D16" d="M172.517,138.946c-0.62-0.216-1.073-0.263-1.589-0.736c-0.595-0.546-1.105-1.179-1.689-1.736
			c-0.551-0.525-1.238-0.861-1.78-1.403c-0.745-0.745-0.498-1.58-0.926-2.393c-0.004-0.008-0.016-0.001-0.012,0.007
			c0.337,0.693,0.276,1.443,0.672,2.126c0.43,0.741,1.385,1.169,2.008,1.7c0.705,0.6,1.277,1.353,1.963,1.976
			c0.383,0.348,0.876,0.32,1.349,0.472C172.522,138.962,172.525,138.949,172.517,138.946L172.517,138.946z"/>
	</g>
</g>
<g>
	<g>
		<path fill="#473D16" d="M157.404,148.164c0.491-1.429-0.107-3.786-0.147-5.281c-0.074-2.696,0.161-5.431,0.155-8.143
			c0-0.015-0.023-0.015-0.023,0c-0.006,2.471-0.201,4.936-0.203,7.394c-0.001,1.726-0.352,4.394,0.21,6.03
			C157.396,148.168,157.402,148.168,157.404,148.164L157.404,148.164z"/>
	</g>
</g>
<g>
	<g>
		<path fill="#473D16" d="M157.577,138.854c0.269-0.151,0.876-1.24,1.183-1.706c0.643-0.977,1.007-2.249,1.148-3.394
			c0.001-0.004-0.007-0.005-0.008-0.001c-0.261,1.915-1.167,3.786-2.471,5.189c-0.01,0.011,0.004,0.03,0.016,0.021
			c0.08-0.061,0.057-0.042,0.134-0.107C157.581,138.856,157.579,138.854,157.577,138.854L157.577,138.854z"/>
	</g>
</g>
<g>
	<g>
		<path fill="#473D16" d="M157.44,138.46c-0.241-0.405-0.42-0.654-0.821-0.907c-0.769-0.487-0.743-1.245-0.873-2.047
			c-0.002-0.011-0.018-0.006-0.017,0.005c0.075,0.551,0.099,1.111,0.357,1.614c0.076,0.147,0.243,0.255,0.372,0.352
			c0.188,0.142,0.394,0.241,0.578,0.392c0.16,0.131,0.286,0.414,0.4,0.593C157.439,138.463,157.441,138.462,157.44,138.46
			L157.44,138.46z"/>
	</g>
</g>
<circle fill="#BF5555" cx="361.405" cy="124.487" r="4.508"/>
<path fill="#894243" d="M361.405,120.414c2.249,0,4.072,1.823,4.072,4.072c0,2.249-1.823,4.072-4.072,4.072"/>
<g>
	<g>
		<path fill="#473D16" d="M361.442,135.069c0.514-1.229,0.182-3.701,0.181-5.043c-0.002-2.055-0.168-4.116-0.174-6.182
			c0-0.015-0.023-0.015-0.023,0c-0.006,2.066,0.127,4.13,0.126,6.182c-0.001,1.34-0.632,3.816-0.119,5.043
			C361.435,135.074,361.44,135.074,361.442,135.069L361.442,135.069z"/>
	</g>
</g>
<g>
	<g>
		<path fill="#473D16" d="M361.287,127.287c0.063,0.056,0.044,0.04,0.111,0.091c0.012,0.01,0.026-0.01,0.016-0.021
			c-1.091-1.173-1.848-2.736-2.068-4.338c-0.001-0.004-0.008-0.003-0.008,0.001c0.112,0.921,0.431,1.755,0.824,2.589
			c0.221,0.468,0.848,1.526,1.126,1.675C361.287,127.284,361.286,127.286,361.287,127.287L361.287,127.287z"/>
	</g>
</g>
<g>
	<g>
		<path fill="#473D16" d="M361.406,126.957c0.201-0.314,0.369-0.542,0.695-0.742c0.144-0.089,0.355-0.218,0.436-0.376
			c0.216-0.421,0.237-0.891,0.299-1.352c0.001-0.01-0.015-0.012-0.017-0.002c-0.098,0.599-0.066,1.229-0.606,1.628
			c-0.373,0.276-0.568,0.436-0.809,0.842C361.402,126.957,361.405,126.958,361.406,126.957L361.406,126.957z"/>
	</g>
</g>
<circle fill="#FDBC16" cx="363.4" cy="132.295" r="5.762"/>
<path fill="#D79929" d="M363.311,126.985c2.874,0,5.205,2.33,5.205,5.205s-2.33,5.205-5.205,5.205"/>
<g>
	<g>
		<path fill="#473D16" d="M364.041,143.743c-0.145-2.298-0.126-4.689-0.052-6.959c0.083-2.533-0.983-5.272-1.241-7.857
			c0-0.001-0.002-0.001-0.002,0c0.444,4.904,1.41,9.924,1.101,14.815C363.84,143.868,364.049,143.868,364.041,143.743
			L364.041,143.743z"/>
	</g>
</g>
<g>
	<g>
		<path fill="#473D16" d="M363.818,135.311c0.892-0.695,1.315-1.193,1.638-2.264c0.309-1.027,0.851-1.995,0.962-3.072
			c0.001-0.005-0.009-0.006-0.009-0.001c-0.117,0.872-0.488,1.639-0.802,2.452c-0.146,0.378-0.234,0.785-0.35,1.173
			c-0.233,0.783-0.871,1.203-1.479,1.661C363.74,135.288,363.78,135.34,363.818,135.311L363.818,135.311z"/>
	</g>
</g>
<g>
	<g>
		<path fill="#473D16" d="M363.94,135.811c-0.517-0.182-0.896-0.222-1.326-0.617c-0.497-0.457-0.924-0.986-1.412-1.452
			c-0.461-0.439-1.036-0.72-1.489-1.173c-0.622-0.622-0.416-1.321-0.776-1.998c-0.004-0.008-0.016-0.001-0.012,0.007
			c0.28,0.581,0.228,1.207,0.56,1.779c0.36,0.62,1.158,0.978,1.679,1.423c0.589,0.502,1.068,1.131,1.642,1.652
			c0.321,0.292,0.734,0.267,1.13,0.393C363.945,135.827,363.948,135.814,363.94,135.811L363.94,135.811z"/>
	</g>
</g>
<circle fill="#89C551" cx="466.487" cy="129.819" r="4.142"/>
<path fill="#739F42" d="M466.478,126.02c2.067,0,3.742,1.675,3.742,3.742c0,2.067-1.675,3.742-3.742,3.742"/>
<circle fill="#F1EE86" cx="476.474" cy="127.254" r="6.471"/>
<path fill="#CDC875" d="M476.369,121.596c3.228,0,5.845,2.617,5.845,5.845s-2.617,5.845-5.845,5.845"/>
<g>
	<g>
		<path fill="#473D16" d="M476.385,140.87c0.015,0,0.03-0.001,0.045-0.001c0.106-0.003,0.187-0.084,0.19-0.19
			c0.082-2.876-0.316-5.73,0.027-8.591c0.288-2.401-0.68-4.557-0.909-6.846c-0.009-0.089-0.13-0.089-0.139,0
			c-0.058,0.58,0.189,1.137,0.364,1.678c0.405,1.256,0.22,2.966,0.355,4.295c0.097,0.95-0.445,9.258,0.066,9.272
			C476.138,140.481,476.138,140.877,476.385,140.87L476.385,140.87z"/>
	</g>
</g>
<g>
	<g>
		<path fill="#473D16" d="M476.53,130.925c0.086-1.108,0.331-1.928,1.271-2.615c0.333-0.243,0.86-0.585,0.978-1.012
			c0.178-0.648-0.808-0.829,0.114-1.561c0.017-0.014,0.023-0.044,0.017-0.064c-0.004-0.014-0.008-0.027-0.013-0.041
			c-0.015-0.05-0.086-0.05-0.101,0c0.007-0.023-0.319,0.306-0.314,0.297c-0.135,0.23-0.104,0.492-0.099,0.746
			c0.002,0.097,0.082,0.296,0.121,0.382c0.211,0.462-1.594,1.461-1.822,1.891c-0.345,0.652-0.318,1.262-0.263,1.978
			C476.424,130.996,476.524,130.996,476.53,130.925L476.53,130.925z"/>
	</g>
</g>
<g>
	<g>
		<path fill="#473D16" d="M476.438,131.955c-0.747,0.29-2.077,0.646-2.193-0.659c-0.031-0.354,0.118-0.892-0.063-1.227
			c-0.223-0.411-0.115-0.288-0.445-0.568c-0.354-0.301-0.252-1.023-0.229-1.439c0.033-0.592-0.183-1.15-0.307-1.723
			c-0.021-0.097-0.168-0.072-0.169,0.023c-0.011,0.893,0.177,1.767,0.164,2.679c-0.002,0.137,0.044,0.31,0.136,0.417
			c0.541,0.628,0.624,1.082,0.623,1.838c-0.002,1.447,1.583,1.307,2.555,0.926C476.675,132.157,476.604,131.89,476.438,131.955
			L476.438,131.955z"/>
	</g>
</g>
<g>
	<g>
		<path fill="#473D16" d="M465.883,140.56c0.433-3.472-0.197-6.975,0.082-10.44c0.006-0.073-0.113-0.089-0.127-0.017
			c-0.695,3.364,0.107,7.02-0.278,10.457C465.536,140.768,465.857,140.763,465.883,140.56L465.883,140.56z"/>
	</g>
</g>
<g>
	<g>
		<path fill="#473D16" d="M465.848,133.184c0.284,0.318,0.652,0.875,1.049,0.409c0.076-0.089,0.091-0.237,0.114-0.345
			c0.074-0.345,0.21-0.687,0.336-1.015c0.196-0.513,0.475-1.059,0.544-1.606c0.007-0.055-0.07-0.064-0.096-0.026
			c-0.348,0.516-0.499,1.21-0.721,1.789c-0.118,0.31-0.22,0.636-0.289,0.96c-0.132,0.614-0.742-0.172-0.833-0.27
			C465.887,133.01,465.785,133.114,465.848,133.184L465.848,133.184z"/>
	</g>
</g>
<g>
	<g>
		<path fill="#473D16" d="M465.738,132.579c-0.508,0.198-0.777,0.034-0.806-0.493c0.033-0.14,0.106-0.279,0.154-0.415
			c0.054-0.157,0.035-0.322,0.012-0.481c-0.028-0.199-0.168-0.39-0.273-0.552c-0.19-0.294-0.352-0.596-0.503-0.912
			c-0.035-0.073-0.157-0.021-0.13,0.055c0.137,0.386,0.354,0.725,0.576,1.067c0.362,0.56-0.018,0.935-0.007,1.488
			c0.009,0.492,0.776,0.533,1.055,0.294c0.013-0.011,0.016-0.031,0.012-0.046c-0.003-0.009-0.005-0.018-0.008-0.028
			c-0.008-0.029-0.045-0.038-0.066-0.017c-0.005,0.005-0.01,0.01-0.015,0.015C465.73,132.559,465.73,132.572,465.738,132.579
			L465.738,132.579z"/>
	</g>
</g>
<circle fill="#FDBC16" cx="492.989" cy="124.37" r="6.89"/>
<path fill="#D79929" d="M492.989,118.146c3.438,0,6.224,2.787,6.224,6.224s-2.787,6.224-6.224,6.224"/>
<g>
	<g>
		<path fill="#473D16" d="M493.737,138.062c-0.146-2.754-0.142-5.6-0.052-8.322c0.1-3.028-1.169-6.306-1.476-9.396
			c0-0.001-0.002-0.001-0.002,0c0.537,5.879,1.646,11.85,1.336,17.718C493.536,138.187,493.743,138.187,493.737,138.062
			L493.737,138.062z"/>
	</g>
</g>
<g>
	<g>
		<path fill="#473D16" d="M493.484,127.973c1.067-0.829,1.574-1.423,1.961-2.704c0.37-1.229,1.016-2.386,1.153-3.673
			c0.001-0.006-0.009-0.006-0.009,0c-0.139,1.051-0.581,1.955-0.957,2.931c-0.174,0.452-0.28,0.939-0.418,1.403
			c-0.279,0.938-1.041,1.441-1.769,1.991C493.406,127.95,493.447,128.002,493.484,127.973L493.484,127.973z"/>
	</g>
</g>
<g>
	<g>
		<path fill="#473D16" d="M493.634,128.577c-0.62-0.216-1.073-0.263-1.589-0.736c-0.595-0.546-1.105-1.179-1.689-1.736
			c-0.551-0.525-1.238-0.861-1.78-1.403c-0.745-0.745-0.498-1.58-0.926-2.393c-0.004-0.008-0.016-0.001-0.012,0.007
			c0.337,0.693,0.276,1.443,0.672,2.126c0.43,0.741,1.385,1.169,2.008,1.7c0.705,0.6,1.277,1.353,1.963,1.976
			c0.383,0.348,0.876,0.32,1.349,0.472C493.639,128.593,493.643,128.58,493.634,128.577L493.634,128.577z"/>
	</g>
</g>
<circle fill="#89C551" cx="470.325" cy="132.451" r="4.142"/>
<path fill="#739F42" d="M470.22,128.753c2.067,0,3.742,1.675,3.742,3.742s-1.675,3.742-3.742,3.742"/>
<circle fill="#BF5555" cx="487.597" cy="127.771" r="5.392"/>
<path fill="#894243" d="M487.597,122.901c2.69,0,4.87,2.181,4.87,4.87c0,2.69-2.181,4.87-4.87,4.87"/>
<g>
	<g>
		<path fill="#473D16" d="M487.641,140.427c0.496-1.443,0.171-3.756,0.211-5.281c0.07-2.705-0.197-5.426-0.203-8.143
			c0-0.015-0.023-0.015-0.023,0c-0.006,2.47,0.157,4.94,0.155,7.394c-0.001,1.726-0.71,4.394-0.148,6.03
			C487.634,140.431,487.64,140.431,487.641,140.427L487.641,140.427z"/>
	</g>
</g>
<g>
	<g>
		<path fill="#473D16" d="M487.457,131.12c0.076,0.065,0.053,0.046,0.134,0.107c0.013,0.009,0.026-0.01,0.016-0.021
			c-1.305-1.403-2.211-3.274-2.471-5.189c-0.001-0.004-0.008-0.003-0.008,0.001c0.136,1.101,0.516,2.098,0.987,3.094
			c0.266,0.562,1.011,1.818,1.344,2.005C487.457,131.117,487.455,131.119,487.457,131.12L487.457,131.12z"/>
	</g>
</g>
<g>
	<g>
		<path fill="#473D16" d="M487.598,130.725c0.239-0.376,0.441-0.649,0.83-0.889c0.205-0.126,0.368-0.26,0.519-0.447
			c0.316-0.392,0.295-1.148,0.359-1.616c0.001-0.011-0.015-0.016-0.017-0.005c-0.115,0.717-0.079,1.471-0.725,1.949
			c-0.191,0.141-0.396,0.249-0.578,0.402c-0.176,0.147-0.277,0.413-0.39,0.604C487.595,130.725,487.597,130.727,487.598,130.725
			L487.598,130.725z"/>
	</g>
</g>
<g>
	<g>
		<path fill="#473D16" d="M471.252,143.192c-0.385-3.438,0.416-7.093-0.278-10.457c-0.015-0.071-0.133-0.056-0.127,0.017
			c0.279,3.465-0.351,6.968,0.082,10.44C470.954,143.395,471.275,143.4,471.252,143.192L471.252,143.192z"/>
	</g>
</g>
<g>
	<g>
		<path fill="#473D16" d="M470.859,135.712c-0.126,0.136-0.242,0.278-0.376,0.407c-0.41,0.395-0.629-0.755-0.669-0.888
			c-0.188-0.634-0.426-1.448-0.797-1.998c-0.026-0.038-0.103-0.029-0.096,0.026c0.06,0.476,0.292,0.948,0.463,1.395
			c0.182,0.475,0.262,1.119,0.516,1.552c0.329,0.561,0.829-0.126,1.064-0.389C471.026,135.746,470.924,135.642,470.859,135.712
			L470.859,135.712z"/>
	</g>
</g>
<circle fill="#89C551" cx="458.907" cy="132.194" r="4.142"/>
<path fill="#739F42" d="M458.735,128.395c2.066,0,3.742,1.675,3.742,3.742c0,2.067-1.675,3.742-3.742,3.742"/>
<g>
	<g>
		<path fill="#473D16" d="M458.303,142.935c0.434-3.472-0.197-6.975,0.082-10.44c0.006-0.073-0.113-0.089-0.127-0.017
			c-0.695,3.364,0.107,7.02-0.278,10.457C457.956,143.143,458.278,143.138,458.303,142.935L458.303,142.935z"/>
	</g>
</g>
<g>
	<g>
		<path fill="#473D16" d="M458.269,135.559c0.284,0.318,0.652,0.875,1.049,0.409c0.076-0.089,0.091-0.236,0.114-0.345
			c0.074-0.345,0.21-0.687,0.336-1.015c0.196-0.513,0.475-1.059,0.544-1.606c0.007-0.055-0.07-0.064-0.096-0.026
			c-0.348,0.516-0.499,1.21-0.721,1.789c-0.118,0.31-0.22,0.636-0.289,0.96c-0.132,0.614-0.742-0.172-0.833-0.27
			C458.308,135.385,458.206,135.489,458.269,135.559L458.269,135.559z"/>
	</g>
</g>
<g>
	<g>
		<path fill="#473D16" d="M458.158,134.954c-0.508,0.198-0.777,0.034-0.806-0.493c0.033-0.14,0.106-0.279,0.154-0.415
			c0.054-0.157,0.035-0.322,0.012-0.481c-0.028-0.199-0.168-0.39-0.273-0.552c-0.19-0.294-0.352-0.596-0.503-0.912
			c-0.035-0.073-0.157-0.021-0.13,0.055c0.137,0.386,0.354,0.725,0.576,1.067c0.362,0.56-0.018,0.935-0.007,1.488
			c0.009,0.492,0.776,0.533,1.055,0.294c0.013-0.011,0.016-0.031,0.012-0.046c-0.003-0.009-0.005-0.018-0.008-0.028
			c-0.008-0.029-0.045-0.038-0.066-0.017c-0.005,0.005-0.01,0.01-0.015,0.015C458.151,134.934,458.151,134.947,458.158,134.954
			L458.158,134.954z"/>
	</g>
</g>
<circle fill="#89C551" cx="462.745" cy="134.826" r="4.142"/>
<path fill="#739F42" d="M462.736,131.084c2.066,0,3.742,1.675,3.742,3.742c0,2.067-1.675,3.742-3.742,3.742"/>
<g>
	<g>
		<path fill="#473D16" d="M463.672,145.567c-0.385-3.438,0.416-7.093-0.278-10.457c-0.015-0.071-0.133-0.056-0.127,0.017
			c0.279,3.465-0.351,6.968,0.082,10.44C463.374,145.77,463.696,145.775,463.672,145.567L463.672,145.567z"/>
	</g>
</g>
<g>
	<g>
		<path fill="#473D16" d="M463.494,137.559c-0.005-0.005-0.01-0.01-0.015-0.015c-0.021-0.021-0.058-0.012-0.066,0.017
			c-0.003,0.009-0.005,0.018-0.008,0.028c-0.004,0.015,0,0.035,0.012,0.046c0.279,0.239,1.046,0.199,1.055-0.294
			c0.009-0.5-0.329-0.836-0.083-1.358c0.195-0.415,0.495-0.757,0.651-1.197c0.027-0.076-0.095-0.127-0.13-0.055
			c-0.209,0.435-0.588,0.867-0.732,1.323c-0.05,0.159-0.093,0.326-0.059,0.494c0.029,0.142,0.075,0.268,0.129,0.403
			c0.017,0.047,0.034,0.093,0.051,0.14c-0.029,0.527-0.298,0.691-0.806,0.493C463.501,137.579,463.501,137.566,463.494,137.559
			L463.494,137.559z"/>
	</g>
</g>
<g>
	<g>
		<path fill="#473D16" d="M471.074,135.184c-0.005-0.005-0.01-0.01-0.015-0.015c-0.021-0.021-0.058-0.012-0.066,0.017
			c-0.003,0.009-0.005,0.018-0.008,0.028c-0.004,0.015,0,0.035,0.012,0.046c0.28,0.239,1.046,0.199,1.055-0.294
			c0.009-0.5-0.329-0.836-0.083-1.358c0.195-0.415,0.495-0.757,0.651-1.197c0.027-0.076-0.095-0.127-0.13-0.055
			c-0.209,0.435-0.588,0.867-0.732,1.323c-0.05,0.159-0.093,0.326-0.059,0.494c0.029,0.142,0.075,0.268,0.129,0.403
			c0.017,0.047,0.034,0.093,0.051,0.14c-0.029,0.527-0.298,0.691-0.806,0.493C471.081,135.204,471.081,135.191,471.074,135.184
			L471.074,135.184z"/>
	</g>
</g>
<circle fill="#F1EE86" cx="452.436" cy="130.743" r="6.471"/>
<path fill="#CDC875" d="M451.842,125.062c3.228,0,5.845,2.617,5.845,5.845c0,3.228-2.617,5.845-5.845,5.845"/>
<g>
	<g>
		<path fill="#473D16" d="M452.526,143.976c0.306-0.008,0.181-7.592,0.083-8.399c-0.275-2.282,0.919-4.676,0.702-6.846
			c-0.009-0.089-0.13-0.089-0.139,0c-0.082,0.82-0.646,1.616-0.673,2.416c-0.04,1.197-0.091,2.367-0.229,3.557
			c-0.133,1.147,0.173,2.402,0.187,3.555c0.025,1.968-0.222,3.93-0.166,5.908c0.003,0.106,0.084,0.187,0.19,0.19
			c0.015,0,0.03,0.001,0.045,0.001C452.773,144.366,452.773,143.969,452.526,143.976L452.526,143.976z"/>
	</g>
</g>
<g>
	<g>
		<path fill="#473D16" d="M452.492,134.413c0.055-0.716,0.082-1.326-0.263-1.978c-0.228-0.43-2.033-1.429-1.822-1.891
			c0.039-0.086,0.119-0.284,0.121-0.382c0.005-0.28,0.004-0.474-0.093-0.732c-0.045-0.119-0.287-0.206-0.32-0.311
			c-0.015-0.05-0.086-0.05-0.101,0c-0.004,0.014-0.008,0.027-0.013,0.041c-0.006,0.02,0,0.05,0.017,0.064
			c0.922,0.733-0.065,0.913,0.114,1.561c0.086,0.312,0.489,0.654,0.728,0.829c1.05,0.769,1.423,1.522,1.521,2.798
			C452.386,134.485,452.486,134.485,452.492,134.413L452.492,134.413z"/>
	</g>
</g>
<g>
	<g>
		<path fill="#473D16" d="M452.399,135.71c0.779,0.306,2.413,0.599,2.53-0.653c0.034-0.365,0.016-0.726,0.025-1.091
			c0.01-0.405,0.618-0.943,0.755-1.4c0.082-0.274-0.018-0.732-0.041-1.016c-0.048-0.588,0.217-1.117,0.21-1.7
			c-0.001-0.095-0.148-0.12-0.169-0.023c-0.094,0.435-0.332,0.964-0.317,1.41c0.01,0.313,0.028,0.626,0.036,0.94
			c0.034,1.351-0.195,0.45-0.518,1.047c-0.24,0.443-0.259,0.78-0.245,1.28c0.042,1.471-1.276,1.295-2.191,0.94
			C452.306,135.379,452.236,135.646,452.399,135.71L452.399,135.71z"/>
	</g>
</g>
<circle fill="#F1EE86" cx="252.744" cy="130.715" r="6.471"/>
<path fill="#CDC875" d="M252.744,124.869c3.228,0,5.845,2.617,5.845,5.845c0,3.228-2.617,5.845-5.845,5.845"/>
<g>
	<g>
		<path fill="#473D16" d="M252.834,143.948c0.307-0.008,0.181-7.592,0.083-8.399c-0.275-2.282,0.919-4.676,0.702-6.846
			c-0.009-0.089-0.13-0.089-0.139,0c-0.082,0.82-0.646,1.616-0.673,2.416c-0.04,1.197-0.091,2.366-0.229,3.557
			c-0.133,1.147,0.173,2.402,0.187,3.555c0.025,1.968-0.222,3.93-0.166,5.908c0.003,0.106,0.084,0.187,0.19,0.19
			c0.015,0,0.03,0.001,0.045,0.001C253.08,144.338,253.08,143.941,252.834,143.948L252.834,143.948z"/>
	</g>
</g>
<g>
	<g>
		<path fill="#473D16" d="M252.8,134.386c0.055-0.716,0.082-1.326-0.263-1.978c-0.228-0.43-2.033-1.429-1.822-1.891
			c0.039-0.086,0.119-0.284,0.121-0.382c0.005-0.28,0.004-0.474-0.093-0.732c-0.045-0.119-0.287-0.206-0.32-0.311
			c-0.015-0.05-0.086-0.05-0.101,0c-0.004,0.014-0.008,0.027-0.013,0.041c-0.006,0.02,0,0.05,0.017,0.064
			c0.922,0.733-0.065,0.913,0.114,1.561c0.086,0.312,0.489,0.654,0.728,0.829c1.05,0.769,1.423,1.522,1.521,2.798
			C252.694,134.457,252.794,134.457,252.8,134.386L252.8,134.386z"/>
	</g>
</g>
<g>
	<g>
		<path fill="#473D16" d="M252.707,135.682c0.779,0.306,2.413,0.599,2.53-0.653c0.034-0.365,0.015-0.726,0.025-1.091
			c0.01-0.405,0.618-0.943,0.755-1.4c0.082-0.274-0.018-0.732-0.041-1.016c-0.048-0.588,0.217-1.117,0.21-1.7
			c-0.001-0.095-0.148-0.12-0.169-0.023c-0.094,0.435-0.332,0.964-0.317,1.41c0.01,0.313,0.028,0.626,0.036,0.94
			c0.034,1.351-0.195,0.45-0.519,1.047c-0.24,0.443-0.259,0.78-0.245,1.28c0.042,1.471-1.276,1.295-2.191,0.94
			C252.614,135.351,252.543,135.618,252.707,135.682L252.707,135.682z"/>
	</g>
</g>
<circle fill="#89C551" cx="258.894" cy="135.911" r="4.142"/>
<path fill="#739F42" d="M258.589,132.334c2.067,0,3.742,1.675,3.742,3.742c0,2.067-1.675,3.742-3.742,3.742"/>
<g>
	<g>
		<path fill="#473D16" d="M258.29,146.652c0.434-3.472-0.197-6.975,0.082-10.44c0.006-0.073-0.113-0.089-0.127-0.017
			c-0.695,3.364,0.107,7.02-0.278,10.457C257.943,146.861,258.265,146.856,258.29,146.652L258.29,146.652z"/>
	</g>
</g>
<g>
	<g>
		<path fill="#473D16" d="M258.255,139.277c0.284,0.318,0.652,0.875,1.049,0.409c0.076-0.089,0.091-0.236,0.114-0.345
			c0.074-0.345,0.21-0.687,0.336-1.015c0.196-0.513,0.475-1.059,0.544-1.606c0.007-0.055-0.07-0.064-0.096-0.026
			c-0.348,0.516-0.499,1.21-0.721,1.789c-0.118,0.31-0.22,0.636-0.289,0.96c-0.132,0.614-0.742-0.172-0.833-0.27
			C258.295,139.103,258.193,139.207,258.255,139.277L258.255,139.277z"/>
	</g>
</g>
<g>
	<g>
		<path fill="#473D16" d="M258.145,138.672c-0.508,0.198-0.777,0.034-0.806-0.493c0.033-0.14,0.106-0.279,0.154-0.415
			c0.054-0.157,0.035-0.322,0.012-0.481c-0.028-0.199-0.168-0.39-0.273-0.552c-0.19-0.294-0.352-0.596-0.503-0.912
			c-0.035-0.073-0.157-0.021-0.13,0.055c0.137,0.386,0.354,0.725,0.576,1.067c0.362,0.56-0.018,0.935-0.007,1.488
			c0.009,0.492,0.776,0.533,1.055,0.294c0.013-0.011,0.016-0.031,0.012-0.046c-0.003-0.009-0.005-0.018-0.008-0.028
			c-0.008-0.029-0.045-0.038-0.066-0.017c-0.005,0.005-0.01,0.01-0.015,0.015C258.138,138.652,258.138,138.664,258.145,138.672
			L258.145,138.672z"/>
	</g>
</g>
<circle fill="#BF5555" cx="265.638" cy="133.088" r="5.392"/>
<path fill="#894243" d="M265.638,128.218c2.69,0,4.87,2.181,4.87,4.87s-2.181,4.87-4.87,4.87"/>
<g>
	<g>
		<path fill="#473D16" d="M265.682,145.744c0.496-1.443,0.171-3.756,0.211-5.281c0.07-2.705-0.197-5.426-0.203-8.143
			c0-0.015-0.023-0.015-0.023,0c-0.006,2.47,0.157,4.94,0.155,7.394c-0.001,1.726-0.71,4.394-0.148,6.03
			C265.674,145.748,265.68,145.748,265.682,145.744L265.682,145.744z"/>
	</g>
</g>
<g>
	<g>
		<path fill="#473D16" d="M265.497,136.437c0.076,0.065,0.053,0.046,0.134,0.107c0.012,0.009,0.026-0.01,0.016-0.021
			c-1.305-1.403-2.211-3.274-2.471-5.189c-0.001-0.004-0.008-0.003-0.008,0.001c0.136,1.101,0.516,2.098,0.987,3.094
			c0.266,0.562,1.011,1.818,1.344,2.005C265.498,136.434,265.496,136.436,265.497,136.437L265.497,136.437z"/>
	</g>
</g>
<g>
	<g>
		<path fill="#473D16" d="M265.639,136.042c0.239-0.376,0.441-0.649,0.83-0.889c0.205-0.126,0.368-0.26,0.519-0.447
			c0.316-0.392,0.295-1.148,0.359-1.616c0.001-0.011-0.015-0.016-0.017-0.005c-0.115,0.717-0.079,1.471-0.725,1.949
			c-0.191,0.141-0.396,0.249-0.578,0.402c-0.176,0.147-0.277,0.413-0.39,0.604C265.635,136.042,265.638,136.043,265.639,136.042
			L265.639,136.042z"/>
	</g>
</g>
<path opacity="0.8" fill="#0D002A" enable-background="new    " d="M736.534,187.007c-8.848-4.029-17.705-7.893-26.565-11.592
	h-0.013h-0.006c-6.722-2.806-13.445-5.517-20.167-8.137c-8.81-3.435-17.617-6.713-26.414-9.836h-0.752
	c-9.486-3.357-18.961-6.537-28.417-9.541c-0.989-0.314-1.977-0.622-2.965-0.933l-0.21-0.066l0-0.001
	c1.797-0.319-10.919-3.373-16.367-4.973c-10.073-2.958-20.115-5.724-30.116-8.301c-10.595-2.731-21.144-5.251-31.635-7.57h-0.095
	c-16.93-3.741-33.708-6.958-50.281-9.68c-2.893,0.008-5.271-0.598-7.434-1.54c-9.881-17.416-48.529-85.435-49.398-85.488
	c-0.756-0.045-5.975,4.208-8.649,6.626c-1.123-1.824-1.803-2.867-1.893-2.867c-0.716,0-3.812,5.374-3.812,5.374
	s-4.568-7.751-5.569-7.935c-1-0.184-3.538,3.184-3.538,3.184l-0.466,0.419l-6.618,10.044v0l6.618-10.044l0.466-0.419
	c0,0-4.144-5.933-4.621-6.172c-0.477-0.239-6.384,1.074-7.159,1.432c-0.775,0.358-1.74,3.229-1.741,3.233
	c-0.003-0.007-8.521-17.432-9.535-17.73c-1.014-0.298-12.469,3.341-13.245,3.58c-0.292,0.09-2.242,3.363-4.557,7.405
	C374.662,13.733,369.003,4.014,367.2,1.582c-0.091-0.155-0.22-0.298-0.32-0.414c-0.005-0.006-0.01-0.008-0.016-0.012
	c-0.027-0.03-0.06-0.06-0.096-0.089c-0.029-0.023-0.06-0.046-0.095-0.068c-1.204-0.774-5.752-1.004-10.517-1.004
	c-5.297,0-10.338,0.312-10.804,1.313c-1.578,1.567-6.446,8.86-12.552,18.345c-4.034-2.072-6.778-3.411-7.059-3.369
	c-1.1,0.165-9.232,13.091-10.507,15.127c-1.561-1.573-2.536-2.472-2.679-2.42c-0.311,0.113-2.419,2.76-5.173,6.326
	c-1.58-1.893-20.695-24.774-21.7-25.425c-1.048-0.679-14.21,1.396-15.639,2.103c-1.428,0.708-7.114,18.29-8.14,19.322
	c-1.026,1.032-4.438,4.465-4.441,4.468l0,0c0,0-9.967-17.445-11.31-17.355c-1.342,0.089-7.89,5.101-8.733,6.347
	c-0.256,0.378-5.924,8.765-13.698,20.266c-1.527,0.5-2.796,0.968-3.185,1.189c-0.906,0.514-30.807,45.654-39.048,58.11
	c-9.216,3.439-18.514,8.924-25.414,13.475c-0.333-0.05-0.674-0.076-1.021-0.076c-3.321,0-6.093,2.35-6.745,5.477
	c0,0,0,0.001,0,0.001c-0.156,0.115-0.308,0.226-0.454,0.335l0.411-0.097c0,0.001,0,0.002-0.001,0.003l-0.417,0.099l-10.526,2.498
	h0.087c-5.888,2.44-11.37,4.962-16.55,7.568c-5.319,2.676-10.322,5.442-15.126,8.301c-2.476,1.474-4.938,2.92-7.324,4.444
	c-0.081,0.079-0.082,0.086-0.018,0.116l0.081-0.049c0.029-0.013,0.056-0.023,0.082-0.03c-0.026,0.009-0.053,0.019-0.082,0.032
	l-0.081,0.049l-0.744,0.452c-0.496,0.319-0.994,0.638-1.487,0.959c-4.174,2.719-14.175,7.734-14.716,9.559
	c-4.429,3.172-8.866,6.443-13.422,9.817c-3.577,2.649-7.228,5.36-11.009,8.137h0.001c-0.047,0.034-0.092,0.068-0.139,0.102
	l-15.064,9.768c-17.299,8.216-48.194,25.369-40.642,28.221c11.48,4.667,191.365,3.161,377.207,1.967
	c197.248,0.629,402.472,0.695,412.105-1.693C812.904,207.754,754.575,195.223,736.534,187.007z"/>
</svg>
