<?xml version="1.0" encoding="utf-8"?>
<!-- Generator: Adobe Illustrator 17.0.0, SVG Export Plug-In . SVG Version: 6.00 Build 0)  -->
<!DOCTYPE svg PUBLIC "-//W3C//DTD SVG 1.1//EN" "http://www.w3.org/Graphics/SVG/1.1/DTD/svg11.dtd">
<svg version="1.1" xmlns="http://www.w3.org/2000/svg" xmlns:xlink="http://www.w3.org/1999/xlink" x="0px" y="0px"
	 width="13.741px" height="30.751px" viewBox="0 0 13.741 30.751" enable-background="new 0 0 13.741 30.751" xml:space="preserve">
<g id="Layer_1">
	<g id="Layer_1_1_" opacity="0.8">
		<g>
			<path fill="#9CA2A4" d="M11.68,22.757L11.68,22.757c-0.002-0.003-0.002-0.003-0.002-0.005c-0.105-0.408-0.166-0.822-0.164-1.238
				c-0.197,0.105-0.392,0.186-0.591,0.271c-0.003,0.001-0.006,0.003-0.009,0.004c0.027,0.257,0.099,0.512,0.21,0.703
				C11.242,22.696,11.46,22.758,11.68,22.757z"/>
			<path fill="#B3A5B7" d="M7.815,9.82C7.797,9.753,7.78,9.686,7.763,9.618C7.745,9.532,7.728,9.444,7.712,9.353
				c-0.057-0.37-0.076-0.768-0.064-1.191C7.65,8.026,7.657,7.89,7.666,7.751c0.037-0.613,0.121-1.279,0.212-2.003
				C7.91,5.505,7.941,5.257,7.971,5.003C7.979,4.926,7.989,4.848,7.997,4.77c0.005-0.039,0.01-0.077,0.013-0.115
				c0.008-0.05-0.036,0.093-0.051,0.137C7.925,4.885,7.894,4.979,7.862,5.071v0.002c-0.007,0.021-0.014,0.041-0.02,0.062
				C7.817,5.213,7.793,5.292,7.765,5.371c-0.37,1.203-0.497,2.29-0.5,3.128C7.264,8.622,7.266,8.74,7.27,8.851
				c0.017,0.438,0.069,0.79,0.134,1.028c0.012,0.045,0.025,0.086,0.038,0.123C7.468,9.999,7.493,9.995,7.52,9.991
				C7.583,9.98,7.648,9.973,7.713,9.968C7.76,9.963,7.81,9.96,7.858,9.957C7.843,9.912,7.828,9.867,7.815,9.82L7.815,9.82z"/>
			<path fill="#AFBABE" d="M0.846,17.663c-0.129-0.096-0.172-0.088-0.172-0.088c-0.198,0.522,0.203,1.948,0.28,2.199
				c0.877,0.405,2.116,1.312,2.823,2.173C3.313,20.875,2.5,19.599,1.8,18.697C1.426,18.213,1.083,17.836,0.846,17.663z"/>
			<path fill="#736E61" d="M4.433,2.37c0.424-0.301,0.861-0.452,1.265-0.449C5.19,1.575,4.497,1.648,3.831,2.121
				c-1.152,0.818-2,2.609-1.748,4.721c0,0.002,0.002,0.004,0.002,0.004c0.13,0.538,0.369,1.034,0.732,1.441
				C2.088,5.673,3.048,3.354,4.433,2.37z"/>
			<path fill="#E4F1FB" d="M4.154,23.193L4.154,23.193c-0.002,0-0.002,0-0.002-0.002v-0.002C4.15,23.186,4.15,23.184,4.15,23.181
				c-0.002-0.005-0.004-0.013-0.004-0.02c0-0.004,0-0.007,0-0.011c0.02-0.147-0.021-0.316-0.108-0.499
				c-0.454-0.953-2.167-2.266-3.212-2.738c-0.164-0.076-0.313-0.129-0.437-0.157c-0.105-0.025-0.283-0.051-0.315,0.042
				c-0.121,0.365,0.188,1.876,1.151,2.991c0.55,0.635,1.494,1.338,2.897,1.121C4.095,23.663,4.107,23.423,4.154,23.193z"/>
			<polygon fill="#008AC1" points="4.176,23.226 4.176,23.226 4.168,23.216 			"/>
			<path fill="#9CA2A4" d="M7.877,29.388c0.051-0.283-0.286-0.714-0.419-0.942c-0.466-0.804-0.741-1.574-0.947-2.478
				c-0.148,0.044-0.3,0.078-0.458,0.099c0.181,0.781,0.412,1.54,0.679,2.299c0.138,0.392,0.293,0.774,0.495,1.139
				c0.018,0.032,0.039,0.067,0.062,0.103C7.456,29.57,7.856,29.507,7.877,29.388z"/>
			<path fill="#008AC1" d="M9.502,20.338l-0.007,0.009L9.502,20.338z"/>
			<path fill="#969FA5" d="M2.833,18.66c-0.343-0.515-0.542-0.686-0.613-0.723c-0.168,0.311-0.228,0.631-0.239,0.687
				c0.873,1.13,1.881,2.804,2.227,3.978c0,0.002,0.002,0.005,0.002,0.009c0.004,0.009,0.009,0.016,0.011,0.025
				C4.274,21.418,3.585,19.788,2.833,18.66z"/>
			<path fill="#008AC1" d="M4.265,23.913L4.265,23.913c-0.009-0.006-0.019-0.011-0.029-0.013
				C4.247,23.902,4.257,23.907,4.265,23.913z"/>
			<path fill="#008AC1" d="M4.207,23.244l0.005,0.004L4.207,23.244z"/>
			<path fill="#008AC1" d="M4.159,23.206c0.002,0.005,0.005,0.009,0.009,0.014C4.165,23.214,4.163,23.211,4.159,23.206L4.159,23.206
				z"/>
			<path fill="#9CA2A4" d="M10.923,19.785c0.123-0.106,0.267-0.224,0.425-0.313c-0.226-0.147-0.477-0.112-0.719,0.011
				c-0.002-0.002-0.002-0.002-0.002,0c-0.363,0.242-0.645,0.566-0.923,0.896c0.081,0.175,0.155,0.35,0.215,0.528
				C10.245,20.527,10.543,20.115,10.923,19.785z"/>
			<path fill="#777D7F" d="M7.815,10.137c-0.067,0.004-0.134,0.009-0.2,0.018c-0.032,0.004-0.063,0.009-0.094,0.014
				c-0.063,0.009-0.125,0.019-0.188,0.031c-0.018-0.037-0.036-0.076-0.051-0.121c-0.005-0.014-0.009-0.031-0.014-0.045
				C7.194,9.816,7.137,9.514,7.106,9.137C7.099,9.033,7.093,8.925,7.09,8.811c-0.02-0.607,0.028-1.355,0.181-2.176
				C7.348,6.21,7.456,5.766,7.593,5.311c0-0.002,0-0.002,0-0.002C7.6,5.288,7.606,5.267,7.613,5.246
				c0.008-0.019,0.014-0.038,0.018-0.057c0.015-0.035,0.026-0.072,0.037-0.107C7.673,5.066,7.678,5.05,7.681,5.034
				c0.01-0.028,0.018-0.055,0.028-0.083C7.774,4.759,7.846,4.564,7.923,4.37C7.908,4.373,7.89,4.378,7.872,4.384
				C7.665,4.453,7.427,4.577,7.172,4.75C7.089,4.806,7.005,4.867,6.918,4.932c-0.565,0.437-1.188,1.092-1.724,1.91
				c-0.465,0.715-1.089,1.9-1.216,3.286c-0.06,0.646-0.006,1.34,0.214,2.047c0.025,0.069,0.051,0.14,0.079,0.209
				c-0.039,0.065-0.074,0.13-0.106,0.198c-0.078,0.15-0.145,0.306-0.203,0.465c-0.175,0.477-0.271,0.992-0.271,1.529
				c0,2.456,2.076,3.777,4.532,3.777c1.963,0,3.609-1.86,3.613-1.867c0.121-0.258,0.491-0.545,1.06-2.435
				c0.31-1.031,0.069-2.747-1.238-2.487c-0.013,0.003-0.109,0.054-0.166,0.083c-0.02,0.01-0.036,0.018-0.04,0.019
				c-0.05,0.012-0.05-0.038-0.029-0.097c-0.814-0.888-1.983-1.446-3.279-1.446c-0.031,0-0.06,0.001-0.091,0.002
				c-0.045,0.001-0.091,0.003-0.136,0.005C7.885,10.132,7.849,10.134,7.815,10.137z"/>
			<path fill="#C5D1D7" d="M9.507,22.502c0.282-0.428,0.776-0.649,1.265-0.852c0.046-0.02,0.092-0.039,0.138-0.056
				c0.214-0.088,0.425-0.177,0.609-0.283c0.013-0.223,0.044-0.445,0.099-0.667c0.027-0.11,0.197-0.063,0.17,0.047
				c-0.054,0.223-0.087,0.45-0.096,0.681c-0.023,0.401,0.02,0.806,0.119,1.193c0.018,0.067,0.039,0.123,0.065,0.175
				c0.03,0.063,0.067,0.115,0.112,0.157c0.248,0.246,0.667,0.184,1.047,0.085c0.206-0.054,0.617-0.136,0.587-0.428
				c-0.02-0.191-0.092-0.374-0.175-0.548c-0.141-0.295-0.315-0.576-0.449-0.873c-0.212-0.47-0.559-1.795-1.294-1.619
				c-0.027,0.004-0.053,0.013-0.081,0.023c-0.007,0.002-0.012,0.005-0.02,0.009c-0.029,0.009-0.054,0.021-0.081,0.032
				c-0.007,0.004-0.014,0.007-0.021,0.011c-0.345,0.159-0.626,0.426-0.886,0.725c-0.373,0.43-0.702,0.925-1.11,1.264
				c-0.087,0.072-0.212-0.053-0.125-0.125c0.145-0.121,0.278-0.253,0.403-0.391c-0.054-0.181-0.123-0.358-0.203-0.532
				c-0.027-0.06-0.054-0.121-0.085-0.182c-0.288-0.6-0.649-1.184-0.759-1.826c-0.004-0.023,0-0.044,0.011-0.062
				C8.55,18.487,8.349,18.5,8.145,18.5c-0.163,0-0.322-0.009-0.479-0.027c0,0.007,0.002,0.014,0.002,0.023
				c0,0.564-0.058,1.144-0.359,1.637c-0.29,0.474-0.633,0.654-1.112,0.889c-0.84,0.414-1.627,1.179-1.853,2.097
				c-0.065,0.269-0.083,0.55-0.04,0.84c0,0.002,0,0.002,0,0.004c0.002,0.002,0.002,0.005,0.002,0.009
				c0.002,0.004,0.002,0.007,0.002,0.013c0,0.013-0.002,0.023-0.005,0.034c-0.099,0.352-0.094,0.744-0.101,1.108
				c-0.011,0.564-0.004,1.13,0.018,1.694c0.036,0.967,0.04,1.994,0.253,2.944c0.106,0.475,0.636,0.475,1.025,0.55
				c0.35,0.065,0.781,0.147,1.131,0.039c0.173-0.054,0.497-0.221,0.587-0.401c0.025-0.051-0.002-0.123-0.04-0.193
				c-0.036-0.063-0.08-0.125-0.101-0.164c-0.6-1.099-0.942-2.369-1.216-3.584c-0.016-0.074,0.053-0.119,0.11-0.108c0,0,0,0,0.002,0
				c0.005-0.002,0.013-0.004,0.02-0.004c0.938-0.106,1.791-0.719,2.429-1.386c0.541-0.564,1.041-1.229,1.283-1.981
				c-0.016,0.02-0.029,0.039-0.042,0.06C9.597,22.686,9.443,22.597,9.507,22.502z"/>
			<path fill="#9D9682" d="M8.141,4.143L8.141,4.143c0.022-1.007-0.085-1.942-0.398-2.662c-0.168-0.382-0.387-0.689-0.659-0.92
				c-0.002,0-0.002-0.002-0.002-0.002c-0.127-0.111-0.269-0.202-0.42-0.276C6.495,0.199,6.311,0.137,6.117,0.098
				C4.428-0.243,2.859,0.68,1.918,2.57C1.081,4.252,0.912,6.551,2.112,7.896C2.014,7.545,1.948,7.2,1.908,6.861
				c-0.11-0.931-0.013-1.803,0.228-2.562c0.325-1.019,0.906-1.834,1.592-2.322C4.295,1.573,4.886,1.439,5.39,1.584
				c0.004,0,0.007,0,0.011,0.002c0.18,0.04,0.331,0.118,0.456,0.232C5.861,1.819,5.866,1.823,5.87,1.826
				c0.007,0.006,0.013,0.013,0.018,0.02C5.92,1.878,5.953,1.914,5.981,1.95c0.013,0.017,0.028,0.035,0.04,0.053
				c0.037,0.05,0.069,0.103,0.1,0.161C6.123,2.169,6.123,2.17,6.125,2.174C6.47,2.83,6.488,3.937,6.423,5.113
				C6.623,4.931,6.825,4.767,7.02,4.629c0.082-0.056,0.162-0.11,0.24-0.155C7.496,4.331,7.723,4.23,7.927,4.18
				c0.032-0.009,0.098-0.019,0.149-0.027c-0.003,0-0.007-0.002-0.01-0.001c0.016-0.003,0.031-0.004,0.044-0.004
				c0.004-0.001,0.008-0.002,0.011-0.002V4.145C8.128,4.144,8.136,4.144,8.141,4.143z"/>
			<path fill="#008AC1" d="M7.788,8.869C7.781,8.883,7.772,8.898,7.763,8.91C7.772,8.898,7.781,8.883,7.788,8.869L7.788,8.869z"/>
			<path fill="#727273" d="M5.857,1.111C5.868,1.119,5.878,1.13,5.887,1.139C5.882,1.132,5.876,1.125,5.87,1.119
				C5.866,1.116,5.861,1.112,5.857,1.111z"/>
			<path fill="#727273" d="M4.221,22.648c0-0.004,0-0.009,0-0.012l0,0c-0.002-0.009-0.007-0.016-0.011-0.025
				C4.216,22.624,4.219,22.637,4.221,22.648z"/>
			<path fill="#A8A8A8" d="M4.159,23.206L4.159,23.206c0.004,0.005,0.005,0.009,0.009,0.014C4.165,23.214,4.161,23.211,4.159,23.206
				z M4.176,23.226c-0.004-0.003-0.006-0.007-0.009-0.011C4.171,23.219,4.174,23.224,4.176,23.226L4.176,23.226z M4.207,23.244
				L4.207,23.244c0.002,0.002,0.004,0.004,0.005,0.004C4.21,23.248,4.208,23.246,4.207,23.244z M4.265,23.913
				c-0.009-0.006-0.019-0.011-0.029-0.013C4.247,23.902,4.257,23.907,4.265,23.913L4.265,23.913z"/>
		</g>
		<path fill="none" stroke="#515659" stroke-width="0.1" stroke-linecap="round" stroke-miterlimit="10" d="M10.858,14.71
			c0.254,0.576,0.933,0.833,1.52,0.574"/>
		<path fill="none" stroke="#515659" stroke-width="0.1" stroke-linecap="round" stroke-miterlimit="10" d="M11.804,11.934
			c-0.044,0.132,0.143-0.364,0.375,0"/>
		<g>
			<path fill="#FFFFFF" d="M9.536,13.466c0.1-0.116,0.211-0.225,0.323-0.342c0.115-0.115,0.242-0.216,0.369-0.298
				c0.078-0.049,0.156-0.088,0.231-0.121c-0.007-0.495-0.274-1.054-0.76-1.484c-0.769-0.682-1.797-0.779-2.294-0.218
				s-0.276,1.569,0.495,2.25c0.424,0.375,0.925,0.572,1.373,0.581c0.007-0.012,0.011-0.023,0.018-0.035
				C9.354,13.695,9.435,13.579,9.536,13.466z"/>
			<path fill="#868686" d="M10.894,12.568c-0.069,0.012-0.168,0.031-0.283,0.07c-0.044,0.016-0.093,0.037-0.141,0.058
				c-0.075,0.034-0.152,0.072-0.231,0.121c-0.127,0.082-0.255,0.184-0.369,0.298c-0.112,0.117-0.223,0.226-0.323,0.342
				c-0.101,0.113-0.182,0.229-0.243,0.334c-0.008,0.013-0.012,0.023-0.018,0.036c-0.05,0.09-0.085,0.172-0.103,0.232
				c-0.021,0.067-0.027,0.107-0.027,0.107s0.012-0.039,0.04-0.103c0.025-0.061,0.075-0.142,0.136-0.235
				c0.003-0.004,0.005-0.008,0.008-0.012c-0.094,0.138,0.043-0.079,0.255-0.314c0.097-0.111,0.22-0.217,0.325-0.336
				c0.169-0.175,0.367-0.318,0.549-0.416c0.054-0.029,0.107-0.055,0.157-0.076c0.109-0.047,0.203-0.077,0.271-0.095
				c0.068-0.016,0.107-0.026,0.107-0.026S10.964,12.559,10.894,12.568z"/>
		</g>
		
			<ellipse transform="matrix(-0.6628 0.7488 -0.7488 -0.6628 24.2132 12.7842)" fill="#4169B1" cx="9.228" cy="11.844" rx="0.788" ry="1.082"/>
		<path fill="#FFFFFF" d="M9.365,10.983c-0.052,0.173-0.288,0.255-0.526,0.183c-0.237-0.072-0.387-0.272-0.335-0.445"/>
		
			<ellipse transform="matrix(-0.6628 0.7488 -0.7488 -0.6628 25.1383 13.7011)" fill="#FFFFFF" cx="9.484" cy="12.511" rx="0.126" ry="0.173"/>
		<path fill="#727273" d="M5.857,1.111C5.868,1.119,5.878,1.13,5.887,1.139C5.882,1.132,5.876,1.125,5.87,1.119
			C5.866,1.116,5.861,1.112,5.857,1.111z"/>
		<path fill="#9D9682" d="M1.271,5.777C1.34,6.575,1.6,7.322,2.112,7.896C2.014,7.545,1.948,7.2,1.908,6.861
			c-0.039-0.328-0.05-0.647-0.04-0.958C1.815,5.901,1.763,5.9,1.708,5.891C1.562,5.869,1.414,5.828,1.271,5.777z"/>
		<path fill="#B7B09E" d="M4.902,1.072C4.928,0.699,5.07,0.298,5.226,0.037C5.08,0.045,4.936,0.065,4.795,0.093
			C4.658,0.318,4.511,0.698,4.486,1.069C4.475,1.22,4.483,1.411,4.55,1.584c0.131-0.033,0.26-0.05,0.386-0.053
			C4.903,1.393,4.89,1.24,4.902,1.072z"/>
		<path fill="#B7B09E" d="M1.258,5.158C1.253,5.3,1.254,5.442,1.26,5.583c0.149,0.059,0.311,0.109,0.474,0.132
			c0.043,0.008,0.092,0.013,0.142,0.016c0.009-0.141,0.022-0.281,0.04-0.418C1.866,5.309,1.82,5.309,1.769,5.301
			C1.597,5.275,1.422,5.223,1.258,5.158z"/>
		<path fill="#B7B09E" d="M2.004,2.411C1.976,2.464,1.946,2.514,1.918,2.57C1.888,2.631,1.86,2.695,1.831,2.757
			C2.01,2.918,2.25,3.083,2.507,3.184c0.034,0.013,0.07,0.026,0.108,0.038c0.076-0.128,0.157-0.249,0.241-0.364
			C2.784,2.839,2.71,2.818,2.635,2.788C2.409,2.699,2.188,2.559,2.004,2.411z"/>
		<path fill="#9D9682" d="M4.309,1.057c0.023-0.318,0.128-0.656,0.256-0.911C3.588,0.414,2.721,1.141,2.088,2.253
			C2.258,2.394,2.473,2.534,2.7,2.624c0.08,0.032,0.174,0.061,0.274,0.079C3.203,2.416,3.456,2.17,3.727,1.977
			c0.216-0.153,0.436-0.268,0.652-0.342C4.318,1.469,4.293,1.275,4.309,1.057z"/>
		<path fill="#9D9682" d="M1.756,2.927c-0.27,0.64-0.445,1.346-0.491,2.045C1.429,5.041,1.613,5.1,1.796,5.126
			C1.84,5.133,1.889,5.137,1.939,5.14c0.046-0.292,0.113-0.575,0.198-0.843c0.105-0.33,0.24-0.636,0.393-0.92
			C2.5,3.369,2.472,3.36,2.443,3.349C2.194,3.25,1.95,3.092,1.756,2.927z"/>
		<path fill="#B7B09E" d="M8.107,3.041C8.089,2.849,8.062,2.665,8.031,2.485C7.665,2.454,7.098,2.513,6.608,2.722
			c-0.082,0.035-0.171,0.079-0.26,0.132c0.042,0.217,0.07,0.454,0.086,0.706c0.13-0.1,0.283-0.188,0.458-0.262
			C7.276,3.135,7.729,3.053,8.107,3.041z"/>
		<path fill="#9D9682" d="M6.446,3.784c0.015,0.417,0.002,0.867-0.024,1.33C6.623,4.931,6.825,4.767,7.02,4.629
			c0.082-0.056,0.162-0.11,0.24-0.155C7.496,4.331,7.723,4.23,7.927,4.18c0.032-0.009,0.098-0.019,0.149-0.027
			c-0.003,0-0.007-0.002-0.01-0.001c0.016-0.003,0.031-0.004,0.044-0.004c0.004-0.001,0.008-0.002,0.011-0.002V4.145
			C8.128,4.144,8.135,4.144,8.14,4.144h0.001C8.148,3.826,8.14,3.516,8.12,3.218c-0.345,0.009-0.774,0.08-1.158,0.243
			C6.798,3.531,6.606,3.637,6.446,3.784z"/>
		<path fill="#9D9682" d="M7.997,2.306C7.935,2.01,7.852,1.732,7.743,1.481c-0.168-0.382-0.387-0.689-0.659-0.92
			c-0.002,0-0.002-0.002-0.002-0.002c-0.127-0.111-0.269-0.202-0.42-0.276C6.495,0.199,6.311,0.137,6.117,0.098
			C5.888,0.052,5.663,0.031,5.441,0.03C5.292,0.233,5.108,0.663,5.078,1.084c-0.01,0.133-0.005,0.297,0.042,0.452
			c0.092,0.009,0.182,0.023,0.269,0.047c0.004,0,0.007,0,0.011,0.002c0.18,0.04,0.331,0.118,0.456,0.232
			C5.861,1.819,5.866,1.823,5.87,1.826c0.007,0.006,0.013,0.013,0.018,0.02C5.92,1.878,5.953,1.914,5.981,1.95
			c0.013,0.017,0.028,0.035,0.04,0.053c0.037,0.05,0.069,0.103,0.1,0.161C6.123,2.169,6.123,2.17,6.125,2.174
			c0.076,0.145,0.136,0.314,0.183,0.501c0.072-0.04,0.148-0.08,0.23-0.115C7.008,2.359,7.584,2.28,7.997,2.306z"/>
		<path fill="#B7B09E" d="M1.26,5.584c0.003,0.064,0.007,0.129,0.012,0.194c0.142,0.05,0.29,0.092,0.437,0.114
			c0.055,0.008,0.107,0.01,0.159,0.013c0.002-0.058,0.005-0.116,0.009-0.173c-0.05-0.003-0.099-0.008-0.142-0.015
			C1.571,5.692,1.41,5.643,1.26,5.584z"/>
		<path fill="#B7B09E" d="M1.265,4.972C1.261,5.034,1.26,5.097,1.258,5.158c0.164,0.065,0.34,0.118,0.512,0.143
			c0.05,0.008,0.097,0.008,0.145,0.012c0.008-0.057,0.015-0.116,0.024-0.172c-0.05-0.003-0.099-0.008-0.143-0.014
			C1.612,5.099,1.428,5.041,1.265,4.972z"/>
		<path fill="#B7B09E" d="M1.832,2.757C1.806,2.814,1.78,2.869,1.756,2.927C1.95,3.092,2.194,3.25,2.443,3.349
			C2.473,3.361,2.501,3.37,2.53,3.38c0.029-0.052,0.056-0.107,0.086-0.157C2.577,3.21,2.541,3.198,2.507,3.184
			C2.25,3.083,2.01,2.918,1.832,2.757z"/>
		<path fill="#B7B09E" d="M2.088,2.253c-0.03,0.051-0.056,0.106-0.085,0.158c0.185,0.148,0.406,0.288,0.631,0.377
			C2.71,2.818,2.784,2.84,2.856,2.857c0.04-0.052,0.078-0.105,0.118-0.154C2.874,2.685,2.78,2.656,2.7,2.624
			C2.474,2.534,2.259,2.394,2.088,2.253z"/>
		<path fill="#B7B09E" d="M4.486,1.069c0.026-0.371,0.173-0.752,0.309-0.976c-0.077,0.016-0.154,0.032-0.23,0.052
			C4.438,0.401,4.332,0.738,4.309,1.057c-0.016,0.218,0.009,0.413,0.07,0.578c0.057-0.02,0.115-0.036,0.171-0.05
			C4.483,1.411,4.475,1.22,4.486,1.069z"/>
		<path fill="#B7B09E" d="M5.078,1.084c0.03-0.421,0.213-0.851,0.363-1.054c-0.072,0-0.144,0.002-0.215,0.006
			C5.069,0.298,4.927,0.698,4.902,1.071C4.89,1.239,4.903,1.392,4.936,1.531C4.998,1.529,5.06,1.532,5.121,1.537
			C5.073,1.381,5.068,1.218,5.078,1.084z"/>
		<path fill="#B7B09E" d="M8.031,2.485C8.02,2.425,8.009,2.364,7.997,2.306C7.584,2.28,7.009,2.359,6.539,2.559
			c-0.082,0.035-0.158,0.074-0.23,0.115c0.015,0.058,0.029,0.119,0.04,0.18C6.439,2.8,6.526,2.756,6.609,2.721
			C7.098,2.513,7.665,2.454,8.031,2.485z"/>
		<path fill="#B7B09E" d="M6.893,3.299C6.718,3.373,6.565,3.461,6.435,3.561C6.44,3.634,6.442,3.709,6.445,3.784
			c0.161-0.147,0.352-0.253,0.517-0.323C7.345,3.298,7.775,3.227,8.12,3.218C8.116,3.159,8.112,3.099,8.107,3.041
			C7.729,3.053,7.276,3.135,6.893,3.299z"/>
		<g>
			<path fill="#736E61" d="M8.312,4.098C8.3,4.753,8.234,5.438,8.135,6.116C8.105,6.334,8.068,6.553,8.03,6.767
				C7.974,7.084,7.911,7.476,7.845,7.796C7.818,8.259,7.817,8.688,7.862,9.088c0.01,0.097,0.023,0.191,0.041,0.284
				c0.001,0.008,0.003,0.016,0.005,0.025c0.311-1.413,0.758-3.596,0.821-5.353C8.596,4.053,8.457,4.069,8.312,4.098z"/>
			<path fill="#736E61" d="M8.721,3.122c-0.031-0.491-0.108-0.919-0.25-1.244C8.254,1.38,7.933,1.022,7.539,0.783
				c0.14,0.182,0.262,0.39,0.365,0.626C8.119,1.9,8.237,2.491,8.287,3.134C8.442,3.12,8.589,3.116,8.721,3.122z"/>
			<path fill="#736E61" d="M2.062,6.605c0.007,0.079,0.012,0.157,0.021,0.237c0,0.002,0.002,0.004,0.002,0.004
				c0.13,0.538,0.369,1.034,0.732,1.441c-0.15-0.539-0.225-1.064-0.243-1.57C2.537,6.716,2.5,6.714,2.462,6.708
				C2.328,6.688,2.193,6.65,2.062,6.605z"/>
			<path fill="#736E61" d="M5.063,1.873C5.066,1.82,5.075,1.766,5.084,1.711c-0.392-0.03-0.829,0.108-1.253,0.41
				C3.483,2.368,3.165,2.704,2.894,3.11c0.157,0.123,0.344,0.242,0.542,0.323c0.286-0.436,0.625-0.798,0.997-1.062
				C4.641,2.223,4.851,2.112,5.06,2.037C5.058,1.984,5.059,1.93,5.063,1.873z"/>
			<path fill="#736E61" d="M2.048,5.8C2.205,5.864,2.377,5.917,2.55,5.943c0.013,0.002,0.028,0.003,0.041,0.004
				c0.06-0.675,0.231-1.295,0.477-1.84c-0.195-0.092-0.38-0.215-0.535-0.345C2.26,4.356,2.085,5.046,2.048,5.8z"/>
			<path fill="#8B8477" d="M5.239,1.886c-0.002,0.03-0.003,0.062-0.003,0.096c0.142-0.038,0.283-0.056,0.42-0.059
				c0-0.009-0.001-0.017,0-0.025c-0.124-0.078-0.258-0.132-0.4-0.162C5.249,1.786,5.242,1.836,5.239,1.886z"/>
			<path fill="#8B8477" d="M2.047,6.412c0.14,0.053,0.289,0.099,0.441,0.121C2.513,6.538,2.542,6.54,2.569,6.542
				c0-0.141,0.003-0.281,0.012-0.418C2.562,6.123,2.543,6.121,2.523,6.118C2.361,6.093,2.197,6.045,2.041,5.986
				C2.039,6.126,2.04,6.268,2.047,6.412z"/>
			<path fill="#8B8477" d="M3.142,3.946C3.205,3.82,3.271,3.7,3.342,3.583C3.149,3.501,2.963,3.386,2.801,3.259
				C2.734,3.367,2.672,3.48,2.613,3.596C2.759,3.724,2.943,3.851,3.142,3.946z"/>
			<path fill="#8B8477" d="M8.73,3.299C8.603,3.292,8.458,3.293,8.3,3.309c0.011,0.2,0.016,0.404,0.015,0.611
				c0.143-0.027,0.283-0.043,0.42-0.052C8.738,3.671,8.737,3.482,8.73,3.299z"/>
			<path fill="#8B8477" d="M2.487,6.533c-0.151-0.023-0.3-0.067-0.441-0.121c0.003,0.064,0.01,0.128,0.015,0.194
				c0.131,0.045,0.267,0.083,0.4,0.103C2.5,6.714,2.537,6.716,2.573,6.718C2.571,6.658,2.57,6.6,2.569,6.541
				C2.542,6.539,2.513,6.537,2.487,6.533z"/>
			<path fill="#8B8477" d="M2.048,5.8C2.045,5.862,2.042,5.923,2.041,5.986c0.156,0.059,0.32,0.109,0.482,0.132
				c0.02,0.003,0.039,0.004,0.058,0.006c0.004-0.058,0.005-0.119,0.01-0.177C2.577,5.946,2.562,5.945,2.55,5.943
				C2.377,5.917,2.205,5.864,2.048,5.8z"/>
			<path fill="#8B8477" d="M2.533,3.762c0.156,0.13,0.342,0.253,0.535,0.346c0.024-0.054,0.047-0.109,0.074-0.162
				c-0.2-0.095-0.383-0.222-0.529-0.35"/>
			<path fill="#8B8477" d="M2.801,3.259c0.162,0.125,0.349,0.242,0.541,0.324c0.031-0.051,0.063-0.102,0.096-0.151
				c-0.2-0.08-0.386-0.199-0.543-0.322C2.862,3.159,2.831,3.209,2.801,3.259z"/>
			<path fill="#8B8477" d="M5.239,1.886c0.003-0.05,0.01-0.101,0.017-0.15C5.2,1.724,5.143,1.716,5.084,1.711
				C5.076,1.766,5.066,1.82,5.063,1.873C5.059,1.93,5.058,1.984,5.06,2.037c0.059-0.022,0.119-0.04,0.177-0.055
				C5.236,1.948,5.237,1.916,5.239,1.886z"/>
			<path fill="#8B8477" d="M5.698,1.922c-0.013-0.01-0.029-0.016-0.042-0.024c-0.001,0.009,0,0.017,0,0.025
				C5.67,1.923,5.684,1.921,5.698,1.922z"/>
			<path fill="#8B8477" d="M8.73,3.299C8.728,3.239,8.725,3.18,8.721,3.122C8.589,3.116,8.442,3.12,8.287,3.135
				C8.292,3.192,8.296,3.25,8.299,3.309C8.458,3.294,8.603,3.292,8.73,3.299z"/>
			<path fill="#8B8477" d="M8.734,3.868C8.599,3.877,8.459,3.893,8.314,3.92c0,0.059-0.001,0.119-0.002,0.178
				c0.144-0.029,0.283-0.044,0.417-0.053C8.731,3.985,8.733,3.926,8.734,3.868z"/>
		</g>
		<g>
			<path fill="#AFBABE" d="M0.846,17.663c-0.129-0.096-0.172-0.088-0.172-0.088c-0.198,0.522,0.203,1.948,0.28,2.199
				c0.877,0.405,2.116,1.312,2.823,2.173C3.313,20.875,2.5,19.599,1.8,18.697C1.426,18.213,1.083,17.836,0.846,17.663z"/>
			<path fill="#C5D1D7" d="M4.154,23.193L4.154,23.193c-0.002,0-0.002,0-0.002-0.002v-0.002C4.15,23.186,4.15,23.184,4.15,23.181
				c-0.002-0.005-0.004-0.013-0.004-0.02c0-0.004,0-0.007,0-0.011c0.02-0.147-0.021-0.316-0.108-0.499
				c-0.454-0.953-2.167-2.266-3.212-2.738c-0.164-0.076-0.313-0.129-0.437-0.157c-0.105-0.025-0.283-0.051-0.315,0.042
				c-0.121,0.365,0.188,1.876,1.151,2.991c0.55,0.635,1.494,1.338,2.897,1.121C4.095,23.663,4.107,23.423,4.154,23.193z"/>
			<polygon fill="#008AC1" points="4.176,23.226 4.176,23.226 4.168,23.216 			"/>
			<path fill="#969FA5" d="M2.833,18.66c-0.343-0.515-0.542-0.686-0.613-0.723c-0.168,0.311-0.228,0.631-0.239,0.687
				c0.873,1.13,1.881,2.804,2.227,3.978c0,0.002,0.002,0.005,0.002,0.009c0.004,0.009,0.009,0.016,0.011,0.025
				C4.274,21.418,3.585,19.788,2.833,18.66z"/>
			<path fill="#008AC1" d="M4.265,23.913L4.265,23.913c-0.009-0.006-0.019-0.011-0.029-0.013
				C4.247,23.902,4.257,23.907,4.265,23.913z"/>
			<path fill="#008AC1" d="M4.207,23.244l0.005,0.004L4.207,23.244z"/>
			<path fill="#008AC1" d="M4.159,23.206c0.002,0.005,0.005,0.009,0.009,0.014C4.165,23.214,4.163,23.211,4.159,23.206L4.159,23.206
				z"/>
			<path fill="#777D7F" d="M8.747,18.458c0,0-0.398,0.041-0.602,0.041c-0.163,0-0.322-0.009-0.479-0.027
				c0,0.007,0.002,0.014,0.002,0.023c0,0.564-0.058,1.144-0.359,1.637c-0.29,0.474-0.633,0.654-1.112,0.889
				c-0.84,0.414-1.627,1.179-1.853,2.097c-0.065,0.269-0.147,0.777-0.04,0.84C4.951,24.34,10.855,23.397,8.747,18.458z"/>
			<path fill="#736E61" d="M7.539,0.783"/>
			<path fill="#727273" d="M4.221,22.648c0-0.004,0-0.009,0-0.012l0,0c-0.002-0.009-0.007-0.016-0.011-0.025
				C4.216,22.624,4.219,22.637,4.221,22.648z"/>
			<path fill="#A8A8A8" d="M4.159,23.206L4.159,23.206c0.004,0.005,0.005,0.009,0.009,0.014C4.165,23.214,4.161,23.211,4.159,23.206
				z M4.176,23.226c-0.004-0.003-0.006-0.007-0.009-0.011C4.171,23.219,4.174,23.224,4.176,23.226L4.176,23.226z M4.207,23.244
				L4.207,23.244c0.002,0.002,0.004,0.004,0.005,0.004C4.21,23.248,4.208,23.246,4.207,23.244z M4.265,23.913
				c-0.009-0.006-0.019-0.011-0.029-0.013C4.247,23.902,4.257,23.907,4.265,23.913L4.265,23.913z"/>
		</g>
		<path fill="#969FA5" d="M7.173,4.749C7.09,4.805,7.006,4.866,6.919,4.931C6.353,5.368,5.729,6.024,5.194,6.842
			C4.737,7.544,4.127,8.7,3.985,10.055c-0.003,0.025-0.056,0.53-0.029,0.677C4.725,10.804,7.173,4.749,7.173,4.749z"/>
	</g>
</g>
<g id="Layer_2_1_">
	<g opacity="0.8">
		<path fill="#0D002A" d="M11.543,21.476c-0.208,0.111-0.415,0.196-0.625,0.286c-0.003,0.001-0.006,0.003-0.009,0.004
			c0.028,0.272,0.104,0.541,0.222,0.744c0.124,0.215,0.355,0.281,0.587,0.28c-0.002-0.003-0.002-0.003-0.002-0.005
			C11.606,22.353,11.541,21.916,11.543,21.476z"/>
		<path fill="#0D002A" d="M7.688,7.693c0.038-0.631,0.126-1.317,0.22-2.062c0.033-0.25,0.068-0.508,0.099-0.77
			c0.009-0.079,0.002-0.15,0.01-0.23c0.005-0.04-0.001-0.088,0.002-0.127C8.028,4.452,7.983,4.6,7.967,4.646
			C7.932,4.741,7.9,4.838,7.867,4.932v0.002C7.86,4.956,7.853,4.977,7.847,4.998C7.821,5.079,7.796,5.16,7.767,5.241
			C7.386,6.479,7.256,7.598,7.253,8.461C7.252,8.587,7.254,8.709,7.258,8.823c0.017,0.45,0.071,0.813,0.138,1.058
			c0.012,0.047,0.025,0.088,0.039,0.127C7.461,10.004,7.488,10,7.515,9.996C7.58,9.984,7.647,9.977,7.714,9.972
			c0.049-0.005,0.1-0.008,0.149-0.011C7.848,9.914,7.833,9.868,7.819,9.82C7.8,9.751,7.783,9.681,7.765,9.611
			C7.747,9.523,7.729,9.432,7.713,9.339C7.654,8.958,7.652,8.547,7.664,8.111C7.666,7.972,7.679,7.836,7.688,7.693z"/>
		<path fill="#0D002A" d="M6.512,25.939c-0.153,0.046-0.311,0.081-0.474,0.102c0.187,0.808,0.426,1.593,0.702,2.377
			c0.143,0.406,0.303,0.801,0.512,1.178c0.018,0.033,0.04,0.069,0.064,0.106c0.174-0.038,0.587-0.103,0.609-0.226
			c0.053-0.292-0.296-0.739-0.433-0.975C7.009,27.671,6.725,26.875,6.512,25.939z"/>
		<path fill="#0D002A" d="M10.66,19.434c-0.4,0.267-0.711,0.624-1.018,0.988c0.089,0.193,0.171,0.386,0.238,0.583
			c0.36-0.419,0.687-0.874,1.107-1.238c0.136-0.117,0.294-0.247,0.468-0.345c-0.25-0.162-0.526-0.123-0.793,0.012
			C10.66,19.432,10.66,19.432,10.66,19.434z"/>
		<path fill="#0D002A" d="M13.72,22.596c-0.019-0.197-0.094-0.386-0.179-0.566c-0.146-0.305-0.325-0.594-0.464-0.901
			c-0.219-0.485-0.577-1.852-1.335-1.671c-0.028,0.004-0.055,0.013-0.084,0.023c-0.007,0.002-0.012,0.005-0.02,0.009
			c-0.03,0.009-0.056,0.021-0.084,0.033c-0.007,0.004-0.014,0.007-0.021,0.011c-0.356,0.164-0.646,0.439-0.914,0.748
			c-0.385,0.443-0.692,0.925-1.113,1.276c-0.09,0.074-0.21-0.037-0.12-0.111c0.15-0.124,0.281-0.237,0.411-0.38
			c-0.056-0.187-0.134-0.377-0.216-0.557c-0.028-0.062-0.055-0.139-0.086-0.202c-0.137-0.284-0.272-0.542-0.409-0.828
			c-0.066-0.304-0.191-0.631-0.335-0.973c1.799-0.262,3.231-1.878,3.235-1.884c0.124-0.265,0.505-0.561,1.091-2.506
			c0.319-1.061,0.071-2.827-1.274-2.56l-0.242,0.005c-0.838-0.914-2.041-1.488-3.375-1.488c-0.032,0-0.062,0.001-0.094,0.002
			c-0.047,0.001-0.094,0.003-0.14,0.005c-0.034,0.002-0.07,0.004-0.105,0.007c-0.069,0.004-0.138,0.009-0.205,0.018
			c-0.033,0.004-0.065,0.009-0.097,0.014c-0.065,0.009-0.129,0.019-0.193,0.032c-0.018-0.038-0.037-0.078-0.053-0.125
			c-0.005-0.014-0.009-0.031-0.014-0.047C7.206,9.759,7.147,9.448,7.115,9.059C7.108,8.953,7.102,8.842,7.099,8.724
			C7.079,8.099,7.15,7.338,7.308,6.493C7.387,6.056,7.529,5.606,7.67,5.137c0-0.002,0.014-0.043,0.014-0.043
			c0.007-0.021,0.009-0.029,0.016-0.051c0.008-0.019,0.012-0.037,0.016-0.058c0.015-0.036,0.024-0.047,0.035-0.082
			C7.758,4.886,7.757,4.867,7.76,4.851c0.01-0.028,0.025-0.064,0.035-0.093C7.85,4.597,7.913,4.431,7.977,4.266
			c0.036-0.008,0.09-0.016,0.135-0.023c-0.003,0-0.007-0.002-0.01-0.001c0.016-0.003,0.032-0.004,0.046-0.004
			c0.004-0.001,0.008-0.002,0.011-0.002V4.235c0.006-0.001,0.013-0.001,0.019-0.001h0.001V4.233H8.18
			c0.006-0.306-0.003-0.602-0.022-0.892c-0.001-0.02,0-0.042-0.001-0.061C8.153,3.219,8.149,3.158,8.144,3.098
			C8.138,3.037,8.127,2.98,8.119,2.921c-0.012-0.098-0.024-0.195-0.04-0.29C8.075,2.596,8.072,2.56,8.066,2.526
			C8.054,2.464,8.043,2.402,8.031,2.342C8.026,2.316,8.015,2.295,8.009,2.269C7.947,1.993,7.872,1.729,7.77,1.493
			C7.597,1.1,7.371,0.784,7.092,0.547c-0.002,0-0.002-0.002-0.002-0.002C6.959,0.431,6.813,0.336,6.658,0.261
			C6.485,0.174,6.296,0.11,6.096,0.07c-0.23-0.047-0.457-0.067-0.681-0.069C5.41,0.001,5.405,0,5.4,0
			C5.326,0,5.252,0.002,5.179,0.006v0.001C5.106,0.011,5.036,0.025,4.964,0.036C4.898,0.044,4.832,0.049,4.767,0.061
			c-0.01,0.002-0.021,0.002-0.032,0.004C4.656,0.081,4.577,0.098,4.499,0.119C4.463,0.129,4.43,0.149,4.395,0.161
			c-0.17,0.053-0.335,0.121-0.497,0.2C3.84,0.389,3.78,0.413,3.723,0.444C3.505,0.566,3.295,0.706,3.095,0.876
			C3.088,0.882,3.081,0.891,3.072,0.898C2.883,1.06,2.704,1.247,2.535,1.451c-0.05,0.06-0.097,0.126-0.144,0.19
			C2.265,1.804,2.146,1.978,2.033,2.165C2.007,2.208,1.976,2.242,1.95,2.287C1.92,2.34,1.892,2.396,1.863,2.45c0,0,0,0,0.001,0
			c-0.029,0.055-0.06,0.106-0.088,0.163c-0.032,0.064-0.06,0.13-0.089,0.194c0,0,0.001,0,0.001,0.001
			C1.659,2.865,1.633,2.922,1.609,2.982C1.596,3.01,1.59,3.042,1.579,3.072c-0.245,0.605-0.406,1.257-0.46,1.912
			C1.116,5.018,1.105,5.051,1.103,5.086c0.003,0.001,0.006,0.001,0.009,0.003c-0.003-0.001-0.007-0.002-0.01-0.003
			C1.098,5.15,1.097,5.214,1.095,5.277c-0.001,0.031,0.001,0.06,0,0.09c-0.001,0.076,0,0.153,0.002,0.23
			c0.001,0.039-0.001,0.078,0.001,0.117C1.1,5.715,1.103,5.715,1.105,5.716v0.001C1.103,5.716,1.1,5.716,1.097,5.715
			C1.1,5.781,1.104,5.848,1.109,5.914C1.114,5.96,1.125,6.004,1.13,6.049c0.012,0.105,0.027,0.206,0.047,0.308
			c0.022,0.121,0.051,0.24,0.082,0.357c0.025,0.091,0.113,0.132,0.145,0.222c0.046,0.13,0.105,0.231,0.165,0.354
			c0.034,0.07,0.11,0.189,0.148,0.255C1.823,7.73,2.026,7.828,2.169,7.989C2.124,7.827,2.085,7.671,2.052,7.517
			C2.29,7.866,2.611,8.189,3.022,8.473C2.875,8.149,2.779,7.831,2.705,7.517c-0.03-0.131-0.04-0.259-0.058-0.388
			c-0.032-0.213-0.061-0.426-0.06-0.633c0-0.067,0.005-0.132,0.009-0.199C2.607,6.106,2.64,5.919,2.675,5.734
			c0.046-0.227,0.109-0.448,0.189-0.662c0.039-0.102,0.072-0.207,0.117-0.307c0.114-0.247,0.252-0.483,0.408-0.71
			c0.049-0.071,0.088-0.15,0.14-0.218C3.55,3.813,3.567,3.787,3.589,3.761c0.17-0.213,0.363-0.412,0.566-0.6
			C4.37,2.962,4.605,2.783,4.852,2.614c0.039-0.027,0.074-0.059,0.112-0.085c0.293-0.19,0.603-0.359,0.927-0.5
			c0.027-0.012,0.053-0.021,0.08-0.033C5.981,2.008,5.99,2.019,5.998,2.031c0.038,0.052,0.071,0.106,0.103,0.166
			c0.002,0.004,0.002,0.005,0.004,0.009c0.087,0.166,0.152,0.361,0.203,0.576C6.31,2.791,6.312,2.802,6.314,2.811
			C6.341,2.93,6.353,3.068,6.37,3.199c0.017,0.13,0.039,0.256,0.048,0.396C6.427,3.738,6.429,3.89,6.431,4.041
			c0.007,0.362,0.002,0.738-0.019,1.131C6.132,5.438,5.847,5.748,5.575,6.099c-0.146,0.188-0.29,0.388-0.428,0.599
			C5.028,6.881,4.899,7.093,4.771,7.331C4.743,7.383,4.717,7.448,4.689,7.502c-0.1,0.194-0.199,0.391-0.291,0.613
			C4.359,8.209,4.331,8.317,4.294,8.416C4.221,8.615,4.146,8.811,4.088,9.027C4.055,9.15,4.041,9.284,4.015,9.412
			c-0.041,0.196-0.09,0.387-0.112,0.593C3.9,10.03,3.845,10.551,3.874,10.701c0.001,0,0.003-0.001,0.004-0.001
			c0.01,0.482,0.081,0.981,0.239,1.486c0.025,0.071,0.053,0.144,0.081,0.215c-0.04,0.067-0.076,0.134-0.109,0.203
			C4.009,12.76,3.94,12.92,3.88,13.084c-0.18,0.491-0.279,1.021-0.279,1.574c0,2.294,1.76,3.626,3.975,3.852
			c-0.007,0.549-0.078,1.107-0.369,1.586c-0.3,0.489-0.653,0.675-1.148,0.917c-0.803,0.396-1.56,1.104-1.851,1.96
			c-0.018-0.095-0.052-0.197-0.102-0.303c-0.468-0.981-2.23-2.332-3.306-2.818C0.63,19.775,0.477,19.72,0.35,19.691
			c-0.108-0.025-0.291-0.053-0.324,0.044c-0.124,0.376,0.193,1.93,1.184,3.078c0.55,0.635,1.482,1.333,2.858,1.168
			c0.009,0.03,0.02,0.052,0.038,0.062v0.001c0,0.002,0,0.002,0,0.004c0.002,0.002,0.002,0.005,0.002,0.009
			c0.002,0.004,0.002,0.007,0.002,0.013c0,0.013-0.002,0.023-0.005,0.035C4.002,24.468,4.007,24.873,4,25.249
			c-0.011,0.582-0.004,1.166,0.018,1.748c0.037,0.998,0.042,2.058,0.261,3.037c0.109,0.49,0.656,0.49,1.058,0.568
			c0.361,0.067,0.806,0.152,1.167,0.04c0.178-0.056,0.513-0.228,0.605-0.414c0.025-0.053,0.211-0.345,0.171-0.417
			c-0.037-0.065-0.127-0.232-0.148-0.272c-0.619-1.134-0.938-2.241-1.22-3.494l0.04-0.003c0.968-0.109,1.741-0.737,2.399-1.425
			c0.559-0.582,1.11-1.32,1.36-2.097c-0.016,0.02-0.047,0.052-0.062,0.074c-0.064,0.097-0.154-0.032-0.088-0.13
			c0.29-0.441,0.714-0.593,1.218-0.803c0.048-0.02,0.095-0.04,0.143-0.058c0.221-0.091,0.438-0.182,0.629-0.292
			c0.013-0.23,0.046-0.46,0.102-0.688c0.046-0.043,0.141,0.01,0.113,0.124c-0.056,0.23-0.087,0.386-0.096,0.624
			c-0.023,0.414,0.04,0.872,0.142,1.272c0.018,0.069,0.065,0.129,0.093,0.182c0.031,0.065,0.108,0.129,0.154,0.173
			c0.256,0.254,0.662,0.14,1.055,0.038C13.327,22.981,13.751,22.896,13.72,22.596z"/>
		<path fill="#0D002A" d="M8.288,2.963c0.16-0.014,0.311-0.018,0.447-0.012c-0.032-0.505-0.111-0.945-0.257-1.28
			C8.254,1.158,7.826,0.959,7.421,0.713c0.144,0.187,0.297,0.457,0.403,0.7C8.045,1.918,8.237,2.302,8.288,2.963z"/>
		<path fill="#0D002A" d="M8.288,2.965c0.005,0.053,0.008,0.108,0.011,0.162c-0.004,0-0.007,0-0.01,0.001
			C8.3,3.333,8.305,3.543,8.304,3.756c0,0.061-0.001,0.122-0.002,0.183c-0.013,0.674-0.08,1.379-0.183,2.077
			c-0.031,0.225-0.068,0.449-0.108,0.67c-0.058,0.326-0.122,0.73-0.19,1.059c-0.027,0.477-0.028,0.918,0.017,1.33
			c0.01,0.1,0.023,0.196,0.043,0.293c0.001,0.008,0.028,0.069,0.03,0.079c0.32-1.454,0.755-3.753,0.82-5.562
			c0.002-0.061,0.004-0.122,0.005-0.182c0.004-0.197,0.003-0.387-0.004-0.57c0.004,0,0.008,0,0.012,0
			C8.742,3.071,8.739,3.011,8.735,2.951C8.599,2.945,8.447,2.949,8.288,2.965z"/>
		<path fill="#0D002A" d="M3.89,22.105c-0.482-1.116-1.329-2.444-2.058-3.383c-0.39-0.504-0.747-0.897-0.993-1.077
			c-0.135-0.1-0.179-0.092-0.179-0.092c-0.206,0.543,0.212,2.028,0.291,2.289C1.864,20.264,3.153,21.208,3.89,22.105z"/>
		<path fill="#0D002A" d="M4.254,22.748c0.004,0.009,0.009,0.016,0.011,0.026c0.055-1.265-0.661-2.958-1.441-4.129
			c-0.356-0.535-0.563-0.712-0.637-0.751c-0.174,0.323-0.237,0.656-0.248,0.714c0.907,1.174,1.953,2.913,2.314,4.132
			C4.252,22.74,4.254,22.743,4.254,22.748z"/>
	</g>
</g>
</svg>
