<svg version="1.1" xmlns="http://www.w3.org/2000/svg" xmlns:xlink="http://www.w3.org/1999/xlink" x="0px" y="0px" width="175.5px"
	 height="174.667px" viewBox="0 0 175.5 174.667" enable-background="new 0 0 175.5 174.667" xml:space="preserve">
<g id="Layer_6">

		<circle fill="#FFFF00" stroke="#FFA300" stroke-width="4" stroke-miterlimit="10" stroke-opacity="0.5" cx="88" cy="87.167" r="47"/>
	<path fill="#FFFF00" stroke="#FFA300" stroke-width="4" stroke-miterlimit="10" d="M78.75,32.583c9.25-1.464,9.25-1.464,18.5,0
		L87.917,6.917L78.75,32.583z"/>
	<path fill="#FFFF00" stroke="#FFA300" stroke-width="4" stroke-miterlimit="10" d="M94.925,142.822
		c-9.251,1.458-9.251,1.458-18.5-0.012l9.317,25.672L94.925,142.822z"/>
	<path fill="#FFFF00" stroke="#FFA300" stroke-width="4" stroke-miterlimit="10" d="M41.19,52.191
		c5.14-7.829,5.14-7.829,12.445-13.688l-25.27-10.36L41.19,52.191z"/>
	<path fill="#FFFF00" stroke="#FFA300" stroke-width="4" stroke-miterlimit="10" d="M31.75,92.36
		c-1.505-9.243-1.505-9.243-0.082-18.5L6.043,83.307L31.75,92.36z"/>
	<path fill="#FFFF00" stroke="#FFA300" stroke-width="4" stroke-miterlimit="10" d="M143.081,77.917
		c1.532,9.239,1.532,9.239,0.137,18.499l25.597-9.523L143.081,77.917z"/>
	<path fill="#FFFF00" stroke="#FFA300" stroke-width="4" stroke-miterlimit="10" d="M120.035,38.101
		c7.54,5.554,7.54,5.554,12.998,13.165l11.707-24.674L120.035,38.101z"/>
	<path fill="#FFFF00" stroke="#FFA300" stroke-width="4" stroke-miterlimit="10" d="M135.691,119.856
		c-5.499,7.58-5.499,7.58-13.07,13.093l24.759,11.528L135.691,119.856z"/>
	<path fill="#FFFF00" stroke="#FFA300" stroke-width="4" stroke-miterlimit="10" d="M53.635,133.765
		c-7.886-5.051-7.886-5.051-13.827-12.291l-10.076,25.384L53.635,133.765z"/>
</g>
</svg>
