<svg version="1.1" id="Layer_1" xmlns="http://www.w3.org/2000/svg" xmlns:xlink="http://www.w3.org/1999/xlink" x="0px" y="0px"
	 width="8720px" height="6342.251px" viewBox="0 0 8720 6342.251" enable-background="new 0 0 8720 6342.251" xml:space="preserve">
<path fill="#0285C0" d="M738.294,2752.103c120.732,12.692,240.862,32.014,358.402,57.659c23.679,5.173,47.296,10.592,70.852,16.273
	c-0.042-0.076-0.085-0.153-0.127-0.229c-23.594-5.691-47.25-11.119-70.968-16.3c-117.539-25.645-237.67-44.968-358.401-57.66
	c112.882,257.748,247.709,504.054,427.349,723.373c56.088,68.481,114.788,134.686,175.594,198.91
	c-60.719-64.144-119.338-130.263-175.35-198.653C986.003,3256.156,851.177,3009.851,738.294,2752.103z"/>
<path fill="#0285C0" d="M564.483,3182.351c-88.008-146.67-170.311-296.656-250.007-447.998c107.115-2.051,213.212,0.709,317.15,8.25
	c26.062,1.893,52.139,4.11,78.186,6.618c-0.035-0.082-0.071-0.163-0.106-0.244c-26.092-2.514-52.216-4.734-78.324-6.631
	c-103.938-7.541-210.035-10.301-317.15-8.25c79.696,151.343,161.999,301.328,250.007,447.998
	c163.032,271.674,346.543,528.419,557.935,764.701c32.036,35.807,64.581,71.178,97.629,106.083
	c-32.965-34.822-65.428-70.107-97.386-105.826C911.026,3710.77,727.515,3454.025,564.483,3182.351z"/>
<path fill="#0285C0" d="M5405.843,4998.046c-19.863-31.875-42.748-67.159-63.967-97.322
	c369.412-79.342,750.174-303.117,1164.107-679.87c8.898-7.572,17.611-15.128,26.092-22.669c0.062,0,0.139,0.016,0.201,0.031
	C6212.643,4509.321,5792.033,4814.042,5405.843,4998.046z"/>
<path fill="#0285C0" d="M3039.646,5335.244c22.299,3.855,44.598,7.479,66.958,10.903
	C3084.228,5342.708,3061.898,5339.068,3039.646,5335.244z"/>
<path fill="#0285C0" d="M3017.347,5331.311c0,0,0,0,0,0.016c7.417,1.326,14.835,2.637,22.237,3.901
	C3032.166,5333.948,3024.749,5332.638,3017.347,5331.311z"/>
<path fill="#0285C0" d="M1200.141,2834.066c186.045,46.823,368.607,109.817,552.323,190.644c-0.04-0.068-0.081-0.136-0.121-0.204
	c-183.758-80.853-366.359-143.863-552.445-190.697c54.051,97.276,110.045,193.442,169.956,287.233
	c114.199,178.782,244.031,344.206,389.225,497.7c-145.096-153.421-274.846-318.76-388.982-497.443
	C1310.186,3027.508,1254.192,2931.342,1200.141,2834.066z"/>
<path fill="#0285C0" d="M3482.678,3470.201c60.952,0,116.049,25.548,155.143,66.5c-39.109-41.102-94.307-66.757-155.386-66.757
	c-118.295,0-214.538,96.228-214.538,214.539c0,4.708,1.921,8.968,5.022,12.043c-2.954-3.054-4.779-7.206-4.779-11.786
	C3268.14,3566.429,3364.383,3470.201,3482.678,3470.201z"/>
<path fill="#0285C0" d="M1807.932,3069.114c-5.505-8.975-10.98-17.966-16.424-26.972c42.686,19.354,85.464,39.663,128.381,60.975
	c226.875,112.62,459.147,254.294,710.126,433.102c221.786,158.035,430.634,324.861,632.589,486.212
	c45.908,36.671,91.57,73.157,137.063,109.258c4.01,2.884,8.081,5.69,12.198,8.42c12.414,8.204,25.244,15.76,38.429,22.623
	c6.97,3.608,14.018,7.078,21.142,10.332c3.593,1.634,7.202,3.238,10.826,4.78c0.139,0.062,0.277,0.124,0.416,0.185
	c0.093,0.031,0.2,0.077,0.293,0.124c0.54,0.216,1.079,0.447,1.619,0.663c1.527,0.632,3.053,1.249,4.595,1.866
	c14.203,5.644,28.653,10.671,43.302,15.021c16.1,4.78,32.4,8.836,48.869,12.09c8.281,1.65,16.593,3.114,24.936,4.379
	c2.329,0.355,4.673,0.694,7.017,1.018c0.093,0.016,0.185,0.031,0.293,0.046c0.108,0.015,0.231,0.031,0.355,0.046
	c0.139,0.016,0.293,0.031,0.432,0.062c0.046,0.015,0.093,0.015,0.139,0.015c0.031,0,0.062,0,0.093,0.016
	c0.092,0,0.185,0.016,0.277,0.031c0.046,0.016,0.093,0.016,0.124,0.016c0.046,0.015,0.077,0.015,0.123,0.015
	c0.031,0.016,0.062,0.016,0.077,0.016c0.046,0,0.093,0.016,0.124,0.016c0.016,0,0.016,0,0.031,0c0.031,0,0.062,0.015,0.077,0.015
	c0.031,0,0.046,0,0.077,0c0.031,0.016,0.062,0.016,0.093,0.016c0.077,0.015,0.139,0.015,0.216,0.031
	c4.025,0.509,8.065,0.971,12.106,1.403c33.572,3.485,67.467,4.118,101.131,1.573c8.343-0.632,16.67-1.418,24.982-2.436
	c1.326-0.154,2.652-0.324,3.979-0.494c0.016,0,0.031,0,0.046,0c0.046-0.016,0.093-0.016,0.139-0.031c0.046,0,0.093,0,0.139-0.016
	c0.031,0,0.062,0,0.093-0.016c0.015,0,0.031,0,0.046,0s0.031,0,0.046,0c0-0.015,0.015-0.015,0.031-0.015
	c0.046,0,0.108-0.016,0.154-0.016c0.031,0,0.046,0,0.077-0.015c0.046,0,0.093-0.016,0.139-0.016c0.031,0,0.077-0.016,0.108-0.016
	c0.031,0,0.077,0,0.124-0.015c0.031,0,0.062,0,0.093-0.016c0.093,0,0.17-0.015,0.262-0.031c0.031,0,0.062,0,0.093-0.016
	c0.031,0,0.046,0,0.077-0.015c0.046,0,0.093,0,0.124-0.016c0.031,0,0.062,0,0.093-0.016c0.046,0,0.093,0,0.139-0.015
	c1.126-0.154,2.251-0.324,3.377-0.494c3.932-0.586,7.88-1.203,11.797-1.881c16.223-2.792,32.323-6.308,48.191-10.687
	c15.591-4.318,30.981-9.36,46.017-15.313c2.082-0.817,4.164-1.65,6.23-2.514c0.108-0.046,0.216-0.092,0.324-0.123
	c0.077-0.031,0.154-0.062,0.247-0.108c0.108-0.031,0.2-0.077,0.308-0.124c0.031,0,0.093-0.031,0.139-0.062
	c0.015,0,0.046-0.015,0.062-0.03c0.046-0.016,0.092-0.031,0.139-0.046c0.046-0.015,0.108-0.031,0.17-0.077
	c0.046-0.031,0.108-0.046,0.169-0.077c0.046,0,0.108-0.031,0.154-0.062c0.154-0.077,0.308-0.139,0.417-0.185
	c3.5-1.511,6.986-3.053,10.455-4.673c7.155-3.331,14.218-6.847,21.173-10.609c13.694-7.402,26.987-15.606,39.617-24.705
	c1.758-1.265,3.501-2.545,5.228-3.84c0.37-0.293,1.264-0.971,2.066-1.573c0.031-0.015,0.077-0.046,0.108-0.077
	c0.247-0.216,0.494-0.386,0.694-0.54c0,0,0.015,0,0.031-0.016c0.108-0.092,0.216-0.169,0.324-0.277
	c0.031-0.016,0.046-0.031,0.077-0.046c0.062-0.031,0.108-0.077,0.139-0.108c0.031-0.031,0.062-0.046,0.092-0.077v0.015
	c0.016-0.015,0.031-0.031,0.031-0.031c2.282-1.804,4.549-3.639,6.77-5.49c5.891-4.919,11.612-10.023,17.117-15.359
	c8.482-8.204,16.315-16.901,23.918-25.907c0.725-0.864,1.45-1.727,2.159-2.606c0.632-0.787,1.264-1.573,1.881-2.375
	c0.154-0.17,0.293-0.355,0.416-0.54c10.579-13.864,20.217-28.467,29.115-43.457c6.708-11.319,13-22.87,18.829-34.667
	c3.269-6.631,6.415-13.323,9.376-20.094c0.663-1.496,1.326-2.991,1.974-4.503c0.015-0.046,0.031-0.093,0.062-0.139
	c0.015-0.046,0.031-0.077,0.046-0.124s0.031-0.077,0.046-0.123c0.062-0.139,0.123-0.293,0.185-0.432
	c0.37-0.864,0.725-1.743,1.08-2.606c1.45-3.547,2.868-7.109,4.225-10.687c6.03-15.791,11.273-31.891,15.529-48.252
	c2.251-8.667,4.271-17.41,5.983-26.201c0.91-4.703,1.758-9.406,2.498-14.141c0.355-2.205,0.694-4.41,1.018-6.616
	c0.016-0.077,0.031-0.139,0.031-0.216c0-0.031,0.016-0.046,0.016-0.077s0-0.046,0-0.077c0.015-0.031,0.015-0.062,0.015-0.092
	c0.016-0.062,0.016-0.124,0.031-0.201c0.016-0.093,0.031-0.185,0.031-0.262c0-0.015,0.016-0.046,0.016-0.061s0-0.046,0-0.077
	c0.016-0.062,0.016-0.108,0.031-0.155c0-0.015,0-0.031,0-0.046c0.016-0.077,0.016-0.139,0.031-0.201c0-0.046,0-0.077,0.015-0.124
	c0-0.061,0.016-0.123,0.016-0.185v-0.016c0.015-0.015,0.015-0.015,0.015-0.031c0-0.046,0-0.077,0-0.108
	c0.016,0,0.016-0.015,0.016-0.015c0-0.015,0-0.046,0-0.077c0.016-0.015,0.016-0.015,0.016-0.031
	c0.015-0.123,0.015-0.216,0.031-0.277c0-0.015,0-0.031,0-0.046c0-0.015,0-0.015,0-0.031c0.015-0.031,0.015-0.046,0.015-0.046
	c0.031-0.293,0.077-0.571,0.108-0.864c2.344-19.323,3.377-38.831,2.776-58.292c-0.293-10.208-0.971-20.417-2.128-30.565
	c-0.185-1.666-0.37-3.315-0.586-4.966c-0.031-0.216-0.092-0.632-0.139-1.08c0-0.077-0.015-0.154-0.031-0.231
	c-0.015-0.062-0.031-0.139-0.031-0.216c0-0.077-0.015-0.138-0.031-0.216c0-0.046,0-0.093-0.016-0.124c0-0.031,0-0.062-0.015-0.077
	c0-0.077-0.016-0.154-0.031-0.216c0-0.046,0-0.093-0.016-0.139c0-0.031,0-0.062-0.016-0.077c-0.015-0.169-0.031-0.262-0.031-0.262
	c-0.262-1.789-0.524-3.578-0.817-5.366c-0.817-5.074-1.742-10.132-2.76-15.175c-1.82-9.052,2.483-18.274,11.859-20.865
	c5.771-1.583,12.549,0.302,16.845,4.557c-4.279-4.432-11.204-6.428-17.088-4.814c-9.376,2.591-13.679,11.812-11.859,20.864
	c1.018,5.043,1.943,10.101,2.76,15.175c0.293,1.789,0.555,3.578,0.817,5.366c0,0,0.015,0.093,0.031,0.262
	c0.016,0.015,0.016,0.046,0.016,0.077c0.015,0.046,0.015,0.093,0.015,0.139c0.016,0.061,0.031,0.139,0.031,0.216
	c0.015,0.016,0.015,0.046,0.015,0.077c0.016,0.031,0.016,0.077,0.016,0.124c0.015,0.077,0.031,0.139,0.031,0.216
	s0.016,0.154,0.031,0.216c0.016,0.077,0.031,0.154,0.031,0.231c0.046,0.447,0.108,0.864,0.139,1.079
	c0.216,1.65,0.401,3.3,0.586,4.966c1.156,10.147,1.835,20.356,2.128,30.565c0.602,19.461-0.432,38.969-2.776,58.292
	c-0.031,0.293-0.077,0.57-0.108,0.864c0,0,0,0.015-0.015,0.046c0,0.016,0,0.016,0,0.031c0,0.016,0,0.031,0,0.046
	c-0.016,0.062-0.016,0.154-0.031,0.278c0,0.016,0,0.016-0.015,0.031c0,0.031,0,0.062,0,0.077c0,0,0,0.015-0.016,0.015
	c0,0.031,0,0.062,0,0.108c0,0.015,0,0.015-0.015,0.031v0.015c0,0.062-0.016,0.123-0.016,0.185c-0.016,0.046-0.016,0.077-0.016,0.124
	c-0.015,0.062-0.015,0.124-0.031,0.201c0,0.015,0,0.031,0,0.046c-0.016,0.046-0.016,0.093-0.031,0.154c0,0.031,0,0.062,0,0.077
	c0,0.016-0.016,0.046-0.016,0.062c0,0.077-0.015,0.17-0.031,0.262c-0.016,0.077-0.016,0.139-0.031,0.201
	c0,0.031,0,0.062-0.015,0.092c0,0.031,0,0.046,0,0.077c0,0.031-0.016,0.046-0.016,0.077c0,0.077-0.016,0.139-0.031,0.216
	c-0.324,2.206-0.663,4.411-1.018,6.616c-0.74,4.734-1.588,9.438-2.498,14.141c-1.712,8.79-3.732,17.534-5.983,26.201
	c-4.256,16.362-9.5,32.461-15.529,48.252c-1.357,3.578-2.776,7.14-4.225,10.687c-0.355,0.864-0.709,1.743-1.08,2.606
	c-0.062,0.139-0.123,0.293-0.185,0.432c-0.015,0.046-0.031,0.077-0.046,0.123c-0.015,0.046-0.031,0.077-0.046,0.124
	c-0.031,0.046-0.046,0.093-0.062,0.139c-0.647,1.511-1.311,3.007-1.974,4.503c-2.961,6.77-6.107,13.462-9.376,20.094
	c-5.829,11.797-12.121,23.347-18.829,34.667c-8.898,14.989-18.536,29.593-29.115,43.457c-0.124,0.185-0.262,0.37-0.417,0.54
	c-0.617,0.802-1.249,1.589-1.881,2.375c-0.709,0.879-1.434,1.742-2.159,2.606c-7.603,9.006-15.437,17.703-23.918,25.907
	c-5.505,5.335-11.227,10.44-17.117,15.359c-2.221,1.851-4.488,3.686-6.77,5.49c0,0-0.015,0.016-0.031,0.031v-0.015
	c-0.031,0.031-0.062,0.046-0.093,0.077c-0.031,0.031-0.077,0.078-0.139,0.108c-0.031,0.015-0.046,0.031-0.077,0.046
	c-0.108,0.108-0.216,0.185-0.324,0.277c-0.015,0.015-0.031,0.015-0.031,0.015c-0.2,0.155-0.447,0.324-0.694,0.54
	c-0.031,0.031-0.077,0.062-0.108,0.077c-0.802,0.602-1.696,1.28-2.066,1.573c-1.728,1.295-3.47,2.576-5.228,3.84
	c-12.63,9.098-25.923,17.302-39.617,24.705c-6.955,3.763-14.018,7.278-21.173,10.609c-3.47,1.619-6.955,3.162-10.456,4.673
	c-0.108,0.046-0.262,0.108-0.416,0.185c-0.046,0.031-0.108,0.062-0.154,0.062c-0.062,0.031-0.123,0.046-0.17,0.077
	c-0.062,0.046-0.124,0.062-0.17,0.077c-0.046,0.015-0.092,0.031-0.139,0.046c-0.015,0.015-0.046,0.03-0.062,0.03
	c-0.046,0.031-0.108,0.062-0.139,0.062c-0.108,0.046-0.2,0.092-0.308,0.123c-0.093,0.046-0.17,0.077-0.247,0.108
	c-0.108,0.031-0.216,0.077-0.324,0.123c-2.066,0.864-4.148,1.696-6.23,2.514c-15.036,5.953-30.426,10.996-46.017,15.313
	c-15.868,4.38-31.968,7.896-48.191,10.687c-3.917,0.679-7.865,1.295-11.797,1.881c-1.126,0.169-2.252,0.339-3.377,0.494
	c-0.046,0.015-0.093,0.015-0.139,0.015c-0.031,0.016-0.062,0.016-0.093,0.016c-0.031,0.015-0.077,0.015-0.124,0.015
	c-0.031,0.016-0.046,0.016-0.077,0.016c-0.031,0.016-0.062,0.016-0.093,0.016c-0.093,0.015-0.17,0.031-0.262,0.031
	c-0.031,0.015-0.062,0.015-0.092,0.015c-0.046,0.016-0.093,0.016-0.124,0.016s-0.077,0.016-0.108,0.016
	c-0.046,0-0.093,0.015-0.139,0.015c-0.031,0.016-0.046,0.016-0.077,0.016c-0.046,0-0.108,0.015-0.154,0.015
	c-0.016,0-0.031,0-0.031,0.016c-0.015,0-0.031,0-0.046,0c-0.015,0-0.031,0-0.046,0c-0.031,0.016-0.062,0.016-0.092,0.016
	c-0.046,0.015-0.093,0.015-0.139,0.015c-0.046,0.016-0.093,0.016-0.139,0.031c-0.015,0-0.031,0-0.046,0
	c-1.326,0.169-2.653,0.339-3.979,0.493c-8.312,1.018-16.639,1.804-24.982,2.437c-33.664,2.544-67.56,1.912-101.132-1.573
	c-4.04-0.432-8.081-0.894-12.105-1.403c-0.077-0.016-0.139-0.016-0.216-0.031c-0.031,0-0.062,0-0.093-0.015
	c-0.031,0-0.046,0-0.077,0c-0.016,0-0.046-0.016-0.077-0.016c-0.015,0-0.015,0-0.031,0c-0.031,0-0.077-0.015-0.124-0.015
	c-0.015,0-0.046,0-0.077-0.016c-0.046,0-0.077,0-0.123-0.016c-0.031,0-0.077,0-0.124-0.015c-0.093-0.016-0.185-0.031-0.278-0.031
	c-0.031-0.016-0.062-0.016-0.093-0.016c-0.046,0-0.093,0-0.139-0.016c-0.139-0.031-0.293-0.046-0.432-0.062
	c-0.123-0.015-0.247-0.031-0.355-0.046c-0.108-0.016-0.2-0.031-0.293-0.046c-2.344-0.324-4.688-0.663-7.017-1.018
	c-8.343-1.265-16.655-2.729-24.936-4.379c-16.469-3.254-32.77-7.31-48.869-12.09c-14.65-4.349-29.1-9.376-43.303-15.02
	c-1.542-0.617-3.069-1.234-4.595-1.866c-0.54-0.216-1.079-0.447-1.619-0.663c-0.093-0.046-0.2-0.093-0.293-0.124
	c-0.139-0.062-0.278-0.124-0.417-0.185c-3.624-1.542-7.232-3.146-10.825-4.78c-7.125-3.254-14.172-6.724-21.142-10.333
	c-13.185-6.862-26.015-14.418-38.429-22.623c-4.117-2.73-8.188-5.537-12.198-8.42c-45.492-36.101-91.154-72.587-137.063-109.259
	c-201.955-161.351-410.802-328.176-632.589-486.212c-250.978-178.808-483.251-320.481-710.126-433.101
	c-42.917-21.312-85.695-41.622-128.381-60.975c5.444,9.006,10.918,17.996,16.423,26.971
	c110.754,180.334,237.176,351.031,382.011,505.55c4.459,4.757,8.933,9.5,13.422,14.23c-4.406-4.645-8.8-9.302-13.178-13.973
	C2045.108,3420.144,1918.686,3249.448,1807.932,3069.114z"/>
<path fill="#0285C0" d="M3613.275,3560.103c30.826,32.412,49.772,76.224,49.772,124.379c0,4.708,1.921,8.968,5.022,12.043
	c-2.954-3.054-4.779-7.206-4.779-11.786C3663.29,3636.458,3644.245,3592.541,3613.275,3560.103z"/>
<path fill="#B6D5EF" d="M286.906,2734.973c-53.816,1.45-107.862,4.086-161.985,7.938c-23.44,2.406-36.301,7.788-41.714,17.472
	c-2.56,4.564-3.316,9.931-2.622,16.192c2.868,5.305,6.492,11.242,9.314,17.518c9.361,17.981,18.12,36.193,25.229,54.467
	c0.601,1.48,1.203,2.946,1.82,4.41v0.016c0.031,0.077,0.062,0.154,0.093,0.247
	c501.818,1226.023,1412.264,2070.729,2532.158,2392.582c1.511,0.432,3.038,0.879,4.565,1.311c0.031,0.016,0.062,0.016,0.092,0.031
	c44.814,12.815,89.967,24.797,135.459,35.931c-12.907,16.902-30.534,38.383-46.942,58.138
	c-76.874,92.588-172.531,207.799-134.688,304.397c28.344,72.356,43.549,73.404,58.245,74.422c12.707,0.879,24.72,1.712,47.79,61.515
	c23.964,62.146,37.658,90.491,50.504,104.57c13.879,15.19,27.141,14.126,47.235,12.507c1.943-0.154,3.963-0.324,6.076-0.478
	c7.741-0.571,16.238-1.974,25.213-3.485c20.633-3.439,43.58-7.263,67.776-3.346c28.498,4.626,58.724,20.001,88.918,59.448
	c0.093,0.108,0.201,0.231,0.308,0.324c26.262,22.931,60.374,41.082,93.591,49.794c13.308,3.485,25.691,5.212,36.718,5.212
	c17.488,0,31.598-4.318,40.681-12.8c12.398-11.566,15.359-29.732,8.805-53.989c-7.263-26.879-26.247-60.666-56.41-100.438
	c-77.938-102.735-74.808-190.774-71.801-275.899c2.73-77.121,4.75-154.149-49.733-234.508c5.259,0.972,10.502,1.897,15.745,2.854
	c0-0.016,0-0.016,0-0.016c7.402,1.327,14.82,2.637,22.237,3.917c0.031,0,0.046,0,0.062,0.016
	c22.252,3.824,44.583,7.464,66.958,10.903c25.46,3.917,50.982,7.587,76.597,10.995c1.634,0.216,3.269,0.432,4.919,0.648
	c164.928,21.682,333.342,32.739,504.701,32.754c0.108,0,0.37,0,0.478,0c261.187,0.015,525.952-27.296,788.418-81.593
	c0.833-33.217,2.56-66.742,4.874-100.191c-261.326,49.471-526.338,81.654-792.567,78.046
	c-319.772-4.333-645.573-50.011-947.102-159.716c-567.789-206.581-1072.491-571.614-1492.129-1002.155
	c-20.101-20.622-40.029-41.411-59.78-62.368c-190.919-202.546-365.225-420.695-517.767-653.598
	C534.824,3191.552,407.889,2964.843,286.906,2734.973z"/>
<path fill="#193B67" d="M3039.646,5335.244c-0.015-0.016-0.031-0.016-0.062-0.016c-7.402-1.264-14.82-2.575-22.237-3.901
	c-5.243-0.957-10.486-1.882-15.745-2.854c54.483,80.359,52.463,157.388,49.733,234.508c-3.007,85.125-6.137,173.164,71.801,275.899
	c30.164,39.771,49.147,73.559,56.41,100.438c6.554,24.257,3.593,42.423-8.805,53.989c-9.083,8.481-23.193,12.8-40.681,12.8
	c-11.026,0-23.409-1.728-36.718-5.212c-33.217-8.713-67.329-26.864-93.591-49.794c-0.108-0.093-0.216-0.216-0.308-0.324
	c-30.194-39.447-60.42-54.822-88.918-59.448c-24.196-3.917-47.142-0.093-67.776,3.346c-8.975,1.511-17.472,2.915-25.213,3.485
	c-2.113,0.154-4.133,0.324-6.076,0.478c-20.094,1.619-33.356,2.684-47.235-12.507c-12.846-14.079-26.54-42.423-50.504-104.57
	c-23.07-59.803-35.083-60.636-47.79-61.515c-14.696-1.018-29.901-2.066-58.245-74.422
	c-37.843-96.598,57.814-211.809,134.688-304.397c16.408-19.754,34.034-41.236,46.942-58.138
	c-45.492-11.134-90.645-23.116-135.459-35.931c-0.031-0.015-0.062-0.015-0.092-0.031c-1.851,2.837-4.318,6.647-5.043,7.726
	c-116.445,174.458-261.387,391.572-179.286,550.117c60.929,117.647,85.634,116.769,109.521,115.936
	c24.458-0.864,47.574-1.681,100.669,102.211c101.687,198.979,117.771,195.971,185.408,183.341c3.377-0.632,6.893-1.295,10.548-1.943
	c13.154-2.375,27.588-6.354,42.871-10.579c74.623-20.634,176.803-48.885,290.256,70.921c38.044,26.756,81.624,46.633,123.893,58.662
	c74.577,21.189,145.082,17.904,173.95-15.328c38.969-44.814-0.571-134.519-111.309-252.598
	c-156.539-166.918-167.288-322.471-177.682-472.903c-5.212-75.44-11.612-152.931-34.358-225.549
	c-25.615-3.408-51.137-7.078-76.597-10.995C3084.243,5342.723,3061.944,5339.099,3039.646,5335.244z"/>
<path fill="#193B67" d="M7030.35,2264.909c-91.755,50.211-201.214,87.916-325.354,112.081
	c-110.955,21.59-234.37,32.539-366.822,32.539c-137.849,0.015-282.854-11.612-430.958-34.559
	c-127.563-19.77-252.674-47.374-361.825-79.866c-30.765-5.69-163.762-12.166-328.408-104.586
	c-25.306-14.204-50.653-28.133-76.034-41.806H733.195c-86.989,53.532-180.179,103.469-283.565,146.284
	c-0.093,0.031-0.17,0.062-0.262,0.077c-137.726,38.846-239.998,78.046-312.647,119.837
	c-64.306,36.98-104.077,75.378-121.595,117.385c-29.994,71.893,9.592,143.401,51.506,219.118c4.565,8.25,9.176,16.563,13.709,24.951
	c0-0.015,0-0.031,0-0.046c-0.694-6.261,0.062-11.628,2.622-16.192c5.413-9.685,18.274-15.066,41.714-17.472
	c54.159-3.855,108.241-6.492,162.091-7.942c0.046,0.087,0.092,0.173,0.137,0.26c120.984,229.87,247.918,456.579,390.34,673.996
	c152.542,232.903,326.848,451.052,517.767,653.598c19.671,20.869,39.519,41.573,59.537,62.111
	c419.639,430.542,924.34,795.575,1492.129,1002.155c301.529,109.706,627.33,155.383,947.102,159.716
	c266.229,3.608,531.241-28.575,792.567-78.046c0.579-8.395,1.189-16.774,1.828-25.153c-3.504,0.676-7.009,1.339-10.514,2
	c-316.78,59.664-636.382,90.414-958.683,70.12c-323.674-20.387-640.885-92.758-938.913-220.922
	c-279.014-119.992-540.062-279.569-782.142-462.371c-206.917-156.251-399.852-330.989-578.12-519.299
	c-33.048-34.905-65.593-70.276-97.629-106.083c-211.392-236.282-394.903-493.028-557.935-764.701
	c-88.008-146.67-170.311-296.656-250.007-447.998c107.115-2.051,213.212,0.709,317.15,8.25c26.108,1.897,52.231,4.117,78.324,6.631
	c0.035,0.082,0.071,0.163,0.106,0.244c0.046,0.004,0.092,0.009,0.137,0.013c83.073,192.671,177.805,380.238,295.776,554.249
	c90.588,133.635,194.356,258.298,305.498,376.022c81.052,85.836,166.021,167.982,252.656,247.227
	c207.753,190.034,428.583,365.711,658.326,528.342c232.889,164.852,475.216,317.968,733.689,439.733
	c226.351,106.637,467.629,168.121,715.107,201.569c122.706,16.593,246.475,25.923,370.307,26.108
	c126.838,0.185,254.186-10.949,380.654-19.832c24.627-1.727,49.239-3.578,73.836-5.567c0.793-8.203,1.601-16.391,2.424-24.534
	c-64.57,5.171-129.202,9.422-193.85,13.379c-124.278,7.603-247.632,15.005-372.173,9.669
	c-251.302-10.764-504.948-53.342-743.975-132.344c-126.376-41.76-246.907-99.959-364.586-161.705
	c-126.453-66.342-248.942-140.101-368.672-217.87c-239.89-155.784-468.863-327.22-687.626-511.41
	c-148.728-125.216-292.635-256.887-426.35-398.143c-60.806-64.224-119.506-130.429-175.594-198.91
	c-179.64-219.319-314.467-465.624-427.349-723.373c120.732,12.692,240.862,32.014,358.401,57.66
	c23.718,5.181,47.374,10.61,70.968,16.3c0.042,0.076,0.085,0.153,0.127,0.229c0.039,0.009,0.078,0.018,0.116,0.028
	c81.639,147.642,167.427,292.939,263.593,431.744c92.614,133.671,196.507,258.245,308.08,375.869
	c58.452,61.61,119.01,121.314,181.158,179.419c178.114,166.517,367.762,322.115,566.077,463.944
	c191.499,136.955,389.29,265.844,597.845,375.442c206.936,108.75,425.499,197.375,653.608,250.099
	c114.116,26.37,230.607,42.979,347.576,48.9c132.005,6.693,263.932,14.758,396.014,19.523c9.021,0.324,18.042,0.632,27.079,0.925
	c0.855-8.137,1.695-16.272,2.504-24.364c-41.578-1.31-83.11-2.987-124.596-4.879c-128.966-5.875-258.889-9.746-387.439-21.929
	c-118.295-11.211-235.28-34.389-349.781-65.863c-456.017-125.389-862.116-387.254-1240.025-664.001
	c-100.931-73.914-197.544-154.828-292.708-235.958c-94.701-80.729-186.765-164.558-275.251-252.042
	c-27.966-27.645-55.406-55.692-82.318-84.148c-145.194-153.494-275.026-318.917-389.225-497.7
	c-59.911-93.791-115.905-189.957-169.956-287.233c186.086,46.834,368.687,109.844,552.445,190.697
	c0.04,0.068,0.081,0.135,0.121,0.204c0.041,0.018,0.082,0.035,0.122,0.053c41.853,70.613,85.464,140.193,131.881,208.031
	c91.315,133.462,193.464,259.364,304.675,376.692c31.128,32.833,62.966,64.995,95.475,96.462
	c74.283,71.893,152.067,140.116,232.226,205.378c39.401,32.076,79.48,63.304,120.022,93.93
	c42.5,32.107,87.731,60.374,131.974,89.998c176.525,118.187,351.477,239.258,538.427,340.683
	c186.549,101.208,379.205,188.522,578.291,262.035c204.345,75.456,411.867,143.247,627.5,177.266c1.65,0.262,3.3,0.524,4.95,0.787
	c0.703-8.16,1.36-16.137,1.957-23.903c-48.412-7.442-96.578-16.848-144.451-27.177c-106.236-22.9-209.604-56.657-312.647-90.861
	c-102.149-33.88-203.358-70.644-303.24-110.739c-197.914-79.465-390.339-175.106-573.202-284.874
	c-90.784-54.483-179.208-112.79-267.155-171.699c-44.181-29.593-88.239-59.371-132.405-88.995
	c-44.243-29.67-89.72-57.844-132.328-89.828c-160.782-120.714-312.975-253.406-451.413-399.313
	c-4.488-4.729-8.962-9.473-13.422-14.23c-144.835-154.519-271.257-325.216-382.011-505.55c-5.505-8.975-10.98-17.966-16.423-26.971
	c42.686,19.354,85.464,39.663,128.381,60.975c226.875,112.62,459.147,254.294,710.126,433.101
	c221.786,158.035,430.634,324.861,632.589,486.212c45.909,36.671,91.57,73.158,137.063,109.259c4.01,2.883,8.081,5.69,12.198,8.42
	c12.414,8.204,25.244,15.76,38.429,22.623c6.97,3.608,14.018,7.078,21.142,10.333c3.593,1.634,7.202,3.238,10.825,4.78
	c0.139,0.062,0.278,0.124,0.417,0.185c0.093,0.031,0.2,0.077,0.293,0.124c0.54,0.216,1.079,0.447,1.619,0.663
	c1.527,0.632,3.053,1.249,4.595,1.866c14.203,5.644,28.653,10.671,43.303,15.02c16.099,4.781,32.4,8.836,48.869,12.09
	c8.281,1.65,16.593,3.115,24.936,4.379c2.329,0.355,4.673,0.694,7.017,1.018c0.093,0.016,0.185,0.03,0.293,0.046
	c0.108,0.015,0.232,0.031,0.355,0.046c0.139,0.016,0.293,0.031,0.432,0.062c0.046,0.016,0.093,0.016,0.139,0.016
	c0.031,0,0.062,0,0.093,0.016c0.093,0,0.185,0.015,0.278,0.031c0.046,0.015,0.093,0.015,0.124,0.015
	c0.046,0.016,0.077,0.016,0.123,0.016c0.031,0.016,0.062,0.016,0.077,0.016c0.046,0,0.093,0.015,0.124,0.015
	c0.015,0,0.015,0,0.031,0c0.031,0,0.062,0.016,0.077,0.016c0.031,0,0.046,0,0.077,0c0.031,0.015,0.062,0.015,0.093,0.015
	c0.077,0.016,0.139,0.016,0.216,0.031c4.025,0.509,8.065,0.971,12.105,1.403c33.572,3.485,67.467,4.118,101.132,1.573
	c8.343-0.632,16.67-1.418,24.982-2.437c1.326-0.154,2.652-0.324,3.979-0.493c0.015,0,0.031,0,0.046,0
	c0.046-0.016,0.092-0.016,0.139-0.031c0.046,0,0.093,0,0.139-0.015c0.031,0,0.062,0,0.092-0.016c0.016,0,0.031,0,0.046,0
	c0.016,0,0.031,0,0.046,0c0-0.016,0.015-0.016,0.031-0.016c0.046,0,0.108-0.015,0.154-0.015c0.031,0,0.046,0,0.077-0.016
	c0.046,0,0.092-0.015,0.139-0.015c0.031,0,0.077-0.016,0.108-0.016s0.077,0,0.124-0.016c0.031,0,0.062,0,0.092-0.015
	c0.093,0,0.17-0.016,0.262-0.031c0.031,0,0.062,0,0.093-0.016c0.031,0,0.046,0,0.077-0.016c0.046,0,0.093,0,0.124-0.015
	c0.031,0,0.062,0,0.093-0.016c0.046,0,0.092,0,0.139-0.015c1.126-0.154,2.251-0.324,3.377-0.494
	c3.932-0.586,7.88-1.203,11.797-1.881c16.223-2.791,32.323-6.307,48.191-10.687c15.591-4.317,30.981-9.36,46.017-15.313
	c2.082-0.817,4.164-1.65,6.23-2.514c0.108-0.046,0.216-0.092,0.324-0.123c0.077-0.031,0.154-0.062,0.247-0.108
	c0.108-0.031,0.2-0.077,0.308-0.123c0.031,0,0.093-0.031,0.139-0.062c0.015,0,0.046-0.015,0.062-0.03
	c0.046-0.016,0.093-0.031,0.139-0.046c0.046-0.016,0.108-0.031,0.17-0.077c0.046-0.031,0.108-0.046,0.17-0.077
	c0.046,0,0.108-0.031,0.154-0.062c0.154-0.077,0.308-0.139,0.416-0.185c3.501-1.511,6.986-3.054,10.456-4.673
	c7.155-3.331,14.218-6.847,21.173-10.609c13.694-7.402,26.987-15.606,39.617-24.705c1.758-1.265,3.5-2.545,5.228-3.84
	c0.37-0.293,1.264-0.971,2.066-1.573c0.031-0.015,0.077-0.046,0.108-0.077c0.247-0.216,0.493-0.385,0.694-0.54
	c0,0,0.015,0,0.031-0.015c0.108-0.092,0.216-0.169,0.324-0.277c0.031-0.016,0.046-0.031,0.077-0.046
	c0.062-0.031,0.108-0.077,0.139-0.108c0.031-0.031,0.062-0.046,0.093-0.077v0.015c0.015-0.015,0.031-0.031,0.031-0.031
	c2.282-1.804,4.549-3.639,6.77-5.49c5.891-4.919,11.612-10.024,17.117-15.359c8.482-8.204,16.316-16.902,23.918-25.907
	c0.725-0.864,1.45-1.728,2.159-2.606c0.632-0.786,1.265-1.573,1.881-2.375c0.154-0.17,0.293-0.355,0.417-0.54
	c10.579-13.864,20.217-28.467,29.115-43.457c6.708-11.319,13-22.87,18.829-34.667c3.269-6.631,6.415-13.324,9.376-20.094
	c0.663-1.496,1.326-2.992,1.974-4.503c0.016-0.046,0.031-0.093,0.062-0.139c0.015-0.046,0.031-0.077,0.046-0.124
	c0.015-0.046,0.031-0.077,0.046-0.123c0.062-0.139,0.123-0.293,0.185-0.432c0.37-0.864,0.725-1.743,1.08-2.606
	c1.45-3.546,2.868-7.109,4.225-10.687c6.03-15.791,11.273-31.891,15.529-48.252c2.251-8.667,4.271-17.41,5.983-26.201
	c0.91-4.703,1.758-9.407,2.498-14.141c0.355-2.205,0.694-4.41,1.018-6.616c0.015-0.077,0.031-0.139,0.031-0.216
	c0-0.031,0.016-0.046,0.016-0.077c0-0.031,0-0.046,0-0.077c0.015-0.031,0.015-0.062,0.015-0.092
	c0.015-0.062,0.015-0.124,0.031-0.201c0.016-0.093,0.031-0.185,0.031-0.262c0-0.015,0.016-0.046,0.016-0.062
	c0-0.015,0-0.046,0-0.077c0.015-0.062,0.015-0.108,0.031-0.154c0-0.015,0-0.031,0-0.046c0.016-0.077,0.016-0.139,0.031-0.201
	c0-0.046,0-0.077,0.016-0.124c0-0.062,0.016-0.123,0.016-0.185v-0.015c0.015-0.016,0.015-0.016,0.015-0.031c0-0.046,0-0.077,0-0.108
	c0.016,0,0.016-0.015,0.016-0.015c0-0.015,0-0.046,0-0.077c0.015-0.015,0.015-0.015,0.015-0.031
	c0.016-0.123,0.016-0.216,0.031-0.278c0-0.015,0-0.031,0-0.046c0-0.015,0-0.015,0-0.031c0.015-0.031,0.015-0.046,0.015-0.046
	c0.031-0.293,0.077-0.571,0.108-0.864c2.344-19.323,3.377-38.831,2.776-58.292c-0.293-10.208-0.972-20.417-2.128-30.565
	c-0.186-1.666-0.37-3.315-0.586-4.966c-0.031-0.216-0.092-0.632-0.139-1.079c0-0.077-0.015-0.154-0.031-0.231
	c-0.015-0.062-0.031-0.139-0.031-0.216s-0.016-0.139-0.031-0.216c0-0.046,0-0.093-0.016-0.124c0-0.031,0-0.062-0.015-0.077
	c0-0.077-0.016-0.154-0.031-0.216c0-0.046,0-0.093-0.015-0.139c0-0.031,0-0.062-0.016-0.077c-0.016-0.169-0.031-0.262-0.031-0.262
	c-0.262-1.789-0.524-3.578-0.817-5.366c-0.817-5.073-1.743-10.132-2.76-15.175c-1.82-9.052,2.483-18.274,11.859-20.864
	c5.884-1.614,12.809,0.382,17.088,4.814c1.983,1.965,3.44,4.432,4.02,7.302c0.509,2.529,1.002,5.058,1.465,7.603
	c13.756,76.581,4.349,155.398-23.749,227.754c-17.086,44.027-39.54,86.543-68.377,124.063
	c-29.393,38.26-66.542,69.704-108.842,92.989c-59.201,32.6-125.651,50.119-192.748,56.056
	c-68.177,6.014-138.034-0.231-203.975-18.583c-3.7-1.035-7.401-2.102-11.071-3.212c332.916,259.691,658.706,489.26,998.873,611.487
	c4.349-62.425,4.95-116.028-2.159-156.725c-0.231-1.265,0.617-2.467,1.881-2.683c1.234-0.216,2.452,0.617,2.667,1.881
	c7.232,41.406,6.585,95.811,2.128,159.13c-0.124,1.681-0.247,3.347-0.37,5.043c-0.154,2.144-0.324,4.302-0.478,6.461
	c-0.602,7.927-1.265,15.976-1.958,24.165c-1.958,22.684-4.256,46.31-6.754,70.721c-0.817,8.111-1.666,16.315-2.529,24.596
	c-1.079,10.348-2.19,20.818-3.3,31.413c-2.36,22.422-4.781,45.276-7.109,68.423c-0.833,8.235-1.666,16.5-2.467,24.797
	c-2.76,28.206-5.336,56.765-7.572,85.449c-0.647,8.481-1.28,16.963-1.866,25.46c-2.313,33.433-4.056,66.928-4.904,100.129
	c-0.046,2.051-0.108,4.102-0.139,6.138c-4.472,201.538,24.828,391.002,159.624,485.086
	c151.82,105.974,181.984,88.749,211.146,72.109c29.362-16.763,57.089-32.616,189.402,60.805
	c59.957,42.331,106.806,73.928,144.372,96.706c122.135,74.052,146.253,55.007,204.129,9.314c3.763-2.977,7.665-6.061,11.751-9.237
	c14.727-11.458,29.963-25.753,46.094-40.881c40.48-37.952,86.374-80.992,150.094-105.989
	c74.036-29.038,156.786-27.172,252.998,5.706c83.367,10.872,176.063,1.635,254.356-25.306c26.108-8.991,49.24-19.539,68.901-31.259
	c40.28-24.011,66.048-52.956,73.281-83.582c19.137-81.022-87.931-166.44-301.498-240.523
	c-300.865-104.385-414.796-289.146-524.964-467.814c-6.924-11.227-13.833-22.422-20.757-33.557
	c-1.172-1.896-2.344-3.778-3.531-5.675c-19.97-32.029-40.172-63.55-61.684-94.084c-0.987-1.388-1.975-2.776-2.961-4.164
	c-29.994-42.192-62.595-82.472-100.7-119.637c-67.929-66.249-153.316-122.566-272.475-162.106c-1.203-0.401-1.866-1.711-1.465-2.93
	c0.401-1.203,1.712-1.866,2.93-1.465c109.845,36.456,197.514,88.61,274.095,163.325c5.212,5.058,10.363,10.24,15.467,15.529
	c32.523,33.68,60.79,69.225,87.037,106.22c369.412-79.341,750.174-303.117,1164.107-679.87c8.05-7.31,16.1-14.681,24.165-22.114
	c0.556-0.494,1.25-0.663,1.928-0.555c0.062,0,0.139,0.016,0.201,0.031c0.046,0,0.077,0,0.108,0.016
	c0.786-0.802,1.573-1.604,2.344-2.39c0.046-0.046,0.093-0.093,0.139-0.139c535.631-544.206,937.68-1271.09,1096.905-2173.98
	c2.53-14.345,4.996-28.737,7.403-43.171c13.657-81.906,25.339-165.232,34.94-249.992c0.108-0.833,0.632-1.542,1.404-1.866
	c297.488-125.05,554.681-310.797,743.774-537.178c173.519-207.722,278.521-438.267,295.669-649.197
	c18.768-230.915-69.117-420.317-247.555-533.755c-18.475,149.461-153.163,234.339-323.319,341.577
	c-182.447,115.01-409.522,258.134-562.824,535.729c-0.478,0.848-1.419,1.326-2.39,1.172c-0.957-0.154-1.728-0.879-1.913-1.835
	c-31.675-158.976-175.522-301.621-314.652-439.563c-74.962-74.33-145.76-144.526-193.781-212.888
	c-53.727-76.489-70.983-139.453-54.205-197.961c-2.128-0.987-4.704-1.496-7.665-1.496c-20.895,0-64.629,26.092-115.211,84.369
	c-55.161,63.55-102.55,147.318-133.438,235.912c-87.854,251.934-122.752,763.899,630.522,1361.929
	c0.617,0.494,0.94,1.265,0.863,2.051c-13.661,138.06-57.197,256.588-129.999,354.719c-10.682,14.398-21.984,28.362-33.925,41.878
	C7172.48,2171.61,7107.473,2222.698,7030.35,2264.909z"/>
<path fill="#193B67" d="M3680.253,3701.703c-4.788,0-9.102-1.99-12.185-5.177c-3.1-3.075-5.022-7.335-5.022-12.043
	c0-48.155-18.946-91.967-49.772-124.379c-32.911-34.47-79.29-55.976-130.597-55.976c-99.589,0-180.612,81.022-180.612,180.612
	c0,9.36-7.603,16.963-16.963,16.963c-4.788,0-9.102-1.99-12.185-5.177c-3.101-3.075-5.022-7.335-5.022-12.043
	c0-118.311,96.243-214.539,214.538-214.539c61.079,0,116.277,25.656,155.386,66.757c36.78,38.527,59.396,90.688,59.396,148.038
	C3697.216,3694.1,3689.614,3701.703,3680.253,3701.703z"/>
<path fill="#B6D5EF" d="M1752.586,3024.763c-0.041-0.018-0.081-0.036-0.122-0.053c-183.716-80.827-366.278-143.82-552.323-190.644
	c54.051,97.276,110.045,193.442,169.956,287.233c114.135,178.682,243.885,344.021,388.982,497.443
	c26.912,28.456,54.352,56.503,82.318,84.148c88.486,87.484,180.55,171.313,275.251,252.042
	c95.164,81.13,191.777,162.045,292.708,235.958c377.909,276.747,784.008,538.612,1240.025,664.001
	c114.502,31.475,231.486,54.652,349.781,65.863c128.55,12.183,258.473,16.054,387.439,21.929
	c41.486,1.893,83.018,3.569,124.596,4.879c0.089,0.002,0.179,0.006,0.269,0.009c2.483-24.489,4.812-48.576,6.786-71.292
	c-1.65-0.262-3.301-0.524-4.95-0.787c-215.633-34.019-423.155-101.81-627.5-177.265
	c-199.086-73.513-391.742-160.827-578.291-262.036c-186.95-101.425-361.902-222.496-538.427-340.683
	c-44.243-29.624-89.473-57.891-131.974-89.998c-40.542-30.626-80.622-61.854-120.022-93.93
	c-80.159-65.262-157.943-133.485-232.226-205.378c-32.594-31.55-64.513-63.797-95.719-96.719
	c-111.211-117.329-213.359-243.23-304.675-376.692C1838.049,3164.956,1794.439,3095.376,1752.586,3024.763z"/>
<path fill="#B6D5EF" d="M1167.664,2826.062c-0.039-0.009-0.077-0.018-0.116-0.028c-23.556-5.68-47.173-11.1-70.852-16.273
	c-117.54-25.645-237.67-44.968-358.402-57.659c112.882,257.748,247.709,504.054,427.349,723.373
	c56.013,68.39,114.631,134.509,175.35,198.653c133.715,141.256,277.621,272.927,426.35,398.143
	c218.764,184.19,447.736,355.626,687.626,511.41c119.729,77.769,242.219,151.528,368.672,217.87
	c117.678,61.746,238.21,119.945,364.586,161.705c239.027,79.002,492.673,121.58,743.975,132.344
	c124.541,5.335,247.894-2.067,372.173-9.669c64.647-3.958,129.279-8.208,193.85-13.379c0.09-0.007,0.181-0.014,0.271-0.021
	c2.359-23.44,4.796-46.572,7.202-69.287c1.095-10.317,2.175-20.695,3.239-31.058c-9.037-0.293-18.058-0.602-27.08-0.926
	c-132.082-4.765-264.009-12.83-396.014-19.523c-116.969-5.922-233.46-22.53-347.576-48.9
	c-228.108-52.725-446.672-141.35-653.607-250.1c-208.555-109.598-406.346-238.487-597.845-375.441
	c-198.315-141.828-387.964-297.427-566.078-463.944c-62.234-58.186-122.874-117.975-181.401-179.676
	c-111.573-117.624-215.466-242.198-308.08-375.869C1335.091,3119.001,1249.303,2973.704,1167.664,2826.062z"/>
<path fill="#B6D5EF" d="M709.95,2749.234c-0.046-0.004-0.092-0.009-0.137-0.013c-26.047-2.508-52.124-4.725-78.186-6.618
	c-103.938-7.541-210.035-10.301-317.15-8.25c79.696,151.343,161.999,301.328,250.007,447.998
	c163.032,271.674,346.543,528.419,557.935,764.701c31.957,35.719,64.421,71.004,97.386,105.826
	c178.268,188.31,371.202,363.047,578.12,519.299c242.08,182.802,503.128,342.379,782.142,462.371
	c298.028,128.165,615.24,200.536,938.913,220.922c322.301,20.294,641.903-10.456,958.683-70.12c3.505-0.662,7.01-1.324,10.514-2
	c0.088-0.017,0.177-0.034,0.266-0.051c2.236-28.853,4.827-57.582,7.602-85.957c-24.596,1.989-49.208,3.84-73.836,5.567
	c-126.468,8.882-253.816,20.016-380.654,19.831c-123.831-0.185-247.601-9.515-370.307-26.108
	c-247.478-33.448-488.756-94.932-715.107-201.569c-258.473-121.765-500.8-274.881-733.689-439.733
	c-229.744-162.63-450.573-338.308-658.327-528.342c-86.722-79.324-171.775-161.555-252.9-247.484
	c-111.142-117.723-214.911-242.387-305.498-376.022C887.756,3129.472,793.024,2941.905,709.95,2749.234z"/>
<path fill="#B6D5EF" d="M3737.095,4249.784c67.097-5.937,133.547-23.456,192.748-56.056c42.3-23.286,79.45-54.729,108.842-92.989
	c28.837-37.519,51.291-80.035,68.377-124.063c28.098-72.356,37.504-151.173,23.749-227.754c-0.462-2.545-0.956-5.074-1.465-7.603
	c-0.58-2.869-2.037-5.337-4.02-7.302c-4.296-4.255-11.074-6.14-16.845-4.557c-9.376,2.591-13.679,11.813-11.859,20.865
	c1.018,5.043,1.943,10.101,2.76,15.175c0.293,1.789,0.555,3.578,0.817,5.366c0,0,0.016,0.093,0.031,0.262
	c0.016,0.016,0.016,0.046,0.016,0.077c0.016,0.046,0.016,0.093,0.016,0.139c0.015,0.061,0.031,0.139,0.031,0.216
	c0.015,0.015,0.015,0.046,0.015,0.077c0.016,0.031,0.016,0.077,0.016,0.124c0.016,0.077,0.031,0.138,0.031,0.216
	c0,0.077,0.016,0.155,0.031,0.216c0.016,0.077,0.031,0.154,0.031,0.231c0.046,0.448,0.108,0.864,0.139,1.08
	c0.216,1.65,0.401,3.3,0.586,4.966c1.157,10.147,1.835,20.356,2.128,30.565c0.602,19.461-0.432,38.969-2.776,58.292
	c-0.031,0.293-0.077,0.57-0.108,0.864c0,0,0,0.015-0.015,0.046c0,0.016,0,0.016,0,0.031c0,0.015,0,0.031,0,0.046
	c-0.016,0.062-0.016,0.154-0.031,0.277c0,0.016,0,0.016-0.016,0.031c0,0.031,0,0.062,0,0.077c0,0,0,0.015-0.016,0.015
	c0,0.031,0,0.062,0,0.108c0,0.015,0,0.015-0.015,0.031v0.016c0,0.062-0.016,0.123-0.016,0.185c-0.015,0.046-0.015,0.077-0.015,0.124
	c-0.016,0.062-0.016,0.124-0.031,0.201c0,0.015,0,0.031,0,0.046c-0.015,0.046-0.015,0.093-0.031,0.155c0,0.031,0,0.062,0,0.077
	s-0.016,0.046-0.016,0.061c0,0.078-0.015,0.17-0.031,0.262c-0.015,0.077-0.015,0.139-0.031,0.201c0,0.031,0,0.061-0.015,0.092
	c0,0.031,0,0.046,0,0.077s-0.016,0.046-0.016,0.077c0,0.077-0.015,0.139-0.031,0.216c-0.324,2.205-0.663,4.41-1.018,6.616
	c-0.74,4.734-1.588,9.438-2.498,14.141c-1.712,8.791-3.732,17.534-5.983,26.201c-4.256,16.362-9.499,32.461-15.529,48.252
	c-1.357,3.578-2.776,7.14-4.225,10.687c-0.355,0.864-0.709,1.743-1.08,2.606c-0.062,0.139-0.123,0.293-0.185,0.432
	c-0.015,0.046-0.031,0.077-0.046,0.123s-0.031,0.077-0.046,0.124c-0.031,0.046-0.046,0.093-0.062,0.139
	c-0.648,1.511-1.311,3.007-1.974,4.503c-2.961,6.77-6.107,13.463-9.376,20.094c-5.829,11.797-12.121,23.347-18.829,34.667
	c-8.898,14.989-18.536,29.593-29.115,43.457c-0.124,0.185-0.262,0.37-0.416,0.54c-0.617,0.802-1.249,1.588-1.881,2.375
	c-0.709,0.879-1.434,1.742-2.159,2.606c-7.603,9.006-15.437,17.703-23.918,25.907c-5.505,5.336-11.227,10.44-17.117,15.359
	c-2.22,1.851-4.488,3.686-6.77,5.49c0,0-0.015,0.016-0.031,0.031v-0.015c-0.031,0.031-0.062,0.046-0.092,0.077
	c-0.031,0.031-0.077,0.077-0.139,0.108c-0.031,0.016-0.046,0.031-0.077,0.046c-0.108,0.108-0.216,0.185-0.324,0.277
	c-0.015,0.016-0.031,0.016-0.031,0.016c-0.2,0.154-0.447,0.324-0.694,0.54c-0.031,0.031-0.077,0.062-0.108,0.077
	c-0.802,0.602-1.696,1.28-2.066,1.573c-1.727,1.295-3.47,2.576-5.228,3.84c-12.63,9.098-25.923,17.302-39.617,24.705
	c-6.955,3.763-14.018,7.278-21.173,10.609c-3.47,1.62-6.955,3.162-10.455,4.673c-0.108,0.046-0.262,0.108-0.417,0.185
	c-0.046,0.031-0.108,0.062-0.154,0.062c-0.062,0.031-0.123,0.046-0.169,0.077c-0.062,0.046-0.124,0.062-0.17,0.077
	c-0.046,0.016-0.093,0.031-0.139,0.046c-0.015,0.016-0.046,0.03-0.062,0.03c-0.046,0.031-0.108,0.062-0.139,0.062
	c-0.108,0.046-0.2,0.093-0.308,0.124c-0.093,0.046-0.17,0.077-0.247,0.108c-0.108,0.031-0.216,0.077-0.324,0.123
	c-2.066,0.864-4.148,1.697-6.23,2.514c-15.035,5.953-30.426,10.995-46.017,15.313c-15.868,4.379-31.968,7.896-48.191,10.687
	c-3.917,0.678-7.865,1.295-11.797,1.881c-1.126,0.169-2.252,0.339-3.377,0.494c-0.046,0.015-0.092,0.015-0.139,0.015
	c-0.031,0.016-0.062,0.016-0.093,0.016c-0.031,0.016-0.077,0.016-0.124,0.016c-0.031,0.015-0.046,0.015-0.077,0.015
	c-0.031,0.016-0.062,0.016-0.093,0.016c-0.093,0.016-0.17,0.031-0.262,0.031c-0.031,0.016-0.062,0.016-0.093,0.016
	c-0.046,0.015-0.093,0.015-0.124,0.015c-0.031,0-0.077,0.016-0.108,0.016c-0.046,0-0.093,0.016-0.139,0.016
	c-0.031,0.015-0.046,0.015-0.077,0.015c-0.046,0-0.108,0.016-0.154,0.016c-0.015,0-0.031,0-0.031,0.015c-0.015,0-0.031,0-0.046,0
	s-0.031,0-0.046,0c-0.031,0.016-0.062,0.016-0.093,0.016c-0.046,0.016-0.093,0.016-0.139,0.016
	c-0.046,0.015-0.093,0.015-0.139,0.031c-0.015,0-0.031,0-0.046,0c-1.326,0.169-2.653,0.339-3.979,0.494
	c-8.312,1.018-16.639,1.804-24.982,2.436c-33.664,2.545-67.56,1.912-101.131-1.573c-4.041-0.432-8.081-0.894-12.106-1.403
	c-0.077-0.016-0.139-0.016-0.216-0.031c-0.031,0-0.062,0-0.093-0.016c-0.031,0-0.046,0-0.077,0c-0.015,0-0.046-0.015-0.077-0.015
	c-0.015,0-0.015,0-0.031,0c-0.031,0-0.077-0.016-0.124-0.016c-0.015,0-0.046,0-0.077-0.016c-0.046,0-0.077,0-0.123-0.015
	c-0.031,0-0.077,0-0.124-0.016c-0.093-0.015-0.185-0.031-0.277-0.031c-0.031-0.016-0.062-0.016-0.093-0.016
	c-0.046,0-0.093,0-0.139-0.015c-0.138-0.031-0.293-0.046-0.432-0.062c-0.123-0.015-0.247-0.031-0.355-0.046
	c-0.108-0.016-0.2-0.031-0.293-0.046c-2.344-0.324-4.688-0.663-7.017-1.018c-8.343-1.265-16.655-2.729-24.936-4.379
	c-16.47-3.254-32.77-7.31-48.869-12.09c-14.65-4.349-29.1-9.376-43.302-15.021c-1.542-0.617-3.069-1.233-4.595-1.866
	c-0.54-0.216-1.08-0.447-1.619-0.663c-0.093-0.046-0.2-0.092-0.293-0.124c-0.139-0.062-0.277-0.124-0.416-0.185
	c-3.624-1.542-7.232-3.146-10.826-4.78c-7.125-3.254-14.172-6.724-21.142-10.332c-13.185-6.863-26.015-14.419-38.429-22.623
	c-4.117-2.729-8.188-5.536-12.198-8.42c-45.492-36.101-91.154-72.587-137.063-109.258
	c-201.955-161.351-410.803-328.176-632.589-486.212c-250.979-178.808-483.251-320.481-710.126-433.102
	c-42.917-21.312-85.695-41.622-128.381-60.975c5.444,9.006,10.918,17.997,16.424,26.972
	c110.754,180.334,237.176,351.03,382.011,505.55c4.379,4.671,8.772,9.328,13.178,13.973
	c138.438,145.906,290.631,278.599,451.413,399.313c42.608,31.983,88.085,60.158,132.328,89.828
	c44.166,29.624,88.224,59.402,132.405,88.995c87.947,58.909,176.371,117.216,267.155,171.699
	c182.863,109.767,375.288,205.409,573.202,284.874c99.882,40.095,201.091,76.859,303.24,110.739
	c103.044,34.204,206.412,67.96,312.647,90.861c47.874,10.329,96.04,19.734,144.451,27.177c0.087,0.014,0.173,0.028,0.26,0.042
	c0.339-4.21,0.647-8.358,0.94-12.43c-340.297-122.273-666.207-351.971-999.256-611.785c0.046,0.014,0.093,0.027,0.14,0.042
	c3.671,1.11,7.371,2.177,11.071,3.212C3599.061,4249.552,3668.919,4255.798,3737.095,4249.784z"/>
<path fill="#B6D5EF" d="M6505.983,4220.854c-413.933,376.752-794.695,600.528-1164.107,679.87
	c21.219,30.164,44.104,65.447,63.967,97.322c386.19-184.004,806.8-488.725,1126.433-799.831c-0.062-0.015-0.139-0.031-0.201-0.031
	C6523.594,4205.726,6514.881,4213.282,6505.983,4220.854z"/>
<path fill="#FFFFFF" d="M3482.678,3470.201c-118.295,0-214.538,96.228-214.538,214.538c0,4.58,1.825,8.732,4.779,11.786
	c3.083,3.187,7.396,5.177,12.185,5.177c9.361,0,16.963-7.603,16.963-16.963c0-99.589,81.022-180.612,180.612-180.612
	c51.307,0,97.686,21.506,130.597,55.976c30.97,32.437,50.015,76.354,50.015,124.636c0,4.58,1.825,8.732,4.779,11.786
	c3.083,3.187,7.396,5.177,12.185,5.177c9.361,0,16.963-7.603,16.963-16.963c0-57.351-22.616-109.511-59.396-148.038
	C3598.727,3495.749,3543.63,3470.201,3482.678,3470.201z"/>
</svg>
