<svg version="1.1" xmlns="http://www.w3.org/2000/svg" xmlns:xlink="http://www.w3.org/1999/xlink" x="0px" y="0px" width="210.3px"
	 height="96.966px" viewBox="0 0 210.3 96.966" enable-background="new 0 0 210.3 96.966" xml:space="preserve">

<g id="Layer_4">
	<g>
		<path fill="#FFFFFF" d="M193.501,48.74c-0.084,0.015-0.169,0.034-0.252,0.034c-0.083,0-0.167,0-0.25,0
			c-0.359,0-0.651-0.104-0.876-0.272c-3.681-0.452-7.456,0.561-10.597,3.702c-4.047,4.048-5.751,10.665-2.036,15.615
			c1.926,2.566,4.856,4.492,8.214,4.314c1.823,0.048,3.503-0.42,5.039-1.405c4.093-2.686,3.694-5.169-1.198-7.448
			c-0.91,1.708-3.5,0.192-2.59-1.514c3.408-6.397,9.114-0.121,9.72,4.626c1.017,7.968-10.751,9.444-15.823,7.827
			c-6.158-1.963-9.804-10.342-8.048-16.345c1.919-6.562,7.447-11.591,14.431-12.217c1.233-0.11,2.423-0.091,3.577,0.022
			c-0.489-0.584,1.125-4.017,1.243-4.805c0.471-3.163-0.398-5.407-1.5-8.203c-0.654-1.658-1.426-3.835-2.782-5.08
			c-2.421-2.224-5.382-1.516-8.134-0.547c0.053,0.734-0.01,1.475-0.211,2.195c0.138,0.832-0.337,1.784-1.427,1.784
			c-0.083,0-0.167,0-0.25,0c-0.885,0-1.825-0.977-1.446-1.899c2.163-5.262-4.793-6.55-8.359-5.123
			c-2.342,0.938-3.914,2.954-6.226,4.076c-0.445,5.378-3.371,10.214-9.681,12.204c-10.723,3.381-18.135-8.167-12.432-17.103
			c2.023-3.169,5.803-3.214,8.241-0.633c2.738,2.899,0.732,5.593-1.841,7.523c-0.861,0.646-2.392-0.215-2.257-1.295
			c0.078-0.626,0.228-0.995,0.606-1.454c-2.092-2.458-3.325-2.294-3.695,0.509c-0.616,2.003-0.436,3.961,0.541,5.874
			c2.286,3.566,7.154,5.61,11.047,3.19c5.994-3.726,8.035-8.995,5.693-15.692c-1.653-4.726-4.998-9.743-9.651-12.001
			c-3.468-1.683-10.208-3.117-14.031-0.613c0.721,2.123,0.754,4.466,0.739,6.938c-0.012,1.934-3,1.935-3,0c0-0.083,0-0.167,0-0.25
			c0,0,0-0.001,0-0.001c0.006-2.11-0.086-4.252-0.822-6.024c-0.216-0.232-0.364-0.52-0.412-0.828
			c-0.761-1.298-1.978-2.324-3.943-2.864c-2.175-0.598-4.509-1.726-6.823-1.532c-4.935,0.412-9.965,5.25-10.45,10.314
			c0.291,0.642,0.149,1.495-0.436,1.921c0.198,0.304,0.386,0.612,0.561,0.924c3.013,5.366,2.024,9.828-1.594,14.666
			c-2.677,3.58-5.898,6.633-10.651,5.622c-3.442-0.732-6.471-5.923-6.305-9.252c0.196-3.953,2.785-6.495,6.875-6.445
			c2.636,0.032,5.545,0.526,5.25,3.75c-0.175,1.91-3.176,1.927-3,0c0.078-0.855-8.951-0.985-5.369,5.423
			c1.987,3.555,6.089,4.75,9.088,1.269c2.381-2.764,5.951-7.101,4.334-11.043c-1.151-2.804-2.976-4.79-5.114-6.838
			c-3.753-3.595-8.872-7.298-13.986-8.679c-5.46-1.475-14.461-1.185-17.09,5.059c-0.057,0.136-0.131,0.251-0.211,0.357
			c0.523,1.278,0.821,2.659,0.841,4.137c0.001,0.023,0.006,0.042,0.006,0.065c0,0.031,0,0.063,0,0.094c0,1.935-3,1.935-3,0
			c0-8.277-12.696-13.671-19.617-12.202C45.392,4.596,38.97,8.619,38.096,15.83c3.985,2.31,7.013,5.869,7.652,10.944
			c0.241,1.916-2.762,1.893-3,0c-0.451-3.576-3.041-6.839-6.218-8.5c-0.011,0-0.022,0-0.032,0c-0.428,0-0.842-0.207-1.129-0.523
			c-0.153-0.058-0.306-0.12-0.46-0.17c-2.267-0.744-5.506-2.334-7.911-2.056c-4.373,0.505-6.198,4.48-7.179,8.106
			c-0.49,1.813-1.617,4.168-1.412,6.128c0.054,0.155,0.091,0.323,0.091,0.516c0,0.083,0,0.167,0,0.25
			c0,0.086-0.011,0.166-0.024,0.245c1.633,0.475,3.117,1.381,4.239,2.809c4.033,5.134-4.394,16.953-9.26,10.454
			c-1.161-1.55,1.446-3.043,2.59-1.514c1.565,2.09,4.32-3.191,4.506-4.114c1.075-5.31-5.031-5.702-8.206-4.477
			c-4.7,1.813-8.089,5.449-8.955,10.534c-0.926,5.435-0.081,11.2,4.256,15.05c3.268,2.901,8.331,6.608,12.937,6.542
			c6.836-0.098,13.72-6.177,20.534-2.275c2.605,1.492,4.373,3.613,6.694,5.437c3.897,3.062,7.229,5.012,12.088,6.114
			c1.886,0.428,1.086,3.32-0.797,2.893c-3.557-0.807-6.662-1.678-9.616-3.843c-0.762-0.558-1.477-1.163-2.178-1.781
			c-0.121,0.055-0.252,0.101-0.408,0.124c-0.779,0.115,0.606,4.193,0.762,4.568c1.25,3.013,3.07,5.808,5.512,7.997
			c4.567,4.094,10.372,6.706,16.476,7.542c13.338,1.827,25.288-0.006,37.951-4.306c8.557-2.906,19.254-8.461,28.408-4.543
			c4.497,1.925,10.497,7.844,15.524,7.405c5.226-0.456,9.484-3.859,13.711-6.655c1.619-1.07,3.12,1.529,1.514,2.59
			c-0.653,0.432-1.334,0.904-2.035,1.39c10.287,4.009,19.791,4.38,29.426-2.167c8.654-5.881,16.624-15.997,12.011-27.067
			C203.983,54.255,198.95,49.951,193.501,48.74z"/>
		<path fill="#2785C4" d="M195.424,46.131c2.416-5.783,1.651-10.516-0.954-16.62c-2.679-6.276-7.683-7.372-13.671-5.333
			c-0.983-1.841-2.738-3.26-4.913-3.516c-2.565-0.301-5.16-0.184-7.573,0.782c-1.846,0.739-3.044,2.239-4.63,3.291
			c-0.356-3.688-1.739-7.409-3.889-10.468c-3.188-4.535-7.113-7.965-12.545-9.486c-3.708-1.038-8.875-0.927-12.382,1.157
			c-0.302-0.399-0.647-0.786-1.04-1.161c-2.286-2.179-7.331-3.484-10.329-3.664c-6.848-0.41-13.694,5.298-14.823,12.114
			c-2.923-3.062-6.764-5.585-10.17-7.499c-7.817-4.393-21.021-6.314-26.349,2.36C67.881,2.58,59.204-0.295,52.999,0.024
			C44.71,0.449,36.942,6.434,35.31,14.472c-2.639-1.071-5.512-1.709-8.312-1.948c-7.432-0.636-12.321,11.728-11.536,17.844
			c-1.933,0.009-3.898,0.486-5.604,1.329c-5.585,2.76-8.575,7.339-9.613,13.439c-1.898,11.146,7.476,22.478,18.69,23.732
			c8.626,0.964,15.783-6.849,23.726-0.411c0.714,0.579,1.397,1.189,2.072,1.806c-5.132,2.808,5.535,16.443,7.47,18.178
			c9.104,8.161,24.895,9.527,36.455,7.952c7.395-1.007,14.441-3.18,21.488-5.573c8.193-2.782,17.135-7.336,25.816-3.62
			c5.384,2.304,9.464,6.871,15.567,7.184c3.583,0.184,7.116-1.651,10.33-3.736c0.135,0.128,0.294,0.241,0.49,0.323
			c8.207,3.46,17.212,5.662,25.797,2.252c8.086-3.212,16.128-9.426,20.008-17.298C213.93,64.207,207.494,49.15,195.424,46.131z
			 M194.147,86.542c-9.634,6.548-19.138,6.177-29.426,2.167c0.701-0.486,1.382-0.958,2.035-1.39c1.606-1.062,0.105-3.661-1.514-2.59
			c-4.227,2.795-8.486,6.198-13.711,6.655c-5.027,0.439-11.028-5.48-15.524-7.405c-9.154-3.918-19.851,1.637-28.408,4.543
			c-12.663,4.3-24.613,6.133-37.951,4.306c-6.104-0.836-11.909-3.448-16.476-7.542c-2.442-2.189-4.262-4.984-5.512-7.997
			c-0.155-0.375-1.541-4.452-0.762-4.568c0.156-0.023,0.288-0.069,0.408-0.124c0.701,0.618,1.416,1.222,2.178,1.781
			c2.955,2.165,6.06,3.036,9.616,3.843c1.884,0.427,2.684-2.465,0.797-2.893c-4.86-1.102-8.191-3.052-12.088-6.114
			c-2.321-1.823-4.088-3.945-6.694-5.437c-6.814-3.902-13.698,2.177-20.534,2.275c-4.606,0.066-9.669-3.64-12.937-6.542
			c-4.337-3.85-5.181-9.616-4.256-15.05c0.866-5.085,4.255-8.721,8.955-10.534c3.175-1.225,9.281-0.833,8.206,4.477
			c-0.187,0.923-2.941,6.204-4.506,4.114c-1.145-1.529-3.751-0.036-2.59,1.514c4.866,6.499,13.293-5.32,9.26-10.454
			c-1.121-1.428-2.605-2.334-4.239-2.809c0.013-0.079,0.024-0.159,0.024-0.245c0-0.083,0-0.167,0-0.25
			c0-0.193-0.037-0.361-0.091-0.516c-0.205-1.96,0.922-4.315,1.412-6.128c0.98-3.625,2.806-7.601,7.179-8.106
			c2.406-0.278,5.644,1.312,7.911,2.056c0.155,0.051,0.307,0.112,0.46,0.17c0.286,0.316,0.7,0.523,1.129,0.523
			c0.011,0,0.022,0,0.032,0c3.177,1.661,5.767,4.924,6.218,8.5c0.238,1.893,3.241,1.916,3,0c-0.639-5.075-3.668-8.634-7.652-10.944
			C38.97,8.619,45.392,4.596,52.131,3.165c6.921-1.469,19.617,3.925,19.617,12.202c0,1.935,3,1.935,3,0c0-0.031,0-0.063,0-0.094
			c0-0.023-0.006-0.042-0.006-0.065c-0.02-1.478-0.318-2.859-0.841-4.137c0.08-0.106,0.154-0.222,0.211-0.357
			c2.629-6.244,11.63-6.534,17.09-5.059c5.114,1.381,10.233,5.084,13.986,8.679c2.139,2.048,3.964,4.034,5.114,6.838
			c1.617,3.942-1.953,8.279-4.334,11.043c-2.999,3.481-7.101,2.286-9.088-1.269c-3.583-6.408,5.447-6.278,5.369-5.423
			c-0.176,1.927,2.825,1.91,3,0c0.295-3.224-2.614-3.718-5.25-3.75c-4.09-0.05-6.679,2.492-6.875,6.445
			c-0.165,3.329,2.864,8.52,6.305,9.252c4.753,1.011,7.974-2.042,10.651-5.622c3.617-4.837,4.606-9.299,1.594-14.666
			c-0.175-0.312-0.363-0.62-0.561-0.924c0.585-0.426,0.728-1.279,0.436-1.921c0.485-5.065,5.515-9.902,10.45-10.314
			c2.314-0.193,4.648,0.934,6.823,1.532c1.965,0.54,3.182,1.566,3.943,2.864c0.048,0.308,0.196,0.596,0.412,0.828
			c0.736,1.772,0.828,3.914,0.822,6.024c0,0,0,0.001,0,0.001c0,0.083,0,0.167,0,0.25c0,1.935,2.988,1.934,3,0
			c0.015-2.472-0.018-4.815-0.739-6.938c3.823-2.504,10.563-1.07,14.031,0.613c4.652,2.258,7.998,7.275,9.651,12.001
			c2.342,6.698,0.301,11.966-5.693,15.692c-3.893,2.42-8.761,0.376-11.047-3.19c-0.977-1.913-1.157-3.871-0.541-5.874
			c0.369-2.802,1.602-2.967,3.695-0.509c-0.378,0.459-0.528,0.828-0.606,1.454c-0.135,1.08,1.396,1.941,2.257,1.295
			c2.573-1.929,4.579-4.623,1.841-7.523c-2.438-2.581-6.219-2.537-8.241,0.633c-5.703,8.936,1.708,20.484,12.432,17.103
			c6.31-1.99,9.236-6.826,9.681-12.204c2.312-1.122,3.884-3.138,6.226-4.076c3.566-1.428,10.521-0.139,8.359,5.123
			c-0.379,0.921,0.561,1.899,1.446,1.899c0.083,0,0.167,0,0.25,0c1.09,0,1.566-0.952,1.427-1.784c0.2-0.719,0.263-1.461,0.211-2.195
			c2.751-0.969,5.712-1.677,8.134,0.547c1.356,1.246,2.128,3.423,2.782,5.08c1.102,2.795,1.971,5.039,1.5,8.203
			c-0.117,0.788-1.732,4.222-1.243,4.805c-1.154-0.113-2.344-0.133-3.577-0.022c-6.984,0.626-12.511,5.655-14.431,12.217
			c-1.756,6.003,1.889,14.382,8.048,16.345c5.072,1.617,16.841,0.141,15.823-7.827c-0.606-4.748-6.312-11.023-9.72-4.626
			c-0.909,1.706,1.681,3.222,2.59,1.514c4.892,2.279,5.291,4.761,1.198,7.448c-1.536,0.984-3.216,1.452-5.039,1.405
			c-3.357,0.178-6.287-1.748-8.214-4.314c-3.715-4.95-2.011-11.567,2.036-15.615c3.141-3.142,6.917-4.154,10.597-3.702
			c0.226,0.168,0.517,0.272,0.876,0.272c0.083,0,0.167,0,0.25,0c0.084,0,0.168-0.019,0.252-0.034
			c5.449,1.211,10.481,5.515,12.656,10.735C210.771,70.545,202.8,80.66,194.147,86.542z"/>
	</g>
</g>
</svg>
