<svg version="1.1" id="Layer_2" xmlns="http://www.w3.org/2000/svg" xmlns:xlink="http://www.w3.org/1999/xlink" x="0px" y="0px"
	 width="112.6px" height="74.5px" viewBox="0 0 112.6 74.5" enable-background="new 0 0 112.6 74.5" xml:space="preserve">
<path fill="#FFFFFF" d="M14.4,62.9c0.3,0.1,0.4,0.3,0.5,0.5c0.9-2,4-2.9,6.8-1.6c0.6,0.3,0.1,1.1-0.4,1c-2.4,3.6-2.2,5.4,0.5,5.5
	c0.9,0.1,1.8,0.2,2.7,0.3c2.1,0.2,4,0,6-0.3c2.6-0.4,5.2-1.1,7.9-1.5c4.5-0.7,9.2-0.6,13.6,0.5c5.9,1.4,11.6,4.3,17.9,4.4
	c6.4,0.1,14.4,0.3,19.7-3.8c-0.6-0.2-1.2-0.4-1.8-0.7c-0.3-0.1-0.1-0.5,0.1-0.5c2.7-0.3,5.4,0.7,8.2,0.5c3.7-0.2,8.1-2.2,8.7-6.4
	c0.6-4.3-2.4-7.9-6.6-8.9c-3.5-0.9-5.5,0-8,2.3c-0.6,0.5-1.7,0-1.4-0.8c2.1-5.6,8.8-4.9,13.4-1.7c7-3.5,13-11.4,4.2-17.3
	c-0.1,0-0.1-0.1-0.1-0.1c-2.3,3.6-6.2,6-10.8,4.3c-5.8-2.2-6.5-11.8-0.2-13.6c4.3-1.2,6.8,5.1,1.3,4.9c-0.3,0-0.4-0.4-0.1-0.5
	c0.5-0.4,1-0.7,1.6-0.9c-0.4-2.8-1.9-3-4.4-0.7c-1.2,2.3-1.2,5.5,1,7.4c3.5,2.9,8.4,0.9,10.2-2.9c4-8.3-4.1-15.4-12.3-13.4
	c-0.5,0.1-0.9-0.1-1.1-0.5c-0.2,0.3-0.5,0.6-0.7,0.9c-0.5,0.5-5.9,3.5-5.9,3.3c0,0.6-0.9,0.6-0.9,0c0-0.1,0-0.2,0-0.3
	c0-0.2,0.1-0.4,0.2-0.4c2.9-1.2,6.2-2.9,7-6.3c1.3-5.3-2.4-8.6-7.2-9.8c-3-0.8-7-2.1-10.1-1c-7,2.5-3.3,8-0.3,11.6
	c0.6,0.8-0.2,2.2-1.2,1.5c-1.6-1.2-3-2.8-3.9-4.5c-0.9,2.8-3,5.1-5.1,7.4c-0.7,0.7-1.6-0.3-1-1c2.3-2.7,6.7-7.5,4.1-11.6
	c-1.8-2.7-5-4.7-8.2-5.4c-2.9-0.5-6.2-0.8-9,0.4c-4.8,2-4.3,5.4-4.7,9.5c2,1.9,3.1,4.4,2.8,7.8c-0.6,8.6-14.8,18.1-21.4,10
	c-2.1-2.6-2.1-8,0.1-10.5c3.2-3.7,6.5-1.5,9.1,1.7c0.4,0.5-0.3,1.2-0.7,0.7c-1.2-1.3-4.3-4.9-6.5-2.1c-1.3,1.7-1.9,4-1.7,6.1
	c0.8,5.9,7,6.3,11.1,3.9c3.2-1.8,6.9-4.9,7.8-8.8c1.2-5.4-2.7-9.1-7.6-10.2c-7.2-1.7-15.3-1.1-20.4,4.9c-2.6,3-5.6,7.4-5.2,11.6
	c0.3,3,1.5,4.7,3.1,6.6c0.3,0.2,0.7,0.4,1,0.6c5.3,4,4.1,14.1-3.7,13.4c-5.1-0.5-4.5-10.9,0.9-7.2c0.2,0.1,0.3,0.3,0.2,0.5
	c0,0.1,0,0.2-0.1,0.2c0,0.2-0.2,0.2-0.3,0.3c5.2,3.5,6,1.8,2.4-5.1c-0.4-0.3-0.8-0.5-1.2-0.8c-0.9-0.2-1.7-0.4-2.6-0.7
	c-2.3,0.3-4.1,1.3-5.5,3c-2.1,2.7-3.9,6.5-3.9,10.1C2.2,56.9,7.5,60.8,14.4,62.9z"/>
<path fill="#3D89D3" d="M14.1,64.6c0.2,0,0.4,0,0.5-0.1c-0.1,0.9,0.2,1.9,0.9,3c3.6,5.6,15.3,2.8,20.4,2c6-1,11.1-1.2,17.2,0.3
	c4.5,1.1,8.7,3.4,13.3,3.9c7.6,0.9,19.6,1.2,25.2-5.1c0.1-0.1,0.1-0.1,0.1-0.2c7.2,1.3,15.7-1.3,14.9-10c-0.2-2.1-1.5-4.1-3.3-5.7
	c3.8-1.5,7.4-4.3,8.7-8.2c1.6-4.7-0.8-8.8-4.7-11.6c-0.1-0.1-0.2-0.1-0.2-0.1c0.7-1.6,1.2-3.4,1.2-5.1c0.1-8-9.1-12.2-15.9-10.8
	c0.4-1.1,0.6-2.3,0.7-3.4c0.6-5.7-5.8-8.4-10.1-9.6c-4.2-1.2-11.2-2.6-14.1,2c-0.3,0.4-0.5,0.8-0.6,1.2c-1.5-3.2-5.3-5.1-8.5-6.1
	c-0.3-0.1-0.6-0.2-0.8-0.2c-2.4-0.7-5.5-0.5-8.5,0.2c-5.4,1.4-10,5.1-7.7,10.5c-6.1-3.9-16.8-3.4-22.3-0.4
	c-7.6,4-13.3,15.4-8.7,22.7C7,33.9,3.2,39.5,1.4,44.2c-0.4,1.1-0.7,2.2-0.9,3.2c-0.6,2.9-0.2,5.7,0.9,8.1
	C3.6,60.5,8.5,64.2,14.1,64.6z M6.3,39.1c1.3-1.7,3.2-2.7,5.5-3c0.9,0.2,1.7,0.4,2.6,0.7c0.4,0.3,0.8,0.5,1.2,0.8
	c3.6,6.9,2.8,8.6-2.4,5.1c0.1,0,0.3-0.1,0.3-0.3c0-0.1,0-0.2,0.1-0.2c0.1-0.2,0-0.4-0.2-0.5c-5.4-3.7-6,6.7-0.9,7.2
	c7.8,0.7,9.1-9.4,3.7-13.4c-0.3-0.2-0.7-0.5-1-0.6c-1.7-1.9-2.8-3.6-3.1-6.6c-0.4-4.2,2.6-8.6,5.2-11.6c5.1-6,13.2-6.6,20.4-4.9
	c4.9,1.1,8.8,4.9,7.6,10.2c-0.9,3.8-4.6,6.9-7.8,8.8c-4.2,2.4-10.4,2-11.1-3.9c-0.3-2.2,0.3-4.4,1.7-6.1c2.2-2.8,5.2,0.8,6.5,2.1
	c0.5,0.5,1.1-0.2,0.7-0.7c-2.7-3.2-5.9-5.4-9.1-1.7c-2.2,2.5-2.2,8-0.1,10.5c6.6,8.1,20.7-1.3,21.4-10c0.2-3.4-0.9-5.9-2.8-7.8
	c0.4-4-0.1-7.5,4.7-9.5c2.8-1.2,6.1-0.9,9-0.4c3.2,0.6,6.4,2.6,8.2,5.4c2.6,4-1.8,8.8-4.1,11.6c-0.6,0.7,0.4,1.7,1,1
	c2.2-2.3,4.2-4.6,5.1-7.4c0.8,1.7,2.2,3.2,3.9,4.5c0.9,0.7,1.8-0.7,1.2-1.5c-3-3.6-6.7-9.1,0.3-11.6c3.1-1.1,7.1,0.2,10.1,1
	c4.9,1.2,8.5,4.5,7.2,9.8c-0.8,3.4-4.1,5.1-7,6.3c-0.1,0.1-0.2,0.3-0.2,0.4c0,0.1,0,0.2,0,0.3c0,0.6,0.9,0.6,0.9,0
	c0,0.2,5.4-2.8,5.9-3.3c0.3-0.3,0.5-0.6,0.7-0.9c0.2,0.4,0.6,0.6,1.1,0.5c8.2-2,16.3,5.1,12.3,13.4c-1.8,3.8-6.7,5.9-10.2,2.9
	c-2.2-1.9-2.3-5-1-7.4c2.5-2.4,3.9-2.1,4.4,0.7c-0.6,0.2-1.1,0.5-1.6,0.9c-0.2,0.1-0.1,0.5,0.1,0.5c5.5,0.2,3-6.2-1.3-4.9
	c-6.3,1.8-5.6,11.4,0.2,13.6c4.5,1.7,8.5-0.7,10.8-4.3c0,0,0.1,0.1,0.1,0.1c8.7,5.9,2.8,13.8-4.2,17.3c-4.6-3.2-11.3-3.9-13.4,1.7
	c-0.3,0.8,0.8,1.4,1.4,0.8c2.5-2.4,4.6-3.2,8-2.3c4.1,1,7.2,4.6,6.6,8.9c-0.6,4.2-5,6.1-8.7,6.4c-2.8,0.2-5.5-0.8-8.2-0.5
	c-0.2,0-0.4,0.4-0.1,0.5c0.6,0.3,1.2,0.5,1.8,0.7c-5.2,4.1-13.3,3.9-19.7,3.8c-6.2-0.1-11.9-3-17.9-4.4c-4.5-1.1-9.1-1.2-13.6-0.5
	c-2.6,0.4-5.2,1.1-7.9,1.5c-2.1,0.3-4,0.5-6,0.3c-0.9-0.1-1.8-0.2-2.7-0.3c-2.8-0.1-2.9-1.9-0.5-5.5c0.6,0.1,1-0.7,0.4-1
	c-2.8-1.3-5.8-0.4-6.8,1.6c-0.1-0.2-0.3-0.4-0.5-0.5c-6.8-2-12.2-6-12-13.7C2.4,45.6,4.1,41.8,6.3,39.1z"/>
</svg>
