<svg version="1.1" xmlns="http://www.w3.org/2000/svg" xmlns:xlink="http://www.w3.org/1999/xlink" x="0px" y="0px"
	 width="166.617px" height="97.723px" viewBox="0 0 166.617 97.723" enable-background="new 0 0 166.617 97.723"
	 xml:space="preserve">
<g id="MongoDB">
	<path fill="#412F1F" d="M119.686,56.89c-0.558-0.406-4.249-0.576-3.725-0.174c0.628,0.481,1.539,0.922,2.789,1.371
		c-0.46,0.044-0.63,0.148-0.164,0.313c2.436,0.865-0.635,1.839-1.066,2.537c-0.726,1.175-2.788,2.08-4.876,3.184
		c-3.027,1.6-3.395,4.036-0.273,6.553c-0.48-0.044-1.616-0.194-2.097-0.244c-1.557-0.159-2.202-0.184-3.572-0.241
		c-9.209-3.547-13.371-7.037-20.209-9.882c-2.285-0.951-9.493-3.367-15.837-3.37c-7.388-0.004-4.024,2.054-1.772,3.221
		c2.629,1.362,6.288,2.751,8.859,4.263c2.784,1.637,6.487,3.786,9.766,5.644c-0.765-0.036-5.955-0.023-6.159,0.002
		c-3.136-1.606-6.571-3.496-9.587-4.937c-3.495-1.669-5.261-3.255-8.08-4.753c-1.963-1.043-10.332-4.178-17.526-3.624
		c-6.953,0.536-3.476,2.674-0.42,4.146c6.206,2.987,9.945,6.207,14.478,9.92c-3.143,0.08-6.017,0.293-8.927,0.498
		c-2.066-0.992-4.69-1.954-6.654-2.867c-2.907-1.352-6.884-2.32-11.43-3.315C22.683,62.829,8.371,60.929,5.79,58.135
		c-0.146-0.158-0.673-0.259-1.271-0.304c-0.091-0.323-0.242-0.65-0.481-0.992c-0.295-0.423-3.611-0.422-3.342,0.001
		c1.009,1.589-0.34,3.058-0.674,4.799c-0.303,1.58,2.555,3.008,5.802,4.658c3.292,1.673,8.482,3.179,13.678,4.832
		c5.043,1.604,10.014,3.298,17.122,4.577c-0.746,0.751-0.29,1.854-0.068,2.398c1.089,2.664,8.005,5.873,13.026,8.875
		c4.79,2.863,8.789,4.902,18.893,6.895c4.93,0.972,10.095,1.615,15.289,2.119c2.399,0.233,18.964,0.32,20.668,0.246
		c1.002-0.044,1.847-0.132,2.624-0.268c1.485,0.238,2.982,0.441,4.482,0.607c14.968,1.891,29.389,1.627,30.393-2.177
		c0.018-0.069-0.001-0.139,0.009-0.208c1.998,0.168,17.888-0.868,19.859-1.281c4.129-0.865,5.238-2.16,4.685-3.883
		c-1.394-4.34-17.622-9.533-25.539-13.329c-0.902-0.433,6.444-5.827,3.054-9.08c-1.73-1.659-5.819-3.379-9.512-4.962
		C130.383,59.897,121.863,58.476,119.686,56.89z"/>
</g>
<g id="Express">
	<path d="M119.686,38.258c-0.558-0.406-4.249-0.576-3.725-0.174c0.628,0.481,1.539,0.922,2.789,1.371
		c-0.46,0.044-0.63,0.148-0.164,0.313c2.436,0.865-0.635,1.839-1.066,2.537c-0.726,1.175-2.788,2.08-4.876,3.184
		c-3.027,1.6-3.395,4.036-0.273,6.553c-0.48-0.044-1.616-0.194-2.097-0.244c-1.557-0.159-2.202-0.184-3.572-0.241
		c-9.209-3.547-13.371-7.037-20.209-9.882c-2.285-0.951-9.493-3.367-15.837-3.37c-7.388-0.004-4.024,2.054-1.772,3.221
		c2.629,1.362,6.288,2.751,8.859,4.263c2.784,1.637,6.487,3.786,9.766,5.644c-0.765-0.036-5.955-0.023-6.159,0.002
		c-3.136-1.606-6.571-3.496-9.587-4.937c-3.495-1.669-5.261-3.255-8.08-4.753C61.72,40.7,53.351,37.565,46.157,38.12
		c-6.953,0.536-3.476,2.674-0.42,4.146c6.206,2.987,9.945,6.207,14.478,9.92c-3.143,0.08-6.017,0.293-8.927,0.498
		c-2.066-0.992-4.69-1.954-6.654-2.867c-2.907-1.352-6.884-2.32-11.43-3.315C22.683,44.197,8.371,42.298,5.79,39.503
		c-0.146-0.158-0.673-0.259-1.271-0.304c-0.091-0.323-0.242-0.65-0.481-0.992c-0.295-0.423-3.611-0.422-3.342,0.001
		c1.009,1.589-0.34,3.058-0.674,4.799c-0.303,1.58,2.555,3.008,5.802,4.658c3.292,1.673,8.482,3.179,13.678,4.832
		c5.043,1.604,10.014,3.298,17.122,4.577c-0.746,0.751-0.29,1.854-0.068,2.398c1.089,2.664,8.005,5.873,13.026,8.875
		c4.79,2.863,8.789,4.902,18.893,6.895c4.93,0.972,10.095,1.615,15.289,2.119c2.399,0.233,18.964,0.32,20.668,0.246
		c1.002-0.044,1.847-0.132,2.624-0.268c1.485,0.238,2.982,0.441,4.482,0.607c14.968,1.891,29.389,1.627,30.393-2.177
		c0.018-0.069-0.001-0.139,0.009-0.208c1.998,0.168,17.888-0.868,19.859-1.281c4.129-0.865,5.238-2.16,4.685-3.883
		c-1.394-4.34-17.622-9.533-25.539-13.329c-0.902-0.433,6.444-5.827,3.054-9.08c-1.73-1.659-5.819-3.379-9.512-4.962
		C130.383,41.265,121.863,39.844,119.686,38.258z"/>
</g>
<g id="Angular2">
	<path fill="#FF0000" d="M119.686,19.522c-0.558-0.406-4.249-0.576-3.725-0.174c0.628,0.481,1.539,0.922,2.789,1.371
		c-0.46,0.044-0.63,0.148-0.164,0.313c2.436,0.865-0.635,1.839-1.066,2.537c-0.726,1.175-2.788,2.08-4.876,3.184
		c-3.027,1.6-3.395,4.036-0.273,6.553c-0.48-0.044-1.616-0.194-2.097-0.244c-1.557-0.159-2.202-0.184-3.572-0.241
		c-9.209-3.547-13.371-7.037-20.209-9.882c-2.285-0.951-9.493-3.367-15.837-3.37c-7.388-0.004-4.024,2.054-1.772,3.221
		c2.629,1.362,6.288,2.751,8.859,4.263c2.784,1.637,6.487,3.786,9.766,5.644c-0.765-0.036-5.955-0.023-6.159,0.002
		c-3.136-1.606-6.571-3.496-9.587-4.937c-3.495-1.669-5.261-3.255-8.08-4.753c-1.963-1.043-10.332-4.178-17.526-3.624
		c-6.953,0.536-3.476,2.674-0.42,4.146c6.206,2.987,9.945,6.207,14.478,9.92c-3.143,0.08-6.017,0.293-8.927,0.498
		c-2.066-0.992-4.69-1.954-6.654-2.867c-2.907-1.352-6.884-2.32-11.43-3.315C22.683,25.461,8.371,23.561,5.79,20.766
		c-0.146-0.158-0.673-0.259-1.271-0.304c-0.091-0.323-0.242-0.65-0.481-0.992c-0.295-0.423-3.611-0.422-3.342,0.001
		c1.009,1.589-0.34,3.058-0.674,4.799c-0.303,1.58,2.555,3.008,5.802,4.658c3.292,1.673,8.482,3.179,13.678,4.832
		c5.043,1.604,10.014,3.298,17.122,4.577c-0.746,0.751-0.29,1.854-0.068,2.398c1.089,2.664,8.005,5.873,13.026,8.875
		c4.79,2.863,8.789,4.902,18.893,6.895c4.93,0.972,10.095,1.615,15.289,2.119c2.399,0.233,18.964,0.32,20.668,0.246
		c1.002-0.044,1.847-0.132,2.624-0.268c1.485,0.238,2.982,0.441,4.482,0.607c14.968,1.891,29.389,1.627,30.393-2.177
		c0.018-0.069-0.001-0.139,0.009-0.208c1.998,0.168,17.888-0.868,19.859-1.281c4.129-0.865,5.238-2.16,4.685-3.883
		c-1.394-4.34-17.622-9.533-25.539-13.329c-0.902-0.433,6.444-5.827,3.054-9.08c-1.73-1.659-5.819-3.379-9.512-4.962
		C130.383,22.529,121.863,21.108,119.686,19.522z"/>
</g>
<g id="NodeJS">
	<path fill="#43853D" d="M119.686,0.403c-0.558-0.406-4.249-0.576-3.725-0.174c0.628,0.481,1.539,0.922,2.789,1.371
		c-0.46,0.044-0.63,0.148-0.164,0.313c2.436,0.865-0.635,1.839-1.066,2.537c-0.726,1.175-2.788,2.08-4.876,3.184
		c-3.027,1.6-3.395,4.036-0.273,6.553c-0.48-0.044-1.616-0.194-2.097-0.244c-1.557-0.159-2.202-0.184-3.572-0.241
		c-9.209-3.547-13.371-7.037-20.209-9.882C84.208,2.869,77,0.453,70.656,0.45c-7.388-0.004-4.024,2.054-1.772,3.221
		c2.629,1.362,6.288,2.751,8.859,4.263c2.784,1.637,6.487,3.786,9.766,5.644c-0.765-0.036-5.955-0.023-6.159,0.002
		c-3.136-1.606-6.571-3.496-9.587-4.937c-3.495-1.669-5.261-3.255-8.08-4.753C61.72,2.846,53.351-0.29,46.157,0.265
		c-6.953,0.536-3.476,2.674-0.42,4.146c6.206,2.987,9.945,6.207,14.478,9.92c-3.143,0.08-6.017,0.293-8.927,0.498
		c-2.066-0.992-4.69-1.954-6.654-2.867c-2.907-1.352-6.884-2.32-11.43-3.315C22.683,6.343,8.371,4.443,5.79,1.648
		C5.644,1.49,5.117,1.39,4.52,1.344c-0.091-0.323-0.242-0.65-0.481-0.992C3.743-0.07,0.428-0.069,0.696,0.353
		c1.009,1.589-0.34,3.058-0.674,4.799C-0.281,6.732,2.577,8.16,5.824,9.81c3.292,1.673,8.482,3.179,13.678,4.832
		c5.043,1.604,10.014,3.298,17.122,4.577c-0.746,0.751-0.29,1.854-0.068,2.398c1.089,2.664,8.005,5.873,13.026,8.875
		c4.79,2.863,8.789,4.902,18.893,6.895c4.93,0.972,10.095,1.615,15.289,2.119c2.399,0.233,18.964,0.32,20.668,0.246
		c1.002-0.044,1.847-0.132,2.624-0.268c1.485,0.238,2.982,0.441,4.482,0.607c14.968,1.891,29.389,1.627,30.393-2.177
		c0.018-0.069-0.001-0.139,0.009-0.208c1.998,0.168,17.888-0.868,19.859-1.281c4.129-0.865,5.238-2.16,4.685-3.883
		c-1.394-4.34-17.622-9.533-25.539-13.329c-0.902-0.433,6.444-5.827,3.054-9.08c-1.73-1.659-5.819-3.379-9.512-4.962
		C130.383,3.411,121.863,1.989,119.686,0.403z"/>
</g>
</svg>
