<svg version="1.1" id="Layer_2" xmlns="http://www.w3.org/2000/svg" xmlns:xlink="http://www.w3.org/1999/xlink" x="0px" y="0px"
	 width="202.667px" height="95.167px" viewBox="0 0 202.667 95.167" enable-background="new 0 0 202.667 95.167"
	 xml:space="preserve">
<path fill="#FFFFFF" d="M190.936,67.836c-1.009-0.255-0.694-1.611,0.231-1.703c6.026-0.601,8.446-3.981,7.818-9.466
	c-0.095-0.828-2.632-13.573-5.904-9.872c-2.497,2.825-4.89,9.008-8.512,10.63c-5.15,2.306-10.977-2.398-12.185-7.685
	c-2.721,1.752-5.91,2.698-8.607,1.305c-3.885-2.006-8.362-8.301-5.734-12.85c1.709-2.958,6.881-5.416,9.986-2.801
	c2.419,2.036,0.801,4.694-2.029,4.889c-0.68,0.047-1.236-0.858-0.82-1.428c0.207-0.284,1.406-1.453-0.202-1.397
	c-3.862,0.133-5.286,4.664-3.091,7.531c4.031,5.265,10.645,1.771,13.314-3.014c2.022-3.625,2.987-8.318,2.487-12.474
	c-0.592-4.913-5.744-9.992-11.089-7.929c-4.128,1.593-9.287,4.116-13.3,0.77c-2.333-1.945-4.129-5.791-6.84-7.131
	c-3.916-1.935-8.564-1.295-11.319,2.156c-1.037,3.232-3.184,5.989-6.706,6.828c-3.263,0.777-10.786-2.149-6.595-6.02
	c0.939-0.868,2.309-0.228,2.401,0.994c0.203,2.704,5.153-0.088,5.7-1.141c0.561-1.081,0.976-2.171,1.195-3.371
	c0.54-2.96-0.032-6.008-2.373-8.112c-5.666-5.093-12.514,0.212-15.265,5.776c-0.167,0.339-0.43,0.47-0.7,0.48
	c-1.212,5.344-11.136,9.172-14.026,3.545c-1.386-2.7-1.405-6.335,1.576-8.081c2.681-1.57,5.466-0.241,5.11,2.905
	c-0.154,1.358-2.159,1.859-2.532,0.343c1.107,4.501,2.517,5.028,5.206,2.188c2.65-2.798,0.541-5.112-1.35-6.726
	c-2.995-2.556-6.814-2.646-10.203-0.792c-2.238,1.224-4.412,2.851-5.584,5.199c-0.894,1.792-2.516,6.998-0.018,8.506
	c3.902,0.093,7.422,2.411,8.18,7.084c0.754,4.649-2.406,12.568-8.41,11.064c-7-1.754-3.149-10.243,2.915-9.047
	c1.303,0.257,1.024,1.972,0,2.362c-0.123,0.047-0.245,0.093-0.368,0.14c-1.509,3.379-1.163,4.22,1.043,2.514
	c0.697-0.686,1.209-1.49,1.536-2.413c0.338-1.09,0.655-2.184,0.62-3.345c-0.105-3.507-3.502-7.084-7.302-5.788
	c-3.418,1.165-6.602,3.893-8.172,7.191c-1.231,2.586-2.801,6.673-2.223,9.589c0.048,0.243-0.006,0.472-0.114,0.669
	c1.097,2.311,1.437,5.261-0.076,7.404c-1.361,1.928-4.067,3.881-6.37,2.314c-0.286-0.194-0.35-0.568-0.107-0.828
	c1.511-1.614,4.137-1.417,4.696-4.056c0.462-2.181-0.237-5.055-2.39-6.182c-2.024-1.059-4.583-1.426-6.779-0.613
	c-0.594,0.22-1.095,0.518-1.549,0.858c-0.282,0.299-0.576,0.594-0.894,0.878c-0.24,0.214-0.495,0.436-0.755,0.658
	c-0.548,0.576-1.1,1.166-1.765,1.686c-0.171,0.134-0.37,0.15-0.534,0.091c-2.201,1.504-4.749,2.608-7.257,1.919
	c-6.698-1.842-6.192-15.228-0.114-17.582c7.538-2.92,8.607,7.544,2.227,8.249c-0.467,0.052-0.885-0.293-1.128-0.647
	c-0.172-0.251-0.344-0.501-0.517-0.752c-0.497-0.724,0.317-1.508,1.046-1.36c-0.847-3.15-1.771-3.074-2.774,0.23
	c-0.13,0.703-0.261,1.405-0.391,2.108c-0.001,1.668,0.032,3.695,0.979,5.157c2.919,4.506,10.11-2.187,11.539-4.941
	c4.417-8.512-2.012-22.859-12.623-18.908c1.046,3.692-0.474,6.955-4.368,8.074c-0.99,0.285-1.743-1.004-1.003-1.724
	c2.99-2.909,4.523-5.817,0.671-9.384c-2.888-2.674-6.478-3.393-10.287-2.299c-3.934,1.13-13.772,5.336-11.924,11.101
	c2.307,0.992,4.472,2.793,4.577,5.435c0.012,0.302-0.181,0.68-0.465,0.81c-0.206,0.095-0.413,0.189-0.619,0.284
	c-0.239,0.109-0.599,0.041-0.654-0.266C26.575,13.867,3.65,32.215,13.828,38.916c2.133-0.498,4.329-0.293,6.36,1.256
	c3.93,2.995,5.979,6.597,4.346,11.584c-1.092,3.334-3.018,7.793-7.034,8.301c-8.294,1.049-10.219-12.07-2.667-11.627
	c0.504,0.03,0.866,0.31,1.032,0.785c0.507,1.456,0.075,2.049-0.854,3.347c-0.593,0.828-1.774,0.13-1.356-0.793
	c-2.376,1.539-1.787,3.479,1.767,5.818c2.68,0.048,4.571-1.011,5.672-3.176c1.293-2.431,3.023-6.359,1.266-9.068
	c-4.332-6.678-13.105-4.242-16.594,2.097C0.936,56.219,7.02,75.408,19.295,71.71c4.521-4.369,13.386-6.931,16.522-0.118
	c2.155,4.681-4.717,14.166-8.652,7.966c-0.349-0.549,0.231-1.37,0.873-1.136c1.95,0.709,3.998,0.81,5.006-1.479
	c3.223-7.326-4.525-8.183-8.317-5.949c-3.684,2.171-6.752,5.717-6.174,10.303c0.669,5.302,4.253,9.745,9.863,10.045
	c3.646,0.195,10.422-0.247,11.648-4.719c0.242-0.883,1.539-0.68,1.565,0.212c0.05,1.696-0.534,3.082-1.53,4.191
	c0.554,0.181,1.108,0.375,1.673,0.478c2.981,0.547,6.166,0.655,9.193,0.522c5.709-0.251,11.028-1.646,16.153-4.022
	c0.181-0.176,0.427-0.264,0.711-0.183c0.21,0.005,0.407,0.055,0.569,0.162c5.422,1.655,14.765,4.728,17.835-1.901
	c1.216-2.627,1.449-5.79-1.447-7.362c-1.593-1.281-3.31-1.309-5.151-0.084c-1.73,3.703,1.836,7.665,5.084,4.085
	c0.632-0.697,1.934-0.169,1.88,0.779c-0.282,4.969-8.103,4.664-9.848,0.652c-1.967-4.522,0.968-11.559,6.878-9.09
	c5.061,2.114,7.768,6.252,5.88,10.887c2.275,3.184,4.993,5.324,9.17,5.14c4.02-0.177,9.651-1.338,10.542-6.108
	c0.054-0.289,0.175-0.502,0.332-0.656c-0.468-0.728-0.698-1.478-0.592-2.232c0.107-0.76,1.339-0.891,1.649-0.216
	c1.358,2.96,7.519,4.733,10.132,5.742c5.189,2.005,12.64,0.096,13.494-6.454c0.078-0.6,0.799-1.083,1.3-0.539
	c2.347,2.549,1.164,5.114-1.275,7.131c0.971,2.147,4.381,2.909,6.4,3.364c3.851,0.867,6.799-0.423,9.593-3.033
	c0.105-0.098,0.213-0.169,0.322-0.228c-3.052-3.591-4.587-8.676-3.47-13.154c2.178-8.726,14.431-6.13,17.009,0.677
	c2.155,5.69-8.749,11.888-9.599,4.782c-0.121-1.012,1.328-1.499,1.961-0.812c1.048,1.506,2.481,1.137,4.297-1.108
	c0.087-3.134-1.151-5.068-3.714-5.801c-3.365-0.891-7.794,0.91-7.407,5.326c0.362,4.137,3.473,10.947,8.149,11.706
	c4.269,0.693,9.181-1.427,10.938-5.579c0.522-1.232,0.707-2.726,0.982-4.13c-0.802-2.013-1.124-4.301-0.798-6.807
	c0.503-3.86,2.085-8.202,6.621-8.625c4.477-0.418,8.783,1.691,10.623,5.891c3.334,7.61-9.513,12.111-9.268,4.272
	c0.039-1.229,1.721-1.766,2.358-0.639c4.483-1.675,4.879-3.491,1.189-5.449c-2.687-1.604-5.137-1.245-7.351,1.079
	c-1.049,2.345-1.258,5.408-0.472,7.877c1.295,4.07,4.077,7.262,8.482,8.033c5.573,0.975,10.072-1.202,13.05-5.977
	c2.233-3.581,3.789-7.483,1.666-11.266C194.471,68.397,192.861,68.324,190.936,67.836z"/>
<path fill="#3D89D3" d="M199.379,46.9c-1.762-4.011-5.218-5.132-8.45-2.258c-2.263,2.012-3.824,5.103-5.497,7.586
	c-4.297,6.376-8.934,0.359-10.832-4.116c0.004-0.021,0.002-0.043,0.005-0.065c1.123-0.992,2.083-2.064,2.766-3.057
	c3.365-4.891,5.679-13.934,2.784-19.527c-2.9-5.603-8.202-8.461-14.421-7.035c-0.904,0.207-3.196,1.34-3.835,1.603
	c-3.799,1.566-7.184-0.122-9.51-2.921c-2.209-2.657-4.256-4.58-7.656-5.428c-3.013-0.751-6.465-0.017-8.881,1.884
	c0.057-0.831,0.06-1.658-0.002-2.46c-1.028-13.289-19.438-12.147-23.496-1.741c-3.107-8.116-12.579-8.923-19.2-4.262
	c-2.695,1.897-5.515,5.634-5.679,9.063c-0.083,1.742,0.048,4.406,1.173,5.922c-1.25,0.248-2.491,0.703-3.65,1.39
	c-4.417,2.618-8.965,9.664-8.689,15.461c-2.016-1.466-4.743-1.825-7.195-1.549c-0.256,0.029-0.485,0.092-0.725,0.141
	c1.403-2.82,1.787-6.032,1.532-9.401c-0.596-7.879-9.628-16.686-17.315-12.013c-2.047-4.571-6.623-6.73-11.512-6.669
	c-5.137,0.064-10.555,3.059-14.014,6.681c-1.454,1.523-3.252,4.601-2.412,6.694c-3.606-0.842-7.876,1.909-10.3,4.21
	c-2.525,2.397-5.276,6.638-4.473,10.301c0.338,1.542,1.077,3.123,2.197,4.138c-1.737,0.704-3.387,1.779-4.814,2.878
	c-4.806,3.701-5.831,8.788-5.249,14.555c0.599,5.925,2.055,10.768,6.641,14.757c2.603,2.264,5.781,3.288,8.742,2.422
	c-4.281,6.983-1.02,16.273,6.458,19.492c3.537,1.522,10.308,1.421,14.392-1.059c3.795,2.392,10.41,2.313,14.406,2.2
	c5.111-0.144,11.875-0.975,15.583-4.8c6.127,2.901,14.785,4.811,19.553-1.114c0.232-0.288,0.432-0.575,0.627-0.861
	c2.828,3.942,6.309,5.869,11.57,5.694c4.627-0.154,10.314-2.432,11.603-7.197c3.571,2.774,9.725,4.898,12.011,5.189
	c2.111,0.269,5.924-0.825,8.911-2.643c0.718,2.265,4.597,3.654,6.483,4.193c4.925,1.406,9.699,0.97,13.068-3.267
	c0.089-0.112,0.151-0.227,0.202-0.343c2.36,2.01,5.307,3.198,8.513,2.934c3.31-0.273,7.214-2.306,8.921-5.248
	c0.686-1.182,1.41-2.686,1.877-4.255c3.812,4.862,10.902,7.094,17.264,5.217c6.48-1.912,15.029-14.992,9.241-20.882
	C203.57,64.046,202.093,53.077,199.379,46.9z M194.157,79.425c-2.978,4.774-7.477,6.951-13.05,5.977
	c-4.405-0.77-7.188-3.962-8.482-8.033c-0.785-2.47-0.577-5.533,0.472-7.877c2.214-2.324,4.664-2.683,7.351-1.079
	c3.691,1.958,3.294,3.774-1.189,5.449c-0.637-1.128-2.32-0.59-2.358,0.639c-0.246,7.838,12.601,3.338,9.268-4.272
	c-1.84-4.201-6.146-6.309-10.623-5.891c-4.536,0.423-6.118,4.765-6.621,8.625c-0.326,2.506-0.004,4.793,0.798,6.807
	c-0.275,1.404-0.46,2.897-0.982,4.13c-1.757,4.152-6.669,6.272-10.938,5.579c-4.675-0.759-7.786-7.569-8.149-11.706
	c-0.386-4.415,4.042-6.217,7.407-5.326c2.563,0.733,3.801,2.667,3.714,5.801c-1.816,2.245-3.249,2.615-4.297,1.108
	c-0.633-0.687-2.082-0.2-1.961,0.812c0.851,7.106,11.754,0.908,9.599-4.782c-2.578-6.807-14.831-9.403-17.009-0.677
	c-1.118,4.478,0.417,9.562,3.47,13.154c-0.109,0.059-0.217,0.13-0.322,0.228c-2.794,2.61-5.742,3.9-9.593,3.033
	c-2.019-0.455-5.429-1.217-6.4-3.364c2.439-2.016,3.621-4.582,1.275-7.131c-0.501-0.545-1.222-0.062-1.3,0.539
	c-0.854,6.549-8.305,8.459-13.494,6.454c-2.613-1.01-8.773-2.782-10.132-5.742c-0.31-0.675-1.542-0.544-1.649,0.216
	c-0.106,0.754,0.124,1.503,0.592,2.232c-0.157,0.155-0.278,0.368-0.332,0.656c-0.891,4.77-6.521,5.931-10.542,6.108
	c-4.177,0.184-6.895-1.956-9.17-5.14c1.888-4.635-0.819-8.773-5.88-10.887c-5.91-2.469-8.844,4.569-6.878,9.09
	c1.745,4.012,9.566,4.317,9.848-0.652c0.054-0.948-1.248-1.476-1.88-0.779c-3.248,3.58-6.814-0.382-5.084-4.085
	c1.841-1.225,3.558-1.197,5.151,0.084c2.895,1.572,2.663,4.734,1.447,7.362c-3.07,6.629-12.413,3.556-17.835,1.901
	c-0.162-0.107-0.359-0.158-0.569-0.162c-0.283-0.08-0.529,0.008-0.711,0.183c-5.125,2.376-10.444,3.771-16.153,4.022
	c-3.028,0.133-6.213,0.025-9.193-0.522c-0.565-0.104-1.118-0.297-1.673-0.478c0.996-1.108,1.58-2.495,1.53-4.191
	c-0.027-0.892-1.323-1.094-1.565-0.212c-1.226,4.472-8.001,4.914-11.648,4.719c-5.61-0.3-9.194-4.743-9.863-10.045
	c-0.579-4.586,2.49-8.132,6.174-10.303c3.791-2.234,11.539-1.378,8.317,5.949c-1.007,2.29-3.055,2.188-5.006,1.479
	c-0.643-0.234-1.222,0.587-0.873,1.136c3.935,6.201,10.807-3.284,8.652-7.966c-3.136-6.813-12.001-4.25-16.522,0.118
	C7.02,75.408,0.936,56.219,5.766,47.442c3.489-6.34,12.262-8.775,16.594-2.097c1.757,2.709,0.027,6.637-1.266,9.068
	c-1.102,2.165-2.993,3.223-5.672,3.176c-3.554-2.34-4.143-4.279-1.767-5.818c-0.418,0.923,0.763,1.621,1.356,0.793
	c0.929-1.298,1.361-1.891,0.854-3.347c-0.165-0.475-0.527-0.756-1.032-0.785C7.281,47.986,9.206,61.106,17.5,60.057
	c4.016-0.508,5.942-4.967,7.034-8.301c1.634-4.987-0.416-8.589-4.346-11.584c-2.032-1.548-4.228-1.754-6.36-1.256
	C3.65,32.215,26.575,13.867,29.071,27.618c0.056,0.307,0.416,0.376,0.654,0.266c0.206-0.095,0.413-0.189,0.619-0.284
	c0.283-0.13,0.477-0.508,0.465-0.81c-0.105-2.642-2.27-4.443-4.577-5.435c-1.848-5.765,7.99-9.971,11.924-11.101
	c3.809-1.094,7.399-0.375,10.287,2.299c3.852,3.567,2.319,6.475-0.671,9.384c-0.74,0.72,0.013,2.008,1.003,1.724
	c3.894-1.119,5.414-4.382,4.368-8.074c10.611-3.952,17.041,10.396,12.623,18.908c-1.429,2.754-8.62,9.447-11.539,4.941
	c-0.947-1.462-0.98-3.489-0.979-5.157c0.13-0.703,0.261-1.405,0.391-2.108c1.002-3.304,1.927-3.381,2.774-0.23
	c-0.729-0.148-1.543,0.636-1.046,1.36c0.172,0.251,0.344,0.501,0.517,0.752c0.243,0.354,0.661,0.699,1.128,0.647
	c6.38-0.705,5.312-11.169-2.227-8.249c-6.078,2.354-6.584,15.74,0.114,17.582c2.507,0.69,5.056-0.415,7.257-1.919
	c0.164,0.059,0.362,0.043,0.534-0.091c0.664-0.521,1.216-1.11,1.765-1.686c0.26-0.223,0.515-0.444,0.755-0.658
	c0.318-0.284,0.612-0.579,0.894-0.878c0.454-0.34,0.955-0.638,1.549-0.858c2.196-0.813,4.755-0.446,6.779,0.613
	c2.153,1.127,2.852,4,2.39,6.182c-0.559,2.639-3.185,2.442-4.696,4.056c-0.244,0.26-0.179,0.634,0.107,0.828
	c2.303,1.567,5.009-0.386,6.37-2.314c1.513-2.143,1.173-5.093,0.076-7.404c0.108-0.198,0.162-0.426,0.114-0.669
	c-0.578-2.916,0.992-7.003,2.223-9.589c1.57-3.297,4.754-6.025,8.172-7.191c3.8-1.295,7.197,2.281,7.302,5.788
	c0.035,1.161-0.282,2.255-0.62,3.345c-0.327,0.923-0.839,1.728-1.536,2.413c-2.206,1.706-2.552,0.865-1.043-2.514
	c0.123-0.047,0.245-0.094,0.368-0.14c1.024-0.391,1.303-2.105,0-2.362c-6.064-1.196-9.915,7.293-2.915,9.047
	c6.004,1.505,9.164-6.414,8.41-11.064c-0.758-4.673-4.278-6.991-8.18-7.084c-2.497-1.508-0.876-6.714,0.018-8.506
	c1.172-2.348,3.347-3.975,5.584-5.199c3.389-1.854,7.208-1.765,10.203,0.792c1.891,1.614,4,3.928,1.35,6.726
	c-2.689,2.839-4.099,2.313-5.206-2.188c0.373,1.516,2.379,1.015,2.532-0.343c0.356-3.145-2.429-4.475-5.11-2.905
	c-2.981,1.746-2.962,5.382-1.576,8.081c2.889,5.627,12.813,1.799,14.026-3.545c0.271-0.01,0.533-0.141,0.7-0.48
	c2.751-5.564,9.6-10.869,15.265-5.776c2.341,2.104,2.913,5.152,2.373,8.112c-0.219,1.2-0.634,2.29-1.195,3.371
	c-0.546,1.053-5.497,3.845-5.7,1.141c-0.092-1.222-1.461-1.862-2.401-0.994c-4.19,3.871,3.332,6.798,6.595,6.02
	c3.522-0.839,5.669-3.596,6.706-6.828c2.755-3.451,7.403-4.091,11.319-2.156c2.711,1.34,4.507,5.186,6.84,7.131
	c4.013,3.346,9.171,0.823,13.3-0.77c5.345-2.063,10.498,3.016,11.089,7.929c0.5,4.156-0.464,8.849-2.487,12.474
	c-2.669,4.785-9.284,8.278-13.314,3.014c-2.195-2.867-0.771-7.398,3.091-7.531c1.608-0.055,0.408,1.114,0.202,1.397
	c-0.416,0.571,0.139,1.475,0.82,1.428c2.83-0.195,4.448-2.853,2.029-4.889c-3.106-2.614-8.277-0.157-9.986,2.801
	c-2.628,4.549,1.849,10.844,5.734,12.85c2.697,1.393,5.886,0.447,8.607-1.305c1.208,5.288,7.035,9.991,12.185,7.685
	c3.623-1.622,6.015-7.805,8.512-10.63c3.272-3.701,5.809,9.043,5.904,9.872c0.627,5.485-1.793,8.866-7.818,9.466
	c-0.925,0.092-1.239,1.448-0.231,1.703c1.925,0.488,3.535,0.56,4.887,0.323C197.946,71.942,196.39,75.844,194.157,79.425z"/>
</svg>
