<?xml version="1.0" encoding="utf-8"?>
<!-- Generator: Adobe Illustrator 17.0.0, SVG Export Plug-In . SVG Version: 6.00 Build 0)  -->
<!DOCTYPE svg PUBLIC "-//W3C//DTD SVG 1.1//EN" "http://www.w3.org/Graphics/SVG/1.1/DTD/svg11.dtd">
<svg version="1.1" id="Layer_3" xmlns="http://www.w3.org/2000/svg" xmlns:xlink="http://www.w3.org/1999/xlink" x="0px" y="0px"
	 width="202.667px" height="95.167px" viewBox="0 0 202.667 95.167" enable-background="new 0 0 202.667 95.167"
	 xml:space="preserve">
<g>
	<path fill="#FFFFFF" d="M184.392,31.24c-6.558,7.564-20.061,7.887-21.669-3.796c-0.548-3.983,0.586-9.57,5.069-10.804
		c2.949-0.811,4.315,2.579,4.029,4.859c-0.11,0.879-1.328,1.165-1.611,0.218c-1.103-3.686-4.542,1.752-4.351,3.756
		c0.011,1.547,0.355,3.014,1.032,4.4c1.861,2.933,4.964,4.154,8.321,2.968c6.404-2.262,10.488-7.861,6.825-14.524
		c-2.587-4.706-6.865-8.422-12.28-9.461c-6.627-1.272-12.413,3.102-12.97,9.976c-0.009,0.106-0.039,0.203-0.084,0.29
		c0.266,1.015,0.415,2.048,0.408,3.083c-0.032,4.423-4.563,8.966-7.772,11.42c-3.937,3.01-8.247,5.414-12.781,2.194
		c-3.274-2.325-4.568-6.812-4.309-10.613c0.532-7.805,14.924-9.305,11.286-2.134c-0.363,0.715-1.542,0.382-1.507-0.408
		c0.144-3.19-6.918-0.133-6.467,4.005c0.095,1.386,0.484,2.682,1.166,3.888c1.922,3.079,4.796,4.201,8.222,1.922
		c4.54-3.019,11.697-9.023,7.658-15.169c-3.094-4.707-7.908-8.145-13.601-8.931c-5.701-0.787-8.975,2.462-12.3,6.227
		c0.162,4.32-1.824,8.237-6.87,8.78c-0.778,0.084-1.341-0.965-0.911-1.587c2.093-3.026,5.011-5.978,3.854-10.078
		c-1.271-4.503-5.394-6.96-9.974-7.15c-8.085-0.336-14.753,5.882-17.229,13.223c-0.048,0.144-0.118,0.264-0.198,0.367
		c0.714,3.937,0.585,9.427-4.256,10.21c-0.721,0.117-1.649-0.475-1.326-1.326c1.27-3.343,3.096-5.834,1.542-9.655
		c-1.771-4.354-5.588-7.329-10.502-7.104c-9.071,0.416-13.671,7.552-17.157,15.006c0.075,0.585,0.093,1.187,0.03,1.811
		c-0.358,3.532-3.257,6.604-6.655,7.187c-0.807,0.138-1.367-0.729-0.798-1.371c1.777-2.007,5.71-4.754,4.415-8.071
		c-0.824-2.11-2.165-3.543-3.786-4.979c-2.792-2.474-7.622-5.579-11.569-4.068c-1.481,0.567-2.662,1.431-3.713,2.441
		c-0.514,3.37-2.344,6.247-6.267,6.445c-0.802,0.041-1.056-0.935-0.605-1.46c0.481-0.561,0.992-1.108,1.491-1.662
		c0.03-0.047,0.07-0.085,0.111-0.123c1.633-1.825,3.091-3.738,2.806-6.443c-0.228-2.164-0.777-4.776-2.498-6.315
		c-4.04-3.612-10.073-2.532-13.857,0.93c-2.546,2.329-5.52,5.769-6.445,9.207c-1.418,5.266,2.38,10.986,7.353,12.821
		c0.742,0.274,0.648,1.381-0.19,1.404c-1.298,0.035-2.615-0.407-3.855-1.156c-0.146,0.2-0.342,0.38-0.642,0.495
		c-7.094,2.726-6.354,12.711-1.919,17.174c3.815,3.84,7.374,6.958,12.895,7.925c3.767,0.66,8.551,1.128,11.283-2.281
		c1.766-2.204,3.743-6.208,1.797-8.974c-1.689-2.401-5.982-3.998-8.679-1.983c-2.742,2.048,0.583,3.284,1.659,4.382
		c0.606,0.618,0.171,1.701-0.704,1.7c-2.657-0.002-6.863-2.001-5.938-5.365c1.093-3.975,5.358-5.164,8.997-5.086
		c10.905,0.234,10.695,13.054,4.636,18.983c-0.728,0.713-1.553,1.275-2.443,1.715c-2.143,4.417-2.934,9.869,1.035,13.568
		c3.06,2.852,7.579,5.912,11.946,5.894c4.018-0.017,12.414-0.796,14.435-5.138c0.935-2.009,1.035-10.638-4.423-8.378
		c-1.908,0.79-5.751,5.377-1.412,5.475c1.536,0.035,1.783,2.157,0.355,2.624c-9.434,3.084-8.038-8.308-1.274-11.096
		c7.579-3.123,14.828,6.586,10.072,13.314c-0.471,0.667-1.005,1.264-1.565,1.829c-0.583,5.972,4.912,10.847,10.693,11.808
		c5.719,0.951,11.617-0.476,16.554-3.479c3.536-2.151,8.024-6.979,3.153-10.743c-2.763-2.135-6.498-3.13-9.965-2.333
		c-2.715,0.624-7.669,2.007-8.198,5.369c-0.725,4.611,7.168,6.5,8.032,2.061c0.269-1.382,2.238-0.947,2.325,0.315
		c0.684,9.928-15.173,5.738-13.676-3.291c0.751-4.528,7.16-7.242,11.073-7.736c4.909-0.62,10.852,0.312,13.985,4.63
		c1.744,2.403,2.173,4.66,1.718,6.72c0.153,0.156,0.24,0.38,0.201,0.677c-1.29,9.939,29.349,13.025,23.242-5.028
		c-0.324-0.958,0.857-1.815,1.687-1.297c1.894,1.182,2.687,3.281,2.766,5.495c1.18,0.512,2.164,1.301,3.302,2.199
		c3.948,3.117,9.747,4.772,14.767,4.602c5.144-0.174,9.822-0.971,14.773-2.263c2.006-0.523,4.423-0.568,6.338-1.265
		c3.17-1.153,3.84-3.191,5.343-5.743c0.303-0.515,1.03-0.61,1.454-0.187c1.134,1.13,1.216,2.522,0.735,3.855
		c2.095,0.373,4.028,0.454,4.923-2.017c0.392-1.081,0.775-2.155,1.212-3.22c0.788-1.917,1.307-3.635,1.11-5.401
		c-3.339,2.126-7.302,2.904-11.933,1.318c-6.444-2.206-10.786-10.066-9.802-16.684c1.053-7.086,7.712-13.897,15.427-12.67
		c6.046,0.961,8.991,6.993,5.783,12.432c-2.907,4.926-11.565,8.751-14.022,1.12c-1.354-4.203,1.445-10.299,5.368-5.206
		c0.554,0.719-0.531,1.777-1.251,1.251c-0.994-1.145-1.543-0.703-1.649,1.325c3.299,4.126,6.043,4.414,8.232,0.866
		c0.771-1.306,1.575-2.835,1.445-4.418c-0.567-6.915-10.187-4.302-13.202-0.774c-5.795,6.78-1.858,20.925,8.527,20.192
		c9.197-0.65,14.477-12.506,15.886-20.461C197.314,43.896,193.651,29.44,184.392,31.24z"/>
	<path fill="#3D89D3" d="M186.037,28.774c3.876-7.981-3.677-18.128-11.035-21.228c-4.523-1.906-10.366-3.183-14.607,0.152
		c-2.448,1.925-4.467,4.882-5.073,8.025c-1.351-2.436-3.343-4.574-5.557-6.045c-8.348-5.549-17.647-5.911-23.659,1.351
		c-1.1-3.737-3.623-7.165-6.981-8.354c-6.01-2.128-11.576-1.818-16.941,1.692c-3.303,2.161-6.998,5.686-8.308,9.689
		c-1.663-2.826-4.41-4.976-7.419-6.21c-9.147-3.749-21.914,4.14-24.168,13.745c-1.188-1.879-2.955-3.476-4.764-4.774
		c-3.239-2.325-7.384-4.317-11.511-3.537c-1.67,0.315-2.98,0.973-4.284,1.895c-0.092-1.576-0.404-3.122-0.874-4.433
		c-2.182-6.076-8.52-7.714-14.221-6.134c-6.493,1.799-11.443,9.053-13.075,15.219c-0.849,3.206,1.024,7.491,3.855,10.303
		c-8.282,2.096-8.435,15.347-3.762,20.816c3.995,4.675,7.749,8.062,13.716,9.85c2.793,0.837,6.22,1.352,9.388,0.912
		c-3.017,6.319,0.683,14.04,6.451,18.107c6.537,4.609,17.103,5.436,24.067,0.889c0.026,2.556,1.159,5.087,3.039,7.1
		c4.255,4.559,9.76,6.309,15.905,5.991c5.05-0.261,13.296-3.256,17.211-7.919c1.392,6.544,14.434,8.561,19.563,7.454
		c4.235-0.915,7.737-2.419,9.448-6.559c0.361-0.873,0.632-1.851,0.782-2.856c2.471,2.237,4.654,4.641,8.034,5.781
		c6.313,2.13,12.047,2.303,18.641,1.729c3.079-0.268,5.934-1.29,8.914-2.03c2.794-0.694,5.318-0.804,7.82-2.333
		c0.926-0.566,1.859-1.426,2.559-2.41c3.426,1.466,6.571,0.704,8.053-3.012c1.313-3.29,3.586-7.456,2.346-10.983
		c2.263-2.021,4.185-4.658,5.781-7.497c4.041-7.187,6.747-17.224,2.932-25.04C196.075,33.556,191.149,28.31,186.037,28.774z
		 M196.111,50.686c-1.409,7.955-6.689,19.812-15.886,20.461c-10.385,0.734-14.323-13.412-8.527-20.192
		c3.016-3.528,12.636-6.141,13.202,0.774c0.13,1.583-0.675,3.112-1.445,4.418c-2.188,3.548-4.932,3.26-8.232-0.866
		c0.106-2.029,0.655-2.471,1.649-1.325c0.72,0.527,1.805-0.531,1.251-1.251c-3.923-5.093-6.722,1.003-5.368,5.206
		c2.457,7.631,11.116,3.806,14.022-1.12c3.209-5.438,0.264-11.471-5.783-12.432c-7.715-1.226-14.374,5.584-15.427,12.67
		c-0.984,6.619,3.358,14.478,9.802,16.684c4.631,1.585,8.594,0.808,11.933-1.318c0.197,1.766-0.322,3.484-1.11,5.401
		c-0.437,1.064-0.82,2.138-1.212,3.22c-0.896,2.471-2.828,2.39-4.923,2.017c0.481-1.333,0.399-2.725-0.735-3.855
		c-0.424-0.422-1.151-0.327-1.454,0.187c-1.503,2.552-2.173,4.59-5.343,5.743c-1.915,0.697-4.332,0.742-6.338,1.265
		c-4.951,1.292-9.629,2.089-14.773,2.263c-5.02,0.17-10.819-1.484-14.767-4.602c-1.137-0.898-2.121-1.688-3.302-2.199
		c-0.079-2.214-0.871-4.313-2.766-5.495c-0.83-0.518-2.011,0.339-1.687,1.297c6.107,18.053-24.532,14.967-23.242,5.028
		c0.039-0.297-0.048-0.521-0.201-0.677c0.455-2.06,0.026-4.317-1.718-6.72c-3.134-4.318-9.077-5.25-13.985-4.63
		c-3.913,0.495-10.322,3.209-11.073,7.736c-1.497,9.029,14.361,13.219,13.676,3.291c-0.087-1.262-2.056-1.697-2.325-0.315
		c-0.864,4.438-8.758,2.55-8.032-2.061c0.529-3.362,5.483-4.745,8.198-5.369c3.467-0.797,7.202,0.199,9.965,2.333
		c4.871,3.764,0.383,8.593-3.153,10.743c-4.937,3.003-10.835,4.429-16.554,3.479c-5.781-0.961-11.277-5.836-10.693-11.808
		c0.56-0.565,1.094-1.162,1.565-1.829c4.756-6.728-2.493-16.437-10.072-13.314c-6.764,2.788-8.16,14.18,1.274,11.096
		c1.427-0.467,1.181-2.589-0.355-2.624c-4.339-0.098-0.496-4.685,1.412-5.475c5.458-2.26,5.358,6.37,4.423,8.378
		c-2.02,4.342-10.417,5.121-14.435,5.138c-4.367,0.018-8.885-3.042-11.946-5.894c-3.969-3.698-3.178-9.15-1.035-13.568
		c0.889-0.439,1.714-1.002,2.443-1.715c6.059-5.929,6.269-18.75-4.636-18.983c-3.639-0.078-7.904,1.111-8.997,5.086
		c-0.925,3.364,3.28,5.363,5.938,5.365c0.876,0.001,1.31-1.083,0.704-1.7c-1.076-1.098-4.401-2.334-1.659-4.382
		c2.698-2.015,6.99-0.419,8.679,1.983c1.946,2.766-0.031,6.77-1.797,8.974c-2.732,3.41-7.516,2.941-11.283,2.281
		c-5.521-0.967-9.079-4.084-12.895-7.925c-4.434-4.463-5.175-14.447,1.919-17.174c0.3-0.115,0.496-0.295,0.642-0.495
		c1.24,0.749,2.557,1.191,3.855,1.156c0.838-0.023,0.932-1.13,0.19-1.404c-4.973-1.836-8.771-7.555-7.353-12.821
		c0.926-3.438,3.9-6.878,6.445-9.207c3.784-3.462,9.816-4.543,13.857-0.93c1.722,1.539,2.271,4.151,2.498,6.315
		c0.285,2.704-1.173,4.617-2.806,6.443c-0.041,0.038-0.081,0.076-0.111,0.123c-0.499,0.554-1.01,1.102-1.491,1.662
		c-0.451,0.526-0.197,1.501,0.605,1.46c3.923-0.199,5.753-3.075,6.267-6.445c1.05-1.01,2.231-1.874,3.713-2.441
		c3.947-1.511,8.777,1.594,11.569,4.068c1.621,1.436,2.962,2.869,3.786,4.979c1.295,3.317-2.639,6.064-4.415,8.071
		c-0.569,0.643-0.009,1.509,0.798,1.371c3.399-0.583,6.297-3.654,6.655-7.187c0.063-0.623,0.045-1.226-0.03-1.811
		c3.485-7.454,8.086-14.59,17.157-15.006c4.914-0.225,8.732,2.75,10.502,7.104c1.554,3.821-0.272,6.312-1.542,9.655
		c-0.323,0.851,0.605,1.443,1.326,1.326c4.841-0.782,4.97-6.272,4.256-10.21c0.08-0.103,0.15-0.224,0.198-0.367
		c2.476-7.341,9.144-13.559,17.229-13.223c4.58,0.19,8.703,2.647,9.974,7.15c1.157,4.1-1.761,7.052-3.854,10.078
		c-0.43,0.622,0.133,1.671,0.911,1.587c5.045-0.542,7.031-4.46,6.87-8.78c3.326-3.765,6.6-7.014,12.3-6.227
		c5.693,0.786,10.507,4.224,13.601,8.931c4.039,6.146-3.118,12.15-7.658,15.169c-3.427,2.279-6.301,1.157-8.222-1.922
		c-0.682-1.206-1.071-2.502-1.166-3.888c-0.45-4.138,6.611-7.196,6.467-4.005c-0.036,0.791,1.144,1.123,1.507,0.408
		c3.638-7.172-10.754-5.671-11.286,2.134c-0.259,3.801,1.035,8.287,4.309,10.613c4.535,3.22,8.844,0.815,12.781-2.194
		c3.21-2.454,7.74-6.997,7.772-11.42c0.008-1.035-0.142-2.069-0.408-3.083c0.045-0.088,0.076-0.184,0.084-0.29
		c0.557-6.875,6.343-11.249,12.97-9.976c5.415,1.039,9.694,4.756,12.28,9.461c3.663,6.663-0.422,12.263-6.825,14.524
		c-3.357,1.186-6.46-0.035-8.321-2.968c-0.677-1.386-1.021-2.853-1.032-4.4c-0.191-2.004,3.248-7.442,4.351-3.756
		c0.283,0.946,1.501,0.661,1.611-0.218c0.286-2.281-1.079-5.671-4.029-4.859c-4.483,1.233-5.617,6.821-5.069,10.804
		c1.608,11.682,15.111,11.36,21.669,3.796C193.651,29.44,197.314,43.896,196.111,50.686z"/>
</g>
</svg>
