<?xml version="1.0" encoding="utf-8"?>
<!-- Generator: Adobe Illustrator 17.0.0, SVG Export Plug-In . SVG Version: 6.00 Build 0)  -->
<!DOCTYPE svg PUBLIC "-//W3C//DTD SVG 1.1//EN" "http://www.w3.org/Graphics/SVG/1.1/DTD/svg11.dtd">
<svg version="1.1" id="Layer_1" xmlns="http://www.w3.org/2000/svg" xmlns:xlink="http://www.w3.org/1999/xlink" x="0px" y="0px"
	 width="398.595px" height="138.807px" viewBox="0 0 398.595 138.807" enable-background="new 0 0 398.595 138.807"
	 xml:space="preserve">
<path fill="#FFFFFF" d="M391.744,121.076c0.536-1.846,0.839-3.792,0.839-5.811c0-11.357-9.1-20.573-20.404-20.795
	c0.465-2.543,0.721-5.159,0.721-7.837c0-21.48-15.638-39.298-36.149-42.715C330.814,27.075,314.769,15,295.895,15
	c-14.603,0-27.509,7.234-35.355,18.306c-7.469-13.025-21.5-21.806-37.592-21.806c-0.601,0-1.198,0.021-1.793,0.045
	c-7.04-4.948-15.613-7.862-24.871-7.862c-11.164,0-21.34,4.226-29.021,11.162C159.323,5.753,147.653,0,134.633,0
	c-11.695,0-22.299,4.643-30.092,12.175C96.747,4.643,86.143,0,74.448,0C50.525,0,31.132,19.393,31.132,43.316
	c0,3.049,0.319,6.023,0.918,8.894C21.7,60.126,15.018,72.596,15.018,86.632c0,1.604,0.094,3.186,0.264,4.746
	C6.99,94.12,1,101.921,1,111.132c0,4.134,1.22,7.976,3.298,11.215c-2.391,1.618-3.963,4.355-3.963,7.46c0,4.971,4.029,9,9,9h380.261
	c4.971,0,9-4.029,9-9C398.595,125.578,395.675,122.041,391.744,121.076z"/>
</svg>
