<svg version="1.1" xmlns="http://www.w3.org/2000/svg" xmlns:xlink="http://www.w3.org/1999/xlink" x="0px" y="0px"
	 width="171.087px" height="121.605px" viewBox="0 0 171.087 121.605" enable-background="new 0 0 171.087 121.605"
	 xml:space="preserve">
<g id="Layer_3">
	<path fill="#FFFFFF" d="M139.198,48.779c-0.052,0.016-0.1,0.019-0.151,0.029c-0.45,2.069-1.582,3.998-3.679,5.57
		c-1.549,1.162-3.042-1.445-1.514-2.59c4.847-3.635,1.87-10.873-1.519-14.38c-4.511-4.668-9.42-5.206-14.91-1.812
		c0.271,1.315,0.41,2.702,0.429,4.159c0.001,0.027,0.008,0.051,0.008,0.079c0,0.083,0,0.167,0,0.25c0,1.935-3,1.935-3,0
		c0-5.133-2.62-13.335-9.25-12.991c-2.523,0.131-3.624,1.172-5.851,1.937c-0.459,0.158-1.112,0.108-1.659,0.189
		c-4.754,5.295-12.804,6.804-18.829,2.656c-5.102-3.513-7.196-11.768-5.471-17.534c1.848-6.176,8.125-10.378,13.87-5.318
		c4.525,3.985,4.201,9.555-2.709,8.507c-1.908-0.289-1.094-3.18,0.797-2.893c1.346-2.012,0.95-3.373-1.188-4.084
		c-4.076-0.853-6.584,0.279-7.522,3.396c-0.551,1.842-0.895,3.729-0.715,5.661c0.414,4.443,2.523,10.071,7.425,11.277
		c11.532,2.837,22.878-14.302,13.37-22.943c-8.33-7.57-21.771-5.47-30.951-0.623c-4.223,2.23-8.317,5.163-10.401,9.631
		c-0.707,1.515-3.843,9.149-1.159,10.337c0.562,0.248,0.788,0.679,0.782,1.126c2.329,1.787,4.217,4.342,5.407,7.77
		c0.636,1.833-2.262,2.613-2.893,0.797c-3.15-9.07-14.064-11.273-22.039-6.715c-3.694,2.112-7.58,5.737-7.42,10.421
		c0.042,1.239,0.254,4.721,1.272,6.286c0.705,0.23,1.201,0.944,1.167,1.606c2.053,1.649,3.966,5.697,3.966,8.252
		c0,1.935-3,1.935-3,0c0-5.448-5.562-8.389-10.312-7.79c-3.164,0.399-6.879,1.23-6.82,5.318c0.03,2.097,0.23,5.115,1.427,6.965
		c1.054,1.63-1.544,3.132-2.59,1.514c-0.764-1.181-1.26-2.635-1.542-4.17c-7.297,0.737-10.17,5.882-8.31,13.108
		c1.193,4.635,3.333,11.915,9.545,11.461c4.099-0.3,9.801-2.904,9.352-7.906c-0.117-2.152-1.074-3.834-2.87-5.046
		c-2.293-1.939-4.267-1.325-5.924,1.842c0.379,1.1,1.661,2.402,0.984,3.144c1.308-1.43,3.424,0.697,2.121,2.121
		c-0.143,0.156-0.285,0.312-0.428,0.468c-0.34,0.372-0.979,0.55-1.459,0.386c-6.751-2.311-5.109-15.068,3.163-11.955
		c7.293,2.745,10.564,12.031,3.264,17.12c-1.59,1.108-3.195,1.846-4.771,2.262c-0.028,0.043-0.048,0.087-0.081,0.129
		c-5.427,7.006-1.29,15.692,4.531,20.968c5.076,4.601,14.23,10.426,21.021,6.059c-0.867-1.164-1.57-2.484-2.043-3.961
		c-0.802-2.503-3.166-20.081,4.25-16.083c1.703,0.918,0.188,3.508-1.514,2.59c-0.402-0.217-1.044,5.05-1.037,5.295
		c0.082,3.308,0.435,7.058,2.421,9.858c3.092,4.358,7.138,4.425,11.974,3.355c2.548-0.564,5.785-0.622,8.117-1.952
		c-1.331-2.069-2.125-4.438-2.017-6.96c0.19-4.442,3.055-10.32,8.056-6.937c1.593,1.077,0.093,3.678-1.514,2.59
		c-3.471-2.348-3.71,4.791-3.362,6.158c0.472,1.851,1.203,3.694,2.53,5.12c2.355,2.529,5.697,4.729,9.311,4.624
		c7.025-0.203,9.204-5.695,9.501-11.606c-1.499-5.589-1.087-11.533,2.031-16.03c6.31-9.1,24.159-5.534,23.181,6.708
		c-0.405,5.07-2.824,8.897-8.012,9.855c-4.575,0.846-6.797-3.497-5.621-7.275c0.498-1.602,2.946-1.327,2.946,0.399
		c0,0.083,0,0.167,0,0.25c0,0.084-0.013,0.16-0.023,0.237c0.936,3.161,2.478,4.065,4.631,2.697c1.234-0.805,2.08-1.895,2.54-3.27
		c0.372-1.299,0.673-2.647,0.523-4.01c-0.572-5.183-4.761-8.152-9.92-7.654c-6.269,0.606-9.17,4.899-9.778,10.001
		c0.369,2.402,0.701,5.163,0.681,7.907c0.466,1.694,1.117,3.323,1.922,4.784c2.05,3.718,5.599,8.084,10.104,8.804
		c5.755,0.921,10.49-2.681,13.481-7.318c2.34-3.628,4.223-7.467,5.246-11.685c0.494-2.038,0.081-4.056,0.481-6.059
		c0.009-0.047,0.027-0.084,0.039-0.127c-0.469-2.114-0.744-4.325-0.845-6.548c-0.269-5.929,0.192-12.405,5.137-16.406
		c2.986-2.416,7.937-1.986,10.805,0.411c3.025,2.528,4.981,6.96,2.602,10.671c-1.593,2.486-5.013,5.732-8.133,3.861
		c-0.531-0.319-0.934-1.072-0.689-1.694c0.478-1.216,0.653-1.463,1.636-2.412c1.183-1.142,2.888,0.218,2.517,1.479
		c1.83-1.212,2.863-5.483,2.545-6.33c-0.948-2.519-3.541-4.881-6.428-4.592c-4.822,0.483-6.797,5.562-6.992,9.732
		c-0.279,5.988,0.067,13.952,3.71,19.065c4.411,6.191,13.194,6.041,19.22,2.224c2.405-1.523,6.204-4.234,6.73-7.322
		c0.328-1.924,0.196-0.511-0.188-2.046c-0.036-0.142-0.046-0.276-0.046-0.405c-0.045-0.022-0.093-0.038-0.138-0.061
		c-10.891-5.595-12.335-25.698,1.005-29.007c5.967-1.48,10.625,2.89,9.321,8.723c-1.009,4.514-6.007,6.107-8.492,2.108
		c-1.024-1.648,1.572-3.153,2.59-1.514c4.641-0.331,4.149-2.517-1.473-6.557c-1.995,0.088-3.776,0.758-5.345,2.011
		c-1.311,1.332-2.351,2.764-2.773,4.631c-0.917,4.055-0.214,9.207,2.093,12.766c3.165,4.882,9.76,6.859,14.033,1.845
		c2.245-2.634,3.509-5.922,3.974-9.338c1.059-7.781-0.263-16.957-6.013-22.793C156.325,50.234,146.725,46.544,139.198,48.779z"/>
	<path fill="#2785C4" d="M139.246,45.664c-0.266-3.178-1.779-6.444-3.756-9.129c-1.899-2.58-4.919-5.084-7.96-6.188
		c-3.681-1.336-7.735,0.343-10.997,2.278c-1.274-3.164-3.5-5.823-6.859-7.93c-2.092-1.312-5.722-0.657-7.934-0.035
		c-0.281,0.079-0.547,0.196-0.809,0.325c2.959-5.752,3.844-13.129-0.812-18.215c-6.013-6.568-15.872-7.798-24.238-6.054
		C67.3,2.506,58.828,6.712,53.908,14.151c-1.443,2.182-3.751,7.8-3.309,11.803c-4.966-1.531-10.849-0.786-16.237,1.723
		c-4.324,2.014-8.357,6.719-8.782,11.594c-0.164,1.879-0.119,4.691,0.575,7.041c-1.936-0.449-3.978-0.445-6.114-0.075
		c-3.157,0.547-7.008,1.705-7.862,5.302c-0.295,1.244-0.447,2.674-0.434,4.134c-4.188,0.369-7.9,1.75-10.309,5.494
		C-1.29,65.402,0.461,71.73,1.814,76.068c1.858,5.959,6.144,9.661,11.16,9.975c-3.978,7.394-0.858,15.602,4.916,21.748
		c5.751,6.121,16.84,12.698,25.074,8.065c0.405,0.073,0.841-0.043,1.208-0.463c0.084-0.096,0.148-0.184,0.213-0.273
		c1.511,1.19,3.297,2.038,5.327,2.409c2.222,0.406,5.085-0.431,7.297-0.75c3.122-0.45,6.409-0.69,9.108-2.401
		c0.034-0.022,0.059-0.048,0.091-0.071c1.515,1.593,3.334,2.907,5.212,3.831c5.044,2.483,10.704,1.519,14.751-2.245
		c1.485-1.381,2.432-3.144,3.022-5.091c2.985,5.451,7.833,9.745,13.582,10.664c6.574,1.052,11.85-4.085,15.336-8.942
		c2.313-3.222,3.911-6.977,5.094-10.738c0.213-0.678,0.346-1.354,0.435-2.024c2.883,5.472,7.864,9.094,15.633,8.341
		c5.136-0.498,9.822-3.144,13.421-6.732c1.8-1.795,3.095-4.089,3.519-6.582c0.058-0.34,0.065-0.697,0.035-1.052
		c4.087,0.323,8.399-1.85,10.684-5.188c3.919-5.724,4.851-13.486,3.687-20.233C168.185,54.201,154.202,41.829,139.246,45.664z
		 M167.665,78.434c-0.465,3.416-1.729,6.704-3.974,9.338c-4.273,5.014-10.869,3.037-14.033-1.845
		c-2.307-3.559-3.01-8.711-2.093-12.766c0.422-1.867,1.463-3.299,2.773-4.631c1.569-1.253,3.35-1.924,5.345-2.011
		c5.623,4.04,6.114,6.226,1.473,6.557c-1.018-1.639-3.615-0.134-2.59,1.514c2.485,3.999,7.483,2.405,8.492-2.108
		c1.304-5.833-3.354-10.203-9.321-8.723c-13.34,3.309-11.896,23.412-1.005,29.007c0.045,0.023,0.092,0.039,0.138,0.061
		c-0.001,0.129,0.01,0.263,0.046,0.405c0.384,1.536,0.515,0.122,0.188,2.046c-0.526,3.088-4.325,5.799-6.73,7.322
		c-6.027,3.817-14.809,3.967-19.22-2.224c-3.643-5.113-3.989-13.077-3.71-19.065c0.195-4.17,2.17-9.248,6.992-9.732
		c2.888-0.29,5.481,2.073,6.428,4.592c0.318,0.846-0.714,5.118-2.545,6.33c0.37-1.26-1.334-2.621-2.517-1.479
		c-0.982,0.948-1.158,1.196-1.636,2.412c-0.245,0.622,0.158,1.375,0.689,1.694c3.12,1.872,6.539-1.375,8.133-3.861
		c2.379-3.711,0.424-8.143-2.602-10.671c-2.868-2.397-7.82-2.826-10.805-0.411c-4.946,4.001-5.406,10.477-5.137,16.406
		c0.101,2.224,0.376,4.435,0.845,6.548c-0.012,0.043-0.03,0.081-0.039,0.127c-0.401,2.003,0.013,4.021-0.481,6.059
		c-1.022,4.217-2.906,8.057-5.246,11.685c-2.991,4.637-7.725,8.239-13.481,7.318c-4.505-0.721-8.054-5.087-10.104-8.804
		c-0.805-1.461-1.456-3.089-1.922-4.784c0.02-2.744-0.312-5.505-0.681-7.907c0.608-5.102,3.509-9.396,9.778-10.001
		c5.159-0.498,9.348,2.471,9.92,7.654c0.151,1.363-0.15,2.711-0.523,4.01c-0.46,1.375-1.306,2.465-2.54,3.27
		c-2.153,1.368-3.695,0.464-4.631-2.697c0.011-0.077,0.023-0.153,0.023-0.237c0-0.083,0-0.167,0-0.25
		c0-1.725-2.448-2.001-2.946-0.399c-1.175,3.778,1.046,8.121,5.621,7.275c5.188-0.959,7.607-4.785,8.012-9.855
		c0.977-12.242-16.871-15.808-23.181-6.708c-3.118,4.497-3.53,10.44-2.031,16.03c-0.297,5.91-2.476,11.402-9.501,11.606
		c-3.614,0.105-6.956-2.095-9.311-4.624c-1.328-1.426-2.059-3.269-2.53-5.12c-0.348-1.367-0.109-8.506,3.362-6.158
		c1.607,1.087,3.107-1.513,1.514-2.59c-5.001-3.383-7.866,2.495-8.056,6.937c-0.108,2.521,0.685,4.89,2.017,6.96
		c-2.331,1.33-5.569,1.388-8.117,1.952c-4.836,1.071-8.882,1.003-11.974-3.355c-1.987-2.8-2.339-6.55-2.421-9.858
		c-0.006-0.245,0.635-5.512,1.037-5.295c1.703,0.918,3.217-1.672,1.514-2.59c-7.416-3.999-5.052,13.58-4.25,16.083
		c0.473,1.476,1.177,2.796,2.043,3.961c-6.791,4.367-15.945-1.457-21.021-6.059c-5.821-5.277-9.958-13.963-4.531-20.968
		c0.033-0.042,0.053-0.086,0.081-0.129c1.576-0.417,3.181-1.154,4.771-2.262c7.301-5.089,4.03-14.375-3.264-17.12
		c-8.272-3.114-9.914,9.644-3.163,11.955c0.481,0.165,1.119-0.014,1.459-0.386c0.143-0.156,0.285-0.312,0.428-0.468
		c1.303-1.424-0.813-3.552-2.121-2.121c0.678-0.741-0.605-2.044-0.984-3.144c1.656-3.167,3.631-3.781,5.924-1.842
		c1.796,1.212,2.753,2.894,2.87,5.046c0.449,5.002-5.254,7.607-9.352,7.906c-6.212,0.454-8.352-6.827-9.545-11.461
		c-1.86-7.226,1.014-12.372,8.31-13.108c0.281,1.535,0.777,2.989,1.542,4.17c1.047,1.618,3.645,0.115,2.59-1.514
		c-1.197-1.85-1.397-4.868-1.427-6.965c-0.059-4.088,3.656-4.919,6.82-5.318c4.75-0.599,10.312,2.342,10.312,7.79
		c0,1.935,3,1.935,3,0c0-2.556-1.912-6.603-3.966-8.252c0.034-0.662-0.462-1.376-1.167-1.606c-1.018-1.565-1.229-5.047-1.272-6.286
		c-0.16-4.684,3.725-8.31,7.42-10.421c7.974-4.558,18.889-2.356,22.039,6.715c0.63,1.816,3.529,1.035,2.893-0.797
		c-1.19-3.428-3.078-5.983-5.407-7.77c0.006-0.447-0.22-0.878-0.782-1.126c-2.685-1.187,0.452-8.821,1.159-10.337
		c2.084-4.468,6.179-7.401,10.401-9.631C75.359,2.473,88.8,0.373,97.13,7.943c9.508,8.641-1.837,25.781-13.37,22.943
		c-4.902-1.206-7.011-6.834-7.425-11.277c-0.18-1.932,0.164-3.819,0.715-5.661c0.938-3.118,3.445-4.25,7.522-3.396
		c2.138,0.711,2.534,2.073,1.188,4.084c-1.892-0.287-2.705,2.604-0.797,2.893c6.911,1.048,7.235-4.522,2.709-8.507
		c-5.745-5.06-12.022-0.858-13.87,5.318c-1.726,5.766,0.368,14.021,5.471,17.534c6.025,4.148,14.074,2.639,18.829-2.656
		c0.547-0.081,1.201-0.031,1.659-0.189c2.227-0.765,3.328-1.806,5.851-1.937c6.63-0.344,9.25,7.857,9.25,12.991c0,1.935,3,1.935,3,0
		c0-0.083,0-0.167,0-0.25c0-0.028-0.007-0.051-0.008-0.079c-0.018-1.457-0.157-2.844-0.429-4.159
		c5.49-3.394,10.399-2.856,14.91,1.812c3.389,3.507,6.366,10.745,1.519,14.38c-1.528,1.146-0.035,3.752,1.514,2.59
		c2.096-1.572,3.229-3.501,3.679-5.57c0.05-0.01,0.098-0.013,0.151-0.029c7.527-2.235,17.127,1.455,22.454,6.862
		C167.402,61.477,168.724,70.653,167.665,78.434z"/>
</g>
</svg>
