<?xml version="1.0" encoding="utf-8"?>
<!-- Generator: Adobe Illustrator 17.0.0, SVG Export Plug-In . SVG Version: 6.00 Build 0)  -->
<!DOCTYPE svg PUBLIC "-//W3C//DTD SVG 1.1//EN" "http://www.w3.org/Graphics/SVG/1.1/DTD/svg11.dtd">
<svg version="1.1" id="Layer_1" xmlns="http://www.w3.org/2000/svg" xmlns:xlink="http://www.w3.org/1999/xlink" x="0px" y="0px"
	 width="399.279px" height="143.307px" viewBox="0 0 399.279 143.307" enable-background="new 0 0 399.279 143.307"
	 xml:space="preserve">
<path fill="#FFFFFF" d="M367.424,49.36c0.018-0.513,0.039-1.026,0.039-1.544c0-23.923-19.393-43.316-43.316-43.316
	c-21.619,0-39.534,15.839-42.786,36.544c-0.196,0.107-0.385,0.224-0.579,0.333C279.767,18.355,260.787,0,237.514,0
	c-16.582,0-30.981,9.321-38.26,23.006c-2.428-1.582-5.025-2.925-7.757-4C183.705,7.536,170.555,0,155.644,0
	c-9.545,0-18.364,3.095-25.523,8.326c-5.43-2.45-11.449-3.826-17.793-3.826c-22.399,0-40.825,17.002-43.082,38.804
	c-0.844,1.471-1.612,2.991-2.282,4.564c-22.972,1.07-41.269,20.028-41.269,43.264c0,2.677,0.256,5.294,0.721,7.837
	c-11.304,0.222-20.404,9.438-20.404,20.795c0,2.019,0.302,3.965,0.838,5.811C2.92,126.541,0,130.078,0,134.307c0,4.971,4.029,9,9,9
	h380.261c4.971,0,9-4.029,9-9c0-3.105-1.572-5.842-3.963-7.46c2.078-3.239,3.298-7.081,3.298-11.215
	c0-2.826-0.569-5.517-1.589-7.973c2.105-5.094,3.272-10.673,3.272-16.527C399.279,71.179,385.783,54.387,367.424,49.36z"/>
</svg>
