<svg version="1.1" id="Layer_1" xmlns="http://www.w3.org/2000/svg" xmlns:xlink="http://www.w3.org/1999/xlink" x="0px" y="0px"
	 width="243.144px" height="138.807px" viewBox="0 0 243.144 138.807" enable-background="new 0 0 243.144 138.807"
	 xml:space="preserve">
<path fill="#FFFFFF" d="M234.069,129.807c0-3.788-2.343-7.024-5.657-8.352c2.347-3.369,3.732-7.458,3.732-11.875
	c0-0.81-0.058-1.605-0.147-2.39c6.624-3.483,11.147-10.422,11.147-18.426c0-7.676-4.166-14.363-10.349-17.973
	c1.8-3.08,2.849-6.651,2.849-10.476c0-11.035-8.593-20.04-19.449-20.747c-6.17-16.398-21.993-28.069-40.548-28.069
	c-4.706,0-9.233,0.761-13.475,2.148c-3.817-4.696-9.633-7.7-16.156-7.7c-3.134,0-6.095,0.713-8.761,1.953
	C130.204,2.93,121.611,0,112.328,0C89.929,0,71.503,17.002,69.246,38.804c-0.844,1.471-1.612,2.991-2.282,4.564
	c-22.972,1.07-41.269,20.028-41.269,43.264c0,2.677,0.255,5.294,0.72,7.837c-11.304,0.222-20.404,9.438-20.404,20.795
	c0,2.019,0.302,3.966,0.839,5.812C2.92,122.041,0,125.579,0,129.807c0,4.971,4.029,9,9,9h216.069
	C230.04,138.807,234.069,134.778,234.069,129.807z"/>
</svg>
