<svg version="1.1" xmlns="http://www.w3.org/2000/svg" xmlns:xlink="http://www.w3.org/1999/xlink" x="0px" y="0px"
	 width="220.07px" height="135.38px" viewBox="0 0 220.07 135.38" enable-background="new 0 0 220.07 135.38" xml:space="preserve">

<g id="Layer_5">
	<path fill="#FFFFFF" d="M205.505,3.735c-9.691-2.632-17.226,3.372-23.694,9.821c-0.177,0.177-0.367,0.293-0.56,0.362
		c0.775,1.182,1.365,2.637,1.696,4.428c0.349,1.891-2.542,2.698-2.893,0.797c-1.473-7.985-9.6-7.123-14.797-3.604
		c-2.962,2.006-8.265,6.116-8.581,10.395c1.862,0.606,3.281,2.422,4.02,4.911c0.552,1.859-2.343,2.647-2.893,0.797
		c-2.527-8.506-10.995,5.931-12.93,8.333c0.062,0.071,0.127,0.134,0.188,0.207c1.059,1.294,0.784,3.014,1.386,4.474
		c0.737,1.789-2.167,2.56-2.893,0.797c-0.782-1.9-0.449-3.691-2.529-4.947c-1.208-0.729-2.523-1.51-3.867-1.963
		c-2.581-0.87-5.79-1.607-8.4-0.443c-0.235,0.105-0.465,0.145-0.685,0.141c-1.197,2.116-2.96,3.871-5.394,5.051
		c-13.529,6.559-22.861-9.757-17.724-21.307c2.67-6.002,8.146-7.106,12.516-2.038c2.743,3.182,1.61,7.171-2.87,5.741
		c-1.836-0.586-1.051-3.483,0.797-2.893c-0.883-3.087-3.321-3.257-7.314-0.51c-0.585,1.223-1.027,2.494-1.325,3.812
		c-0.406,2.19-0.714,4.723-0.072,6.919c1.106,3.784,3.629,7.62,7.809,8.435c11.269,2.199,14.353-11.489,11.175-19.71
		c-3.172-8.208-8.367-14.998-18.22-14.193c-3.868,0.316-7.78,1.349-11.042,3.54c-2.036,1.368-6.309,4.368-6.348,7.215
		c-0.001,0.078-0.014,0.148-0.025,0.219c0.791,3.579,0.159,7.529-1.667,11.051c-3.994,7.702-11.832,15.1-20.965,15.178
		c-6.685,0.057-10.351-7.668-9.796-13.402c0.492-5.086,5.058-11.756,10.984-10.158c4.429,1.195,8.185,6.122,1.804,7.745
		c-1.876,0.477-2.671-2.416-0.797-2.893c0.003-1.66-0.877-2.33-2.638-2.011c-0.825,0.245-1.649,0.49-2.474,0.735
		c-1.092,0.727-1.945,1.671-2.56,2.832c-1.3,2.603-1.946,5.524-0.903,8.362c2.747,7.474,10.378,6.53,15.868,2.427
		c4.639-3.468,9.455-8.645,10.267-14.637c0.954-7.036-3.11-11.943-10.212-12.227c-10.072-0.403-23.036,1.386-30.86,8.375
		c-4.119,3.679-7.689,8.035-10.322,12.904c-1.1,2.033-1.81,4.722-3.207,6.498c-1.082,1.376-1.15,0.181-0.14,1.573
		c0.008,0.011,0.011,0.022,0.019,0.033c3.187,1.232,9.494,4.102,7.757,8.233c-0.738,1.755-3.643,0.985-2.893-0.797
		c0.838-1.993-4.746-4.319-5.952-4.655c-2.411-0.672-4.768-0.725-7.154,0.093c-3.922,1.344-7.944,3.343-10.57,6.669
		c-2.636,3.338-4.25,7.25-4.895,11.452c-0.603,3.928-1.767,11.513,2.023,14.294c3.338-0.355,5.812,1.789,5.244,5.788
		c0,0.003,0,0.006,0,0.008c0,0-0.001,0-0.001,0c-0.019,0.134-0.026,0.261-0.052,0.399C15.626,84.092,13,83.65,13,81.996
		c0-0.157,0-0.314,0-0.471c-1.55-2.322-3.297-2.667-5.243-1.021c-1.931,1.471-2.921,3.352-2.969,5.644
		c-0.063,2.22,0.304,4.432,0.893,6.574c1.325,4.817,5.254,9.482,10.294,10.726c6.197,1.53,10.755-1.542,13.877-6.058
		c1.799-4.786,5.544-8.563,11.027-8.52c4.34,0.034,6.854,2.258,6.522,6.677c-0.323,4.307-3.914,5.649-7.652,5.699
		c-1.936,0.026-1.933-2.974,0-3c4.857-0.065,6.555-6.981,1.13-6.376c-2.151,0.24-4.517,1.035-5.933,2.79
		c-0.133,0.165-0.263,0.344-0.392,0.523c-0.022,0.065-0.04,0.13-0.072,0.195c-0.584,1.21-1.226,2.394-1.935,3.519
		c-1.392,3.528-1.832,7.746-0.014,10.658c2.294,3.676,6.841,8.478,11.619,8.125c3.754-0.277,6.512-2.323,9.967-3.413
		c4.57-1.443,10.647-3.122,14.279,1.284c2.43,2.948,4.888,9.06,9.374,3.708c2.086-2.489,3.626-5.187,5.182-8.021
		c0.931-1.696,3.522-0.182,2.59,1.514c-1.179,2.147-2.412,4.483-3.922,6.552c0.09,0.194,0.141,0.422,0.127,0.691
		c-0.236,4.611,5.953,8.686,9.899,9.304c3.544,0.554,7.011-0.076,10.032-2.068c5.287-3.485,9.789-8.749,12.281-14.596
		c2.616-6.137,5.908-16.961-2.218-20.595c-4.488-2.007-8.829,1.215-8.681,6.015c0.078,2.529,3.312,4.67,4.744,1.941
		c0.313-0.579,0.612-1.165,0.898-1.758c0.86-1.733,3.447-0.213,2.59,1.514c-1.306,2.634-4.094,7.38-7.802,5.038
		c-3.457-2.183-4.28-6.685-2.774-10.417c3.727-9.23,17.385-6.826,18.792,2.935c0.789,5.474-0.382,11.511-2.88,17.026
		c0.151,0.102,0.293,0.231,0.415,0.403c6.748,9.538,20.487,18.458,32.569,17.803c6.376-0.346,13.23-3.282,17.872-7.757
		c2.636-2.541,6.741-7.744,2.578-11.103c-1.333-1.18-2.874-1.778-4.621-1.793c-2.802-0.265-3.9,0.956-3.294,3.661
		c1.907,0.302,1.094,3.192-0.797,2.893c-3.212-0.508-4.339-3.277-2.666-6.132c1.606-2.741,5.457-3.959,8.464-3.261
		c3.986,0.926,6.282,3.37,7.04,6.289c0.165,0.042,0.335,0.114,0.506,0.237c2.062,1.487,5.31,3.938,7.704,4.286
		c3.454,0.503,6.68-0.447,10.015-1.188c7.168-1.593,15.297-5.149,14.618-13.887c-0.569-7.315-7.606-17.741-15.985-17.19
		c-4.808,0.316-9.316,3.456-7.529,8.9c0.634,1.931,1.911,4.669,4.222,5.13c2.385,0.719,3.886-0.143,4.504-2.586
		c-1.608-1.059-0.107-3.658,1.514-2.59c3.501,2.306,2.754,5.95-1.175,7.519c-4.183,1.671-8.884,0.305-10.896-4.013
		c-1.712-3.674-2.44-8.965,0.875-12.091c3.522-3.32,9.58-4.495,14.012-2.168c0.571,0.3,1.144,0.637,1.715,1.006
		c1.265-1.809,1.949-4.327,1.272-6.456c-0.771-2.428-2.595-4.719-5.412-3.556c-0.402,0.166-0.75,0.141-1.032,0.005
		c-2.76,2.649-6.382,4.331-9.516,3.745c-8.787-1.643-7.971-11.421-2.805-16.587c5.011-5.011,12.807,2.005,6.461,6.185
		c-0.966,0.636-2.257-0.205-2.257-1.295c0-0.167,0-0.333,0-0.5c0-0.523,0.223-0.9,0.543-1.14c-1.371-2.283-2.703-2.155-3.997,0.397
		c-0.628,0.839-1.122,1.754-1.482,2.744c-0.732,2.693-0.12,6.469,3.283,7.105c4.158,0.777,11.628-4.63,11.154-9.357
		c-0.382-3.811-4.677-8.718-8.75-8.75c-3.638-0.029-5.271,2.651-8.351,3.196c-0.093,0.016-0.18,0.019-0.268,0.021
		c-2.58,1.943-5.641,2.929-9.03,1.729c-1.811-0.641-1.031-3.54,0.797-2.893c4.952,1.753,9.316-3.432,11.556-7.311
		c2.044-3.539,2.147-7.49-0.192-10.896c-1.879-0.192-3.358-1.001-4.21-3.448c-0.637-1.832,2.261-2.613,2.893-0.797
		c1.123,3.228,10.139,0.512,12.707-1.215c-0.896-3.405-0.523-7.306,0.651-10.285c2.016-5.118,6.725-7.803,12.095-6.798
		c5.992,1.121,2.448,7.026-0.338,9.257c-0.974,0.78-2.561,0.356-2.561-1.061c0-0.417,0-0.833,0-1.25
		c0-1.189,1.133-1.644,2.006-1.372c0.4-0.675,0.631-1.474,0.686-2.404c-2.036-0.771-3.931-0.612-5.685,0.477
		c-2.205,1.552-3.774,3.899-4.181,6.605c-0.823,5.476,1.597,12.268,8.213,12.144c8.525-0.159,12.483-8.517,13.836-15.876
		C218.054,17.937,215.955,6.573,205.505,3.735z"/>
	<path fill="#289CDD" d="M199.944,0c-8.15,0.024-14.87,6.066-20.255,11.435c-0.14,0.14-0.236,0.289-0.307,0.44
		c-7.869-6.177-25.025,3.568-25.632,14.08c-0.533,0.161-1.084,0.398-1.653,0.736c-4.531,2.691-6.221,7.438-9.409,11.244
		c-0.028,0.033-0.045,0.068-0.07,0.102c-1.104-0.728-2.307-1.313-3.544-1.922c-2.835-1.396-6.436-1.957-9.621-1.286
		c2.501-9.236-2.494-22.148-9.285-26.827c-6.187-4.263-13.9-4.208-20.77-1.718c-3.491,1.265-8.704,4.273-11.077,8.096
		c-0.783-1.228-1.784-2.355-3.048-3.32c-6.582-5.026-18.093-2.377-25.423-0.761c-9.531,2.101-16.71,7.165-22.634,14.83
		c-1.507,1.95-2.801,4.038-4.04,6.165c-0.799,1.372-1.863,5.583-3.309,6.424c-1.144,0.666-1.4,1.508-1.212,2.397
		c-5.005-0.218-10.597,2.382-14.128,5.321c-5.415,4.506-7.896,10.51-8.947,17.355C4.876,67.388,4.57,73.399,7.596,77.198
		c-0.024,0.013-0.048,0.021-0.072,0.034c-6.686,3.557-7.02,12.106-4.069,18.521c2.971,6.458,9.26,11.365,16.566,11.148
		c3.551-0.105,6.347-1.391,8.618-3.341c-0.107,3.186,0.563,6.321,2.07,8.736c2.352,3.768,7.357,7.998,11.976,8.292
		c7.46,0.474,13.464-6.184,20.933-4.656c4.358,0.892,5.688,10.636,11.281,8.761c1.561-0.523,2.897-1.373,4.078-2.42
		c0.986,4.047,5.026,7.018,8.639,8.832c5.117,2.57,10.827,1.407,15.579-1.281c4.84-2.739,9.022-7.313,11.98-12.604
		c6.242,8.291,15.558,14.142,25.459,17.02c10.978,3.192,21.925-0.537,30.021-8.342c2.105-2.03,3.345-4.488,3.706-6.904
		c4.351,2.967,8.221,4.526,13.788,3.7c6.256-0.928,13.991-2.801,18.48-7.564c7.894-8.376,1.83-20.285-5.943-26.664
		c1.987-2.898,2.842-6.738,1.397-10.064c-1.206-2.773-3.393-5.057-6.252-5.097c1.604-2.707,2.22-5.753,1.021-8.354
		c-1.524-3.307-4.695-7.149-8.361-8.205c-2.081-0.599-3.995-0.584-6.109-0.163c-0.034,0.007-0.066,0.022-0.099,0.03
		c2.659-4.271,3.776-9.033,1.425-13.592c0.097-0.008,0.193-0.015,0.292-0.023c3.019-0.239,6.198-0.982,8.771-2.551
		c0.683,1.213,1.592,2.281,2.775,3.099c5.003,3.456,11.119,2.957,15.879-0.656c9.515-7.222,11.103-24.85,5.12-34.399
		C213.005,2.839,206.417-0.019,199.944,0z M216.376,27.071c-1.353,7.359-5.311,15.717-13.836,15.876
		c-6.616,0.123-9.037-6.668-8.213-12.144c0.407-2.706,1.976-5.054,4.181-6.605c1.754-1.089,3.649-1.247,5.685-0.477
		c-0.055,0.929-0.286,1.729-0.686,2.404c-0.874-0.273-2.006,0.182-2.006,1.372c0,0.417,0,0.833,0,1.25
		c0,1.417,1.587,1.84,2.561,1.061c2.786-2.231,6.33-8.136,0.338-9.257c-5.37-1.005-10.079,1.679-12.095,6.798
		c-1.174,2.979-1.547,6.88-0.651,10.285c-2.568,1.726-11.584,4.443-12.707,1.215c-0.631-1.815-3.53-1.035-2.893,0.797
		c0.851,2.448,2.331,3.256,4.21,3.448c2.339,3.406,2.235,7.357,0.192,10.896c-2.24,3.879-6.604,9.063-11.556,7.311
		c-1.828-0.647-2.608,2.252-0.797,2.893c3.389,1.199,6.45,0.214,9.03-1.729c0.087-0.002,0.175-0.004,0.268-0.021
		c3.081-0.546,4.713-3.225,8.351-3.196c4.073,0.032,8.368,4.939,8.75,8.75c0.474,4.727-6.996,10.134-11.154,9.357
		c-3.403-0.636-4.015-4.413-3.283-7.105c0.36-0.991,0.854-1.906,1.482-2.744c1.294-2.552,2.627-2.68,3.997-0.397
		c-0.32,0.24-0.543,0.617-0.543,1.14c0,0.167,0,0.333,0,0.5c0,1.091,1.291,1.932,2.257,1.295c6.345-4.18-1.45-11.196-6.461-6.185
		c-5.165,5.165-5.982,14.943,2.805,16.587c3.133,0.586,6.756-1.096,9.516-3.745c0.282,0.136,0.629,0.161,1.032-0.005
		c2.817-1.163,4.641,1.128,5.412,3.556c0.677,2.13-0.007,4.647-1.272,6.456c-0.571-0.369-1.144-0.706-1.715-1.006
		c-4.433-2.327-10.491-1.152-14.012,2.168c-3.315,3.125-2.587,8.417-0.875,12.091c2.012,4.318,6.713,5.684,10.896,4.013
		c3.928-1.569,4.676-5.213,1.175-7.519c-1.621-1.068-3.122,1.531-1.514,2.59c-0.618,2.444-2.12,3.306-4.504,2.586
		c-2.311-0.461-3.588-3.199-4.222-5.13c-1.786-5.444,2.721-8.584,7.529-8.9c8.379-0.551,15.416,9.875,15.985,17.19
		c0.68,8.738-7.45,12.294-14.618,13.887c-3.335,0.741-6.561,1.69-10.015,1.188c-2.395-0.349-5.642-2.799-7.704-4.286
		c-0.171-0.123-0.34-0.195-0.506-0.237c-0.758-2.919-3.054-5.363-7.04-6.289c-3.007-0.699-6.858,0.52-8.464,3.261
		c-1.673,2.855-0.546,5.624,2.666,6.132c1.892,0.299,2.704-2.591,0.797-2.893c-0.606-2.705,0.493-3.925,3.294-3.661
		c1.748,0.015,3.288,0.612,4.621,1.793c4.163,3.359,0.058,8.562-2.578,11.103c-4.642,4.475-11.495,7.412-17.872,7.757
		c-12.082,0.655-25.821-8.265-32.569-17.803c-0.122-0.172-0.264-0.301-0.415-0.403c2.499-5.514,3.669-11.552,2.88-17.026
		c-1.407-9.761-15.065-12.165-18.792-2.935c-1.507,3.732-0.684,8.234,2.774,10.417c3.708,2.342,6.496-2.404,7.802-5.038
		c0.856-1.727-1.731-3.247-2.59-1.514c-0.286,0.593-0.586,1.179-0.898,1.758c-1.432,2.729-4.666,0.589-4.744-1.941
		c-0.148-4.8,4.193-8.022,8.681-6.015c8.126,3.633,4.834,14.458,2.218,20.595c-2.492,5.847-6.994,11.111-12.281,14.596
		c-3.021,1.991-6.488,2.622-10.032,2.068c-3.945-0.617-10.134-4.692-9.899-9.304c0.014-0.269-0.037-0.497-0.127-0.691
		c1.511-2.07,2.743-4.405,3.922-6.552c0.932-1.697-1.659-3.21-2.59-1.514c-1.556,2.834-3.096,5.532-5.182,8.021
		c-4.486,5.352-6.944-0.76-9.374-3.708c-3.632-4.406-9.709-2.727-14.279-1.284c-3.455,1.091-6.214,3.136-9.967,3.413
		c-4.778,0.353-9.325-4.449-11.619-8.125c-1.817-2.912-1.378-7.13,0.014-10.658c0.709-1.125,1.351-2.309,1.935-3.519
		c0.032-0.066,0.049-0.13,0.072-0.195c0.13-0.179,0.259-0.358,0.392-0.523c1.416-1.755,3.782-2.55,5.933-2.79
		c5.425-0.605,3.727,6.311-1.13,6.376c-1.933,0.026-1.936,3.026,0,3c3.738-0.05,7.329-1.392,7.652-5.699
		c0.332-4.419-2.182-6.642-6.522-6.677c-5.483-0.043-9.228,3.734-11.027,8.52c-3.122,4.517-7.68,7.588-13.877,6.058
		c-5.04-1.244-8.97-5.909-10.294-10.726c-0.589-2.142-0.955-4.355-0.893-6.574c0.048-2.292,1.038-4.173,2.969-5.644
		c1.946-1.647,3.693-1.301,5.243,1.021c0,0.157,0,0.314,0,0.471c0,1.654,2.626,2.096,2.946,0.399
		c0.026-0.138,0.033-0.265,0.052-0.399c0,0,0.001,0,0.001,0c0-0.003,0-0.006,0-0.008c0.568-3.999-1.906-6.143-5.244-5.788
		c-3.79-2.78-2.626-10.365-2.023-14.294c0.645-4.202,2.259-8.114,4.895-11.452c2.626-3.326,6.648-5.325,10.57-6.669
		c2.386-0.818,4.743-0.764,7.154-0.093c1.207,0.336,6.791,2.662,5.952,4.655c-0.75,1.783,2.155,2.553,2.893,0.797
		c1.737-4.13-4.57-7.001-7.757-8.233c-0.008-0.011-0.011-0.022-0.019-0.033c-1.01-1.392-0.941-0.197,0.14-1.573
		c1.396-1.776,2.107-4.465,3.207-6.498c2.633-4.869,6.204-9.224,10.322-12.904c7.824-6.989,20.788-8.778,30.86-8.375
		c7.102,0.284,11.165,5.191,10.212,12.227c-0.812,5.993-5.628,11.17-10.267,14.637c-5.489,4.104-13.12,5.048-15.868-2.427
		c-1.043-2.838-0.397-5.759,0.903-8.362c0.615-1.161,1.469-2.105,2.56-2.832c0.825-0.245,1.649-0.49,2.474-0.735
		c1.761-0.319,2.64,0.352,2.638,2.011c-1.874,0.476-1.079,3.37,0.797,2.893c6.381-1.622,2.625-6.55-1.804-7.745
		c-5.926-1.599-10.492,5.072-10.984,10.158c-0.555,5.734,3.11,13.459,9.796,13.402c9.133-0.078,16.972-7.476,20.965-15.178
		c1.826-3.522,2.458-7.472,1.667-11.051c0.01-0.072,0.024-0.141,0.025-0.219c0.038-2.848,4.311-5.847,6.348-7.215
		c3.263-2.192,7.174-3.224,11.042-3.54c9.852-0.805,15.048,5.984,18.22,14.193c3.177,8.221,0.093,21.909-11.175,19.71
		c-4.18-0.816-6.703-4.651-7.809-8.435c-0.641-2.196-0.334-4.729,0.072-6.919c0.298-1.319,0.74-2.589,1.325-3.812
		c3.992-2.746,6.43-2.576,7.314,0.51c-1.848-0.59-2.633,2.307-0.797,2.893c4.48,1.43,5.613-2.56,2.87-5.741
		c-4.37-5.068-9.846-3.964-12.516,2.038c-5.138,11.55,4.195,27.866,17.724,21.307c2.434-1.18,4.197-2.936,5.394-5.051
		c0.22,0.004,0.45-0.036,0.685-0.141c2.61-1.164,5.818-0.427,8.4,0.443c1.344,0.453,2.66,1.234,3.867,1.963
		c2.081,1.257,1.747,3.047,2.529,4.947c0.726,1.763,3.63,0.992,2.893-0.797c-0.601-1.461-0.326-3.18-1.386-4.474
		c-0.06-0.073-0.126-0.137-0.188-0.207c1.936-2.402,10.404-16.839,12.93-8.333c0.55,1.85,3.445,1.062,2.893-0.797
		c-0.739-2.489-2.158-4.305-4.02-4.911c0.316-4.279,5.618-8.388,8.581-10.395c5.197-3.52,13.323-4.381,14.797,3.604
		c0.351,1.901,3.242,1.093,2.893-0.797c-0.331-1.792-0.921-3.247-1.696-4.428c0.193-0.069,0.383-0.186,0.56-0.362
		c6.469-6.449,14.003-12.454,23.694-9.821C215.955,6.573,218.054,17.937,216.376,27.071z"/>
</g>
</svg>
