<svg version="1.1" id="Layer_1" xmlns="http://www.w3.org/2000/svg" xmlns:xlink="http://www.w3.org/1999/xlink" x="0px" y="0px"
	 width="313.968px" height="157.525px" viewBox="0 0 313.968 157.525" enable-background="new 0 0 313.968 157.525"
	 xml:space="preserve">
<path fill="#FFFFFF" d="M304.442,146.961c0-3.823-2.038-7.162-5.079-9.016c8.91-7.251,14.606-18.3,14.606-30.684
	c0-21.84-17.704-39.544-39.544-39.544c-6.222,0-12.107,1.441-17.344,4.002c-0.471-0.23-0.949-0.447-1.43-0.658
	c0.092-1.103,0.151-2.216,0.151-3.343c0-21.84-17.705-39.544-39.544-39.544c-7.205,0-13.954,1.937-19.772,5.303
	c-1.519-0.879-3.1-1.663-4.739-2.337C187.892,13.338,172.06,0,153.106,0c-18.481,0-33.998,12.679-38.334,29.812
	c-2.045,0.607-4.024,1.368-5.916,2.283c-7.04-6.465-16.426-10.414-26.737-10.414c-21.84,0-39.544,17.704-39.544,39.544
	c0,3.62,0.496,7.122,1.407,10.452c-1.458-0.163-2.937-0.254-4.438-0.254C17.705,71.424,0,89.128,0,110.968
	c0,9.863,3.619,18.875,9.591,25.801c-4.501,1.21-7.819,5.308-7.819,10.192c0,5.835,4.73,10.565,10.565,10.565h281.541
	C299.712,157.525,304.442,152.795,304.442,146.961z"/>
</svg>
