<svg version="1.1" id="Layer_3" xmlns="http://www.w3.org/2000/svg" xmlns:xlink="http://www.w3.org/1999/xlink" x="0px" y="0px"
	 width="114.833px" height="72.333px" viewBox="0 0 114.833 72.333" enable-background="new 0 0 114.833 72.333"
	 xml:space="preserve">
<g>
	<path fill="#FFFFFF" d="M108.369,22.319c-0.98-1.443-1.892-2.124-2.787-2.381c-1.896,2.401-4.987,3.647-8.233,3.506
		c-1.51-0.066-1.75-2.095-0.349-2.578c3.317-1.144,7.943-1.879,7.391-6.625c-0.303-2.61-0.227-6.122-1.924-8.332
		c-5.361-6.982-17.071,0.342-17.389,7.722c-0.012,0.286-0.185,0.455-0.39,0.515c2.09,1.816,3.827,3.994,4.68,6.01
		c1.598,3.779,0.968,8.866-3.199,10.901c-4.705,2.298-9.338,0.804-13.001-2.745c-0.38-0.368,0.021-0.905,0.479-0.823
		c3.231,0.58,8.004,3.409,11.122,1.173c5.004-3.589,2.445-8.615-1.093-11.986c-4.841-4.613-14.264-7.592-19.662-1.891
		c0.34,1.177,0.499,2.443,0.423,3.809c-0.56,10.063-14.751,11.181-19.848,3.705c-2.293-3.364-3.626-7.488,0.045-10.236
		c2.62-1.962,7.467,1.181,8.64,3.499c0.23,0.454,0.294,1.022,0,1.472c-0.938,1.433-2.319,1.494-3.854,0.88
		c-0.902-0.36-0.967-1.56,0-1.898c0.356-0.125,0.612-0.176,0.792-0.198c-0.202-0.034-0.499-0.117-0.9-0.308
		c-3.552,0.462-4.393,1.782-2.522,3.96c1.688,2.39,4.265,4.227,7.326,4.162C65.23,23.395,60.2,11.527,53.769,8.376
		c-5.358-2.625-12.618-3.405-17.812,0.177c-2.922,2.015-4.963,4.877-4.846,8.58c0.013,0.407,0.796,3.456,0.146,3.559
		c0.915-0.144,1.682,0.877,0.946,1.626c-0.01,0.01-0.02,0.02-0.03,0.031c4.245,1.66,7.482,4.932,7.744,9.912
		c0.264,5.01-5.665,12.011-10.305,13.356c-4.564,1.323-10.037-0.414-12.181-5.014c-1.816-3.897-1.848-8.3,1.8-11.086
		c3.412-2.606,8.149,0.896,9.966,3.645c0.377,0.57-0.477,1.216-0.939,0.724c-1.697-1.811-5.917-5.648-8.668-2.13
		c-1.243,1.617-1.652,3.426-1.228,5.428c1.452,4.626,6.729,8.653,11.545,5.364c2.824-1.929,6.422-5.488,6.909-9.078
		c0.659-4.859-2.637-7.835-7.064-8.453c-6.979-0.974-13.1,0.245-17.623,5.98c-4.528,5.742-5.707,13.794,1.119,18.329
		c0.75,0.498,0.751,1.848-0.269,2.056c-3.208,0.654-5.276-1.416-6.516-4.108c-3.113,0.645-4.333,2.489-3.646,5.543
		c0.263,0.673,0.527,1.347,0.79,2.02c1.023,1.574,2.259,2.87,3.926,3.763c2.674,1.432,6.066,2.865,9.179,2.849
		c3.31-0.018,12.059-1.179,12.763-5.814c0.609-4.009-4.236-2.6-5.611-1.88c-0.972,0.509-2.851,2.921-0.688,1.349
		c0.821-0.597,1.878,0.554,1.363,1.363c-1.363,2.143-5.456,4.064-6.494,0.29c-0.874-3.179,2.901-5.681,5.459-6.494
		c2.74-0.871,8.469-1.242,9.165,2.861c0.14,0.829,0.152,1.617,0.057,2.365c0.28,0.301,0.409,0.735,0.147,1.144
		c-6.172,9.629,4.909,12.328,12.243,11.252c3.255-0.477,7.033-0.138,9.302-3.058c3.771-4.854-0.481-6.253-3.15-5.365
		c-2.346,1.537-2.661,2.709-0.943,3.515c0.622,0.461,0.639,1.511-0.227,1.735c-6.362,1.647-5.219-7.393,0.301-8.401
		c5.993-1.094,11.881,3.624,7.201,9.649c-0.237,0.305-0.477,0.583-0.72,0.85c4.24,0.768,8.531,1.049,12.686-0.146
		c-0.469-0.418-0.928-0.869-1.363-1.392c-3.429-4.131-2.025-10.473,3.332-11.825c4.061-1.024,8.141,2.938,4.407,6.114
		c-0.511,0.435-1.321-0.112-0.957-0.738c-0.866-4.521-2.888-4.951-6.066-1.291c-0.839,2.947-0.22,5.343,1.858,7.19
		c2.541,2.246,5.806,2.914,9.076,1.731c2.472-0.893,4.525-2.029,6.599-3.612c1.576-1.203,5.151-4.778,4.543-7.508
		c-4.565-0.347-8.804-4.314-3.976-7.759c0.516-0.368,1.024,0.237,0.947,0.728c-0.89,5.695,8.811,3.174,11.888,1.883
		c3.867-1.623,7.847-4.498,9.645-8.43c1.989-4.35,1.414-9.365,0.573-13.94C109.745,26.011,109.422,23.867,108.369,22.319z"/>
	<path fill="#3D89D3" d="M106.502,18.481c0.198-0.395,0.375-0.807,0.516-1.244c0.717-2.23-0.398-5.435-0.912-7.575
		c-0.533-2.221-1.34-4.028-2.804-5.776c-6.332-7.564-19.678,1.404-19.349,9.647c-2.23-1.777-4.772-3.104-7.059-3.39
		C72.846,9.636,66.126,9.9,63.711,13.884C60.53,5.656,47.816,2.425,40.276,3.899c-4.448,0.87-9.635,3.978-11.037,8.558
		c-0.682,2.228-1.444,6.556,0.034,9.036c-5.29-1.102-11.353-0.087-15.202,2.934c-5.341,4.192-9.747,10.131-9.074,17.177
		c0.081,0.844,0.231,1.773,0.458,2.713c-0.864,0.17-1.71,0.589-2.41,1.299c-3.003,3.047-3.217,6.651-1.534,10.448
		c4.024,9.076,17.919,9.862,25.519,6.304c0.606-0.284,1.176-0.608,1.711-0.964c-0.28,3.569,1.548,7,5.59,8.536
		c4.503,1.711,7.879,1.33,12.573,0.913c2.853-0.253,5.214-0.647,7.302-1.851c3.988,0.906,7.378,1.204,11.573,1.179
		c2.6-0.016,4.264-0.567,5.913-2.016c4.652,2.511,10.301,1.044,14.884-2.61c1.732-1.38,6.849-6.89,6.124-10.176
		c6.966-0.091,14.391-3.556,18.286-9.419c4.329-6.517,3.15-13.989,0.998-21.147C110.958,21.398,108.982,19.107,106.502,18.481z
		 M109.503,41.755c-1.797,3.932-5.778,6.807-9.645,8.43c-3.077,1.292-12.778,3.813-11.888-1.883
		c0.077-0.491-0.431-1.096-0.947-0.728c-4.828,3.445-0.589,7.412,3.976,7.759c0.608,2.731-2.966,6.305-4.543,7.508
		c-2.074,1.583-4.127,2.719-6.599,3.612c-3.271,1.182-6.536,0.514-9.076-1.731c-2.078-1.847-2.697-4.243-1.858-7.19
		c3.177-3.66,5.199-3.23,6.066,1.291c-0.364,0.626,0.446,1.174,0.957,0.738c3.733-3.176-0.346-7.138-4.407-6.114
		c-5.357,1.351-6.761,7.694-3.332,11.825c0.435,0.523,0.893,0.974,1.363,1.392c-4.155,1.194-8.446,0.914-12.686,0.146
		c0.242-0.267,0.483-0.545,0.72-0.85c4.68-6.025-1.208-10.743-7.201-9.649c-5.519,1.008-6.663,10.047-0.301,8.401
		c0.866-0.224,0.849-1.274,0.227-1.735c-1.718-0.807-1.404-1.978,0.943-3.515c2.668-0.888,6.921,0.51,3.15,5.365
		c-2.268,2.92-6.047,2.581-9.302,3.058c-7.334,1.076-18.414-1.623-12.243-11.252c0.262-0.409,0.133-0.844-0.147-1.144
		c0.095-0.748,0.084-1.537-0.057-2.365c-0.695-4.103-6.425-3.732-9.165-2.861c-2.558,0.814-6.333,3.315-5.459,6.494
		c1.038,3.773,5.13,1.852,6.494-0.29c0.515-0.809-0.542-1.96-1.363-1.363c-2.163,1.572-0.284-0.84,0.688-1.349
		c1.375-0.72,6.22-2.129,5.611,1.88c-0.704,4.635-9.453,5.797-12.763,5.814c-3.113,0.017-6.505-1.416-9.179-2.849
		c-1.668-0.893-2.903-2.189-3.926-3.763c-0.263-0.673-0.527-1.347-0.79-2.02c-0.687-3.054,0.533-4.898,3.646-5.543
		c1.24,2.691,3.308,4.762,6.516,4.108c1.02-0.208,1.019-1.558,0.269-2.056c-6.826-4.535-5.647-12.587-1.119-18.329
		c4.523-5.735,10.643-6.954,17.623-5.98c4.427,0.618,7.723,3.594,7.064,8.453c-0.487,3.59-4.085,7.15-6.909,9.078
		c-4.816,3.289-10.093-0.738-11.545-5.364c-0.424-2.002-0.014-3.812,1.228-5.428c2.75-3.518,6.971,0.319,8.668,2.13
		c0.461,0.492,1.315-0.154,0.939-0.724c-1.817-2.748-6.555-6.25-9.966-3.645c-3.648,2.786-3.616,7.188-1.8,11.086
		c2.144,4.599,7.616,6.337,12.181,5.014c4.64-1.345,10.569-8.346,10.305-13.356c-0.263-4.98-3.5-8.252-7.744-9.912
		c0.01-0.01,0.02-0.02,0.03-0.031c0.736-0.749-0.031-1.77-0.946-1.626c0.65-0.103-0.133-3.152-0.146-3.559
		c-0.117-3.704,1.924-6.565,4.846-8.58c5.193-3.582,12.454-2.802,17.812-0.177c6.431,3.151,11.461,15.019,0.348,15.255
		c-3.061,0.065-5.638-1.773-7.326-4.162c-1.871-2.177-1.03-3.497,2.522-3.96c0.401,0.191,0.698,0.274,0.9,0.308
		c-0.18,0.021-0.436,0.073-0.792,0.198c-0.967,0.338-0.902,1.538,0,1.898c1.535,0.613,2.916,0.553,3.854-0.88
		c0.294-0.45,0.23-1.017,0-1.472c-1.173-2.317-6.02-5.46-8.64-3.499c-3.671,2.748-2.338,6.873-0.045,10.236
		c5.096,7.476,19.287,6.359,19.848-3.705c0.076-1.366-0.083-2.633-0.423-3.809c5.397-5.701,14.821-2.722,19.662,1.891
		c3.538,3.371,6.097,8.397,1.093,11.986c-3.119,2.236-7.891-0.593-11.122-1.173c-0.458-0.082-0.858,0.455-0.479,0.823
		c3.663,3.55,8.297,5.043,13.001,2.745c4.167-2.035,4.797-7.122,3.199-10.901c-0.853-2.017-2.591-4.195-4.68-6.01
		c0.206-0.06,0.378-0.229,0.39-0.515c0.318-7.38,12.029-14.704,17.389-7.722c1.697,2.21,1.621,5.722,1.924,8.332
		c0.551,4.746-4.075,5.481-7.391,6.625c-1.401,0.483-1.161,2.512,0.349,2.578c3.246,0.142,6.337-1.104,8.233-3.506
		c0.894,0.257,1.807,0.939,2.787,2.381c1.052,1.549,1.375,3.692,1.707,5.496C110.918,32.389,111.492,37.405,109.503,41.755z"/>
</g>
</svg>
