<svg version="1.1" id="Layer_1" xmlns="http://www.w3.org/2000/svg" xmlns:xlink="http://www.w3.org/1999/xlink" x="0px" y="0px"
	 width="237.92px" height="136.883px" viewBox="0 0 237.92 136.883" enable-background="new 0 0 237.92 136.883"
	 xml:space="preserve">
<path fill="#FFFFFF" d="M217.789,70.224c0.079-0.94,0.129-1.888,0.129-2.848c0-18.605-15.083-33.688-33.688-33.688
	c-9.317,0-17.749,3.783-23.848,9.895c-5.328-8.887-14.108-15.459-24.486-17.881C132.309,10.953,119.022,0,103.169,0
	C86.843,0,73.232,11.615,70.142,27.032c-1.563-0.222-3.159-0.344-4.783-0.344c-18.605,0-33.688,15.083-33.688,33.688
	c0,1.084,0.056,2.154,0.156,3.212C14.088,64.553,0,79.241,0,97.222c0,8.402,3.083,16.079,8.17,21.98
	c-3.834,1.031-6.661,4.522-6.661,8.682c0,4.971,4.029,9,9,9H224.5c4.971,0,9-4.029,9-9c0-2.449-0.981-4.666-2.567-6.289
	c4.378-5.685,6.987-12.801,6.987-20.531C237.92,87.283,229.641,75.442,217.789,70.224z"/>
</svg>
