<svg version="1.1" xmlns="http://www.w3.org/2000/svg" xmlns:xlink="http://www.w3.org/1999/xlink" x="0px" y="0px"
	 width="102.208px" height="82.396px" viewBox="0 0 102.208 82.396" enable-background="new 0 0 102.208 82.396"
	 xml:space="preserve">
<g id="Layer_2">
	<path fill="#FFFFFF" d="M88.794,34.574c-0.102,0.11-0.2,0.223-0.306,0.331c-4.406,4.499-9.789,5.777-15.883,6.54
		c-1.916,0.24-1.893-2.763,0-3c4.631-0.58,10.886-2.638,14.532-6.37c0.008-0.01,0.018-0.019,0.027-0.029
		c2.461-2.534,3.721-5.836,2.457-9.969c-2.74-8.961-12.678-8.851-19.509-4.836c-0.15,0.088-0.297,0.139-0.442,0.173
		c-0.506,4.059-1.394,7.812-1.868,9.931c-0.422,1.888-3.314,1.087-2.893-0.798c0.802-3.587,5.705-25.969-3.943-23.443
		c-5.893,1.543-10.638,7.256-14.016,12.029c0.129,0.221,0.267,0.435,0.38,0.669c2.275,4.687,1.485,9.012,0.221,13.917
		c-0.482,1.872-3.376,1.077-2.893-0.798c1.077-4.18,2.268-8.651-0.442-12.503c-1.768-2.513-4.469-3.648-7.368-2.172
		c-4.523,2.303-7.89,6.755-9.228,11.639c0.676,0.301,1.325,0.704,1.933,1.239c4.612,4.062,3.142,11.029,2.552,16.445
		c-0.207,1.902-3.209,1.922-3,0c0.373-3.422,2.184-10.927-0.811-13.564c-4.462-3.93-10.881-0.311-14.636,2.959
		c-3.427,2.984-7.627,7.437-7.554,12.332c0.081,5.407,4.194,8.512,8.508,10.977c1.679,0.959,0.168,3.552-1.514,2.59
		c-1.894-1.082-3.697-2.312-5.242-3.727C3.836,60.08,0.085,68.133,6.982,72.644c2.714,1.775,5.824,2.526,9.063,2.155
		c5.995-0.686,13-4.061,16.119-9.481c3.186-5.536-1.444-12.852-8.132-10.315c-2.265,0.859-4.533,2.558-5.537,4.833
		c-1.661,3.762,3.012,3.136,5.337,2.663c1.888-0.384,2.693,2.507,0.798,2.893c-2.759,0.561-8.721,1.352-9.41-2.786
		c-0.566-3.404,1.685-6.591,4.335-8.531c6.432-4.707,18.382-1.296,16.911,8.162c-1.444,9.285-13.481,15.954-22.236,15.637
		c6.107,4.849,22.266-3.355,28.539-4.03c14.547-1.564,29.527-1.267,42.042-8.376c-1.856,0.033-3.668-0.453-5.306-1.665
		c-6.781-5.02-2.911-17.957,4.718-20.138c2.769-0.792,6.844-0.774,8.333,2.217c1.764,3.542-3.102,6.219-5.57,7.359
		c-1.744,0.805-3.269-1.78-1.514-2.59c1.542-0.712,7.138-4.279,2.269-4.44c-2.958-0.098-5.736,1.47-7.082,4.167
		c-2.327,4.664-2.543,12.418,4.571,11.781c5.606-0.502,11.011-4.863,12.826-10.187C100.767,44.021,98.179,34.703,88.794,34.574z"/>
	<path fill="#2785C4" d="M90.879,31.736c1.791-3.142,2.41-6.826,1.635-10.457C90.257,10.693,78,10.051,69.988,13.913
		c0.36-6.629-0.852-13.076-6.953-13.842C55.754-0.842,48.991,7.211,45,12.724c-1.626-1.423-3.711-2.224-6.004-2.112
		c-6.968,0.339-12.593,8.224-14.304,14.596c-3.789-0.181-7.919,1.9-10.83,3.849C8.989,32.319,3.808,38.022,3.219,44.124
		c-0.34,3.515,0.727,6.4,2.586,8.811c-3.677,4.429-7.673,11.029-4.854,16.87c1.896,3.929,5.145,6.355,9.036,7.432
		c4.657,10.594,22.509,1.891,30.01,0.049c9.431-2.316,19.685-1.23,29.284-2.888c9.692-1.674,19.319-6.397,26.26-13.392
		c0.291-0.293,0.416-0.62,0.431-0.94c1.577-1.485,2.883-3.095,3.749-4.582C105.125,46.209,101.519,33.324,90.879,31.736z
		 M98.057,51.973c-1.815,5.324-7.22,9.685-12.826,10.187c-7.114,0.637-6.898-7.118-4.571-11.781
		c1.346-2.697,4.124-4.265,7.082-4.167c4.869,0.161-0.727,3.728-2.269,4.44c-1.755,0.81-0.23,3.395,1.514,2.59
		c2.468-1.139,7.334-3.816,5.57-7.359c-1.489-2.99-5.564-3.008-8.333-2.217c-7.629,2.181-11.499,15.119-4.718,20.138
		c1.638,1.212,3.45,1.697,5.306,1.665c-12.515,7.109-27.495,6.812-42.042,8.376c-6.273,0.674-22.432,8.879-28.539,4.03
		c8.754,0.317,20.791-6.352,22.236-15.637c1.471-9.458-10.479-12.87-16.911-8.162c-2.651,1.94-4.902,5.127-4.335,8.531
		c0.689,4.138,6.651,3.347,9.41,2.786c1.895-0.385,1.091-3.277-0.798-2.893c-2.325,0.473-6.998,1.099-5.337-2.663
		c1.004-2.275,3.272-3.974,5.537-4.833c6.689-2.537,11.319,4.779,8.132,10.315c-3.119,5.42-10.124,8.794-16.119,9.481
		c-3.239,0.371-6.349-0.38-9.063-2.155c-6.896-4.51-3.146-12.564,0.875-17.505c1.544,1.415,3.348,2.645,5.242,3.727
		c1.682,0.961,3.193-1.631,1.514-2.59c-4.314-2.465-8.427-5.57-8.508-10.977c-0.073-4.895,4.126-9.348,7.554-12.332
		c3.756-3.27,10.174-6.889,14.636-2.959c2.995,2.637,1.184,10.142,0.811,13.564c-0.209,1.922,2.793,1.902,3,0
		c0.59-5.416,2.06-12.383-2.552-16.445c-0.608-0.536-1.258-0.938-1.933-1.239c1.338-4.885,4.705-9.337,9.228-11.639
		c2.899-1.476,5.6-0.341,7.368,2.172c2.711,3.852,1.519,8.323,0.442,12.503c-0.483,1.875,2.41,2.67,2.893,0.798
		c1.264-4.905,2.054-9.231-0.221-13.917c-0.113-0.234-0.252-0.447-0.38-0.669c3.378-4.774,8.123-10.486,14.016-12.029
		c9.647-2.526,4.745,19.856,3.943,23.443c-0.421,1.885,2.471,2.685,2.893,0.798c0.474-2.119,1.362-5.872,1.868-9.931
		c0.145-0.034,0.292-0.085,0.442-0.173c6.83-4.014,16.768-4.125,19.509,4.836c1.264,4.133,0.004,7.435-2.457,9.969
		c-0.009,0.01-0.019,0.019-0.027,0.029c-3.646,3.731-9.901,5.789-14.532,6.37c-1.893,0.237-1.916,3.24,0,3
		c6.093-0.764,11.477-2.042,15.883-6.54c0.106-0.108,0.204-0.221,0.306-0.331C98.179,34.703,100.767,44.021,98.057,51.973z"/>
</g>
</svg>
