<svg version="1.1" id="Layer_1" xmlns="http://www.w3.org/2000/svg" xmlns:xlink="http://www.w3.org/1999/xlink" x="0px" y="0px"
	 width="197px" height="101px" viewBox="0 0 197 101" enable-background="new 0 0 197 101" xml:space="preserve">
<path fill="#FFFFFF" d="M194.25,92c0-3.314-1.796-6.202-4.464-7.764C194.294,78.722,197,71.678,197,64
	c0-13.09-7.864-24.338-19.122-29.294C177.953,33.813,178,32.912,178,32c0-17.673-14.327-32-32-32c-5.831,0-11.292,1.567-16,4.292
	C125.292,1.567,119.831,0,114,0c-7.801,0-14.947,2.794-20.5,7.433C87.947,2.794,80.801,0,73,0C55.327,0,41,14.327,41,32
	c0,1.22,0.075,2.422,0.208,3.607C39.199,35.212,37.125,35,35,35C17.327,35,3,49.327,3,67c0,5.894,1.6,11.411,4.38,16.153
	C3.184,83.917,0,87.583,0,92c0,4.971,4.029,9,9,9h176.25C190.221,101,194.25,96.971,194.25,92z"/>
</svg>
