<svg version="1.1" id="Layer_1" xmlns="http://www.w3.org/2000/svg" xmlns:xlink="http://www.w3.org/1999/xlink" x="0px" y="0px"
	 width="234.069px" height="121.807px" viewBox="0 0 234.069 121.807" enable-background="new 0 0 234.069 121.807"
	 xml:space="preserve">
<path fill="#FFFFFF" d="M77.676,4.346c-23.356,0-42.385,18.488-43.274,41.627C32.416,45.344,30.304,45,28.109,45
	C16.613,45,7.293,54.32,7.293,65.816c0,3.751,1.006,7.262,2.743,10.301c-4.926,3.807-8.111,9.756-8.111,16.463
	c0,4.417,1.385,8.506,3.732,11.875C2.343,105.783,0,109.019,0,112.807c0,4.971,4.029,9,9,9h216.069c4.971,0,9-4.029,9-9
	c0-4.228-2.92-7.766-6.85-8.731c0.536-1.846,0.839-3.792,0.839-5.812c0-6.448-2.933-12.208-7.536-16.027
	c1.212-3.989,1.869-8.22,1.869-12.606c0-23.923-19.393-43.316-43.316-43.316c-3.941,0-7.756,0.536-11.385,1.523
	C161.459,11.562,145.701,0,127.233,0c-10.619,0-20.34,3.827-27.875,10.17C92.98,6.473,85.578,4.346,77.676,4.346z"/>
</svg>
